<svg id="Layer_28" data-name="Layer 28" xmlns="http://www.w3.org/2000/svg" xmlns:xlink="http://www.w3.org/1999/xlink" viewBox="0 0 989.09 1085.57"><defs><style>.cls-1{fill:none;}.cls-2{fill:#ffb200;}.cls-3{fill:#371a45;}.cls-4{clip-path:url(#clip-path);}.cls-5{fill:#fff;}.cls-6{fill:#e5e5e5;}.cls-7{fill:#d8d8d8;}.cls-8{fill:#22a7f0;}.cls-9{fill:#197bdd;}.cls-10{opacity:0.35;}.cls-11{fill:#111a28;}.cls-12{opacity:0.5;}</style><clipPath id="clip-path" transform="translate(-600.36 -338.98)"><path class="cls-1" d="M1094.07,1201.29c-177,0-321.11-144.14-321.11-320.54C220.48,671.3,954.06-106.32,1131-106.32s877.32,1179.73,285.24,987.07C1416.27,1057.15,1271,1201.29,1094.07,1201.29Z"/></clipPath></defs><path class="cls-2" d="M1444,531.55c-87.49-87.64-201.4-138.54-323.13-144.94q-13.06-.67-26.24-.69t-26.21.69C808,400.33,600.36,617.22,600.36,881.86c0,131,51.47,254.54,144.92,347.83a499.26,499.26,0,0,0,105.83,80.77,494.4,494.4,0,0,0,486.57,0,501.63,501.63,0,0,0,106.17-80.72c93.89-93.34,145.59-216.89,145.59-347.88C1589.44,749.92,1537.78,625.5,1444,531.55ZM773,880.75c0-177.52,144.14-322.21,321.11-322.21s322.2,144.69,322.2,322.21c0,176.4-145.25,320.54-322.2,320.54S773,1057.15,773,880.75Z" transform="translate(-600.36 -338.98)"/><path class="cls-3" d="M1094.62,416.63c-255.43,0-463.55,209.25-463.55,465.23,0,193.27,120.72,360.07,290.9,428.6a462.71,462.71,0,0,0,344.67,0c170.72-68.53,292.09-235.34,292.09-428.6C1558.73,625.88,1349.5,416.63,1094.62,416.63Zm-.55,784.66c-177,0-321.11-144.14-321.11-320.54,0-177.52,144.14-322.21,321.11-322.21s322.2,144.69,322.2,322.21C1416.27,1057.15,1271,1201.29,1094.07,1201.29Z" transform="translate(-600.36 -338.98)"/><path class="cls-2" d="M1416.27,880.75c0,176.4-145.25,320.54-322.2,320.54S773,1057.15,773,880.75c0-177.52,144.14-322.21,321.11-322.21S1416.27,703.23,1416.27,880.75Z" transform="translate(-600.36 -338.98)"/><g class="cls-4"><path class="cls-5" d="M1314.59,531.36s55.15,20.91,60.82,31.12c10.51,18.93,8.56,130.19-20.51,159.2-11.38,11.36-95,22-95,22Z" transform="translate(-600.36 -338.98)"/><path class="cls-6" d="M1259.88,743.66s83.64-10.62,95-22,18.57-35.19,22.51-61.2c-.92.83-30.46,26.33-89.39-25.5l-.1-.09Z" transform="translate(-600.36 -338.98)"/><path class="cls-5" d="M892.72,743.66s-83.64-10.62-95-22-18.58-35.19-22.51-61.2l0,0c-6.16-40.59-4.39-86.43,2-98,5.66-10.21,60.82-31.13,60.82-31.13l26.67,103.54Z" transform="translate(-600.36 -338.98)"/><path class="cls-6" d="M892.72,743.66s-83.64-10.62-95-22-18.58-35.19-22.51-61.2c.92.83,30.46,26.33,89.39-25.5l.1-.09Z" transform="translate(-600.36 -338.98)"/><path class="cls-3" d="M1251.37,751.16l58.82-228.28,6.65,2.52c17.24,6.54,58,22.93,64.14,34,11.67,21,10.19,135.1-21.58,166.8-12,12-78.59,21.23-98.72,23.78ZM1319,539.89l-50.56,196.2c36.84-5.14,76.39-13.33,82-18.92,26.78-26.72,28.83-134.68,19.44-151.6C1366.94,561,1342.39,549.18,1319,539.89Z" transform="translate(-600.36 -338.98)"/><path class="cls-3" d="M901.24,751.16,891.92,750c-20.12-2.55-86.72-11.81-98.71-23.78-31.77-31.7-33.26-145.77-21.59-166.8,6.14-11.06,46.9-27.45,64.14-34l6.65-2.52Zm-67.6-211.27c-23.43,9.29-48,21.07-50.89,25.71-9.38,16.89-7.33,124.85,19.46,151.57,5.6,5.59,45.15,13.78,82,18.92Z" transform="translate(-600.36 -338.98)"/><path class="cls-5" d="M1248.38,1119.59h23.2a25,25,0,0,0,25-25v-65.8a25,25,0,0,0-25-25h-21.89" transform="translate(-600.36 -338.98)"/><path class="cls-3" d="M1271.58,1126h-23.2a6.37,6.37,0,1,1,0-12.74h23.2a18.68,18.68,0,0,0,18.66-18.66v-65.8a18.68,18.68,0,0,0-18.66-18.66h-21.89a6.37,6.37,0,0,1,0-12.74h21.89a31.44,31.44,0,0,1,31.4,31.4v65.8A31.44,31.44,0,0,1,1271.58,1126Z" transform="translate(-600.36 -338.98)"/><path class="cls-5" d="M902.68,1119.59h-23.2a25,25,0,0,1-25-25v-65.8a25,25,0,0,1,25-25h21.89" transform="translate(-600.36 -338.98)"/><path class="cls-3" d="M902.68,1126h-23.2a31.44,31.44,0,0,1-31.4-31.4v-65.8a31.44,31.44,0,0,1,31.4-31.4h21.89a6.37,6.37,0,1,1,0,12.74H879.48a18.68,18.68,0,0,0-18.66,18.66v65.8a18.68,18.68,0,0,0,18.66,18.66h23.2a6.37,6.37,0,1,1,0,12.74Z" transform="translate(-600.36 -338.98)"/><rect class="cls-5" x="283.45" y="447.09" width="383.45" height="405.14" rx="122.17"/><path class="cls-3" d="M1184,1197.58H967.08a89.74,89.74,0,0,1-89.64-89.64V869.35a89.74,89.74,0,0,1,89.64-89.64H1184a89.74,89.74,0,0,1,89.64,89.64v238.59A89.74,89.74,0,0,1,1184,1197.58ZM967.08,792.45a77,77,0,0,0-76.9,76.9v238.59a77,77,0,0,0,76.9,76.9H1184a77,77,0,0,0,76.9-76.9V869.35a77,77,0,0,0-76.9-76.9Z" transform="translate(-600.36 -338.98)"/><path class="cls-5" d="M1138,828.67c47.9,0,194-20.93,234.37-143.24l110.23,41.76S1440.7,953.46,1199,958.32" transform="translate(-600.36 -338.98)"/><path class="cls-3" d="M1199,964.69a6.37,6.37,0,0,1-.13-12.74c97.91-2,174.3-40.43,227-114.31,32.55-45.59,45.56-91.37,49.2-106.45l-99-37.49c-18.9,51.39-57.79,90.08-115.69,115.06S1148.26,835,1138,835a6.37,6.37,0,0,1,0-12.74c63.13,0,192.1-29,228.32-138.87a6.38,6.38,0,0,1,8.31-4l110.23,41.76a6.37,6.37,0,0,1,4,7.12c-.43,2.36-11.19,58.61-52.21,116.27-38,53.36-110,117.5-237.45,120.07Z" transform="translate(-600.36 -338.98)"/><path class="cls-5" d="M831,1078.85s-19.08,59.53,43.66,72.3a57.86,57.86,0,0,0,31.76-2.14c41.64-15.36,61.77-79.55,7.09-143.78q-4.34-5.1-9.29-10.2a4.36,4.36,0,0,1-.43-.43s2.9-4.8,12.2-11.57a136.22,136.22,0,0,1,25.9-14.37l22.49-68.81,0-.12,4-12.2,24.31-74.29S970.45,820.81,942,833.7c-9.4,4.26-19.51,9.12-29.71,14.48-2.81,1.47-5.63,3-8.46,4.55,0,0-6.18,3.33-15.85,9.33C838.45,892.88,697.79,994.06,831,1078.85Z" transform="translate(-600.36 -338.98)"/><path class="cls-7" d="M948.62,912.67l-6.71,56c-30.41,13.2-38.12,25.94-38.12,25.94l.42.43c-8.15-6.72-19.09-14.41-30.57-18.72,0,0,21.63-11.25,28.23-19.93,21.16-27.82,21.61-37.86,29.7-49.31C934.19,903.36,951.59,906.52,948.62,912.67Z" transform="translate(-600.36 -338.98)"/><path class="cls-7" d="M874.66,1151.17c-62-12.64-44.08-70.93-43.67-72.31l0,0s10.77,57.7,66.81,41.87c35.85-10.14,32.81-60.65,26-95.74a30.56,30.56,0,0,0,1.5-4.28h0C974.78,1094.29,930.8,1162.62,874.66,1151.17Z" transform="translate(-600.36 -338.98)"/><path class="cls-3" d="M886.74,1158.77a67.11,67.11,0,0,1-13.34-1.36c-20.62-4.2-35.34-13.62-43.75-28-10.55-18-7.91-38.58-5.94-47.73-37.56-25-56-53.72-54.84-85.45,2.9-78.87,126.64-146.3,131.9-149.13,43.77-24.16,89.46-39.75,89.92-39.9a6.37,6.37,0,0,1,4.09,12.06c-.45.15-45.11,15.41-87.91,39-1.29.69-122.65,66.83-125.26,138.42-1,28,16.75,53.78,52.82,76.75l4.15,2.64-1.51,4.68c-.06.22-7.29,23.72,3.62,42.27,6.51,11.06,18.37,18.41,35.25,21.86,23.21,4.73,44.83-5.59,56.42-26.93,14.42-26.59,13.3-71.79-33.11-118.94l-3.48-3.53,2.57-4.24c.79-1.3,8.48-13.1,35.09-25.76A6.37,6.37,0,1,1,938.9,977c-14.61,7-22.6,13.46-26.52,17.32,47.26,50.64,47.33,100,31.17,129.72C931.64,1146,910.22,1158.77,886.74,1158.77Z" transform="translate(-600.36 -338.98)"/><path class="cls-3" d="M835.43,1073.77c8.58,5,21,12.82,29.65,18-11.93-.41-23.6-3.56-34.69-7.89l5-10.16Z" transform="translate(-600.36 -338.98)"/><path class="cls-3" d="M789.13,1045.82a4.78,4.78,0,0,1-4.78-4.77c0-17.74,14.72-36.15,37.61-46.89,26-12.2,65.54-15.44,98.47,12.06a4.77,4.77,0,1,1-6.12,7.33c-29.49-24.62-64.94-21.69-88.29-10.74C806.48,1012,793.87,1027,793.91,1041a4.78,4.78,0,0,1-4.77,4.79Z" transform="translate(-600.36 -338.98)"/><path class="cls-3" d="M902.14,999.07c-8.57-8.8-17.81-17.21-28.5-23.5,9.26,2.1,18.23,5.92,26.82,10.06,2.9,1.42,5.71,2.84,8.64,4.49l-7,9Z" transform="translate(-600.36 -338.98)"/><path class="cls-6" d="M1202.66,865a235.52,235.52,0,0,1-253.75-1.5C958,821.44,987.68,731.3,1075,731.3,1163.42,731.3,1193.57,823.62,1202.66,865Z" transform="translate(-600.36 -338.98)"/><path class="cls-5" d="M1094.33,1171.12c22.4,77,45.86,202.07,53.08,222.83,7.67,22.06,27.62,24,27.62,24h68.18s47.12,2.35,59.64-9.16,11.8-31.47,2.64-42.77c-9.6-11.84-29.93-11.75-29.93-11.75s-13.92-167.09-35.9-269.73" transform="translate(-600.36 -338.98)"/><path class="cls-6" d="M1302.84,1408.77c-12.51,11.51-59.62,9.16-59.62,9.16H1175s-20-1.92-27.63-24c-7.22-20.77-30.68-145.85-53.08-222.84l145.33-86.6c4.43,20.71,8.54,44,12.28,68.09-31,62.07-98.06,63.75-105,100-6.21,32.46,3.54,115.77,32.33,137.81,23.38,17.87,107.75,17.36,133-6.38C1312.81,1392.93,1310,1402.22,1302.84,1408.77Z" transform="translate(-600.36 -338.98)"/><path class="cls-3" d="M1254.23,1424.56c-5.07,0-9.08-.16-11.17-.26h-68c-.2,0-.41,0-.61,0-1-.09-24.12-2.6-33-28.22-3.08-8.87-8.53-33.78-16.06-68.27-10.11-46.27-23.95-109.63-37.12-154.88a6.37,6.37,0,0,1,12.24-3.56c13.28,45.66,27.18,109.27,37.33,155.72,6.87,31.48,12.81,58.66,15.64,66.8,5.85,16.81,20,19.42,22,19.7h68.11c18.47.92,47.74-.81,55-7.49,10-9.2,9.08-25.34,2-34.07-7.45-9.19-24.71-9.39-25-9.39h0a6.44,6.44,0,0,1-6.38-5.84c-.14-1.67-14.14-167.86-35.78-268.92a6.37,6.37,0,1,1,12.46-2.67c19.58,91.46,32.92,235.43,35.55,265.09,7.69.92,21.06,3.91,29,13.71,10.87,13.4,12.14,37.28-3.28,51.47C1296.76,1423,1270.21,1424.56,1254.23,1424.56Z" transform="translate(-600.36 -338.98)"/><path class="cls-3" d="M1138.25,1295.76c-8.9,0-14.63-.49-15.55-.58a6.37,6.37,0,0,1,1.18-12.68c.89.08,89.93,7.62,135.55-43.33a6.37,6.37,0,1,1,9.49,8.49C1230.64,1290.42,1167.44,1295.76,1138.25,1295.76Z" transform="translate(-600.36 -338.98)"/><path class="cls-3" d="M1275.56,1360.62l-37.47-2.1a3.2,3.2,0,0,1-.22-6.36l37.68-4.28a6.41,6.41,0,1,1,0,12.74Z" transform="translate(-600.36 -338.98)"/><path class="cls-5" d="M1057.07,1171.12c-22.41,77-45.86,202.07-53.08,222.83-7.67,22.06-27.63,24-27.63,24H908.18s-47.11,2.35-59.63-9.16-11.81-31.47-2.64-42.77c9.6-11.84,29.93-11.75,29.93-11.75s13.92-167.09,35.9-269.73" transform="translate(-600.36 -338.98)"/><path class="cls-6" d="M848.56,1408.77c12.51,11.51,59.62,9.16,59.62,9.16h68.18s20-1.92,27.63-24c7.22-20.77,30.68-145.85,53.08-222.84l-145.34-86.6c-4.43,20.71-8.54,44-12.27,68.09,31,62.07,98.06,63.75,105,100,6.22,32.46-3.53,115.77-32.32,137.81-23.38,17.87-107.75,17.36-133-6.38C838.58,1392.93,841.42,1402.22,848.56,1408.77Z" transform="translate(-600.36 -338.98)"/><path class="cls-3" d="M897.17,1424.56c-16,0-42.53-1.54-52.93-11.1-15.43-14.19-14.15-38.07-3.28-51.47,7.94-9.8,21.31-12.79,29-13.71,2.62-29.66,16-173.63,35.55-265.09a6.37,6.37,0,1,1,12.46,2.67c-21.65,101.07-35.65,267.25-35.78,268.92a6.38,6.38,0,0,1-6.35,5.84h0c-4.81,0-18.71,1.69-25,9.39-7.08,8.73-8,24.87,2,34.07,7.27,6.69,36.54,8.41,55,7.49H976c2-.29,16.16-2.93,22-19.7,2.83-8.14,8.77-35.32,15.65-66.79,10.14-46.45,24-110.06,37.33-155.73a6.37,6.37,0,1,1,12.23,3.56c-13.16,45.25-27,108.62-37.12,154.88-7.53,34.49-13,59.4-16,68.27-8.92,25.62-32,28.13-33,28.22a6.08,6.08,0,0,1-.61,0h-68C906.25,1424.4,902.24,1424.56,897.17,1424.56Z" transform="translate(-600.36 -338.98)"/><path class="cls-3" d="M1013.15,1295.76c-29.19,0-92.4-5.34-130.67-48.1a6.37,6.37,0,0,1,9.49-8.49c45.62,51,134.65,43.4,135.55,43.33a6.37,6.37,0,0,1,1.17,12.68C1027.78,1295.27,1022,1295.76,1013.15,1295.76Z" transform="translate(-600.36 -338.98)"/><path class="cls-3" d="M875.84,1347.88l37.69,4.28c3.86.47,3.65,6.18-.22,6.36l-37.48,2.1-.35,0c-9.17.12-8.8-13.41.36-12.76Z" transform="translate(-600.36 -338.98)"/><path class="cls-5" d="M1244.79,1121.27c-20.76,82-108.14,105.55-169.09,105.55s-148.33-23.57-169.07-105.55c-14.88-58.75,9-148.57,25.33-198.95,7.43-22.9,13.31-37.66,13.31-37.66S961.1,731.3,1075,731.3s131.12,153.36,131.12,153.36,5.88,14.76,13.33,37.66C1235.81,972.72,1259.65,1062.52,1244.79,1121.27Z" transform="translate(-600.36 -338.98)"/><path class="cls-6" d="M1249.48,1078c0,15.45-1.36,30.12-4.69,43.24-20.76,82-108.13,105.54-169.09,105.54s-148.34-23.56-169.07-105.54c-3.33-13.12-4.72-27.79-4.69-43.24Z" transform="translate(-600.36 -338.98)"/><path class="cls-3" d="M908.3,1137.1c-31.49-50.63.39-170.37,21-223.76,3.92-10.11,8.07-20.08,13-29.86a3.2,3.2,0,0,1,5.92,2.36c-14.69,51.19-30.32,102.4-36.81,155.35-2.52,20.79-3.83,41.94-1.59,62.71,1.08,10.3,2.75,20.33,4.42,30.92.61,3.37-4.1,5.28-6,2.28Z" transform="translate(-600.36 -338.98)"/><path class="cls-3" d="M1144.55,1220.24c-43.07,17.33-94.62,17.33-137.69,0-3.45-1.48-1.92-6.77,1.8-6.11,27.76,4.86,55.69,7.43,83.81,5.87a411.07,411.07,0,0,0,50.28-5.87c3.68-.65,5.28,4.64,1.8,6.1Z" transform="translate(-600.36 -338.98)"/><path class="cls-3" d="M1209.1,883.48c14.28,29.28,24.29,60.39,32.46,91.85,10.74,42.3,18.38,86.37,12.63,130.1-1.7,11-5,22-11,31.56a3.25,3.25,0,0,1-6-2.28c1.7-10.57,3.33-20.61,4.41-30.91,2.21-20.76.9-41.9-1.62-62.68-4-31.62-10.86-62.78-19.3-93.59-5.59-20.58-11.6-41.14-17.51-61.69-1.08-3.63,4.11-5.88,5.92-2.36Z" transform="translate(-600.36 -338.98)"/><path class="cls-5" d="M1140,1099.24c22.4,7.15,88.68,2.26,111.2-2.65,13.51-2.94,21.93-16.89,18.65-30.85h0c-3-12.74-14.77-21.14-27.26-19.41-21.21,3-86.16,6.3-106.82,3.45" transform="translate(-600.36 -338.98)"/><path class="cls-6" d="M1140,1099.24c22.41,7.14,88.7,2.26,111.22-2.65,13.5-2.93,21.92-16.89,18.65-30.86a25.86,25.86,0,0,0-3.44-8.13,24.47,24.47,0,0,1-17.38,14.79c-22.49,4.9-88.72,9.79-111.12,2.68Z" transform="translate(-600.36 -338.98)"/><path class="cls-3" d="M1177.45,1109.26c-15.87,0-30.37-1.08-39.34-4h0c-16-5.1-19.39-30.59-15.67-47,3.33-14.69,11.07-15.26,14.24-14.82,20,2.76,84.71-.62,105.08-3.45,15.81-2.18,30.57,8.24,34.33,24.26a32.76,32.76,0,0,1-4.1,24.84,30.52,30.52,0,0,1-19.39,13.7C1239.12,1105.75,1206,1109.26,1177.45,1109.26Zm-41-53c-2.06,3.49-4,15.34-1.49,25.82,1.42,6.08,4,10.12,7,11.07h0c20.7,6.59,85.07,2.16,107.91-2.81a17.86,17.86,0,0,0,11.32-8,19.63,19.63,0,0,0,2.48-15.12c-2.25-9.58-10.92-15.83-20.18-14.56C1223.2,1055.46,1159.64,1058.92,1136.5,1056.28Z" transform="translate(-600.36 -338.98)"/><path class="cls-5" d="M1012.56,1099.24c-22.4,7.15-88.67,2.26-111.2-2.65-13.51-2.94-21.93-16.89-18.65-30.85h0c3-12.74,14.77-21.14,27.26-19.41,21.22,3,86.16,6.3,106.82,3.45" transform="translate(-600.36 -338.98)"/><path class="cls-6" d="M1012.57,1099.24c-22.4,7.14-88.69,2.26-111.21-2.65-13.5-2.93-21.93-16.89-18.65-30.86a25.41,25.41,0,0,1,3.44-8.13,24.44,24.44,0,0,0,17.38,14.79c22.48,4.9,88.71,9.79,111.11,2.68Z" transform="translate(-600.36 -338.98)"/><path class="cls-3" d="M975.15,1109.26c-28.59,0-61.66-3.51-75.14-6.44a30.5,30.5,0,0,1-19.39-13.7,32.76,32.76,0,0,1-4.11-24.84c3.77-16,18.54-26.44,34.34-24.26,20.37,2.83,85,6.21,105.07,3.45,3.17-.45,10.91.12,14.24,14.82,3.72,16.43.35,41.91-15.66,47h0C1005.52,1108.18,991,1109.26,975.15,1109.26Zm-68.46-56.78c-8.31,0-15.72,6-17.78,14.72a19.72,19.72,0,0,0,2.48,15.12,17.85,17.85,0,0,0,11.33,8c22.84,5,87.2,9.41,107.91,2.81h0c3-1,5.54-5,7-11.07,2.45-10.48.57-22.33-1.49-25.82-23.14,2.64-86.7-.82-107-3.64A17.84,17.84,0,0,0,906.69,1052.48Z" transform="translate(-600.36 -338.98)"/><rect class="cls-5" x="979.92" y="1002.45" width="192.77" height="133.24" rx="42.45" transform="translate(1552.25 1799.16) rotate(180)"/><path class="cls-6" d="M1172.69,1072.45v34.49a28.83,28.83,0,0,1-28.75,28.74H1008.67a28.81,28.81,0,0,1-28.74-28.74v-19.36c3.46,4.59,8,9.05,11.92,8.07,8.27-2.06,4.6-16.7,11.43-32s46.58-12.44,49.65-2.73-3.74,46.41,46.41,46.41C1140.92,1107.38,1163.24,1098,1172.69,1072.45Z" transform="translate(-600.36 -338.98)"/><path class="cls-3" d="M1142.39,1142.06H1010.21a36.71,36.71,0,0,1-36.66-36.66v-72.65a36.71,36.71,0,0,1,36.66-36.67h132.18a36.71,36.71,0,0,1,36.67,36.67v72.65A36.71,36.71,0,0,1,1142.39,1142.06Zm-132.18-133.24a24,24,0,0,0-23.92,23.93v72.65a24,24,0,0,0,23.92,23.92h132.18a24,24,0,0,0,23.93-23.92v-72.65a24,24,0,0,0-23.93-23.93Z" transform="translate(-600.36 -338.98)"/><ellipse class="cls-8" cx="425.96" cy="730.09" rx="23.61" ry="24.52"/><path class="cls-5" d="M1002.7,1069.08a26,26,0,0,0,.46,4.87c2.19-11.23,11.73-19.68,23.16-19.68s21,8.45,23.15,19.68a26,26,0,0,0,.46-4.87c0-13.54-10.57-24.53-23.61-24.53S1002.7,1055.54,1002.7,1069.08Z" transform="translate(-600.36 -338.98)"/><path class="cls-9" d="M1002.71,1069.07c0,13.55,10.58,24.52,23.61,24.52s23.61-11,23.61-24.52a25.34,25.34,0,0,0-.86-6.57,23.8,23.8,0,0,1-22.75,17.94c-10.83,0-20-7.6-22.76-17.94A25.78,25.78,0,0,0,1002.71,1069.07Z" transform="translate(-600.36 -338.98)"/><path class="cls-3" d="M1026.32,1098.37c-15.66,0-28.39-13.14-28.39-29.3s12.73-29.3,28.39-29.3,28.39,13.15,28.39,29.3S1042,1098.37,1026.32,1098.37Zm0-49c-10.39,0-18.84,8.86-18.84,19.74s8.45,19.75,18.84,19.75,18.83-8.86,18.83-19.75S1036.71,1049.33,1026.32,1049.33Z" transform="translate(-600.36 -338.98)"/><path class="cls-3" d="M1089.46,1142.06a6.37,6.37,0,0,1-6.37-6.37V1095a39.14,39.14,0,0,1,14.76-30.66l3.58-2.8a26.25,26.25,0,0,0,9.88-20.62v-38.43a6.37,6.37,0,1,1,12.74,0v38.43a39.1,39.1,0,0,1-14.77,30.66l-3.58,2.8a26.27,26.27,0,0,0-9.87,20.62v40.73A6.37,6.37,0,0,1,1089.46,1142.06Z" transform="translate(-600.36 -338.98)"/><polygon class="cls-7" points="475.13 308.5 475.13 309.45 474.52 308.99 475.13 308.5"/><polygon class="cls-7" points="474.52 308.99 473.92 309.45 473.92 308.5 474.52 308.99"/><circle class="cls-5" cx="475.92" cy="262.1" r="255.73"/><path class="cls-6" d="M1332,601.08c0,141.24-114.49,255.73-255.72,255.73S820.54,742.32,820.54,601.08a256.11,256.11,0,0,1,3.74-43.73c20.75,120.39,125.68,212,252,212s231.24-91.58,252-212A255.1,255.1,0,0,1,1332,601.08Z" transform="translate(-600.36 -338.98)"/><path class="cls-3" d="M1076.28,863.19c-144.52,0-262.1-117.58-262.1-262.1S931.76,339,1076.28,339s262.1,117.58,262.1,262.1S1220.8,863.19,1076.28,863.19Zm0-511.46c-137.5,0-249.36,111.86-249.36,249.36s111.86,249.36,249.36,249.36,249.36-111.87,249.36-249.36S1213.78,351.73,1076.28,351.73Z" transform="translate(-600.36 -338.98)"/><path class="cls-3" d="M1076.28,863.19c-144.52,0-262.1-117.58-262.1-262.1S931.76,339,1076.28,339s262.1,117.58,262.1,262.1S1220.8,863.19,1076.28,863.19Zm0-511.46c-137.5,0-249.36,111.86-249.36,249.36s111.86,249.36,249.36,249.36,249.36-111.87,249.36-249.36S1213.78,351.73,1076.28,351.73Z" transform="translate(-600.36 -338.98)"/><path class="cls-3" d="M1076.28,863.19c-144.52,0-262.1-117.58-262.1-262.1S931.76,339,1076.28,339s262.1,117.58,262.1,262.1S1220.8,863.19,1076.28,863.19Zm0-511.46c-137.5,0-249.36,111.86-249.36,249.36s111.86,249.36,249.36,249.36,249.36-111.87,249.36-249.36S1213.78,351.73,1076.28,351.73Z" transform="translate(-600.36 -338.98)"/><path class="cls-3" d="M1076.27,863.18A261.91,261.91,0,0,1,822.63,667.24c0-.14-.1-.29-.14-.44a263.36,263.36,0,0,1-6.66-95.07C830.59,439.06,942.56,339,1076.27,339S1322,439.09,1336.74,571.82a264.22,264.22,0,0,1-6.66,95,3.5,3.5,0,0,1-.14.46A262,262,0,0,1,1076.27,863.18ZM834.87,663.7a249.42,249.42,0,0,0,482.83,0l.15-.51a249.52,249.52,0,0,0-241.58-311.45c-127.21,0-233.73,95.19-247.77,221.42a245.33,245.33,0,0,0-1.58,27.93,249.53,249.53,0,0,0,7.8,62.09A5.08,5.08,0,0,1,834.87,663.7Z" transform="translate(-600.36 -338.98)"/><path class="cls-3" d="M1323.1,540.39a6.36,6.36,0,0,1-5.85-3.85c-40.36-93.7-135-154.24-241-154.24S875.76,442.79,835.36,536.41a6.37,6.37,0,0,1-12-4.2C854.22,418.44,958.23,339,1076.28,339s222.15,79.52,253,193.38a6.35,6.35,0,0,1-6.15,8ZM1076.28,369.56c78.54,0,151.1,31.75,201.87,85.11a249.39,249.39,0,0,0-403.69-.06C925.23,401.29,997.79,369.56,1076.28,369.56Z" transform="translate(-600.36 -338.98)"/><path class="cls-3" d="M1332,601.09a256.62,256.62,0,0,1-8.08,64.12s0,0,0,0c-44.36,85.71-138.58,159.46-247.61,159.46S873,750.94,828.68,665.23c0,0,0,0,0,0a255.71,255.71,0,0,1-8.11-64.12,250.85,250.85,0,0,1,1.62-28.63c34.5-95.45,135.21-164.52,254.11-164.52s219.66,69.11,254.13,164.59A256.67,256.67,0,0,1,1332,601.09Z" transform="translate(-600.36 -338.98)"/><g class="cls-10"><path class="cls-11" d="M1332,601.1a256.49,256.49,0,0,1-8.08,64.11,0,0,0,0,0,0,0c-44.36,85.71-138.58,159.45-247.61,159.45S873.05,751,828.69,665.24c0,0,0,0,0,0a254.24,254.24,0,0,1-6.76-37.6C879.24,692,962.62,738.89,1055.43,738.89c118.24,0,221.23-76.06,274.52-167.59.16.42.32.82.46,1.24A254.15,254.15,0,0,1,1332,601.1Z" transform="translate(-600.36 -338.98)"/></g><path class="cls-3" d="M1076.27,829.52c-52.2,0-104.34-16.75-150.77-48.43-42.09-28.71-77.94-69-101-113.39a4.69,4.69,0,0,1-.54-1.28,261.15,261.15,0,0,1-6.62-94.51,5.07,5.07,0,0,1,.25-1.09c17.5-48.42,51.14-90.07,97.3-120.45,47-30.92,102.76-47.26,161.36-47.26s114.42,16.35,161.39,47.29c46.16,30.39,79.8,72.06,97.29,120.49a4.73,4.73,0,0,1,.25,1.1,262.76,262.76,0,0,1-6.62,94.42,4.69,4.69,0,0,1-.54,1.3c-23,44.41-58.9,84.67-101,113.38C1180.61,812.77,1128.47,829.52,1076.27,829.52ZM833.19,663.43c40.51,77.93,131.29,156.42,243.08,156.42s202.59-78.49,243.1-156.42a252.9,252.9,0,0,0,6.29-89.79c-35-96.25-135.17-160.87-249.39-160.87s-214.33,64.6-249.38,160.8a252.35,252.35,0,0,0,6.3,89.86Z" transform="translate(-600.36 -338.98)"/><g class="cls-12"><ellipse class="cls-5" cx="1257.6" cy="611.3" rx="42.06" ry="30.48" transform="translate(-145.47 1417.26) rotate(-80.89)"/></g><g class="cls-12"><ellipse class="cls-5" cx="1221.96" cy="695.35" rx="19.31" ry="16.57" transform="matrix(0.29, -0.96, 0.96, 0.29, -401.52, 1320.69)"/></g><g class="cls-12"><path class="cls-5" d="M878.4,674.05s-41.91-124.63,24.67-176,163.84-53.12,161.69-46.84c0,0-107.13,28.25-147.54,114.21C886.07,631.74,878.4,674.05,878.4,674.05Z" transform="translate(-600.36 -338.98)"/></g><path class="cls-5" d="M1421.52,691.4l43.66-23.21s6.51-8.44,14-20.36c14.27-22.79,32-58.3,14.34-72-20.75-16.15-44.73,21.83-56.22,43.62-4.28,8.11-6.82,14-6.82,14s-.15-5.56-.87-13.82c-.4-4.57-1-10-1.76-15.74-3.78-27.11-11-49-30.36-46.26-22,3.08-17.87,41.54-13.18,71.37,2,12.73,4.09,23.89,4.31,30C1389.05,672.2,1421.52,691.4,1421.52,691.4Z" transform="translate(-600.36 -338.98)"/><path class="cls-6" d="M1421.52,691.4l43.66-23.21s6.51-8.44,14-20.36c-14.08.38-35.57-3.4-41.88-28.41-4.28,8.11-6.82,14-6.82,14s-.15-5.56-.87-13.82c-5.73,7.07-23.85,25.67-45.3,9.37,2,12.73,4.09,23.89,4.31,30C1389.05,672.2,1421.52,691.4,1421.52,691.4Z" transform="translate(-600.36 -338.98)"/><path class="cls-3" d="M1421.52,697.77a6.23,6.23,0,0,1-3.24-.89c-8.33-4.92-35.52-22.18-36.06-37.68h0c-.15-4.19-1.35-11.49-2.74-19.93-4.33-26.31-10.25-62.35,2-79a21.81,21.81,0,0,1,15.08-9c8.07-1.13,19.4.58,27.46,15.18,4.55,8.25,7.76,19.85,10.07,36.5.34,2.45.64,4.84.9,7.13,9.73-17.3,25.13-39.48,41.88-43.77a23.11,23.11,0,0,1,20.51,4.46c31,24.11-21.14,93.48-27.18,101.32a6.61,6.61,0,0,1-2.06,1.73L1424.51,697A6.48,6.48,0,0,1,1421.52,697.77Zm-26.57-39c.19,5.4,13.48,17,26.79,25.32L1461,663.22c16.84-22.2,44.84-69.77,28.61-82.39a10.34,10.34,0,0,0-9.53-2.17c-15.51,4-35.07,37.23-43.75,57.27a6.37,6.37,0,0,1-12.21-2.34c0-.13-.42-13.31-2.59-28.89-2.06-14.84-4.88-25.34-8.61-32.1-4.85-8.79-10.07-9.34-14.54-8.72a9.33,9.33,0,0,0-6.58,3.92c-9.09,12.35-3.22,48.06.29,69.4,1.52,9.24,2.72,16.54,2.9,21.55Z" transform="translate(-600.36 -338.98)"/><path class="cls-5" d="M1435.63,777.48c34.12-4.74,48.83-30.93,52.41-45,14.6-57.48-60.65-74.64-60.65-74.64s-44.81-9.55-69.47,49.27" transform="translate(-600.36 -338.98)"/><path class="cls-3" d="M1435.19,774.32c10.49-3.59,19.84-8.17,27.65-14.8,24.91-20.85,28.64-57.35.73-77.71-10.9-8.45-24.25-14.28-37.58-17.56-30-3.46-52.28,18.87-65.14,44.06a3.19,3.19,0,0,1-5.87-2.46c3.7-11.28,9-22.11,16.76-31.35,13.55-16.78,37.4-28,59.25-22.56,20.25,6.15,40.29,15.82,53.86,32.67,21.54,26.26,11.75,65.33-14.16,84.79a54.23,54.23,0,0,1-34.62,11.23,3.24,3.24,0,0,1-.88-6.31Z" transform="translate(-600.36 -338.98)"/><path class="cls-5" d="M1452.49,662c-14,2.19-29.37,17.92-25.08,40.71,3.34,17.69,19.6,27.67,36.25,28.77,20.44,1.35,33.39-15.88,34.37-27.65.51-6.06-.7-15.83-15.47-26.9C1476.45,665.62,1467.57,659.68,1452.49,662Z" transform="translate(-600.36 -338.98)"/><path class="cls-3" d="M1466,738q-1.35,0-2.73-.09c-18-1.19-38-12.14-42.09-34-2.24-11.91.1-23.53,6.59-32.73,5.83-8.26,14.71-14,23.77-15.45h0c16.21-2.53,28,3,36,17,12.18,9.49,17.86,20.14,16.9,31.69C1503.2,718.56,1488.93,738,1466,738Zm-12.49-69.64h0c-5.72.9-11.45,4.72-15.33,10.21-3.17,4.5-6.53,12.15-4.48,23,2.85,15.1,17.32,22.73,30.4,23.59,16.84,1.12,26.93-13.61,27.61-21.82.39-4.68-.52-12-12.94-21.27A6.5,6.5,0,0,1,1477,680C1471.55,670,1464.75,666.57,1453.48,668.33Z" transform="translate(-600.36 -338.98)"/><path class="cls-5" d="M1377.4,754.69c-42-24.84-27.48-79.83-13.32-95.84,17.78-20.11,83-11.58,80.43,15-1.34,14.08-20.78,17.51-41.2,15.39,0,0,5,19.82,2.9,33.18" transform="translate(-600.36 -338.98)"/><path class="cls-3" d="M1375.78,757.43c-33.1-16.37-38.52-57.91-24.81-89.3,7.84-19.88,23.61-26.07,43.52-27,17.24-.32,36,2.64,49.34,14.93,11.75,11.29,8.46,30-6.69,36.25-11.35,4.93-22.87,4.75-34.49,3.28l6.85-7.92a91.9,91.9,0,0,1,1.68,26.35c-.72,3.34-.6,12.43-5.9,11a3.25,3.25,0,0,1-2.21-3,107.46,107.46,0,0,0-2.16-15.62c-1.09-5.11-2.32-10.54-3.78-15.48a6.19,6.19,0,0,1,4.14-7.71,6.7,6.7,0,0,1,2.7-.21,116.47,116.47,0,0,0,14.7.07c6.46-.58,13.14-1.23,17.54-5.42,3.33-3.73,2.32-8.71-1.49-12.42-6.23-6-16.35-8.74-25.12-10-14.34-1.66-35.6-1.47-43.6,12-10.87,18.29-14.4,42.86-5.78,62.71a53.66,53.66,0,0,0,18.8,22c3.25,2.21.27,7.25-3.24,5.48Z" transform="translate(-600.36 -338.98)"/><path class="cls-3" d="M1384.27,899c-32.94,0-59.69-20.38-77.37-58.93A215.55,215.55,0,0,1,1290.29,783a6.37,6.37,0,1,1,12.64-1.56c.14,1,13.86,104.84,81.34,104.84a6.37,6.37,0,1,1,0,12.74Z" transform="translate(-600.36 -338.98)"/></g></svg>