<svg id="Layer_20" data-name="Layer 20" xmlns="http://www.w3.org/2000/svg" viewBox="0 0 2001.18 2210.7"><defs><style>.cls-1{fill:#ffb200;}.cls-2{fill:#fff;}.cls-3{fill:#371a45;}.cls-4{fill:#f9d3b7;}.cls-5{fill:#dfe7f2;}.cls-6{fill:#e8eeef;}.cls-7{fill:#ff7171;}.cls-8{opacity:0.6;}.cls-9{fill:#f25555;}.cls-10{fill:#777782;}.cls-11{fill:#dfe8f4;}.cls-12{fill:#949495;}.cls-13{fill:#aeaeb1;}.cls-14{fill:#93b3c1;}.cls-15{fill:#a1acc6;}.cls-16{fill:#ffad40;}.cls-17{fill:#e23b3b;}.cls-18{fill:#371944;}.cls-19{fill:#22a7f0;}.cls-20{fill:#1c7aea;}.cls-21{fill:#cfdae2;}.cls-22{fill:#1f3a12;}.cls-23{fill:#88a1b5;}.cls-24{fill:#4da2ff;}.cls-25{fill:#c0cddd;}.cls-26{fill:#d4dbe8;}.cls-27{opacity:0.5;}.cls-28{fill:#8e9aa5;}.cls-29{opacity:0.3;}.cls-30{fill:#d8e6ea;}.cls-31{fill:#a1bece;}.cls-32{fill:#608096;}.cls-33{fill:#40657a;}.cls-34{fill:#e5e5e5;}.cls-35{fill:#d8d8d8;}.cls-36{opacity:0.35;}.cls-37{fill:#111a28;}.cls-38{fill:#b1bfc4;}.cls-39{fill:#b3e538;}.cls-40{fill:#c394ff;}.cls-41{fill:#a26ef4;}.cls-42{fill:#b0c3d1;}.cls-43{fill:#7ec927;}.cls-44{fill:#6c758c;}.cls-45{fill:#4e5a75;}.cls-46{fill:#b25b36;}.cls-47{opacity:0.4;}.cls-48{fill:#f9d6b6;}</style></defs><rect class="cls-1" x="-2231.04" y="630.04" width="1794.35" height="1367.34" rx="48.71" transform="matrix(0.98, -0.19, 0.19, 0.98, 2066.46, -159.03)"/><path class="cls-2" d="M-748.44,1031.33h-395.1S-1161.2,781.82-1121.27,730c29.43-38.19,72.87-29.3,175.28-29.3s145.85-8.89,175.28,29.3C-730.78,781.82-748.44,1031.33-748.44,1031.33Z" transform="translate(2334.46 66.4)"/><path class="cls-3" d="M-748.44,1037.92h-395.1a6.59,6.59,0,0,1-6.57-6.13c-.73-10.29-17.37-252.62,23.62-305.8,26.33-34.15,61.72-33.56,132.23-32.37,14.29.24,30.49.51,48.27.51s34-.27,48.27-.51c70.51-1.19,105.9-1.78,132.23,32.37,41,53.18,24.35,295.51,23.62,305.8A6.59,6.59,0,0,1-748.44,1037.92Zm-388.92-13.18h382.75c1.07-17.36,3.9-69.18,3.43-124.67-.94-111.92-14-152.07-24.74-166-22.28-28.91-53.39-28.38-121.57-27.24-14.34.24-30.6.51-48.49.51s-34.15-.27-48.49-.51c-68.17-1.15-99.29-1.67-121.57,27.24-10.77,14-23.8,54.11-24.74,166C-1141.26,955.56-1138.43,1007.38-1137.36,1024.74Z" transform="translate(2334.46 66.4)"/><path class="cls-2" d="M-1065.43,845.92c-154.76-13-249.21-146.68-260.75-178.84-13.73-38.29,90.16-139.43,90.16-139.43l223.81,170.71Z" transform="translate(2334.46 66.4)"/><path class="cls-2" d="M-1012.2,698.33-1038,769.75l-27.46,76.17c-154.76-13-249.21-146.67-260.74-178.84-13.74-38.29,90.15-139.43,90.15-139.43l82,62.57Z" transform="translate(2334.46 66.4)"/><path class="cls-4" d="M-1226.2,583.37c.28,60.59-21.72,80.35-22.74,102.9-15.45,10.61-34.44,16.57-57.49,14.88-10.51-14.75-17.17-26.92-19.74-34.07C-1338.49,632.71-1256,547.66-1239,530.6-1232,541.39-1226.32,558-1226.2,583.37Z" transform="translate(2334.46 66.4)"/><path class="cls-5" d="M-1067.79,845.71c-153.36-14.1-246.92-146.64-258.39-178.63C-1338.5,632.72-1256,547.66-1239,530.61c7,10.79,12.72,27.38,12.83,52.77.33,71-30,85.94-21.17,115,6.41,21.23,77.56,92.66,161.42,99.76C-1071,799.45-1067.73,824.23-1067.79,845.71Z" transform="translate(2334.46 66.4)"/><path class="cls-3" d="M-1066,852.49c-84.59-7.09-148.87-49.5-187.89-83.84-45.65-40.17-72.38-82.25-78.51-99.34-6.61-18.45,6.8-48,41-90.46a721.72,721.72,0,0,1,50.76-56l4.08-4L-1008.21,693l-8,10.48-219.27-167.24c-38.85,38.68-93.15,104.41-84.5,128.54,12,33.43,106.24,162,255.09,174.5Z" transform="translate(2334.46 66.4)"/><path class="cls-2" d="M-1482.29,60.06a108,108,0,0,0,108,108h0a107.76,107.76,0,0,0,44.21-9.43l50.33,26.55-15.34-51.68a107.66,107.66,0,0,0,28.78-73.43,108,108,0,0,0-108-108A108,108,0,0,0-1482.29,60.06Z" transform="translate(2334.46 66.4)"/><path class="cls-6" d="M-1482.29,60.06a108,108,0,0,0,108,108h0a107.66,107.66,0,0,0,44.22-9.44l50.33,26.56-15.34-51.68a107.67,107.67,0,0,0,28.79-73.43,107.54,107.54,0,0,0-1.18-15.94,108,108,0,0,1-106.82,92,108,108,0,0,1-106.8-92A108.78,108.78,0,0,0-1482.29,60.06Z" transform="translate(2334.46 66.4)"/><path class="cls-2" d="M-1305.06,136.83c1.56,5.2,8.22,27.13,7.86,27.13s-15.13-19-17-22.25C-1317.28,136.49-1306.61,131.65-1305.06,136.83Z" transform="translate(2334.46 66.4)"/><path class="cls-3" d="M-1279.76,191.76a6.62,6.62,0,0,1-3.08-.76l-47.53-25.08a113.78,113.78,0,0,1-43.93,8.72A114.71,114.71,0,0,1-1488.88,60.06,114.71,114.71,0,0,1-1374.3-54.51,114.69,114.69,0,0,1-1259.73,60.06a114.26,114.26,0,0,1-28,75.08l14.3,48.16a6.59,6.59,0,0,1-2.14,7A6.63,6.63,0,0,1-1279.76,191.76ZM-1330.09,152a6.47,6.47,0,0,1,3.08.76l36.47,19.25-10.88-36.68a6.59,6.59,0,0,1,1.48-6.35,101.1,101.1,0,0,0,27-69A101.5,101.5,0,0,0-1374.3-41.35,101.52,101.52,0,0,0-1475.7,60a101.53,101.53,0,0,0,101.4,101.4,100.67,100.67,0,0,0,41.51-8.86A6.59,6.59,0,0,1-1330.09,152Z" transform="translate(2334.46 66.4)"/><path class="cls-7" d="M-1374.29,40.11c-5.15-7.28-11.39-12.48-19.87-14.6-16.71-4.17-31.66,7.94-28.2,27.56,1.7,9.65,7.17,17.58,13,25.16,9.75,12.62,21.27,23.5,33.52,33.62.87.72,1.5,1.3,2.7.29,14.5-12.13,28.21-25,38.78-40.86,4-6,7.44-12.28,8.31-19.51,1.12-9.2-1-17.53-9-23.08-8.26-5.69-17-5-25.75-.81C-1366.36,30.58-1370.61,34.8-1374.29,40.11Z" transform="translate(2334.46 66.4)"/><path class="cls-7" d="M-1422.36,53.07a44.34,44.34,0,0,0,6,15.14,108,108,0,0,0,7,10c9.75,12.62,21.26,23.49,33.52,33.62.87.73,1.5,1.31,2.7.29,14.51-12.13,28.21-25,38.78-40.86,4-6,7.44-12.28,8.31-19.5a4,4,0,0,0,0-.49c1-9-1.15-17.14-9.06-22.6-8.26-5.68-17-5-25.76-.82-5.56,2.71-9.84,6.94-13.49,12.24-5.16-7.28-11.38-12.47-19.88-14.6C-1410.87,21.34-1425.83,33.44-1422.36,53.07Z" transform="translate(2334.46 66.4)"/><g class="cls-8"><path class="cls-2" d="M-1422.51,52.12c2.26-13.5,14.71-20.94,28.34-17.53,8.5,2.12,14.72,7.31,19.88,14.59,3.65-5.3,7.93-9.53,13.49-12.23,8.71-4.21,17.5-4.87,25.76.82a20.47,20.47,0,0,1,9,14.3v-.29a4,4,0,0,0,0-.49c1-9-1.15-17.14-9.06-22.6-8.26-5.68-17-5-25.76-.82-5.56,2.71-9.84,6.94-13.49,12.24-5.16-7.28-11.38-12.47-19.88-14.6C-1410.61,21.41-1425.34,33.06-1422.51,52.12Z" transform="translate(2334.46 66.4)"/></g><path class="cls-9" d="M-1416.37,68.21a108,108,0,0,0,7,10c9.75,12.62,21.26,23.49,33.52,33.62.87.73,1.5,1.31,2.7.29,14.51-12.13,28.21-25,38.78-40.86,4-6,7.44-12.28,8.31-19.5a4,4,0,0,0,0-.49C-1335.82,66.05-1378,103.59-1416.37,68.21Z" transform="translate(2334.46 66.4)"/><path class="cls-3" d="M-1374.23,117.65a7.31,7.31,0,0,1-4.65-1.91c-14.59-12-25.48-23-34.36-34.47-5.75-7.44-12-16.3-14-27.32-1.89-10.74,1-20.61,7.93-27.07,6.74-6.28,16.58-8.58,26.34-6.14a36.63,36.63,0,0,1,18.63,11.43A36.72,36.72,0,0,1-1363,23.45c11.28-5.48,21.62-5.08,30.72,1.19,6.1,4.2,13,12.43,11.12,27.74-1,8.61-5.19,15.78-9.11,21.66-11.51,17.28-26.54,30.88-39.71,41.91A6.79,6.79,0,0,1-1374.23,117.65Zm-26.49-88a17,17,0,0,0-11.84,4.46c-4.5,4.19-6.25,10.63-4.94,18.12,1.56,8.81,6.82,16.19,12.08,23,8.09,10.46,18,20.5,31.13,31.47,12.13-10.27,25.59-22.75,35.85-38.14,3.27-4.91,6.72-10.81,7.52-17.36,1-8.6-1.16-14.45-6.92-18.42-6.12-4.21-12.73-4.35-20.8-.44-4.41,2.15-8.09,5.51-11.57,10.58l-4,5.85-4.1-5.79c-4.93-7-10.34-11-17-12.65A21.92,21.92,0,0,0-1400.72,29.65Z" transform="translate(2334.46 66.4)"/><path class="cls-10" d="M-1021.45,1120.25l-152.38,40s-42.32,4.84-71.61,4.84c-59.47,0-77.15-92.42-77.15-92.42l62.51-61.1,158.4-49.13" transform="translate(2334.46 66.4)"/><path class="cls-10" d="M-1021.45,1120.25l-152.38,40s-42.33,4.85-71.6,4.85c-59.49,0-77.16-92.42-77.16-92.42l47.68-46.61,14.83-14.5,117.8-36.54,37.06-11.49,3.54-1.1,12.37,24.33Z" transform="translate(2334.46 66.4)"/><path class="cls-2" d="M-1021.45,1120.25l-152.37,40.06s-42.34,4.85-71.61,4.85c-59.48,0-77.17-92.43-77.17-92.43l47.7-46.61,14.82-14.51,18-5.56,64.84-20.12,35-10.85,37.06-11.5,3.54-1.09,12.37,24.33Z" transform="translate(2334.46 66.4)"/><path class="cls-11" d="M-1021.45,1120.25l-152.37,40.06s-42.34,4.85-71.61,4.85c-59.48,0-77.17-92.43-77.17-92.43l47.7-46.61,14.82-14.51,18-5.56,5.9,6c24.2,13.92,24.5,70.75,68.56,61.57,32.31-6.74,46.22-59.06-9.62-87.7l35-10.85,37.06-11.5,3.54-1.09,12.37,24.33Z" transform="translate(2334.46 66.4)"/><path class="cls-3" d="M-1245.44,1171.73c-64.18,0-82.86-93.78-83.62-97.77l-.67-3.47,66.18-64.69,159.91-49.6a6.59,6.59,0,0,1,8.25,4.33h0a6.6,6.6,0,0,1-4.34,8.25l-156.88,48.65-58.75,57.44c3.82,16.06,22.71,83.68,69.92,83.68,27,0,65.73-4.24,70.4-4.76l151.92-39.92a6.58,6.58,0,0,1,8,4.69,6.59,6.59,0,0,1-4.7,8l-152.79,40.22-.47.06C-1174.82,1167-1216.11,1171.73-1245.44,1171.73Z" transform="translate(2334.46 66.4)"/><path class="cls-2" d="M-1173.83,1160.3c-15.06,4.06-70.72,19.81-106.19,7.93-44.66-15-73.59-92-67.48-134.93,9.09-63.82,71.08-70,102.59-42.49,15.1,13.2,33.2,61.29,31.93,88.52Z" transform="translate(2334.46 66.4)"/><path class="cls-2" d="M-1173.83,1160.3c-15.07,4.06-70.72,19.82-106.2,7.92-25.71-8.61-46.21-37.8-57.8-69.21-8.55-23.16-12.26-47.51-9.67-65.71,9.09-63.82,71.08-70,102.59-42.49,6.59,5.76,13.73,18.15,19.59,32.54,7.6,18.63,13.06,40.62,12.34,56Z" transform="translate(2334.46 66.4)"/><path class="cls-2" d="M-1173.83,1160.3c-13,3.5-56,15.68-90.43,11.38a81,81,0,0,1-15.77-3.46c-25.71-8.61-46.21-37.8-57.8-69.21-8.55-23.16-12.26-47.51-9.67-65.71a94.86,94.86,0,0,1,2-10.18c13.92-54.23,70.82-58.3,100.57-32.31,6.59,5.76,13.73,18.15,19.59,32.54,7.6,18.63,13.06,40.62,12.34,56Z" transform="translate(2334.46 66.4)"/><path class="cls-11" d="M-1173.83,1160.3c-15.07,4.06-70.72,19.82-106.2,7.92-25.71-8.61-46.21-37.8-57.8-69.21,3.69,7.47,25.23,46.58,68.86,42.29,47.47-4.67,56.06-64.26,42-116.82.56-.4,1.12-.76,1.67-1.13,7.6,18.63,13.06,40.62,12.34,56Z" transform="translate(2334.46 66.4)"/><path class="cls-12" d="M-1264.26,1171.65l-2.07-.28-2-.31-2-.37c-.66-.13-1.32-.25-2-.41s-1.31-.28-2-.45l-1.93-.49c-1.28-.36-2.53-.74-3.76-1.15-25.71-8.61-46.21-37.8-57.8-69.21,3.69,7.47,25.23,46.58,68.86,42.29,20.19-2,33.34-13.89,40.69-31C-1226.87,1140.42-1236.06,1166.36-1264.26,1171.65Z" transform="translate(2334.46 66.4)"/><path class="cls-13" d="M-1264.26,1171.65a81,81,0,0,1-15.77-3.46c-25.71-8.61-46.21-37.8-57.8-69.21-8.55-23.16-12.26-47.51-9.67-65.71a94.86,94.86,0,0,1,2-10.18c11.44-21.78,32.68-39.05,71.24-18.8C-1239.23,1024.82-1195.93,1158.81-1264.26,1171.65Z" transform="translate(2334.46 66.4)"/><path class="cls-12" d="M-1264.26,1171.65l-2.07-.28-2-.31-2-.37c-.66-.13-1.32-.25-2-.41s-1.31-.28-2-.45l-1.93-.49c-1.28-.36-2.53-.74-3.76-1.15-25.71-8.61-46.21-37.8-57.8-69.21,3.69,7.47,25.23,46.58,68.86,42.29,20.19-2,33.34-13.89,40.69-31C-1226.87,1140.42-1236.06,1166.36-1264.26,1171.65Z" transform="translate(2334.46 66.4)"/><path class="cls-3" d="M-1172.12,1166.65c-34.8,9.13-76.54,19-112,7.09-16-6.06-28.92-18.62-38.64-32-21-29.57-35.14-71.56-31.4-108,4.92-44.23,40.38-73.64,85-62.75a69.57,69.57,0,0,1,28.58,14.8c5.06,4.44,8.13,10.41,11.13,16.15,10.68,22.59,18.73,52.44,16.54,77.4-1.19-20.67-9.09-40.59-18.37-58.81-9.54-18.32-20.56-31.53-41.14-36.77-44.17-10.27-71.23,24.39-69.13,66.17,2,36.48,19.79,82.76,49.82,104.86,16.13,11.66,36.61,12,56,10.7,20.42-1.59,40.46-6.07,60.31-11.54l3.42,12.72Z" transform="translate(2334.46 66.4)"/><path class="cls-3" d="M-1265.56,1174.44a73.22,73.22,0,0,1-20.25-3.17l2.75-9.5c19.28,5.58,33.08,2.81,41-8.23,18.74-26,3.57-95.28-21.53-131.59-11.13-16.49-30.3-24.61-47.72-20.24-17.9,4.48-29.61,20.91-32.12,45.1l-9.83-1c3-28.56,17.38-48.12,39.55-53.67,21.44-5.37,44.86,4.38,58.28,24.25,24.22,35,45.13,110,21.39,142.94C-1239.42,1166.83-1249,1174.44-1265.56,1174.44Z" transform="translate(2334.46 66.4)"/><path class="cls-3" d="M-1187.81,1169l-4-9c29-12.92,36.43-58.51,28.7-94.85-6.32-29.7-24.16-61.43-55.3-61.43v-9.89c37,0,57.85,35.78,65,69.26C-1144.71,1104.16-1153.7,1153.76-1187.81,1169Z" transform="translate(2334.46 66.4)"/><rect class="cls-3" x="-1348.62" y="1021.16" width="87.18" height="9.89" transform="translate(2013.01 -244.86) rotate(-15.49)"/><rect class="cls-3" x="-1345.67" y="1061.13" width="104.94" height="9.88" transform="translate(2008.03 -236.55) rotate(-15.27)"/><rect class="cls-3" x="-1330.63" y="1100.61" width="101.39" height="9.88" transform="translate(1975.94 -246.31) rotate(-16.17)"/><rect class="cls-3" x="-1303.89" y="1138.86" width="76.12" height="9.88" transform="translate(1945.5 -253.25) rotate(-16.97)"/><path class="cls-10" d="M-868.1,1120.25l152.39,40s42.32,4.84,71.61,4.84c59.47,0,77.15-92.42,77.15-92.42l-62.51-61.1-158.4-49.13" transform="translate(2334.46 66.4)"/><path class="cls-10" d="M-868.1,1120.25l152.38,40s42.34,4.85,71.61,4.85c59.48,0,77.16-92.42,77.16-92.42l-47.68-46.61-14.83-14.5-117.8-36.54-37.06-11.49-3.54-1.1-12.37,24.33Z" transform="translate(2334.46 66.4)"/><path class="cls-2" d="M-868.09,1120.25l152.37,40.06s42.34,4.85,71.61,4.85c59.48,0,77.17-92.43,77.17-92.43l-47.7-46.61-14.83-14.51-17.94-5.56-64.85-20.12-35-10.85-37-11.5-3.54-1.09-12.37,24.33Z" transform="translate(2334.46 66.4)"/><path class="cls-11" d="M-868.09,1120.25l152.37,40.06s42.34,4.85,71.61,4.85c59.48,0,77.17-92.43,77.17-92.43l-47.7-46.61-14.83-14.51-17.94-5.56-5.9,6c-24.2,13.92-24.5,70.75-68.56,61.57-32.31-6.74-46.23-59.06,9.61-87.7l-35-10.85-37-11.5-3.54-1.09-12.37,24.33Z" transform="translate(2334.46 66.4)"/><path class="cls-3" d="M-644.1,1171.73c-29.33,0-70.62-4.69-72.36-4.88l-.93-.18-152.38-40a6.6,6.6,0,0,1-4.7-8,6.58,6.58,0,0,1,8-4.69l151.92,39.92c4.67.52,43.46,4.76,70.4,4.76,47.3,0,66.12-67.61,69.93-83.68L-633,1017.54l-156.88-48.65a6.61,6.61,0,0,1-4.34-8.25,6.59,6.59,0,0,1,8.25-4.34h0L-626,1005.9l66.18,64.69-.67,3.47C-561.24,1078-579.92,1171.73-644.1,1171.73Z" transform="translate(2334.46 66.4)"/><path class="cls-2" d="M-715.71,1160.3c15.06,4.06,70.72,19.81,106.19,7.93,44.66-15,73.59-92,67.48-134.93-9.09-63.82-71.08-70-102.59-42.49-15.11,13.2-33.2,61.29-31.93,88.52Z" transform="translate(2334.46 66.4)"/><path class="cls-2" d="M-715.71,1160.3c15.06,4.06,70.72,19.82,106.2,7.92,25.71-8.61,46.21-37.8,57.8-69.21,8.55-23.16,12.26-47.51,9.67-65.71-9.09-63.82-71.08-70-102.59-42.49-6.59,5.76-13.73,18.15-19.6,32.54-7.59,18.63-13,40.62-12.33,56Z" transform="translate(2334.46 66.4)"/><path class="cls-2" d="M-715.71,1160.3c13,3.5,56,15.68,90.43,11.38a81,81,0,0,0,15.77-3.46c25.71-8.61,46.21-37.8,57.8-69.21,8.55-23.16,12.26-47.51,9.67-65.71a92.47,92.47,0,0,0-2-10.18c-13.92-54.23-70.82-58.3-100.57-32.31-6.59,5.76-13.73,18.15-19.6,32.54-7.59,18.63-13,40.62-12.33,56Z" transform="translate(2334.46 66.4)"/><path class="cls-11" d="M-715.71,1160.3c15.06,4.06,70.72,19.82,106.2,7.92,25.71-8.61,46.21-37.8,57.8-69.21-3.69,7.47-25.23,46.58-68.87,42.29-47.47-4.67-56-64.26-42-116.82-.56-.4-1.13-.76-1.68-1.13-7.59,18.63-13,40.62-12.33,56Z" transform="translate(2334.46 66.4)"/><path class="cls-12" d="M-625.28,1171.65l2.07-.28,2-.31,2-.37c.66-.13,1.32-.25,2-.41s1.32-.28,2-.45,1.3-.32,1.93-.49c1.29-.36,2.54-.74,3.77-1.15,25.71-8.61,46.21-37.8,57.8-69.21-3.69,7.47-25.23,46.58-68.87,42.29-20.18-2-33.33-13.89-40.69-31C-662.68,1140.42-653.49,1166.36-625.28,1171.65Z" transform="translate(2334.46 66.4)"/><path class="cls-13" d="M-625.28,1171.65a81,81,0,0,0,15.77-3.46c25.71-8.61,46.21-37.8,57.8-69.21,8.55-23.16,12.26-47.51,9.67-65.71a92.47,92.47,0,0,0-2-10.18c-11.44-21.78-32.68-39.05-71.24-18.8C-650.31,1024.82-693.61,1158.81-625.28,1171.65Z" transform="translate(2334.46 66.4)"/><path class="cls-12" d="M-625.28,1171.65l2.07-.28,2-.31,2-.37c.66-.13,1.32-.25,2-.41s1.32-.28,2-.45,1.3-.32,1.93-.49c1.29-.36,2.54-.74,3.77-1.15,25.71-8.61,46.21-37.8,57.8-69.21-3.69,7.47-25.23,46.58-68.87,42.29-20.18-2-33.33-13.89-40.69-31C-662.68,1140.42-653.49,1166.36-625.28,1171.65Z" transform="translate(2334.46 66.4)"/><path class="cls-3" d="M-714,1153.94c32.37,8.66,87.45,21.89,116.26.84,30-22.08,47.85-68.39,49.82-104.86,1.59-28.34-11.54-59.54-41.28-66.44a58.37,58.37,0,0,0-49.71,11.17c-8.12,6.63-14.24,16.43-19.28,25.92A187.24,187.24,0,0,0-670.3,1049c-3.22,9.86-5.87,20-6.26,30.43-2.42-25.92,7.35-62.31,20.6-84.75,4.26-7.65,11.92-13.28,19.58-17.39a71.69,71.69,0,0,1,50.32-6.51c36.09,8.47,53.24,45.24,51.31,79.8-2.21,40.57-21.78,90.5-55.38,115.06-18.32,13.49-42.86,14.69-64.56,13.08-21.5-1.67-42.46-6.36-62.74-12L-714,1154Z" transform="translate(2334.46 66.4)"/><path class="cls-3" d="M-624,1174.44c-16.57,0-26.14-7.61-31.55-15.13-23.75-33-2.83-107.91,21.42-143,13.39-19.83,36.81-29.58,58.25-24.21,22.17,5.55,36.59,25.11,39.55,53.67l-9.83,1c-2.51-24.19-14.22-40.62-32.12-45.1-17.42-4.36-36.59,3.75-47.69,20.2-25.13,36.35-40.3,105.58-21.56,131.63,8,11,21.75,13.81,41,8.23l2.75,9.5A73.31,73.31,0,0,1-624,1174.44Z" transform="translate(2334.46 66.4)"/><path class="cls-3" d="M-701.73,1169c-34.11-15.2-43.1-64.8-34.35-105.94,7.12-33.48,27.93-69.26,65-69.26v9.89c-31.14,0-49,31.73-55.3,61.43-7.73,36.34-.3,81.93,28.7,94.85Z" transform="translate(2334.46 66.4)"/><rect class="cls-3" x="-589.5" y="982.53" width="9.89" height="87.18" transform="matrix(0.27, -0.96, 0.96, 0.27, 917.17, 255.15)"/><rect class="cls-3" x="-601.47" y="1013.74" width="9.88" height="104.94" transform="translate(866.61 276.18) rotate(-74.72)"/><rect class="cls-3" x="-614.34" y="1054.69" width="9.88" height="101.4" transform="translate(832.95 278.82) rotate(-73.84)"/><rect class="cls-3" x="-628.51" y="1105.65" width="9.88" height="76.12" transform="translate(798.82 280.04) rotate(-73.04)"/><path class="cls-14" d="M-812.61,768.46c-39.83,10.38-85.2,16.24-133.36,16.24s-93.54-5.86-133.37-16.26C-1060.28,730.11-1017,663.6-946,663.6S-831.61,730.12-812.61,768.46Z" transform="translate(2334.46 66.4)"/><path class="cls-2" d="M-838.73,727.12c44.14,18.36,105.1,68.74,127.06,98.89,20.08,27.56,24.17,61.13,24.17,87.79,0,127.71-267.77-10.26-267.77-10.26l38-156Z" transform="translate(2334.46 66.4)"/><path class="cls-5" d="M-1012.2,698.33-1038,769.75c-45.75-26-76.89-63.33-87.26-93.07l-48.6-84.36,19.85-2.14Z" transform="translate(2334.46 66.4)"/><path class="cls-5" d="M-1060.11,728.35a158.91,158.91,0,0,1-20.5,10.59c-22.47-20.48-37.93-43-44.65-62.22C-1106.92,696.32-1085.3,714.51-1060.11,728.35Z" transform="translate(2334.46 66.4)"/><path class="cls-5" d="M-780.95,761.41c-53.73,30.44-104.27,41.12-149.29,39.26l12.93-53.13,78.58-20.41C-821,734.51-800.51,747.06-780.95,761.41Z" transform="translate(2334.46 66.4)"/><path class="cls-5" d="M-809.08,775.73c-108.87,49.11-202.33,18.81-259.65-26.71,22.49-37.86,62.7-85.42,122.79-85.42C-870.15,663.65-825.95,739.32-809.08,775.73Z" transform="translate(2334.46 66.4)"/><path class="cls-3" d="M-750.9,974.49c-80,0-201.17-61.89-207.39-65.09L-962.9,907l39.18-161a6.6,6.6,0,0,1,8-4.86h0a6.59,6.59,0,0,1,4.85,8v0L-947.61,900a871.67,871.67,0,0,0,93.77,39.47c68.06,23.66,116.89,28.32,141.21,13.49,12.48-7.61,18.55-20.42,18.55-39.16,0-35.31-7.49-62.76-22.9-83.91-21.31-29.25-81.5-78.9-124.27-96.68a6.62,6.62,0,0,1-3.56-8.62,6.61,6.61,0,0,1,8.62-3.56c45.41,18.89,107.1,69.86,129.86,101.1,17.11,23.49,25.43,53.47,25.43,91.67,0,23.39-8.37,40.35-24.87,50.42C-717.71,971.49-733.31,974.49-750.9,974.49Z" transform="translate(2334.46 66.4)"/><path class="cls-2" d="M-801.14,794.85c25.71,62.12,63.72,158.72,49.76,229.81l-52.82,88.91s-57.53,24.92-141.74,24.92-141.73-24.92-141.73-24.92l-52.83-88.91c-14-71.09,24-167.69,49.76-229.81,0,0,45-131.25,144.8-131.25S-801.14,794.85-801.14,794.85Z" transform="translate(2334.46 66.4)"/><path class="cls-2" d="M-751.38,1024.65l-52.82,88.92s-57.53,24.92-141.74,24.92-141.73-24.92-141.73-24.92l-52.84-88.92c-11.26-57.43,11.37-131.49,34.06-190.59,5.38-14.07,10.77-27.26,15.71-39.21,0,0,45-131.25,144.8-131.25s144.8,131.25,144.8,131.25c5,11.93,10.33,25.14,15.72,39.2C-762.75,893.14-740.1,967.22-751.38,1024.65Z" transform="translate(2334.46 66.4)"/><path class="cls-5" d="M-809.08,775.73c-108.87,49.11-202.33,18.81-259.65-26.71,22.49-37.86,62.7-85.42,122.79-85.42C-870.15,663.65-825.95,739.32-809.08,775.73Z" transform="translate(2334.46 66.4)"/><path class="cls-5" d="M-945.94,1029.91c140.22,0,191-54.91,196.39-61.29,1.9,19.62,1.6,38.6-1.82,56-8.43,30.64-23.39,69.9-52.84,88.91,0,0-57.53,24.93-141.73,24.93s-141.67-24.9-141.67-24.9c-29.46-19-44.41-58.27-52.84-88.91-3.42-17.43-3.72-36.41-1.83-56C-1136.91,975-1086.15,1029.91-945.94,1029.91Z" transform="translate(2334.46 66.4)"/><polygon class="cls-15" points="1387.85 1232.76 1387.85 1232.79 1387.8 1232.77 1387.85 1232.76"/><polygon class="cls-15" points="1387.8 1232.77 1387.76 1232.79 1387.76 1232.76 1387.8 1232.77"/><path class="cls-3" d="M-751.38,1024.65c-.61-69.17-21.52-135.42-41.44-201.08-2.89-9.54-5.75-19.08-8.32-28.73,5,8.66,9.66,17.49,14.07,26.46C-759.6,878-727.49,962.8-751.38,1024.65Z" transform="translate(2334.46 66.4)"/><path class="cls-3" d="M-1140.5,1024.65c-23.89-61.79,8.21-146.67,35.69-203.35,4.41-9,9.06-17.8,14.07-26.46-2.57,9.65-5.43,19.19-8.32,28.73C-1119,889.23-1139.89,955.48-1140.5,1024.65Z" transform="translate(2334.46 66.4)"/><path class="cls-3" d="M-1087.67,1113.57c21.12,2.19,49.87,8.61,70.78,12.64,23.32,4.69,47.18,6.38,71,6.52,23.78-.16,47.62-1.81,71-6.51,8.08-1.6,18.16-3.62,26.18-5.31,8.46-1.64,17.83-3.77,26.35-5.06,6-1,11.94-1.8,18.25-2.28a76.82,76.82,0,0,1-15.78,10c-16.62,8-34.76,12.25-52.9,15a485,485,0,0,1-146.12,0c-24.07-3.86-48.88-10-68.67-25Z" transform="translate(2334.46 66.4)"/><path class="cls-16" d="M-763.89,645.39" transform="translate(2334.46 66.4)"/><path class="cls-17" d="M-1072,827.65c-.68-.12-1.37-.23-2-.38A12.17,12.17,0,0,1-1072,827.65Z" transform="translate(2334.46 66.4)"/><path class="cls-2" d="M-839.48,908.22s64.91-5,92.23,14.72c29,20.9-.22,45.09-.22,45.09s-52.28-11.41-96.17-9.79Z" transform="translate(2334.46 66.4)"/><path class="cls-11" d="M-747.47,968s-52.28-11.38-96.14-9.78l1.57-19c30.51-.93,64.71,4.27,82.45,7.46a21,21,0,0,0,22.91-11.79l.11-.26C-728,951.93-747.47,968-747.47,968Z" transform="translate(2334.46 66.4)"/><path class="cls-2" d="M-1050.06,908.22s-64.91-5-92.23,14.72c-29,20.9.22,45.09.22,45.09s52.27-11.41,96.17-9.79Z" transform="translate(2334.46 66.4)"/><path class="cls-11" d="M-1142.07,968s52.29-11.42,96.17-9.79l-1.57-19c-30.51-.93-64.71,4.26-82.45,7.46a21,21,0,0,1-22.91-11.8.68.68,0,0,0-.11-.25C-1161.53,951.93-1142.07,968-1142.07,968Z" transform="translate(2334.46 66.4)"/><path class="cls-18" d="M-745.74,975.15l-3.14-.69c-.51-.11-52-11.2-94.52-9.63l-7.43.27,5.25-63,5.6-.42c2.75-.21,67.64-4.9,96.58,15.94,10,7.21,15.25,15.73,15.57,25.32.56,16.77-14.79,29.65-15.44,30.19Zm-89-23.66c35.81,0,73.73,7.07,85.21,9.39,3.6-3.75,8.74-10.67,8.48-17.57-.19-5.28-3.59-10.34-10.09-15-20.63-14.86-66.36-14.44-82.29-13.8l-3.08,37Z" transform="translate(2334.46 66.4)"/><path class="cls-18" d="M-1143.8,975.15l-2.47-2c-.65-.54-16-13.42-15.44-30.19.32-9.59,5.56-18.11,15.57-25.32,28.94-20.84,93.83-16.15,96.58-15.94l5.6.42,5.25,63-7.43-.27c-42.53-1.58-94,9.52-94.53,9.63Zm75.63-60.89c-20.48,0-53.6,2-70.27,14-6.5,4.68-9.9,9.74-10.1,15-.25,6.89,4.89,13.81,8.49,17.56,11.48-2.31,49.41-9.38,85.21-9.38h1.77l-3.08-37c-3-.07-7.18-.18-12-.18Z" transform="translate(2334.46 66.4)"/><path class="cls-2" d="M-835.28,888.88V981.3c0,17.15-13.52,31.18-30,31.18h-163.88c-16.52,0-30-14-30-31.18V888.88c0-17.14,13.49-31.17,30-31.17h163.88c13.18,0,24.46,9,28.46,21.31A32.3,32.3,0,0,1-835.28,888.88Z" transform="translate(2334.46 66.4)"/><path class="cls-11" d="M-835.28,888.88V981.3c0,17.15-13.52,31.18-30,31.18h-163.88c-16.52,0-30-14-30-31.18V950.19c28.27,16.25,84.29,40.66,140.51,20.52,27.46-9.84,59-43.58,59-43.58s1.21,35.4,6.27,34.84c14.06-1.55,14-73.18,16.62-83A32,32,0,0,1-835.28,888.88Z" transform="translate(2334.46 66.4)"/><path class="cls-18" d="M-858,1019.06h-178.4a29.38,29.38,0,0,1-29.34-29.34V880.46a29.36,29.36,0,0,1,29.34-29.33H-858a29.36,29.36,0,0,1,29.34,29.33V989.72A29.37,29.37,0,0,1-858,1019.06Zm-178.4-154.76a16.17,16.17,0,0,0-16.17,16.16V989.72a16.18,16.18,0,0,0,16.16,16.16H-858a16.18,16.18,0,0,0,16.16-16.16V880.46A16.18,16.18,0,0,0-858,864.3Z" transform="translate(2334.46 66.4)"/><ellipse class="cls-19" cx="1445.28" cy="1001.49" rx="25.88" ry="26.88"/><path class="cls-2" d="M-863.29,935.1a26.62,26.62,0,0,1-.51,5.34c-2.39-12.31-12.86-21.57-25.38-21.57s-23,9.26-25.37,21.57a28.17,28.17,0,0,1-.51-5.34c0-14.84,11.58-26.89,25.88-26.89S-863.29,920.26-863.29,935.1Z" transform="translate(2334.46 66.4)"/><path class="cls-20" d="M-863.3,935.09c0,14.85-11.6,26.87-25.88,26.87s-25.88-12-25.88-26.87a28.23,28.23,0,0,1,.94-7.2,26.06,26.06,0,0,0,24.94,19.66c11.87,0,21.9-8.33,24.94-19.66A27.79,27.79,0,0,1-863.3,935.09Z" transform="translate(2334.46 66.4)"/><path class="cls-18" d="M-889.18,966.91c-17,0-30.82-14.27-30.82-31.82s13.82-31.82,30.82-31.82,30.82,14.28,30.82,31.82S-872.19,966.91-889.18,966.91Zm0-53.75c-11.55,0-20.94,9.84-20.94,21.93S-900.73,957-889.18,957s20.94-9.84,20.94-21.94S-877.61,913.16-889.18,913.16Z" transform="translate(2334.46 66.4)"/><path class="cls-18" d="M-971.09,1017.42a5,5,0,0,1-4.94-4.95v-47.3a33,33,0,0,0-12.41-25.89L-992.6,936a42.94,42.94,0,0,1-16.21-33.67V857.71a4.94,4.94,0,0,1,4.94-4.94,5,5,0,0,1,5,4.94v44.64a33,33,0,0,0,12.4,25.89l4.17,3.25a43,43,0,0,1,16.2,33.68v47.3A5,5,0,0,1-971.09,1017.42Z" transform="translate(2334.46 66.4)"/><path class="cls-2" d="M-711.67,826c42.7,54.14,67.55,140-52.46,182.78,0,0-55.25-73.7-47.85-85.47,19.47-31,53.9-67.43,53.9-67.43" transform="translate(2334.46 66.4)"/><path class="cls-5" d="M-764.13,1008.79s-5.79-7.73-13.37-18.59c12.9-12.14,33.65-31,37.84-30.75,16.33,6.06,63.23-18.13,56.62-82.84C-666.3,924.32-677.31,977.8-764.13,1008.79Z" transform="translate(2334.46 66.4)"/><path class="cls-5" d="M-774.93,993.86c-15.69-22.17-42.34-62.14-37-70.54.39-.63.79-1.24,1.18-1.86l7-1.67C-785.36,927.49-756.53,958.59-774.93,993.86Z" transform="translate(2334.46 66.4)"/><path class="cls-3" d="M-706.49,821.93c32.8,39.22,54.51,97.86,21.1,143.59-19.73,27-51.13,42.33-81.62,52.6-15.1-20.6-29.61-41.4-41.92-63.84-4.2-8.42-13-23-9.51-32.75a11.6,11.6,0,0,1,1.32-2.36c.52-.74,2-2.92,2.52-3.7a287.29,287.29,0,0,1,56.52-59.58c-4.3,6.57-8.81,12.89-13.23,19.28-11.22,16.15-24.56,34.38-34.71,51l-.37.6.14-.22a2.29,2.29,0,0,0,.1-.23c.19-.53.08-.31.14.1,1.26,7.09,5.74,14.4,9.36,20.94,3.79,6.5,7.91,12.92,12.16,19.26,8.54,12.65,17.44,25.28,26.64,37.44l-8.91-2.68c33.29-12.1,70-33,79.84-69,9.55-35.85-8.42-73.54-29.92-102.36-5-6.91,4.73-14.65,10.35-8.16Z" transform="translate(2334.46 66.4)"/><path class="cls-2" d="M-868.56,992.65c3.33,63.08,74.09,47.43,91.37,39.28,49-23.15,36.73-77.53,36.73-77.53Z" transform="translate(2334.46 66.4)"/><path class="cls-5" d="M-776.74,997.11c-12,20-35.62-4.58-46.59-18l53.65-16C-767.93,973.56-769.56,985.13-776.74,997.11Z" transform="translate(2334.46 66.4)"/><path class="cls-3" d="M-862,992.31c1.34,15.09,7.93,30.05,22.87,35.73,14.46,5.89,32,4.59,47.35,1.11,36.11-8,52-39.68,51.3-74.74a69.7,69.7,0,0,1-2.85,54.26c-13.37,27-44.18,38.44-72.82,38.87-19.83.55-42.23-6.87-52.12-25.74-4.93-8.87-6.78-18.94-6.89-28.79a6.61,6.61,0,0,1,6.54-6.66,6.59,6.59,0,0,1,6.62,6Z" transform="translate(2334.46 66.4)"/><ellipse class="cls-21" cx="1447.88" cy="988.72" rx="29.19" ry="8.52"/><path class="cls-3" d="M-886.61,935c-15.37,0-33.32-3.31-33.32-12.65s18-12.65,33.32-12.65,33.32,3.31,33.32,12.65S-871.2,935-886.61,935Zm-24.51-12.65c2.59,1.78,11.06,4.4,24.51,4.4s21.92-2.62,24.51-4.4c-2.59-1.78-11.07-4.39-24.51-4.39s-21.88,2.61-24.47,4.39Zm49.73.65Z" transform="translate(2334.46 66.4)"/><path class="cls-22" d="M-887.84,922.54c-1.39,0-13.66-.12-13.66-4.46V901.16l2.45.21c.08,0,8.16.7,11.06.7,1.49,0,8.66-.56,11.29-.77l2.48-.21v2.49c-.09,5.61-.23,14.1-.23,14.5C-874.49,922.42-886.47,922.54-887.84,922.54Zm-9.15-5.68a32.88,32.88,0,0,0,9.15,1.17,31.52,31.52,0,0,0,8.86-1.15c0-2.39.12-7.69.17-10.89-3,.23-7.8.59-9.18.59-2.06,0-6.29-.3-9-.52Z" transform="translate(2334.46 66.4)"/><path class="cls-23" d="M-876.74,918.08c0,.8-5,2.21-11.1,2.21s-11.4-1.41-11.4-2.21V903.65s8.22.72,11.25.72c1.91,0,11.47-.79,11.47-.79S-876.74,917.53-876.74,918.08Z" transform="translate(2334.46 66.4)"/><path class="cls-3" d="M-887.84,923.38c-4.36,0-14.5-.51-14.5-5.3V900.24l3.37.29c.08,0,8.12.7,11,.7,1.31,0,7.43-.46,11.22-.77l3.4-.28v3.41s-.23,13.86-.23,14.5C-873.61,922.87-883.61,923.38-887.84,923.38Zm8-5.3Zm-16.3-1.85a34.21,34.21,0,0,0,8.3,1,32.12,32.12,0,0,0,8-.94c0-2.34.09-6.41.14-9.35-3,.23-7,.52-8.32.52-1.86,0-5.47-.24-8.15-.45Z" transform="translate(2334.46 66.4)"/><path class="cls-24" d="M-865.23,888c0,2.4-10.26,4.34-22.91,4.34S-911,890.4-911,888s10.25-4.33,22.9-4.33S-865.23,885.65-865.23,888Z" transform="translate(2334.46 66.4)"/><path class="cls-25" d="M-861.76,897.87c0,2.76-11.81,6.47-26.38,6.47s-26.38-3.71-26.38-6.47c0-7.16,3.48-9.87,3.48-9.87,0,2.4,10.25,4.34,22.9,4.34s22.91-1.94,22.91-4.34C-865.23,888-861.76,890.71-861.76,897.87Z" transform="translate(2334.46 66.4)"/><path class="cls-3" d="M-888.14,907.44c-7.65,0-29.47-1.76-29.47-9.57,0-8.43,4.19-11.94,4.66-12.31a3.11,3.11,0,0,1,4.35.53,3.1,3.1,0,0,1-.54,4.35s-2.06,1.87-2.26,6.64c2,1.4,10.49,4.17,23.26,4.17s21.22-2.77,23.26-4.17c-.2-4.78-2.23-6.61-2.32-6.69a3.07,3.07,0,0,1-.52-4.3l0,0a3.13,3.13,0,0,1,4.38-.51c.48.37,4.65,3.89,4.65,12.31C-858.67,905.65-880.49,907.44-888.14,907.44Z" transform="translate(2334.46 66.4)"/><path class="cls-23" d="M-865.23,888c0,2.4-10.26,4.34-22.91,4.34S-911,890.4-911,888s10.25-4.33,22.9-4.33S-865.23,885.65-865.23,888Z" transform="translate(2334.46 66.4)"/><path class="cls-3" d="M-888.14,892.34c-5.74,1.67-23.26,3.77-26-3.06-1-2.52,1.15-5,3.21-5.9,5.32-2.39,11.21-2.4,16.8-2.7,7.3-.16,14.44-.4,21.73.63,3.82.77,10.93,1.9,10.3,7.41a4.86,4.86,0,0,1-2.66,3.28c-3.92,1.79-7.91,1.43-11.78-.26a29.44,29.44,0,0,1,4.75-3,42.17,42.17,0,0,0,3.85-2.11c.19-.09.11-.28-.26.28a2.44,2.44,0,0,0-.25,1.55,2.33,2.33,0,0,0,.42,1c.19.22,0,.12-.16,0a77.47,77.47,0,0,0-25.63-2.56c-4.7.38-10,1-14.19,2.51-.4.16-.42.25-.2,0a2.29,2.29,0,0,0-.14-2.88c5.73,3,13.58,3.75,20.19,5.81Z" transform="translate(2334.46 66.4)"/><ellipse class="cls-21" cx="1327.21" cy="988.72" rx="29.19" ry="8.52"/><path class="cls-3" d="M-1007.24,935c-15.37,0-33.32-3.31-33.32-12.65s18-12.65,33.32-12.65,33.32,3.31,33.32,12.65S-991.87,935-1007.24,935Zm-24.51-12.65c2.59,1.78,11.06,4.4,24.51,4.4s21.92-2.62,24.5-4.4c-2.58-1.78-11.06-4.39-24.5-4.39S-1029.16,920.54-1031.75,922.32ZM-982,923Z" transform="translate(2334.46 66.4)"/><path class="cls-23" d="M-997.41,918.08c0,.8-5,2.21-11.1,2.21s-11.4-1.41-11.4-2.21V903.65s8.22.72,11.25.72c1.91,0,11.47-.79,11.47-.79S-997.41,917.53-997.41,918.08Z" transform="translate(2334.46 66.4)"/><path class="cls-3" d="M-1008.51,923.38c-4.36,0-14.5-.51-14.5-5.3V900.24l3.36.29c.09,0,8.13.7,11,.7,1.31,0,7.43-.46,11.22-.77l3.4-.28v3.41s-.23,13.86-.23,14.5C-994.32,922.87-1004.24,923.38-1008.51,923.38Zm8-5.3Zm-16.31-1.85a34.23,34.23,0,0,0,8.31,1,32.12,32.12,0,0,0,8-.94c0-2.34.1-6.41.15-9.35-3,.23-7,.52-8.32.52-1.86,0-5.47-.24-8.16-.45Z" transform="translate(2334.46 66.4)"/><path class="cls-24" d="M-985.9,888c0,2.4-10.26,4.34-22.91,4.34s-22.9-1.94-22.9-4.34,10.25-4.33,22.9-4.33S-985.9,885.65-985.9,888Z" transform="translate(2334.46 66.4)"/><path class="cls-25" d="M-982.43,897.87c0,2.76-11.81,6.47-26.38,6.47s-26.38-3.71-26.38-6.47c0-7.16,3.48-9.87,3.48-9.87,0,2.4,10.25,4.34,22.9,4.34s22.91-1.94,22.91-4.34C-985.9,888-982.43,890.71-982.43,897.87Z" transform="translate(2334.46 66.4)"/><path class="cls-3" d="M-1008.81,907.44c-7.65,0-29.47-1.76-29.47-9.57,0-8.43,4.18-11.94,4.66-12.31a3.11,3.11,0,0,1,4.35.53,3.1,3.1,0,0,1-.54,4.35s-2.06,1.87-2.26,6.64c2,1.4,10.49,4.17,23.26,4.17s21.22-2.77,23.26-4.17c-.2-4.78-2.23-6.61-2.32-6.69a3.07,3.07,0,0,1-.52-4.3l0,0a3.13,3.13,0,0,1,4.38-.51c.48.37,4.65,3.89,4.65,12.31C-979.34,905.65-1001.16,907.44-1008.81,907.44Z" transform="translate(2334.46 66.4)"/><path class="cls-23" d="M-985.9,888c0,2.4-10.26,4.34-22.91,4.34s-22.9-1.94-22.9-4.34,10.25-4.33,22.9-4.33S-985.9,885.65-985.9,888Z" transform="translate(2334.46 66.4)"/><path class="cls-3" d="M-1008.81,892.34c-5.74,1.67-23.26,3.77-26-3.06-1-2.52,1.15-5,3.21-5.9,5.32-2.39,11.21-2.4,16.8-2.7,7.29-.16,14.44-.4,21.73.63,3.81.77,10.93,1.9,10.3,7.41a4.86,4.86,0,0,1-2.66,3.28c-3.92,1.79-7.91,1.43-11.78-.26a29.44,29.44,0,0,1,4.75-3,39.71,39.71,0,0,0,3.85-2.09c.19-.09.11-.28-.26.28a2.32,2.32,0,0,0-.25,1.55,2.33,2.33,0,0,0,.42,1c.19.22,0,.12-.16,0a77.47,77.47,0,0,0-25.63-2.56c-4.7.38-10,1-14.19,2.51-.4.16-.42.25-.2,0a2.29,2.29,0,0,0-.14-2.88c5.73,3,13.58,3.75,20.19,5.81Z" transform="translate(2334.46 66.4)"/><path class="cls-2" d="M-778.91,984.13a54,54,0,0,1-15.54,34.26s-7.65,7.9-22.59,9c-12.09.9-25.9-.39-33.52-7.11-7-6.11-6.64-11.83-12.69-14.69-3.29-1.54-7.52-1.61-26.23,2.48-22,4.79-42.41,8.27-57.23,8.27s-35.22-3.48-57.22-8.27c-18.72-4.09-22.94-4-26.24-2.48-6,2.86-5.74,8.58-12.68,14.69-7.62,6.72-21.43,8-33.53,7.11-14.93-1.1-22.59-9-22.59-9a54.07,54.07,0,0,1-15.53-34.26c-1.36-21.93,8.28-32.47,12.29-40,3.54-6.58,4.2-15.52,4.2-15.52l68.77-6.5a194.15,194.15,0,0,1,25.93,2.35c17.16,3,56.6,2.47,56.6,2.47s39.45.58,56.61-2.47a194.3,194.3,0,0,1,25.93-2.35l68.77,6.5s.66,8.94,4.19,15.52C-787.2,951.65-777.55,962.2-778.91,984.13Z" transform="translate(2334.46 66.4)"/><path class="cls-2" d="M-778.8,980.34c0,1.23,0,2.5-.12,3.79a54,54,0,0,1-15.53,34.27s-7.65,7.89-22.59,9c-12.09.9-25.9-.39-33.52-7.1-7-6.12-6.64-11.84-12.7-14.69-3.28-1.56-7.51-1.62-26.23,2.47-22,4.8-42.4,8.26-57.22,8.26s-35.23-3.46-57.22-8.26c-18.72-4.09-22.94-4-26.24-2.47-6,2.85-5.73,8.57-12.67,14.69-7.62,6.71-21.44,8-33.54,7.1-14.92-1.1-22.59-9-22.59-9a54.12,54.12,0,0,1-15.53-34.27c-.07-1.29-.12-2.56-.12-3.79-.13-19.38,8.64-29.12,12.41-36.16,3.54-6.57,4.2-15.52,4.2-15.52l68.77-6.5a194.13,194.13,0,0,1,25.92,2.34c17.17,3.07,56.61,2.47,56.61,2.47s39.45.6,56.61-2.47a194.28,194.28,0,0,1,25.93-2.34l68.78,6.5s.64,9,4.17,15.52C-787.44,951.22-778.67,961-778.8,980.34Z" transform="translate(2334.46 66.4)"/><path class="cls-2" d="M-778.8,980.34c0,1.23,0,2.5-.12,3.79a54,54,0,0,1-15.53,34.27s-7.65,7.89-22.59,9c-12.09.9-25.9-.39-33.52-7.1-7-6.12-6.64-11.84-12.7-14.69-3.28-1.56-7.51-1.62-26.23,2.47-22,4.8-42.4,8.26-57.22,8.26s-35.23-3.46-57.22-8.26c-18.72-4.09-22.94-4-26.24-2.47-6,2.85-5.73,8.57-12.67,14.69-7.62,6.71-21.44,8-33.54,7.1-14.92-1.1-22.59-9-22.59-9a54.12,54.12,0,0,1-15.53-34.27c-.07-1.29-.12-2.56-.12-3.79-.12-17.65,7.15-27.31,11.29-34.21.41-.67.79-1.32,1.12-2,3.54-6.57,4.2-15.52,4.2-15.52l1.1-.11,67.67-6.39a194.13,194.13,0,0,1,25.92,2.34c17.17,3.07,56.61,2.47,56.61,2.47s39.45.6,56.61-2.47a194.28,194.28,0,0,1,25.93-2.34l68.78,6.5s.64,9,4.17,15.52C-787.44,951.22-778.67,961-778.8,980.34Z" transform="translate(2334.46 66.4)"/><path class="cls-26" d="M-1048.35,936.65s-37.57,13.39-55,9.53c.41-.67.79-1.32,1.12-2,3.54-6.57,4.2-15.52,4.2-15.52l1.1-.11C-1086.14,931.46-1061.93,937.23-1048.35,936.65Z" transform="translate(2334.46 66.4)"/><path class="cls-26" d="M-844.93,936.65s37.57,13.39,55,9.53c-.41-.67-.79-1.32-1.12-2-3.54-6.57-4.2-15.52-4.2-15.52l-1.1-.11C-807.14,931.46-831.35,937.23-844.93,936.65Z" transform="translate(2334.46 66.4)"/><path class="cls-26" d="M-778.8,980.34c0,1.23,0,2.5-.12,3.79a54,54,0,0,1-15.53,34.27s-7.65,7.89-22.59,9c-12.09.9-25.9-.39-33.52-7.1-7-6.12-6.64-11.84-12.7-14.69-3.28-1.56-7.51-1.62-26.23,2.47-22,4.8-42.4,8.26-57.22,8.26s-35.23-3.46-57.22-8.26c-18.72-4.09-22.94-4-26.24-2.47-6,2.85-5.73,8.57-12.67,14.69-7.62,6.71-21.44,8-33.54,7.1-14.92-1.1-22.59-9-22.59-9a54.12,54.12,0,0,1-15.53-34.27c-.07-1.29-.12-2.56-.12-3.79,3.94,5.55,10.9,12.61,21.36,14,18.44,2.49,12.65-18.69,12.65-18.69s25.68,9.69,40.11,3.52c28.86-12.34,24.74,11,93.8,11s65-23.3,93.81-11c14.44,6.16,40.12-3.53,40.12-3.53s-5.81,21.22,12.64,18.73C-789.68,993-782.73,985.89-778.8,980.34Z" transform="translate(2334.46 66.4)"/><path class="cls-3" d="M-1069.76,1031.77c-2.57,0-4.92-.11-6.92-.26-15.53-1.16-24-9.06-25.14-10.13a58,58,0,0,1-16.8-37c-1.21-19.5,5.8-30.78,10.45-38.25.91-1.47,1.71-2.75,2.33-3.91,3.06-5.7,3.7-13.8,3.71-13.88a4.12,4.12,0,0,1,3.73-3.8l68.77-6.5h.46a195.5,195.5,0,0,1,26.58,2.41c16.57,3,55.44,2.42,55.82,2.41s39.38.54,56-2.41A195.79,195.79,0,0,1-864.19,918h.46l68.77,6.5a4.13,4.13,0,0,1,3.73,3.8c0,.08.64,8.18,3.71,13.88.62,1.16,1.41,2.44,2.33,3.91,4.64,7.47,11.66,18.75,10.45,38.25a58.06,58.06,0,0,1-16.81,37c-1.08,1.07-9.6,9-25.13,10.13-9.42.69-26.69.57-36.56-8.13a35,35,0,0,1-7.16-9c-1.65-2.76-2.54-4.12-4.56-5.07-2.24-1-6.66-.93-23.59,2.77-26.17,5.71-44.63,8.37-58.11,8.37s-31.94-2.66-58.1-8.37c-16.93-3.7-21.35-3.83-23.6-2.77-2,1-2.9,2.31-4.56,5.07a35,35,0,0,1-7.15,9C-1047.9,1030.23-1060.26,1031.77-1069.76,1031.77Zm-24.56-99.32a45.38,45.38,0,0,1-4.24,13.69c-.75,1.39-1.65,2.84-2.6,4.36-4.33,7-10.27,16.51-9.22,33.38a49.91,49.91,0,0,0,14.19,31.45l.19.19c.26.26,6.9,6.79,19.93,7.75,13.82,1,24.93-1.19,30.49-6.08a27.08,27.08,0,0,0,5.54-7.06c1.84-3,3.75-6.21,8.12-8.27s9.3-2.1,28.87,2.17c25.22,5.51,43.65,8.18,56.34,8.18s31.13-2.67,56.35-8.18c19.57-4.27,24.37-4.28,28.87-2.17s6.27,5.22,8.12,8.27a27.08,27.08,0,0,0,5.54,7.06c5.55,4.89,16.66,7.12,30.49,6.08,13-1,19.67-7.49,19.94-7.77l.18-.17A50.3,50.3,0,0,0-783,983.88c1-16.87-4.88-26.41-9.21-33.38-1-1.52-1.85-3-2.6-4.36a45.38,45.38,0,0,1-4.24-13.69l-65.23-6.16a191.46,191.46,0,0,0-25.06,2.28c-17.34,3.09-55.76,2.56-57.39,2.54s-39.92.55-57.27-2.54a191.14,191.14,0,0,0-25.06-2.28Z" transform="translate(2334.46 66.4)"/><path class="cls-3" d="M-1035.34,982.65a3,3,0,0,1-1.62-.47,3.09,3.09,0,0,1-1-4.26h0a17,17,0,0,0,1-3.83c1.86-8.71,5.32-24.92,34.74-24.92a3.09,3.09,0,0,1,3.09,3.09,3.09,3.09,0,0,1-3.08,3.1h0c-24.41,0-27,12-28.68,20a18.56,18.56,0,0,1-1.84,5.79A3.11,3.11,0,0,1-1035.34,982.65Z" transform="translate(2334.46 66.4)"/><path class="cls-25" d="M-1034.88,977.94a6.8,6.8,0,0,1-6.37,5.8c-3.53.19-8.87.4-15.89.4s-12.94-.23-17-.44a6.86,6.86,0,0,1-6.45-6.25c-.68-7.72,1.07-20.39,19.6-21.53C-1035.13,954.33-1033.71,969.49-1034.88,977.94Z" transform="translate(2334.46 66.4)"/><path class="cls-25" d="M-1057.14,979c-6.89,0-12.9-.24-16.73-.44a1.65,1.65,0,0,1-1.56-1.53c-.3-3.34-.07-8,2.72-11.25,2.36-2.74,6.41-4.31,12-4.65,1.14-.07,2.26-.11,3.32-.11,7.2,0,12.22,1.58,14.93,4.69,2.86,3.28,2.89,8.1,2.41,11.56a1.61,1.61,0,0,1-1.53,1.34C-1044.73,978.75-1050,979-1057.14,979Z" transform="translate(2334.46 66.4)"/><g class="cls-27"><path class="cls-2" d="M-1057.33,962.9c-11.72,0-16.39,4-15.38,2.84,2.36-2.74,6.41-4.31,12-4.65,1.14-.08,2.27-.11,3.32-.11,7.2,0,12.22,1.58,14.93,4.69C-1041.44,966.8-1045.61,962.9-1057.33,962.9Z" transform="translate(2334.46 66.4)"/></g><path class="cls-23" d="M-1040,977.23a1.61,1.61,0,0,1-1.53,1.34c-3.19.18-8.49.39-15.6.39-6.89,0-12.9-.24-16.73-.44a1.66,1.66,0,0,1-1.56-1.52,21.84,21.84,0,0,1,.12-5.11c.26.49,1.66,3.47,18.43,3.47s16.79-3.12,16.94-3.79A21,21,0,0,1-1040,977.23Z" transform="translate(2334.46 66.4)"/><path class="cls-3" d="M-1057.14,988.27c-7.08,0-13.26-.25-17.21-.45a11,11,0,0,1-10.35-10c-.65-7.35,1-13.62,4.94-18.14,4.06-4.72,10.29-7.37,18.51-7.87,11.73-.72,20.29,1.74,25.46,7.33,5.53,6,5.77,13.83,5,19.38h0a10.93,10.93,0,0,1-10.23,9.35C-1044.33,988.05-1049.82,988.27-1057.14,988.27Zm-.15-28.34c-1.1,0-2.25,0-3.45.11-5.92.36-10.21,2.05-12.76,5-3,3.52-3.29,8.49-3,12a2.71,2.71,0,0,0,2.56,2.49c3.85.2,9.88.44,16.78.44,7.13,0,12.45-.22,15.66-.4a2.64,2.64,0,0,0,2.51-2.24h0c.52-3.78.45-9-2.87-12.63-3-3.16-8.14-4.77-15.43-4.77Zm22.41,18Z" transform="translate(2334.46 66.4)"/><path class="cls-3" d="M-1079.56,992.12c-17.65,0-26.37-5.78-30.57-10.63a22.45,22.45,0,0,1-5.19-18.14l6.13.88a16.44,16.44,0,0,0,3.74,13.2c4.81,5.56,13.77,8.49,25.89,8.49Z" transform="translate(2334.46 66.4)"/><path class="cls-3" d="M-1077.61,1005a3.12,3.12,0,0,1-3-2.47c-2.16-10.44-3-24.77-3.07-25.37a3.09,3.09,0,0,1,2.89-3.28h0a3.1,3.1,0,0,1,3.28,2.91c0,.14.89,14.49,3,24.49a3.08,3.08,0,0,1-2.38,3.64h0A3.26,3.26,0,0,1-1077.61,1005Z" transform="translate(2334.46 66.4)"/><path class="cls-3" d="M-1037.16,1006.26h-.35a3.1,3.1,0,0,1-2.74-3.41h0c1.53-13.88,2.29-32.24,2.3-32.42a3.11,3.11,0,0,1,3.22-3h0a3.09,3.09,0,0,1,3,3.19v0c0,.19-.78,18.76-2.33,32.85A3.09,3.09,0,0,1-1037.16,1006.26Z" transform="translate(2334.46 66.4)"/><path class="cls-25" d="M-946.7,926.51c41.07,0,45.55-2.09,49.06-.6s7.81,15.75,6.19,30.29c-1.47,14-13.91,13.53-17.23,13.61-11.79,0-38-.09-38-.09s-26.23.09-38,.09c-3.32-.08-15.76.37-17.23-13.61-1.62-14.54,2.8-28.84,6.19-30.29s8,.6,49.06.6Z" transform="translate(2334.46 66.4)"/><g class="cls-27"><path class="cls-2" d="M-891.17,952.65c-.48-11-3.8-20.11-6.47-21.25-3.51-1.49-8,.6-49.06.6h0c-41.06,0-45.55-2.09-49-.6-2.68,1.14-6,10.3-6.47,21.25-.63-13.23,3.35-25.39,6.47-26.72,3.5-1.49,8,.61,49,.61h0c41.07,0,45.55-2.1,49.06-.61C-894.53,927.24-890.55,939.4-891.17,952.65Z" transform="translate(2334.46 66.4)"/></g><path class="cls-23" d="M-895.74,955.72c-.89,8.43-6.54,9.68-12.52,9.77h-.45c-11.67,0-37.72-.1-38-.1s-26.34.1-38,.1h-.46c-6-.09-11.62-1.34-12.51-9.74a54.54,54.54,0,0,1-.16-10.14,15.17,15.17,0,0,0,.16,1.64c.89,8.4,6.54,9.65,12.51,9.73h.46c11.67,0,37.72-.09,38-.09s26.31.09,38,.09h.45c6-.08,11.63-1.33,12.52-9.76.06-.54.11-1.09.15-1.62A55.18,55.18,0,0,1-895.74,955.72Z" transform="translate(2334.46 66.4)"/><path class="cls-3" d="M-984.73,973.94h-.55c-15.7-.24-20-9.54-20.79-17.3-1.51-13.59,2-31.64,8.68-34.51,2.53-1.09,4.72-1,11.21-.65,6.7.34,17.91.91,39.47.91h0c21.55,0,32.76-.57,39.46-.91,6.49-.33,8.68-.44,11.22.65,6.73,2.87,10.19,20.92,8.67,34.54-.81,7.73-5.08,17-20.78,17.27h-.68c-12,0-37.86-.09-37.91-.09S-972.95,973.94-984.73,973.94Zm-9.14-44.32c-1.73,2.08-5.43,13.21-4,26.12.9,8.58,6.64,9.84,12.7,9.94h.53c11.69,0,37.91-.1,37.91-.1s26.25.09,38,.09h.43c6.06-.1,11.79-1.36,12.69-9.91,1.45-12.94-2.25-24.07-4-26.15-1-.22-3.21-.11-7.28.1-6.78.34-18.12.92-39.88.92h0c-21.76,0-33.11-.58-39.88-.92-4-.2-6.25-.31-7.22-.06Z" transform="translate(2334.46 66.4)"/><ellipse class="cls-2" cx="1279.78" cy="995.06" rx="43.33" ry="8.02"/><path class="cls-3" d="M-1026.52,934.75a94.56,94.56,0,0,0,9.41-3.46c1.58-.77,3.2-1.52,3.9-2.7-.08-.11-.08.17-.12.2a10.05,10.05,0,0,0-1.06-.61c-5.8-2.32-12.5-2.61-18.74-3.23a239.47,239.47,0,0,0-49.27,1.72c-4.14.77-8.57,1.37-11.94,3.42a1.8,1.8,0,0,0,.37-.76,2.38,2.38,0,0,0-.2-1.83c-.37-.56-.15-.13.27.1,8.3,4.5,18.25,5.7,27.66,7.14,6.63.92,13.33,1.37,20.07,1.78-6.71.73-13.46,1.37-20.24,1.5a150.37,150.37,0,0,1-20.57-.7c-3.83-.52-7.24-.79-11-2.69a8.28,8.28,0,0,1-3.46-3.2,6,6,0,0,1,1.18-7.13c4.7-4.07,10.93-4.65,16.52-5.77a182.76,182.76,0,0,1,51.28,0c7,1.13,14.09,2.15,20.32,5.9,1.42.83,3.53,3.36,2.38,5.54-2.57,4.6-12.13,4.61-16.79,4.79Z" transform="translate(2334.46 66.4)"/><path class="cls-25" d="M-1078.38,998.31a4.08,4.08,0,0,1,3.13-4.84,4.26,4.26,0,0,1,1.07-.08c4.06.21,10.11.44,17,.44,7.25,0,12.69-.22,16.22-.42a4.08,4.08,0,0,1,4.31,3.84,3.64,3.64,0,0,1,0,.66c-.5,5-1.25,12.18-1.5,14-.51,3.67-1.53,20.59-17.43,21.35-15,.72-18.1-13.66-18.91-16.94C-1075,1014.15-1077.08,1004.47-1078.38,998.31Z" transform="translate(2334.46 66.4)"/><path class="cls-25" d="M-1056.61,1028.13c-6.57,0-10.62-4-12.73-12.72l-.08-.31c-.37-1.51-1.66-7.48-3.57-16.47,3.92.18,9.55.38,15.88.38,6.63,0,11.79-.18,15.23-.36-.94,9.22-1.25,11.84-1.35,12.57a7.13,7.13,0,0,1-.12.89c-1.3,10.86-5,15.65-12.43,16Z" transform="translate(2334.46 66.4)"/><g class="cls-27"><path class="cls-2" d="M-1041.91,998.65c-.11,1-.2,2-.29,2.82-3.43.17-8.49.34-14.94.34-6,0-11.4-.17-15.28-.35-.19-.91-.39-1.85-.6-2.84,3.92.19,9.55.38,15.88.38C-1050.51,999-1045.35,998.82-1041.91,998.65Z" transform="translate(2334.46 66.4)"/></g><path class="cls-23" d="M-1043.88,1015.37c-1.63,8.57-5.31,12.43-11.93,12.75h-.83c-6.57,0-10.62-4-12.73-12.72l-.07-.31c-.1-.39-.26-1.07-.47-2,3.28,4.67,7.76,6.91,13.65,6.91h1.2C-1050.36,1019.73-1046.68,1018.27-1043.88,1015.37Z" transform="translate(2334.46 66.4)"/><path class="cls-3" d="M-1056.55,1037.44c-6.87,0-17.73-2.87-21.86-19.82l-.07-.29c-.53-2.16-2.44-11.07-3.94-18.17h0a8.15,8.15,0,0,1,1.79-7,8.12,8.12,0,0,1,6.67-2.87c3.85.2,9.89.44,16.82.44,7.32,0,12.74-.22,16-.41a8.18,8.18,0,0,1,6.4,2.52,8.17,8.17,0,0,1,2.24,6.52c-.55,5.44-1.27,12.31-1.52,14.17l-.1.72c-2.31,19.26-12.82,23.79-21.22,24.19Zm-17.78-39.93c2.1,9.91,3.47,16.25,3.86,17.84l.08.31c2.33,9.58,7,13.88,14.63,13.5,10.16-.48,12.51-9.3,13.43-16.92l.11-.87c.18-1.35.71-6.28,1.49-13.88-3.31.24-8.89.47-16.41.47-7.07,0-13.24-.24-17.19-.45Z" transform="translate(2334.46 66.4)"/><path class="cls-25" d="M-858.53,977.94a6.8,6.8,0,0,0,6.37,5.8c3.53.19,8.86.4,15.89.4s12.94-.23,17-.44a6.86,6.86,0,0,0,6.46-6.25c.68-7.72-1.07-20.39-19.6-21.53C-858.29,954.33-859.7,969.49-858.53,977.94Z" transform="translate(2334.46 66.4)"/><path class="cls-25" d="M-836.27,979c6.89,0,12.9-.24,16.73-.44A1.66,1.66,0,0,0-818,977c.29-3.34.06-8-2.73-11.25-2.35-2.74-6.4-4.31-12-4.65C-833.86,961-835,961-836,961c-7.2,0-12.22,1.58-14.93,4.69-2.86,3.28-2.89,8.1-2.41,11.56a1.61,1.61,0,0,0,1.52,1.34C-848.68,978.75-843.38,979-836.27,979Z" transform="translate(2334.46 66.4)"/><g class="cls-27"><path class="cls-2" d="M-836.08,962.9c11.72,0,16.39,4,15.37,2.84-2.35-2.74-6.4-4.31-12-4.65C-833.86,961-835,961-836,961c-7.2,0-12.22,1.58-14.93,4.69C-852,966.8-847.79,962.9-836.08,962.9Z" transform="translate(2334.46 66.4)"/></g><path class="cls-23" d="M-853.4,977.23a1.62,1.62,0,0,0,1.53,1.34c3.19.18,8.49.39,15.6.39,6.89,0,12.9-.24,16.73-.44A1.66,1.66,0,0,0-818,977a21.84,21.84,0,0,0-.12-5.11c-.26.49-1.67,3.47-18.43,3.47s-16.79-3.12-17-3.79A21.46,21.46,0,0,0-853.4,977.23Z" transform="translate(2334.46 66.4)"/><path class="cls-3" d="M-836.27,987.74c-7.31,0-12.79-.22-16.1-.4a10.42,10.42,0,0,1-9.74-8.91h0c-.75-5.43-.52-13.13,4.87-18.95,5.06-5.46,13.49-7.88,25-7.16,8.08.49,14.19,3.08,18.15,7.69,4.79,5.57,5.27,12.73,4.82,17.76a10.51,10.51,0,0,1-9.86,9.53C-823,987.5-829.21,987.74-836.27,987.74ZM-855,977.44a3.2,3.2,0,0,0,3,2.7c3.21.17,8.55.39,15.69.39,6.91,0,13-.24,16.81-.44a3.2,3.2,0,0,0,3-3c.33-3.64,0-8.76-3.1-12.42-2.64-3.07-7.06-4.82-13.12-5.19-9.3-.57-15.79,1.07-19.31,4.87s-3.55,9.16-3,13Z" transform="translate(2334.46 66.4)"/><path class="cls-25" d="M-815,998.31a4.08,4.08,0,0,0-3.14-4.84,4.26,4.26,0,0,0-1.07-.08c-4,.21-10.1.44-17,.44-7.25,0-12.7-.22-16.22-.42a4.08,4.08,0,0,0-4.31,3.85,4.7,4.7,0,0,0,0,.65c.51,5,1.26,12.18,1.51,14,.51,3.67,1.53,20.59,17.43,21.35,15,.72,18.1-13.66,18.91-16.94C-818.4,1014.15-816.34,1004.47-815,998.31Z" transform="translate(2334.46 66.4)"/><g class="cls-27"><path class="cls-2" d="M-851.5,998.65c.1,1,.2,2,.28,2.82,3.44.17,8.5.34,15,.34,6,0,11.39-.17,15.28-.35.19-.91.39-1.85.59-2.84-3.91.19-9.54.38-15.87.38C-842.91,999-848.06,998.82-851.5,998.65Z" transform="translate(2334.46 66.4)"/></g><path class="cls-23" d="M-849.53,1015.37c1.63,8.57,5.3,12.43,11.92,12.75h.83c6.58,0,10.63-4,12.73-12.72l.08-.31c.1-.39.26-1.07.47-2-3.28,4.67-7.76,6.91-13.65,6.91h-1.2C-843,1019.73-846.73,1018.27-849.53,1015.37Z" transform="translate(2334.46 66.4)"/><path class="cls-3" d="M-836.76,1036.92H-838c-11.93-.57-18.91-8.56-20.73-23.73l-.09-.74c-.26-1.84-1-8.71-1.52-14.15a7.67,7.67,0,0,1,2.09-6.1,7.6,7.6,0,0,1,6-2.36c3.26.19,8.68.41,16,.41,6.94,0,13-.24,16.85-.43a7.57,7.57,0,0,1,6.24,2.68,7.63,7.63,0,0,1,1.68,6.58h0c-1.5,7.1-3.41,16-3.94,18.16l-.07.28C-819.37,1033.35-828.94,1036.92-836.76,1036.92Zm-16-39.91a.45.45,0,0,0-.34.15.48.48,0,0,0-.13.38c.78,7.6,1.31,12.54,1.5,13.9l.1.86c.94,7.83,3.38,16.88,13.92,17.38,7.94.4,12.76-4,15.16-13.89l.08-.31c.39-1.61,1.77-8,3.88-17.92a.44.44,0,0,0-.1-.41.48.48,0,0,0-.39-.16c-3.94.2-10.13.45-17.22.45-7.51,0-13.08-.23-16.43-.43Zm37.7,1.3Z" transform="translate(2334.46 66.4)"/><path class="cls-24" d="M-1065.46,924.44c0,.67,3.65,1.22,8.16,1.22s8.16-.55,8.16-1.22V921a63.8,63.8,0,0,1-8.16,1c-1.91,0-8.16-1-8.16-1Z" transform="translate(2334.46 66.4)"/><path class="cls-24" d="M-1084.69,927.82c0,.87,4,1.58,9,1.58s9-.71,9-1.58v-3.29a60.52,60.52,0,0,1-9,1.25c-2.11,0-9-1.25-9-1.25Z" transform="translate(2334.46 66.4)"/><path class="cls-24" d="M-1045.29,928.19c0,.87,4,1.58,9,1.58s9-.71,9-1.58V924.9a61.85,61.85,0,0,1-9,1.24c-2.11,0-9-1.24-9-1.24Z" transform="translate(2334.46 66.4)"/><path class="cls-24" d="M-1063.12,931.41c0,.87,4,1.58,9,1.58s9-.71,9-1.58v-3.92a60.52,60.52,0,0,1-9,1.25c-2.11,0-9-1.25-9-1.25Z" transform="translate(2334.46 66.4)"/><path class="cls-28" d="M-1065.46,924.44c0,.67,3.65,1.22,8.16,1.22s8.16-.55,8.16-1.22V921a63.8,63.8,0,0,1-8.16,1c-1.91,0-8.16-1-8.16-1Z" transform="translate(2334.46 66.4)"/><path class="cls-28" d="M-1084.69,927.82c0,.87,4,1.58,9,1.58s9-.71,9-1.58v-3.29a60.52,60.52,0,0,1-9,1.25c-2.11,0-9-1.25-9-1.25Z" transform="translate(2334.46 66.4)"/><path class="cls-28" d="M-1045.29,928.19c0,.87,4,1.58,9,1.58s9-.71,9-1.58V924.9a61.85,61.85,0,0,1-9,1.24c-2.11,0-9-1.24-9-1.24Z" transform="translate(2334.46 66.4)"/><ellipse class="cls-25" cx="1277.16" cy="987.38" rx="8.16" ry="1.22"/><path class="cls-3" d="M-1057.3,926.56c-9.07,0-9.07-1.59-9.07-2.12V921c0-.52,0-2.12,9.07-2.12s9.06,1.6,9.06,2.12v3.46C-1048.24,925-1048.24,926.56-1057.3,926.56Zm-7.27-2.51a27,27,0,0,0,7.27.7,26.84,26.84,0,0,0,7.26-.7v-2.68a26.46,26.46,0,0,0-7.26-.71,26.57,26.57,0,0,0-7.27.71Z" transform="translate(2334.46 66.4)"/><path class="cls-25" d="M-1084.69,924.53c0,.87,4,1.57,9,1.57s9-.7,9-1.57-4-1.57-9-1.57S-1084.69,923.65-1084.69,924.53Z" transform="translate(2334.46 66.4)"/><path class="cls-3" d="M-1075.69,930.3c-3.7,0-9.9-.32-9.9-2.47v-3.3c0-2.15,6.2-2.47,9.9-2.47s9.9.32,9.9,2.47v3.3C-1065.79,930-1072,930.3-1075.69,930.3Zm-8.1-2.76c.72.38,3.49,1,8.1,1s7.38-.58,8.1-1v-2.72c-.72-.38-3.5-1-8.1-1s-7.38.58-8.1.95Z" transform="translate(2334.46 66.4)"/><path class="cls-25" d="M-1045.29,924.9c0,.87,4,1.57,9,1.57s9-.7,9-1.57-4-1.58-9-1.58S-1045.29,924-1045.29,924.9Z" transform="translate(2334.46 66.4)"/><path class="cls-3" d="M-1036.29,930.65c-3.7,0-9.9-.33-9.9-2.48v-3.3c0-2.15,6.2-2.47,9.9-2.47s9.9.32,9.9,2.47v3.3C-1026.39,930.34-1032.61,930.65-1036.29,930.65Zm-8.1-2.76c.72.37,3.5,1,8.1,1s7.38-.58,8.1-1v-2.73c-.72-.38-3.49-1-8.1-1s-7.38.58-8.1,1Z" transform="translate(2334.46 66.4)"/><path class="cls-28" d="M-1063.12,931.41c0,.87,4,1.58,9,1.58s9-.71,9-1.58v-3.92a60.52,60.52,0,0,1-9,1.25c-2.11,0-9-1.25-9-1.25Z" transform="translate(2334.46 66.4)"/><path class="cls-25" d="M-1063.12,927.33c0,.87,4,1.57,9,1.57s9-.7,9-1.57-4-1.57-9-1.57S-1063.12,926.46-1063.12,927.33Z" transform="translate(2334.46 66.4)"/><path class="cls-3" d="M-1054.13,933.89c-3.69,0-9.89-.32-9.89-2.48v-4.08c0-2.16,6.2-2.48,9.89-2.48s9.91.32,9.91,2.48v4.08C-1044.22,933.57-1050.43,933.89-1054.13,933.89Zm-8.09-2.76c.72.37,3.49,1,8.09,1s7.39-.58,8.11-1v-3.31a.88.88,0,0,1,0-.23c-.79-.38-3.55-.93-8.06-.93s-7.25.55-8,.93a.88.88,0,0,1,0,.23Z" transform="translate(2334.46 66.4)"/><path class="cls-3" d="M-858.07,982.65a3.13,3.13,0,0,1-2.64-1.47,18.47,18.47,0,0,1-1.84-5.79c-1.7-8-4.27-20-28.68-20a3.1,3.1,0,0,1-3.1-3.1,3.09,3.09,0,0,1,3.09-3.09h0c29.42,0,32.88,16.21,34.74,24.92a18.27,18.27,0,0,0,1,3.83,3.08,3.08,0,0,1-1,4.25h0A3,3,0,0,1-858.07,982.65Z" transform="translate(2334.46 66.4)"/><path class="cls-3" d="M-813.86,992.12v-6.2c12.13,0,21.08-2.93,25.9-8.49a16.4,16.4,0,0,0,3.73-13.2l6.13-.88a22.37,22.37,0,0,1-5.18,18.14C-787.49,986.34-796.2,992.12-813.86,992.12Z" transform="translate(2334.46 66.4)"/><path class="cls-3" d="M-815.8,1005a2.7,2.7,0,0,1-.63-.07,3.09,3.09,0,0,1-2.4-3.64h0c2.06-10,2.94-24.35,3-24.49a3.13,3.13,0,0,1,3.28-2.91,3.09,3.09,0,0,1,2.9,3.28,214.22,214.22,0,0,1-3.07,25.37A3.1,3.1,0,0,1-815.8,1005Z" transform="translate(2334.46 66.4)"/><path class="cls-3" d="M-856.25,1006.26a3.1,3.1,0,0,1-3.07-2.75c-1.55-14.09-2.32-32.66-2.33-32.85a3.11,3.11,0,0,1,3-3.22h0a3.1,3.1,0,0,1,3.22,3v0c0,.18.76,18.54,2.29,32.42a3.07,3.07,0,0,1-2.71,3.4h0A2.32,2.32,0,0,1-856.25,1006.26Z" transform="translate(2334.46 66.4)"/><ellipse class="cls-2" cx="1495.72" cy="995.06" rx="43.33" ry="8.02"/><path class="cls-3" d="M-866.89,934.75A40.33,40.33,0,0,1-879.71,933c-1.41-.5-3.29-1.44-4-3-1.13-2.18.93-4.69,2.38-5.54,6.22-3.75,13.34-4.77,20.31-5.9a188.68,188.68,0,0,1,41-1.19c7.13.82,33.21,2.21,28,14.1-4.52,8.74-36,6.57-45.16,6.08-3.37-.27-6.74-.66-10.09-1,6.74-.41,13.44-.86,20.08-1.78,9.4-1.44,19.36-2.64,27.66-7.14.41-.23.64-.66.27-.1a2.39,2.39,0,0,0-.2,1.83,1.8,1.8,0,0,0,.37.76c-3.38-2.05-7.8-2.65-12-3.42A239.47,239.47,0,0,0-860.36,925c-6.23.62-12.94.91-18.73,3.23a9.36,9.36,0,0,0-1.06.61s0-.31-.12-.2c.69,1.18,2.32,1.93,3.9,2.7a95.49,95.49,0,0,0,9.41,3.46Z" transform="translate(2334.46 66.4)"/><path class="cls-24" d="M-827.95,924.44c0,.67-3.65,1.22-8.16,1.22s-8.16-.55-8.16-1.22V921a64,64,0,0,0,8.16,1c1.91,0,8.16-1,8.16-1Z" transform="translate(2334.46 66.4)"/><path class="cls-24" d="M-808.72,927.82c0,.87-4,1.58-9,1.58s-9-.71-9-1.58v-3.29a60.89,60.89,0,0,0,9,1.25c2.11,0,9-1.25,9-1.25Z" transform="translate(2334.46 66.4)"/><path class="cls-24" d="M-848.12,928.19c0,.87-4,1.58-9,1.58s-9-.71-9-1.58V924.9a62.23,62.23,0,0,0,9,1.24c2.1,0,9-1.24,9-1.24Z" transform="translate(2334.46 66.4)"/><path class="cls-24" d="M-830.29,931.41c0,.87-4,1.58-9,1.58s-9-.71-9-1.58v-3.92a60.89,60.89,0,0,0,9,1.25c2.11,0,9-1.25,9-1.25Z" transform="translate(2334.46 66.4)"/><path class="cls-28" d="M-827.95,924.44c0,.67-3.65,1.22-8.16,1.22s-8.16-.55-8.16-1.22V921a64,64,0,0,0,8.16,1c1.91,0,8.16-1,8.16-1Z" transform="translate(2334.46 66.4)"/><path class="cls-28" d="M-808.72,927.82c0,.87-4,1.58-9,1.58s-9-.71-9-1.58v-3.29a60.89,60.89,0,0,0,9,1.25c2.11,0,9-1.25,9-1.25Z" transform="translate(2334.46 66.4)"/><path class="cls-28" d="M-848.12,928.19c0,.87-4,1.58-9,1.58s-9-.71-9-1.58V924.9a62.23,62.23,0,0,0,9,1.24c2.1,0,9-1.24,9-1.24Z" transform="translate(2334.46 66.4)"/><ellipse class="cls-25" cx="1498.34" cy="987.38" rx="8.16" ry="1.22"/><path class="cls-3" d="M-836.11,926.56c-9.07,0-9.07-1.59-9.07-2.12V921c0-.52,0-2.12,9.07-2.12s9.06,1.6,9.06,2.12v3.46C-827,925-827,926.56-836.11,926.56Zm-7.26-2.51a26.88,26.88,0,0,0,7.26.7,26.84,26.84,0,0,0,7.26-.7v-2.68a26.46,26.46,0,0,0-7.26-.71,26.49,26.49,0,0,0-7.26.71Z" transform="translate(2334.46 66.4)"/><path class="cls-25" d="M-808.72,924.53c0,.87-4,1.57-9,1.57s-9-.7-9-1.57,4-1.57,9-1.57S-808.72,923.65-808.72,924.53Z" transform="translate(2334.46 66.4)"/><path class="cls-3" d="M-817.72,930.3c-3.7,0-9.91-.32-9.91-2.47v-3.3c0-2.15,6.21-2.47,9.91-2.47s9.9.32,9.9,2.47v3.3C-807.82,930-814,930.3-817.72,930.3Zm-8.1-2.76c.72.38,3.49,1,8.1,1s7.38-.58,8.1-1v-2.73c-.72-.37-3.5-.95-8.1-.95s-7.38.58-8.1,1Z" transform="translate(2334.46 66.4)"/><path class="cls-25" d="M-848.12,924.9c0,.87-4,1.57-9,1.57s-9-.7-9-1.57,4-1.58,9-1.58S-848.12,924-848.12,924.9Z" transform="translate(2334.46 66.4)"/><path class="cls-3" d="M-857.13,930.65c-3.69,0-9.9-.33-9.9-2.48v-3.3c0-2.15,6.21-2.47,9.9-2.47s9.91.32,9.91,2.47v3.3C-847.22,930.34-853.43,930.65-857.13,930.65Zm-8.09-2.76c.71.37,3.49,1,8.09,1s7.39-.58,8.11-1v-2.73c-.72-.38-3.5-1-8.11-1s-7.38.58-8.09,1Z" transform="translate(2334.46 66.4)"/><path class="cls-28" d="M-830.29,931.41c0,.87-4,1.58-9,1.58s-9-.71-9-1.58v-3.92a60.89,60.89,0,0,0,9,1.25c2.11,0,9-1.25,9-1.25Z" transform="translate(2334.46 66.4)"/><path class="cls-25" d="M-830.29,927.33c0,.87-4,1.57-9,1.57s-9-.7-9-1.57,4-1.57,9-1.57S-830.29,926.46-830.29,927.33Z" transform="translate(2334.46 66.4)"/><path class="cls-3" d="M-839.29,933.89c-3.7,0-9.91-.32-9.91-2.48v-4.08c0-2.16,6.21-2.48,9.91-2.48s9.9.32,9.9,2.48v4.08C-829.39,933.57-835.61,933.89-839.29,933.89Zm-8.1-2.76c.72.37,3.49,1,8.1,1s7.38-.58,8.1-1v-3.31a.64.64,0,0,1,0-.23c-.79-.38-3.55-.93-8-.93s-7.26.55-8,.93a.88.88,0,0,1,0,.23Z" transform="translate(2334.46 66.4)"/><path class="cls-2" d="M-764.13,905.05c-15-15-60.3-26-71-7.66-3.65,6.27-4,17.16,8.39,22.1,12.13,4.84,26.36,3.61,39.92,10.84Z" transform="translate(2334.46 66.4)"/><g class="cls-29"><path class="cls-2" d="M-827.44,906.41c-1.58,4.34,1,9.87,4.78,14.47-1.38-.41-2.73-.87-4.07-1.4-12.37-4.93-12-15.82-8.38-22.09,10.69-18.34,56-7.38,71,7.66C-778.79,897.35-821.87,891.27-827.44,906.41Z" transform="translate(2334.46 66.4)"/></g><path class="cls-3" d="M-764.13,905.05c-14.7-8.71-41.84-14.38-58.13-9.48-5.8,1.65-9.9,7-8.32,12.76.82,3.25,4.64,5.8,7.85,7.08,11.45,4.69,26,6.28,35.93,14.92a83.57,83.57,0,0,0-18-2.69c-12.89-.89-31.2-.38-37.48-14.82-5.23-12.8,3.49-26.47,16.16-29.56,19.84-5.58,50.27,4.85,62,21.79Z" transform="translate(2334.46 66.4)"/><path class="cls-3" d="M-747.81,851.7c18.25-6.08,40.45-2.62,54.44,11.38,14.46,14.07,20.45,34.42,23.37,53.73L-683.12,918c-.62-17.69-3.72-36.4-15.07-50.41C-709.64,853.14-729.91,848-747.81,851.7Z" transform="translate(2334.46 66.4)"/><path class="cls-30" d="M-540.85,449.23a362.41,362.41,0,0,0,9.43-45.88c27.22-195.93-110-377.48-306-404.69s-377.48,110-404.69,306a361.38,361.38,0,0,0-3.44,46.71l-34.32-4.77a398.41,398.41,0,0,1,3.7-46.68c29.85-214.73,228.79-365.14,443.5-335.27s365.11,228.77,335.28,443.48A394.12,394.12,0,0,1-506.55,454Z" transform="translate(2334.46 66.4)"/><path class="cls-30" d="M-497.38,408.09A396.27,396.27,0,0,1-506.56,454l-34.3-4.76a358.94,358.94,0,0,0,9.43-45.88c27.22-195.94-110-377.49-306-404.7s-377.48,110-404.7,306a363.15,363.15,0,0,0-3.43,46.71l-34.32-4.76a400.58,400.58,0,0,1,3.7-46.68c29.86-214.74,228.81-365.16,443.57-335.34S-467.55,193.36-497.38,408.09Z" transform="translate(2334.46 66.4)"/><path class="cls-31" d="M-514.23,405.75c-1.36,9.8-3.12,19.6-5.25,29.28h-.34c2.12-9.7,3.88-19.49,5.24-29.29l-16.85-2.34c27.22-195.94-110-377.49-306-404.7s-377.48,110-404.7,306l-16.85-2.34c-1.36,9.81-2.34,19.7-2.92,29.61l-.37-.05c.6-9.89,1.58-19.8,2.94-29.61C-1230.79,96.89-1040.46-47-835-18.5S-485.69,200.32-514.23,405.75Z" transform="translate(2334.46 66.4)"/><path class="cls-3" d="M-501.47,461.65l-48-6.67,2.06-7.51a352.42,352.42,0,0,0,9.25-45c12.92-93-11.23-185.49-68-260.55S-745.39,18.34-838.34,5.43s-185.48,11.23-260.55,68-123.52,139.22-136.43,232.15a356.5,356.5,0,0,0-3.37,45.82l-.06,7.79-48-6.67.12-6.07a405.73,405.73,0,0,1,3.75-47.49c30.27-218.44,232.71-371.48,451.15-341.14S-460.27,190.57-490.61,409a405.82,405.82,0,0,1-9.32,46.71Zm-30.8-18.09,20.59,2.86a387.64,387.64,0,0,0,7.52-39.23c29.3-211-118.45-406.54-329.45-435.81s-406.46,118.49-435.76,329.47a389.94,389.94,0,0,0-3.47,39.8l20.62,2.86a371,371,0,0,1,3.35-39.82c13.41-96.57,63.75-182.22,141.73-241.18S-933-21.49-836.46-8.12s182.23,63.77,241.19,141.77,84,174.11,70.63,270.68a370.71,370.71,0,0,1-7.63,39.18Z" transform="translate(2334.46 66.4)"/><path class="cls-3" d="M-565.83,158.18c52.16,82.49,70,185.35,49.06,280.68-1.86-.26-5.31-.75-7.18-1l.79-3.62q3.17-14.4,5.2-29a3.43,3.43,0,0,1,3.86-2.92,3.4,3.4,0,0,1,2.91,3.84v0q-2.05,14.88-5.29,29.55l-2.87-4.12.34.05-3.81,2.65c22-93.12,6.17-194-43-276.11Z" transform="translate(2334.46 66.4)"/><path class="cls-3" d="M-1255.55,302.77c-1.54,10.94-2.53,22-3.13,33l-3.67-.51-.36-.05-3.18-.47.24-3.12c5.16-72.13,31.19-142.86,75-200.45a383.66,383.66,0,0,1,48.5-53.08,382,382,0,0,0-47.12,54.09c-42,58-66.11,128.42-69.53,199.85l-2.94-3.6.37.06-3.89,3.18q.9-15,3-29.88a3.42,3.42,0,0,1,3.86-2.91,3.43,3.43,0,0,1,2.92,3.86Z" transform="translate(2334.46 66.4)"/><path class="cls-32" d="M-829.86-55.71h0c-78.26-10.87-159.79,1.8-240.11,38.63-13.68,6.27-22.13,20.84-20.11,34.8,1,6.71,21.52,37.4,50.23,35.58,32.92-2.08,52.43-18.9,61.61-30.94,37.62,5.23,64-2.13,89.29-14.4,13.13,7.45,30.11,13.15,48.08,15.65h0c18,2.49,35.86,1.64,50.53-2,21,18.72,44.36,33,82,38.2,5.56,14.08,19.74,35.59,50.84,46.56,27.14,9.57,55.26-14.35,58-20.55,5.75-12.88,1.59-29.2-9.87-39C-676.61-10.42-751.61-44.83-829.84-55.7h0Z" transform="translate(2334.46 66.4)"/><path class="cls-32" d="M-599.49,85.86c-2.77,6.19-30.89,30.12-58,20.55-31.1-11-45.28-32.48-50.83-46.56-37.64-5.22-61-19.49-82-38.19-14.66,3.6-32.55,4.44-50.51,1.95h0c-18-2.49-35-8.18-48.09-15.64-25.31,12.27-51.66,19.63-89.28,14.4-9.19,12-28.7,28.85-61.62,30.94-28.7,1.82-49.24-28.87-50.21-35.58a29.61,29.61,0,0,1,.35-10.41,35.26,35.26,0,0,1,19.75-24.39c80.33-36.82,161.85-49.5,240.1-38.63h0c78.22,10.87,153.22,45.29,220.47,102.6A35.19,35.19,0,0,1-597,75.75h0A30.22,30.22,0,0,1-599.49,85.86Z" transform="translate(2334.46 66.4)"/><g class="cls-27"><path class="cls-2" d="M-980.61-34.13c49.85-12.2,99.65-14.94,148.84-8.1s96.4,23,141,48.37c25,14.19-69.15-32.65-141.78-42.73S-1008.51-27.29-980.61-34.13Z" transform="translate(2334.46 66.4)"/></g><path class="cls-33" d="M-599.49,85.86c-2.77,6.19-30.89,30.12-58,20.55-31.1-11-45.28-32.48-50.83-46.56-37.64-5.22-61-19.49-82-38.19-14.66,3.6-32.55,4.44-50.51,1.95h0c-18-2.49-35-8.18-48.09-15.64-25.31,12.27-51.66,19.63-89.28,14.4-9.19,12-28.7,28.85-61.62,30.94-28.7,1.82-49.24-28.87-50.21-35.58a29.61,29.61,0,0,1,.35-10.41c4.73,5.6,14.9,13.26,36.2,17.18,34.6,6.39,45.26-17.82,29.49-31,0,0,58.82,17.28,89.41,6.82,22.83-7.81,21-31,21-31.83.93.61,30.64,20.47,76.7,26.87h0c46.06,6.4,80.07-4.63,81.13-5-.28.73-8.33,22.63,11.5,36.35,26.58,18.41,87.88,17.81,87.88,17.81-18.76,8.4-15.11,34.59,19.93,37.88,21.56,2,33.41-2.55,39.51-6.65A30.3,30.3,0,0,1-599.49,85.86Z" transform="translate(2334.46 66.4)"/><path class="cls-3" d="M-644.16,115.5a46.74,46.74,0,0,1-15.63-2.64c-33-11.66-47.64-34.44-53.35-46.8-38.31-6.1-61.56-21.77-79.09-37-15.12,3.18-32.56,3.65-49.58,1.29s-33.69-7.57-47.36-14.76c-21,9.84-47.66,18.57-86.17,14-8.87,10.33-29.12,28.28-64.09,30.49-32.32,2.07-55.86-30.66-57.43-41.43-2.44-16.83,7.67-34.5,24-42C-991.71-60.56-909.65-73.74-829-62.53h.12c80.6,11.2,156,46.25,223.89,104.16,13.7,11.68,18.61,31.43,11.67,47C-596.92,96.89-619.24,115.5-644.16,115.5ZM-790.34,14.81a6.86,6.86,0,0,1,4.55,1.73c17.72,15.79,39.48,31.13,78.37,36.54A6.79,6.79,0,0,1-702,57.34c3.6,9.13,15.37,31.54,46.76,42.62,22.34,7.88,46.86-12.12,49.55-17,4.47-10,1.08-23-8.1-30.86-65.93-56.2-138.93-90.19-217-101h-.06c-78-10.83-157.54,2-236.29,38.08-11,5-17.78,16.63-16.19,27.6,1.24,5.31,19.41,31.23,43,29.73,33.22-2.1,50.65-20.46,56.6-28.26a6.85,6.85,0,0,1,6.38-2.62c38.89,5.4,64-3.44,85.37-13.79a6.85,6.85,0,0,1,6.36.21c12.75,7.24,29,12.5,45.64,14.82s33.72,1.67,48-1.82A6.57,6.57,0,0,1-790.34,14.81Z" transform="translate(2334.46 66.4)"/><path class="cls-3" d="M-1004.41,7.21c9,4.08,18.92,7.64,28.5,8.73l-4.7,12.85c-9.41-5.93-16.83-13.35-23.82-21.58Z" transform="translate(2334.46 66.4)"/><path class="cls-3" d="M-908.14-16.19A114.57,114.57,0,0,0-884.24,3l-9.44,9.91a121.44,121.44,0,0,1-14.46-29.1Z" transform="translate(2334.46 66.4)"/><path class="cls-3" d="M-765.29,3.65a121.85,121.85,0,0,1-21.85,24.06l-6.38-12.06A114.91,114.91,0,0,0-765.29,3.65Z" transform="translate(2334.46 66.4)"/><path class="cls-3" d="M-679.06,52.4c-9,6-18.13,11.13-28.79,14.28l-1-13.65c9.52,1.57,20,.85,29.8-.63Z" transform="translate(2334.46 66.4)"/><path class="cls-2" d="M-578.82,352.48s66.21,36.17,71.59,50.17c10,25.84-12.07,166.47-54,198.11-16.42,12.38-124.25,11.11-124.25,11.11Z" transform="translate(2334.46 66.4)"/><path class="cls-34" d="M-685.49,611.84s107.83,1.26,124.25-11.13,29.72-41.32,39.29-73.58c-1.32.89-43.23,28-108.77-48l-.12-.13Z" transform="translate(2334.46 66.4)"/><path class="cls-2" d="M-1150.7,547.22s-104.1-28.18-116.51-44.57-17.34-47.86-17.75-81.51h0c-.67-52.52,9.65-110.29,19.8-123.79,9-11.94,82.54-28.74,82.54-28.74L-1167,404.5Z" transform="translate(2334.46 66.4)"/><path class="cls-34" d="M-1150.7,547.22s-104.1-28.18-116.51-44.57-17.34-47.86-17.75-81.51c1,1.22,34,38.72,117.74-16.57l.15-.09Z" transform="translate(2334.46 66.4)"/><path class="cls-3" d="M-673.75,618.49c-5.14,0-9.22,0-11.82-.07l-9.71-.11,113.17-275.15,6.5,3.49c16,8.77,68.77,38.53,74.57,53.55,6.38,16.5,1.18,63.15-7.25,100.69-6.88,30.63-22.38,85-48.94,105.05C-572.16,617.21-642.52,618.49-673.75,618.49Zm-1.93-13.19h1c43.2,0,100.2-2.83,109.5-9.84,39-29.44,60.83-167.16,51.83-190.47-2.6-6.72-33.1-26.82-62.17-43.16Z" transform="translate(2334.46 66.4)"/><path class="cls-3" d="M-1143,556.11l-9.37-2.54c-17.75-4.8-106.94-29.63-120.06-46.94-20.08-26.51-20.18-83.06-18.45-114.4,2.12-38.43,9.83-84.72,20.47-98.86,9.68-12.87,68.53-27.13,86.34-31.19l7.18-1.64Zm-45.3-279.4c-32.42,7.8-67.25,18.83-71.58,24.58-15,20-31.56,158.43-2,197.38,7.08,9.35,61.92,27.83,103.61,39.59Z" transform="translate(2334.46 66.4)"/><polygon class="cls-35" points="1427.78 556.16 1427.61 557.36 1426.93 556.67 1427.78 556.16"/><polygon class="cls-35" points="1426.93 556.67 1426.08 557.15 1426.25 555.95 1426.93 556.67"/><circle class="cls-2" cx="1436.95" cy="497.51" r="327.13"/><path class="cls-5" d="M-573.48,476.11c-24.86,179-190.07,303.87-369,279s-303.89-190.07-279-369A326.89,326.89,0,0,1-1209,331.35c5.1,156.19,121.93,290.7,282,312.93s309.1-75.34,356.58-224.23A327.44,327.44,0,0,1-573.48,476.11Z" transform="translate(2334.46 66.4)"/><path class="cls-3" d="M-896.81,764.89a339.71,339.71,0,0,1-46.61-3.24A331.53,331.53,0,0,1-1163.7,632.37,331.54,331.54,0,0,1-1228,385.2a331.55,331.55,0,0,1,129.28-220.28,331.52,331.52,0,0,1,247.16-64.35,331.51,331.51,0,0,1,220.3,129.28A331.55,331.55,0,0,1-567,477,331.59,331.59,0,0,1-696.24,697.31,331.3,331.3,0,0,1-896.81,764.89Zm-.91-654.34c-157.35,0-295,116.28-317.27,276.46-24.32,175.07,98.32,337.27,273.38,361.64a322.23,322.23,0,0,0,44.32,3.07c157.35,0,295-116.28,317.27-276.46C-555.7,300.2-678.34,138-853.41,113.67a321.92,321.92,0,0,0-44.31-3.12Z" transform="translate(2334.46 66.4)"/><path class="cls-3" d="M-896.81,764.89a339.71,339.71,0,0,1-46.61-3.24A331.53,331.53,0,0,1-1163.7,632.37,331.54,331.54,0,0,1-1228,385.2a331.55,331.55,0,0,1,129.28-220.28,331.52,331.52,0,0,1,247.16-64.35,331.51,331.51,0,0,1,220.3,129.28A331.55,331.55,0,0,1-567,477,331.59,331.59,0,0,1-696.24,697.31,331.3,331.3,0,0,1-896.81,764.89Zm-.91-654.34c-157.35,0-295,116.28-317.27,276.46-24.32,175.07,98.32,337.27,273.38,361.64a322.23,322.23,0,0,0,44.32,3.07c157.35,0,295-116.28,317.27-276.46C-555.7,300.2-678.34,138-853.41,113.67a321.92,321.92,0,0,0-44.31-3.12Z" transform="translate(2334.46 66.4)"/><path class="cls-3" d="M-896.81,764.89a339.71,339.71,0,0,1-46.61-3.24A331.53,331.53,0,0,1-1163.7,632.37,331.54,331.54,0,0,1-1228,385.2a331.55,331.55,0,0,1,129.28-220.28,331.52,331.52,0,0,1,247.16-64.35,331.51,331.51,0,0,1,220.3,129.28A331.55,331.55,0,0,1-567,477,331.59,331.59,0,0,1-696.24,697.31,331.3,331.3,0,0,1-896.81,764.89Zm-.91-654.34c-157.35,0-295,116.28-317.27,276.46-24.32,175.07,98.32,337.27,273.38,361.64a322.23,322.23,0,0,0,44.32,3.07c157.35,0,295-116.28,317.27-276.46C-555.7,300.2-678.34,138-853.41,113.67a321.92,321.92,0,0,0-44.31-3.12Z" transform="translate(2334.46 66.4)"/><path class="cls-3" d="M-897.26,764.85a334.73,334.73,0,0,1-46.16-3.2C-1094,740.72-1211.42,620.84-1229,470c0-.17-.06-.35-.08-.52a333.75,333.75,0,0,1,1-84.32,332,332,0,0,1,7.23-36.73A332.89,332.89,0,0,1-1084.5,154.7a333,333,0,0,1,232.89-54.13A332.93,332.93,0,0,1-642.25,216.16a332.87,332.87,0,0,1,78.34,223.67A338,338,0,0,1-567,477h0a335.55,335.55,0,0,1-22,81.41c-.07.17-.14.34-.22.5A333.61,333.61,0,0,1-897.26,764.85ZM-1216,468A320.34,320.34,0,0,0-941.61,748.59,320.37,320.37,0,0,0-601.17,553.46c.07-.17.15-.33.23-.49A322,322,0,0,0-580,475.21a319.19,319.19,0,0,0,3-35.73c4.42-163.27-114.36-303.35-276.38-325.83s-314.44,79.86-354.64,238.1A315.53,315.53,0,0,0-1215,387a320.52,320.52,0,0,0-1,80.52,3,3,0,0,1,.08.51Zm642.46,8.08Z" transform="translate(2334.46 66.4)"/><path class="cls-3" d="M-573,396.17a6.61,6.61,0,0,1-6.35-4.85c-34.81-126.42-144.5-220.22-279.46-239s-265.93,41.56-333.92,153.6a6.6,6.6,0,0,1-8.65,2.44,6.61,6.61,0,0,1-3-8.45c58.86-138.07,203.93-220,352.82-199.38s266.23,139.2,285.15,288.18a6.59,6.59,0,0,1-5.24,7.3A7.55,7.55,0,0,1-573,396.17ZM-907.41,135.8A365.2,365.2,0,0,1-857,139.3C-787.4,149-723.11,178-671,223.3A343.39,343.39,0,0,1-604,302c-44-99.73-137.34-172.91-249.39-188.47s-221.7,29.41-291.18,113.31a343.94,343.94,0,0,1,85.93-57.43A354.54,354.54,0,0,1-907.41,135.8Z" transform="translate(2334.46 66.4)"/><path class="cls-3" d="M-573.51,476.12A328.14,328.14,0,0,1-595,555.93h0c-71.33,100.82-203.68,177.72-341.83,158.48s-244.52-129.2-285.64-245.61h0a326.7,326.7,0,0,1,1-82.66,323.43,323.43,0,0,1,7.08-36c60.51-114.88,200.27-184.66,350.92-163.73s266.13,126.24,293,253.24A327.4,327.4,0,0,1-573.51,476.12Z" transform="translate(2334.46 66.4)"/><g class="cls-36"><path class="cls-37" d="M-573.5,476.13A327.69,327.69,0,0,1-595,555.94h0c-71.3,100.79-203.65,177.64-341.8,158.45s-244.52-129.2-285.64-245.61h0a328,328,0,0,1-1.94-48.84c61.31,91.71,158.7,165.76,276.3,182.1,149.81,20.81,293.68-57.43,377.31-164,.13.57.27,1.1.37,1.66A324.42,324.42,0,0,1-573.5,476.13Z" transform="translate(2334.46 66.4)"/></g><g class="cls-27"><ellipse class="cls-2" cx="-669" cy="444.19" rx="38.08" ry="52.55" transform="translate(2212.17 -77.6) rotate(-13.51)"/></g><g class="cls-27"><ellipse class="cls-2" cx="-672.16" cy="542.09" rx="24.12" ry="20.7" transform="translate(1454.47 -229.65) rotate(-65.04)"/></g><g class="cls-27"><path class="cls-2" d="M-1155.95,486.82c-22-3.06-32.82-138.67,47.81-203.3,81.53-65.36,220-54.71,217.52-37.14s-128.64,21.21-199.51,114.42C-1124.34,405.79-1133.89,489.88-1155.95,486.82Z" transform="translate(2334.46 66.4)"/></g><path class="cls-30" d="M-1269.77,493.65l32.67-220-29.33-14.54a54.18,54.18,0,0,0-72.64,24.38,53.82,53.82,0,0,0-2.94,7.16,468.64,468.64,0,0,0-23.18,156.16,54.18,54.18,0,0,0,55.39,52.94A54.35,54.35,0,0,0-1302,499Z" transform="translate(2334.46 66.4)"/><path class="cls-30" d="M-1365.2,446.83a54.19,54.19,0,0,0,55.41,52.94A54.21,54.21,0,0,0-1302,499c10.76-1.78,32.28-5.39,32.28-5.39l10.73-72.31,22-147.73s-19.56-9.69-29.33-14.55A54.18,54.18,0,0,0-1339,283.41a53.21,53.21,0,0,0-3,7.24,468.64,468.64,0,0,0-22,110.85Q-1365.66,424-1365.2,446.83Z" transform="translate(2334.46 66.4)"/><path class="cls-38" d="M-1365.2,446.83a54.19,54.19,0,0,0,55.41,52.94A54.21,54.21,0,0,0-1302,499c10.76-1.78,32.28-5.39,32.28-5.39l10.73-72.31c-29.67-5.45-72.21-12.92-77.75-12-7,1.14-19.87,7.12-27.19-7.79Q-1365.66,424-1365.2,446.83Z" transform="translate(2334.46 66.4)"/><path class="cls-3" d="M-1311,506.38a60.9,60.9,0,0,1-38.85-14A60.55,60.55,0,0,1-1371.78,447a477.21,477.21,0,0,1,23.5-158.34,60.59,60.59,0,0,1,34.17-37.06,60.87,60.87,0,0,1,50.61,1.58l33.62,16.68-34.07,229.52-37,6.18A61.61,61.61,0,0,1-1311,506.38Zm41.24-12.73ZM-1290.54,260a47.46,47.46,0,0,0-18.47,3.72,47.39,47.39,0,0,0-26.74,29,464.42,464.42,0,0,0-22.86,154,47.4,47.4,0,0,0,17.16,35.51,47.78,47.78,0,0,0,38.31,10.34l27.56-4.61,31.26-210.55-25-12.42A47.61,47.61,0,0,0-1290.54,260Z" transform="translate(2334.46 66.4)"/><path class="cls-39" d="M-1244.09,385c15.34-103.32,29.32-140.85,17.41-146.75-36-17.85-79.57.3-92,38.5a571,571,0,0,0-28.23,190.15c.83,40.18,37.26,70.2,76.89,63.58C-1257,528.31-1259.43,488.33-1244.09,385Z" transform="translate(2334.46 66.4)"/><path class="cls-39" d="M-1346.95,466.93c.83,40.16,37.26,70.19,76.88,63.57,12-2,10.94-35.66,22.46-120.62,1.06-7.84,2.22-16.13,3.53-24.86,15.33-103.32,29.3-140.85,17.4-146.76-36-17.85-79.57.3-92,38.5a570.78,570.78,0,0,0-25.45,120.13A572.63,572.63,0,0,0-1346.95,466.93Z" transform="translate(2334.46 66.4)"/><path class="cls-40" d="M-1346.95,466.93c.83,40.16,37.26,70.19,76.88,63.57,12-2,10.94-35.66,22.46-120.62.56-4.1,1.14-8.34,1.76-12.69.55-4,1.15-8,1.77-12.17,3.89-26.25,7.7-48.25,11-66.56,9.72-53.78,15.25-75.79,6.37-80.2-36-17.85-79.57.3-92,38.5q-6.63,20.37-11.72,41h0a567.53,567.53,0,0,0-11.67,61.76q-1.17,8.67-2,17.39A572.4,572.4,0,0,0-1346.95,466.93Z" transform="translate(2334.46 66.4)"/><g class="cls-27"><path class="cls-2" d="M-1342.12,379.5c10.51,10.37,38.5,29.26,96.27,17.69.55-4,1.15-8,1.77-12.17,3.89-26.25,7.7-48.25,11-66.56-28.54-15.26-70.29-20.67-97.38-.72h0A567.5,567.5,0,0,0-1342.12,379.5Z" transform="translate(2334.46 66.4)"/></g><g class="cls-27"><path class="cls-2" d="M-1322.23,288a66.07,66.07,0,0,1,81.89-19.08,101.37,101.37,0,0,1,14.65,9.32c4.39-25.16,5.22-36.84-1-39.93-36-17.85-79.57.3-92,38.5Q-1320.53,282.34-1322.23,288Z" transform="translate(2334.46 66.4)"/></g><path class="cls-41" d="M-1346.95,466.93c.83,40.16,37.26,70.19,76.88,63.57,12-2,10.94-35.66,22.46-120.62-7-6.08-12.16,9.85-23.35,26.75-17.81,26.86-76.06,10.68-73.2-39.74A572.69,572.69,0,0,0-1346.95,466.93Z" transform="translate(2334.46 66.4)"/><path class="cls-3" d="M-1281,538a72.7,72.7,0,0,1-46.39-16.74,72.35,72.35,0,0,1-26.18-54.19A580.17,580.17,0,0,1-1325,274.72a72.32,72.32,0,0,1,40.79-44.25,72.67,72.67,0,0,1,60.44,1.89c8.22,4.08,8.61,14.08,7.89,23.32-.77,10.09-3.45,24.56-7.16,44.59-3.88,20.92-9.19,49.57-14.55,85.72s-8.62,65.1-11,86.25c-2.26,20.23-3.9,34.86-6.09,44.74-2,9-5.27,18.5-14.33,20A73.93,73.93,0,0,1-1281,538Zm25-300a59.63,59.63,0,0,0-23.09,4.65,59.16,59.16,0,0,0-33.37,36.19,566.89,566.89,0,0,0-27.91,188,59.12,59.12,0,0,0,21.41,44.31,59.49,59.49,0,0,0,47.8,12.9c3.81-2.46,6.44-26,9.5-53.23,2.38-21.25,5.64-50.34,11-86.72s10.73-65.17,14.63-86.18c5-27,9.3-50.24,6.28-53.77A59.23,59.23,0,0,0-1256,238Z" transform="translate(2334.46 66.4)"/><path class="cls-30" d="M-1257.33,383.05s-10.81,121.05-6.68,151.62c2.19,16.16,36.41,24.35,49.94,11.09,15.28-15,20.61-81.4,31-151.68s24.63-135.36,14.36-154.15c-9.09-16.62-44.22-18.72-51-3.89C-1232.51,264.09-1257.33,383.05-1257.33,383.05Z" transform="translate(2334.46 66.4)"/><path class="cls-30" d="M-1264,534.65c2.2,16.14,36.41,24.34,49.94,11.07,15.29-15,20.6-81.39,31-151.66,8.15-54.84,18.57-106.5,17.88-135.49-.19-8.17-1.26-14.54-3.52-18.67-9.09-16.63-44.22-18.72-51-3.9-2.42,5.3-5.26,13.81-8.29,24.13-13,44.52-29.36,122.89-29.36,122.89S-1268.14,504.09-1264,534.65Z" transform="translate(2334.46 66.4)"/><path class="cls-30" d="M-1264,534.65c2.2,16.14,36.41,24.34,49.94,11.07,11.16-10.94,17-49.22,23.39-96.41,2.38-17.51,4.83-36.24,7.65-55.25,8.15-54.84,18.57-106.5,17.88-135.49-.19-8.17-1.26-14.54-3.52-18.67-9.09-16.63-44.22-18.72-51-3.9-2.42,5.3-5.26,13.81-8.29,24.13-13,44.52-29.36,122.89-29.36,122.89s-2.2,24.67-4.23,54.54C-1264,473.9-1266.27,517.89-1264,534.65Z" transform="translate(2334.46 66.4)"/><g class="cls-27"><path class="cls-2" d="M-1206,270c-3.74.11-16,53.77-21.27,91.38-6.17,43.77-10.44,94.33-6.28,95.33C-1228.72,457.85-1202.22,269.89-1206,270Z" transform="translate(2334.46 66.4)"/></g><path class="cls-42" d="M-1264,534.65c2.2,16.14,36.41,24.34,49.94,11.07,11.16-10.94,17-49.22,23.39-96.41-6.07,11.76-16.38,22.23-33.73,20.25-24.49-2.77-33.71-19-37.15-32C-1264,473.9-1266.27,517.89-1264,534.65Z" transform="translate(2334.46 66.4)"/><path class="cls-42" d="M-1228,260.16c19.17-8.94,46.64-5.11,62.82-1.56-.19-8.17-1.26-14.54-3.52-18.67-9.09-16.63-44.22-18.72-51-3.9C-1222.1,241.33-1224.94,249.84-1228,260.16Z" transform="translate(2334.46 66.4)"/><path class="cls-3" d="M-1233.33,559a52,52,0,0,1-16.49-2.75c-11.77-4-19.51-11.76-20.72-20.67-4.19-30.93,6.19-148,6.63-153l.11-.76c1-4.89,25.11-119.95,38.11-148.33,3.74-8.18,13.4-13.32,25.83-13.76,13.43-.47,30.07,4.66,36.94,17.24,8.74,16,3.44,52-6.69,114.37-2.31,14.19-4.69,28.86-6.91,43.82s-4.21,29.7-6.12,43.95c-8.42,62.59-13.82,98.63-26.82,111.38C-1215.61,556.55-1224.5,559-1233.33,559Zm-17.49-174.87c-.66,7.53-10.54,121-6.66,149.68.51,3.75,5.19,7.66,11.94,10,10.34,3.55,21.63,2.41,26.85-2.71,10.41-10.19,16.52-55.62,23-103.72,1.92-14.29,3.91-29.07,6.14-44.12s4.63-29.78,6.94-44c7.78-47.9,15.13-93.15,8.14-105.93-3.51-6.41-14-10.78-24.91-10.39-7.12.25-12.74,2.64-14.32,6.07-12,26.24-35.56,137.73-37.12,145.12Z" transform="translate(2334.46 66.4)"/><path class="cls-3" d="M-1186.16,255.47c-11.2-.42-25.26-1.89-33.41,7a24.62,24.62,0,0,0-4.81,8.9l-11.87-5.73a35.46,35.46,0,0,1,10.51-10.89c12.4-8,27-3.38,39.58.72Z" transform="translate(2334.46 66.4)"/><path class="cls-3" d="M-1201.82,263.93c-6.82.44-14.23,1.69-19,6.64-4.55,4.6-6.54,10.95-7.85,17.21l-12.35-4.59c8.76-16.25,20.55-24.47,39.19-19.26Z" transform="translate(2334.46 66.4)"/><path class="cls-3" d="M-1197.89,329.79c-11.36.49-26.24-2.74-34.46,6.7a21.28,21.28,0,0,0-4.14,9.33l-12.35-4.59c4.5-9.71,13.91-17,24.62-16.79C-1214.81,324.25-1206.71,327.82-1197.89,329.79Z" transform="translate(2334.46 66.4)"/><path class="cls-3" d="M-1216.91,494.45c-17.07.9-42.19.36-46.5-20.73l13.12-1.31a11.28,11.28,0,0,0,2.14,7.92C-1241,489.15-1227.67,491.74-1216.91,494.45Z" transform="translate(2334.46 66.4)"/><path class="cls-43" d="M-1263.78,382.1c-8,54.25-17.76,143-12.47,150.09,3.79,5.06,9.44,3.9,12.24,2.48,7.12-3.62,4.58-46.34,19.92-149.65s30.18-143.45,24.42-149c-2.27-2.18-7.35-4.93-12.44-1.19C-1239.21,240.06-1255.72,327.84-1263.78,382.1Z" transform="translate(2334.46 66.4)"/><path class="cls-40" d="M-1276.24,532.19c3.78,5.06,9.43,3.9,12.23,2.49,5.81-3,5.18-31.95,13.1-98.71,1.79-15,4-32,6.83-51,15.33-103.32,30.17-143.46,24.4-149-2.27-2.18-7.34-4.92-12.42-1.18-7.11,5.21-23.63,93-31.68,147.24-2.31,15.53-4.73,33.87-6.92,52.31C-1276.15,480.45-1280,527.16-1276.24,532.19Z" transform="translate(2334.46 66.4)"/><path class="cls-41" d="M-1276.24,532.19c3.78,5.06,9.43,3.9,12.23,2.49,5.81-3,5.18-31.95,13.1-98.71-6.12,2.91-13.52,4.78-19.79-1.57C-1276.15,480.45-1280,527.16-1276.24,532.19Z" transform="translate(2334.46 66.4)"/><path class="cls-3" d="M-1269,542.49a15.24,15.24,0,0,1-12.48-6.35c-2-2.74-5.16-6.88,0-61.91,2.62-28.17,6.94-63.84,11.28-93.1h0c4.35-29.26,10.58-64.66,16.26-92.37,11.09-54.13,15.27-57.2,18-59.23,7.46-5.48,15.87-3.07,20.89,1.75,5.6,5.38,3.64,14.81-2.86,46.09-4.86,23.38-12.19,58.7-19.6,108.62s-10.66,85.85-12.8,109.63c-2.87,31.81-3.74,41.41-10.65,44.92A18.09,18.09,0,0,1-1269,542.49Zm-1.56-13.84a2.65,2.65,0,0,0,2.74.53c1.62-4,2.91-18.29,4.39-34.73,2.16-23.93,5.42-60.09,12.89-110.38s14.85-85.84,19.74-109.36c3.35-16.16,6.28-30.24,5.88-34.51a2.62,2.62,0,0,0-2.77-.29c-5.54,9.07-20,79-29.5,143.17h0C-1266.78,447.2-1273.29,518.35-1270.61,528.65Zm.12.42Z" transform="translate(2334.46 66.4)"/><path class="cls-30" d="M-741.09,716.08a3.37,3.37,0,0,1-2.26-3.24,3.34,3.34,0,0,1,3.4-3.28h0c18,.38,110.09.9,151.9-25.76,37.4-23.85,43.5-65.69,43.56-66.11a3.35,3.35,0,0,1,3.77-2.87h0a3.34,3.34,0,0,1,2.87,3.77h0c-.26,1.84-6.6,45.36-46.59,70.86-43.45,27.69-137.28,27.19-155.64,26.81A3.59,3.59,0,0,1-741.09,716.08Z" transform="translate(2334.46 66.4)"/><path class="cls-3" d="M-541.17,614.79h.46a3.34,3.34,0,0,1,2.87,3.77h0c-.26,1.84-6.6,45.36-46.59,70.86-38.22,24.36-115.4,26.9-145.94,26.9-4.19,0-7.49-.05-9.7-.09a3.39,3.39,0,0,1-1-.18,3.37,3.37,0,0,1-2.26-3.24,3.34,3.34,0,0,1,3.35-3.28h.06c2.22.05,5.55.09,9.76.09,30.11,0,105.46-2.47,142.14-25.85,37.4-23.85,43.5-65.69,43.56-66.11a3.35,3.35,0,0,1,3.31-2.9m0-13.18a16.6,16.6,0,0,0-16.36,14.22c-.14.91-6.08,36.76-37.59,56.85-34.63,22.08-112.13,23.8-135.06,23.8-4.21,0-7.48-.06-9.48-.1H-740a16.61,16.61,0,0,0-16.53,16.19,16.49,16.49,0,0,0,11.17,16,16.38,16.38,0,0,0,5,.88c2.15.05,5.6.1,10,.1a576.47,576.47,0,0,0,71.81-4.43c35.75-4.72,63.07-13,81.21-24.54a117.05,117.05,0,0,0,43-49.9,114.49,114.49,0,0,0,9.49-30.31,16.55,16.55,0,0,0-14.13-18.61,16.89,16.89,0,0,0-2.25-.15Z" transform="translate(2334.46 66.4)"/><rect class="cls-44" x="-794.74" y="672.37" width="47.14" height="77.65" rx="14.08" transform="translate(870.72 -10.36) rotate(-88.63)"/><g class="cls-27"><path class="cls-2" d="M-732.33,709.3l-.13,5.5a19.83,19.83,0,0,1-.2,2.3,20.81,20.81,0,0,0-20.24-19l-36-.87a20.82,20.82,0,0,0-21.13,18,22.3,22.3,0,0,1-.09-2.31l.13-5.5a20.84,20.84,0,0,1,21.37-20.3h0l36,.86A20.84,20.84,0,0,1-732.33,709.3Z" transform="translate(2334.46 66.4)"/></g><path class="cls-45" d="M-732.33,709.3l-.13,5.5a20.82,20.82,0,0,1-21.32,20.3h0l-36-.86a20.84,20.84,0,0,1-20.33-21.3l.13-5.5a21.48,21.48,0,0,1,1.07-6.11,20.87,20.87,0,0,0,19.55,15.16l36,.87a20.89,20.89,0,0,0,20.26-14.22A21.34,21.34,0,0,1-732.33,709.3Z" transform="translate(2334.46 66.4)"/><path class="cls-3" d="M-754.16,742.35h-.71l-34.15-.82a29,29,0,0,1-28.3-29.69h0l.08-3.65a29.09,29.09,0,0,1,29.7-28.3l34.15.82a29,29,0,0,1,28.3,29.68h0l-.09,3.65a28.82,28.82,0,0,1-9,20.3A28.8,28.8,0,0,1-754.16,742.35Zm-34.09-48a14.51,14.51,0,0,0-14.48,14.14l-.08,3.65a14.44,14.44,0,0,0,4,10.35A14.44,14.44,0,0,0-788.67,727l34.16.82a14.38,14.38,0,0,0,10.34-4,14.41,14.41,0,0,0,4.49-10.14l.08-3.64a14.5,14.5,0,0,0-14.13-14.84l-34.15-.82Z" transform="translate(2334.46 66.4)"/><path class="cls-30" d="M-556.33,592.75l28.55-220.61,32.18-6a54.17,54.17,0,0,1,63.22,43.26,54.42,54.42,0,0,1,.88,7.74A468.82,468.82,0,0,1-451.75,573.7a54.18,54.18,0,0,1-67.73,35.82,53.84,53.84,0,0,1-7.27-2.82Z" transform="translate(2334.46 66.4)"/><path class="cls-30" d="M-451.74,573.71a54.2,54.2,0,0,1-67.75,35.82,55.48,55.48,0,0,1-7.25-2.82c-9.86-4.64-29.59-14-29.59-14l9.39-72.49,19.15-148.13,32.18-6a54.2,54.2,0,0,1,63.25,43.3,55.33,55.33,0,0,1,.87,7.7,469.57,469.57,0,0,1-9.12,112.7Q-445.06,551.89-451.74,573.71Z" transform="translate(2334.46 66.4)"/><path class="cls-38" d="M-451.74,573.71a54.2,54.2,0,0,1-67.75,35.82,55.48,55.48,0,0,1-7.25-2.82c-9.86-4.64-29.59-14-29.59-14l9.39-72.49c30,2.83,73,7.24,78.08,9.62,6.43,3,17.18,12.27,28.29-.09Q-445.07,551.89-451.74,573.71Z" transform="translate(2334.46 66.4)"/><path class="cls-3" d="M-503.53,618.54a61,61,0,0,1-26-5.84l-33.93-16,29.78-230.12,36.89-6.88A60.79,60.79,0,0,1-447.66,372a60.58,60.58,0,0,1,22.77,45,477.52,477.52,0,0,1-20.56,158.68,60.6,60.6,0,0,1-33.46,37.69A60.84,60.84,0,0,1-503.53,618.54Zm-45.64-29.7,25.25,11.94a47.65,47.65,0,0,0,39.68.5A47.39,47.39,0,0,0-458,571.79a464.19,464.19,0,0,0,20-154.37,47.34,47.34,0,0,0-17.83-35.19,47.61,47.61,0,0,0-38.49-9.61l-27.46,5.12Z" transform="translate(2334.46 66.4)"/><path class="cls-39" d="M-551.42,481.23c13.4-103.58,10.18-143.5,23.24-145.94,39.5-7.36,76.48,22,78.06,62.13a570.74,570.74,0,0,1-24.66,190.65c-11.75,38.43-55,57.39-91.3,40.21C-578.1,622.65-564.82,584.82-551.42,481.23Z" transform="translate(2334.46 66.4)"/><path class="cls-39" d="M-474.78,588.07c-11.74,38.42-55,57.39-91.3,40.21-11-5.19-.81-37.29,11.27-122.17,1.11-7.83,2.26-16.12,3.38-24.88,13.41-103.59,10.19-143.5,23.25-145.94,39.5-7.37,76.48,22,78.06,62.12a569.64,569.64,0,0,1-8.26,122.52A569.25,569.25,0,0,1-474.78,588.07Z" transform="translate(2334.46 66.4)"/><path class="cls-40" d="M-474.78,588.07c-11.74,38.42-55,57.39-91.3,40.21-11-5.19-.81-37.29,11.27-122.17.57-4.09,1.18-8.33,1.76-12.69.55-3.95,1.08-8,1.62-12.19,3.41-26.31,5.74-48.52,7.53-67.05,5.3-54.39,6-77.08,15.72-78.89,39.5-7.37,76.48,22,78.06,62.12q.84,21.42.11,42.62h0a563.84,563.84,0,0,1-5.6,62.62q-1.25,8.67-2.78,17.29A569.05,569.05,0,0,1-474.78,588.07Z" transform="translate(2334.46 66.4)"/><g class="cls-27"><path class="cls-2" d="M-455.61,502.65c-12.94,7.11-45,17.66-97.45-9.22.55-3.95,1.08-8,1.62-12.19,3.41-26.31,5.74-48.52,7.53-67.05,31.62-6.9,73.26-.72,93.89,25.85h0A561.26,561.26,0,0,1-455.61,502.65Z" transform="translate(2334.46 66.4)"/></g><g class="cls-27"><path class="cls-2" d="M-449.79,409.13a66.07,66.07,0,0,0-73.58-40.67,101.79,101.79,0,0,0-16.64,5c2.64-25.4,5-36.86,11.83-38.14,39.5-7.37,76.48,22,78.06,62.12C-450,401.32-449.85,405.23-449.79,409.13Z" transform="translate(2334.46 66.4)"/></g><path class="cls-41" d="M-474.78,588.07c-11.74,38.42-55,57.39-91.3,40.21-11-5.19-.81-37.29,11.27-122.17,8.37-3.94,9,12.8,15.18,32.1,9.8,30.7,70.27,31,81.25-18.28A569.25,569.25,0,0,1-474.78,588.07Z" transform="translate(2334.46 66.4)"/><path class="cls-3" d="M-537.84,641.22a72.71,72.71,0,0,1-31.06-7c-8.3-3.92-8.87-13.91-8.33-23.16.59-10.11,3-24.62,6.33-44.71,3.49-21,8.26-49.74,12.94-86h0c4.69-36.25,7.4-65.26,9.37-86.45,1.89-20.27,3.25-34.92,5.25-44.85,1.84-9.08,4.93-18.59,14-20.28a72.69,72.69,0,0,1,58.67,14.65,72.31,72.31,0,0,1,27.19,53.7A579.86,579.86,0,0,1-468.43,590a72.29,72.29,0,0,1-40,45A72.66,72.66,0,0,1-537.84,641.22Zm-7-159.14c-4.72,36.47-9.52,65.36-13,86.44-4.48,27-8.36,50.4-5.28,53.88a59.56,59.56,0,0,0,49.41.55A59.17,59.17,0,0,0-481,586.14,566.5,566.5,0,0,0-456.7,397.65a59.15,59.15,0,0,0-22.24-43.92,59.48,59.48,0,0,0-48-12c-3.76,2.53-6,26.1-8.5,53.4-2,21.28-4.7,50.43-9.41,86.91Z" transform="translate(2334.46 66.4)"/><path class="cls-30" d="M-538.15,483s-22.58,119.41-34.9,147.7c-6.5,15-41.66,13.5-51.06-3-10.62-18.59,2.35-83.93,11.47-154.39s13.19-137,28.2-152.22c13.27-13.52,47.64-6,50.13,10.15C-529.61,361.72-538.15,483-538.15,483Z" transform="translate(2334.46 66.4)"/><path class="cls-30" d="M-573,630.65c-6.52,14.93-41.67,13.49-51.08-3-10.62-18.6,2.37-83.93,11.48-154.38,7.1-55,11.15-107.53,19.72-135.23,2.41-7.82,5.18-13.65,8.47-17,13.29-13.52,47.66-6,50.15,10.15.88,5.76,1.3,14.72,1.4,25.47.38,46.39-5.25,126.25-5.25,126.25S-560.74,602.35-573,630.65Z" transform="translate(2334.46 66.4)"/><path class="cls-30" d="M-573,630.65c-6.52,14.93-41.67,13.49-51.08-3-7.75-13.57-2.93-52,3.78-99.14,2.48-17.49,5.23-36.18,7.7-55.24,7.1-55,11.15-107.53,19.72-135.23,2.41-7.82,5.18-13.65,8.47-17,13.29-13.52,47.66-6,50.15,10.15.88,5.76,1.3,14.72,1.4,25.47.38,46.39-5.25,126.25-5.25,126.25s-4.61,24.33-10.79,53.62C-556.45,572.19-566.3,615.12-573,630.65Z" transform="translate(2334.46 66.4)"/><g class="cls-27"><path class="cls-2" d="M-556.76,360.17c3.57,1.12.72,56.09-4.44,93.71-6,43.8-15.66,93.61-19.94,93.44C-586.06,547.12-560.33,359.05-556.76,360.17Z" transform="translate(2334.46 66.4)"/></g><path class="cls-42" d="M-573,630.65c-6.52,14.93-41.67,13.49-51.08-3-7.75-13.57-2.93-52,3.78-99.14,2.63,13,9.7,25.85,26.93,28.68,24.32,4,37.61-9.06,44.47-20.67C-556.45,572.19-566.3,615.12-573,630.65Z" transform="translate(2334.46 66.4)"/><path class="cls-42" d="M-532.9,356.7c-16-13.82-43.48-17.62-60-18.61,2.41-7.82,5.18-13.65,8.47-17,13.29-13.52,47.66-6,50.15,10.15C-533.42,337-533,346-532.9,356.7Z" transform="translate(2334.46 66.4)"/><path class="cls-3" d="M-595.22,647.65c-12.9,0-28-5-34.61-16.62-9-15.81-4.41-52,4.55-114.48,2-14.23,4.15-28.94,6.09-43.94s3.64-29.77,5.29-44.05c7.25-62.74,12-98.88,24.73-111.87,10-10.22,27.46-10.64,40.25-6.52,11.84,3.82,19.72,11.4,21.1,20.28,4.77,30.85-3.41,148.13-3.76,153.1l-.1.77c-.93,4.9-22.86,120.39-35.33,149-3.58,8.25-13.14,13.57-25.56,14.25C-593.44,647.57-594.33,647.65-595.22,647.65Zm30.75-326.76c-6.37,0-12.06,1.75-15.29,5-10.22,10.39-15.48,55.93-21,104.15-1.66,14.32-3.37,29.13-5.32,44.22s-4.07,29.85-6.11,44.12c-6.89,48-13.39,93.42-6.16,106.07,3.63,6.34,14.17,10.5,25.1,9.93,7.12-.39,12.69-2.88,14.2-6.35,11.54-26.5,33-138.41,34.38-145.83.53-7.53,8.28-121.21,3.86-149.77-.57-3.74-5.33-7.57-12.11-9.75a37.76,37.76,0,0,0-11.55-1.84Zm26.31,162.2Z" transform="translate(2334.46 66.4)"/><path class="cls-3" d="M-571.85,340.8c13.27-.5,28.53-1,38.27,10.09a35.26,35.26,0,0,1,7.14,13.35l-13,2.28c-.14-7.25-2.9-13.58-9.25-17.67-6.68-4.44-15.3-6.18-23.18-8.05Z" transform="translate(2334.46 66.4)"/><path class="cls-3" d="M-559.09,353.21c19.37.07,28.46,11.21,32.46,29.22l-13.14,1c.45-6.38.27-13-2.86-18.69-3.23-6.07-10-9.29-16.46-11.57Z" transform="translate(2334.46 66.4)"/><path class="cls-3" d="M-580.82,415.5c9,.51,17.78-.72,26.79,2,10.34,2.74,17.43,12.29,19.11,22.86L-548,441.41a21.24,21.24,0,0,0-1.44-10.1C-554.84,420-570,419-580.82,415.46Z" transform="translate(2334.46 66.4)"/><path class="cls-3" d="M-607.4,579.12c11.08.32,24.62,1.45,33.9-5.08a11.24,11.24,0,0,0,4.23-7l12.26,4.83c-9.9,19.12-34.2,12.79-50.39,7.28Z" transform="translate(2334.46 66.4)"/><path class="cls-43" d="M-531.68,483.79c-7,54.39-21.9,142.47-28.91,147.81-5,3.83-10.14,1.18-12.46-1-5.86-5.42,8.23-45.83,21.63-149.42s10.06-146.24,17.11-150c2.78-1.48,8.41-2.74,12.29,2.24C-516.61,340.43-524.61,429.39-531.68,483.79Z" transform="translate(2334.46 66.4)"/><path class="cls-40" d="M-560.61,631.59c-5,3.84-10.14,1.19-12.44-.93-4.79-4.44,3.72-32.16,14.29-98.55,2.37-15,4.86-31.85,7.32-50.88,13.41-103.59,10.07-146.25,17.13-150,2.78-1.48,8.4-2.74,12.27,2.25,5.42,6.95-2.61,95.92-9.65,150.31-2,15.56-4.68,33.87-7.6,52.21C-546.61,581.78-555.61,627.78-560.61,631.59Z" transform="translate(2334.46 66.4)"/><path class="cls-41" d="M-560.61,631.59c-5,3.84-10.14,1.19-12.44-.93-4.79-4.44,3.72-32.16,14.29-98.55,5.09,4.48,11.7,8.29,19.47,3.89C-546.61,581.78-555.61,627.78-560.61,631.59Z" transform="translate(2334.46 66.4)"/><path class="cls-3" d="M-566,640.15a17.22,17.22,0,0,1-11.48-4.67c-5.7-5.26-3.91-14.74,2-46.12,4.41-23.47,11.09-58.93,17.56-109s9-86,10.75-109.85c2.27-31.86,3-41.48,9.8-45.12,6.15-3.27,14.89-3.3,20.59,4,2.1,2.71,5.29,6.79,1.21,61.9-2.09,28.21-5.74,64-9.54,93.3s-9.36,64.84-14.52,92.66c-10.08,54.33-14.2,57.47-16.92,59.55A15.38,15.38,0,0,1-566,640.15Zm-1.77-13.75a2.66,2.66,0,0,0,2.78.24c5.36-9.17,18.49-79.39,26.81-143.7s13.5-135.56,10.65-145.79a2.63,2.63,0,0,0-2.75-.48c-1.55,4-2.57,18.34-3.75,34.8-1.71,24-4.29,60.19-10.81,110.61s-13.25,86.1-17.69,109.72c-3,16.21-5.71,30.34-5.24,34.6Z" transform="translate(2334.46 66.4)"/><path class="cls-46" d="M-1226.2,583.37c.24,51.81-15.8,73.77-21.11,93.15-44.58-20.63-59.16-37.7-59.16-37.7s.52-21.15,16.45-51.08c12.25-15.6,25.35-30.23,35.56-41.16a37.35,37.35,0,0,1,22.49-1.31C-1228.54,555-1226.27,567.46-1226.2,583.37Z" transform="translate(2334.46 66.4)"/><path class="cls-2" d="M-1413.74,550.2l-83.61-45.71s42,8.61,54.53-1.18-33.53-81-33.53-81,71.61,43.38,90,39.77c12.24-2.39-1.07-46.57-1.07-46.57s35,30.69,49,45.93C-1338.37,461.45-1405.25,473.56-1413.74,550.2Z" transform="translate(2334.46 66.4)"/><path class="cls-3" d="M-1413.74,556.79a6.61,6.61,0,0,1-3.17-.81l-83.6-45.71a6.6,6.6,0,0,1-3-8A6.58,6.58,0,0,1-1496,498c15.92,3.25,41.25,5.46,48.75.38,2-7.16-14-40.66-34.6-72.51a6.61,6.61,0,0,1,.8-8.17,6.61,6.61,0,0,1,8.15-1.05c28.2,17.08,72.38,40.06,84.59,39.05,1.94-4.46-.49-22.14-5.35-38.31a6.58,6.58,0,0,1,2.74-7.44,6.59,6.59,0,0,1,7.91.59c1.44,1.26,35.44,31.09,49.52,46.42a6.57,6.57,0,0,1,1.39,6.56,6.59,6.59,0,0,1-5.07,4.38c-2.52.47-62.17,12.37-70,83a6.63,6.63,0,0,1-3.51,5.12A6.74,6.74,0,0,1-1413.74,556.79Zm-51.36-42.14,46.21,25.27c6.64-36,26.25-56.86,42.2-68.17a108.8,108.8,0,0,1,25.94-13.53c-7.62-7.52-17.3-16.45-25.34-23.73,1.84,10.66,2.55,22.3-1.22,28.56a11.46,11.46,0,0,1-7.73,5.55c-13.88,2.72-48.49-14.48-72.33-27.66,2.71,4.72,5.58,9.88,8.34,15.17,15.74,30.07,18.81,45.75,10.27,52.43C-1444.68,513.14-1454.79,514.59-1465.1,514.65Z" transform="translate(2334.46 66.4)"/><path class="cls-46" d="M-1226.34,577.65l-57.51-45.57s.46-8.26,2-20.12l17.27-1.07S-1228.75,517.07-1226.34,577.65Z" transform="translate(2334.46 66.4)"/><path class="cls-46" d="M-1226.21,583.38c.12,23.83-3.23,41.35-7.38,55.2-22.57-22.57-36.14-31.88-72.88.25,0,0,.84-33.81,32.53-76.38,13.2-17.74,28.55-20.28,42-17.2C-1228.61,555-1226.27,567.46-1226.21,583.38Z" transform="translate(2334.46 66.4)"/><path class="cls-2" d="M-1060.11,728.35c-75.68-41.58-119-122.23-138-163.46,0,0-44.08-45-75.78-2.44s-32.53,76.37-32.53,76.37,17,19.84,70.15,42.58C-1198.37,697.65-1154.28,785.74-1060.11,728.35Z" transform="translate(2334.46 66.4)"/><path class="cls-5" d="M-1060.11,728.35a158.91,158.91,0,0,1-20.5,10.59c-22.47-20.48-37.93-43-44.65-62.22C-1106.92,696.32-1085.3,714.51-1060.11,728.35Z" transform="translate(2334.46 66.4)"/><path class="cls-34" d="M-1226.2,583.37c.24,51.81-15.8,73.77-21.11,93.15-44.58-20.63-59.16-37.7-59.16-37.7s.52-21.15,16.45-51.08a199.11,199.11,0,0,1,16.09-25.29c6.16-8.27,12.79-13.25,19.47-15.87a37.35,37.35,0,0,1,22.49-1.31C-1228.54,555-1226.27,567.46-1226.2,583.37Z" transform="translate(2334.46 66.4)"/><path class="cls-3" d="M-1060.11,728.35c-51.7-17.93-91.72-65.79-119.35-111.37a375.91,375.91,0,0,1-24.67-49.33l1.27,1.84c-9.13-8.66-21.08-16.38-33.47-18.37-17.27-2.87-28.59,8.66-37.27,22.21-13,19.38-23.6,41.29-26.22,64.67l-.06,1-13.18-.33a104.22,104.22,0,0,1,4.31-22.75c5.27-17.9,13.8-34.62,24.25-50,11.44-18,27.38-31.39,50.15-27.82,16,2.69,29.42,11.33,40.9,22.18l.64.62.63,1.22c12.4,23.82,25.42,47.13,40.58,69.22,25,37.43,56.34,68.75,91.49,97Z" transform="translate(2334.46 66.4)"/><path class="cls-2" d="M-1283.85,532.06s5-89.22,36.72-103.09c28.66-12.52,48.42,10.71,42.57,36.73-5.74,25.58-15.72,45.63-14.19,48,1.29,2,44.82,16,21.29,86.81Z" transform="translate(2334.46 66.4)"/><g class="cls-47"><path class="cls-2" d="M-1193.61,586.93c-2.71-66.84-32.2-55.86-35.28-70.48-1.58-7.48,4.77-14.28,10.5-39.85,5.85-26-2.2-45.53-30.87-33-19,8.29-28.39,43.53-32.9,70.51,3.3-26.8,12.31-75.22,35-85.12,28.66-12.52,48.42,10.71,42.57,36.72-5.74,25.58-15.72,45.63-14.19,48C-1217.54,515.55-1179.61,527.86-1193.61,586.93Z" transform="translate(2334.46 66.4)"/></g><path class="cls-34" d="M-1226.34,577.65l-57.51-45.57s.46-8.26,2-20.12l17.27-1.07S-1228.75,517.07-1226.34,577.65Z" transform="translate(2334.46 66.4)"/><path class="cls-3" d="M-1290.43,531.65c1.56-31,7.35-81.44,30.51-103.82,6.39-6,14.71-9,23.36-10.2,13.26-1.95,27.7,4.44,34.68,16,6.88,10.81,7.67,24.28,4.35,36.36-3.41,14.76-9.36,28.85-14.08,43.06v-.36a6.53,6.53,0,0,0-2.58-4.69c-.46-.31.28.19.64.38,18.68,9.94,29.67,30,29,50.89a80.72,80.72,0,0,1-12.84,41.17c.46-7.17,1.12-14.08,1.4-20.88,1.12-23-1.85-47.53-24.58-58.58a12.15,12.15,0,0,1-3.51-2.52,8.19,8.19,0,0,1-2-4.48c-.27-3.28.6-5.52,1.38-8.3,3.73-11.38,9.49-27.81,12-39.33,1.4-5.44,1.83-11.45.37-16.87-4.25-16.25-20-19.69-33.58-12-18.13,12.61-25.1,53.1-28.72,74.66-1,6.71-2,13.59-2.59,20.2l-13.15-.74Z" transform="translate(2334.46 66.4)"/><path class="cls-48" d="M-1355.54,661.86C-1373.95,630.6-1371,541-1334.69,514.32c28.22-20.73,79.77-12.9,92.81,21.67,2.8,7.42,5.5,23.15-3.65,32.9,8.36,12.08,14.42,41.44-8.78,60.13,5.9,23.34-5.42,42-27.88,49.12C-1307.93,686.3-1344.69,680.28-1355.54,661.86Z" transform="translate(2334.46 66.4)"/><path class="cls-2" d="M-1254.31,629c5.9,23.34-5.42,42-27.87,49.13-23.9,7.56-57.28,2.93-70.63-12.51a25.31,25.31,0,0,1-2.73-3.77C-1374,630.6-1371,541-1334.68,514.32c28.22-20.74,79.75-12.91,92.8,21.67.23.59.44,1.25.67,1.94,2.49,8,4.09,22-4.32,31C-1237.17,581-1231.11,610.34-1254.31,629Z" transform="translate(2334.46 66.4)"/><g class="cls-47"><path class="cls-2" d="M-1241.21,537.93c-19-24.43-61.55-28.17-86.28-10-33,24.27-38.43,100.66-25.28,137.76h0a25.31,25.31,0,0,1-2.73-3.77c-18.42-31.27-15.45-120.89,20.86-147.55,28.22-20.74,79.75-12.91,92.8,21.67C-1241.61,536.58-1241.44,537.24-1241.21,537.93Z" transform="translate(2334.46 66.4)"/></g><path class="cls-5" d="M-1254.31,629c5.9,23.34-5.42,42-27.87,49.13-25.75,8.15-62.5,2.14-73.36-16.28-3.43-5.83-6.13-13.69-8-22.79h0c12.73,16.28,46.93,20.93,71.44,13.51,14.63-4.42,26.67-17.6,20.42-37.85,19.63-4.4,23.42-42.84,7.29-59.17,18.09-9.9,9.53-29.85,6.28-40.59a46.2,46.2,0,0,1,16.2,21c2.8,7.43,5.5,23.14-3.65,32.9C-1237.17,581-1231.11,610.34-1254.31,629Z" transform="translate(2334.46 66.4)"/><path class="cls-3" d="M-1306.54,688.24c-22.54,0-45.62-7.66-54.68-23h0c-9.83-16.7-14.14-47.91-11-79.5,3.59-35.69,15.83-63.65,33.6-76.7,16.7-12.27,41.71-16,63.72-9.45,19.09,5.66,33,17.77,39.15,34.11,3.79,10,5.2,24.67-1.85,35.68,8.46,16.07,10.45,43.35-9.48,62.08,4.45,24.56-8.23,45.1-33.15,53A88.47,88.47,0,0,1-1306.54,688.24Zm-43.32-29.72c8.55,14.52,41.09,21.13,65.68,13.34,19.66-6.23,28.43-21.64,23.48-41.23l-1-4.09,3.29-2.65c20.64-16.62,13.79-42.16,7.5-51.26l-3-4.37,3.64-3.88c6.83-7.28,4.48-20.23,2.28-26.06-4.67-12.39-15.52-21.66-30.56-26.12-18.2-5.4-38.68-2.48-52.18,7.43-32.4,23.8-36.47,109.33-19.07,138.89Z" transform="translate(2334.46 66.4)"/><path class="cls-3" d="M-1310.87,547.65c20.41-1.16,44.79-.82,62.77,10.31a33.82,33.82,0,0,1,8,7.19l-10.9,7.41c-4.71-8.74-16.07-14-25.62-17.39a158.25,158.25,0,0,0-34.27-7.52Z" transform="translate(2334.46 66.4)"/><path class="cls-3" d="M-1321.1,605.54c18.81-1,38.47-.85,56.23,6.42,6.72,3,13.13,7.44,16.64,14.53l-12.17,5.06c-1.5-6.42-10.09-12.13-16.65-15-13.8-6.24-29-9.25-44-11Z" transform="translate(2334.46 66.4)"/><path class="cls-3" d="M-1233.69,780.49h-1.86l.29-9.88c25.28.7,52.71-16.47,73.38-46.07,16.12-23.09,23.71-48.37,18.46-61.46l9.17-3.68c6.63,16.52-1,44.31-19.53,70.8C-1175.87,761.81-1205.61,780.49-1233.69,780.49Z" transform="translate(2334.46 66.4)"/><path class="cls-3" d="M-2044.45,1344.14l-16.31-54.53h-70.79l-16.6,54.53h-75.52l91.31-284.88h86.48l89.17,284.88Zm-36.93-123.43-14.47-48.35-14.72,48.35Z" transform="translate(2334.46 66.4)"/><path class="cls-3" d="M-1841.16,1348.21c-29,0-54.13-6.77-74.75-20.14-21.17-13.71-35.29-34.23-42-61l-2.48-9.92,76.85-17.39,2.44,9.36c5.28,20.19,19.31,29.59,44.16,29.59,11.84,0,20.44-2,25.57-6.1,6-4.7,6.65-9,6.65-11.84,0-4.44-1.52-7.35-5.09-9.76s-12.23-6.21-33.06-10.54c-35.69-7.4-60.72-17.46-76.5-30.77-16.63-14-25.06-34.45-25.06-60.71s9.69-48.78,28.82-66.84c19-17.9,44.72-27,76.55-27,56.39,0,93.27,23.19,109.64,68.92l3.44,9.61-71.91,24.06-3.2-9.44c-5.69-16.81-17-24.64-35.63-24.64-26.78,0-26.78,9.72-26.78,13.87a11.4,11.4,0,0,0,3.8,8.88c1.12,1.08,6.32,4.9,26.14,8.88,28,5.65,48.06,11.26,61.39,17.18,14.17,6.28,26.22,16.48,35.84,30.3a81,81,0,0,1,14.68,47.13c0,26.66-10.35,50-30.75,69.34C-1772.62,1338.48-1802.5,1348.21-1841.16,1348.21Z" transform="translate(2334.46 66.4)"/><polygon class="cls-3" points="787.92 1410.55 739.75 1305.72 714.32 1342.9 714.32 1410.55 633.38 1410.55 633.38 1125.66 714.32 1125.66 714.32 1227.11 782 1125.66 865.52 1125.66 794.59 1231.12 878.37 1410.55 787.92 1410.55"/><path class="cls-3" d="M-2037.21,1836.42c-49.54,0-84.25-34.26-90.59-89.42v-.13c-3.74-36.26-4-86.42-4.31-130.67-.06-9.82-.12-19.1-.21-27.92-.3-28.27,12.49-58.94,33.38-80,17.19-17.38,38.42-27,59.8-27h114c24.53,0,48,11.54,66.16,32.48,17,19.59,26.8,45,27,69.66.37,42.85-.31,109-3.41,154.55q-.32,4.27-.61,8.24a90.78,90.78,0,0,1-90.65,90.21Zm-6.77-161.51a13.66,13.66,0,0,0-12,7.09,13.51,13.51,0,0,0-1.14,10.36,13.57,13.57,0,0,0,6.54,8.13l125,68.48a14.49,14.49,0,0,0,3.17,1.27,14,14,0,0,0,3.35.41,13.63,13.63,0,0,0,12-7.07,14.94,14.94,0,0,0,1.06-2.47,13.68,13.68,0,0,0-6.46-16l-124.94-68.47A13.53,13.53,0,0,0-2044,1675Z" transform="translate(2334.46 66.4)"/><path class="cls-3" d="M-1719.18,1836.42a25.49,25.49,0,0,1-25.47-25.47V1526.89A45.66,45.66,0,0,1-1699,1481.3a37.3,37.3,0,0,1,26.22,10.88l13.5,12.78.33.4a6.11,6.11,0,0,0,3.63,1.84l-.06-.18a19.75,19.75,0,0,1,2.38-17.46,20.43,20.43,0,0,1,16-8.24h106c19.64.12,35.57,16.48,35.57,36.54V1638.7a35.31,35.31,0,0,1-11.08,25.92,36.43,36.43,0,0,1-24.79,9.88h0a35.19,35.19,0,0,1-22.19-7.78l-.21-.16-89.47-57.74-.31-.24a13.45,13.45,0,0,0-8.19-2.75,13.6,13.6,0,0,0-11.91,6.94c-3.29,5.77-1.42,13.72,4.33,18l70.55,53.21v126.91a25.49,25.49,0,0,1-25.47,25.47Z" transform="translate(2334.46 66.4)"/><path class="cls-3" d="M-1364.36,1836.42a41.78,41.78,0,0,1-41.76-41.76V1408c0-22.66,17.94-39.75,41.74-39.75h74.61c23.85,0,42.54,17.46,42.54,39.75v90.81a50.59,50.59,0,0,1-24.41,43.13l-59.87,35.93a15.14,15.14,0,0,0-6.47,7.86,13.18,13.18,0,0,0,.82,11,13.7,13.7,0,0,0,10.16,6.78c10.21-5,57.12-33.57,89.06-53.41a80.13,80.13,0,0,1,43.29-12.84,82,82,0,0,1,56,22.57,79.55,79.55,0,0,1,24.73,58.12v176.66a41.8,41.8,0,0,1-41.75,41.75Zm163.9-215.08a13.53,13.53,0,0,0-6.64,1.75l-119.73,67.08c-6.46,3.62-9.35,11.4-6.59,17.7a13.7,13.7,0,0,0,10.87,8.12c12.67-5.77,83.94-44.5,127.91-68.68l.35-.19c6.59-3.94,9.2-12.11,5.91-18.43a13.65,13.65,0,0,0-12.08-7.3Z" transform="translate(2334.46 66.4)"/><path class="cls-3" d="M-990.51,1836.42a41.79,41.79,0,0,1-41.73-39.47c-4.12-74.24-5.45-155.8-4.12-242.43A41.61,41.61,0,0,1-995,1513.74h37.91a41.6,41.6,0,0,1,41.37,40.79l.17,10.88h0c1,80-.58,157.83-4.77,231.56A41.82,41.82,0,0,1-962,1836.43Zm-2-331a41.33,41.33,0,0,1-27.8-10.71,41.28,41.28,0,0,1-13.55-32.08c.64-18.4,1.31-35.14,2-51.19a41.72,41.72,0,0,1,41.73-39.91h28a41.8,41.8,0,0,1,41.72,39.65c.82,16.48,1.59,33.2,2.29,51.26v.76a41.1,41.1,0,0,1-11.82,29.75,41,41,0,0,1-29.61,12.47Z" transform="translate(2334.46 66.4)"/><path class="cls-3" d="M-777.2,1837.38A40.83,40.83,0,0,1-818,1796.59v-219.7c0-7.72-3.3-13.18-10.36-17.12a39.2,39.2,0,0,0-13-4.3l-9.63-1,.06-9.68v-42.26a22.44,22.44,0,0,1,22.41-22.41H-818v-75.7a37.15,37.15,0,0,1,37.08-37.09h113.24a37.14,37.14,0,0,1,37.08,37.09v75.7h10a22.16,22.16,0,0,1,22.13,22.13v31.16a22.16,22.16,0,0,1-22.13,22.13h-10.07v102.72c0,19.22-11.54,38.19-28.15,46.15h0c-2.42,1.17-13.69,6.51-71.63,34-7,3.51-10.2,11.7-7.18,18.3a13.7,13.7,0,0,0,12.41,8,13.57,13.57,0,0,0,6-1.42l132.22-64a39.65,39.65,0,0,1,17.66-4.12A40,40,0,0,1-529.44,1735v62.57a39.92,39.92,0,0,1-39.88,39.88Z" transform="translate(2334.46 66.4)"/></svg>