<svg id="Layer_22" data-name="Layer 22" xmlns="http://www.w3.org/2000/svg" viewBox="0 0 2152.17 2152.17"><defs><style>.cls-1{fill:#00b3b6;}.cls-2{fill:#733508;}.cls-3{fill:#f4bba0;}.cls-4{fill:#ffc7aa;}.cls-5{fill:#ff5443;}.cls-6{opacity:0.2;}.cls-7{fill:#e9b298;}.cls-8{fill:#dca98e;}.cls-9{fill:#493c36;}.cls-10{fill:#ffede2;}.cls-11{fill:#d9a68d;}.cls-12{fill:#fff;}.cls-13{opacity:0.6;}.cls-14{fill:#ffa671;}</style></defs><circle class="cls-1" cx="1076.08" cy="1076.08" r="1076.08"/><path class="cls-2" d="M628.74,2694.66c-62.37,6.1-125.69-17.36-173.9-57.39s-82-95.54-102.73-154.69c-24-68.61-31.11-141.84-48.32-212.47-22.12-90.78-61.35-180-55.69-273.31,5-82,46.88-161.13,111.94-211.35,23.78-83.84,83.41-158.11,160.47-198.8s164.88-56.84,251.83-62.7c136.62-9.2,282.76,8.93,390.49,93.46,121.25,95.13,171.54,259.18,166.21,413.2s-73.47,301.85-126,446.73c-21.38,59-62.24,144.5-113.17,181.11-36.32,26.11-49.87,12.45-93.75,21.14C871.32,2704.31,755.34,2682.27,628.74,2694.66Z" transform="translate(296.26 -1376.68)"/><ellipse class="cls-3" cx="652.53" cy="898.99" rx="116.5" ry="144.23"/><path class="cls-4" d="M419,2275.67c0,42.91-28.09,77.69-62.75,77.69s-62.74-34.78-62.74-77.69S321.62,2198,356.27,2198,419,2232.77,419,2275.67Z" transform="translate(296.26 -1376.68)"/><path class="cls-3" d="M1319.87,2275.67c0,79.66-52.16,144.24-116.5,144.24s-116.49-64.58-116.49-144.24,52.15-144.23,116.49-144.23S1319.87,2196,1319.87,2275.67Z" transform="translate(296.26 -1376.68)"/><path class="cls-4" d="M1266.12,2275.67c0,42.91-28.09,77.69-62.75,77.69s-62.74-34.78-62.74-77.69,28.09-77.68,62.74-77.68S1266.12,2232.77,1266.12,2275.67Z" transform="translate(296.26 -1376.68)"/><path class="cls-5" d="M779.82,2803.24c-395.69,0-717.42,196.92-727.59,442.19,191.56,175.93,447,283.42,727.59,283.42s536-107.49,727.6-283.42C1497.24,3000.16,1175.51,2803.24,779.82,2803.24Z" transform="translate(296.26 -1376.68)"/><path class="cls-6" d="M779.82,2803.24c-163.94,0-315.2,33.81-436.9,90.85,28.12,63,75.83,120.72,121.56,159.34,87,73.54,196.32,115.63,306.24,145.67,133.93,36.61,274.69,57.26,411.86,35.71,103.88-16.31,205.76-59.09,284.23-127.9C1367.26,2930.07,1097.36,2803.24,779.82,2803.24Z" transform="translate(296.26 -1376.68)"/><path class="cls-7" d="M929.61,2866.48l-6.29,4.06A264.27,264.27,0,0,1,630,2866.48h0V2453.75H929.61Z" transform="translate(296.26 -1376.68)"/><path class="cls-8" d="M840.57,2453.75H630V2760a419.32,419.32,0,0,0,210.53,65.91v40.55l-6.28,4.06A263.5,263.5,0,0,1,735,2909.05a264.06,264.06,0,0,0,188.35-38.51l6.29-4.06V2453.75Z" transform="translate(296.26 -1376.68)"/><path class="cls-4" d="M779.82,2793.25h0c-232.84,0-421.6-188.76-421.6-421.61V2185.25c0-232.85,188.76-421.61,421.6-421.61h0c232.85,0,421.61,188.76,421.61,421.61v186.39C1201.43,2604.49,1012.67,2793.25,779.82,2793.25Z" transform="translate(296.26 -1376.68)"/><path class="cls-3" d="M779.82,1763.64h0c-7.53,0-15,.22-22.46.61,222.4,11.68,399.14,195.69,399.14,421v186.39c0,225.31-176.74,409.33-399.14,421q11.16.58,22.46.6h0c232.85,0,421.61-188.76,421.61-421.61V2185.25C1201.43,1952.4,1012.67,1763.64,779.82,1763.64Z" transform="translate(296.26 -1376.68)"/><ellipse class="cls-9" cx="838.08" cy="870.7" rx="42.16" ry="63.17"/><path class="cls-10" d="M572.68,2243.24c0,10.87-5.89,19.68-13.14,19.68s-13.14-8.81-13.14-19.68,5.88-19.69,13.14-19.69S572.68,2232.36,572.68,2243.24Z" transform="translate(296.26 -1376.68)"/><path class="cls-10" d="M543.36,2267.52c0,7.76-4.21,14.06-9.39,14.06s-9.38-6.3-9.38-14.06,4.2-14.06,9.38-14.06S543.36,2259.75,543.36,2267.52Z" transform="translate(296.26 -1376.68)"/><path class="cls-9" d="M1060,2247.38c0,34.89-18.88,63.17-42.16,63.17s-42.16-28.28-42.16-63.17,18.87-63.17,42.16-63.17S1060,2212.49,1060,2247.38Z" transform="translate(296.26 -1376.68)"/><ellipse class="cls-10" cx="1331.8" cy="866.55" rx="13.14" ry="19.69"/><path class="cls-10" d="M1019.36,2267.52c0,7.76-4.2,14.06-9.38,14.06s-9.39-6.3-9.39-14.06,4.2-14.06,9.39-14.06S1019.36,2259.75,1019.36,2267.52Z" transform="translate(296.26 -1376.68)"/><path class="cls-11" d="M779.82,2590.41A190.62,190.62,0,0,0,949,2487.56c-52.15-9.26-109.27-14.4-169.2-14.4s-117,5.14-169.19,14.4A190.62,190.62,0,0,0,779.82,2590.41Z" transform="translate(296.26 -1376.68)"/><path class="cls-12" d="M646,2535a1004.54,1004.54,0,0,1,267.59,0,191.23,191.23,0,0,0,35.4-47.4c-52.15-9.26-109.27-14.4-169.2-14.4s-117,5.14-169.19,14.4A191.23,191.23,0,0,0,646,2535Z" transform="translate(296.26 -1376.68)"/><path class="cls-3" d="M819.89,2341.41a40.07,40.07,0,1,1-40.07-40.06A40.07,40.07,0,0,1,819.89,2341.41Z" transform="translate(296.26 -1376.68)"/><g class="cls-13"><path class="cls-14" d="M600.09,2385.51c0,23-42.48,41.61-94.87,41.61s-94.86-18.63-94.86-41.61,42.47-41.6,94.86-41.6S600.09,2362.53,600.09,2385.51Z" transform="translate(296.26 -1376.68)"/><path class="cls-14" d="M1149.29,2385.51c0,23-42.48,41.61-94.87,41.61s-94.86-18.63-94.86-41.61,42.47-41.6,94.86-41.6S1149.29,2362.53,1149.29,2385.51Z" transform="translate(296.26 -1376.68)"/></g><path class="cls-2" d="M299.35,2102.59c0,5,58.25,214.69,58.25,214.69s89.87-149.78,99.85-267.94c0,0,156.44,108.17,436,108.17s306.22,169.76,306.22,169.76l79.89-259.63L1201.37,1793s-286.25-89.87-297.9-91.53S519,1723.15,519,1723.15L387.55,1856.28Z" transform="translate(296.26 -1376.68)"/></svg>