<svg id="Layer_21" data-name="Layer 21" xmlns="http://www.w3.org/2000/svg" xmlns:xlink="http://www.w3.org/1999/xlink" viewBox="0 0 1970.82 2772.69"><defs><style>.cls-1{fill:none;}.cls-2{fill:#ffb200;}.cls-3{clip-path:url(#clip-path);}.cls-4{fill:#fff;}.cls-5{fill:#371a45;}.cls-6{opacity:0.25;}.cls-7{opacity:0.5;}.cls-8{fill:#eaeaea;}.cls-9{fill:#22a7f0;}.cls-10{fill:#1675db;}.cls-11{fill:#d8d8d8;}.cls-12{fill:#220f2d;}</style><clipPath id="clip-path" transform="translate(3125.12 154.76)"><circle class="cls-1" cx="-2139.71" cy="830.65" r="985.41"/></clipPath></defs><circle class="cls-2" cx="985.41" cy="985.41" r="985.41"/><g class="cls-3"><path class="cls-4" d="M-1920.61,1176.92s95.93,57.5,153,230.86c99,300.65,66.73,545.71,34.91,621.43-37.7,89.71-134.36,63.93-134.36,63.93l-73-486.14" transform="translate(3125.12 154.76)"/><path class="cls-5" d="M-1836.49,2110a134.57,134.57,0,0,1-34-4.17,13.17,13.17,0,0,1-9.62-10.77l-73-486.13a13.17,13.17,0,0,1,11.06-15,13.15,13.15,0,0,1,15,11.06l71.64,477c22.34,3.45,83.55,6.4,110.59-57.94,30.42-72.4,61.82-317.31-35.28-612.22-54.62-165.89-146.39-223.15-147.31-223.71a13.18,13.18,0,0,1-4.46-18,13.14,13.14,0,0,1,18-4.5c4.09,2.45,100.81,62,158.75,238,95.87,291.17,72.07,541.35,34.54,630.65C-1745.66,2094.05-1796.83,2110-1836.49,2110Z" transform="translate(3125.12 154.76)"/><path class="cls-5" d="M-1916,1581.71a13.17,13.17,0,0,1-11.27-6.34,13.16,13.16,0,0,1,4.43-18.07c4.59-2.79,113.37-67.81,195.25-34.93a13.15,13.15,0,0,1,7.31,17.11,13.15,13.15,0,0,1-17.11,7.31c-69.64-28-170.79,32.41-171.81,33A13.08,13.08,0,0,1-1916,1581.71Z" transform="translate(3125.12 154.76)"/><path class="cls-4" d="M-1730.62,1880.68s0,128.85-60.1,124c-51.74-4.22-43.72-114.79-43.72-114.79" transform="translate(3125.12 154.76)"/><path class="cls-5" d="M-1730.62,1880.68c10.93,40.2,7.66,98.6-26,128.13-29.76,23.32-67.56,8.55-80.9-24.77-10.55-24.25-12.37-50.56-11.6-76.26.23-6.3.71-12.28,1.57-18.89a13.18,13.18,0,0,1,14.76-11.37,13.22,13.22,0,0,1,11.49,13.28c.58,22.13,2.29,45.64,7.63,66,4.07,13.55,8.11,26,19.6,31.39,11.31,4.31,22-2,28.69-11.85,18.12-28.38,23.22-62.35,34.77-95.69Z" transform="translate(3125.12 154.76)"/><g class="cls-6"><path class="cls-5" d="M-2456.3,1322.13c65.42,39.32,163.17,74.2,304.1,74.2,114.31,0,199.48-34.73,261.93-79.76l-43.23-104.09c-279.53-494.49-352.31-68.12-352.31-68.12S-2384,1194.23-2456.3,1322.13Z" transform="translate(3125.12 154.76)"/></g><g class="cls-6"><path class="cls-5" d="M-2423.35,1270.92c79.58,67,196.83,109.37,327.56,109.37,78.11,0,151.42-15.12,214.75-41.56l-52.44-126.26c-279.56-494.47-352.33-68.1-352.33-68.1S-2357.35,1180.69-2423.35,1270.92Z" transform="translate(3125.12 154.76)"/></g><path class="cls-4" d="M-2345.17,1722.8s125.84,196.47,158.28,289.61c43.41,124.6-4.81,466.35,28.56,529,14.51,27.26,41.38,52.86,180.63,52.86,105.58,0,177.49.07,179.77-72.52,1.69-54-69.12-78.75-69.12-78.75l79.53-592" transform="translate(3125.12 154.76)"/><path class="cls-4" d="M-2186.9,2012.39c43.43,124.62-4.81,466.37,28.58,529,14.52,27.27,41.36,52.88,180.63,52.88,105.56,0,177.47.06,179.77-72.55a45.77,45.77,0,0,0-.06-4.84c-2.51-50.64-69.07-73.87-69.07-73.87l57.55-428.41,22-163.65-557.67-128.16S-2219.32,1919.25-2186.9,2012.39Z" transform="translate(3125.12 154.76)"/><g class="cls-6"><path class="cls-5" d="M-2186.9,2012.39c43.43,124.62-4.81,466.37,28.58,529,14.52,27.27,41.36,52.88,180.63,52.88,105.56,0,177.47.06,179.77-72.55a45.77,45.77,0,0,0-.06-4.84c-16,12.52-53.65,31.58-135.51,32.15-122.28.84-190-10.82-201.83-79.62s-5.95-186.44,33.68-253.51c40.19-68,195.16-52.71,292.14-201.3l22-163.65-557.67-128.16S-2219.32,1919.25-2186.9,2012.39Z" transform="translate(3125.12 154.76)"/></g><path class="cls-5" d="M-2334.08,1715.71c46.54,74,91.6,148.56,130.92,226.72,12.93,26.69,26.25,53.85,33.81,82.78,13.93,58.29,14.27,116.88,14.95,175.89.46,87-5,173.51-2.9,260.05,2.88,66.17,3.26,99.54,77.78,112.74,41.22,7.46,85,7.32,127.35,7.16,28.11-.24,56.94-.36,84.31-5.06,13.31-2.31,26-6.11,35.85-12.4,15.4-9,21.3-27.6,20.89-44.69-1.06-31.35-31.71-51.92-60.54-63.58a13.18,13.18,0,0,1-8.44-14.08l79.54-592c2.54-16.68,27.79-14.3,26.09,3.51l-79.54,592-8.71-14.18a157.85,157.85,0,0,1,21.73,10.09c38.6,21,65.48,56.36,53.41,102.68-17.88,69.21-108.57,62.15-164.46,64.05-44.29.12-87.93.35-132.32-7.62-32.63-5.48-70.14-19.68-85.51-52-12.47-26.71-12.1-57.23-13.74-85.73-.91-29.37-.55-58.46,0-87.49,1.44-86.73,5.68-173,.41-259.29-2.64-35.43-5.76-70.11-17.69-102.92-17.77-46.61-42.1-90.48-66.34-134.17-28.3-50.16-58.23-99.71-89-148.35-8.68-14.14,11.89-29,22.24-14.08Z" transform="translate(3125.12 154.76)"/><path class="cls-5" d="M-2033.13,2288.13c-74.89,0-133.22-15.77-137.58-17a9.87,9.87,0,0,1-6.87-12.15,9.87,9.87,0,0,1,12.15-6.88c1.88.52,189.22,51,321.88-31.19a9.87,9.87,0,0,1,13.59,3.19,9.87,9.87,0,0,1-3.19,13.59C-1896.83,2277.17-1970.73,2288.13-2033.13,2288.13Z" transform="translate(3125.12 154.76)"/><path class="cls-4" d="M-2528.71,1840.81q3.11,28.74,7.44,55.55c39.56,238.23,365.52,295.88,569.19,194.53l123.62-105.8a243.29,243.29,0,0,0,30.75-68.1c3.37-12.18,6.21-24.57,8.51-37.09,31.48-170.82-32.55-368.92-67.94-483.59l-76.34-183.84c-279.56-494.47-352.33-68.1-352.33-68.1s-209.25,106.26-242,406.57C-2539,1653.13-2538.26,1753.21-2528.71,1840.81Z" transform="translate(3125.12 154.76)"/><path class="cls-4" d="M-1789.19,1879.91c-2.33,12.51-5.17,24.91-8.51,37.09a243.63,243.63,0,0,1-30.77,68.08l-123.6,105.82c-203.69,101.36-529.64,43.68-569.2-194.55q-4.36-26.79-7.46-55.53c-9.52-87.61-10.25-187.69.88-289.88,11.71-107.31,46-189.83,85.13-251.57,70.48-111.1,156.92-155,156.92-155S-2213,718-1933.49,1212.49l39.53,95.13,36.84,88.7C-1821.74,1511-1757.73,1709.06-1789.19,1879.91Z" transform="translate(3125.12 154.76)"/><g class="cls-6"><path class="cls-5" d="M-1894,1307.62c-210.92,112.26-422.57,51.13-548.76-8.25,70.48-111.1,156.92-155,156.92-155S-2213,718-1933.49,1212.49Z" transform="translate(3125.12 154.76)"/></g><g class="cls-6"><path class="cls-5" d="M-2330.79,1176.92l-45.09,150.37A821.92,821.92,0,0,1-2524.65,1255C-2475.27,1224.52-2411.92,1196.78-2330.79,1176.92Z" transform="translate(3125.12 154.76)"/></g><g class="cls-6"><path class="cls-5" d="M-2528.71,1840.81q3.11,28.74,7.44,55.55c39.56,238.23,365.52,295.88,569.19,194.53l123.62-105.8a243.29,243.29,0,0,0,30.75-68.1c3.37-12.18,6.21-24.57,8.51-37.09C-1952.45,1981.89-2283.88,2004.09-2528.71,1840.81Z" transform="translate(3125.12 154.76)"/></g><path class="cls-5" d="M-1828.45,1985.11a240.83,240.83,0,0,0,18.39-72.3c30.78-120.86,11.71-248.11-15.07-368.37-11.26-48.93-24.83-97.43-38.29-146.17a6.58,6.58,0,0,1,4.59-8.1,6.6,6.6,0,0,1,8,4.21c16.49,47.74,32.66,95.85,46,144.93,33.55,122.77,54.44,255.15,19.84,380.41a242.51,242.51,0,0,1-43.47,65.39Z" transform="translate(3125.12 154.76)"/><path class="cls-5" d="M-1944.93,1219c-42.4-73.28-184.7-322.23-278.18-197.6-27.54,37.48-42.52,85.94-50.86,131.63-28.93,15.14-54.94,36-78.72,58.39-118.64,113.12-161.78,262.14-166.4,422.16-3.58,93.69-.88,188.47,17.83,280.44,50.92,191.15,287.08,235,457.11,199.24,31.16-5.5,61.43-13.49,92.08-22.33-26.07,19.38-56.1,32.87-86.93,42.9-62.45,19.49-129.12,22.27-193.92,15.23-155.76-17.77-293.36-109.6-307.83-276-14.8-111.91-14-225.29-.14-337.22,16.13-129.18,73.23-255.13,169.55-344.27,24.32-22.45,50.34-43,79.56-58.89,0,0-7,9.57-7,9.5,13.23-65.07,45.63-166.91,120.51-180.61,53.49-7.87,99.07,31.79,133.08,67.15,49.2,53.11,87.56,115,123.18,177.32,8.11,15.52-14,27.8-22.91,13Z" transform="translate(3125.12 154.76)"/><g class="cls-7"><ellipse class="cls-4" cx="-2434.41" cy="986.96" rx="33.34" ry="38.32" transform="translate(3074.21 37.48) rotate(-2.79)"/></g><path class="cls-4" d="M-2171.67,2120.48C-2172,2308-2208,2483.27-2208,2483.27s37.84,49,.62,94c-22.66,27.41-78.43,27.47-78.43,27.47h-157.4s-43-4.14-59.55-51.7c-8.18-23.5-5.11-337.2-14.77-542.74-2.95-62.69-9.4-94.5-14.33-160.42Z" transform="translate(3125.12 154.76)"/><path class="cls-4" d="M-2531.85,1849.92c4.91,65.9,11.38,97.71,14.32,160.4,2.27,48.31,3.84,102.62,5,157.74,3.84,179.27,3.5,367.05,9.75,385,16.55,47.54,59.55,51.68,59.55,51.68h157.4s55.79,0,78.42-27.48c37.26-45-.6-94-.6-94s28.84-140.48,35.12-304.39c.73-19.2,1.17-38.73,1.2-58.39Z" transform="translate(3125.12 154.76)"/><g class="cls-6"><path class="cls-5" d="M-2506,2519.12c.83,18.13,1.9,30,3.24,34,16.55,47.54,59.55,51.68,59.55,51.68h157.4s55.79,0,78.42-27.48c16-19.26,18.13-39.26,15.42-55.81-1,1.37-2,2.73-3.17,4.1-24.53,29.75-57.06,36.37-150,36.37S-2484.91,2552.07-2506,2519.12Z" transform="translate(3125.12 154.76)"/></g><g class="cls-6"><path class="cls-5" d="M-2472.17,1894.75c-23-17.31-55.64,1.25-52.51,29.9,2.89,26.4,5.55,51.43,7.15,85.67,1.72,36.6,3,76.64,4.08,117.87a32.91,32.91,0,0,0,38.73,31.56c70.88-12.71,158.17-12.93,263,9.84a32.89,32.89,0,0,0,39.87-31.62c0-.2,0-.39,0-.59a33.08,33.08,0,0,0-13.16-26.87Z" transform="translate(3125.12 154.76)"/></g><path class="cls-5" d="M-2165.09,2120.49c10.47,122.61-8.13,245-30,365.43l-2.48-10.7a103,103,0,0,1,12.13,21.8c18.09,39.81,2.82,90.75-38.62,108.25-19.79,8.65-39.4,11.75-60.08,12.62-5.52,0-24.06.05-29.92,0-27.36,0-100.85,0-129.12,0-20-2.13-38.59-12.43-52.22-27-10-11-17.62-24.18-21-38.52-4.65-34.54-3.59-77.79-4.94-112.65-3.33-154.17-1.38-338.17-13.92-490.59-3.37-32.36-7.32-65.34-9.68-98.34-.81-16.83,24.28-19.68,26.25-1.88,3.41,48.73,10.87,98,13.63,147.16,7.74,152.69,7.51,338.47,11.15,492.21.84,20.21.74,40.93,3.63,60.44,5.27,15.43,15.66,29,30.16,36.62a58.63,58.63,0,0,0,18.22,6.31l-1.25-.06h129.11c7-.1,24.91.15,31.67-.11,21.66-1.48,45.63-5.28,61.9-19.44a54.76,54.76,0,0,0,15.69-47.41,79.73,79.73,0,0,0-13.64-33.4,13.54,13.54,0,0,1-2.42-10.62c5.71-29.33,10.73-59.35,14.84-89.25,8.12-58.95,13.72-121.1,19.3-180.37,2.95-30.15,5.28-60.33,8.51-90.66.71-7.48,12.37-8.07,13.15.15Z" transform="translate(3125.12 154.76)"/><path class="cls-4" d="M-2181.51,2295.27s-104.89,47.93-326.36-6.19" transform="translate(3125.12 154.76)"/><path class="cls-5" d="M-2312.66,2324.85c-50.87,0-116.48-6.37-197.56-26.18a9.87,9.87,0,0,1-7.24-11.93,9.87,9.87,0,0,1,11.93-7.25c214.71,52.47,318.92,7.26,319.94,6.8a9.88,9.88,0,0,1,13.06,4.91,9.86,9.86,0,0,1-4.88,13.05C-2180.21,2305.53-2224.08,2324.85-2312.66,2324.85Z" transform="translate(3125.12 154.76)"/><path class="cls-4" d="M-2447.51,2468.53s93.68-32.83,207.94.88" transform="translate(3125.12 154.76)"/><path class="cls-5" d="M-2447.51,2468.53c60.51-33.37,147.4-31.72,207.94.87-4.56-.06-9-.36-13.42-.69a1080.19,1080.19,0,0,0-194.52-.18Z" transform="translate(3125.12 154.76)"/><path class="cls-4" d="M-1867,2443s-79.34,15.92-146,11" transform="translate(3125.12 154.76)"/><path class="cls-5" d="M-1865.11,2452.67a730.79,730.79,0,0,1-74.23,5.1c-24.68.43-49.42-.45-73.73-3.74,36.75-.05,73-5.3,108.8-12.54,11.89-2.45,23.9-5.16,35.4-8.21,13.55-3.1,17.52,17.18,3.76,19.39Z" transform="translate(3125.12 154.76)"/><path class="cls-4" d="M-2330.77,1176.92c-322.47,78.84-363.82,282.76-363.82,282.76s-70.79,121.36,21.41,242.73c106.7,140.45,207.36-75.29,207.36-75.29Z" transform="translate(3125.12 154.76)"/><g class="cls-6"><path class="cls-5" d="M-2330.79,1176.92l-45.09,150.37A821.92,821.92,0,0,1-2524.65,1255C-2475.27,1224.52-2411.92,1196.78-2330.79,1176.92Z" transform="translate(3125.12 154.76)"/></g><path class="cls-5" d="M-2597.19,1763.08c-30.82,0-59.87-17.69-86.47-52.71C-2773.58,1592-2715.81,1471.7-2707,1455c2.56-10.56,16.23-59,63.3-115.56,47.47-57,139.76-133.74,309.82-175.32a13.16,13.16,0,0,1,15.91,9.66,13.16,13.16,0,0,1-9.66,15.91c-162.09,39.63-249.73,111.72-294.7,165.22-48.57,57.78-59.24,106.92-59.34,107.41a13.35,13.35,0,0,1-1.53,4c-2.68,4.64-65,115.51,20.52,228.13,23.13,30.45,47.18,44.57,71.43,42,62.2-6.62,113-113.81,113.53-114.89a13.17,13.17,0,0,1,17.49-6.35,13.16,13.16,0,0,1,6.36,17.49c-2.32,5-57.62,121.69-134.55,129.92A80.56,80.56,0,0,1-2597.19,1763.08Z" transform="translate(3125.12 154.76)"/><path class="cls-8" d="M-1947.84,1231.87c148.3,196.88,96.64,384.28,153.83,490.93,0,0,7.22,3.55,10.79-19.11,18.15-115.16-4.28-414.43-128.92-526.77C-1969.71,1088.72-2005,1155.94-1947.84,1231.87Z" transform="translate(3125.12 154.76)"/><path class="cls-9" d="M-1783.23,1703.68c-3.56,22.66-10.8,19.13-10.8,19.13-50-93.35-16.69-248.56-107-417.84a556.9,556.9,0,0,0-46.77-73.1c-57.2-75.93-21.89-143.14,35.68-54.95,28.18,25.39,51.13,60.37,69.6,100.59C-1779.44,1415.19-1769.19,1614.58-1783.23,1703.68Z" transform="translate(3125.12 154.76)"/><path class="cls-10" d="M-1842.54,1277.51c-27-6.73-48.22,14.29-58.51,27.46a556.9,556.9,0,0,0-46.77-73.1c-57.2-75.93-21.89-143.14,35.68-54.95C-1884,1202.31-1861,1237.29-1842.54,1277.51Z" transform="translate(3125.12 154.76)"/><path class="cls-5" d="M-1793,1736.17a15.51,15.51,0,0,1-6.85-1.55,13.11,13.11,0,0,1-5.79-5.6c-22.54-42-28.82-94-36.09-154.29-11.54-95.54-25.89-214.45-116.65-334.94-27.3-36.24-38.44-76.56-27.71-100.33,4.64-10.28,13.27-16.65,23.67-17.45,18.51-1.4,39.33,14.57,60.33,46.28,132.92,121.7,148.23,433.45,131.84,537.45-1.53,9.71-4.73,23.23-14.81,28.47A17.23,17.23,0,0,1-1793,1736.17Zm-167.14-587.92h-.26c-.2,0-.81.06-1.7,2-4.79,10.6-.27,40.46,24.75,73.67h0c95,126.14,109.84,248.94,121.75,347.62,5.33,44.19,10.11,83.76,21.17,116.8,15-126.58-14-400.26-126.55-501.69a13,13,0,0,1-2.21-2.58C-1942.47,1154.53-1956.1,1148.25-1960.11,1148.25Z" transform="translate(3125.12 154.76)"/><path class="cls-4" d="M-1860.14,1718.06s57.15,5.46,76.92-14.37c0,0,75.41,42.06,22.09,109.69-40.94,51.94-151,39-151,39" transform="translate(3125.12 154.76)"/><g class="cls-6"><path class="cls-5" d="M-1912.15,1852.41s110.07,12.92,151-39c27.12-34.45,20.91-62.25,8.26-81.22-3,8.21-7.87,16.9-15.11,26.09-27.86,35.41-87.92,40.64-123.34,40.41Z" transform="translate(3125.12 154.76)"/></g><path class="cls-5" d="M-1882.32,1867a289.41,289.41,0,0,1-31.36-1.55,13.15,13.15,0,0,1-11.53-14.6,13.14,13.14,0,0,1,14.6-11.54c1,.12,103.27,11.4,139.14-34.1,13.17-16.7,18.37-32.7,15.45-47.56-3.53-18-18-31.29-26.8-37.88-26.66,15.73-72.81,11.91-78.57,11.36a13.15,13.15,0,0,1-11.85-14.35,13.16,13.16,0,0,1,14.35-11.85c21.19,2,55.78,0,66.35-10.56l7-7.06,8.7,4.85c1.59.89,39,22.13,46.58,60.2,4.55,22.8-2.37,46.06-20.56,69.14C-1781.58,1860.58-1844.27,1867-1882.32,1867Z" transform="translate(3125.12 154.76)"/><path class="cls-4" d="M-1868.63,1927.4-2204,1942.3a72.5,72.5,0,0,1-75.43-69l-7.92-178.49a72.55,72.55,0,0,1,54.66-73.32,69.77,69.77,0,0,1,14.36-2.11l335.36-14.9a72.44,72.44,0,0,1,75.43,69l6.31,141.36,1.66,37.13A72.5,72.5,0,0,1-1868.63,1927.4Z" transform="translate(3125.12 154.76)"/><path class="cls-4" d="M-1868.63,1927.4-2204,1942.3a72.5,72.5,0,0,1-75.43-69l-7.92-178.49a72.55,72.55,0,0,1,54.66-73.32,69.77,69.77,0,0,1,14.36-2.11l335.36-14.9a72.44,72.44,0,0,1,75.43,69l6.31,141.36,1.66,37.13A72.5,72.5,0,0,1-1868.63,1927.4Z" transform="translate(3125.12 154.76)"/><path class="cls-4" d="M-2287.39,1694.8l3.44,77.47,4.49,101a72.5,72.5,0,0,0,75.42,69l335.41-14.89a72.54,72.54,0,0,0,69-75.43l-1.67-37.13-1.48-33.1-4.82-108.28a72.49,72.49,0,0,0-75.43-69l-335.37,14.91a71.85,71.85,0,0,0-14.38,2.08A72.62,72.62,0,0,0-2287.39,1694.8Z" transform="translate(3125.12 154.76)"/><g class="cls-6"><path class="cls-5" d="M-2283.95,1772.27l4.49,101a72.5,72.5,0,0,0,75.42,69l335.41-14.89a72.54,72.54,0,0,0,69-75.43l-1.67-37.13-1.48-33.1c-10.42,31.81-31.4,71.74-72.21,83-98.79,27.19-150.42-16.49-175.77-102.26,0,0-94.55-25.55-110.28-1.47s-6.74,67.6-27.64,63.81-20.4-73.57-20.4-73.57Z" transform="translate(3125.12 154.76)"/></g><path class="cls-5" d="M-2223.51,1956.29a68.52,68.52,0,0,1-68.33-65.4l-9.45-212.51a68.52,68.52,0,0,1,65.34-71.41l369.38-16.42a68.54,68.54,0,0,1,71.41,65.34l9.44,212.51a68,68,0,0,1-17.92,49.19,68,68,0,0,1-47.41,22.22l-369.38,16.42C-2221.46,1956.27-2222.49,1956.29-2223.51,1956.29Zm2.49-13.21h0Zm357.51-326.28c-.63,0-1.26,0-1.9,0l-369.38,16.41a42.17,42.17,0,0,0-40.2,44l9.44,212.51a42.15,42.15,0,0,0,44,40.21l369.38-16.42a41.85,41.85,0,0,0,29.16-13.69,41.86,41.86,0,0,0,11-30.26l-9.45-212.51A42.17,42.17,0,0,0-1863.51,1616.8Z" transform="translate(3125.12 154.76)"/><path class="cls-4" d="M-2287.39,1694.8l1,23.35,2.22,49.67L-2283,1794l3.54,79.3a71.35,71.35,0,0,0,7.78,29.49,72.48,72.48,0,0,0,67.6,39.53l85.77-5.07a72.58,72.58,0,0,1-75.43-69l-2.83-63.85-.83-18.26-4.25-96.43a72.51,72.51,0,0,1,55.72-73.53l-72.47,3.22A72.53,72.53,0,0,0-2287.39,1694.8Z" transform="translate(3125.12 154.76)"/><path class="cls-11" d="M-2286.37,1718.15l2.22,49.67L-2283,1794l3.54,79.3a71.35,71.35,0,0,0,7.78,29.49,72.48,72.48,0,0,0,67.6,39.53l85.77-5.07a72.58,72.58,0,0,1-75.43-69l-2.83-63.85c-5.7,4.07-12.7,6.33-17.7-1.22-9.91-14.92-16.48-81.27-40-89.07C-2262,1711.47-2273.94,1713.82-2286.37,1718.15Z" transform="translate(3125.12 154.76)"/><path class="cls-5" d="M-2207.3,1955.55a84.81,84.81,0,0,1-57.55-22.46,84.83,84.83,0,0,1-27.74-59.21l-7.93-178.5a84.81,84.81,0,0,1,22.38-61.42,84.89,84.89,0,0,1,59.19-27.76l72.45-3.21,3.6,26a59.19,59.19,0,0,0-45.55,60.16l7.93,178.51a58.67,58.67,0,0,0,19.21,41,58.51,58.51,0,0,0,42.45,15.5c2.07-.09,201-8.94,215.82-9.62l14.07-.68.62,13.24c.4,9.4-5.36,12.32-12.71,13.41v.29l-302.35,14.75C-2204.7,1955.52-2206,1955.55-2207.3,1955.55Zm12.59-324.07-23.07,1a58.71,58.71,0,0,0-40.94,19.23,58.62,58.62,0,0,0-15.5,42.47l7.93,178.53a58.68,58.68,0,0,0,19.21,40.94,58.53,58.53,0,0,0,42.45,15.5l25.48-1.24a84.83,84.83,0,0,1-27.67-59.15l-7.93-178.5A85.22,85.22,0,0,1-2194.71,1631.48Z" transform="translate(3125.12 154.76)"/><path class="cls-9" d="M-2065.33,1774.52c.26,6.6-7,60.26-7,60.26l-37.61,1.45c-25.9,1-47.94-25-49.22-58.08s18.68-60.71,44.58-61.72l37.62-1.45S-2065.75,1763.76-2065.33,1774.52Z" transform="translate(3125.12 154.76)"/><path class="cls-10" d="M-2065.33,1774.52c.26,6.6-7,60.26-7,60.26l-37.61,1.45c-25.9,1-47.94-25-49.22-58.08s18.68-60.71,44.58-61.72l37.62-1.45S-2065.75,1763.76-2065.33,1774.52Z" transform="translate(3125.12 154.76)"/><path class="cls-5" d="M-2111.39,1846.13c-14.94,0-29-7-39.89-19.78-10.72-12.64-17-29.63-17.71-47.82s4.25-35.61,14-49c10.24-14.17,24.48-22.3,40.1-22.91l33.12-1.28a15.27,15.27,0,0,1,15.5,11.91c3.9,17.35,10.49,47.81,10.84,56.94.18,4.47-2,23.79-6.44,57.43a15.24,15.24,0,0,1-14.56,13.25l-33.06,1.28Zm26.63-121-29.4,1.14c-9.43.36-18.26,5.6-24.87,14.74-7.13,9.88-10.77,22.92-10.23,36.73s5.16,26.53,13,35.82c7.29,8.61,16.52,13.17,25.93,12.78l29.3-1.13c4.06-31,5.84-47.56,5.79-50.36C-2075.4,1769.81-2079.12,1750.5-2084.76,1725.16Z" transform="translate(3125.12 154.76)"/><ellipse class="cls-9" cx="-2074.61" cy="1774.88" rx="46.93" ry="59.94" transform="translate(3054.95 75.89) rotate(-2.22)"/><path class="cls-10" d="M-2121.51,1776.7c1.27,33.07,23.31,59.09,49.2,58.09s45.89-28.64,44.59-61.74a72.44,72.44,0,0,0-1.65-13c-5.78,23-22.31,39.83-42.43,40.58-22.36.86-41.88-18.41-47.55-45.05A75.16,75.16,0,0,0-2121.51,1776.7Z" transform="translate(3125.12 154.76)"/><path class="cls-4" d="M-2121.51,1776.7a63,63,0,0,0,.58,6.65c4.14-26.12,21.8-46,43.68-46.83,24.13-.91,45,21.61,48.63,51.48a76.71,76.71,0,0,0,.9-15C-2029,1740-2051,1714-2076.92,1715S-2122.77,1743.6-2121.51,1776.7Z" transform="translate(3125.12 154.76)"/><path class="cls-5" d="M-2073.78,1844.68c-14.94,0-29-7-39.89-19.78s-17-29.63-17.7-47.82,4.25-35.62,14-49c10.23-14.17,24.47-22.31,40.1-22.91,31.3-1.3,58,29.1,59.46,67.56h0c1.49,38.47-22.77,70.75-54.06,72C-2072.54,1844.67-2073.16,1844.68-2073.78,1844.68Zm-1.69-119.86-1.08,0c-9.43.37-18.26,5.6-24.86,14.75-7.14,9.87-10.77,22.92-10.24,36.72s5.17,26.53,13.05,35.83c7.29,8.6,16.51,13.1,25.92,12.77,20.42-.79,36.17-23.87,35.1-51.46C-2038.63,1746.34-2055.52,1724.82-2075.47,1724.82Z" transform="translate(3125.12 154.76)"/><path class="cls-5" d="M-1973,1940.62a9.87,9.87,0,0,1-9.86-9.67l-2.1-101.11a52.22,52.22,0,0,1,22.53-44.12l17.86-12.37a32.45,32.45,0,0,0,14-28.14l-5.67-138.31a9.87,9.87,0,0,1,9.46-10.26,9.88,9.88,0,0,1,10.27,9.45l5.66,138.31a52.09,52.09,0,0,1-22.5,45.18l-17.86,12.37a32.53,32.53,0,0,0-14,27.48l2.1,101.11a9.89,9.89,0,0,1-9.67,10.08Z" transform="translate(3125.12 154.76)"/><path class="cls-4" d="M-2536,1727.94s82.71,11.35,249.12,6.73c0,0,50.76,1.58,55.21,52,4.72,53.55-49.42,71.59-49.42,71.59s-142.21,26.68-247.57-17.47C-2592.72,1814-2536,1727.94-2536,1727.94Z" transform="translate(3125.12 154.76)"/><path class="cls-4" d="M-2528.7,1840.8c105.34,44.16,247.55,17.5,247.55,17.5s51.78-17.28,49.64-68.09c0-1.16-.11-2.32-.22-3.53-4.44-50.43-55.21-52-55.21-52-45.88,1.27-85.43,1.35-118.62.75-87.12-1.54-130.5-7.48-130.5-7.48S-2592.72,1814-2528.7,1840.8Z" transform="translate(3125.12 154.76)"/><g class="cls-6"><path class="cls-5" d="M-2528.7,1840.8c105.34,44.16,247.55,17.5,247.55,17.5s51.78-17.28,49.64-68.09c-25.65,15.74-70,35.34-120.24,25-42.66-8.79-53.7-44.92-53.81-79.76-87.12-1.54-130.5-7.48-130.5-7.48S-2592.72,1814-2528.7,1840.8Z" transform="translate(3125.12 154.76)"/></g><path class="cls-5" d="M-2379.47,1879.54c-47.49,0-104.5-5.71-154.33-26.59-18.48-7.75-30.51-20.37-35.74-37.53-12.47-40.93,21.07-92.54,22.5-94.72a13.19,13.19,0,0,1,12.78-5.8c.82.12,83.88,11.13,247,6.61h.78c21.59.68,63.58,14.92,67.91,64,4.45,50.54-36.23,77.85-58.37,85.23a13.34,13.34,0,0,1-1.73.45C-2281.92,1871.82-2324.26,1879.54-2379.47,1879.54ZM-2529.15,1742c-8.77,15.73-21.48,45.22-15.19,65.78,2.88,9.42,9.66,16.25,20.72,20.88,95.94,40.21,226.49,19,239.08,16.85,6-2.28,43.21-18,39.71-57.67-3.26-36.94-38.17-39.81-42.19-40C-2424,1751.64-2503.89,1744.74-2529.15,1742Z" transform="translate(3125.12 154.76)"/><path class="cls-8" d="M-2376.2,1232.57c52.69,70.5,316.45,531.67-148.48,692.08,0,0-46.46-63.53-8.76-120,171.43-80.24,283.28-224.48,56.33-567.4,0,0-4.27-47.8,51.4-47.8S-2376.2,1232.57-2376.2,1232.57Z" transform="translate(3125.12 154.76)"/><path class="cls-9" d="M-2524.69,1924.64s-46.44-63.53-8.76-119.93c157.2-73.61,264.3-201,106-486q-21.5-38.73-49.67-81.39s-4.26-47.79,51.42-47.79,49.49,43.06,49.49,43.06c12.62,16.88,37.35,56.19,61.31,108.41C-2239,1506.76-2171.1,1802.67-2524.69,1924.64Z" transform="translate(3125.12 154.76)"/><path class="cls-10" d="M-2314.9,1341c-37.31-30.88-83.35-28.4-112.55-22.29q-21.5-38.73-49.67-81.39s-4.26-47.79,51.42-47.79,49.49,43.06,49.49,43.06C-2363.59,1249.44-2338.86,1288.75-2314.9,1341Z" transform="translate(3125.12 154.76)"/><path class="cls-5" d="M-2524.68,1937.81a13.15,13.15,0,0,1-10.62-5.39c-2.12-2.9-51.41-71.69-9.09-135a13.25,13.25,0,0,1,5.37-4.61c93.71-43.86,148.71-98.76,168.13-167.81,26.63-94.68-12.8-222.66-117.2-380.41a13.14,13.14,0,0,1-2.13-6.09c-.23-2.55-1.76-25.44,14.55-43.26,11.45-12.52,28.26-18.88,50-18.88,22.79,0,39.92,6.43,50.9,19.1,10.23,11.8,11.95,25.44,12,33.12,48.62,67.4,163.35,283.6,106.46,468.6-34,110.49-122.8,191.22-264,239.94A13,13,0,0,1-2524.68,1937.81Zm.29-122.83c-22.28,36.83-4.47,76.89,5.2,93.77,127.13-46.1,207.07-119.86,237.66-219.34,55.75-181.31-68.81-400.25-105.22-449a13.15,13.15,0,0,1-2.5-9.61c.05-.48,1.06-10.85-5.6-18.35-5.8-6.53-16.18-9.83-30.86-9.83-13.89,0-24.12,3.41-30.39,10.15s-7.64,15.9-7.88,20.5c108.71,165.18,147.44,295.65,118.43,398.78C-2366.92,1708.07-2425.44,1767.93-2524.39,1815Z" transform="translate(3125.12 154.76)"/><path class="cls-4" d="M-2662.89,1572.23c65.23-55.13,107-56.93,150.21-84.68,47.25-30.37,59.95-58.22,123-69.24,13.05-2.28,19.22,48.85,28.77,50.79,27.19,5.51,63.62,13.68,88,32.58,25.22,19.53,50.94,49.61,41.41,96.92,10.84,68.46-11.06,146.57-61,141.34-42.46-4.45-50.27,17.68-105.73,22.25-106.23,125.87-216.48,121.94-288.14,65.5-103.43-81.47-110.28-346.08,105.64-532.55Z" transform="translate(3125.12 154.76)"/><path class="cls-4" d="M-2292.46,1739.94c-42.44-4.44-50.26,17.67-105.71,22.25-106.23,125.87-216.49,121.94-288.13,65.5-47.24-37.2-74.37-112.63-69.31-201.36v0c6.07-105.53,57.67-229.86,175-331.14l-82.22,277.07c65.2-55.13,107-56.91,150.19-84.66,47.24-30.37,60-58.22,123-69.24,13-2.29,19.23,48.84,28.76,50.76,27.2,5.53,63.64,13.71,88,32.59,12,9.27,24,20.91,32.41,35.6,9.31,16.33,14,36.44,9,61.31C-2220.6,1667.06-2242.49,1745.17-2292.46,1739.94Z" transform="translate(3125.12 154.76)"/><g class="cls-6"><path class="cls-5" d="M-2292.46,1739.94c-42.44-4.44-50.26,17.67-105.71,22.25-106.23,125.87-216.49,121.94-288.13,65.5-47.24-37.2-74.37-112.63-69.31-201.36,2.91,9.24,7,16.58,12.8,17.09,16.07,1.38,27-22.51,45.82-40.4,0,0-32.73,168,81.31,198.78,81.61,22,152.59-28.41,132.3-86.48,0,0,69.93,14.47,111.94-.33s62.54-5.45,84-12.33c28-8.94,36.81-71.06,25.61-111.53,0,0,24.8-18.11,21.42-53.86,9.31,16.33,14,36.44,9,61.31C-2220.6,1667.06-2242.49,1745.17-2292.46,1739.94Z" transform="translate(3125.12 154.76)"/></g><path class="cls-5" d="M-2662.89,1572.23a269.23,269.23,0,0,1,56.5-47.81c21-13.53,44.19-23.31,64.84-34.14,20.69-10.61,38.46-24.82,57.18-40.29,9.38-7.73,19.33-15.86,30.61-22.88,18.21-11.54,38.9-18.51,59.91-22.5,28.4-5.47,31.88,35.14,40.94,52.17.38.76.86,1.33.48.85a8.12,8.12,0,0,0-2.55-1.93,10.13,10.13,0,0,0-2.9-1l.14,0,1.14.22c33.47,6.34,67.66,14.25,95.52,35.88,35,26.28,55.34,66.78,45.56,111l.12-5.75c8.37,50.72,1.1,141.32-58.61,158.13-12.54,3.45-25.24-.42-37.19.87-16.77,2-30.21,9.77-48.24,14.49a186.85,186.85,0,0,1-37.66,5.76l9-4.63c-44.93,53.51-107.35,102.22-180,107.26-52.63,4.06-106.24-17.06-142.73-55.06-28.66-30.79-44.54-70.59-52.45-111-29.29-160.85,53.59-323.86,174.06-426.67,13.52-11,30,8.18,17.21,19.92-113.77,97.19-192.67,250.33-165.42,401.74,6.91,35.71,21,71.43,45.79,98,30.73,32,77.14,50.41,121.66,46.82,65.93-5.11,120-48.82,161.8-98a13.15,13.15,0,0,1,9-4.63c23.91-2.4,41.23-10.13,64.31-19.35a99.08,99.08,0,0,1,40.74-5.43c6.2.45,7.61.57,12.55-.54,37.57-13.64,39.88-88.74,34.14-122.67a16.42,16.42,0,0,1,.13-5.69,76.16,76.16,0,0,0,.45-29.86c-4-20.33-17.5-36.84-33.88-50-23.22-18.63-54.51-25.43-83.38-32.11-9.59-2.18-14.19-11-17.21-18.52-4.82-11.7-7.26-24.54-13-34.33a7.29,7.29,0,0,0,2,1.2,9.37,9.37,0,0,0,4.1.7,6.37,6.37,0,0,0,1.07-.12l-.42.08-1.05.2-4.19.79c-16.39,3-32.36,8.4-46.61,17-20,12-38,29.5-58.28,42.46-4,2.64-12.3,7.55-16.47,9.9-16.24,8.74-34.79,15.56-51.71,21.68-34.36,12.1-65.81,27.91-96.9,47.74Z" transform="translate(3125.12 154.76)"/><path class="cls-4" d="M-1535.14,780a600.94,600.94,0,0,1-119.54,281.92,614.32,614.32,0,0,1-42.87,49.77c-7.43,7.8-15.19,15.44-23.15,23a616.54,616.54,0,0,1-76.15,61,614.56,614.56,0,0,1-70.93,41.64,616.55,616.55,0,0,1-90.51,36.67q-16.9,5.28-34,9.65c-208.5,52.88-438.51-3.71-596.91-167.87-233.39-241.77-222.9-625.31,23.31-856.65a617.34,617.34,0,0,1,156.12-107c6.5-3.19,13.13-6.2,19.8-9.07q26.72-11.7,54.19-20.76a622.42,622.42,0,0,1,129.67-27.78,624.09,624.09,0,0,1,131.7,0q20.83,2.2,41.53,5.81a612.05,612.05,0,0,1,61.5,14,608.45,608.45,0,0,1,274,163.64C-1563.12,417.06-1509.59,603-1535.14,780Z" transform="translate(3125.12 154.76)"/><path class="cls-5" d="M-2145.61,1304.09c-166.09,0-327.57-66.22-444.52-187.43-112.67-116.71-172.55-270-168.61-431.47,4-162.82,72.14-314.48,192-427.07a618.51,618.51,0,0,1,156.45-107.24c6.23-3.06,12.73-6,19.85-9.1,17.75-7.77,36-14.77,54.3-20.8a623.94,623.94,0,0,1,129.94-27.83,626.07,626.07,0,0,1,132,0c14.05,1.48,28,3.44,41.62,5.82A621.22,621.22,0,0,1-1971,113.07a612.06,612.06,0,0,1,274.56,164c130,134.71,189.32,318.08,162.6,503.08a604.45,604.45,0,0,1-119.8,282.54,619.68,619.68,0,0,1-43,49.88c-6.88,7.22-14.47,14.76-23.19,23a621.65,621.65,0,0,1-76.33,61.14,615.56,615.56,0,0,1-71.08,41.72,618.45,618.45,0,0,1-90.7,36.75c-11.25,3.51-22.7,6.77-34,9.67A624.69,624.69,0,0,1-2145.61,1304.09Zm5.23-1211.76a624,624,0,0,0-65.57,3.45,621.26,621.26,0,0,0-129.39,27.72c-18.2,6-36.39,13-54.07,20.71-7.09,3-13.55,6-19.76,9A616.1,616.1,0,0,0-2565,260.05c-119.3,112.1-187.18,263.11-191.14,425.21-3.92,160.8,55.7,313.36,167.87,429.57,152.33,157.86,380.56,222.05,595.63,167.5,11.31-2.9,22.72-6.14,33.91-9.64a614.69,614.69,0,0,0,90.31-36.59,612.63,612.63,0,0,0,70.78-41.54,618.12,618.12,0,0,0,76-60.87c8.68-8.25,16.24-15.76,23.1-23a622,622,0,0,0,42.78-49.67,601.85,601.85,0,0,0,119.27-281.3l1.31.19-1.31-.19c26.6-184.19-32.41-366.74-161.89-500.86a609.34,609.34,0,0,0-273.38-163.29,615.16,615.16,0,0,0-61.37-14c-13.51-2.37-27.45-4.32-41.44-5.8A623.8,623.8,0,0,0-2140.38,92.33Z" transform="translate(3125.12 154.76)"/><g class="cls-6"><path class="cls-5" d="M-2589.18,1115.73c158.39,164.19,388.43,220.77,596.92,167.86q17.09-4.35,34-9.64a617.21,617.21,0,0,0,90.52-36.65,618.58,618.58,0,0,0,70.93-41.63,617.46,617.46,0,0,0,76.18-61c7.93-7.58,15.69-15.2,23.15-23a625.72,625.72,0,0,0,42.85-49.8,600.75,600.75,0,0,0,119.54-281.93,601.09,601.09,0,0,0,.82-166.35A600.82,600.82,0,0,1-1651.7,881.68a610.77,610.77,0,0,1-42.85,49.8c-7.41,7.79-15.18,15.41-23.15,23a620.29,620.29,0,0,1-76.14,61,622,622,0,0,1-70.93,41.63,620.06,620.06,0,0,1-90.51,36.66q-16.93,5.28-34,9.63c-208.48,52.91-438.49-3.67-596.92-167.86-92.44-95.76-146.58-213.76-163-335.7C-2779.73,780.92-2726.95,973-2589.18,1115.73Z" transform="translate(3125.12 154.76)"/></g><path class="cls-5" d="M-2145.6,1313c-168.47,0-332.28-67.18-450.92-190.13-114.33-118.44-175.1-273.94-171.1-437.85,4-165.21,73.2-319.11,194.77-433.33a627.45,627.45,0,0,1,158.69-108.78c6.3-3.09,12.93-6.12,20.19-9.24,17.94-7.86,36.48-15,55-21.08a633,633,0,0,1,131.8-28.23,634.3,634.3,0,0,1,133.84,0c14.24,1.51,28.45,3.49,42.22,5.91a629.21,629.21,0,0,1,62.52,14.27A621,621,0,0,1-1690,270.91c132,136.69,192.11,322.77,165,510.51h0a613.46,613.46,0,0,1-121.56,286.7,630.08,630.08,0,0,1-43.58,50.6c-7,7.3-14.66,14.94-23.49,23.33a631.69,631.69,0,0,1-77.45,62,626.17,626.17,0,0,1-72.09,42.31,629.42,629.42,0,0,1-92,37.28c-11.41,3.56-23,6.86-34.52,9.8A633.8,633.8,0,0,1-2145.6,1313Zm5.22-1211.76a614.08,614.08,0,0,0-64.63,3.41,612.46,612.46,0,0,0-127.56,27.32c-17.93,5.91-35.85,12.78-53.28,20.42-7,3-13.34,5.91-19.41,8.88a607.15,607.15,0,0,0-153.63,105.3C-2676.44,377-2743.33,525.76-2747.22,685.47c-3.87,158.42,54.87,308.71,165.38,423.19,150.13,155.58,375.07,218.83,587.06,165.06,11.14-2.85,22.4-6,33.45-9.5a608.56,608.56,0,0,0,89-36,606,606,0,0,0,69.75-40.94,611.34,611.34,0,0,0,74.92-60c8.54-8.12,16-15.52,22.75-22.61a609.53,609.53,0,0,0,42.18-49A592.78,592.78,0,0,0-1545.24,778.5c26.2-181.45-31.93-361.3-159.48-493.42a600.46,600.46,0,0,0-269.4-160.91,605.85,605.85,0,0,0-60.5-13.81c-13.31-2.34-27.05-4.26-40.84-5.72A614.36,614.36,0,0,0-2140.38,101.2ZM-1535.14,780h0Z" transform="translate(3125.12 154.76)"/><path class="cls-5" d="M-2145.6,1315.92c-169.26,0-333.85-67.5-453.05-191-114.89-119-175.95-275.27-171.93-440,4-166,73.55-320.63,195.7-435.41A630.42,630.42,0,0,1-2415.43,140.2c6.31-3.1,13-6.15,20.29-9.29,18-7.89,36.63-15,55.26-21.17a635.74,635.74,0,0,1,132.42-28.36,637.58,637.58,0,0,1,134.47,0c14.3,1.51,28.57,3.51,42.41,5.93a629.64,629.64,0,0,1,62.82,14.35,623.76,623.76,0,0,1,279.85,167.16c132.61,137.36,193,324.34,165.8,513h0a616.39,616.39,0,0,1-122.15,288.09,634.2,634.2,0,0,1-43.79,50.83c-7,7.34-14.72,15-23.59,23.43a632.36,632.36,0,0,1-77.82,62.36,630.38,630.38,0,0,1-72.43,42.51,631,631,0,0,1-92.44,37.45c-11.47,3.58-23.13,6.89-34.68,9.85A636.78,636.78,0,0,1-2145.6,1315.92Zm5.22-1211.76a611,611,0,0,0-64.32,3.39,609.6,609.6,0,0,0-126.94,27.19c-17.84,5.88-35.68,12.72-53,20.31-7,3-13.26,5.88-19.29,8.84a604.31,604.31,0,0,0-152.9,104.79c-117,109.91-183.53,258-187.4,416.86-3.85,157.62,54.59,307.16,164.55,421.06,149.39,154.82,373.24,217.76,584.2,164.25,11.08-2.83,22.3-6,33.29-9.45a603.7,603.7,0,0,0,88.54-35.88,602.53,602.53,0,0,0,69.42-40.74,607.07,607.07,0,0,0,74.55-59.72c8.5-8.07,15.92-15.44,22.64-22.49a607.55,607.55,0,0,0,42-48.74,589.81,589.81,0,0,0,116.92-275.75c26.07-180.54-31.77-359.48-158.68-490.95A597.52,597.52,0,0,0-1974.92,127a603,603,0,0,0-60.22-13.75c-13.24-2.32-26.91-4.24-40.63-5.69A611.31,611.31,0,0,0-2140.38,104.16ZM-1535.14,780h0Z" transform="translate(3125.12 154.76)"/><path class="cls-5" d="M-1577.15,929.79c-250.11,357.11-771.49,361.52-946.53-30.26C-2642.77,633-2469.54,310.92-2202.1,213.27c194.65-71.08,415.79-56.63,608.77,210.64,0,0,66.83,131.42,63.44,236.64s-24.7,207.08-24.7,207.08Z" transform="translate(3125.12 154.76)"/><path class="cls-12" d="M-2523.66,899.52c175,391.78,696.42,387.36,946.52,30.29l4.56-12.61c-346.78,202.72-799.19,120.81-983.65-272C-2569.35,729.73-2560.4,817.26-2523.66,899.52Z" transform="translate(3125.12 154.76)"/><path class="cls-5" d="M-2072,1271.25c-70.57,0-140-11.93-204.89-36-142.65-52.93-252.58-158.19-317.93-304.39-60-134.25-58.86-288.94,3.17-435.56,68.93-162.91,205.67-295.08,365.79-353.55,89-32.5,174.95-46.13,255.47-40.54l1.34.09,1.31.37a623.8,623.8,0,0,1,279.88,167.17c132.61,137.36,193,324.34,165.8,513h0a616.39,616.39,0,0,1-122.15,288.09,634.2,634.2,0,0,1-43.79,50.83c-7,7.34-14.72,15-23.59,23.44a633.21,633.21,0,0,1-77.82,62.35l-1.79,1C-1881.11,1249.86-1977.56,1271.25-2072,1271.25ZM-2006,126.32c-67,0-137.8,13.46-210.93,40.16-153.38,56-284.44,182.77-350.57,339.09-59.15,139.82-60.35,287.05-3.37,414.56,62.39,139.6,167.18,240,303,290.45,144.79,53.73,314,44.1,464.39-26.4a607.36,607.36,0,0,0,73.68-59.12c8.5-8.07,15.92-15.44,22.64-22.49a607.55,607.55,0,0,0,42-48.74,589.81,589.81,0,0,0,116.92-275.75c26.07-180.54-31.77-359.48-158.68-490.95a597.45,597.45,0,0,0-266.77-159.74Q-1989.62,126.31-2006,126.32ZM-1535.14,780h0Z" transform="translate(3125.12 154.76)"/><path class="cls-5" d="M-2068.22,1208.79q-26.45,0-52.92-2.52c-185.83-17.79-336.93-127.63-414.56-301.37-53.53-119.82-52.53-257.85,2.82-388.67,61.48-145.3,183.44-263.18,326.27-315.32,246-89.84,455.94-17.4,624,215.3l1.06,1.73c2.79,5.49,68.33,135.67,64.86,243-3.39,105.16-24.75,208.33-25,209.35l-.51,1.8-23.15,63.8-1,1.42C-1685.87,1108-1874.48,1208.79-2068.22,1208.79Zm56.41-1018.5q-88.89,0-185.77,35.34c-136.09,49.69-252.38,162.16-311.06,300.86-52.47,124-53.54,254.59-3,367.67,73.65,164.84,216.9,269.05,393,285.9,201.87,19.34,404.68-78.89,529.71-256.4l21.63-59.61c2.08-10.25,21.1-106.28,24.24-203.92,3.11-96.3-55.87-217.86-61.58-229.38C-1720.47,270.69-1856.9,190.29-2011.81,190.29Zm434.66,739.5h0Z" transform="translate(3125.12 154.76)"/><path class="cls-4" d="M-2814.23,812.78c17.59,118.19,103.15,207,191.12,198.35s145-111.49,127.43-229.69c-.09-.74-.23-1.52-.37-2.27-18.31-117.06-103.4-204.69-190.75-196.09-68,6.69-117.46,69.59-128.37,152.33A279.54,279.54,0,0,0-2814.23,812.78Z" transform="translate(3125.12 154.76)"/><g class="cls-6"><path class="cls-5" d="M-2814.23,812.78c17.59,118.19,103.15,207,191.12,198.35s145-111.49,127.43-229.69c-.09-.74-.23-1.52-.37-2.27-7.86,13.08-21.14,26.51-42.13,24.49-36.77-3.55-112.19-73.25-112.19-73.25s-71.48,1.71-164.8,5A279.54,279.54,0,0,0-2814.23,812.78Z" transform="translate(3125.12 154.76)"/></g><path class="cls-5" d="M-2634.82,1024.86c-90,0-174.71-91-192.45-210.14h0c-10.73-72.13,4.46-140.86,41.67-188.57,25.74-33,59.45-52.42,97.49-56.16,94.72-9.34,186.87,84.66,205.45,209.5,10.73,72.13-4.45,140.86-41.67,188.57-25.74,33-59.45,52.42-97.49,56.16Q-2628.33,1024.87-2634.82,1024.86Zm-166.41-214C-2784.68,922-2705.36,1006-2624.4,998c30.69-3,58.12-19,79.32-46.16,32.32-41.44,45.92-104.43,36.38-168.5-16.55-111.18-95.84-195.16-176.83-187.19-30.69,3-58.11,19-79.31,46.16C-2797.16,683.77-2810.77,746.77-2801.23,810.84Z" transform="translate(3125.12 154.76)"/><ellipse class="cls-4" cx="-2706.67" cy="807.96" rx="120.45" ry="176.71" transform="translate(2903.46 -380.25) rotate(-11.77)"/><g class="cls-6"><path class="cls-5" d="M-2680,982.35c-66.52,6-132.34-67.16-147.07-163.5a254.19,254.19,0,0,1-2.83-30.82c27.48,63.77,78.73,106.1,130.43,101.36,58.38-5.35,98.18-69,97.8-149a258.18,258.18,0,0,1,15.39,56.62C-2571.53,893.38-2613.51,976.32-2680,982.35Z" transform="translate(3125.12 154.76)"/></g><path class="cls-5" d="M-2687.49,995.85c-70.14,0-137.46-76.16-152.57-175-9.34-61.08,3-120.45,33.06-158.81,19.3-24.65,44.37-39,72.49-41.57,73.14-6.67,145.51,71.7,161.24,174.6,9.34,61.09-3,120.46-33.06,158.81-19.31,24.66-44.37,39-72.49,41.58Q-2683.15,995.85-2687.49,995.85Zm-126.55-179c13.67,89.42,73.27,157.74,132.85,152.37,20.7-1.87,39.42-12.79,54.14-31.59,25.65-32.74,36-84.56,27.76-138.6-13.67-89.41-73.27-157.76-132.85-152.37-20.7,1.88-39.42,12.8-54.14,31.59-25.65,32.75-36,84.56-27.76,138.6Z" transform="translate(3125.12 154.76)"/><g class="cls-7"><path class="cls-4" d="M-2302.39,363.38s267.7-79.09,466.62,16.64l.63.3a260,260,0,0,1,103,89.54c33.94,50.69,49.77,90.56,62.33,126.2,38.16,108.39,35.45,166.33,35.45,166.33,42.45-79,54.85-156.23,24-246.84q-4.61-13.38-10.45-27.22c-.89-2.13-1.82-4.22-2.79-6.31,0,0,0-.07-.07-.11a638.27,638.27,0,0,0-39.15-66.58c-51-75.77-137.26-167.76-261.1-181.39C-2155.5,208.44-2315.45,355.2-2302.39,363.38Z" transform="translate(3125.12 154.76)"/></g><g class="cls-7"><ellipse class="cls-4" cx="-2404.26" cy="698.15" rx="82.14" ry="94.35" transform="translate(3074.88 0.6) rotate(-3.71)"/></g><g class="cls-7"><ellipse class="cls-4" cx="-2391.71" cy="869.11" rx="38.97" ry="33.9" transform="translate(-67.74 -1391.45) rotate(-88.38)"/></g><path class="cls-4" d="M-2462.72,1488.58s81-18.94,127.87-13.67" transform="translate(3125.12 154.76)"/><path class="cls-5" d="M-2462.72,1488.59c42-13.28,84.64-26.17,129.34-26.77l-2.94,26.17c-41.24-7.77-84.63-3.72-126.4.6Z" transform="translate(3125.12 154.76)"/><path class="cls-5" d="M-2475.82,1729.14c13.9,10.09,30.66,15.06,47.28,17.72,16.67,2.48,33.46,1.81,50-.44,17.52-1.4,20.36,24,2.93,26.45-36.48-3-75.58-15.56-100.25-43.73Z" transform="translate(3125.12 154.76)"/><path class="cls-5" d="M-2693.33,1834.63c-53-53.52-68.54-143.84-37.87-219.63,27.2-67.19,84.84-106.63,158.16-108.2l.43,19.73c-65.06,1.4-116.19,36.35-140.29,95.88-27.36,67.6-13.23,151,33.6,198.33Z" transform="translate(3125.12 154.76)"/></g></svg>