<svg id="Layer_23" data-name="Layer 23" xmlns="http://www.w3.org/2000/svg" viewBox="0 0 2950.85 3154.94"><defs><style>.cls-1{fill:#fff;}.cls-2{opacity:0.3;}.cls-3{fill:#371a45;}.cls-4{fill:#6d6c80;}.cls-5{opacity:0.5;}.cls-6{fill:#5e4c80;}.cls-17,.cls-7{fill:none;stroke-linecap:round;stroke-miterlimit:10;}.cls-7{stroke:#fff;stroke-width:35.7px;}.cls-8{fill:#d8d8d8;}.cls-9{fill:#22a7f0;}.cls-10{fill:#1c7aea;}.cls-11{opacity:0.7;}.cls-12{fill:#f53b6b;}.cls-13{fill:#220f2d;}.cls-14{opacity:0.25;}.cls-15{fill:#ffb200;}.cls-16{fill:#ff9100;}.cls-17{stroke:#293856;stroke-width:4.08px;}.cls-18{fill:#d66b09;}.cls-19{fill:#ffd766;}.cls-20{fill:#ffaa39;}.cls-21{fill:#ffcf6e;}.cls-22{fill:#ffec90;}.cls-23{opacity:0.41;}</style></defs><path class="cls-1" d="M920.31,2197.31s64.05-2.1,149.71-11.8c16.76-2,34.33-4.16,52.41-6.66,2.86-.33,5.72-.77,8.58-1.2,8.63-1.24,17.41-2.54,26.25-3.94,126.89-20.16,268-56.94,322-123.39,88.23-108.6,79.29-617.43-13.79-814.86-24.5-52-99.57-84.32-185.32-104.38-.57-.15-1.18-.25-1.75-.4-63-14.62-131.53-22.65-189.91-27.09-5.17-.41-10.28-.78-15.25-1.1-10-.68-19.59-1.22-28.74-1.71-7.11-.35-14-.7-20.52-1-46.69-2-77.47-1.51-77.47-1.51L943.94,1205l-1.29,54.41-2.46,100.9-.72,30.53Z" transform="translate(986.43 224.27)"/><g class="cls-2"><path class="cls-3" d="M944,1205l-1.31,54.39-17.71,744.69-4.59,193.19,3.88-.15c.72,0,1.58-.08,2.49-.11.72-.05,1.53-.08,2.35-.12.62,0,1.24,0,1.86-.06.24,0,.53,0,.77,0,1.15-.06,2.44-.11,3.79-.21a5.75,5.75,0,0,0,.91,0l3.49-.18c1.68-.07,3.41-.18,5.23-.29,1.3-.1,2.68-.14,4.07-.23l4.37-.27c1.87-.1,3.84-.25,5.85-.34,4.08-.28,8.39-.55,13-.89,4-.24,8.26-.56,12.67-.91,5.09-.4,10.42-.78,15.94-1.25,20.42-1.69,43.78-3.89,69-6.76,4.91-.56,9.92-1.15,15-1.75,3.51-.41,7.13-.87,10.74-1.33,8.72-1.09,17.69-2.27,26.71-3.53,134.84-18.73,297.73-55.93,356.74-128.54,72.71-89.39,79.5-450.2,27.63-685.11,16.91,205.62-.4,427.08-55.21,494.45-27.09,33.31-79.6,59-141.8,78.95-26.49,8.48-51.68-15.69-45.06-42.71l.15-.65c11.95-49.57,18.33-106,15.79-172-5.45-141.48-33.36-344.26-193.38-502.9C1083.55,1216.55,1020.39,1211.08,944,1205Z" transform="translate(986.43 224.27)"/></g><path class="cls-3" d="M904.75,2213l26.9-1129.72,14.62-.2c18.8-.27,462.1-4.53,533,145.85,96.63,205.1,103.89,717.66,11.77,831-110.5,135.91-551.47,152-570.19,152.57Zm56.56-1099.65-25.43,1068c80.71-4.21,440.85-29.08,531.56-140.65,38.06-46.81,60.72-189.8,57.72-364.29-3.05-178.45-31.18-345-73.4-434.58C1401.77,1135.8,1093.87,1113.43,961.31,1113.37Z" transform="translate(986.43 224.27)"/><path class="cls-1" d="M1458,1674l-183.6,17.88a36.12,36.12,0,0,0-32.22,30.29c-9.42,59.57-24,198.27,34.68,242.67,48.74,36.85,126.41,30.68,171.13-8.9,50-44.28,52-180,49.69-247.18A36.18,36.18,0,0,0,1458,1674Z" transform="translate(986.43 224.27)"/><g class="cls-2"><path class="cls-3" d="M1242.18,1722.18c-9.45,59.55-24,198.26,34.69,242.64,48.75,36.86,126.4,30.69,171.14-8.9,30.74-27.25,43.33-89.1,47.92-148.27-7.63,29.68-20.11,53.92-35.94,70-90.69,92.11-162.24-12.54-162.24-12.54s-11.44,26.05-21,27.73c-39.88,7-34.38-118.48-30-183.33A34.83,34.83,0,0,0,1242.18,1722.18Z" transform="translate(986.43 224.27)"/></g><path class="cls-3" d="M1355.14,2008.16c-32.44,0-64.49-9.34-89.62-28.34-64.6-48.84-54-184.24-41.92-260.59a54.94,54.94,0,0,1,49-46.06l183.6-17.88a55,55,0,0,1,60.28,52.81c3.24,94-3.85,215.73-56,261.9C1431.9,1995.26,1393.26,2008.16,1355.14,2008.16Zm104.67-315.46-183.6,17.88a17.35,17.35,0,0,0-15.48,14.52c-18,114.08-7.77,198.1,27.46,224.74,40.42,30.57,107.91,26.91,147.34-8,31.21-27.63,47.41-114.53,43.35-232.46a17.37,17.37,0,0,0-19.07-16.69Z" transform="translate(986.43 224.27)"/><path class="cls-3" d="M1361.58,2003.68c-75.23-47.45-82.12-148.52-70.2-228.33a110.83,110.83,0,0,1,4-16.33,5,5,0,0,1,9.51,2.73c-4.15,19.82-3.27,41.18-2.08,61.45,1.37,20.52,4,40.7,9.14,60.51,9,32.93,25.9,63.77,53.41,83.78a60.13,60.13,0,0,0,10.35,6.17c19.52,9.77,5.91,38.87-14.15,30Z" transform="translate(986.43 224.27)"/><path class="cls-3" d="M1186.12,1219.66c67.8-9.85,135.73-17.08,204.37-17.31,23,.14,46.2.92,69.87,4.51a15.19,15.19,0,1,1-5.52,29.86c-65-12.25-133.3-9.64-199.43-6.57-22.47,1.28-45,2.87-67.35,5-9.9.84-11.88-13.87-1.94-15.53Z" transform="translate(986.43 224.27)"/><path class="cls-4" d="M101.34,769.74-440.16,790V587.56l541.5,15.18Z" transform="translate(986.43 224.27)"/><g class="cls-2"><path class="cls-3" d="M101.34,747.93l-541.5,16.75V660l541.5-16.75Z" transform="translate(986.43 224.27)"/></g><path class="cls-3" d="M-440.15,805.17a15.21,15.21,0,0,1-10.54-4.25A15.17,15.17,0,0,1-455.33,790V587.56a15.19,15.19,0,0,1,4.59-10.89,15.47,15.47,0,0,1,11-4.29l541.5,15.18a15.18,15.18,0,0,1,14.75,15.18v167a15.17,15.17,0,0,1-14.61,15.17l-541.5,20.25Zm15.18-202V774.23L86.16,755.12V617.5ZM101.34,769.74h0Z" transform="translate(986.43 224.27)"/><path class="cls-4" d="M-440.16,571V795.47A26.17,26.17,0,0,1-465,821.61l-375,19V511.65L-464,545A26.16,26.16,0,0,1-440.16,571Z" transform="translate(986.43 224.27)"/><g class="cls-5"><path class="cls-1" d="M-464,570.26a26.17,26.17,0,0,1,23.86,26.07v40.48A26.16,26.16,0,0,0-464,610.75l-375.93-33.31V537Z" transform="translate(986.43 224.27)"/></g><g class="cls-2"><path class="cls-3" d="M-440.16,658.83V772.65c0,11.61-10.92,21.18-24.84,21.77l-375,15.81V696.42l375-15.82C-451.08,680-440.16,670.44-440.16,658.83Z" transform="translate(986.43 224.27)"/></g><path class="cls-3" d="M-839.95,855.78a15.17,15.17,0,0,1-10.46-4.18,15.18,15.18,0,0,1-4.72-11V511.65a15.14,15.14,0,0,1,4.93-11.2,15.07,15.07,0,0,1,11.59-3.92l375.93,33.31A41.13,41.13,0,0,1-425,571V795.47a41.33,41.33,0,0,1-39.26,41.3l-375,19Zm15.18-327.55V824.62l359-18.17a11,11,0,0,0,10.44-11V571a10.94,10.94,0,0,0-10-10.95Z" transform="translate(986.43 224.27)"/><rect class="cls-4" x="-971.53" y="466.1" width="131.58" height="409.92" rx="33.59" transform="translate(-825.05 1566.38) rotate(180)"/><g class="cls-5"><path class="cls-1" d="M-937.94,496.46h64.39a33.6,33.6,0,0,1,33.6,33.6v45.55a33.6,33.6,0,0,0-33.6-33.6h-64.39a33.59,33.59,0,0,0-33.59,33.6V530.06A33.6,33.6,0,0,1-937.94,496.46Z" transform="translate(986.43 224.27)"/></g><g class="cls-2"><path class="cls-3" d="M-937.94,781.46h64.39c18.56,0,33.6-11.22,33.6-25.07v64.2c0,13.84-15,25.06-33.6,25.06h-64.39c-18.55,0-33.59-11.22-33.59-25.06v-64.2C-971.53,770.24-956.49,781.46-937.94,781.46Z" transform="translate(986.43 224.27)"/></g><path class="cls-3" d="M-873.55,890.92h-64.39a48.56,48.56,0,0,1-48.49-48.5V499.69a48.55,48.55,0,0,1,48.49-48.49h64.39a48.55,48.55,0,0,1,48.49,48.49V842.42A48.55,48.55,0,0,1-873.55,890.92ZM-937.94,481a18.72,18.72,0,0,0-18.69,18.69V842.42a18.72,18.72,0,0,0,18.69,18.7h64.39a18.72,18.72,0,0,0,18.7-18.7V499.69A18.72,18.72,0,0,0-873.55,481Z" transform="translate(986.43 224.27)"/><path class="cls-1" d="M-344,587.56c23.73,23.73,36.08,61,56.88,90.74,16.09,23,42.56,36.69,70.6,37.55,90.43,2.88,159.82-16.1,171.91-73.74,5.31-25.25-2.58-51.36-18.83-71.41a164.73,164.73,0,0,0-31.73-30.06c-71.2-51.46-176.62-39.77-244.73,41.86C-341.27,584.17-342.64,585.84-344,587.56Z" transform="translate(986.43 224.27)"/><path class="cls-3" d="M-199.13,731.32q-8.73,0-17.88-.29c-33.12-1-64-17.52-82.56-44-8.87-12.68-16.16-26.4-23.21-39.67-10-18.74-19.37-36.44-32-49a15.18,15.18,0,0,1-1.19-20.13c41.57-52.77,100.77-83.28,162.43-83.71A179.66,179.66,0,0,1-51.63,561.16c20,24.63,27.94,55.27,21.9,84.06C-41.73,702.39-98.7,731.32-199.13,731.32ZM-324,587.28c11.05,13.89,19.64,30.05,28,45.79,6.62,12.46,13.46,25.35,21.28,36.5,13.11,18.73,35,30.36,58.65,31.11,65.12,2,145.1-7,156.59-61.7,4.16-19.81-1.59-41.2-15.77-58.69a149.69,149.69,0,0,0-117-55.48h-1.09C-241.83,525.15-288.84,547.76-324,587.28Z" transform="translate(986.43 224.27)"/><g class="cls-2"><path class="cls-3" d="M-344,587.56c23.73,23.73,36.08,61,56.88,90.74,16.09,23,42.56,36.69,70.6,37.55,90.43,2.88,159.82-16.1,171.91-73.74,5.31-25.25-2.58-51.36-18.83-71.41a164.73,164.73,0,0,0-31.73-30.06l-.6.66c17.66,9.92,23.33,32.64,24,52.94.36,10.52-.3,21.56-5.36,30.82-9,16.29-28.9,22.72-47.12,26.46a416.44,416.44,0,0,1-97.67,8.41c-16.19-.56-33.45-2.43-46.1-12.61-10.43-8.45-16.09-21.35-24.34-31.93-12.1-15.48-29.1-25.45-47.52-32.89C-341.27,584.17-342.64,585.84-344,587.56Z" transform="translate(986.43 224.27)"/></g><path class="cls-1" d="M-379.43,790c12.15,59,42.46,110,99.24,149a49.59,49.59,0,0,1,17.72,22.22c106.32,261.79,401.87,478,723.12,593L582.11,1205c-71.91-13-141.95-42-209.21-82.79C258,1052.54,151.24,948.79,56.86,833a27.82,27.82,0,0,1-6.23-17.26C49.57,734.77,41.73,662.05-10,643c-16-5.92-33.6,3-38.86,19.18-10.83,33.5-17.26,67.56-16.75,102.48-35.78-1.52-68.63,4.71-96.16,25.31Z" transform="translate(986.43 224.27)"/><path class="cls-3" d="M460.65,1569.34a15.23,15.23,0,0,1-5.11-.89C289.41,1509,135,1424.68,9,1324.61-126.46,1217-225.21,1093.29-276.55,966.89a34.14,34.14,0,0,0-12.24-15.39c-56.35-38.72-91.85-92-105.51-158.46a15.19,15.19,0,0,1,3.11-12.65,15.19,15.19,0,0,1,11.76-5.59H-166.7c23.69-16.34,52-24.73,86.06-25.47,1.19-29.47,6.88-59.65,17.28-91.79a45.88,45.88,0,0,1,23.46-27,44.51,44.51,0,0,1,35.11-1.8C58.36,652,64.77,737.32,65.81,815.49a12.82,12.82,0,0,0,2.81,7.88c173.52,213,347.18,336.32,516.17,366.65A15.19,15.19,0,0,1,596.45,1210L475,1559.14a15.18,15.18,0,0,1-14.34,10.2ZM-360.11,805.17c14.36,50.52,43.45,90.33,88.53,121.31a64.44,64.44,0,0,1,23.16,29c95,234,362.43,455,699.79,579.16L562,1216.48c-170.76-36.66-344.57-162.37-516.94-373.93a43.21,43.21,0,0,1-9.64-26.66c-1.13-84.43-10.19-143.72-50.73-158.64a14.36,14.36,0,0,0-11.34.61,15.13,15.13,0,0,0-7.85,9c-11.2,34.61-16.44,66.53-16,97.58a15.19,15.19,0,0,1-4.6,11.1,15.07,15.07,0,0,1-11.23,4.28c-36-1.56-64.28,5.74-86.42,22.3a15.18,15.18,0,0,1-9.09,3Z" transform="translate(986.43 224.27)"/><path class="cls-3" d="M66.58,1364.33a15.19,15.19,0,0,1-7.66-28.3c115-67,191.51-187.82,186.1-293.84a15.18,15.18,0,1,1,30.32-1.54c6.06,118.75-74.77,248-201.13,321.61A15.13,15.13,0,0,1,66.58,1364.33Z" transform="translate(986.43 224.27)"/><path class="cls-3" d="M-130.1,789.28c-28.17,9.11-48.39,28.66-57.43,57.37-1.76,5.28-9.86,3.51-9.3-2-.42-34.62,21.34-68.49,53.06-82.49,19.7-11.08,34.44,18.3,13.67,27.11Z" transform="translate(986.43 224.27)"/><g class="cls-2"><path class="cls-3" d="M-379.43,790c12.15,59,42.46,110,99.24,149a49.59,49.59,0,0,1,17.72,22.22c106.32,261.79,401.87,478,723.12,593L582.11,1205c-71.91-13-141.95-42-209.21-82.79,25,29,40.89,66.85,38.16,105-2.79,39.07-27.23,77.23-63.92,90.89-29.91,11.13-63.41,5.52-94-3.59-87.6-26.12-165.33-79.15-231.37-142.41S-99.52,1035.38-153.52,961.59c-7.59-10.37-15.28-21-19.68-33-5.47-14.93-5.57-31.38-2.84-47.07,10-56.88,60.28-104.25,117.61-110.83-36.94-9.71-72.82,18.37-110.72,23.23-15.44,2-31.13,0-46.56-1.67-7.19-.81-14.37-1.52-21.56-2.22Z" transform="translate(986.43 224.27)"/></g><path class="cls-1" d="M267.69,2849c18.74,53.5,110,57.75,234.91,58.86,100.5.9,205.44,5.32,235.19-26.27,75-79.5,23.43-429.16,50.53-826.61L410.79,1797.64c-13.87,126.47-21.06,248.11-24.17,358.52C378,2458.9,400.24,2677,400.24,2677s-108.68,25.15-134.57,98.32C258.39,2795.93,257.66,2820.27,267.69,2849Z" transform="translate(986.43 224.27)"/><g class="cls-2"><path class="cls-3" d="M267.69,2849c18.74,53.5,110,57.75,234.91,58.86,100.5.9,205.44,5.32,235.19-26.27,75-79.5,23.43-429.16,50.53-826.61L410.79,1797.64c-13.87,126.47-21.06,248.11-24.17,358.52,55.75-1.85,121.72,14.48,197.22,69.1,120.7,87.26,131.8,290.42,111.29,450.95-23.35,183.05-137.73,161.45-296.26,153.88-69.89-3.31-110.58-30.51-133.2-54.77C258.39,2795.93,257.66,2820.27,267.69,2849Z" transform="translate(986.43 224.27)"/></g><path class="cls-3" d="M583.06,2923.76c-17.24,0-35.17-.21-53.57-.43-9-.11-18-.22-27-.3-136.27-1.22-227.22-6.68-249.08-69-12.86-36.69-11-70.58,5.64-100.74,29.34-53.31,96.6-78.81,125-87.49-6.35-72.89-34.64-446.87,11.7-869.79a15.19,15.19,0,1,1,30.19,3.31c-51.07,466.05-10.92,872.14-10.51,876.19l1.36,13.31-13,3c-.87.2-87.85,21.05-118.12,76.17-12.39,22.57-13.55,47.42-3.54,76,15.23,43.44,105,47.68,220.71,48.72,9,.08,18.08.19,27.12.3,81.74,1,174.36,2.09,196.9-21.8,41.6-44.11,40.19-195.27,38.39-386.63-1.21-129-2.58-275.25,8-430.59a15.18,15.18,0,1,1,30.29,2.06c-10.51,154.17-9.14,299.78-7.93,428.24,1.92,205.95,3.32,354.75-46.67,407.75C723,2919.45,660.12,2923.76,583.06,2923.76Z" transform="translate(986.43 224.27)"/><path class="cls-3" d="M603.1,2438.59c-75.89,0-161.21-8.51-224.61-38.77a14.91,14.91,0,1,1,12.85-26.9c133.23,63.59,383.4,22.71,385.91,22.29a14.91,14.91,0,0,1,4.93,29.4C776.31,2425.6,696.89,2438.59,603.1,2438.59Z" transform="translate(986.43 224.27)"/><path class="cls-3" d="M615.08,2708c-49-24.43-106.16-25.67-159.76-22.45-16,1.17-38.2,4.17-54.18,6.68-19.9,2.44-24.29-26.71-4.44-30.14a16.65,16.65,0,0,1,2.09-.17l28.23-.23c64.44,2.1,133.33,9.59,188.06,46.31Z" transform="translate(986.43 224.27)"/><path class="cls-1" d="M380.26,1837.54c.53,94,18.18,173.89,64.85,221.07,88.48,89.32,311.64,101.33,368.85,88.49,0,0,40.22,288.94,84.63,593.89,19.16,131.71,35,170.71,305.68,173.13,65.17.59,159.52,12.85,192.59-49.21,13.29-24.93,15.54-50.57,6.5-75-11.79-31.82-42.78-61.66-93.6-85.28-29.68-175.5-51.56-382.74-77.28-569.86-9.62-69.87-19.73-136.92-31-198.44-1.48-17.82-2.91-37-4.32-57.23-.21-2.87-.38-5.74-.58-8.65-7.8-116-14.53-266.81-21.73-418.56-5.42-114.2-11.16-228.91-17.82-329.67-4.71-71.85-10-136.56-15.93-189L511.26,1169.54c-7.42,27.06-18.26,67-31,115.33C378,1671.93,379.84,1760.64,380.26,1837.54Z" transform="translate(986.43 224.27)"/><path class="cls-6" d="M1293,1196.57c-50.59,10-89.62,53-108.94,100.82s-22.24,100.45-24.65,152c-1.42,30.13-2.7,60.71,4.15,90.08,5,21.34,14.18,41.67,17.12,63.38,2.92,21.5-.43,43.28-2.36,64.89C1169.84,1762.35,1189,1857.3,1214,1949c6.58,24.11,13.52,50.21,4.4,73.48-121.36,33.19-244.69,62.92-370.4,68.24-50.58,2.13-101.24.3-151.83-1.53l-116.39-4.23c-39.61-1.43-81.23-3.45-115-24.17-32.32-19.83-53.15-54.7-63.62-91.14s-11.69-74.81-12.57-112.71c-.85-36.77-1.45-73.58.42-110.3,6-118.08,37.45-233.2,68.69-347.23L515.83,1187a249.85,249.85,0,0,1,88.74,24.17c-9.05,46.55,17.17,95.15,56.17,122.14s88.33,35.17,135.73,33.68c64-2,130.34-22.52,173.06-70.16,28.82-32.13,46.55-75.77,83.91-97.38,18.29-10.58,39.73-14.77,58-25.39,25.36-14.73,47.06-42.33,76.28-39.83,9.58.82,18.53,5,27.13,9.28a630.18,630.18,0,0,1,77.37,45.82" transform="translate(986.43 224.27)"/><g class="cls-2"><path class="cls-3" d="M892.62,1895.51s161.81,13.29,304.56-16.45c-.21-2.87-.38-5.74-.58-8.65-7.8-116-14.53-266.81-21.73-418.56-33.6.35-56.87,6.68-56.87,6.68s65.24,181.92-31.26,216.68c-74.21,26.68-186.07-38.88-229.52,69.65C816.46,1846.43,892.62,1895.51,892.62,1895.51Z" transform="translate(986.43 224.27)"/></g><g class="cls-2"><path class="cls-3" d="M380.26,1837.54c.53,94,18.18,173.89,64.85,221.07,88.48,89.32,311.64,101.33,368.85,88.49,0,0,40.22,288.94,84.63,593.89,19.16,131.71,35,170.71,305.68,173.13,65.17.58,159.52,12.85,192.59-49.21,13.29-24.93,15.54-50.57,6.5-75-13.45,21.5-49.61,45.42-142.55,49.62-154.48,7-266.37,18-298.22-177.29-35.91-220-71.71-446.83,29.25-501.8,91.19-49.7,178.25-43.24,240.64-25.67-9.62-69.87-19.73-136.92-31-198.44-1.69-20.36-3.33-42.42-4.9-65.88Z" transform="translate(986.43 224.27)"/></g><g class="cls-2"><path class="cls-3" d="M480,1312.47c50,63.52,123.71,102.65,231.5,94.36,190.56-14.65,281.73-134,497.57-269.61-5.07-77.39-10.73-147.1-17.16-203.54L511.26,1169.54a937.3,937.3,0,0,1-19.1,98.82Q486.43,1291.3,480,1312.47Z" transform="translate(986.43 224.27)"/></g><path class="cls-3" d="M508.77,1209.67c-41.31,206-110.23,407.56-111.56,619,.42,73.24,6.26,156.13,55.59,213.53,68.88,75.94,258.56,103.85,357.83,90.07A15.26,15.26,0,0,1,829,2145c20,140.64,61.83,434,81.46,571.77,6.46,40.39,9.69,88.81,30.52,122.07,30.31,45.56,97.74,49.9,148.51,55.55,43.54,3.84,88.41,4.06,132.31,4.9,49.22.28,120.48,9.08,155.14-31.64,47.15-65.71-13.58-122.69-73.66-149.34a15.29,15.29,0,0,1-8.49-11.21c-32-192-51.61-384.76-78.3-577.1-8.87-63.94-18.42-127.74-29.93-191.05-11.7-146.81-20.45-354.84-27.68-503.66-8.46-166.85-15.36-334.53-32.85-500.48a15.18,15.18,0,0,1,30.19-3.3c24.83,240.88,32,510.18,45,753.24,4.09,81,9.3,173.87,15.19,248.8,23.06,127.71,38.89,256.29,55.18,384.84,16.19,128.31,31.81,256.6,53.11,383.65l-8.58-11.23c67.1,29.63,133.93,93.93,97.87,173.55-37.47,81.42-141.64,65-215,64.88-37.25-.59-74.79-1.36-112.09-4.59-45.43-4.47-94.06-9.53-135-34-44.3-25.54-58.09-78.7-65-125.34-4-25.15-9.1-62.58-12.79-88.2-15.83-111.09-58.82-412.88-75.22-528l18.36,12.72c-28.52,5.72-54.77,5.34-83,4.77-54.17-2.05-107.8-9.45-160.25-23.58-53.38-15.13-107-36.07-146.12-78.4-56.39-64.81-64-154.47-64.55-236.21,2.17-134.07,30.22-265.15,61.82-394.63,19.07-76.4,41.84-154.32,68.91-228.16a7.61,7.61,0,0,1,14.65,4Z" transform="translate(986.43 224.27)"/><path class="cls-3" d="M1057.64,2450c-57.23,0-126.89-7.29-210.39-27.37a14.9,14.9,0,0,1,7-29c284,68.28,400.33-18.14,401.47-19a14.91,14.91,0,0,1,18.41,23.45C1270.46,2401,1205.92,2450,1057.64,2450Z" transform="translate(986.43 224.27)"/><path class="cls-3" d="M1304.79,2722.71c-75.5-23.32-158-30.34-235.62-13.13-9.75,1.78-24,6.53-33.56,9.26,5.57-2.54,18.64-8.37,24-10.77,8.13-2.89,16.73-6.16,24.83-8.93,56.6-17.63,116.81-23,176-19.23,18.43,1.32,36,3,54.36,6.54,25.93,6.2,15.67,44.14-9.93,36.26Z" transform="translate(986.43 224.27)"/><path class="cls-3" d="M777.48,1383.06c-39,0-74-8.89-102.31-23.08-71.33-35.71-108.57-105.49-92.67-173.65a15.18,15.18,0,0,1,29.57,6.9c-12.64,54.2,18.18,110.3,76.69,139.6,77.45,38.76,212.22,31.28,337.19-117.39a15.18,15.18,0,0,1,23.24,19.54C957.1,1344.53,858.62,1383.06,777.48,1383.06Z" transform="translate(986.43 224.27)"/><path class="cls-3" d="M761,2104.13c-106.67,0-212.91-8.73-312.73-26.43a13.13,13.13,0,0,1,4.58-25.85c246.46,43.7,532.54,31.92,765.31-31.53a13.13,13.13,0,1,1,6.9,25.33C1083,2084.35,921.53,2104.13,761,2104.13Z" transform="translate(986.43 224.27)"/><g class="cls-2"><path class="cls-7" d="M922,1608.75" transform="translate(986.43 224.27)"/></g><circle class="cls-1" cx="400.51" cy="1824.26" r="66.83" transform="translate(-186.21 1041.78) rotate(-45)"/><path class="cls-3" d="M400.53,1906h-.75a82.63,82.63,0,1,1,.75,0Zm0-133.66a51.91,51.91,0,0,0-51.91,51.46h0A51.92,51.92,0,1,0,401,1772.33Zm-66.81,51.33h0Z" transform="translate(986.43 224.27)"/><path class="cls-1" d="M466.24,2021.29l377.11,11.11a81.47,81.47,0,0,0,83.6-78.81l5.9-200.68a81.5,81.5,0,0,0-62.63-81.46,78.16,78.16,0,0,0-16.18-2.13L477,1658.2a81.41,81.41,0,0,0-83.6,78.81l-4.71,159-1.25,41.73C386.1,1982.38,421.61,2020,466.24,2021.29Z" transform="translate(986.43 224.27)"/><path class="cls-1" d="M466.24,2021.29l377.11,11.11a81.47,81.47,0,0,0,83.6-78.81l5.9-200.68a81.5,81.5,0,0,0-62.63-81.46,78.16,78.16,0,0,0-16.18-2.13L477,1658.2a81.41,81.41,0,0,0-83.6,78.81l-4.71,159-1.25,41.73C386.1,1982.38,421.61,2020,466.24,2021.29Z" transform="translate(986.43 224.27)"/><path class="cls-1" d="M466.24,2021.29l377.11,11.11a81.47,81.47,0,0,0,83.6-78.81l5.9-200.68a81.5,81.5,0,0,0-62.63-81.46,78.16,78.16,0,0,0-16.18-2.13L477,1658.2a81.41,81.41,0,0,0-83.6,78.81l-4.71,159-1.25,41.73C386.1,1982.38,421.61,2020,466.24,2021.29Z" transform="translate(986.43 224.27)"/><g class="cls-2"><path class="cls-3" d="M465.68,2021.3l377.12,11.12a81.47,81.47,0,0,0,83.59-78.81l5.91-200.68a81.53,81.53,0,0,0-62.64-81.47c-21.83,13.59-35.7,22.29-35.7,22.29-23.11,160.54-71.35,239.51-271.48,236.88C476.1,1929.47,422,1914.7,388.12,1896l-1.25,41.74C385.54,1982.4,421.05,2020,465.68,2021.3Z" transform="translate(986.43 224.27)"/></g><path class="cls-3" d="M835.47,2047.33c-1.07,0-2.13,0-3.21,0l-355.84-10.5a107.32,107.32,0,0,1-103.84-110.16l5.29-179.46A107.32,107.32,0,0,1,488,1643.32l355.84,10.5A107.31,107.31,0,0,1,947.71,1764l-5.29,179.46a107.32,107.32,0,0,1-106.95,103.89Zm-2.31-30.39a77,77,0,0,0,78.91-74.39l5.29-179.47A77,77,0,0,0,843,1684.17l-355.84-10.5a76.94,76.94,0,0,0-78.91,74.39l-5.3,179.47a77,77,0,0,0,74.39,78.91Z" transform="translate(986.43 224.27)"/><path class="cls-1" d="M599.67,2023.83l.71,1.45,243,7.15a81.4,81.4,0,0,0,75.27-45.57,79.43,79.43,0,0,0,8.26-33.25l2.66-89.16.88-29.42,1.49-51.65.91-30.44a81.47,81.47,0,0,0-78.79-83.61L772.57,1667a81.44,81.44,0,0,1,63.82,81.63l-1.73,59.57L833.19,1857l-2.69,92.37a81.59,81.59,0,0,1-83.6,78.79Z" transform="translate(986.43 224.27)"/><path class="cls-8" d="M561.18,2022.67l.71,1.45,281.48,8.31a81.4,81.4,0,0,0,75.27-45.57,79.43,79.43,0,0,0,8.26-33.25l2.66-89.16.88-29.42,1.49-51.65c-16.27-2.74-38-1.13-50.51,22.68-17.33,33-34.32,21.32-46.76,2.1L833.19,1857l-2.69,92.37a81.59,81.59,0,0,1-83.6,78.79Z" transform="translate(986.43 224.27)"/><path class="cls-3" d="M845.84,2047.64c-1,0-2,0-2.94-.05l-356.49-10.51.28-15.09c.26-10.78,7.22-13.74,15.55-14.45v-.37l5.72.17c1.6,0,3.21,0,4.79.08l234.5,5.53a66.25,66.25,0,0,0,68-64.06l5.91-200.72a66.11,66.11,0,0,0-51.88-66.43l3.71-30,81.45,2.39A96.54,96.54,0,0,1,948,1753.37l-5.92,200.69a96.62,96.62,0,0,1-96.25,93.58ZM816,2016.42l27.83.82a66.25,66.25,0,0,0,67.93-64.06h0l5.92-200.71a66.15,66.15,0,0,0-64.08-68l-25-.73a96.22,96.22,0,0,1,23,65.33l-5.92,200.7A95.63,95.63,0,0,1,816,2016.42Z" transform="translate(986.43 224.27)"/><path class="cls-9" d="M684.69,1846.21c-.17,7.42,8.84,67.59,8.84,67.59l42.29,1c29.12.69,53.44-28.89,54.32-66.08s-22-67.91-51.12-68.6l-42.29-1S685,1834.12,684.69,1846.21Z" transform="translate(986.43 224.27)"/><path class="cls-10" d="M684.69,1846.21c-.17,7.42,8.84,67.59,8.84,67.59l42.29,1c29.12.69,53.44-28.89,54.32-66.08s-22-67.91-51.12-68.6l-42.29-1S685,1834.12,684.69,1846.21Z" transform="translate(986.43 224.27)"/><path class="cls-3" d="M736.84,1924.94l-1.26,0-29.38-.69a25.39,25.39,0,0,1-24.57-21.75c-7.22-49.7-7.1-54.64-7.06-56.51h0c.17-7,3.41-26,9.63-56.34a25.42,25.42,0,0,1,24.92-20.34h.61l29.53.7c17.26.41,33.13,9.18,44.68,24.68,11,14.76,16.8,34,16.32,54.27s-7.19,39.22-18.87,53.44C769.41,1917,753.63,1924.94,736.84,1924.94Zm-42-78.5c0,1,.3,8,6.85,53.12a5.18,5.18,0,0,0,5,4.43l29.38.69c10.88.39,21.45-5.11,29.69-15.14,8.83-10.75,13.9-25.33,14.27-41.06s-4-30.55-12.31-41.7c-7.75-10.41-18-16.28-28.93-16.54l-29.53-.7a5.13,5.13,0,0,0-5.22,4.15C698.39,1821.2,694.94,1840.91,694.81,1846.44Z" transform="translate(986.43 224.27)"/><ellipse class="cls-9" cx="695.13" cy="1846.46" rx="67.36" ry="52.74" transform="translate(-180.89 2721.81) rotate(-88.64)"/><g class="cls-11"><path class="cls-1" d="M747.84,1847.73c-.07,2.8-.26,5.52-.58,8.2-4.9-29.64-25.16-52.07-50-52.68-27-.64-49.75,24.65-53.73,57.88a81.71,81.71,0,0,1-1.11-15.93c.88-37.2,25.19-66.76,54.32-66.08S748.72,1810.53,747.84,1847.73Z" transform="translate(986.43 224.27)"/></g><path class="cls-10" d="M747.84,1847.73c-.88,37.15-25.19,66.76-54.32,66.08s-52-31.42-51.11-68.61a83.18,83.18,0,0,1,2.09-16.94c7.08,25.27,25.77,43.45,48.11,44,24.5.61,45.65-20.27,52.23-49.1A85,85,0,0,1,747.84,1847.73Z" transform="translate(986.43 224.27)"/><path class="cls-3" d="M694.52,1923.93h-1.23c-17.27-.41-33.14-9.18-44.69-24.68-11-14.76-16.79-34-16.31-54.27s7.18-39.22,18.87-53.44c12.29-14.94,28.81-23,45.81-22.53,17.26.41,33.13,9.17,44.68,24.68,11,14.76,16.8,34,16.32,54.27C757,1890.16,728.62,1923.93,694.52,1923.93Zm-52.11-78.73,10.11.24c-.37,15.74,4,30.55,12.31,41.7,7.76,10.41,18,16.28,28.94,16.54,23.51.77,43.22-24.66,44-56.21.37-15.74-4-30.54-12.31-41.69-7.75-10.41-18-16.28-28.93-16.54s-21.45,5.12-29.69,15.14c-8.83,10.75-13.9,25.33-14.28,41.06Z" transform="translate(986.43 224.27)"/><path class="cls-3" d="M583.51,2037.39h-.08a14.09,14.09,0,0,1-14-14.18l.59-101.58a56,56,0,0,0-24.84-46.91,83.84,83.84,0,0,1-37.31-72.19l3.73-143.14a14.09,14.09,0,0,1,14.08-13.73H526a14.1,14.1,0,0,1,13.73,14.46L536,1803.27a55.8,55.8,0,0,0,24.83,48,84.11,84.11,0,0,1,37.34,70.49l-.6,101.59A14.1,14.1,0,0,1,583.51,2037.39Z" transform="translate(986.43 224.27)"/><path class="cls-1" d="M1189.77,1756.41s39.29,24.84,45.31,68.77c8.24,60.1-35.63,85.08-35.63,85.08s-167.28,44.56-288-11.42c0,0-65.54-84.24,8.61-130.87C920,1768,1104.39,1795.7,1189.77,1756.41Z" transform="translate(986.43 224.27)"/><path class="cls-3" d="M1060,1946c-50.42,0-106.79-7-156.48-30.08l-4.13-1.92-2.79-3.6c-1.56-2-38-49.5-29.37-98.41,4.33-24.62,18.73-44.77,42.81-59.91l5.9-3.71,6.9,1c1.78.27,179.82,26.43,259.08-10l9.28-4.27,8.62,5.45c1.91,1.21,46.78,30.12,53.89,82.1,9.85,71.88-42.71,102.69-45,104l-2.11,1.2-2.34.63C1200,1929.56,1136.92,1946,1060,1946Zm-136.22-62.19c104.49,45.7,246.57,14.18,268.08,9,6.7-4.79,30.14-24.68,24.61-65-3.28-24-19.76-41.41-29.5-49.81-82.88,31.08-227.65,14.32-262.35,9.67-11.52,8.59-18.19,18.71-20.35,30.77C899.53,1844.84,917.06,1873.87,923.77,1883.79Z" transform="translate(986.43 224.27)"/><path class="cls-1" d="M904.93,1887.2c6.73,59.82,44.49,113.41,93.78,117.1,127.63,9.57,169.28,24.14,199.19,24.5,150.5,1.67,342.66-57.69,365.23-257.85,6-53.23.6-96.3-22.27-184.56-46.71-180.16-138.16-278.84-209.77-356.12-22.72-24.55-46.25-47.22-74.79-60.12a128.39,128.39,0,0,0-21.51-7.49,120.86,120.86,0,0,0-20.09-3.24c-40.13-3.09-73.08,13.86-91.1,25.3q-2.8,136.88-5.61,273.79s6.93,9.56,16.6,25.86c.81,1.36,1.67,2.83,2.53,4.3,19.83,34.16,48.58,93.17,53.69,154.86,1.32,16-.71,29.55-4.4,40.68-9.16,28.39-28.49,41.5-28.49,41.5a455.09,455.09,0,0,0-51.83-6.07C945.57,1710.23,895.67,1804.61,904.93,1887.2Z" transform="translate(986.43 224.27)"/><path class="cls-6" d="M1118,1458.51s6.93,9.56,16.6,25.86q15.26,14.34,30.56,28.79c-12.45-51.57-3.69-105.31,5.11-157.54,4.56-26.67,9.27-53.84,22.27-77.93,9-16.5,21.56-31,35-44.54a484,484,0,0,1,51.52-45.34l4.2.2c-9-6-18-11.89-26.92-17.86a128.39,128.39,0,0,0-21.51-7.49,120.86,120.86,0,0,0-20.09-3.24c-40.13-3.09-73.08,13.86-91.1,25.3Q1120.8,1321.6,1118,1458.51Z" transform="translate(986.43 224.27)"/><g class="cls-2"><path class="cls-3" d="M905,1887.21c6.71,59.78,44.48,113.41,93.74,117.09,127.64,9.56,169.28,24.17,199.21,24.48,150.5,1.68,342.67-57.69,365.23-257.82,6-53-2.66-117.45-22.27-184.55,6.68,104-7,250.83-132.47,272.78-160,28-137-99.91-222-175-9.18,28.39-28.52,41.47-28.52,41.47a453.64,453.64,0,0,0-51.82-6c50.08,32.26,105.6,87.27,73.22,161.74C1136.07,1980.72,966.31,1968,905,1887.21Z" transform="translate(986.43 224.27)"/></g><path class="cls-3" d="M995.51,1230.85c48.06-72.49,137.76-113.23,222.87-85.55,174,58.64,302.74,295.53,345.88,464.36,59,219.23-32.42,385-259.88,427.13a560.56,560.56,0,0,1-105.66,8.92c-36.16-1.69-68.86-10.72-104-14.6-27.79-3.74-56.38-6.68-84.43-8.95-2.49-.08-10.22-.91-12.72-1A94.81,94.81,0,0,1,953.68,2006c-63.92-43.8-82.16-137.66-51.81-206.2,44.24-98.15,165.77-106.64,258.61-89.09l-11.06,2.38a75.76,75.76,0,0,0,17.35-22.78c28.8-58.55-23.5-174.91-55.09-227.64a7.59,7.59,0,0,1,12.44-8.65,416.62,416.62,0,0,1,41,62.79,391.94,391.94,0,0,1,29.52,69.56c15.78,48.69,22,105.81-18.9,144.36-5.43,4.88-12.2,11.49-20.15,9.94-63.59-9.84-133.49-12.2-186.78,25.82-67.21,47.59-63.09,164.8,2.94,211.26,10.1,6.6,21.09,9.59,32.66,10.11l8.62.69c51.49,3.94,103.82,10.81,154.51,19.75,22.75,4.42,42.48,4,64.75,2.83,65.5-3.57,132.62-18.67,189.34-51.28,218.43-125.57,108.61-419.56,3.76-588.21-94.61-149.4-260.42-299.14-417.54-132-6,7.54-17.46-.9-12.35-8.82Z" transform="translate(986.43 224.27)"/><path class="cls-3" d="M1564.67,1766.08a14.91,14.91,0,0,1-13.47-8.5c-.3-.62-18.52-37.1-70.53-66.07-48.77-27.17-138.06-53.14-286.47-22.61a14.91,14.91,0,0,1-6-29.2c306.89-63.14,386.7,98.22,390,105.12a14.91,14.91,0,0,1-13.47,21.26Z" transform="translate(986.43 224.27)"/><path class="cls-3" d="M1239,1834c-11.26-30.8-31.78-59.75-59.6-77.49-9.13-6.26-19.4-10.1-29.51-13.75a18.86,18.86,0,1,1,14.93-34.56,157.89,157.89,0,0,1,61.25,51.15,188.44,188.44,0,0,1,26.14,51.49c2,8.87,11.63,26.15-2.23,29.92a9.46,9.46,0,0,1-11-6.76Z" transform="translate(986.43 224.27)"/><path class="cls-3" d="M1168.19,1565.19a12.67,12.67,0,0,1-12.44-10.41c-34.87-192.89,37.56-355.89,125.62-372.76a12.65,12.65,0,0,1,4.77,24.85c-66,12.65-140,152.72-105.49,343.41a12.65,12.65,0,0,1-10.2,14.7A12.51,12.51,0,0,1,1168.19,1565.19Z" transform="translate(986.43 224.27)"/><path class="cls-3" d="M1185.05,1317.71a13,13,0,0,1-2.23-.2,1111.32,1111.32,0,0,0-207.06-17.14h-.15a12.65,12.65,0,0,1-.14-25.3,1140.24,1140.24,0,0,1,211.77,17.53,12.65,12.65,0,0,1-2.19,25.11Z" transform="translate(986.43 224.27)"/><path class="cls-3" d="M610,1291c-.33,0-.66,0-1,0a819.8,819.8,0,0,0-124.59,0,12.65,12.65,0,1,1-1.89-25.23,844.67,844.67,0,0,1,128.45,0,12.65,12.65,0,0,1-1,25.27Z" transform="translate(986.43 224.27)"/><path class="cls-3" d="M1159.42,1434.15c-.38,0-.77,0-1.16-.05-258.2-23.64-488.56-27.42-704.27-11.56a12.65,12.65,0,1,1-1.86-25.23c217.11-16,448.84-12.17,708.43,11.59a12.65,12.65,0,0,1-1.14,25.25Z" transform="translate(986.43 224.27)"/><path class="cls-3" d="M1157.93,1547.85a10.49,10.49,0,0,1-1.12,0c-244-21.48-489-26.15-728.41-13.91a12.65,12.65,0,1,1-1.29-25.26c240.54-12.32,486.79-7.61,731.91,14a12.65,12.65,0,0,1-1.09,25.25Z" transform="translate(986.43 224.27)"/><path class="cls-3" d="M1181.82,1680.67a13.18,13.18,0,0,1-2.06-.16c-282.52-46.13-565.25-57.17-775.7-30.31a12.65,12.65,0,0,1-3.21-25.09c212.78-27.17,498.17-16.08,783,30.42a12.65,12.65,0,0,1-2,25.14Z" transform="translate(986.43 224.27)"/><path class="cls-12" d="M1470.26,989.88c37.2,68.53,90.08,122,156.89,161.95q6.13-14.2,11.13-27.69c39.22-104.25,32.54-179.85,2.73-238.71a250.6,250.6,0,0,0-27.73-43c-1-1.31-2.08-2.63-3.14-3.89a0,0,0,0,1-.05,0c-1.21-1.52-2.48-3-3.74-4.51h0a370.23,370.23,0,0,0-39.88-39.82c-1-.92-2.08-1.83-3.09-2.69l0,0-2.94,6.33Z" transform="translate(986.43 224.27)"/><path class="cls-3" d="M1627.15,1170.28a18.45,18.45,0,0,1-9.48-2.62c-70.67-42.31-125.73-99.16-163.63-169a18.45,18.45,0,0,1-.49-16.64l93.08-198.42a18.46,18.46,0,0,1,28.7-6.19c79.49,67.9,159.16,172.66,68.76,381.71a18.46,18.46,0,0,1-16.94,11.13ZM1491,989.16c31.07,54.24,73.86,99.67,127.45,135.35,61.56-157.54,14.23-242.62-49-302.7Z" transform="translate(986.43 224.27)"/><path class="cls-3" d="M1539.45,914.84c2.7,12.24,9.12,23,14.17,34.47q7.07,16.05,13,32.56c4,11.18,7.68,22.49,11.13,33.86,1.87,6.16,4.56,11.63,7.2,17.45,2.33,5.14,4.49,9.22,9.11,12.68,2,1.52,4.47-.24,5.23-2.12,2.26-5.65,1.4-11.12.72-17a107.3,107.3,0,0,0-3.8-18.6c-3.51-11.76-7.24-23.46-11.4-35s-8.76-22.84-13.94-33.94c-5.32-11.38-10.28-22.59-19.25-31.47-5.34-5.29-13.7.13-12.17,7.08Z" transform="translate(986.43 224.27)"/><path class="cls-12" d="M1536.05,706.48c2.79,34,12.5,62.15,27.23,85a156.36,156.36,0,0,0,14.62,19.18,162.5,162.5,0,0,0,30.52,26.67c.61.41,1.16.81,1.72,1.17,19,12.6,40.64,21.61,63.46,27.38C1792.83,896.21,1946,839.58,1946,757.09c-1.32-.71-2.68-1.42-4-2.17-78.29-42.21-168.82-85.78-259.61-88-6.13-.2-12.25-.2-18.37.1a253,253,0,0,0-93,21s0,0-.1,0a260.57,260.57,0,0,0-34.11,18.07A5.73,5.73,0,0,0,1536.05,706.48Z" transform="translate(986.43 224.27)"/><path class="cls-3" d="M1743.48,892.61c-100,0-214.64-47.71-225.82-184.62a18.45,18.45,0,0,1,8.56-17.12c155.5-97.89,333.11-1.7,428.54,50a18.46,18.46,0,0,1,9.67,16.23c0,79.36-105.85,131.09-208.18,135.26C1752,892.53,1747.76,892.61,1743.48,892.61Zm-187.8-176.37c14.87,107.76,111.45,142.81,199.07,139.24,87-3.55,161.53-42.72,171.61-88C1809.18,704.8,1676.06,647.8,1555.68,716.24Z" transform="translate(986.43 224.27)"/><path class="cls-3" d="M1563.36,793.72c7.8,2.9,14.46-3.88,21.47-5.87s14.21-2.31,21.57-2.69c18.77-1,37.52-.89,56.29-1.54,18-.61,35.83-.4,53.6,2.57,9,1.49,17.83,2,26.51,4.84a100.71,100.71,0,0,0,12.54,2.89c4.83,1,9.26,3.31,14,4.5a2.87,2.87,0,0,0,2.77-4.76c-3.74-3.93-8.43-6.46-12.61-9.86a44.35,44.35,0,0,0-11.79-7.13c-9.59-4-18.79-8.82-29-11.26-20.26-4.85-41.6-8.8-62.49-9-20.19-.2-40.84,0-61,2-10,1-20,3.07-28.61,8.55-4.49,2.87-8.67,7.07-10.13,12.36-1.63,5.94.91,12.22,6.75,14.39Z" transform="translate(986.43 224.27)"/><g class="cls-2"><path class="cls-3" d="M1536.76,706.08a23.86,23.86,0,0,0,.61,3.29c6.48,29.25,13.56,59.61,29.05,84.77a113.16,113.16,0,0,0,13.51,18.06s.1,0,.15.15A129.33,129.33,0,0,0,1602,831.13s.1,0,.16.1c1.36.91,2.73,1.82,4.15,2.73,16.54,10.58,35.17,18.53,53.39,26.12,4.65,1.92,9.26,3.89,13.91,5.82C1792.83,896.21,1946,839.58,1946,757.09c-1.32-.71-2.68-1.42-4-2.17q-21.85,14.72-43.77,29.4c-10.43,7-21,14.07-32.75,18.47-20.8,7.84-43.77,6.83-65.94,4.86-31.32-2.84-62.75-7.44-92.35-18.12-26.57-9.56-53.55-26.72-60.94-53.95-6.73-25,7.19-53.79,30.93-64l5.21-4.66,2.88-2.58c-7.08.76-14.17,1.67-21.25,2.68a611.39,611.39,0,0,0-93,21s0,0-.1,0c-8.55,2.63-17,5.47-25.46,8.5-3.39,1.22-7.13,2.84-8.29,6.18A7.58,7.58,0,0,0,1536.76,706.08Z" transform="translate(986.43 224.27)"/></g><g class="cls-2"><path class="cls-3" d="M1470.26,989.88c37.2,68.53,90.08,122,156.89,161.95q6.13-14.2,11.13-27.69c-40-39.57-64.17-95.44-63.56-151.87.15-17.25,2.63-34.87,10.78-50.1s22.77-27.63,39.87-29.81l15.64-6.93,2.68-1.16a201,201,0,0,0-30.41-41.86c-1.57-1.72-3.19-3.39-4.86-5.06-2-2.07-4.15-4.09-6.27-6.12-.06-.05-.11-.1-.16-.1a279.57,279.57,0,0,0-21.91-18.78q-.07-.15-.15-.15c-.66-.55-1.37-1.06-2-1.52-5.71-4.45-11.58-8.7-17.56-12.85Z" transform="translate(986.43 224.27)"/></g><path class="cls-1" d="M128.29,569.6A701.2,701.2,0,0,0,226,913.22,722.65,722.65,0,0,0,268.43,977c7.48,10.09,15.36,20.06,23.48,30a722.42,722.42,0,0,0,255,195.56q18.81,8.55,37.94,16.07c233.73,91.31,508.17,59,715.23-108.18,305.07-246.21,348.28-691.72,96.64-995.06A720.5,720.5,0,0,0,1231.39-31c-7.07-4.63-14.31-9.07-21.62-13.36q-29.24-17.4-59.73-31.85A731.19,731.19,0,0,0,851.47-146.1q-24.45-.45-48.92.74A717.27,717.27,0,0,0,729.33-138,709.73,709.73,0,0,0,388.55,11.92C213.06,153.54,124.25,361.09,128.29,569.6Z" transform="translate(986.43 224.27)"/><path class="cls-3" d="M849.53,1270.36a729,729,0,0,1-265.4-50c-12.74-5-25.54-10.43-38-16.11a725.77,725.77,0,0,1-255.61-196.06c-9-10.92-16.66-20.75-23.54-30a723.59,723.59,0,0,1-42.55-64,705.49,705.49,0,0,1-98-344.52c-4.22-218.12,90.89-421.93,261-559.17A714.25,714.25,0,0,1,729.05-139.82a724.78,724.78,0,0,1,73.4-7.4c16.06-.79,32.55-1,49-.74a733.06,733.06,0,0,1,299.33,70c20.29,9.61,40.43,20.36,59.89,31.93,7.8,4.58,14.9,9,21.69,13.41A722,722,0,0,1,1398.1,114.18c122.51,147.69,179.57,333.19,160.67,522.33C1540,824.14,1448.53,993,1301.19,1111.87,1172.13,1216.07,1012,1270.36,849.53,1270.36ZM130.15,569.57a701.82,701.82,0,0,0,97.43,342.7,725.25,725.25,0,0,0,42.34,63.64c6.85,9.25,14.51,19,23.43,29.89a720.18,720.18,0,0,0,254.29,195c12.43,5.66,25.16,11.05,37.84,16,241,94.15,514.35,52.8,713.38-107.9,146.56-118.28,237.55-286.21,256.21-472.85,18.81-188.13-38-372.66-159.83-519.58a718.54,718.54,0,0,0-164.85-146c-6.75-4.41-13.8-8.77-21.56-13.32-19.36-11.52-39.41-22.21-59.59-31.77a729.22,729.22,0,0,0-297.81-69.66c-16.42-.32-32.83-.06-48.79.73a720.36,720.36,0,0,0-73,7.36A710.52,710.52,0,0,0,389.72,13.36C220.56,149.86,126,352.61,130.15,569.57Z" transform="translate(986.43 224.27)"/><path class="cls-8" d="M1300,1110.41c-207,167.21-481.52,199.52-715.23,108.18q-19.15-7.5-37.93-16.06a724.15,724.15,0,0,1-255-195.54c-8.08-9.92-16-19.86-23.48-30A730.31,730.31,0,0,1,226,913.21a701.64,701.64,0,0,1-74.63-536.33,701,701,0,0,0,97.18,327.3A713.38,713.38,0,0,0,291,768c7.46,10.08,15.36,20,23.48,30A721.2,721.2,0,0,0,569.38,993.5q18.84,8.57,38,16.06c233.71,91.34,508.14,59,715.23-108.18,120.84-97.5,200.54-226.3,237.15-365.09C1568.94,750.32,1480.11,965.1,1300,1110.41Z" transform="translate(986.43 224.27)"/><path class="cls-3" d="M849.52,1282.8a741.47,741.47,0,0,1-269.92-50.86c-13-5.1-26-10.6-38.66-16.38a738.5,738.5,0,0,1-260-199.44c-9.13-11.14-17-21.12-24-30.59a741.93,741.93,0,0,1-43.26-65A718,718,0,0,1,114,569.88h0c-4.3-222,92.5-429.43,265.58-569.09A726.67,726.67,0,0,1,727.19-152.13a736.6,736.6,0,0,1,74.64-7.52c16.34-.81,33.13-1.06,49.9-.75a745.38,745.38,0,0,1,304.43,71.21c20.64,9.78,41.13,20.71,60.92,32.49,7.91,4.63,15.18,9.12,22.15,13.68a734.17,734.17,0,0,1,168.44,149.25c124.67,150.27,182.72,339,163.49,531.51-19.1,191-112.2,362.8-262.15,483.82C1177.71,1227.57,1014.76,1282.8,849.52,1282.8ZM142.59,569.33A689.39,689.39,0,0,0,238.3,905.94a709.69,709.69,0,0,0,41.6,62.53c6.75,9.12,14.29,18.73,23.07,29.44a708.16,708.16,0,0,0,249.86,191.63c12.19,5.55,24.73,10.86,37.21,15.76,236.81,92.51,505.43,51.89,701-106,144-116.18,233.32-281.1,251.64-464.4,18.48-184.8-37.29-366.07-157-510.4a705.74,705.74,0,0,0-162-143.5c-6.68-4.38-13.55-8.62-21.13-13.07-19.1-11.36-38.8-21.87-58.63-31.26a716.48,716.48,0,0,0-292.7-68.46c-16.14-.31-32.27-.06-48,.72A702.37,702.37,0,0,0,397.54,23.05C231.4,157.12,138.48,356.25,142.59,569.33Z" transform="translate(986.43 224.27)"/><path class="cls-3" d="M849.52,1283.68a742.35,742.35,0,0,1-270.24-50.93c-13-5.1-26-10.61-38.71-16.39a739.27,739.27,0,0,1-260.34-199.68c-9.15-11.16-17-21.15-24-30.63a736.29,736.29,0,0,1-43.31-65.11,718.74,718.74,0,0,1-99.81-351h0C108.81,347.62,205.73,139.94,379,.1a727.65,727.65,0,0,1,348-153.1,738.08,738.08,0,0,1,74.73-7.53c16.36-.81,33.15-1.06,50-.75A746.39,746.39,0,0,1,1156.53-90c20.67,9.79,41.19,20.73,61,32.52,7.92,4.64,15.2,9.14,22.18,13.71a735.38,735.38,0,0,1,168.64,149.41C1533.16,256.13,1591.29,445.12,1572,637.83c-19.11,191.21-112.32,363.24-262.46,484.41C1178.09,1228.39,1015,1283.68,849.52,1283.68Zm-706-714.37a688.33,688.33,0,0,0,95.59,336.18A709.45,709.45,0,0,0,280.6,968c6.75,9.1,14.28,18.71,23,29.4a707.08,707.08,0,0,0,249.54,191.39c12.18,5.54,24.7,10.84,37.17,15.74,236.53,92.41,504.81,51.84,700.13-105.86,143.77-116,233-280.75,251.32-463.81,18.45-184.57-37.25-365.6-156.83-509.75A705.08,705.08,0,0,0,1223.2-18.27c-6.68-4.36-13.54-8.61-21.11-13-19.08-11.36-38.75-21.85-58.56-31.23a716,716,0,0,0-292.34-68.38c-16.13-.3-32.22-.06-47.89.72A705.12,705.12,0,0,0,731.64-123,697.36,697.36,0,0,0,398.09,23.73C232.16,157.63,139.36,356.5,143.47,569.31Z" transform="translate(986.43 224.27)"/><path class="cls-3" d="M155.3,749.12c238,449.49,840.93,529.84,1100.11,101.55,176.33-291.38,22.27-689.2-273.24-840.84C767.09-100.54,509-115.73,247,165.82c0,0-96.34,142.49-107.59,264.79s-1.29,243.29-1.29,243.29Z" transform="translate(986.43 224.27)"/><path class="cls-13" d="M1255.39,850.67C996.23,1279,393.29,1198.58,155.29,749.13l-3.46-15.25c372.19,284.72,907.73,255.19,1178-173C1332.77,660.71,1309.79,760.74,1255.39,850.67Z" transform="translate(986.43 224.27)"/><path class="cls-3" d="M767.42,1221.18c-138.52,0-279.95-41.14-404.27-119.76l-1.89-1.42a737.69,737.69,0,0,1-81-83.32c-9.15-11.16-17-21.15-24-30.63A737.6,737.6,0,0,1,212.92,921,718.81,718.81,0,0,1,113.11,569.9h0C108.81,347.62,205.73,139.94,379,.1a727.65,727.65,0,0,1,348-153.1l1.54-.23,1.56.09c94,5.14,191.51,33.33,289.82,83.77,176.88,90.77,316.07,263.47,372.34,462,50.63,178.64,29.62,357.82-59.18,504.54-96.72,159.78-239.13,265.74-411.86,306.42A671.38,671.38,0,0,1,767.42,1221.18Zm-387-144.79c164,103.35,358.49,138.92,533.93,97.61,164.6-38.76,300.45-139.94,392.85-292.58,84.38-139.43,104.25-310.09,55.93-480.53-54-190.55-187.46-356.25-357-443.24C912.17-90.56,819.3-117.6,730.05-122.74a697.32,697.32,0,0,0-332,146.47C232.16,157.63,139.36,356.5,143.47,569.31h0a688.33,688.33,0,0,0,95.59,336.18A709.45,709.45,0,0,0,280.6,968c6.75,9.1,14.28,18.71,23,29.4A707.67,707.67,0,0,0,380.39,1076.39Z" transform="translate(986.43 224.27)"/><path class="cls-3" d="M763.38,1151c-6.1,0-12.19-.08-18.33-.26C495.8,1143.64,263.57,993,139,757.75l-1.14-2.15-18.09-80.19c-.41-5-10-124,1.31-246.49,11.56-125.58,106.64-267.46,110.68-273.43l1.78-2.24C462.65-93,717.36-146.81,990.6-6.59c158.56,81.37,283.33,236.15,333.76,414,45.43,160.25,26.55,321.06-53.16,452.78C1158.91,1045.78,974.57,1151,763.38,1151ZM172.75,742.62C291.39,965,510.87,1107.14,746.11,1113.88c205.13,5.81,385.06-93.55,493.51-272.76,74.35-122.87,91.83-273.31,49.23-423.61C1241.16,249.29,1123.36,103,973.74,26.24,717.43-105.29,477.82-54.47,261.57,177.3c-8.94,13.57-93.58,144.54-103.74,255-10.38,112.71-2.38,225.64-1.38,238.82Z" transform="translate(986.43 224.27)"/><g class="cls-5"><path class="cls-1" d="M1072.18,218S783.8,92.18,548,171.52l-.74.25a293,293,0,0,0-127.7,85.78c-45,52-68.28,94.34-87.3,132.45C274.45,505.91,269.4,571.08,269.4,571.08,232.93,476.83,229.84,388.7,277,291.67q7-14.32,15.48-29c1.29-2.25,2.62-4.46,4-6.66,0,0,0-.09.1-.12a718,718,0,0,1,53.07-69C417.25,109.26,526.55,18.41,667,20.43,929.49,24.19,1087.92,210.64,1072.18,218Z" transform="translate(986.43 224.27)"/></g><g class="cls-5"><ellipse class="cls-1" cx="1146.23" cy="600.32" rx="110.07" ry="95.82" transform="translate(1327.88 1837.78) rotate(-79.18)"/></g><g class="cls-5"><ellipse class="cls-1" cx="1107.03" cy="796.42" rx="45.47" ry="39.55" transform="translate(1194.85 2046.5) rotate(-84.51)"/></g><path class="cls-12" d="M240.51,139.68l30.36-5.06c354.25-40.48,957.49,257,1260.12,663,85.63-311.59-7.18-562.86-179.25-728.44C1063-208.69,551.24-245.44,285,78.4A651,651,0,0,0,240.51,139.68Z" transform="translate(986.43 224.27)"/><path class="cls-3" d="M1531,816a18.48,18.48,0,0,1-14.8-7.42C1229.5,424.05,637.38,111.66,273.44,152.91l-29.9,5A18.45,18.45,0,0,1,225,129.72C320.13-18.57,463.49-116.75,639.56-154.2c160.91-34.22,336.91-14.12,495.57,56.61C1296-25.87,1426.49,93.66,1502.55,239c86.27,164.82,102.25,359.67,46.23,563.49a18.42,18.42,0,0,1-14.37,13.24A18.07,18.07,0,0,1,1531,816ZM338.27,112.5c167,0,377.55,60,590.48,169.8C1168.1,405.67,1377.47,573,1522.47,756.2c99.72-427.46-151.15-708.09-402.37-820.08-270-120.36-637.92-94.44-840.27,179C298.62,113.38,318.15,112.5,338.27,112.5Z" transform="translate(986.43 224.27)"/><path class="cls-3" d="M1505.14,679.24c.5-4.22-.86-8.39-2.72-12.17-2.27-4.6-4.59-9.58-7.19-14-4.74-8-10.38-15.63-15.69-23.27-11.22-16.14-23.12-31.83-35.21-47.32-23.28-29.8-47.35-60.69-75.83-85.68-16.44-14.43-32-29.23-51.21-39.92a1.73,1.73,0,0,0-2.35,2.35,255.78,255.78,0,0,0,16,22.68c5.85,7.36,12.53,13.94,18.38,21.33,11.92,15.06,24.47,29.35,37.1,43.82Q1424,590,1457.06,636.49q9.14,12.81,18.13,25.72c3.29,4.7,7.3,8.63,10.74,13.2,3.21,4.26,6.75,7.74,11.92,9.38,3.92,1.24,6.87-2,7.29-5.55Z" transform="translate(986.43 224.27)"/><path class="cls-3" d="M1506.37,690.84c1.72-8.71,4.83-17.07,6.11-26a159.2,159.2,0,0,0,1.18-27,299.7,299.7,0,0,0-6.18-52.82c-3.55-17.25-8.38-34.6-15.37-50.8s-18.82-29.49-31.15-41.51c-1.87-1.82-5.24,0-4.46,2.6,4.68,15.62,7.63,31.82,13.19,47.22,5.67,15.74,10.8,31.47,14.24,47.88a294.37,294.37,0,0,1,5.9,47.43c.38,8.5.11,17,.53,25.52.41,8.31,1.76,17.12,1.08,25.41-.68,8.48,13.27,10.42,14.93,2Z" transform="translate(986.43 224.27)"/><g class="cls-2"><path class="cls-3" d="M240.51,139.68l30.36-5.06c354.25-40.48,957.49,257,1260.12,663,85.63-311.59-7.18-562.86-179.25-728.44l-12.4,11.69C1412.07,160,1455.89,266,1460.55,374.25c1,22.32-.16,46.15-12.71,64.47A45.85,45.85,0,0,1,1436,450.46c-19.77,13.62-35.81,32.63-45.12,54.76a30.91,30.91,0,0,1-13.74,15.64c-21.71,11.94-46.71-7.34-64.63-24.6-157-151.41-354.91-251.16-555.72-332.89C694.46,138,631.2,114,565.41,100,504,87,441.22,82.8,378.62,78.65c-30.92-2.07-62.91-4-93.58-.25A651,651,0,0,0,240.51,139.68Z" transform="translate(986.43 224.27)"/></g><g class="cls-5"><path class="cls-1" d="M881.33-103.75a455.17,455.17,0,0,1,144.76,26.84c17.88,6.45,38.72,19.76,35.32,38.46-2,11-12.5,18.77-23.39,21.1s-22.2.32-33.15-1.7c-108.47-20-218-40.47-328.22-35.49-11.7.53-25.82.15-31.86-9.89-5.15-8.57-.95-20.31,6.75-26.7s17.91-8.68,27.74-10.56a670.65,670.65,0,0,1,262.26,2.16" transform="translate(986.43 224.27)"/></g><g class="cls-5"><path class="cls-1" d="M600.81-84.94c11.8,4.49,25.41,12.37,25.06,25C625.5-46.65,609.43-39.52,596.14-40c-8.52-.31-17.36-2.6-23.53-8.48s-8.79-16-4.37-23.26c2-3.23,5-5.62,8.15-7.74,8.79-6,22.27-9.78,28.83-1.41" transform="translate(986.43 224.27)"/></g><path class="cls-1" d="M1552,969.47c-57.09,127.18-181.23,199.9-277.29,162.4s-127.65-171-70.56-298.2c.34-.81.75-1.64,1.14-2.43,57.54-125.69,180.77-197.22,276.15-160,74.21,29,109.94,115.25,96,211.62A326,326,0,0,1,1552,969.47Z" transform="translate(986.43 224.27)"/><path class="cls-8" d="M1552,969.47c-57.09,127.18-181.23,199.9-277.29,162.4s-127.65-171-70.56-298.2c.34-.81.75-1.64,1.14-2.43,4.7,17.17,15.37,36.44,39.58,40.81,42.42,7.62,149.12-46.83,149.12-46.83s79.74,24.49,183.5,57.67A326,326,0,0,1,1552,969.47Z" transform="translate(986.43 224.27)"/><path class="cls-3" d="M1327.51,1160a163.08,163.08,0,0,1-59.56-11c-42.34-16.54-74.67-49.59-93.48-95.58-27-66.12-22.38-149,12.8-227.38,61-135.81,196-213,300.86-172,42.34,16.54,74.67,49.59,93.48,95.58,27.05,66.12,22.38,149-12.81,227.37C1518.92,1088.17,1419.48,1160,1327.51,1160Zm100-480.25c-77.37,0-162.76,63.74-206.6,161.42-30.61,68.19-35.21,142.31-12.32,198.28,14.89,36.41,40,62.41,72.75,75.18a129.14,129.14,0,0,0,47.15,8.68c77.37,0,162.76-63.75,206.6-161.42h0c30.61-68.19,35.22-142.31,12.32-198.29-14.89-36.4-40-62.4-72.75-75.17A128.93,128.93,0,0,0,1427.55,679.79Z" transform="translate(986.43 224.27)"/><ellipse class="cls-1" cx="1424.27" cy="945.17" rx="200.67" ry="151.7" transform="translate(884.37 1938.99) rotate(-60.33)"/><path class="cls-3" d="M1385.17,1137c-1.57,0-3.13,0-4.69-.08-36.8-1.24-68.21-16.86-90.82-45.16-54.38-68.06-38.42-189.18,35.59-270,41.25-45.05,93.3-69.88,142.81-68.26,36.8,1.24,68.21,16.86,90.83,45.17,54.38,68.06,38.41,189.17-35.6,270h0C1483.34,1112.24,1433.26,1137,1385.17,1137Zm78.2-379.69c-47,0-96,24.25-135.28,67.07-72.77,79.47-88.66,198.33-35.42,265,21.89,27.4,52.3,42.51,87.94,43.71,48.34,1.65,99.34-22.79,139.84-67h0c72.78-79.46,88.66-198.32,35.42-265-21.89-27.39-52.3-42.51-87.94-43.71C1466.41,757.28,1464.89,757.26,1463.37,757.26Z" transform="translate(986.43 224.27)"/><path class="cls-8" d="M1258.47,964.46c6.5-37.44,23.44-73.17,46.92-103.36-7.55,86.66,48,148.1,130.16,139.73,53.07-5.38,105-38.72,141.29-85.46-.44,5.47-1.21,11.09-2.19,16.77-16.61,95.33-100.86,179.85-188.18,188.77S1241.87,1059.74,1258.47,964.46Z" transform="translate(986.43 224.27)"/><path class="cls-3" d="M1378.44,1153.11a119.9,119.9,0,0,1-42.91-7.72c-31.59-12.05-55.81-36.71-70-71.31-21.94-53.34-17-124.83,13.08-191.24,50.83-112.06,158.58-177.9,240.16-146.78,31.6,12.05,55.81,36.71,70,71.31,22,53.34,17,124.83-13.07,191.25C1533.4,1091.86,1451.69,1153.11,1378.44,1153.11Zm96-388.15c-58.49,0-126,53.22-162.23,133.13-26,57.31-30.69,117.85-12.55,161.95,10.26,25,27.22,42.53,49.06,50.86a87.23,87.23,0,0,0,31.17,5.6c58.48,0,126-53.22,162.22-133.13h0c26-57.32,30.7-117.86,12.56-162-10.26-24.95-27.22-42.53-49.06-50.86A87,87,0,0,0,1474.41,765Z" transform="translate(986.43 224.27)"/><path class="cls-4" d="M101.34,606.94V770.4L136.26,796a21,21,0,0,0,12.45,4.1H181.5a21,21,0,0,0,21.06-21.06V588.37a21,21,0,0,0-21.06-21.06H150.43a21,21,0,0,0-14.73,6Z" transform="translate(986.43 224.27)"/><g class="cls-5"><path class="cls-1" d="M106.4,627.18v40.49l34.36-33.6a21,21,0,0,1,14.73-6h31.07a21,21,0,0,1,16,7.39V595a21,21,0,0,0-16-7.39H155.49a21,21,0,0,0-14.73,6Z" transform="translate(986.43 224.27)"/></g><g class="cls-2"><path class="cls-3" d="M148.72,732.73H181.5c11.63,0,21.06-7.32,21.06-16.34v47.14c0,9-9.43,16.33-21.06,16.33H148.72a25.39,25.39,0,0,1-12.45-3.16l-34.93-19.9V709.66l34.93,19.9A25.29,25.29,0,0,0,148.72,732.73Z" transform="translate(986.43 224.27)"/></g><path class="cls-3" d="M181.5,812.76H148.72a33.52,33.52,0,0,1-19.94-6.53L93.86,780.59a12.64,12.64,0,0,1-5.17-10.2V606.94a12.64,12.64,0,0,1,3.8-9l34.35-33.62a33.52,33.52,0,0,1,23.57-9.62H181.5a33.74,33.74,0,0,1,33.71,33.7v190.7A33.74,33.74,0,0,1,181.5,812.76ZM114,764l29.76,21.85a8.38,8.38,0,0,0,5,1.63H181.5a8.41,8.41,0,0,0,8.41-8.4V588.36A8.41,8.41,0,0,0,181.5,580H150.41a8.38,8.38,0,0,0-5.87,2.39L114,612.26Z" transform="translate(986.43 224.27)"/><path class="cls-1" d="M-29.18,114.76A213.45,213.45,0,0,0,1.1-18.79C-11-136.58-116.29-222.26-234.07-210.16S-437.54-92.78-425.44,25s117.38,203.47,235.16,191.37a213.39,213.39,0,0,0,89.41-30l99.22,22.25Z" transform="translate(986.43 224.27)"/><g class="cls-5"><path class="cls-1" d="M-229.86-169.14C-119.83-180.44-20.73-106.41,1.7-.6A215.11,215.11,0,0,0,.61-23.47C-11.48-141.26-116.77-226.94-234.55-214.84S-438-97.46-425.92,20.32a216.53,216.53,0,0,0,3.58,22.73C-421.93-65.16-339.92-157.84-229.86-169.14Z" transform="translate(986.43 224.27)"/></g><path class="cls-3" d="M-212.6,230.49a225.6,225.6,0,0,1-143.08-51A225.86,225.86,0,0,1-438.34,26.33,225.89,225.89,0,0,1-388.52-140.4a225.86,225.86,0,0,1,153.13-82.66C-110.65-235.88,1.19-144.82,14-20.12A225.22,225.22,0,0,1-15.15,116.53L10.78,205a13,13,0,0,1-3,12.52,12.93,12.93,0,0,1-12.3,3.78l-94.2-21.12a225.08,225.08,0,0,1-90.26,29.12A229.43,229.43,0,0,1-212.6,230.49Zm.81-428.83a205.21,205.21,0,0,0-21,1.08A200.07,200.07,0,0,0-368.4-124,200.08,200.08,0,0,0-412.54,23.68a200.09,200.09,0,0,0,73.23,135.66A200.06,200.06,0,0,0-191.6,203.47a199.32,199.32,0,0,0,84-28.18A13,13,0,0,1-98,173.72l77.74,17.43-21.34-72.74A13,13,0,0,1-40.25,108,199.62,199.62,0,0,0-11.8-17.47,200.12,200.12,0,0,0-85-153.12,199.89,199.89,0,0,0-211.79-198.34Z" transform="translate(986.43 224.27)"/><g class="cls-14"><path class="cls-3" d="M-28,112.7a247.37,247.37,0,0,1-220,51.43C-337,142-402.67,74.11-426.28-8.23A215.43,215.43,0,0,0-425.44,25c12.09,117.79,117.38,203.47,235.16,191.37a213.39,213.39,0,0,0,89.41-30l99.22,22.25-27.53-93.86C-28.77,114.08-28.39,113.39-28,112.7Z" transform="translate(986.43 224.27)"/></g><path class="cls-15" d="M-113.93-34.53a106.75,106.75,0,0,1,3.36,13.07c-19.08,12.18-55.86,28.11-99.24,42.14s-82.51,22.68-105.11,24a110.33,110.33,0,0,1-4.94-12.56c-.06-.21-.13-.41-.19-.61q-.92-2.88-1.66-5.76A108.91,108.91,0,0,1-324.3,12.2c0-.18-.05-.36-.07-.54a106.86,106.86,0,0,1-.54-20,108.12,108.12,0,0,1,8.75-36,108,108,0,0,1,66-59.86,108,108,0,0,1,87.89,9.51,108.27,108.27,0,0,1,28.07,23.54,107.84,107.84,0,0,1,11.47,16.45c.28.48.54.95.8,1.43a107.64,107.64,0,0,1,5.82,12.48c.63,1.61,1.23,3.24,1.78,4.89C-114.22-35.44-114.07-35-113.93-34.53Z" transform="translate(986.43 224.27)"/><path class="cls-16" d="M-110.87,20.56a105.89,105.89,0,0,1-3.47,12.79,107.73,107.73,0,0,1-7.41,17,107.84,107.84,0,0,1-61.83,51.4A107.83,107.83,0,0,1-264,96.23a109,109,0,0,1-15.25-9,107.94,107.94,0,0,1-10.86-8.72c27.13-3.67,58.82-11,92-21.68S-135,33.47-110.87,20.56Z" transform="translate(986.43 224.27)"/><path class="cls-16" d="M-110.57-21.46C-129.65-9.28-166.43,6.65-209.8,20.68s-82.52,22.67-105.12,24a111.06,111.06,0,0,1-4.94-12.56c-.07-.21-.13-.41-.19-.61q-.92-2.88-1.65-5.76a106.81,106.81,0,0,1-2.6-13.53c0-.18-.05-.36-.06-.54a107.73,107.73,0,0,1-.55-20,108.36,108.36,0,0,1,8.75-36A108,108,0,0,1-267-97.15a108.21,108.21,0,0,0-15.67,25.63,108.06,108.06,0,0,0-8.75,36,106.84,106.84,0,0,0,.54,20c0,.18.05.37.07.55s.08.54.14.89C-287.35,5-268.36,15.06-249,15.56c37,1,121.14-32.62,139.14-40.53C-109-22-111.14-24.45-110.57-21.46Z" transform="translate(986.43 224.27)"/><path class="cls-17" d="M-293.11-44.42" transform="translate(986.43 224.27)"/><path class="cls-18" d="M-198.1,56.86c33.15-10.72,63.1-23.39,87.23-36.3a105.89,105.89,0,0,1-3.47,12.79C-133,43.94-162.26,56.31-196,67.21-228.25,77.66-258,84.63-279.21,87.26a107.94,107.94,0,0,1-10.86-8.72C-262.94,74.87-231.25,67.59-198.1,56.86Z" transform="translate(986.43 224.27)"/><path class="cls-18" d="M-114.38-35.89c.16.45.31.9.45,1.36a106.75,106.75,0,0,1,3.36,13.07c-19.08,12.18-55.86,28.11-99.24,42.14s-82.51,22.68-105.11,24a110.33,110.33,0,0,1-4.94-12.56c-.06-.21-.13-.41-.19-.61,21.29,0,61.06-8.11,105.27-22.42C-168.82-5.8-130.64-23.25-114.38-35.89Z" transform="translate(986.43 224.27)"/><path class="cls-18" d="M-325.51-4.7l1.19-7.2C-309.75-9.5-270-17.37-227.76-31-177.32-47.37-144-64.71-137.11-73.4l5.72,4.52c-9.08,11.5-46.91,29.49-94.12,44.77C-269.47-9.89-309.66-2.09-325.51-4.7Z" transform="translate(986.43 224.27)"/><path class="cls-18" d="M-316-40.68l-.26-7.29c16.76-.6,46.45-7.21,77.47-17.25,32.52-10.52,61-22.94,74.38-32.43l4.23,6C-174.14-81.82-203.4-69-236.57-58.28-268.2-48-298.64-41.3-316-40.68Z" transform="translate(986.43 224.27)"/><path class="cls-18" d="M-324.79,15.28l.85-7.25c16.81,2,57.86-6.33,102.14-20.66,46.45-15,86.07-33.34,96.34-44.52l5.37,4.93C-131.3-40-171.27-21.31-219.55-5.69-265.45,9.16-306.76,17.39-324.79,15.28Z" transform="translate(986.43 224.27)"/><path class="cls-18" d="M-264,98.06l.07-1.82-.66-1.71.35-.13h.39c14.66.59,43.4-5.27,73.21-14.91,30-9.7,56-21.43,67.81-30.6l2.23,2.89C-132.79,61.2-159.2,73.15-189.55,83-220.2,92.89-248.74,98.67-264,98.06Z" transform="translate(986.43 224.27)"/><path class="cls-3" d="M-216.79,111.79a113.42,113.42,0,0,1-76.53-29.7l-7.57-6.94,10.18-1.38c27.81-3.77,59.32-11.19,91.13-21.49s61.7-22.73,86.44-36l9.06-4.85-2.07,10.06a113.32,113.32,0,0,1-75.94,84.79A112.55,112.55,0,0,1-216.79,111.79Zm-61.89-30.08a103.74,103.74,0,0,0,93.62,15.45A103.66,103.66,0,0,0-118.24,29.8a566.46,566.46,0,0,1-78.38,31.64A565.3,565.3,0,0,1-278.68,81.71Z" transform="translate(986.43 224.27)"/><path class="cls-19" d="M-50.79-38.85c4.88,15.09-19.32,37.6-60.08,59.41C-135,33.47-164.95,46.14-198.1,56.86s-64.84,18-92,21.68c-45.81,6.2-78.61,2.13-83.49-13C-378,51.89-358.44,32.07-324.3,12.2a108.91,108.91,0,0,0,2.59,13.53c-9.51,6.15-14.43,11.32-13.31,14.78s8.41,4.82,20.1,4.15c22.6-1.3,61.74-9.94,105.11-24s80.16-30,99.24-42.14c9.87-6.31,15-11.61,13.86-15.14s-8.14-4.77-19.45-4.18A107.64,107.64,0,0,0-122-53.26C-82.67-57.16-55.22-52.55-50.79-38.85Z" transform="translate(986.43 224.27)"/><path class="cls-20" d="M-322.16,23.91c.15.61.3,1.21.46,1.82C-331.22,31.88-336.15,37-335,40.51s8.42,4.82,20.11,4.15c15-.86,37.27-5,63.23-11.72a15.64,15.64,0,0,0-.7,6.11c-10,2.48-19.67,4.58-28.81,6.26-39.7,7.3-59.66,4.81-61.41-.61C-343.64,41.54-338.77,34.44-322.16,23.91Z" transform="translate(986.43 224.27)"/><path class="cls-16" d="M-324.41,18.36l.78,1.25A165.88,165.88,0,0,0-343.88,33.7C-339.92,29.1-333.45,24-324.41,18.36Z" transform="translate(986.43 224.27)"/><path class="cls-16" d="M-322.85,20.85l-.78-1.24a5.5,5.5,0,0,1,.48-.28Z" transform="translate(986.43 224.27)"/><path class="cls-20" d="M-343.88,33.7c-4.15,4.79-5.57,9-4.34,12.83s4.74,6.09,9.87,7.53c13.37,3.74,37.48.88,58.22-3,9.39-1.72,19.33-3.89,29.62-6.44a19.16,19.16,0,0,0,7.7,6.62c-15.22,3.86-29.9,6.92-43.58,9.08-48.76,7.7-68.85,1.76-71.26-5.67C-359,50.58-355.52,43.38-343.88,33.7Z" transform="translate(986.43 224.27)"/><path class="cls-20" d="M-200.14,57.52c-32.41,10.37-63.36,17.42-89.93,21-45.81,6.21-78.61,2.13-83.49-13C-378,51.89-358.44,32.07-324.3,12.2c.17,1.34.37,2.68.59,4l-1.51-2.55c-19.86,11.82-42.58,28.85-38,42.84,1.75,5.41,7,8.83,14.22,10.86,17,4.76,45,1.76,63.57-1.18A510.11,510.11,0,0,0-233,54.84C-224.42,57-213.26,57.86-200.14,57.52Z" transform="translate(986.43 224.27)"/><path class="cls-21" d="M-250.51,44.67c-10.29,2.55-20.23,4.72-29.62,6.44-20.74,3.83-44.85,6.69-58.22,3-5.13-1.44-8.68-3.84-9.87-7.53s.19-8,4.34-12.83a165.88,165.88,0,0,1,20.25-14.09l.78,1.24c.22,1,.45,2,.69,3.06-16.61,10.53-21.48,17.63-20.45,20.79,1.75,5.42,21.71,7.91,61.41.61,9.14-1.68,18.8-3.78,28.81-6.26a12.44,12.44,0,0,0,.56,2.79A12.77,12.77,0,0,0-250.51,44.67Z" transform="translate(986.43 224.27)"/><path class="cls-22" d="M-323.63,19.61A165.88,165.88,0,0,0-343.88,33.7c4-4.6,10.43-9.7,19.47-15.34Z" transform="translate(986.43 224.27)"/><path class="cls-22" d="M-322.85,20.85l1.57,2.5c-.3.19-.6.37-.88.56C-322.4,22.89-322.63,21.88-322.85,20.85Z" transform="translate(986.43 224.27)"/><path class="cls-22" d="M-135,4.16A601.33,601.33,0,0,1-206.16,32c-15.09,4.88-30.05,9.16-44.35,12.7a12.77,12.77,0,0,1-1.32-2.83,12.44,12.44,0,0,1-.56-2.79c14.3-3.52,29.29-7.8,44.42-12.7A592.43,592.43,0,0,0-137.52-1.18c36.45-17.34,51.17-31.06,49.43-36.46-1-3.23-9.42-6.18-29.8-4.8l-.29-4.43-.11-1.47c10.68-.72,18.94-.39,24.85,1,6.12,1.46,9.73,4.08,11,7.85C-78.16-26.11-108.65-8.37-135,4.16Z" transform="translate(986.43 224.27)"/><path class="cls-21" d="M-233,54.84A510.11,510.11,0,0,1-285.47,66.2C-304.09,69.14-332,72.14-349,67.38c-7.22-2-12.47-5.45-14.22-10.86-4.54-14,18.18-31,38-42.84l1.51,2.55c.17,1,.35,2.07.56,3.1a5.5,5.5,0,0,0-.48.28l-.78-1.25c-9,5.64-15.51,10.74-19.47,15.34-11.64,9.68-15.1,16.88-13.77,21,2.41,7.43,22.5,13.37,71.26,5.67,13.68-2.16,28.36-5.22,43.58-9.08A44.16,44.16,0,0,0-233,54.84Z" transform="translate(986.43 224.27)"/><path class="cls-20" d="M-324.41,18.36l.78,1.25A165.88,165.88,0,0,0-343.88,33.7C-339.92,29.1-333.45,24-324.41,18.36Z" transform="translate(986.43 224.27)"/><path class="cls-22" d="M-323.71,16.23l1.51,2.52-.95.58C-323.36,18.3-323.54,17.27-323.71,16.23Z" transform="translate(986.43 224.27)"/><path class="cls-22" d="M-121.82,13.26c-23,11.68-50.66,22.86-79.93,32.33-10.51,3.41-21,6.5-31.27,9.25a44.16,44.16,0,0,1-9.79-3.55c12.81-3.24,26-7,39.25-11.32,29-9.38,56.32-20.43,79.07-32,44-22.33,56.83-38.92,54.44-46.34-1.34-4.11-8.33-7.92-23.39-9a165.7,165.7,0,0,0-24.74.44l-1.67.14-.52-5.88c23-2,51.41-1.55,55.93,12.44C-58.55-22-97.86,1.1-121.82,13.26Z" transform="translate(986.43 224.27)"/><path class="cls-3" d="M-327.54,86.16c-23.36,0-45.76-4.14-50.6-19.09-6.9-21.32,29.26-46.14,51.42-59l6.29-3.66.91,7.22A101.5,101.5,0,0,0-317,24.52l.88,3.37-2.92,1.88c-7.53,4.87-10.07,7.82-10.9,9.11,1.46.57,5.4,1.52,14.79,1,22.91-1.32,62.72-10.42,103.91-23.75s78.81-29.28,98.12-41.62c8-5.07,10.58-8.13,11.43-9.45-1.43-.56-5.2-1.47-14.17-1l-3.47.18L-120.64-39a103.19,103.19,0,0,0-5.56-11.92l-3.49-6.38,7.24-.72c25.5-2.53,69.34-3.6,76.24,17.72C-38.59-16.78-82,10.59-108.6,24.8c-25.23,13.51-55.67,26.18-88,36.64s-64.43,18-92.8,21.87A292.15,292.15,0,0,1-327.54,86.16ZM-327.93,20C-361.86,40.8-371.39,56.63-369,64.1c3.13,9.67,28.55,16.41,78.27,9.67,27.81-3.77,59.32-11.19,91.13-21.49s61.7-22.73,86.44-36c44.25-23.68,60.9-44,57.77-53.69h0c-2.42-7.46-19.4-14.71-59.11-11.71.52,1.11,1,2.24,1.5,3.37,12.69-.24,19.08,2.15,20.85,7.63,2,6-2.93,12.42-15.85,20.68-20.26,12.94-57.78,28.89-100.34,42.66s-82.3,22.82-106.32,24.2c-15.33.89-23-1.42-25-7.47-2.19-6.78,4.92-13.23,12.43-18.4C-327.45,22.39-327.7,21.19-327.93,20Z" transform="translate(986.43 224.27)"/><g class="cls-23"><path class="cls-1" d="M-110.58-21.09c-2.23,1.42-4.68,2.88-7.37,4.4-.68-2.94-1.5-5.89-2.44-8.81l-.45-1.35q-.84-2.47-1.78-4.89a111.06,111.06,0,0,0-5.82-12.48c-.26-.48-.53-1-.8-1.43A107.19,107.19,0,0,0-140.72-62.1a108.27,108.27,0,0,0-28.07-23.54,108,108,0,0,0-87.89-9.51,107.7,107.7,0,0,0-50.11,34,107.75,107.75,0,0,1,56.57-42.7,108,108,0,0,1,87.88,9.51,108.15,108.15,0,0,1,28.08,23.55,107.25,107.25,0,0,1,11.47,16.44c.28.48.54,1,.8,1.44a106.73,106.73,0,0,1,5.82,12.47q.94,2.41,1.78,4.89c.16.45.31.9.45,1.36A110.5,110.5,0,0,1-110.58-21.09Z" transform="translate(986.43 224.27)"/></g><path class="cls-3" d="M-317.9,49.65l-1.38-2.95a114.19,114.19,0,0,1-5.16-13.12c-.71-2.22-1.36-4.43-1.93-6.65a112.86,112.86,0,0,1-2.7-14.13,113.05,113.05,0,0,1,77.38-121.56A113.08,113.08,0,0,1-117.76-55.57a110.26,110.26,0,0,1,6.08,13c.84,2.12,1.62,4.3,2.33,6.51h0a113.67,113.67,0,0,1,3.51,13.66l.6,3.2L-108-17.4c-20.26,12.94-57.78,28.89-100.34,42.66s-82.3,22.82-106.32,24.2Zm101-154.29a103,103,0,0,0-31.82,5A103.42,103.42,0,0,0-319.52,11.6,101.5,101.5,0,0,0-317,24.52q.8,3.06,1.77,6.1c1,3.06,2.12,6.07,3.38,9,23.3-1.94,61.33-10.81,100.61-23.52S-136-11.7-116-23.77c-.7-3.11-1.55-6.22-2.54-9.28h0q-1-3-2.13-6a101.94,101.94,0,0,0-5.56-11.94A103.42,103.42,0,0,0-216.91-104.64Z" transform="translate(986.43 224.27)"/></svg>