<svg id="Layer_8" data-name="Layer 8" xmlns="http://www.w3.org/2000/svg" viewBox="0 0 2805.76 2594.23"><defs><style>.cls-1{fill:#fff;}.cls-2{fill:#371a45;}.cls-3{opacity:0.25;}.cls-4{fill:#982e20;}.cls-5{opacity:0.35;}.cls-6{fill:#b4c2d1;}.cls-7{fill:#220f2d;}.cls-8{opacity:0.5;}.cls-9{fill:#009eff;}.cls-10{opacity:0.6;}.cls-11{fill:#feda24;}.cls-12{opacity:0.3;}.cls-13{fill:#ffb200;}.cls-14{fill:#ff9100;}.cls-15{fill:none;stroke:#293856;stroke-linecap:round;stroke-miterlimit:10;stroke-width:8.94px;}.cls-16{fill:#d66b09;}.cls-17{fill:#ffd766;}.cls-18{fill:#ffaa39;}.cls-19{fill:#ffcf6e;}.cls-20{fill:#ffec90;}</style></defs><path class="cls-1" d="M1177.64,863.52l-45,289.64c-3.65.14-7.35.29-11,.34-297,7.6-508.35-204-457.35-520.74l123.65-19.53,139.45,89.59.85.5,3.75,2.39Z" transform="translate(643.55 359.97)"/><path class="cls-2" d="M1105.87,1165.79c-145.4,0-270.87-51.48-355.54-146.46C662.66,921,627.87,783,652.38,630.84a12.06,12.06,0,0,1,10-10l123.67-19.52a12.22,12.22,0,0,1,8.41,1.77l389.68,250.29a12,12,0,0,1,5.4,12l-45,289.64a12.06,12.06,0,0,1-11.4,10.19Q1119.41,1165.79,1105.87,1165.79Zm-431-522.51c-20.69,141.44,12.36,269,93.48,360,83.13,93.26,208.53,142.15,353.9,138.16l42.27-272.06L785.3,625.85Z" transform="translate(643.55 359.97)"/><path class="cls-2" d="M825.39,1082.37a12,12,0,0,1-6.84-22c132-90.49,145.68-244.33,142.1-328a12.06,12.06,0,0,1,11.54-12.55h.53a12.06,12.06,0,0,1,12,11.53c6.54,153-47.64,276.94-152.56,348.87A12,12,0,0,1,825.39,1082.37Z" transform="translate(643.55 359.97)"/><g class="cls-3"><path class="cls-2" d="M1121.64,1153.5c-297,7.6-508.35-204-457.35-520.74l123.65-19.53,139.45,89.59-1.3-6.19c.75,2.24,1.45,4.44,2.15,6.69l3.75,2.39A303.35,303.35,0,0,1,940.54,765l-2.4-11.44a256.85,256.85,0,0,1-6.8,87.55c-8.45,32.8-23.55,64.81-22.3,98.67,1.4,38.85,25,74.51,56.1,97.88s69.05,35.95,107.05,44.29c22.35,4.9,48.9,11.74,56.3,33.36C1132.84,1128,1128.64,1141.62,1121.64,1153.5Z" transform="translate(643.55 359.97)"/></g><path class="cls-1" d="M1544,1603.19c-178,92.54-243.9,329.89-330.3,515.06a62.17,62.17,0,0,1-22.85,26.47c-59.1,37.6-210.35,46.84-297.85,14.68A78.84,78.84,0,0,1,843.24,2103a72,72,0,0,1,10.3-56.28c14.5-21.67,38.1-33.41,69.1-29.61,23.6-215.54,89.2-352.16,174.35-452a736.24,736.24,0,0,1,69.4-70.61Z" transform="translate(643.55 359.97)"/><path class="cls-2" d="M1024.32,2191c-49.09,0-98.13-6.56-135.48-20.28a90.43,90.43,0,0,1-55.14-57.08,84.53,84.53,0,0,1,9.81-73.63c15.53-23.3,39.3-35.71,67.79-35.71H912c27.13-230.82,103.38-391.2,246.38-518.89a12,12,0,0,1,11.38-2.6l377.62,108.78a12,12,0,0,1,2.23,22.26c-139,72.3-208.18,236.37-275,395-16.11,38.23-32.77,77.76-49.89,114.45a74.35,74.35,0,0,1-27.32,31.51C1160.3,2178.43,1092.28,2191,1024.32,2191Zm-113-162.6c-20.42,0-36.81,8.52-47.78,25a60.61,60.61,0,0,0-6.94,52.8,66.46,66.46,0,0,0,40.53,41.94c81.91,30.09,229.52,23.12,287.19-13.57a50.34,50.34,0,0,0,18.42-21.36c16.92-36.29,32.75-73.85,49.51-113.62,64.49-153.06,131-311,261-392.68l-343.86-99.05c-93.59,84.79-203,220.09-234.83,510.54A12.07,12.07,0,0,1,921.16,2029,81,81,0,0,0,911.36,2028.41Z" transform="translate(643.55 359.97)"/><path class="cls-2" d="M931.26,2008.65c13.42,15.29,32.83,25.48,54.09,31s44.14,7.12,66.95,6.88h0a5.52,5.52,0,0,1,.63,11c-23.33,2.43-47.22,3.2-71.28-.71a147.9,147.9,0,0,1-35.6-10.34,114.74,114.74,0,0,1-32.08-21l-.1-.09a12.07,12.07,0,0,1,16.51-17.62C930.72,2008.06,931,2008.36,931.26,2008.65Z" transform="translate(643.55 359.97)"/><path class="cls-2" d="M1211,1889.54c-93.64,0-184.72-28.67-250.48-81.92a12.05,12.05,0,1,1,15.2-18.71c87.71,71,224,95.24,347.3,61.71a12,12,0,1,1,6.34,23.25A451.72,451.72,0,0,1,1211,1889.54Z" transform="translate(643.55 359.97)"/><g class="cls-3"><path class="cls-2" d="M1544,1603.19c-178,92.54-243.9,329.89-330.3,515.06a62.17,62.17,0,0,1-22.85,26.47c-59.1,37.6-210.35,46.84-297.85,14.68A78.84,78.84,0,0,1,843.24,2103c55,31.66,121.55,43.89,183.65,30,18.85-4.24,40.2-13.88,43.4-32.91,3.1-18.23-13.35-34.76-31-40.25s-36.7-3.54-55.15-5.19-38.5-8.59-46.85-25.12a150.65,150.65,0,0,0,120.25,11.59c40.5-13.59,73.55-44.2,97.7-79.41s40.35-75.15,56.35-114.75c15.75-38.9,31.7-78.35,36.85-120.05s-1.55-86.49-27.35-119.65c-28.35-36.51-79.25-51.79-124-42.15a736.24,736.24,0,0,1,69.4-70.61Z" transform="translate(643.55 359.97)"/></g><path class="cls-4" d="M1452.49,645.51c1-.11,2-.23,3-.37-.59.37-1.19.71-1.78,1.08C1452.89,645.72,1452.49,645.51,1452.49,645.51Z" transform="translate(643.55 359.97)"/><path class="cls-1" d="M2086.93,1449.27c-16.81,18.66-41.86,33.65-70.65,45.63-100.91,42-247.85,47.47-247.85,47.47l-174-674.19L1570,773.41c10.9,2.2,265-15.27,408.18,42.74C2097.6,864.55,2168.67,1358.48,2086.93,1449.27Z" transform="translate(643.55 359.97)"/><g class="cls-3"><path class="cls-2" d="M2086.93,1449.27c-16.81,18.66-41.86,33.65-70.65,45.63-1.29.54-2.59,1.08-3.9,1.58-1.83.76-3.66,1.48-5.52,2.17-2.1.83-4.23,1.64-6.4,2.41-1.33.48-2.66,1-4,1.47q-8.31,2.9-16.92,5.59c-2.46.76-5,1.53-7.46,2.26l-2.14.63c-1.7.5-3.39,1-5.12,1.47l-1.76.48c-2.83.79-5.66,1.54-8.52,2.3-5.69,1.49-11.39,2.88-17.13,4.22-1.43.33-2.87.66-4.27,1-2.87.63-5.74,1.27-8.58,1.88l-4.27.91c-1.41.3-2.85.57-4.25.87-3.41.71-6.8,1.35-10.15,2-1.65.31-3.27.63-4.91.92q-9.3,1.73-18.35,3.17c-1.38.24-2.73.45-4.08.65l-2,.31c-1.08.19-2.16.35-3.24.51-2.38.37-4.72.73-7,1.06l-7,1q-9.82,1.37-19,2.46c-2.37.3-4.72.57-7,.81s-4.69.54-7,.78c-1.75.2-3.46.37-5.12.54-2.53.28-5,.5-7.41.75l-3,.28c-25.83,2.41-42.37,3-42.37,3l-174-674.19c9.35-.3,18.1-.5,26.09-.65,30.7-.57,50.48-.29,50.48-.29s152-38.49,181.08,16.44c46.8,88.26,66.63,150.2,113.78,286.39q7.19,20.81,13.62,41.4c10.32,33.12,52.89,43.24,76.26,17.58l.44-.49c27.73-30.81,37.87-108,34.49-198.57C2129.92,1192.05,2136.36,1394.36,2086.93,1449.27Z" transform="translate(643.55 359.97)"/></g><g class="cls-5"><path class="cls-2" d="M1596.19,773.27l24.33,94.26c-8,.15-16.74.35-26.09.65L1570,773.41C1571.89,773.8,1581.27,773.56,1596.19,773.27Z" transform="translate(643.55 359.97)"/></g><path class="cls-2" d="M1768.43,1554.3a11.93,11.93,0,0,1-.44-23.85c2.38-.09,238.56-9.74,310-89.15,41.16-45.72,42.76-228,3.5-398.06-27.48-119-67.8-199.8-107.85-216-117.17-47.46-314.62-43.33-379.5-42-19.9.42-23.67.45-26.55-.13a11.93,11.93,0,0,1,4.22-23.48c2.29.16,11.79,0,21.83-.24,66.12-1.38,267.26-5.58,389,43.72,65.68,26.6,104.73,157.25,122.16,232.77,37,160.15,43.71,360.8-9,419.37-78.24,86.9-316.81,96.67-326.92,97ZM1572,761.65l.36.07Z" transform="translate(643.55 359.97)"/><path class="cls-2" d="M1996.08,836.81a265.32,265.32,0,0,0-36.51,4.07c-12.31,2.16-24.6,4.89-36.76,8.25s-24.24,7.18-36.07,11.77c-11.93,4.38-23.56,9.55-35.14,15,10.71-6.92,21.61-13.7,32.94-19.74,11.25-6.25,22.93-11.69,34.77-16.91s24-9.66,36.47-13.66a281.12,281.12,0,0,1,38.63-9.73,10.57,10.57,0,1,1,3.51,20.84,9.62,9.62,0,0,1-1.4.14Z" transform="translate(643.55 359.97)"/><path class="cls-1" d="M2111.45,1163.46l-122.56,29a24.63,24.63,0,0,0-19,23.43c-.88,41.11,2,136.17,45.82,160.77,36.37,20.41,88.35,9.09,115-21.77,29.76-34.51,18.59-126.43,10.84-171.58A24.7,24.7,0,0,0,2111.45,1163.46Z" transform="translate(643.55 359.97)"/><g class="cls-5"><path class="cls-2" d="M1969.89,1215.88c-.91,41.1,2,136.17,45.82,160.75,36.38,20.42,88.34,9.1,115-21.77,18.29-21.24,21.11-64.18,18.76-104.59-2.43,20.76-8.63,38.29-17.86,50.61-52.87,70.58-110.92,6.46-110.92,6.46S2015.32,1326,2009,1328c-26.34,8.39-34.18-76.88-37.21-121.1A23.93,23.93,0,0,0,1969.89,1215.88Z" transform="translate(643.55 359.97)"/></g><path class="cls-2" d="M2057.37,1398.87c-16.74,0-33.24-3.82-47.52-11.84-47.8-26.83-53-118.92-51.92-171.42a36.61,36.61,0,0,1,28.21-34.78l122.56-29a36.63,36.63,0,0,1,44.56,29.43c10.82,63,17.26,145.64-13.55,181.38C2119.55,1386,2088.05,1398.87,2057.37,1398.87Zm56.83-223.8-122.56,29a12.71,12.71,0,0,0-9.82,12.07c-1.7,79.08,13.16,135.2,39.73,150.12,30.52,17.12,76.34,8.36,100-19.15,18.75-21.74,21.78-82.22,8.12-161.78a12.75,12.75,0,0,0-15.52-10.24Z" transform="translate(643.55 359.97)"/><path class="cls-2" d="M2076.84,1394.34a47.28,47.28,0,0,1-6.28-3c-1.82-1-3.59-2.09-5.26-3.24a86.44,86.44,0,0,1-9.52-7.33A103.48,103.48,0,0,1,2040,1363.5a131.3,131.3,0,0,1-19.9-40.53c-4.22-14.28-6.39-28.82-7.82-43.17-.71-7.21-1.16-14.45-1.24-21.69s.1-14.5,1.54-21.57c-.57,7.16.22,14.32,1.09,21.39s2.26,14.09,3.82,21c3.14,14,7,27.61,12.51,40.34a118.16,118.16,0,0,0,22.19,34.11,86.4,86.4,0,0,0,14.92,12.82,67.54,67.54,0,0,0,8.22,4.85c1.39.74,2.79,1.34,4.19,1.92a27.13,27.13,0,0,0,3.62,1.23,10.61,10.61,0,1,1-3.74,20.88,10.86,10.86,0,0,1-1.92-.53Z" transform="translate(643.55 359.97)"/><g class="cls-5"><path class="cls-2" d="M1683.05,1638.36c1.26-.63,2.49-1.22,3.64-1.78C1686.69,1636.58,1684.45,1638.51,1683.05,1638.36Z" transform="translate(643.55 359.97)"/></g><path class="cls-1" d="M1772.64,2176.88c-42.4,0-75.15-17.83-94.2-44.05-30.45-41.7-26.1-104.67,29.2-150.71-50.9-75.31-96.4-154.76-137.65-237.65v0q-27.37-55-52.35-111.86c-113.05-.15-207.85-33.26-280-93.59-115.85-96.68-173.5-263.37-155-475.7L1125.19,918l527.45-54.43c75.9,7.64,146.95,63.52,200.5,154.7,34.95,59.43,62.4,133.89,78.95,219.78,3.75,19.52,7,39.7,9.55,60.37a1067.53,1067.53,0,0,1,7.35,163.45,334.4,334.4,0,0,0,4.6,67.76c24.6,141.88,69,284.45,129,427.57C2132.64,2062,2002.64,2181.87,1772.64,2176.88Z" transform="translate(643.55 359.97)"/><g class="cls-3"><path class="cls-2" d="M1932.09,1238a159.92,159.92,0,0,1-53.2,39.1c-50.9,23.07-108.8,23.07-164.7,22.72,60-14.28,112.55-57.33,138.25-113.36,24.15-52.53,24.2-115.45.7-168.24C1888.09,1077.65,1915.54,1152.11,1932.09,1238Z" transform="translate(643.55 359.97)"/></g><g class="cls-3"><path class="cls-2" d="M1772.64,2176.88c-42.4,0-75.15-17.83-94.2-44.05,49.15,13.88,101.85,15.28,151.35,2.65,44.65-11.44,89.45-36.81,107-79.4s-6.15-101.93-51.9-107.52c-30.95-3.74-59,16.08-86.2,31.31s-63.6,25.62-87.55,5.69c54.9,10.59,115.8-13.88,145.4-61.32,39.65-63.47,19-145.67-2.85-217.23-12.05-39.55-24.3-79.55-45.15-115.25s-51.45-67.32-90.45-81.3c-56.65-20.38-125.9,3.39-158.1,54.23s-23.9,123.55,18.85,165.94l-5.65,9c-1.05,1.6-2.1,3.15-3.15,4.75q-27.37-55-52.35-111.86c-113.05-.15-207.85-33.26-280-93.59,13.3-35.35,42.95-66.36,77.2-84.14,54.15-28.12,117.15-31.81,177.8-38.45a1583.17,1583.17,0,0,0,449-118,1067.53,1067.53,0,0,1,7.35,163.45,334.4,334.4,0,0,0,4.6,67.76c24.6,141.88,69,284.45,129,427.57C2132.64,2062,2002.64,2181.87,1772.64,2176.88Z" transform="translate(643.55 359.97)"/></g><path class="cls-2" d="M1088.36,1063.76c.91,17.14.67,34.09,1.24,51l.27,12.69.47,12.67c.36,8.43.24,16.87.91,25.28,1.32,33.68,4.65,67.26,11,100.22,12.42,65.85,35.89,129.81,73.24,184.74,37,55,88.48,99.81,148.36,128.16,59.75,28.84,126.85,41.42,193.82,42h.1a12,12,0,0,1,10.93,7.2v0c53.2,121,115,238.3,188.94,347.64a12,12,0,0,1-2.12,15.86l-.15.13a158.64,158.64,0,0,0-19.84,20.07,121.74,121.74,0,0,0-14.65,23.49,92.32,92.32,0,0,0-8.16,52.89,85.92,85.92,0,0,0,23.51,47.39,95.93,95.93,0,0,0,47.07,26.16,123.27,123.27,0,0,0,27.79,3.4c4.85.13,10.05.08,15.05.13s10.09,0,15.09-.18a519.74,519.74,0,0,0,59.84-4.67c39.58-5.23,78.56-15.33,114.38-31.77a260.37,260.37,0,0,0,50.24-29.94c15.16-12,28.81-25.75,38.8-41.57a119.57,119.57,0,0,0,11.94-24.93,99.12,99.12,0,0,0,4.71-26.65,92.74,92.74,0,0,0-3.37-26.72l-2-6.5c-.74-2.17-1.79-4.34-2.67-6.51l-5.82-14c-31.56-76.22-59.25-153.48-82.12-232.59q-17.05-59.29-30.19-119.67c-4.43-20.1-8.32-40.32-12-60.58a344.23,344.23,0,0,1-6.19-62.94c-.06-5.25.06-10.62.17-15.76l.25-15.16.22-15.17-.18-15.16-.19-15.15-.6-15.15-.63-15.14-1-15.11a956.62,956.62,0,0,0-15.84-119.95,767.6,767.6,0,0,0-32.52-116.15A573,573,0,0,0,1834,1010a446.78,446.78,0,0,0-35.35-47.9,314.32,314.32,0,0,0-42.39-41c-30.49-24.39-66.64-41.84-104.8-45.57h2.45l-527.47,54.43a12,12,0,1,1-2.48-24l527.47-54.44a13.37,13.37,0,0,1,2.45,0,203.31,203.31,0,0,1,62.69,17,256.32,256.32,0,0,1,54.69,33.67,337.64,337.64,0,0,1,45.67,44.15,469.55,469.55,0,0,1,37.44,50.7A596.7,596.7,0,0,1,1909,1109.4a791,791,0,0,1,33.55,119.77,979.49,979.49,0,0,1,16.25,123l1.06,15.47.64,15.49.61,15.48.2,15.5.18,15.49-.22,15.49-.25,15.48c-.11,5.08-.22,9.92-.17,14.89a319.51,319.51,0,0,0,5.82,58.92c3.58,20,7.42,39.89,11.79,59.71q12.86,59.51,29.79,118.08c22.52,78,50.11,154.88,81.1,229.73l5.93,14.29c1,2.56,2.21,5,3.12,7.67L2101,1972a116.75,116.75,0,0,1,4.24,33.86,122.89,122.89,0,0,1-5.91,33.52,142.61,142.61,0,0,1-14.44,30.25c-11.88,18.79-27.5,34.43-44.41,47.75a284.71,284.71,0,0,1-54.92,32.8c-38.61,17.7-79.79,28.26-121.26,33.77a545.64,545.64,0,0,1-62.49,4.87q-7.83.32-15.59.19c-5.23,0-10.27,0-15.65-.13a147.14,147.14,0,0,1-33-4.08,120.19,120.19,0,0,1-58.68-32.78,110,110,0,0,1-30.06-60.65,116.4,116.4,0,0,1,10.14-66.56,145.54,145.54,0,0,1,17.71-28.42,181.61,181.61,0,0,1,23.22-23.5l-2.28,16c-74.9-110.8-137.38-229.41-191-351.44l0,0,11,7.2a533.63,533.63,0,0,1-104.52-10.22c-34.42-7-68.32-17.67-100.08-33.14a394.65,394.65,0,0,1-88.11-58.17,402.68,402.68,0,0,1-69.45-79.22c-39-58.65-62.73-125.92-74.91-194.24-12-68.44-14-138.59-3.63-206.84a5.74,5.74,0,0,1,11.41.56Z" transform="translate(643.55 359.97)"/><path class="cls-2" d="M1710.47,1970.41c15.36,4.87,31.3,7.73,47.38,7.41a125.29,125.29,0,0,0,47.39-10.34,5.25,5.25,0,0,1,4.8,9.31,139.16,139.16,0,0,1-50.65,18.25c-18.09,2.78-36.68,2-54.58-1.21l-.11,0a12.08,12.08,0,1,1,4.22-23.78A13,13,0,0,1,1710.47,1970.41Z" transform="translate(643.55 359.97)"/><path class="cls-2" d="M1707.45,1833.48A471.7,471.7,0,0,1,1601,1821.4a12,12,0,1,1,5.45-23.47c136.13,31.54,289.51-5.56,381.66-92.34a12.05,12.05,0,1,1,16.55,17.53C1929.23,1794.14,1819.69,1833.48,1707.45,1833.48Z" transform="translate(643.55 359.97)"/><path class="cls-1" d="M1507.64,1332.93c156.28-9.67,298.47-42.41,413.55-119.49,5-3.38,11.12-5.29,17.12-4.38,19.86,3,32,29.48,21.7,59.56-5.67,16.59-17.52,30.43-32.5,39.57-122.91,75-347.65,140.54-494.87,119.62Z" transform="translate(643.55 359.97)"/><g class="cls-3"><path class="cls-2" d="M1942.51,1268.24c-118.77,72.52-332.61,136.1-479.72,121.43l-30.15,38.14c147.22,20.92,372-44.58,494.87-119.62,15-9.14,26.83-23,32.5-39.57a67.4,67.4,0,0,0,3.64-19.22A79.08,79.08,0,0,1,1942.51,1268.24Z" transform="translate(643.55 359.97)"/></g><path class="cls-2" d="M1493.15,1443.83a443.75,443.75,0,0,1-62.21-4.09,12,12,0,0,1-7.77-19.39l75-94.88a12.07,12.07,0,0,1,8.72-4.56c172.14-10.65,305.46-49.08,407.58-117.47,8-5.35,17.07-7.58,25.64-6.29,11.36,1.72,21.19,8.57,27.7,19.28,9.28,15.25,10.59,35.69,3.62,56.09-6.41,18.72-19.77,35-37.63,46C1826.51,1384,1640.17,1443.83,1493.15,1443.83Zm-37.6-25.56c146.38,12.31,351.7-50.77,465.67-120.36,13.07-8,22.79-19.76,27.38-33.18s4.06-26.8-1.4-35.79c-1.94-3.19-5.37-7.16-10.7-8-2.57-.38-5.67.52-8.59,2.47-104.69,70.12-240.2,109.78-414.14,121.17Z" transform="translate(643.55 359.97)"/><rect class="cls-6" x="1381.18" y="806.51" width="142.5" height="504.37"/><g class="cls-3"><rect class="cls-2" x="1381.18" y="806.51" width="142.5" height="504.37"/></g><path class="cls-2" d="M880.14,962.85H737.64a12,12,0,0,1-12-11.94V446.54a12,12,0,0,1,12-12h142.5a12,12,0,0,1,12,12V950.91A12,12,0,0,1,880.14,962.85ZM749.6,939H868.18V458.48H749.6Z" transform="translate(643.55 359.97)"/><path class="cls-1" d="M874.86,555a480.65,480.65,0,0,0,88,228.73,494.83,494.83,0,0,0,33,41c5.74,6.44,11.74,12.77,17.91,19a496.08,496.08,0,0,0,186.42,117.91q13.39,4.7,26.95,8.65c165.49,48,351.21,9,482.54-117.89,193.51-187,195.63-494,4.83-685.72a494.93,494.93,0,0,0-122.07-89.85c-5.12-2.73-10.34-5.32-15.61-7.8Q1555.71,59,1534,51a502.5,502.5,0,0,0-208.52-29.35q-16.74,1.2-33.41,3.51a494.54,494.54,0,0,0-49.63,9.54,487.64,487.64,0,0,0-223.86,123.37C907.22,265.59,859.25,412.84,874.86,555Z" transform="translate(643.55 359.97)"/><path class="cls-2" d="M1366.43,991.34a501.34,501.34,0,0,1-139.69-19.85c-9-2.65-18.14-5.57-27-8.67a498.61,498.61,0,0,1-186.88-118.2c-6.76-6.87-12.63-13.11-18-19.08a500.48,500.48,0,0,1-33-41.07,483.55,483.55,0,0,1-88.21-229.31c-16.32-148.72,36.18-293.78,144-398A490.55,490.55,0,0,1,1242.1,33.51a496.36,496.36,0,0,1,49.75-9.57c10.88-1.52,22.15-2.71,33.5-3.52a503.87,503.87,0,0,1,209,29.42c14.45,5.31,28.9,11.42,42.92,18.13,5.49,2.59,10.77,5.22,15.65,7.82a495.57,495.57,0,0,1,122.36,90.07c92.88,93.35,143.33,216.54,142,346.9-1.27,129.31-53.43,250.25-146.88,340.54C1617.65,943,1493.52,991.34,1366.43,991.34ZM876.06,554.9a481.13,481.13,0,0,0,87.77,228.15,494,494,0,0,0,32.87,40.87c5.3,6,11.15,12.16,17.88,19a495,495,0,0,0,186,117.62c8.83,3.09,17.87,6,26.88,8.63,170.65,49.49,355.1,4.43,481.36-117.6,93-89.83,144.88-210.16,146.15-338.83,1.28-129.7-48.92-252.28-141.34-345.16a493.6,493.6,0,0,0-121.77-89.64c-4.86-2.59-10.1-5.2-15.56-7.77-14-6.69-28.33-12.75-42.72-18a501.27,501.27,0,0,0-208-29.28c-11.3.81-22.51,2-33.33,3.5a496.49,496.49,0,0,0-49.5,9.52,488.24,488.24,0,0,0-223.31,123.06C912.06,262.6,859.82,406.93,876.06,554.9Z" transform="translate(643.55 359.97)"/><g class="cls-3"><path class="cls-2" d="M1709.63,852.41c-131.33,127-317.08,165.92-482.56,117.9q-13.56-3.94-26.93-8.64a497.37,497.37,0,0,1-186.44-117.9c-6.14-6.28-12.15-12.59-17.91-19a498.32,498.32,0,0,1-32.94-41A480.76,480.76,0,0,1,878.77,422,480.4,480.4,0,0,0,965.4,639.57a488.85,488.85,0,0,0,32.94,41c5.73,6.43,11.74,12.74,17.91,19a495.87,495.87,0,0,0,186.41,117.9q13.42,4.69,27,8.63c165.49,48,351.2,9.08,482.56-117.89,76.65-74,123.23-166.93,139.72-264C1871.38,589.88,1823.85,742.07,1709.63,852.41Z" transform="translate(643.55 359.97)"/></g><path class="cls-2" d="M1366.42,999.46a509.3,509.3,0,0,1-142-20.17c-9.2-2.69-18.42-5.65-27.43-8.81a506.57,506.57,0,0,1-190-120.14c-6.89-7-12.85-13.32-18.26-19.4a505.54,505.54,0,0,1-33.57-41.72,491.68,491.68,0,0,1-89.68-233.17h0C849,404.81,902.35,257.3,1012,151.34A498.7,498.7,0,0,1,1240.17,25.61a504.49,504.49,0,0,1,50.55-9.71c11.06-1.56,22.51-2.76,34-3.59a512.45,512.45,0,0,1,212.41,29.9c14.71,5.41,29.38,11.61,43.64,18.43,5.56,2.62,11,5.31,16,8a503.46,503.46,0,0,1,124.29,91.51c94.44,94.9,145.73,220.16,144.42,352.7-1.3,131.51-54.34,254.5-149.37,346.31C1621.77,950.34,1495.59,999.46,1366.42,999.46ZM884.15,554a473,473,0,0,0,86.28,224.29,486.45,486.45,0,0,0,32.34,40.19c5.22,5.86,11,12,17.61,18.71a487,487,0,0,0,182.87,115.66c8.67,3,17.59,5.9,26.45,8.49,167.85,48.68,349.26,4.37,473.42-115.64,91.4-88.31,142.42-206.6,143.67-333.07,1.26-127.51-48.1-248-139-339.35a485.25,485.25,0,0,0-119.76-88.16c-4.81-2.56-9.92-5.11-15.27-7.63-13.78-6.6-27.91-12.57-42.06-17.77a493.43,493.43,0,0,0-204.63-28.8c-11.11.8-22.14,2-32.78,3.45A483.33,483.33,0,0,0,1025,164.76C919.55,266.67,868.2,408.57,884.15,554Z" transform="translate(643.55 359.97)"/><path class="cls-2" d="M1366.42,1002.17a512.14,512.14,0,0,1-142.71-20.28c-9.25-2.71-18.51-5.68-27.57-8.85a509.28,509.28,0,0,1-191-120.79c-6.93-7-12.92-13.4-18.37-19.51a511.22,511.22,0,0,1-33.74-41.94,494.37,494.37,0,0,1-90.18-234.46h0c-16.69-152.07,37-300.4,147.28-407A501.44,501.44,0,0,1,1239.53,23a509.14,509.14,0,0,1,50.81-9.77c11.12-1.56,22.64-2.77,34.24-3.6a514.75,514.75,0,0,1,213.54,30.06c14.78,5.44,29.54,11.67,43.87,18.53,5.59,2.63,11,5.34,16.07,8a506.31,506.31,0,0,1,124.94,92c95,95.42,146.51,221.37,145.2,354.64-1.31,132.24-54.64,255.91-150.19,348.23C1623.14,952.78,1496.29,1002.17,1366.42,1002.17ZM886.85,553.72a470.22,470.22,0,0,0,85.78,223,486.93,486.93,0,0,0,32.16,40c5.2,5.83,10.92,11.91,17.52,18.61a483.93,483.93,0,0,0,181.85,115c8.62,3,17.48,5.86,26.3,8.44,166.91,48.41,347.3,4.35,470.78-115,90.87-87.8,141.6-205.4,142.84-331.15,1.25-126.77-47.82-246.6-138.19-337.42a482.54,482.54,0,0,0-119.08-87.66c-4.79-2.55-9.87-5.08-15.17-7.58-13.73-6.57-27.78-12.51-41.85-17.68A490.45,490.45,0,0,0,1326.3,33.65c-11.06.78-22,1.94-32.6,3.42A480.74,480.74,0,0,0,1026.92,166.7C922,268,871,409.1,886.85,553.72Z" transform="translate(643.55 359.97)"/><path class="cls-2" d="M904.39,676c190.47,292.43,607.82,310.24,758.72,1.72,102.66-209.9-27.21-472.19-238.67-557.61-153.91-62.17-331.38-56.67-493.22,151.78,0,0-57.12,103.26-57.29,187.5S888,625.67,888,625.67Z" transform="translate(643.55 359.97)"/><path class="cls-7" d="M1663.09,677.72C1512.2,986.23,1094.85,968.42,904.38,676l-3.31-10.2c272.12,171.61,636.6,118.5,795.08-190.6C1704.33,543.19,1694.77,612.94,1663.09,677.72Z" transform="translate(643.55 359.97)"/><path class="cls-2" d="M1308.37,964.43c-81.4,0-164.52-19.95-240.86-59.08a12.64,12.64,0,0,1-1.61-1,509.14,509.14,0,0,1-60.74-52.11c-6.93-7-12.92-13.4-18.37-19.51a511.22,511.22,0,0,1-33.74-41.94,494.37,494.37,0,0,1-90.18-234.46h0c-16.69-152.07,37-300.4,147.28-407A501.44,501.44,0,0,1,1239.53,23a12.56,12.56,0,0,1,2.44-.33c64.86-2.33,133.5,11,204.06,39.52,127,51.3,233.17,161.06,284,293.62,45.8,119.35,42.44,243.51-9.46,349.61-56.51,115.51-147.73,196.94-263.79,235.49A471.09,471.09,0,0,1,1308.37,964.43Zm-229-80.09c118.1,60.26,252.85,72.55,369.84,33.69,109.78-36.47,196.13-113.65,249.74-223.21,48.93-100,52-217.37,8.61-330.41C1659,238,1557.89,133.34,1437,84.51c-67-27.05-131.89-39.77-192.94-37.83a477.43,477.43,0,0,0-217.13,120C922,268,871,409.1,886.85,553.72a470.26,470.26,0,0,0,85.78,223,486.93,486.93,0,0,0,32.16,40c5.2,5.83,10.92,11.91,17.52,18.61A483.14,483.14,0,0,0,1079.36,884.34Z" transform="translate(643.55 359.97)"/><path class="cls-1" d="M1873.26,740.64c-31.22,90.39-111.65,147.71-179.67,128s-97.84-109-66.62-199.37c.18-.57.41-1.17.62-1.73,31.63-89.4,111.51-145.85,179-126.26,52.55,15.22,82.3,72,78.73,138.65A223.78,223.78,0,0,1,1873.26,740.64Z" transform="translate(643.55 359.97)"/><g class="cls-3"><path class="cls-2" d="M1873.26,740.64c-31.22,90.39-111.65,147.71-179.67,128s-97.84-109-66.62-199.37c.18-.57.41-1.17.62-1.73,4.28,11.44,12.76,24,29.59,25.44,29.49,2.6,99.12-41.16,99.12-41.16s56,11.83,129.06,28.11A223.78,223.78,0,0,1,1873.26,740.64Z" transform="translate(643.55 359.97)"/></g><path class="cls-2" d="M1720.88,884.49a109.67,109.67,0,0,1-30.65-4.3c-29.81-8.64-53.83-29.12-69.45-59.23-22.49-43.36-24.39-100.08-5.21-155.64C1648.8,569.1,1736,508.26,1810,529.7c29.81,8.65,53.83,29.13,69.45,59.24,22.5,43.35,24.4,100.08,5.21,155.63h0C1855.94,827.76,1786.87,884.49,1720.88,884.49Zm57.9-335.08c-55.73,0-115.06,50.4-140.41,123.77-16.78,48.62-15.36,99.72,3.83,136.69,12.5,24.11,31.44,40.42,54.76,47.18,61.83,17.92,135.8-36.06,164.91-120.33,16.79-48.62,15.36-99.72-3.82-136.7-12.51-24.11-31.45-40.42-54.76-47.18A87.82,87.82,0,0,0,1778.78,549.41Zm94.49,191.24h0Z" transform="translate(643.55 359.97)"/><ellipse class="cls-1" cx="1784.43" cy="731.89" rx="137.67" ry="104.16" transform="translate(1019.02 2408.94) rotate(-65.37)"/><path class="cls-2" d="M1761,865.63a80.58,80.58,0,0,1-59.6-25.4c-41.37-43.13-37.9-126.81,7.72-186.54,25.44-33.29,59.49-53.48,93.43-55.38,25.14-1.43,47.65,7.31,64.85,25.24,41.37,43.13,37.91,126.81-7.72,186.54-25.43,33.3-59.49,53.49-93.43,55.39C1764.52,865.58,1762.76,865.63,1761,865.63Zm46.79-265c-1.69,0-3.38,0-5.1.14-33.2,1.86-66.58,21.69-91.57,54.4-44.9,58.78-48.45,141-7.91,183.27,16.68,17.38,38.36,25.84,62.9,24.47,33.21-1.86,66.58-21.69,91.57-54.39,44.9-58.79,48.45-141,7.91-183.28A78.19,78.19,0,0,0,1807.82,600.68Z" transform="translate(643.55 359.97)"/><g class="cls-3"><path class="cls-2" d="M1672.21,755.26c2.14-26,11.53-51.42,25.73-73.49.17,59.67,42,98.22,97.63,87.45,36-6.94,69.43-32.91,91.38-67.07,0,3.76-.15,7.65-.46,11.59-5.5,66.14-57.92,129.07-117.09,140.53S1666.73,821.38,1672.21,755.26Z" transform="translate(643.55 359.97)"/></g><path class="cls-2" d="M1758,876.51a80,80,0,0,1-21.81-3c-22.19-6.25-40.14-21.49-51.92-44.1-18.22-34.94-19.26-83.9-2.8-131,27.77-79.38,97.1-130.8,154.49-114.65,22.18,6.24,40.13,21.49,51.92,44.1,18.21,34.94,19.26,83.9,2.79,131C1866.39,828.42,1810.2,876.51,1758,876.51Zm55.36-271.68c-41.84,0-88.2,41.79-109.12,101.59-14.3,40.91-13.77,82.74,1.42,111.89,8.64,16.57,21.45,27.64,37.07,32,45.41,12.79,101.54-31.83,125.17-99.41h0c14.31-40.91,13.78-82.74-1.42-111.9-8.63-16.56-21.45-27.64-37.06-32A59.19,59.19,0,0,0,1813.4,604.83Z" transform="translate(643.55 359.97)"/><g class="cls-8"><path class="cls-1" d="M1481.24,271.21s-192.4-64-339.22.47l-.46.21a188.75,188.75,0,0,0-77,62.37c-25.9,35.92-38.39,64.44-48.4,90C985.74,501.89,986.27,544,986.27,544c-28.86-58.33-35.94-114.66-11.27-179.6,2.45-6.39,5.21-12.9,8.27-19.48.7-1.52,1.42-3,2.18-4.5,0,0,0-.06.06-.09a460.91,460.91,0,0,1,30.08-47.3c38.9-53.69,103.83-118.25,194.08-125.06C1378.44,155.2,1490.92,265.6,1481.24,271.21Z" transform="translate(643.55 359.97)"/></g><g class="cls-8"><ellipse class="cls-1" cx="1543.01" cy="508.42" rx="75.5" ry="65.81" transform="translate(1526.77 2352.99) rotate(-84.28)"/></g><g class="cls-8"><ellipse class="cls-1" cx="1528.28" cy="644.79" rx="31.19" ry="27.16" transform="translate(1517.86 2529.13) rotate(-89.66)"/></g><path class="cls-6" d="M1255.14,2169.39a45,45,0,0,0,42.22-60.51l-370-1001.3a45,45,0,0,0-84.44,31.13l370,1001.29A45,45,0,0,0,1255.14,2169.39Z" transform="translate(643.55 359.97)"/><g class="cls-3"><path class="cls-2" d="M1247.36,2108.88l-370-1001.3a44.72,44.72,0,0,0-17.22-21.76,44.53,44.53,0,0,1,9.42-4.84,45,45,0,0,1,57.8,26.6l370,1001.3a45,45,0,0,1-67.23,52.89A44.92,44.92,0,0,0,1247.36,2108.88Z" transform="translate(643.55 359.97)"/></g><path class="cls-2" d="M1255.14,2181.44a57.28,57.28,0,0,1-53.53-37.27l-370-1001.29a57,57,0,0,1,33.77-73.2,57.16,57.16,0,0,1,73.29,33.73l370,1001.3a57,57,0,0,1-53.53,76.73Zm-370-1091.19a32.9,32.9,0,0,0-30.87,44.29l370,1001.29a32.92,32.92,0,0,0,42.32,19.47,32.89,32.89,0,0,0,19.49-42.25L916,1111.75A33,33,0,0,0,885.1,1090.25Z" transform="translate(643.55 359.97)"/><path class="cls-6" d="M818.5,2219.81a45,45,0,0,0,59.55-43.63l-25.84-1067a45,45,0,0,0-90,2.17l25.84,1067A45,45,0,0,0,818.5,2219.81Z" transform="translate(643.55 359.97)"/><g class="cls-3"><path class="cls-2" d="M830.73,2160,804.89,1093a44.54,44.54,0,0,0-9.24-26.15,44.13,44.13,0,0,1,10.48-1.54,45,45,0,0,1,46.08,43.84l25.84,1067a45,45,0,0,1-80.74,28.33A44.93,44.93,0,0,0,830.73,2160Z" transform="translate(643.55 359.97)"/></g><path class="cls-2" d="M833.06,2234.26a57.16,57.16,0,0,1-18.45-3.05h0A57.23,57.23,0,0,1,776,2178.65l-25.84-1067a57.06,57.06,0,0,1,114.08-2.75l25.84,1067a57.08,57.08,0,0,1-55.66,58.35Zm-10.65-25.85a32.3,32.3,0,0,0,11.45,1.75A33,33,0,0,0,866,2176.47l-25.84-1067a32.94,32.94,0,0,0-65.86,1.59l25.84,1067a33,33,0,0,0,22.28,30.35Z" transform="translate(643.55 359.97)"/><path class="cls-6" d="M316.27,2147.55a45.07,45.07,0,0,0,71.94-16.65l397.4-990.77a45,45,0,0,0-83.54-33.43L304.66,2097.47A45,45,0,0,0,316.27,2147.55Z" transform="translate(643.55 359.97)"/><g class="cls-3"><path class="cls-2" d="M351.1,2097.42l397.41-990.76a44.65,44.65,0,0,0,1.82-27.68,44.81,44.81,0,0,1,35.28,61.15L388.21,2130.9a45,45,0,0,1-85.38-5.76A45,45,0,0,0,351.1,2097.42Z" transform="translate(643.55 359.97)"/></g><path class="cls-2" d="M346.36,2171.17a57.25,57.25,0,0,1-38.17-14.68h0a57.17,57.17,0,0,1-14.71-63.5l397.4-990.77a57.05,57.05,0,0,1,105.94,42.39L399.4,2135.37A57.15,57.15,0,0,1,346.36,2171.17Zm-22-32.57A33,33,0,0,0,377,2126.42l397.41-990.77a32.94,32.94,0,0,0-61.16-24.47L315.86,2102a33,33,0,0,0,8.49,36.65Z" transform="translate(643.55 359.97)"/><ellipse class="cls-6" cx="1449.93" cy="1461.94" rx="111.25" ry="86.14"/><g class="cls-3"><ellipse class="cls-2" cx="1449.93" cy="1461.94" rx="111.25" ry="86.14"/></g><path class="cls-2" d="M806.39,1200.16c-68,0-123.31-44.05-123.31-98.19s55.31-98.19,123.31-98.19,123.31,44,123.31,98.19S874.38,1200.16,806.39,1200.16Zm0-172.29c-54.7,0-99.19,33.24-99.19,74.1s44.49,74.1,99.19,74.1,99.19-33.24,99.19-74.1S861.08,1027.87,806.39,1027.87Z" transform="translate(643.55 359.97)"/><path class="cls-9" d="M626.24,1081.39a37.43,37.43,0,0,0,31.3,34.11c92.1,14.73,182.15,15.68,269.8.55a37.22,37.22,0,0,0,30.75-34c.85-11.88,1.2-23.32.9-34.35a.3.3,0,0,0,0-.2,226,226,0,0,0-2.7-30.36,23.83,23.83,0,0,0-5.65-11.79c-14.55-16.93-30.7-30-50.45-34.51l-198-4.54C677,972.53,654.79,983,636.54,999.6a24.12,24.12,0,0,0-7.65,14.28A311.3,311.3,0,0,0,626.24,1081.39Z" transform="translate(643.55 359.97)"/><g class="cls-10"><path class="cls-1" d="M628.89,1013.88a24.12,24.12,0,0,1,7.65-14.28c18.25-16.58,40.5-27.07,65.55-33.26l198,4.54a73.14,73.14,0,0,1,22.94,9.83l-191-4.38c-25.05,6.19-47.3,16.68-65.55,33.25a24.15,24.15,0,0,0-7.65,14.29,311.3,311.3,0,0,0-2.65,67.51,37.23,37.23,0,0,0,13.45,25.95c-4.05-.59-8.1-1.18-12.15-1.83a37.43,37.43,0,0,1-31.3-34.11A311.3,311.3,0,0,1,628.89,1013.88Z" transform="translate(643.55 359.97)"/></g><path class="cls-2" d="M797.52,1139a898,898,0,0,1-141.9-11.57,49.23,49.23,0,0,1-41.42-45.1,325.41,325.41,0,0,1,2.76-70.11,36.1,36.1,0,0,1,11.44-21.48c18.76-17.07,41.91-28.87,70.76-36.06a11.4,11.4,0,0,1,3.2-.36l198.06,4.57a12,12,0,0,1,2.39.3c20.28,4.61,38.37,16.8,56.93,38.38a36,36,0,0,1,8.43,17.74c3.16,19.87,3.8,42,2,67.68a49.12,49.12,0,0,1-40.71,45A775.43,775.43,0,0,1,797.52,1139ZM703.45,978.4c-24.15,6.22-43.4,16.08-58.8,30.11a11.92,11.92,0,0,0-3.81,7.07,300.21,300.21,0,0,0-2.58,64.89,25.2,25.2,0,0,0,21.17,23.12c92.69,14.82,182.14,15,265.88.59a25.08,25.08,0,0,0,20.75-23c1.72-23.81,1.16-44.14-1.71-62.16a12.07,12.07,0,0,0-2.9-5.83c-14.65-17-28.31-26.69-42.87-30.32Z" transform="translate(643.55 359.97)"/><path class="cls-2" d="M962,1020.35a151.58,151.58,0,0,1-41.67,20,127.68,127.68,0,0,1-45.06,4.89,4.49,4.49,0,0,1-.21-9h0a114.53,114.53,0,0,0,39-11.74,130.6,130.6,0,0,0,32.18-23.66,12.55,12.55,0,1,1,17.65,17.85,12.43,12.43,0,0,1-1.74,1.44Z" transform="translate(643.55 359.97)"/><path class="cls-2" d="M641,993.08a142.66,142.66,0,0,0,55,33.66,4.19,4.19,0,0,1-1.69,8.14A159.62,159.62,0,0,1,625.88,1013l-.29-.17a12.6,12.6,0,1,1,13-21.61A12.26,12.26,0,0,1,641,993.08Z" transform="translate(643.55 359.97)"/><g class="cls-3"><path class="cls-2" d="M627.89,1086.59a35.14,35.14,0,0,0,1.5,7.24,37.28,37.28,0,0,0,28.15,21.67c92.1,14.73,182.15,15.68,269.8.55a37.22,37.22,0,0,0,30.75-34c.85-11.88,1.2-23.32.9-34.35a.3.3,0,0,0,0-.2c-1.25-11.74-3.5-23.32-8.4-34-6.6-14.28-18.7-26.87-34.1-30.26-22.6-5-44.35,10.09-67.15,13.88l3.65,1.55c14.6,1.25,23.85,20.77,15.55,32.81-2.3,3.34-5.6,6.14-7,10-1.65,4.75,0,9.94.45,14.94,1.35,15.23-9.45,29.41-22.9,36.65s-29.1,8.84-44.3,10C738.49,1107.56,680.24,1107.56,627.89,1086.59Z" transform="translate(643.55 359.97)"/></g><path class="cls-6" d="M895.48,921.2,765.14,881c-30.9-4.27-55.69,3.92-73.06,27.31v62.57q103.74,42.24,203.06,0Z" transform="translate(643.55 359.97)"/><g class="cls-10"><path class="cls-1" d="M765.14,881l.48.14-.52.1c-25.14,4.52-43,27.08-43,52.59v37q44.24,18,87.65,20.64-58.1,3.59-117.65-20.64V908.31C709.45,884.92,734.24,876.73,765.14,881Z" transform="translate(643.55 359.97)"/></g><g class="cls-3"><path class="cls-2" d="M845.47,911.22h0L744.63,880.11a103.54,103.54,0,0,1,20.51.89l130.33,40.2-.33,49.68q-85.75,36.55-174.82,9.91A244.41,244.41,0,0,0,789.17,978,68.47,68.47,0,0,0,845.47,911.22Z" transform="translate(643.55 359.97)"/></g><path class="cls-2" d="M794.78,1004c-35.45,0-71.28-7.32-107.26-22a12.06,12.06,0,0,1-7.5-11.16V908.31a12.05,12.05,0,0,1,2.37-7.18c19.54-26.31,48-37.11,84.4-32.07a11.46,11.46,0,0,1,1.91.43L899,909.7a12,12,0,0,1,8.5,11.59L907.2,971a12.05,12.05,0,0,1-7.33,11C865.4,996.66,830.28,1004,794.78,1004Zm-90.64-41.34c60.74,22.86,120.88,22.91,179,.11l.22-32.71L762.54,892.8c-25.47-3.3-44.62,3.14-58.4,19.67Z" transform="translate(643.55 359.97)"/><path class="cls-9" d="M1105.89,494.78c-13.85,26.37-44,40.05-73.2,34.26l-1.85-.35-340.7-67.17,75-259.68,307.55,131.64,10.35,4.44a68.48,68.48,0,0,1,41.15,56.78C1127.64,431.56,1120.34,467.11,1105.89,494.78Z" transform="translate(643.55 359.97)"/><path class="cls-11" d="M1105.89,494.78c-13.85,26.37-44,40.05-73.2,34.26l-1.85-.35c30.35-59.18,43.45-124.55,41.85-195.21l10.35,4.44a68.48,68.48,0,0,1,41.15,56.78C1127.64,431.56,1120.34,467.11,1105.89,494.78Z" transform="translate(643.55 359.97)"/><g class="cls-10"><path class="cls-1" d="M760.14,226.81l307.55,131.64,10.35,4.44a68.48,68.48,0,0,1,41.15,56.78,193.14,193.14,0,0,1-.82,42.89,190.36,190.36,0,0,0,5.82-67.86A68.48,68.48,0,0,0,1083,337.92l-10.35-4.44L765.14,201.84l-75,259.68,2.09.41Z" transform="translate(643.55 359.97)"/></g><g class="cls-3"><path class="cls-2" d="M1062.69,464.12l-1.85-.35L720.14,396.6l55-190.47-10-4.29-75,259.68,340.7,67.17,1.85.35c29.25,5.79,59.35-7.89,73.2-34.26a168.7,168.7,0,0,0,15.9-46.82A68.54,68.54,0,0,1,1062.69,464.12Z" transform="translate(643.55 359.97)"/></g><path class="cls-2" d="M1046,542.38a80.69,80.69,0,0,1-15.63-1.53l-1.74-.33a12.05,12.05,0,0,1-8.5-17.33c28.48-55.53,42.12-119.26,40.53-189.44a12.07,12.07,0,0,1,16.83-11.34l10.34,4.45a80.52,80.52,0,0,1,48.4,66.72c3.54,37.85-3.43,75.77-19.62,106.77v0C1102.87,526.45,1075.22,542.38,1046,542.38Zm38.85-190.07c-.92,60.25-12.84,115.89-35.52,165.88,19.22-1.11,36.92-11.91,45.91-29,14-26.93,20.08-60.09,17-93.37A56.59,56.59,0,0,0,1084.82,352.31Zm21.07,142.47h0Z" transform="translate(643.55 359.97)"/><path class="cls-2" d="M1046,542.38a80.69,80.69,0,0,1-15.63-1.53l-1.74-.33L687.8,473.34a12,12,0,0,1-9.25-15.16l75-259.67a12.07,12.07,0,0,1,16.34-7.74L1087.8,326.86a80.52,80.52,0,0,1,48.4,66.72c3.54,37.85-3.43,75.77-19.62,106.77v0C1102.87,526.45,1075.22,542.38,1046,542.38Zm-340.6-90.14,329.56,65c24.34,4.82,49.08-6.71,60.28-28,14.06-26.93,20.08-60.08,17-93.36A56.48,56.48,0,0,0,1078.3,349l-10.37-4.45-295-126.26Zm400.52,42.54h0Z" transform="translate(643.55 359.97)"/><path class="cls-9" d="M-606.83,167.06c28.76,74.07,94.7,127.41,172.79,142.33l251.92,48.2L661,518.88c46.08,8.79,93.22-10.91,118.57-50.37,51.58-80.31,69.94-207.66,47.23-299.76a115.14,115.14,0,0,0-68-78.79L-77.76-256.13l-178.32-73.75c-66.95-27.74-143.67-23.88-205.86,13.4C-606.34-229.95-670,4.25-606.83,167.06Z" transform="translate(643.55 359.97)"/><path class="cls-11" d="M-606.83,167.06c28.76,74.07,94.7,127.41,172.79,142.33l251.92,48.2C-1.25,268.19,70.17-69.17-77.76-256.13l-178.32-73.75c-66.95-27.74-143.67-23.88-205.86,13.4C-606.34-229.95-670,4.25-606.83,167.06Z" transform="translate(643.55 359.97)"/><g class="cls-10"><path class="cls-1" d="M820.6,203.52a115.18,115.18,0,0,0-68-78.79L-83.94-221.36l-178.31-73.76C-329.2-322.85-405.93-319-468.12-281.71-549-233.25-604.5-138.48-626.62-35.88c16.16-115.53,74.74-226.71,164.68-280.6,62.19-37.28,138.91-41.14,205.86-13.4l178.32,73.75L758.79,90a115.14,115.14,0,0,1,68,78.79c13.35,54.13,12.41,120.39-1,182.16C832.83,299.72,831.46,247.59,820.6,203.52Z" transform="translate(643.55 359.97)"/></g><g class="cls-3"><path class="cls-2" d="M-579.25-185.84c-20.29,84-18.18,174.19,10.93,249.27,28.77,74.07,94.71,127.4,172.8,142.32L-143.6,254,699.49,415.25c46.08,8.79,93.22-10.91,118.56-50.38,2.55-4,5-8.12,7.33-12.3-9.46,42.73-24.85,83.25-45.84,115.94C754.19,508,707.05,527.67,661,518.88L-182.12,357.59-434,309.39c-78.09-14.92-144-68.26-172.79-142.33C-648.54,59.52-634.91-79.14-579.25-185.84Z" transform="translate(643.55 359.97)"/></g><path class="cls-2" d="M-335-217.72c59.91,151.91,18.7,335.4-115.1,445.82C-575.7,94-541.12-189.68-335-217.72Z" transform="translate(643.55 359.97)"/><path class="cls-2" d="M683.2,533a130.9,130.9,0,0,1-24.49-2.33l-1095-209.49c-82.34-15.73-152-73.13-181.77-149.8h0C-685.34-2-613.88-239.48-468.15-326.81c64.23-38.5,145.25-43.8,216.7-14.2L763.4,78.84a127.56,127.56,0,0,1,75.09,87C862.55,263.51,842,393.52,789.69,475A126.08,126.08,0,0,1,683.2,533ZM-595.59,162.71c26.8,69,89.57,120.66,163.82,134.84l1095,209.5c41.77,8,83.44-9.7,106.15-45.05,48.31-75.2,67.94-200,45.67-290.37a103.38,103.38,0,0,0-60.88-70.53L-260.69-318.76c-64.43-26.69-137.35-22-195,12.61C-521.14-267-573.95-191.81-600.63-100c-26.36,90.7-24.52,186.44,5,262.67Z" transform="translate(643.55 359.97)"/><path class="cls-2" d="M-450.15,243.08a15,15,0,0,1-11-4.75C-534.47,160-558.83,29.78-520.36-78.22c30.79-86.43,97.6-142.68,183.28-154.34a15,15,0,0,1,16,9.35c63.82,161.8,14.67,352.13-119.5,462.86A15,15,0,0,1-450.15,243.08Zm105.37-444c-69.4,13.43-121.45,60.18-147.31,132.76-33.15,93-15.14,203.92,43.42,275.24C-335.76,106-293.84-58.14-344.78-200.94Z" transform="translate(643.55 359.97)"/><path class="cls-2" d="M-339.85-186.19a193,193,0,0,0-15.5-39.65c-6.84-12.13-15.37-23.33-26.58-30.83a56,56,0,0,0-38.8-9.34c-14.09,1.71-28.3,7.85-41.2,16.42l-.16.11a3.19,3.19,0,0,1-4.42-.89,3.17,3.17,0,0,1,.5-4.12c11.88-10.87,25.89-20.4,42.53-24.9,4.05-1.52,8.45-1.59,12.75-2.3a29.89,29.89,0,0,1,6.55-.22l6.63.22a123.23,123.23,0,0,1,13.06,2.52l6.27,2.25a35.12,35.12,0,0,1,6.13,2.62c16,7.89,29,20.52,38.91,34.62s17.23,29.94,22.45,46.25a15,15,0,0,1-9.73,18.83,15,15,0,0,1-18.85-9.72l-.15-.49Z" transform="translate(643.55 359.97)"/><path class="cls-2" d="M-422,223.36l-18.19,16-.61.53a11.05,11.05,0,0,1-3.91,2.2,85.44,85.44,0,0,1-37.07,3.09,89.19,89.19,0,0,1-33.73-11.93c-20.31-12.12-34.43-31-43.08-51a5.69,5.69,0,0,1,3-7.48,5.7,5.7,0,0,1,7.1,2.22l.05.08c10.53,16.94,25.27,30.87,42.39,37.79,17,7.08,35.78,6.66,50.59-.73l-4.52,2.73,18.19-16a15,15,0,0,1,21.17,1.35A15,15,0,0,1-422,223.36Z" transform="translate(643.55 359.97)"/><path class="cls-2" d="M-182.12,369.63a12.37,12.37,0,0,1-2.27-.21l-251.92-48.2c-82.34-15.73-152-73.13-181.77-149.8h0C-685.34-2-613.88-239.48-468.15-326.81c64.23-38.5,145.25-43.8,216.7-14.2l178.3,73.75a12,12,0,0,1,4.85,3.66c74.79,94.53,100.75,234,69.44,373C-26,229.92-92.51,326.74-176.77,368.39A12.13,12.13,0,0,1-182.12,369.63ZM-595.59,162.71c26.8,69,89.57,120.66,163.82,134.84L-183.9,345c76.12-39.44,136.34-129.11,161.51-240.87C7.07-26.69-16.46-157.37-85.31-246.21l-175.38-72.55c-64.43-26.69-137.35-22-195,12.61C-521.14-267-573.95-191.81-600.63-100c-26.36,90.7-24.52,186.45,5,262.67Z" transform="translate(643.55 359.97)"/><g class="cls-12"><path class="cls-1" d="M-399.4-165.35a99.18,99.18,0,0,0-26.44,13.93c-32.25,23.53-49.6,62.76-57.28,101.9-2.3,11.7-2.08,27,8.86,31.75,5.51,2.39,12.13.91,17.06-2.53s8.41-8.55,11.31-13.81c11-20,15.38-43.78,30.35-61,7.1-8.15,16.2-14.33,23.69-22.13s13.52-18.19,12.09-28.9-13.2-20.07-23.14-15.81" transform="translate(643.55 359.97)"/></g><g class="cls-12"><path class="cls-1" d="M-388.73,99.63a76.49,76.49,0,0,1-22.85,33.73c-4.76,4-10.17,7.56-16.26,9s-13,.42-17.69-3.68a21.28,21.28,0,0,1-5.88-9.34c-4.63-13.68.7-28.85,8.63-40.92,9-13.69,22.87-25.78,39.26-26.37,4.93-.17,10.29.94,13.51,4.67a16.56,16.56,0,0,1,3.1,6.17A35.4,35.4,0,0,1-393.45,105" transform="translate(643.55 359.97)"/></g><g class="cls-3"><path class="cls-2" d="M328.92,209.89c0,1.32.14,2.6.28,3.87.06.7.14,1.39.21,2.08s.13,1.37.21,2c.25,2.21.54,4.41.92,6.57.58,3.41,1.34,6.78,2.2,10.06.4,1.62.9,3.24,1.4,4.85s.95,3.15,1.5,4.67c.05.05,0,.14.09.19v.05c.5,1.48,1.09,3,1.69,4.44.21.57.42,1.14.68,1.72.13.28.21.52.34.81,1.2,2.77,2.44,5.55,3.87,8.23.77,1.54,1.6,3.07,2.47,4.56.17.34.39.68.56,1q1.19,2.08,2.49,4c1,1.59,2.06,3.14,3.12,4.63s2,2.85,3.08,4.2a6.39,6.39,0,0,0,.58.73c1,1.31,2.07,2.62,3.18,3.88.89,1,1.78,2,2.71,3,.71.82,1.51,1.65,2.31,2.48s1.52,1.56,2.32,2.29A107.52,107.52,0,0,0,374,298.1c1.34,1.09,2.73,2.17,4.13,3.16,2.83,2,5.76,4,8.79,5.71.77.5,1.49.9,2.26,1.35,1.4.75,2.8,1.51,4.25,2.26a114.29,114.29,0,0,0,62,12.13c1.52-.14,3.05-.28,4.53-.51,1-.11,2-.26,2.92-.42s1.66-.23,2.5-.39c1.21-.24,2.41-.43,3.62-.72s2.46-.53,3.66-.82c.93-.25,1.91-.46,2.89-.75h0c1.35-.38,2.75-.76,4.1-1.18a1.91,1.91,0,0,1,.51-.17c3.77-1.2,7.5-2.63,11.15-4.2l3.51-1.58c1-.48,2.06-1,3.05-1.54h0l0,0c1.26-.64,2.47-1.36,3.7-2,.28-.16.57-.29.85-.46l.24-.14c1.22-.7,2.43-1.42,3.63-2.17.48-.29,1-.55,1.44-.85.78-.51,1.58-1,2.37-1.59.26-.17.53-.32.79-.5h0a295.32,295.32,0,0,0,39.38,9.14c.49.08,1,.18,1.51.25l.28,0a144.21,144.21,0,0,0,19.6,1.59c15.89.05,26.74-3.64,30.57-11.48a16.21,16.21,0,0,0,1.39-8.55c-1.2-14.58-17.94-35.34-45.24-57.78l0-.7a.52.52,0,0,0,.05-.24c.42-1.54.79-3,1.12-4.58.16-.56.27-1.07.38-1.59.32-1.45.6-2.94.84-4.44.34-1.78.63-3.61.83-5.44l.18-1.41v-.38c0-.28.06-.56.11-.79s.07-.61.08-.9v-.28a2.6,2.6,0,0,0,.07-.56c0-.38.11-.75.13-1.13l0-.8a1.13,1.13,0,0,0,.06-.37c.1-1.6.2-3.2.26-4.8.06-1.83.07-3.72,0-5.6,0-1.09,0-2.17-.08-3.26,0-1.51-.13-3-.26-4.39s-.23-2.93-.41-4.39c-.1-1.14-.24-2.32-.44-3.46s-.29-2.08-.49-3.12v-.05c0-.1,0-.14,0-.24-.15-.95-.3-1.85-.5-2.75s-.35-2-.59-3-.48-2.13-.77-3.18a12,12,0,0,0-.33-1.28v-.14c-.16-.67-.37-1.33-.58-2s-.41-1.57-.66-2.33c-.12-.52-.29-1-.45-1.53-.08-.28-.17-.52-.25-.8s-.25-.72-.38-1.1c-.29-.91-.58-1.76-.92-2.67,0-.19-.13-.33-.17-.52-.3-.77-.55-1.53-.84-2.25a8.23,8.23,0,0,0-.43-1.05c-.25-.67-.51-1.29-.76-1.91s-.56-1.34-.81-2l-.18-.33c0-.15-.13-.29-.17-.43-.68-1.53-1.42-3-2.15-4.55-.3-.58-.6-1.2-.9-1.78s-.69-1.39-1.09-2.06a4.76,4.76,0,0,0-.39-.72s0-.05,0-.05,0-.09-.09-.14a1.49,1.49,0,0,0-.22-.38V144c-.18-.29-.31-.53-.48-.82-1.09-1.92-2.22-3.84-3.45-5.67-.35-.53-.66-1.06-1.05-1.59-.53-.82-1-1.64-1.63-2.41a9,9,0,0,0-.57-.78,4.73,4.73,0,0,0-.44-.62c-.88-1.21-1.76-2.42-2.69-3.58a3.2,3.2,0,0,0-.35-.44c-.75-1-1.55-2-2.39-2.95l-.13-.15c-.36-.43-.71-.82-1.11-1.26a1.08,1.08,0,0,0-.31-.34c-.71-.82-1.38-1.6-2.14-2.33a8.5,8.5,0,0,0-.93-1,2.52,2.52,0,0,0-.49-.54c-.57-.63-1.2-1.22-1.78-1.8a5.28,5.28,0,0,0-.89-.88c-.54-.54-1.07-1-1.65-1.56l-1.07-1a11,11,0,0,0-.85-.73,1.9,1.9,0,0,0-.45-.4c-1-.88-2-1.71-3-2.54-.22-.2-.45-.35-.62-.54a28.94,28.94,0,0,0-2.34-1.83c-.49-.39-1-.74-1.48-1.13a.94.94,0,0,0-.27-.2,6.29,6.29,0,0,0-.58-.49c-1.49-1.08-3-2.13-4.59-3.17a9.39,9.39,0,0,0-1.18-.74c-1.21-.85-2.48-1.64-3.79-2.39a18.06,18.06,0,0,0-1.67-1c-1.63-.95-3.3-1.86-5-2.72a114.57,114.57,0,0,0-48.28-12.51c-1.52-.05-3-.05-4.51-.05l-2.4.06a8,8,0,0,0-1.06.06c-1.38,0-2.77.09-4.11.19-2,.12-4,.33-6,.6s-4,.52-6,.93h-.1c-1.94.36-3.89.77-5.8,1.22-1.48.33-2.88.71-4.32,1.08l-2.18.63c-1.4.43-2.8.9-4.2,1.37-.83.26-1.63.51-2.42.81-1.35.48-2.75,1-4.11,1.61a.16.16,0,0,0-.09,0c-3,1.22-6,2.58-8.94,4.08-1.26.62-2.48,1.29-3.7,2a117.93,117.93,0,0,0-13.48,8.78c-1.27,1-2.55,1.94-3.78,3-.05,0-.1,0-.14.09-1.19,1-2.37,2-3.56,3-.05,0-.05.1-.1.14h0c-1,.91-2,1.82-2.95,2.77a15.52,15.52,0,0,0-1.24,1.19c-1.43,1.41-2.82,2.82-4.15,4.29-.77.82-1.49,1.64-2.21,2.47-.57.64-1.1,1.28-1.63,2-1,1.1-1.83,2.24-2.7,3.39l0,0c-.39.46-.77,1-1.11,1.42l-.73-.16c-41-10.57-70.8-9.93-77.68,4.21C266.69,150.79,288.9,179.38,328.92,209.89Zm221.8,46.28h0a11.91,11.91,0,0,0,.49-1.1c2.09,3,2.85,5.48,2,7.2s-3.38,2.64-7.2,2.7l.43-.75c.28-.47.55-1,.82-1.43l0-.08c.29-.56.64-1.16,1-1.76.54-1.06,1.12-2.17,1.68-3.29.14-.29.3-.56.44-.85S550.62,256.39,550.72,256.17ZM334.1,150.63c.94-1.92,3.78-2.76,8.14-2.7a6.81,6.81,0,0,0-.39.82v0h0l-.48,1-.24.46c-.69,1.44-1.34,2.83-2,4.27-.11.28-.21.51-.31.79-.05.11-.09.23-.13.34-.53,1.23-1,2.46-1.51,3.7C334.28,155.58,333.13,152.62,334.1,150.63Z" transform="translate(643.55 359.97)"/></g><path class="cls-1" d="M340.36,154.63c.05.05.05.05.09.05,2.15,2,4.52,4,7.17,6a10.56,10.56,0,0,1,.85.69c.27.24.59.44.9.69.59.44,1.17.93,1.8,1.38,1.21.93,2.47,1.92,3.77,2.86a7.21,7.21,0,0,1,.77.54c1.39,1,2.78,2.07,4.27,3.11.09,0,.13.1.18.1,1.57,1.14,3.15,2.23,4.77,3.32,2,1.39,4.05,2.78,6.22,4.22,1.17.74,2.34,1.54,3.56,2.33,1.71,1.09,3.47,2.24,5.27,3.38s3.61,2.24,5.46,3.39,3.75,2.29,5.65,3.44,3.83,2.34,5.82,3.49c1.27.75,2.53,1.5,3.84,2.25.72.4,1.45.85,2.22,1.26l2.57,1.5c.32.2.64.35.95.55l1.58.9,1.09.6c2,1.1,4,2.25,6,3.36q11.74,6.46,24.4,12.93c3.4,1.72,6.75,3.43,10.1,5.05,2.09,1.06,4.17,2.07,6.21,3,2.58,1.26,5.12,2.48,7.66,3.65,1.95,1,3.9,1.82,5.81,2.69,1.36.66,2.72,1.27,4.08,1.88l4,1.83,1.36.61,3.5,1.53c4,1.79,8,3.48,11.9,5.07l1.13.46c.46.21.87.36,1.32.56h.09a.14.14,0,0,0,.09.05c.32.15.59.25.87.36,1.23.46,2.41,1,3.59,1.44.82.35,1.63.66,2.45,1l2.37.93,2,.78c.87.31,1.64.62,2.46.93,1.23.46,2.41.88,3.6,1.35a2.37,2.37,0,0,1,.54.2c2.14.78,4.28,1.51,6.33,2.24.73.26,1.46.52,2.19.73l.91.32c1,.36,2,.68,3,1l.55.16c.82.27,1.59.53,2.37.74,1,.37,2.09.68,3.1,1,.22.06.5.16.73.21a.37.37,0,0,0,.22.06,2.83,2.83,0,0,0,.64.21c.28.05.6.16.87.22l.5.15c.05,0,.09.05.14.06s.18.05.27.1l.64.16.37.11s.13.05.18.05l.55.16,2.55.65.5.16a2.3,2.3,0,0,1,.28.06h.09l.59.16c.1,0,.19.06.23.06s.05,0,.09,0a1.24,1.24,0,0,1,.46.11c.09,0,.18.05.28.05.54.12,1,.27,1.59.39,1.06.27,2.06.49,3.07.71.68-1,1.31-2.07,2-3.14.34-.5.63-1.06.92-1.57.44-.73.89-1.52,1.33-2.31.29-.55.63-1.15,1-1.76.69-1.34,1.43-2.73,2.12-4.16.1-.19.2-.42.3-.61.19-.37.34-.74.49-1.11h0c.35-.74.7-1.48,1-2.23s.75-1.76,1.11-2.69c.25-.65.55-1.25.8-1.91a.17.17,0,0,1,0-.14v-.09h.05a2.7,2.7,0,0,1,.2-.56s.05-.09.05-.14,0,0,0-.14v0a.17.17,0,0,0,.05-.1s0-.09.1-.13v-.1a.74.74,0,0,0,.06-.18c.2-.52.4-1.07.6-1.63v0c.2-.51.4-1,.56-1.58,0,0,.05-.14.09-.19s0-.09.06-.14a.94.94,0,0,0,.1-.28,3.23,3.23,0,0,0,.2-.65v-.05s0,0,0-.09a4.76,4.76,0,0,0,.26-.89c.05,0,.05-.09.1-.18s.1-.28.16-.47a1.7,1.7,0,0,0,.05-.23v-.05s0,0,0,0a3.58,3.58,0,0,0,.21-.7,1.92,1.92,0,0,0,0-.24c.05-.18.15-.42.21-.6.3-.93.56-1.82.83-2.75,0-.19.1-.42.15-.61a.41.41,0,0,0,.06-.24c.42-1.54.79-3,1.12-4.57.16-.57.27-1.08.38-1.59.32-1.45.6-2.95.84-4.45.33-1.78.63-3.61.83-5.44.06-.47.12-.94.14-1.41a.19.19,0,0,0,0-.14v-.23c.05-.28.06-.57.11-.8s.07-.61.08-.89v-.28a2.21,2.21,0,0,0,.06-.57,10.57,10.57,0,0,0,.14-1.13l0-.79a1.18,1.18,0,0,0,.06-.38c.1-1.6.2-3.2.25-4.8.07-1.83.08-3.72.06-5.6,0-1.09,0-2.17-.08-3.26,0-1.5-.13-3-.27-4.39s-.22-2.93-.4-4.39c-.1-1.14-.24-2.32-.44-3.46s-.29-2.08-.49-3.12v0c0-.09,0-.14,0-.24-.15-.94-.3-1.84-.5-2.75s-.35-2-.59-3-.48-2.14-.77-3.19a12.69,12.69,0,0,0-.33-1.28v-.14c-.16-.67-.37-1.33-.58-2s-.41-1.57-.66-2.33c-.12-.52-.29-1-.45-1.52-.08-.29-.17-.53-.25-.81l-.38-1.1c-.29-.9-.58-1.76-.92-2.67,0-.19-.13-.33-.17-.52-.3-.77-.55-1.53-.84-2.25a8.23,8.23,0,0,0-.43-1.05c-.25-.66-.51-1.29-.76-1.91s-.56-1.33-.81-2l-.18-.33c0-.14-.13-.29-.17-.43-.68-1.53-1.42-3-2.15-4.55-.3-.57-.6-1.2-.9-1.77-.35-.72-.69-1.39-1.09-2.06a5.36,5.36,0,0,0-.39-.73,0,0,0,0,0,0,0s0-.1-.09-.15a1.49,1.49,0,0,0-.22-.38v-.1c-.18-.29-.31-.53-.48-.81-1.09-1.92-2.22-3.85-3.45-5.68-.35-.53-.66-1.06-1-1.59-.53-.82-1.05-1.64-1.63-2.41a7.62,7.62,0,0,0-.57-.77,4.22,4.22,0,0,0-.44-.63c-.88-1.21-1.76-2.42-2.69-3.58a3.3,3.3,0,0,0-.35-.43c-.75-1-1.55-2-2.39-3l-.13-.14c-.36-.44-.71-.83-1.11-1.27a1.22,1.22,0,0,0-.31-.34c-.71-.82-1.38-1.6-2.14-2.33a9.42,9.42,0,0,0-.93-1,2.79,2.79,0,0,0-.49-.54c-.58-.63-1.2-1.21-1.78-1.8a5.28,5.28,0,0,0-.89-.88c-.54-.53-1.07-1-1.65-1.56-.36-.34-.72-.68-1.07-1s-.59-.53-.85-.73a1.86,1.86,0,0,0-.45-.39c-1-.88-2-1.72-3-2.55-.22-.2-.45-.35-.62-.54a28.32,28.32,0,0,0-2.34-1.82c-.49-.4-1-.74-1.48-1.14a1.11,1.11,0,0,0-.27-.19,5.16,5.16,0,0,0-.58-.5c-1.49-1.08-3-2.12-4.59-3.17a10.71,10.71,0,0,0-1.18-.74c-1.21-.84-2.48-1.64-3.79-2.39a18.06,18.06,0,0,0-1.67-1c-1.63-1-3.3-1.86-5-2.71a114.49,114.49,0,0,0-48.27-12.51c-1.52-.05-3-.06-4.51-.06l-2.4.06a8,8,0,0,0-1.06.06c-1.38,0-2.77.09-4.11.19-2,.12-4,.34-6,.6s-4,.52-6,.93h-.1c-1.94.35-3.89.76-5.8,1.21-1.48.33-2.88.71-4.32,1.08-.74.21-1.49.42-2.18.64-1.4.42-2.8.89-4.2,1.36-.79.26-1.58.56-2.37.87-1.4.47-2.8,1-4.16,1.55a.14.14,0,0,0-.09,0c-3,1.21-6,2.57-8.94,4.08-1.26.61-2.48,1.28-3.7,1.94A118,118,0,0,0,381.34,98c-1.27.94-2.55,1.94-3.78,3a.2.2,0,0,0-.14.09c-1.19,1-2.37,2-3.56,3-.05,0-.05.09-.1.13h0c-1,.91-2,1.82-3,2.78a13.83,13.83,0,0,0-1.24,1.18c-1.43,1.41-2.82,2.83-4.16,4.29-.76.82-1.48,1.64-2.2,2.47-.57.64-1.1,1.28-1.63,2-1,1.1-1.83,2.25-2.7,3.4l0,0c-.39.46-.77,1-1.11,1.42-.48.65-1,1.29-1.4,2a16.19,16.19,0,0,0-1.16,1.61,4.68,4.68,0,0,0-.39.6l-.58.83-1,1.48c-.34.5-.64,1-.93,1.47a0,0,0,0,0-.05.05l-.73,1.25a11.67,11.67,0,0,0-.68,1.1,3.06,3.06,0,0,0-.3.56,20.41,20.41,0,0,0-1.07,1.75c-.39.7-.79,1.44-1.13,2.13s-.74,1.39-1.09,2.09l-.44.83c-.24.46-.49,1-.74,1.44-.69,1.43-1.34,2.82-2,4.26-.1.28-.2.51-.3.79-.6,1.35-1.15,2.74-1.66,4.09a9.66,9.66,0,0,0-.6,1.49C341.08,152.58,340.72,153.61,340.36,154.63Z" transform="translate(643.55 359.97)"/><path class="cls-1" d="M333.83,200.63c.05,1.33.15,2.6.29,3.88.29,3.59.72,7.18,1.34,10.69s1.34,6.78,2.2,10.06c.4,1.62.9,3.24,1.4,4.86s.95,3.14,1.5,4.66c.05.05,0,.15.09.2v0c.51,1.48,1.1,3,1.7,4.44.21.57.42,1.15.68,1.72.13.29.21.53.34.81,1.19,2.78,2.48,5.55,3.87,8.24.77,1.53,1.6,3.07,2.47,4.56.17.33.39.67.56,1,.79,1.4,1.62,2.74,2.49,4,1,1.58,2.06,3.13,3.12,4.62s2,2.85,3.08,4.21a7.32,7.32,0,0,0,.58.72c1,1.31,2.07,2.62,3.18,3.88.89,1,1.78,2,2.71,3,.71.83,1.51,1.65,2.31,2.48s1.52,1.56,2.32,2.3a111.37,111.37,0,0,0,8.91,7.79c1.34,1.08,2.73,2.16,4.13,3.15,2.83,2,5.76,4,8.79,5.72.77.49,1.49.89,2.26,1.34,1.4.76,2.8,1.51,4.25,2.27a114.37,114.37,0,0,0,62,12.12c1.52-.14,3-.27,4.53-.51,1-.11,1.95-.26,2.92-.42s1.66-.22,2.5-.38c1.2-.25,2.41-.44,3.62-.73s2.46-.53,3.66-.82c.93-.25,1.91-.45,2.89-.75h0c1.35-.38,2.75-.75,4.1-1.18a1.91,1.91,0,0,1,.51-.17,116.27,116.27,0,0,0,11.15-4.2l3.51-1.57c1-.49,2.06-1,3.05-1.55,1.54-.8,3.09-1.59,4.6-2.49,1.78-1,3.57-2,5.31-3.16,1-.67,2.12-1.39,3.16-2.11-1.78-.53-3.56-1.06-5.38-1.64-.23-.06-.46-.16-.73-.21s-.64-.26-1-.37c-1.14-.32-2.32-.69-3.51-1.11s-2.64-.84-4-1.31c-.05.05-.05,0-.05,0l-1.41-.47c-1.82-.63-3.69-1.3-5.55-1.93q-3.42-1.17-6.83-2.49c-1.41-.52-2.87-1-4.32-1.61-.28-.1-.59-.21-.91-.36a9,9,0,0,1-1.09-.41c-1.28-.47-2.55-1-3.87-1.5-.91-.36-1.86-.72-2.82-1.13-.36-.15-.73-.26-1-.41-1-.36-1.91-.77-2.91-1.18-.46-.16-.91-.36-1.41-.57s-1-.41-1.45-.61c-1.28-.52-2.55-1-3.82-1.59-.77-.31-1.59-.67-2.41-1-1-.41-2-.87-3.09-1.32-3.22-1.39-6.44-2.81-9.71-4.29-.59-.25-1.18-.56-1.82-.81-2.26-1.07-4.53-2.09-6.85-3.2-.95-.41-1.9-.87-2.85-1.37-1.91-.91-3.77-1.78-5.67-2.74-.68-.3-1.36-.65-2.08-1-1.32-.61-2.59-1.26-3.9-1.92-.73-.35-1.4-.71-2.13-1.11h-.09l-2.08-1.06c-2.45-1.26-4.9-2.47-7.25-3.73-.63-.31-1.27-.66-1.86-1-4-2.11-7.92-4.22-11.76-6.38l-5.29-3c-1.45-.81-2.85-1.61-4.25-2.41-1.94-1.1-3.89-2.2-5.78-3.4-.95-.55-1.94-1.1-2.85-1.69s-1.89-1.11-2.84-1.7c-3.07-1.85-6.05-3.69-9-5.58-1.22-.75-2.43-1.5-3.65-2.29-.27-.15-.5-.35-.72-.5-1-.6-2-1.24-2.93-1.84a7.73,7.73,0,0,0-.81-.55q-8.87-5.81-17-11.59h0V209c-1.93-1.39-3.87-2.77-5.75-4.2S335.68,202,333.83,200.63Z" transform="translate(643.55 359.97)"/><path class="cls-1" d="M340.36,154.63c.05.05.05.05.09.05,2.15,2,4.52,4,7.17,6a10.56,10.56,0,0,1,.85.69c.27.24.59.44.9.69.59.44,1.17.93,1.8,1.38,1.21.93,2.47,1.92,3.77,2.86a7.21,7.21,0,0,1,.77.54c1.39,1,2.78,2.07,4.27,3.11.09,0,.13.1.18.1,1.53,1.14,3.15,2.23,4.77,3.32,2,1.39,4.05,2.78,6.22,4.22,1.17.74,2.34,1.54,3.56,2.33,1.71,1.09,3.47,2.24,5.27,3.38s3.61,2.24,5.46,3.39,3.75,2.29,5.65,3.44,3.83,2.34,5.82,3.49c1.27.75,2.53,1.5,3.84,2.25.72.4,1.45.85,2.22,1.26v0c.85.5,1.71,1,2.57,1.46.32.2.64.35.95.55l1.58.9,1.09.6c2,1.1,4,2.25,6,3.36q11.74,6.46,24.4,12.93c3.4,1.72,6.75,3.43,10.1,5.05,2.09,1.06,4.17,2.07,6.21,3,2.58,1.26,5.12,2.48,7.66,3.65,1.95,1,3.9,1.82,5.81,2.69,1.36.66,2.72,1.27,4.08,1.88l4,1.83,1.36.61,3.5,1.53c4,1.79,8,3.48,11.9,5.07l1.13.46c.46.21.87.36,1.32.56h.09a.14.14,0,0,0,.09.05c.32.15.59.25.87.36,1.23.46,2.41,1,3.59,1.44.82.35,1.63.66,2.45,1l2.37.93,2,.78c.87.31,1.64.62,2.46.93,1.23.46,2.41.88,3.6,1.35a2.37,2.37,0,0,1,.54.2c2.14.78,4.28,1.51,6.33,2.24.73.26,1.46.52,2.19.73l.91.32c1,.36,2,.68,3,1l.55.16c.82.27,1.59.53,2.37.74,1,.37,2.09.68,3.1,1,.22.06.5.16.73.21a.37.37,0,0,0,.22.06,2.83,2.83,0,0,0,.64.21c.28.05.6.16.87.22l.5.15c.05,0,.09.05.14.06s.18.05.27.1l.64.16.37.11s.13.05.18.05l.55.16,2.55.65.5.16a2.3,2.3,0,0,1,.28.06h.09l.59.16c.1,0,.19,0,.23.06s.05,0,.09,0,.14.05.19,0,.18.06.27.11.18.05.28.05c.54.12,1,.27,1.59.39,1.06.27,2.06.49,3.07.71.68-1,1.31-2.07,2-3.14.34-.5.63-1.06.92-1.57.44-.73.89-1.52,1.33-2.31.29-.55.63-1.15,1-1.76.69-1.34,1.43-2.73,2.12-4.16.1-.19.2-.42.3-.61.19-.37.34-.74.49-1.11h0c.35-.74.7-1.48,1-2.23s.75-1.76,1.11-2.69c.25-.65.55-1.25.8-1.91a.17.17,0,0,1,0-.14v-.09h.05a2.7,2.7,0,0,1,.2-.56s.05-.09.05-.14,0,0,0-.14v0a.17.17,0,0,0,.05-.1s0-.09.1-.13v-.1a.74.74,0,0,0,.06-.18c.2-.52.4-1.07.6-1.63v0c.2-.51.4-1,.56-1.58,0,0,.05-.14.09-.19s0-.09.06-.14a.94.94,0,0,0,.1-.28,3.23,3.23,0,0,0,.2-.65v-.05s0,0,0-.09a4.76,4.76,0,0,0,.26-.89c.05,0,.05-.09.1-.18s.1-.28.16-.47a1.7,1.7,0,0,0,.05-.23v-.05s0,0,0,0a3.58,3.58,0,0,0,.21-.7,1.92,1.92,0,0,0,0-.24c.05-.18.15-.42.21-.6.3-.93.56-1.82.83-2.75,0-.19.1-.42.15-.61a.41.41,0,0,0,.06-.24c.42-1.54.79-3,1.12-4.57.16-.57.27-1.08.38-1.59.32-1.45.6-2.95.84-4.45.33-1.78.63-3.61.83-5.44.06-.47.12-.94.14-1.41a.19.19,0,0,0,0-.14v-.23a10.8,10.8,0,0,0,.19-1.69v-.28a2.21,2.21,0,0,0,.06-.57,10.57,10.57,0,0,0,.14-1.13l0-.79a1.18,1.18,0,0,0,.06-.38c.1-1.6.2-3.2.25-4.8.07-1.83.08-3.72.06-5.6,0-1.09,0-2.17-.08-3.26,0-1.5-.13-3-.27-4.39s-.22-2.93-.4-4.39c-.1-1.14-.24-2.32-.44-3.46s-.29-2.08-.49-3.12v0c0-.09,0-.14,0-.24-.15-.94-.3-1.84-.5-2.75s-.35-2-.59-3-.48-2.14-.77-3.19a12.69,12.69,0,0,0-.33-1.28v-.14c-.16-.67-.37-1.33-.58-2s-.41-1.57-.66-2.33c-.12-.52-.29-1-.45-1.52-.08-.29-.17-.53-.25-.81l-.38-1.1c-.29-.9-.58-1.76-.92-2.67,0-.19-.13-.33-.17-.52-.3-.77-.55-1.53-.84-2.25a8.23,8.23,0,0,0-.43-1.05c-.25-.66-.51-1.29-.76-1.91s-.56-1.33-.81-2l-.18-.33c0-.14-.13-.29-.17-.43-.68-1.53-1.42-3-2.15-4.55-.3-.57-.6-1.2-.9-1.77-.35-.72-.69-1.39-1.09-2.06a5.36,5.36,0,0,0-.39-.73,0,0,0,0,0,0,0s0-.1-.09-.15a1.49,1.49,0,0,0-.22-.38v-.1c-.18-.29-.31-.53-.48-.81-1.09-1.92-2.22-3.85-3.45-5.68-.35-.53-.66-1.06-1-1.59-.53-.82-1.05-1.64-1.63-2.41a7.62,7.62,0,0,0-.57-.77,4.22,4.22,0,0,0-.44-.63c-.88-1.21-1.76-2.42-2.69-3.58a3.3,3.3,0,0,0-.35-.43c-.75-1-1.55-2-2.39-3l-.13-.14c-.36-.44-.71-.83-1.11-1.27a1.22,1.22,0,0,0-.31-.34c-.71-.82-1.38-1.6-2.14-2.33a9.42,9.42,0,0,0-.93-1,2.79,2.79,0,0,0-.49-.54c-.58-.63-1.2-1.21-1.78-1.8a5.28,5.28,0,0,0-.89-.88c-.54-.53-1.07-1-1.65-1.56-.36-.34-.72-.68-1.07-1s-.59-.53-.85-.73a1.86,1.86,0,0,0-.45-.39c-1-.88-2-1.72-3-2.55-.22-.2-.45-.35-.62-.54a28.32,28.32,0,0,0-2.34-1.82c-.49-.4-1-.74-1.48-1.14a1.11,1.11,0,0,0-.27-.19,5.38,5.38,0,0,1,.35.67l0,0c2,3.41,3.73,6.86,5.36,10.45a122.18,122.18,0,0,1,6,16.17s0,0,0,.1c0,.23.13.38.17.61v0c.24.81.49,1.67.7,2.47.24,1,.49,1.81.64,2.76.05,0,.05,0,0,.05a115,115,0,0,1,3,19.84c.19,2.41.29,4.91.3,7.36a11.47,11.47,0,0,1,0,1.31c0,2.08,0,4.2-.17,6.27,0,1.08-.12,2.16-.2,3.24a121.76,121.76,0,0,1-3.82,21.73l-.16.61a3.92,3.92,0,0,0-.15.42,2.66,2.66,0,0,1-.16.51c-.25.75-.51,1.45-.8,2.14a27.05,27.05,0,0,1-2.28,4.68,17.61,17.61,0,0,1-1.17,1.9,35,35,0,0,1-8.64,8.89h-.05c-.33.27-.66.5-1,.72a39.53,39.53,0,0,1-8.3,4.29,5.18,5.18,0,0,0-.51.22,56.91,56.91,0,0,1-26.63,2.73A88.56,88.56,0,0,1,469,215h0c-1.92-.53-3.88-1.12-5.93-1.8-33.09-10.68-78.9-36-105.28-51.65-2.53-1.54-4.88-2.94-7-4.24,0,0,0,0-.09,0s-.13-.1-.22-.15a6.77,6.77,0,0,1-1-.65c-1.22-.7-2.4-1.44-3.43-2.09h-.05c-1.67-1-3.07-1.94-4.33-2.74-.05,0-.05,0-.09-.05-.5-.3-1-.6-1.35-.85C338.73,153.82,341.44,151.47,340.36,154.63Z" transform="translate(643.55 359.97)"/><path class="cls-1" d="M539.16,159.51" transform="translate(643.55 359.97)"/><path class="cls-1" d="M421.18,254.64c-33.69-17.17-63.64-35.93-87.34-54a122,122,0,0,0,1.64,14.55c18.21,14.63,47.49,33,81.75,50.41,32.8,16.72,63.5,29.24,85.71,35.58a116.61,116.61,0,0,0,13-7.75C487.56,285,454.88,271.81,421.18,254.64Z" transform="translate(643.55 359.97)"/><path class="cls-1" d="M346.75,139.5c-.24.47-.47.93-.7,1.41a120.46,120.46,0,0,0-5.71,13.74c18.42,16.45,55.14,39.9,99.22,62.36S524.07,255.34,548,260.47a120.4,120.4,0,0,0,7.32-12.92c.11-.21.21-.42.31-.64-22.76-3.45-63.94-18.88-108.88-41.78C400.05,181.33,362.09,156,346.75,139.5Z" transform="translate(643.55 359.97)"/><path class="cls-1" d="M370.77,107c0,.09.08.14.13.24a48.55,48.55,0,0,0,6.73,8,.18.18,0,0,0,0,.1h.05a1.24,1.24,0,0,0,.18.14,2.28,2.28,0,0,0,.49.49c2.09,2,4.56,4.21,7.29,6.47,16.81,13.9,44.92,31.43,77.94,48.23a588.33,588.33,0,0,0,57.91,25.93c2.41.88,4.73,1.76,7,2.54a202.3,202.3,0,0,0,26.6,7.73.48.48,0,0,0,.22.06h0a56.81,56.81,0,0,0,11.43,1.37h0v-.37c.05-.28.06-.57.11-.8s.07-.61.08-.89v-.28a2.21,2.21,0,0,0,.06-.57,10.57,10.57,0,0,0,.14-1.13l0-.79-.07-3.21a58.06,58.06,0,0,1-11.43-1.38l0,0a201.58,201.58,0,0,1-24-7c-2.46-.88-5-1.82-7.6-2.85a566.32,566.32,0,0,1-57-25.52c-33.92-17.26-59.81-33.82-75.1-46.16-2.92-2.31-5.47-4.52-7.57-6.52a7.68,7.68,0,0,1-.58-.54h-.05l-.17-.2a38,38,0,0,1-6.51-7.75l-2,1.11s-.09.09-.14.09l-1.27.8h0C372.72,105.12,371.72,106,370.77,107Z" transform="translate(643.55 359.97)"/><path class="cls-1" d="M404.78,86c2.05,2,4.51,4.2,7.29,6.51h.05a4.66,4.66,0,0,0,.63.49,2.23,2.23,0,0,0,.31.3c.18.14.4.29.63.49,2.87,2.26,6.06,4.68,9.57,7.15,15.07,10.69,35.4,22.77,57.73,34.17,16.12,8.22,32.09,15.41,46.33,21,3.09,1.19,6,2.32,9,3.36,5.6,2,10.84,3.76,15.58,5.15h0c.23.05.45.15.68.21,3.83,1.07,7.35,1.9,10.47,2.52l.72-3.84v-.14c-.16-.67-.37-1.33-.58-2s-.41-1.57-.66-2.33c-4-.89-8.59-2.13-13.65-3.76h-.09c-4-1.27-8.29-2.78-12.79-4.48q-4.65-1.71-9.55-3.72c-13.05-5.24-27.38-11.8-42-19.22a505.68,505.68,0,0,1-51.1-29.66c-3.92-2.63-7.48-5.15-10.76-7.57a3.34,3.34,0,0,0-.49-.39,2.28,2.28,0,0,1-.36-.3c-3.78-2.86-7.09-5.61-9.77-8.1a1.78,1.78,0,0,1-.31-.29.05.05,0,0,1,0,0c-1.35.47-2.75,1-4.11,1.6a.14.14,0,0,0-.09,0l-.62.63a0,0,0,0,0,0,0Z" transform="translate(643.55 359.97)"/><path class="cls-1" d="M355.5,122.59c.09.09.13.24.22.33.17.29.39.53.57.82l.13.15c.7,1,1.5,1.93,2.43,3,.27.34.62.73,1,1.12,1.11,1.21,2.4,2.48,3.79,3.8,0,0,0,0,0,.05a0,0,0,0,1,0,0,0,0,0,0,1,.05.05c2.14,2,4.61,4.11,7.3,6.32,2.5,2.11,5.29,4.23,8.26,6.4a2.14,2.14,0,0,0,.4.35c18.34,13.57,44.71,29.54,74.55,44.77,17.35,8.83,34.18,16.56,49.45,22.82,1.91.77,3.82,1.54,5.68,2.26,5.09,2.06,10,3.87,14.65,5.54a2.66,2.66,0,0,0,.55.16,218.41,218.41,0,0,0,25.54,7.5c.09,0,.23.06.32.11,2.61.55,5,1,7.29,1.28l1.51.19c1,.13,2.07.21,3,.24a1.66,1.66,0,0,0,.46.07l.6,0,.27-8.1a64.14,64.14,0,0,1-10.91-1.5,2.07,2.07,0,0,1-.55-.11c-2.75-.56-5.76-1.32-9-2.23a1.16,1.16,0,0,1-.32-.06c-7.12-2-15.27-4.76-24.14-8.12l-6.09-2.37c-16.69-6.59-35.52-15.09-54.86-24.93-34.24-17.46-64.34-36.19-81.78-50.44-.49-.44-1-.83-1.43-1.22-2.11-1.72-3.94-3.39-5.6-5a1.08,1.08,0,0,1-.22-.19.71.71,0,0,1-.18-.15l-.13-.15h-.05a48.81,48.81,0,0,1-6.34-7.33l-2.69,1.85-.52.36,0,0c-.39.46-.77,1-1.11,1.42l-.73-.16-1.13.76Z" transform="translate(643.55 359.97)"/><path class="cls-1" d="M340.65,235v0c.51,1.48,1.1,3,1.7,4.44a160.24,160.24,0,0,0,20.24,15.85l.05.05h0a406.29,406.29,0,0,0,45.14,26.4,410.42,410.42,0,0,0,46.71,20.56.16.16,0,0,0,.14.05,162.91,162.91,0,0,0,25.87,7.47h0c1.35-.38,2.75-.75,4.1-1.18a1.91,1.91,0,0,1,.51-.17l1-1.76-.36-.2-.41-.06a112.58,112.58,0,0,1-20.94-5h-.13c-15.55-5-35-13.24-54.73-23.28-20.48-10.4-38.9-21.53-52.11-31.35a0,0,0,0,1-.05-.05,113.08,113.08,0,0,1-15.36-13.14Z" transform="translate(643.55 359.97)"/><path class="cls-1" d="M333.83,200.63c.05,1.33.15,2.6.29,3.88.29,3.59.72,7.18,1.34,10.69s1.34,6.78,2.2,10.06c.4,1.62.9,3.24,1.4,4.86s.95,3.14,1.5,4.66c.05.05,0,.15.09.2v0c.51,1.48,1.1,3,1.7,4.44.21.57.42,1.15.68,1.72.13.29.21.53.34.81,1.19,2.78,2.44,5.55,3.87,8.24.77,1.53,1.6,3.07,2.47,4.56.17.33.39.67.56,1,.79,1.4,1.62,2.74,2.49,4,1,1.58,2.06,3.13,3.12,4.62s2,2.85,3.08,4.21a7.32,7.32,0,0,0,.58.72c1,1.31,2.07,2.62,3.18,3.88.89,1,1.78,2,2.71,3,.71.83,1.51,1.65,2.31,2.48s1.52,1.56,2.32,2.3a111.37,111.37,0,0,0,8.91,7.79c1.34,1.08,2.73,2.16,4.13,3.15,2.83,2,5.76,4,8.79,5.72.77.49,1.49.89,2.26,1.34,1.4.76,2.8,1.51,4.25,2.27a114.37,114.37,0,0,0,62,12.12c1.52-.14,3-.27,4.53-.51,1-.11,1.95-.26,2.92-.42s1.66-.22,2.5-.38c1.2-.25,2.41-.44,3.62-.73s2.46-.53,3.66-.82c.93-.25,1.91-.45,2.89-.75h0c1.35-.38,2.75-.75,4.1-1.18a1.91,1.91,0,0,1,.51-.17,116.27,116.27,0,0,0,11.15-4.2l3.51-1.57c1-.49,2.06-1,3.05-1.55,1.54-.8,3.09-1.59,4.6-2.49,1.78-1,3.57-2,5.31-3.16,1-.67,2.12-1.39,3.16-2.11-1.78-.53-3.56-1.06-5.38-1.64-.23-.06-.46-.16-.73-.21s-.64-.26-1-.37c-1.14-.32-2.32-.69-3.51-1.11s-2.64-.84-4-1.31c-.05.05-.05,0-.05,0l-1.41-.47c-1.82-.63-3.69-1.3-5.55-1.93q-3.42-1.17-6.83-2.49c-1.41-.52-2.87-1-4.32-1.61-.28-.1-.59-.21-.91-.36a9,9,0,0,1-1.09-.41c-1.28-.47-2.55-1-3.87-1.5-.91-.36-1.86-.72-2.82-1.13-.36-.15-.73-.26-1-.41-1-.36-1.91-.77-2.91-1.18-.46-.16-.91-.36-1.41-.57s-1-.41-1.45-.61c-1.28-.52-2.55-1-3.82-1.59-.77-.31-1.59-.67-2.41-1-1-.41-2-.87-3.09-1.32-3.22-1.39-6.44-2.81-9.71-4.29-.59-.25-1.18-.56-1.82-.81-2.26-1.07-4.53-2.09-6.85-3.2-.95-.41-1.9-.87-2.85-1.37-1.91-.91-3.77-1.78-5.67-2.74-.68-.3-1.36-.65-2.08-1-1.32-.61-2.59-1.26-3.9-1.92-.73-.35-1.4-.71-2.13-1.11h-.09l-2.08-1.06c-2.45-1.26-4.9-2.47-7.25-3.73-.63-.31-1.27-.66-1.86-1-4-2.11-7.92-4.22-11.76-6.38l-5.29-3c-1.45-.81-2.85-1.61-4.25-2.41-1.94-1.1-3.89-2.2-5.78-3.4-.95-.55-1.94-1.1-2.85-1.69s-1.89-1.11-2.84-1.7c-3.07-1.85-6.05-3.69-9-5.58-1.22-.75-2.43-1.5-3.65-2.29-.27-.15-.5-.35-.72-.5-1-.6-2-1.24-2.93-1.84a7.73,7.73,0,0,0-.81-.55q-8.87-5.81-17-11.59h0V209c-1.93-1.39-3.87-2.77-5.75-4.2S335.68,202,333.83,200.63Z" transform="translate(643.55 359.97)"/><path class="cls-1" d="M333.83,200.63c1.85,1.39,3.69,2.77,5.58,4.15s3.82,2.81,5.75,4.2V209h0c10.43,7.46,21.88,15,34.12,22.35,1.9,1.15,3.75,2.29,5.69,3.39s3.84,2.3,5.78,3.4c6.87,4,14,7.92,21.3,11.79q4.48,2.34,9.11,4.69l2.08,1.06h0c.72.4,1.44.76,2.17,1.11,3.9,2,7.79,3.84,11.65,5.67.95.5,1.9,1,2.85,1.37,2.32,1.11,4.59,2.13,6.85,3.2.64.25,1.23.56,1.82.81,3.27,1.48,6.49,2.9,9.71,4.29,1.05.45,2.09.91,3.09,1.32,2.09.92,4.18,1.79,6.23,2.62q13.69,5.68,26.65,10.27c1.86.63,3.73,1.3,5.55,1.93l1.41.47s0,.05.05,0c1.32.47,2.64.89,4,1.31s2.37.79,3.51,1.11c.6.21,1.19.42,1.74.58,1.82.58,3.6,1.11,5.38,1.64,47.93,14.34,83.65,15.26,91.32-.46,7-14.23-10.66-39-43.83-66.31,0,0-.09,0-.13-.09-.27.93-.53,1.82-.83,2.75-.06.18-.16.42-.21.6a1.92,1.92,0,0,1,0,.24c-.06.23-.16.46-.21.7,0,0,0,0,0,0v.05a2.79,2.79,0,0,1-.31.88,4.76,4.76,0,0,1-.26.89c0,.05,0,.05,0,.09v.05a5.89,5.89,0,0,1-.45,1.26c-.16.56-.36,1.07-.56,1.58v0c-.2.56-.4,1.11-.6,1.63a.74.74,0,0,1-.06.18v.1a4.87,4.87,0,0,0-.25.55,2.7,2.7,0,0,0-.2.56h-.05v.09a.17.17,0,0,0,0,.14c-.25.66-.55,1.26-.8,1.91,1,.88,1.92,1.76,2.81,2.64s1.74,1.66,2.5,2.49a12.84,12.84,0,0,1,1.11,1.21c4.7,5.25,6.73,9.37,5.44,12a4.06,4.06,0,0,1-1.24,1.42,5.41,5.41,0,0,1-1.74.83,6.57,6.57,0,0,1-1.62.47,26.6,26.6,0,0,1-6,.23,70,70,0,0,1-8-1c-1.1-.18-2.29-.41-3.52-.69-1-.22-2-.44-3.07-.71-.54-.12-1.05-.27-1.59-.39-.1,0-.19-.05-.28-.05a14,14,0,0,1-1.37-.38,1.13,1.13,0,0,1-.37-.06l-.5-.16c-1.05-.27-2.14-.54-3.28-.86-.64-.21-1.28-.37-1.92-.58-.82-.22-1.64-.48-2.46-.7-1-.32-2.06-.63-3.1-1-.78-.21-1.55-.47-2.37-.74-1.46-.42-2.92-.94-4.42-1.47-.73-.21-1.46-.47-2.19-.73-11.57-4-24.71-9.17-38.78-15.35l-3.5-1.53-1.36-.61c-2.68-1.22-5.4-2.44-8.12-3.71-1.91-.87-3.86-1.73-5.81-2.69-2.54-1.17-5.08-2.39-7.66-3.65-2-1-4.12-2-6.21-3-3.31-1.62-6.7-3.33-10.1-5.05q-12.65-6.44-24.4-12.93c-2-1.11-4-2.26-6-3.36-16.77-9.47-31.8-18.74-44.23-27.31-1.62-1.09-3.24-2.18-4.77-3.32-.05,0-.09-.05-.18-.1-1.49-1-2.88-2.07-4.27-3.11a7.21,7.21,0,0,0-.77-.54c-2.61-1.93-5-3.8-7.32-5.62-2.65-2.07-5-4.08-7.17-6,0,0,0,0-.09-.05-2.23-2-4.2-3.91-5.89-5.66-5.47-5.79-7.89-10.35-6.51-13.13,1.78-3.61,9.48-3.87,21.47-1.4a20.41,20.41,0,0,1,1.07-1.75,3.06,3.06,0,0,1,.3-.56,11.67,11.67,0,0,1,.68-1.1l.73-1.25a0,0,0,0,1,.05-.05c.29-.51.59-1,.93-1.47l1-1.48.58-.83a4.68,4.68,0,0,1,.39-.6,16.19,16.19,0,0,1,1.16-1.61c.43-.69.92-1.33,1.4-2l-.73-.16c-41-10.57-70.8-9.92-77.68,4.22C271.61,141.53,293.82,170.12,333.83,200.63Z" transform="translate(643.55 359.97)"/><path class="cls-1" d="M559.13,239c-.26.64-.52,1.28-.79,1.92,9.17,8.28,13.6,14.73,11.84,18.33s-9.78,3.9-22.17,1.24c-15.87-3.4-39-11.54-65.67-23.18a17.74,17.74,0,0,1-.24,6.78c10.29,4.36,20.28,8.24,29.77,11.57,41.24,14.51,63,15.06,65.73,9.43C579.21,261.78,575.17,253.22,559.13,239Z" transform="translate(643.55 359.97)"/><path class="cls-1" d="M562.43,233.28l-1,1.24a180.75,180.75,0,0,1,19.36,18.73Q575.52,244.73,562.43,233.28Z" transform="translate(643.55 359.97)"/><path class="cls-1" d="M560.35,235.75l1-1.23c-.14-.13-.3-.26-.46-.39Z" transform="translate(643.55 359.97)"/><path class="cls-1" d="M580.75,253.25c3.66,5.91,4.48,10.79,2.56,14.73s-6.06,5.88-11.77,6.61c-14.91,1.9-40.2-5.19-61.75-12.77-9.76-3.43-20-7.43-30.62-11.91a20.54,20.54,0,0,1-9.3,6c15.64,6.72,30.84,12.48,45.1,17.09,50.87,16.41,73.31,13.22,77.08,5.5C594.15,274.18,591.62,265.74,580.75,253.25Z" transform="translate(643.55 359.97)"/><path class="cls-1" d="M423.26,255.69c33,16.66,64.89,29.45,92.7,37.74,47.95,14.3,83.67,15.23,91.34-.46,7-14.24-10.73-39.12-44-66.44-.39,1.44-.83,2.87-1.28,4.3l2-2.54c19.31,16.18,40.83,38.53,33.71,53.08-2.75,5.63-8.91,8.51-17,9.54-18.95,2.41-48.31-5.45-67.74-11.72a545.06,545.06,0,0,1-54.22-21C449.3,259.08,437.23,258.22,423.26,255.69Z" transform="translate(643.55 359.97)"/><path class="cls-1" d="M479.17,249.91c10.59,4.48,20.86,8.48,30.62,11.91,21.55,7.58,46.84,14.67,61.75,12.77,5.71-.73,9.89-2.77,11.77-6.61s1.1-8.82-2.56-14.73a180.75,180.75,0,0,0-19.36-18.73l-1,1.23c-.4,1.08-.81,2.15-1.22,3.23,16,14.24,20.08,22.8,18.47,26.09-2.75,5.63-24.49,5.08-65.73-9.43-9.49-3.33-19.48-7.21-29.77-11.57a13.74,13.74,0,0,1-2.93,5.84Z" transform="translate(643.55 359.97)"/><path class="cls-1" d="M561.39,234.52a180.75,180.75,0,0,1,19.36,18.73q-5.24-8.52-18.32-20Z" transform="translate(643.55 359.97)"/><path class="cls-1" d="M560.35,235.75l-2.08,2.48.86.75C559.54,237.9,560,236.83,560.35,235.75Z" transform="translate(643.55 359.97)"/><path class="cls-1" d="M362.27,186.66a643.8,643.8,0,0,0,71.57,42.09c15.33,7.81,30.63,14.95,45.33,21.16a13.74,13.74,0,0,0,2.93-5.84c-14.71-6.18-30.05-13.33-45.42-21.16a637,637,0,0,1-70.83-41.67c-36.14-24.93-49.65-42.35-46.91-48,1.65-3.35,11.07-5.21,32.62-.35l1-4.8.35-1.59c-11.3-2.54-20.18-3.53-26.73-3-6.77.6-11.06,2.87-13,6.79C306.45,144.25,336.16,168.64,362.27,186.66Z" transform="translate(643.55 359.97)"/><path class="cls-1" d="M458.83,258.16a545.06,545.06,0,0,0,54.22,21c19.43,6.27,48.79,14.13,67.74,11.72,8.06-1,14.22-3.91,17-9.54,7.12-14.55-14.4-36.9-33.71-53.08l-2,2.54c-.35,1.11-.71,2.21-1.09,3.3.16.13.32.26.46.39l1-1.24q13.11,11.47,18.32,20c10.87,12.49,13.4,20.93,11.3,25.22-3.77,7.72-26.21,10.91-77.08-5.5-14.26-4.61-29.46-10.37-45.1-17.09A46.68,46.68,0,0,1,458.83,258.16Z" transform="translate(643.55 359.97)"/><path class="cls-1" d="M562.43,233.28l-1,1.24a180.75,180.75,0,0,1,19.36,18.73Q575.52,244.73,562.43,233.28Z" transform="translate(643.55 359.97)"/><path class="cls-1" d="M562,230.83l-2,2.51.93.79C561.31,233,561.67,231.94,562,230.83Z" transform="translate(643.55 359.97)"/><path class="cls-1" d="M346.73,194.45c22.71,16.55,50.44,33.31,80.19,48.46,10.68,5.46,21.36,10.55,31.91,15.25a46.68,46.68,0,0,0,11-2.28c-13.16-5.64-26.63-12-40.11-18.82-29.45-15-56.87-31.57-79.32-47.93C307,157.5,296,137.25,299.78,129.54c2.09-4.28,10.19-7.29,26.44-6a176.36,176.36,0,0,1,26.38,4.55l1.75.43,1.51-6.34c-24.26-6-54.68-10.14-61.79,4.41C284.83,145.53,323.1,177.23,346.73,194.45Z" transform="translate(643.55 359.97)"/><path class="cls-1" d="M333.83,200.63c1.85,1.39,3.69,2.77,5.58,4.15s3.82,2.81,5.75,4.2V209h0c10.43,7.46,21.88,15,34.12,22.35,1.9,1.15,3.75,2.29,5.69,3.39s3.84,2.3,5.78,3.4c6.87,4,14,7.92,21.3,11.79q4.48,2.34,9.11,4.69l2.08,1.06h0c.72.4,1.44.76,2.17,1.11,3.9,2,7.79,3.84,11.65,5.67.95.5,1.9,1,2.85,1.37,2.32,1.11,4.59,2.13,6.85,3.2.64.25,1.23.56,1.82.81,3.27,1.48,6.49,2.9,9.71,4.29,1.05.45,2.09.91,3.09,1.32,2.09.92,4.18,1.79,6.23,2.62q13.69,5.68,26.65,10.27c1.86.63,3.73,1.3,5.55,1.93l1.41.47s0,.05.05,0c1.32.47,2.64.89,4,1.31s2.37.79,3.51,1.11c.6.21,1.19.42,1.74.58,1.82.58,3.6,1.11,5.38,1.64,47.93,14.34,83.65,15.26,91.32-.46,7-14.23-10.66-39-43.83-66.31,0,0-.09,0-.13-.09-.27.93-.53,1.82-.83,2.75-.06.18-.16.42-.21.6a1.92,1.92,0,0,1,0,.24c-.06.23-.16.46-.21.7,0,0,0,0,0,0v.05a2.79,2.79,0,0,1-.31.88,4.76,4.76,0,0,1-.26.89c0,.05,0,.05,0,.09v.05a5.89,5.89,0,0,1-.45,1.26c-.16.56-.36,1.07-.56,1.58v0c-.2.56-.4,1.11-.6,1.63a.74.74,0,0,1-.06.18v.1a4.87,4.87,0,0,0-.25.55,2.7,2.7,0,0,0-.2.56h-.05v.09a.17.17,0,0,0,0,.14c-.25.66-.55,1.26-.8,1.91,1,.88,1.92,1.76,2.81,2.64s1.74,1.66,2.5,2.49a12.84,12.84,0,0,1,1.11,1.21c4.7,5.25,6.73,9.37,5.44,12a4.06,4.06,0,0,1-1.24,1.42,5.41,5.41,0,0,1-1.74.83,6.57,6.57,0,0,1-1.62.47,26.6,26.6,0,0,1-6,.23,70,70,0,0,1-8-1c-1.1-.18-2.29-.41-3.52-.69-1-.22-2-.44-3.07-.71-.54-.12-1.05-.27-1.59-.39-.1,0-.19-.05-.28-.05a14,14,0,0,1-1.37-.38,1.13,1.13,0,0,1-.37-.06l-.5-.16c-1.05-.27-2.14-.54-3.28-.86-.64-.21-1.28-.37-1.92-.58-.82-.22-1.64-.48-2.46-.7-1-.32-2.06-.63-3.1-1-.78-.21-1.55-.47-2.37-.74-1.46-.42-2.92-.94-4.42-1.47-.73-.21-1.46-.47-2.19-.73-11.57-4-24.71-9.17-38.78-15.35l-3.5-1.53-1.36-.61c-2.68-1.22-5.4-2.44-8.12-3.71-1.91-.87-3.86-1.73-5.81-2.69-2.54-1.17-5.08-2.39-7.66-3.65-2-1-4.12-2-6.21-3-3.31-1.62-6.7-3.33-10.1-5.05q-12.65-6.44-24.4-12.93c-2-1.11-4-2.26-6-3.36-16.77-9.47-31.8-18.74-44.23-27.31-1.62-1.09-3.24-2.18-4.77-3.32-.05,0-.09-.05-.18-.1-1.49-1-2.88-2.07-4.27-3.11a7.21,7.21,0,0,0-.77-.54c-2.61-1.93-5-3.8-7.32-5.62-2.65-2.07-5-4.08-7.17-6,0,0,0,0-.09-.05-2.23-2-4.2-3.91-5.89-5.66-5.47-5.79-7.89-10.35-6.51-13.13,1.78-3.61,9.48-3.87,21.47-1.4a20.41,20.41,0,0,1,1.07-1.75,3.06,3.06,0,0,1,.3-.56,11.67,11.67,0,0,1,.68-1.1l.73-1.25a0,0,0,0,1,.05-.05c.29-.51.59-1,.93-1.47l1-1.48.58-.83a4.68,4.68,0,0,1,.39-.6,16.19,16.19,0,0,1,1.16-1.61c.43-.69.92-1.33,1.4-2l-.73-.16c-41-10.57-70.8-9.92-77.68,4.22C271.61,141.53,293.82,170.12,333.83,200.63Z" transform="translate(643.55 359.97)"/><path class="cls-1" d="M340.3,155.06q3.21,2.87,7.15,6,1.82-4.65,4-9.22l.71-1.41c.86-1.71,1.75-3.4,2.69-5.05a121.08,121.08,0,0,1,8.24-12.69l1.09-1.43A117.35,117.35,0,0,1,413,94.05a114.32,114.32,0,0,1,95.48,4,117.23,117.23,0,0,1,48,45.42,117.62,117.62,0,0,0-53.54-56,114.35,114.35,0,0,0-95.46-4,116.61,116.61,0,0,0-33.83,21.13,118,118,0,0,0-14.93,16.1c-.37.47-.73,1-1.08,1.43a119.42,119.42,0,0,0-8.25,12.68q-1.39,2.49-2.69,5.06c-.24.46-.48.93-.71,1.41A122.22,122.22,0,0,0,340.3,155.06Z" transform="translate(643.55 359.97)"/><path class="cls-1" d="M340.36,154.63c.05.05.05.05.09.05,2.15,2,4.52,4,7.17,6a10.56,10.56,0,0,1,.85.69c.27.24.59.44.9.69.59.44,1.17.93,1.8,1.38,1.21.93,2.47,1.92,3.77,2.86a7.21,7.21,0,0,1,.77.54c1.39,1,2.78,2.07,4.27,3.11.09,0,.13.1.18.1,1.57,1.14,3.15,2.23,4.77,3.32,2,1.39,4.05,2.78,6.22,4.22,1.17.74,2.34,1.54,3.56,2.33,1.71,1.09,3.47,2.24,5.27,3.38s3.61,2.24,5.46,3.39,3.75,2.29,5.65,3.44,3.83,2.34,5.82,3.49c1.27.75,2.53,1.5,3.84,2.25.72.45,1.45.85,2.22,1.3s1.71,1,2.57,1.46c.32.2.64.35.95.55l1.58.9,1.09.6c2,1.1,4,2.25,6,3.36q11.74,6.46,24.4,12.93c3.4,1.72,6.75,3.43,10.1,5.05,2.09,1.06,4.17,2.07,6.21,3,2.58,1.26,5.12,2.48,7.66,3.65,1.95,1,3.9,1.82,5.81,2.69,1.36.66,2.72,1.27,4.08,1.88l4,1.83,1.36.61,3.5,1.53c4,1.79,8,3.48,11.9,5.07l1.13.46c.46.21.87.36,1.32.56a.28.28,0,0,0,.18.06,5.66,5.66,0,0,0,.87.36c1.23.46,2.41,1,3.59,1.44.82.35,1.63.66,2.45,1l2.37.93,2,.78c.87.31,1.64.62,2.46.93,1.23.46,2.41.88,3.6,1.35a2.37,2.37,0,0,1,.54.2c2.14.78,4.28,1.51,6.33,2.24.73.26,1.46.52,2.19.73l.91.32c1,.36,2,.68,3,1l.55.16c.82.27,1.59.53,2.37.74,1,.37,2.09.68,3.1,1,.22.06.5.16.73.21a.37.37,0,0,0,.22.06,2.83,2.83,0,0,0,.64.21c.28.05.6.16.87.22l.5.15c.05,0,.09.05.14.06s.18.05.27.1l.64.16.37.11s.13.05.18.05l.55.16,2.55.65.5.16a2.3,2.3,0,0,1,.28.06h.09l.59.16c.1,0,.19,0,.23.06s.19,0,.28,0,.18.06.27.11.18.05.28.05c.54.12,1,.27,1.59.39,1.06.27,2.06.49,3.07.71.68-1,1.31-2.07,2-3.14.34-.5.63-1.06.92-1.57.44-.73.89-1.52,1.33-2.31.29-.55.63-1.15,1-1.76.69-1.34,1.43-2.73,2.12-4.16.1-.19.2-.42.3-.61.19-.37.34-.74.49-1.11a23,23,0,0,0,1-2.27c.4-.89.79-1.77,1.15-2.65.25-.65.55-1.25.8-1.91a.17.17,0,0,1,0-.14v-.09h.05a2.7,2.7,0,0,1,.2-.56s.05-.09.05-.14,0,0,0-.14v0a.17.17,0,0,0,.05-.1s0-.09.1-.13v-.1a.74.74,0,0,0,.06-.18c.2-.52.4-1.07.6-1.63v0c.2-.51.4-1,.56-1.58,0,0,.05-.14.09-.19s0-.09.06-.14a.94.94,0,0,0,.1-.28,3.23,3.23,0,0,0,.2-.65v-.05s0,0,0-.09a4.76,4.76,0,0,0,.26-.89c.05,0,.05-.09.1-.18s.1-.28.16-.47a1.7,1.7,0,0,0,.05-.23v-.05s0,0,0,0a3.58,3.58,0,0,0,.21-.7,1.92,1.92,0,0,0,0-.24c.05-.18.15-.42.21-.6.3-.93.56-1.82.83-2.75,0-.19.1-.42.15-.61a.41.41,0,0,0,.06-.24c.42-1.54.79-3,1.12-4.57.16-.57.27-1.08.38-1.59.32-1.45.6-2.95.84-4.45.33-1.78.63-3.61.83-5.44l.18-1.41v-.37c.05-.28.06-.57.11-.8s.07-.61.08-.89v-.28a2.21,2.21,0,0,0,.06-.57,10.57,10.57,0,0,0,.14-1.13l0-.79a1.18,1.18,0,0,0,.06-.38c.1-1.6.2-3.2.25-4.8.07-1.83.08-3.72.06-5.6,0-1.09,0-2.17-.08-3.26,0-1.5-.13-3-.27-4.39s-.22-2.93-.4-4.39c-.1-1.14-.24-2.32-.44-3.46s-.29-2.08-.49-3.12v0c0-.09,0-.14,0-.24-.15-.94-.3-1.84-.5-2.75s-.35-2-.59-3-.48-2.14-.77-3.19a12.69,12.69,0,0,0-.33-1.28v-.14c-.16-.67-.37-1.33-.58-2s-.41-1.57-.66-2.33c-.12-.52-.29-1-.45-1.52-.08-.29-.17-.53-.25-.81l-.38-1.1c-.29-.9-.58-1.76-.92-2.67,0-.19-.13-.33-.17-.52-.3-.77-.55-1.53-.84-2.25a8.23,8.23,0,0,0-.43-1.05c-.25-.66-.51-1.29-.76-1.91s-.56-1.33-.81-2l-.18-.33c0-.14-.13-.29-.17-.43-.68-1.53-1.42-3-2.15-4.55-.3-.57-.6-1.2-.9-1.77-.35-.72-.69-1.39-1.09-2.06a5.36,5.36,0,0,0-.39-.73,0,0,0,0,0,0,0s0-.1-.09-.15a1.49,1.49,0,0,0-.22-.38v-.1c-.18-.29-.31-.53-.48-.81-1.09-1.92-2.22-3.85-3.45-5.68-.35-.53-.66-1.06-1-1.59-.53-.82-1.05-1.64-1.63-2.41a7.62,7.62,0,0,0-.57-.77,4.22,4.22,0,0,0-.44-.63c-.88-1.21-1.76-2.42-2.69-3.58a3.3,3.3,0,0,0-.35-.43c-.75-1-1.55-2-2.39-3l-.13-.14c-.36-.44-.71-.83-1.11-1.27a1.22,1.22,0,0,0-.31-.34c-.71-.82-1.38-1.6-2.14-2.33a9.42,9.42,0,0,0-.93-1,2.79,2.79,0,0,0-.49-.54c-.58-.63-1.2-1.21-1.78-1.8a5.28,5.28,0,0,0-.89-.88c-.54-.53-1.07-1-1.65-1.56-.36-.34-.72-.68-1.07-1s-.59-.53-.85-.73a1.86,1.86,0,0,0-.45-.39c-1-.88-2-1.72-3-2.55-.22-.2-.45-.35-.62-.54a28.32,28.32,0,0,0-2.34-1.82c-.49-.4-1-.74-1.48-1.14a1.11,1.11,0,0,0-.27-.19,5.16,5.16,0,0,0-.58-.5c-1.49-1.08-3-2.12-4.59-3.17a10.71,10.71,0,0,0-1.18-.74c-1.21-.84-2.48-1.64-3.79-2.39a18.06,18.06,0,0,0-1.67-1c-1.63-1-3.3-1.86-5-2.71a114.49,114.49,0,0,0-48.27-12.51c-1.52-.05-3-.06-4.51-.06l-2.4.06a8,8,0,0,0-1.06.06c-1.38,0-2.77.09-4.11.19-2,.12-4,.34-6,.6s-4,.52-6,.93h-.1c-1.94.35-3.89.76-5.8,1.21-1.48.33-2.88.71-4.32,1.08-.74.21-1.49.42-2.18.64-1.4.42-2.8.89-4.2,1.36-.83.26-1.63.51-2.42.82-1.35.47-2.75,1-4.11,1.6a.14.14,0,0,0-.09,0c-3,1.21-6,2.57-8.94,4.08-1.26.61-2.48,1.28-3.7,1.94A118,118,0,0,0,381.34,98c-1.27.94-2.55,1.94-3.78,3a.2.2,0,0,0-.14.09c-1.19,1-2.37,2-3.56,3-.05,0-.05.09-.1.13h0c-1,.91-2,1.82-3,2.78a13.83,13.83,0,0,0-1.24,1.18c-1.43,1.41-2.82,2.83-4.16,4.29-.76.82-1.48,1.64-2.2,2.47-.57.64-1.1,1.28-1.63,2-1,1.1-1.83,2.25-2.7,3.4l0,0c-.39.46-.77,1-1.11,1.42-.48.65-1,1.29-1.4,2a16.19,16.19,0,0,0-1.16,1.61,4.68,4.68,0,0,0-.39.6l-.58.83-1,1.48c-.34.5-.64,1-.93,1.47a0,0,0,0,0-.05.05l-.73,1.25a11.67,11.67,0,0,0-.68,1.1,3.06,3.06,0,0,0-.3.56,20.41,20.41,0,0,0-1.07,1.75c-.39.7-.79,1.44-1.13,2.13s-.74,1.39-1.09,2.09h0a6.4,6.4,0,0,0-.4.84c-.24.46-.49,1-.74,1.44-.69,1.43-1.34,2.82-2,4.26-.1.28-.2.51-.3.79-.6,1.35-1.15,2.74-1.66,4.09a9.66,9.66,0,0,0-.6,1.49C341.08,152.58,340.72,153.61,340.36,154.63Z" transform="translate(643.55 359.97)"/><path class="cls-13" d="M355.37,146a109.16,109.16,0,0,0-5.17,12.43c16.66,14.88,49.89,36.09,89.77,56.41s76.45,34.68,98.11,39.32a108,108,0,0,0,6.62-11.69l.28-.57q1.31-2.7,2.44-5.45a109.12,109.12,0,0,0,4.49-13l.15-.53a110,110,0,0,0,.28-56.59,107.25,107.25,0,0,0-55-69A103.46,103.46,0,0,0,411,93.67a106.22,106.22,0,0,0-44.11,33.68c-.33.43-.66.86-1,1.3a107.64,107.64,0,0,0-7.46,11.48c-.84,1.49-1.66,3-2.44,4.56Z" transform="translate(643.55 359.97)"/><path class="cls-14" d="M344.33,200a110.31,110.31,0,0,0,6.14,31.07,106.87,106.87,0,0,0,52.24,60,103.33,103.33,0,0,0,78.53,6.48A105,105,0,0,0,509.08,284c-25.69-7.66-55.26-19.56-85.74-35.09S365.77,216.36,344.33,200Z" transform="translate(643.55 359.97)"/><path class="cls-14" d="M350.2,158.4c16.66,14.88,49.89,36.1,89.77,56.41s76.45,34.68,98.11,39.33a110.83,110.83,0,0,0,6.62-11.7c.1-.19.19-.38.28-.57.87-1.81,1.68-3.62,2.44-5.45a109.74,109.74,0,0,0,4.5-13l.14-.53a110,110,0,0,0,.28-56.59,107.93,107.93,0,0,0-39.78-59.54A110.12,110.12,0,0,1,523.67,191q-.07.28-.15.54c-.06.24-.15.53-.26.86-6,18.41-25.85,25.53-44.67,23.14C442.71,211,366.24,165.31,350,154.82,348.76,157.64,351.2,155.53,350.2,158.4Z" transform="translate(643.55 359.97)"/><path class="cls-15" d="M530.07,162.8" transform="translate(643.55 359.97)"/><path class="cls-16" d="M423.34,248.86c-30.48-15.53-57.57-32.5-79-48.86a109.39,109.39,0,0,0,1.47,13.17c16.48,13.24,43,29.82,74,45.61,29.68,15.12,57.45,26.44,77.55,32.19a106.22,106.22,0,0,0,11.77-7C483.39,276.29,453.82,264.39,423.34,248.86Z" transform="translate(643.55 359.97)"/><path class="cls-16" d="M356,144.69l-.63,1.28a109.16,109.16,0,0,0-5.17,12.43c16.66,14.88,49.89,36.09,89.77,56.41s76.45,34.68,98.11,39.32a108,108,0,0,0,6.62-11.69l.28-.57c-20.59-3.12-57.85-17.08-98.5-37.8C404.22,182.54,369.88,159.61,356,144.69Z" transform="translate(643.55 359.97)"/><path class="cls-16" d="M555.56,206.89l-.09-7.3c-14.44.22-51.68-13.47-90.55-33.27-46.38-23.63-76.07-45.73-81.43-55.34l-6.2,3.62c7.1,12.72,41,36.13,84.44,58.25C502.15,193.44,539.85,207.12,555.56,206.89Z" transform="translate(643.55 359.97)"/><path class="cls-16" d="M551.68,169.9l1.32-7.17c-16.12-3.08-43.85-14-72.38-28.56-29.89-15.23-55.62-31.76-67.15-43.12l-5,5.25c12,11.85,38.43,28.86,68.92,44.4C506.51,155.51,535,166.7,551.68,169.9Z" transform="translate(643.55 359.97)"/><path class="cls-16" d="M551.94,226.54l.24-7.29c-16.54-.55-55-14.85-95.73-35.6-42.7-21.76-78.32-45.75-86.61-58.34l-5.92,4.08c9.05,13.74,44.95,38.17,89.34,60.79C495.46,211.68,534.19,226,551.94,226.54Z" transform="translate(643.55 359.97)"/><path class="cls-16" d="M481,299.39l.2-1.81.89-1.59-.32-.18-.37-.05c-14.27-1.6-41.19-11.65-68.6-25.62-27.57-14-51-29.5-61.08-40.33l-2.58,2.52c10.38,11.12,34.16,26.86,62.06,41.08C439.42,287.77,466.17,297.72,481,299.39Z" transform="translate(643.55 359.97)"/><path class="cls-2" d="M449.82,306.87a108.1,108.1,0,0,1-49.14-11.8C365.25,277,342,240.68,339.86,200.23l-.5-9.64,7.68,5.86c22,16.77,49.08,33.52,78.33,48.43s58.64,26.93,85,34.79l8.95,2.67-7.69,5.29A109,109,0,0,1,449.82,306.87ZM349.77,209.61c4.85,33.24,25.28,62.37,55,77.5a99.57,99.57,0,0,0,93.67-1.8,545.24,545.24,0,0,1-77.11-32.47A548.64,548.64,0,0,1,349.77,209.61Z" transform="translate(643.55 359.97)"/><path class="cls-17" d="M295,132.33c-6.93,14.19,13.16,40,49.38,67.67,21.44,16.36,48.53,33.33,79,48.86s60.05,27.43,85.74,35.09c43.38,12.94,75.69,13.78,82.63-.41,6.29-12.89-9.7-35.4-39.8-60.11a109.12,109.12,0,0,1-4.49,13c8.3,7.49,12.3,13.34,10.71,16.6s-8.84,3.51-20,1.11c-21.66-4.64-58.24-19-98.11-39.32s-73.11-41.53-89.77-56.41c-8.61-7.7-12.8-13.71-11.18-17s8.57-3.51,19.42-1.24a107.64,107.64,0,0,1,7.46-11.48C328.47,119,301.25,119.44,295,132.33Z" transform="translate(643.55 359.97)"/><path class="cls-18" d="M548.13,234.69c-.23.58-.47,1.16-.71,1.74,8.3,7.49,12.31,13.33,10.71,16.59s-8.85,3.52-20,1.11c-14.36-3.07-35.31-10.43-59.42-21a16,16,0,0,1-.21,6.14c9.31,3.94,18.35,7.45,26.93,10.47,37.31,13.12,57,13.62,59.47,8.52C566.3,255.32,562.64,247.57,548.13,234.69Z" transform="translate(643.55 359.97)"/><path class="cls-14" d="M551.12,229.53l-.94,1.13a163.75,163.75,0,0,1,17.51,16.94C564.54,242.46,559,236.46,551.12,229.53Z" transform="translate(643.55 359.97)"/><path class="cls-14" d="M549.24,231.77l.94-1.11a4.87,4.87,0,0,0-.42-.35Z" transform="translate(643.55 359.97)"/><path class="cls-18" d="M567.69,247.6c3.31,5.35,4.06,9.76,2.32,13.33s-5.48,5.32-10.65,6c-13.48,1.72-36.37-4.7-55.86-11.56-8.83-3.1-18.12-6.72-27.7-10.77a18.61,18.61,0,0,1-8.42,5.4c14.15,6.08,27.9,11.29,40.81,15.46,46,14.85,66.32,12,69.73,5C579.82,266.54,577.53,258.9,567.69,247.6Z" transform="translate(643.55 359.97)"/><path class="cls-18" d="M425.22,249.81c29.81,15.07,58.7,26.64,83.86,34.14,43.38,12.94,75.7,13.78,82.63-.42,6.3-12.88-9.7-35.38-39.8-60.1-.36,1.3-.75,2.59-1.16,3.89l1.84-2.3c17.46,14.64,36.93,34.86,30.49,48-2.48,5.1-8.06,7.7-15.34,8.63-17.15,2.18-43.72-4.93-61.29-10.6a491.2,491.2,0,0,1-49.05-19C448.77,252.88,437.86,252.09,425.22,249.81Z" transform="translate(643.55 359.97)"/><path class="cls-19" d="M475.8,244.58c9.58,4,18.87,7.67,27.7,10.77,19.49,6.86,42.38,13.28,55.86,11.56,5.17-.66,8.95-2.51,10.65-6s1-8-2.32-13.33a163.75,163.75,0,0,0-17.51-16.94l-.94,1.11c-.36,1-.73,1.95-1.11,2.92,14.51,12.88,18.17,20.63,16.72,23.6-2.49,5.1-22.16,4.6-59.47-8.52-8.58-3-17.62-6.53-26.93-10.47a12.92,12.92,0,0,1-.95,2.68A12.65,12.65,0,0,1,475.8,244.58Z" transform="translate(643.55 359.97)"/><path class="cls-20" d="M550.18,230.66a163.75,163.75,0,0,1,17.51,16.94c-3.15-5.14-8.66-11.14-16.57-18.07Z" transform="translate(643.55 359.97)"/><path class="cls-20" d="M549.24,231.77,547.36,234l.77.68C548.51,233.72,548.88,232.75,549.24,231.77Z" transform="translate(643.55 359.97)"/><path class="cls-20" d="M370,187.36a582.61,582.61,0,0,0,64.75,38.07c13.87,7.07,27.71,13.53,41,19.15a12.65,12.65,0,0,0,1.7-2.6,12.92,12.92,0,0,0,.95-2.68c-13.31-5.6-27.18-12.06-41.09-19.15a575.92,575.92,0,0,1-64.07-37.69c-32.71-22.56-44.92-38.31-42.44-43.4,1.48-3,10-4.71,29.51-.32l.93-4.34.32-1.44c-10.22-2.3-18.25-3.19-24.18-2.67-6.13.54-10,2.59-11.75,6.14C319.55,149,346.43,171.06,370,187.36Z" transform="translate(643.55 359.97)"/><path class="cls-19" d="M457.4,252.05a491.2,491.2,0,0,0,49.05,19c17.57,5.67,44.14,12.78,61.29,10.6,7.28-.93,12.86-3.53,15.34-8.63,6.44-13.16-13-33.38-30.49-48l-1.84,2.3c-.31,1-.64,2-1,3a4.87,4.87,0,0,1,.42.35l.94-1.13c7.91,6.93,13.42,12.93,16.57,18.07,9.84,11.3,12.13,18.94,10.23,22.82-3.41,7-23.72,9.87-69.73-5-12.91-4.17-26.66-9.38-40.81-15.46A42.26,42.26,0,0,1,457.4,252.05Z" transform="translate(643.55 359.97)"/><path class="cls-18" d="M551.12,229.53l-.94,1.13a163.75,163.75,0,0,1,17.51,16.94C564.54,242.46,559,236.46,551.12,229.53Z" transform="translate(643.55 359.97)"/><path class="cls-20" d="M550.75,227.32l-1.82,2.27.83.72C550.11,229.32,550.44,228.32,550.75,227.32Z" transform="translate(643.55 359.97)"/><path class="cls-20" d="M356,194.41c20.54,15,45.62,30.13,72.54,43.84,9.66,4.93,19.33,9.54,28.87,13.8a42.26,42.26,0,0,0,10-2.07c-11.9-5.1-24.09-10.82-36.28-17-26.64-13.57-51.45-28.57-71.76-43.37-39.29-28.61-49.24-46.93-45.83-53.91,1.89-3.87,9.21-6.59,23.92-5.39a158.51,158.51,0,0,1,23.86,4.11l1.59.39,1.37-5.74c-21.95-5.45-49.48-9.17-55.91,4C300,150.15,334.6,178.83,356,194.41Z" transform="translate(643.55 359.97)"/><path class="cls-2" d="M564.59,298.46c-18.51,0-40.92-5.49-56.79-10.23-26.86-8-56.77-20.24-86.49-35.39s-57.29-32.19-79.7-49.29c-23.51-17.93-61.37-51.29-50.68-73.18h0c7.21-14.75,34.24-16.9,76.09-6.05l6.43,1.67-4,5.32a107,107,0,0,0-7.16,11l-1.6,2.85-3.21-.67c-9.34-1.95-13-1.39-14.23-1,.42,1.24,2.23,4.73,9.9,11.59,16.89,15.09,50.92,36.46,88.81,55.77s75.07,34.22,97,38.92c9.79,2.1,13.62,1.53,14.85,1.15-.42-1.21-2.16-4.59-9.45-11.17l-2.34-2.12,1.21-2.92a102.5,102.5,0,0,0,4.31-12.46l1.84-6.63,5.32,4.37c19.45,16,50.64,45.72,41,65.52C591,295.13,579,298.46,564.59,298.46ZM322.31,126.37c-13.85,0-21.13,3.4-23.34,7.91h0c-4.18,8.57,5.89,30,48.07,62.16,22,16.77,49.08,33.52,78.33,48.43s58.64,26.93,85,34.79c50.43,15,73.17,10.42,77.33,1.91,3.67-7.52-3.43-24.58-33.5-50.4-.46,1.36-1,2.72-1.47,4.06,9,8.58,11.88,14.73,9.43,19.74-2.72,5.56-10.43,6.65-25,3.52-23-4.93-60.08-19.77-99.21-39.7s-73-41.26-90.71-57.07c-11.13-9.95-14.9-16.83-12.22-22.32,3.06-6.26,12.42-5.84,21.17-4.28q1.14-1.87,2.34-3.71C343.33,127.84,331.4,126.37,322.31,126.37Zm-27.36,6h0Z" transform="translate(643.55 359.97)"/><g class="cls-10"><path class="cls-1" d="M350.16,158.77c1.94,1.73,4.1,3.55,6.48,5.44q1.64-4.22,3.65-8.34c.21-.43.43-.85.64-1.27q1.17-2.34,2.44-4.57a109.28,109.28,0,0,1,7.45-11.49l1-1.29a105.93,105.93,0,0,1,44.1-33.67,103.38,103.38,0,0,1,86.37,3.64,106,106,0,0,1,43.47,41.09,106.4,106.4,0,0,0-48.44-50.62A103.43,103.43,0,0,0,411,94a106.22,106.22,0,0,0-44.11,33.68c-.34.43-.66.86-1,1.3a107,107,0,0,0-7.46,11.47q-1.27,2.25-2.44,4.57c-.22.42-.43.85-.63,1.28A109.16,109.16,0,0,0,350.16,158.77Z" transform="translate(643.55 359.97)"/></g><path class="cls-2" d="M540.15,259.15l-3-.65c-23-4.93-60.08-19.77-99.21-39.7s-73-41.26-90.71-57.07l-2.21-2,1-2.81A113.57,113.57,0,0,1,351.35,144q1.51-3.1,3.19-6.08a116.42,116.42,0,0,1,7.77-12c32-43.06,89.69-56.79,137.08-32.64s71.22,79.32,56.84,131.28a113.68,113.68,0,0,1-4.68,13.52q-1.31,3.15-2.82,6.26a116.54,116.54,0,0,1-6.9,12.17ZM355.45,157c17.55,15,50.28,35.31,86.55,53.8s71.74,32.87,94,38.23c1.69-2.76,3.26-5.64,4.7-8.59.93-1.9,1.81-3.83,2.61-5.77a103.24,103.24,0,0,0,4.31-12.47c13.26-47.88-8.73-98.75-52.28-120.94s-96.4-9.54-125.83,30a107,107,0,0,0-7.16,11q-1.54,2.75-2.94,5.61h0C357.93,150.9,356.61,154,355.45,157ZM355.37,146h0Z" transform="translate(643.55 359.97)"/><path class="cls-1" d="M1632.64,1233.06c-170,319.6-615,429.46-720,189.76-25-104.87,16.79-154.68,105-134.83-36.25-24.14-33.2-69.75,3-90.16,15.12-8.52,33.14-10.21,50.06-6.31,34.51,8,67,24.15,96.9,51.52,140-64.92,244.39-223.71,320-239.7Z" transform="translate(643.55 359.97)"/><g class="cls-3"><path class="cls-2" d="M909.1,1405.77c1,5.52,2.14,11.18,3.54,17,101.17,231,517.94,137.35,700.28-155.66C1414.69,1506.45,1043.25,1565.3,909.1,1405.77Z" transform="translate(643.55 359.97)"/></g><path class="cls-2" d="M1636.61,1235.17c-18.64,43-44.88,82.71-75.56,118.37a627.27,627.27,0,0,1-103.71,95.54c-38,27.77-78.85,52-122.22,70.8-43.42,18.54-88.95,32.91-136.09,39.59-11.73,2-23.63,2.83-35.5,3.9-6,.45-11.94.44-17.9.67l-9,.25-9-.29a309.38,309.38,0,0,1-71.38-9.55c-23.37-6-46.45-14.58-67.34-27.43a224.54,224.54,0,0,1-55.71-47.63c-31.41-38.56-46.35-90.14-36.93-140.16a89,89,0,0,1,15.76-36.4,73.9,73.9,0,0,1,32.63-24.54c12.67-4.92,25.84-6.52,38.54-6.55s25,2.1,37,4.49L1011,1298a70.89,70.89,0,0,1-26.22-30.92c-5.78-12.9-6.12-28.11-2-41.6a67.93,67.93,0,0,1,24.22-33.08,76.8,76.8,0,0,1,37.27-14.41,86.14,86.14,0,0,1,19.79.14,91.28,91.28,0,0,1,9.67,1.69c2.91.75,5.84,1.37,8.72,2.22a218,218,0,0,1,33.88,12.27,229.85,229.85,0,0,1,59.55,39.85l-13.23-2.05c29.35-13.82,57-31.6,83.23-51.47,13.09-10,25.92-20.41,38.56-31.12s25-21.83,37.47-32.9c24.86-22.23,49.23-45.32,75.5-66.81a394.84,394.84,0,0,1,41.32-30.31c14.64-9,30.62-17.09,48.27-19.6a3.52,3.52,0,0,1,1.61,6.82l-.15,0a107.36,107.36,0,0,0-21.69,10.29,230.68,230.68,0,0,0-19.83,14.12c-12.79,10.18-24.89,21.44-36.94,32.84s-23.9,23.15-35.79,34.94l-36.29,35c-12.15,11.69-24.74,23-37.6,34.07s-26,21.87-39.67,32.13c-27.28,20.51-56.4,39.14-87.84,53.81a12,12,0,0,1-13.19-2l0,0a205.4,205.4,0,0,0-53.3-35.7,193.41,193.41,0,0,0-30.18-10.93c-2.57-.76-5.21-1.32-7.81-2a67.39,67.39,0,0,0-7.11-1.24,61.69,61.69,0,0,0-14.24-.11,52.35,52.35,0,0,0-25.62,9.86,43.83,43.83,0,0,0-15.53,20.94c-2.33,8.18-2.33,17.1,1.28,25a46.79,46.79,0,0,0,17.36,20.2,12,12,0,0,1-9,21.84l-.31-.06c-10.66-2.11-21.4-4-31.87-3.92s-20.62,1.37-29.59,4.86a49.57,49.57,0,0,0-22.2,16.6,64.84,64.84,0,0,0-11.45,26.87c-4,20.25-2.73,42.62,2.79,63.22a153.83,153.83,0,0,0,29.19,56.91,200.64,200.64,0,0,0,49.41,42.23c18.63,11.52,39.53,19.31,61,24.81a286.84,286.84,0,0,0,66.13,8.87l8.4.31,8.42-.22c5.62-.21,11.24-.16,16.85-.57,11.22-1,22.46-1.72,33.61-3.59,44.76-6.17,88.49-19.79,130.29-37.48s81.51-40.69,118.55-67.18,70.94-57.39,101.33-91.31,57.78-70.52,82.86-109.2l0,0a4.51,4.51,0,0,1,7.93,4.25Z" transform="translate(643.55 359.97)"/><path class="cls-2" d="M1463.45,1441a9.6,9.6,0,0,1-2-.2,10,10,0,0,1-7.82-11.78c19.37-95.3-53.87-220.93-156.73-268.85a10,10,0,1,1,8.46-18.1c112.4,52.36,189.28,185.59,167.87,290.93A10,10,0,0,1,1463.45,1441Z" transform="translate(643.55 359.97)"/><path class="cls-1" d="M737.64,538.92c-135,64.92-95,339.58,72.09,355.83,104.15,7.4,132.91-91.16,91.34-228.94C862.64,583.87,712.64,653.78,737.64,538.92Z" transform="translate(643.55 359.97)"/><g class="cls-3"><path class="cls-2" d="M809.73,844.82c-90-8.76-143.09-92.47-151.87-178C647.22,766.6,702.1,884.28,809.73,894.75c81.68,5.8,117-53.57,108.36-145.92C911.18,811.87,875.51,849.48,809.73,844.82Z" transform="translate(643.55 359.97)"/></g><path class="cls-2" d="M820.26,907.18q-5.58,0-11.38-.41c-80.61-7.84-143.43-74.38-160.35-169.56-13.77-77.4,6.83-172.09,83.87-209.14a12.06,12.06,0,0,1,17,13.41c-4.14,19-3.22,32.63,2.81,41.52,9.47,13.94,33.46,17.92,58.86,22.14,36.17,6,81.17,13.48,100.91,55.56a10.71,10.71,0,0,1,.62,1.63c27.88,92.42,24.74,166.42-8.83,208.35C884.57,894.68,855.85,907.18,820.26,907.18ZM722.78,562.1c-49,37.53-61.32,110-50.5,170.9,11.38,64,54.51,141.58,138.62,149.76,32.75,2.34,57.77-6.8,74.05-27.13,28-34.92,29.72-102.49,4.84-185.47-14.55-29.94-47.64-35.43-82.66-41.25-30.64-5.09-59.59-9.9-74.86-32.39C725.93,587.19,722.78,575.81,722.78,562.1Z" transform="translate(643.55 359.97)"/></svg>