<svg id="Layer_24" data-name="Layer 24" xmlns="http://www.w3.org/2000/svg" xmlns:xlink="http://www.w3.org/1999/xlink" viewBox="0 0 2422.04 3231.75"><defs><style>.cls-1{fill:none;}.cls-2{clip-path:url(#clip-path);}.cls-3{fill:url(#linear-gradient);}.cls-4{fill:#371a45;}.cls-5{fill:#ffac48;}.cls-6{clip-path:url(#clip-path-2);}.cls-7{fill:url(#linear-gradient-2);}.cls-8{clip-path:url(#clip-path-3);}.cls-9{fill:url(#linear-gradient-3);}.cls-10{fill:#b2b2b2;}.cls-11{fill:#ff2929;}.cls-12{opacity:0.25;}.cls-13{fill:#f75252;}.cls-14{opacity:0.7;}.cls-15{fill:#fff;}.cls-16{opacity:0.2;}.cls-17{fill:#d8d8d8;}.cls-18{fill:#e5e5e5;}.cls-19{fill:#22a7f0;}.cls-20{clip-path:url(#clip-path-4);}.cls-21{fill:#1c7aea;}.cls-22{clip-path:url(#clip-path-5);}.cls-23{clip-path:url(#clip-path-6);}.cls-24{fill:url(#linear-gradient-4);}.cls-25{fill:#cc3232;}.cls-26{opacity:0.3;}.cls-27{clip-path:url(#clip-path-7);}.cls-28{clip-path:url(#clip-path-8);}.cls-29{fill:#b5b5b5;}.cls-30{opacity:0.5;}.cls-31{opacity:0.35;}.cls-32{fill:#111a28;}</style><clipPath id="clip-path" transform="translate(-4.85 685)"><path class="cls-1" d="M1880.66,1513.1c25,48.75,67.36,124.7,67.36,124.7-11.19,3.64-58.42-7.52-58.42-7.52,26.29,32.65,41.44,69.29,54,169.87s87.66,260.29,87.66,260.29c-45.09-10.28-123.72,4.54-215.62,19.37-130.62,21.07-288.06,42.13-414.14-8.87-234.39-94.81-271-301.88-271-301.88l348.25-485.65c8.37-.29,16.52-.43,24.54-.43,253.17,0,331.34,140.22,377.4,230.12"/></clipPath><linearGradient id="linear-gradient" x1="-3119.52" y1="-3037.83" x2="-3115.3" y2="-3037.83" gradientTransform="matrix(0, 195.46, -195.46, 0, -592199.24, 611262.47)" gradientUnits="userSpaceOnUse"><stop offset="0" stop-color="#ff4545"/><stop offset="1" stop-color="#f7931e"/></linearGradient><clipPath id="clip-path-2" transform="translate(-4.85 685)"><path class="cls-1" d="M2057.68,1829.75c10.93,44.45,51.86,71.45,51.86,71.45s-19.4,5.88-69.91-25.74-62.07-82.24-64-114.9a189.61,189.61,0,0,0-12.63-57.69c65.93,16.75,83.72,82.43,94.65,126.88"/></clipPath><linearGradient id="linear-gradient-2" x1="-3137.66" y1="-2821.26" x2="-3133.44" y2="-2821.26" gradientTransform="translate(-115594.23 132561.32) rotate(90) scale(41.69)" xlink:href="#linear-gradient"/><clipPath id="clip-path-3" transform="translate(-4.85 685)"><path class="cls-1" d="M2154.44,2118.41c20.07,60,19.95,75.51,42.85,86,0,0-54.14,1.68-93.6-31.22s-69.3-70.86-112.3-73.16c0,0,54.9-13,96.13,2,0,0-4.4-43.93-30.62-87.59,0,0,77.48,44.06,97.54,104"/></clipPath><linearGradient id="linear-gradient-3" x1="-3268.68" y1="-2637.24" x2="-3264.46" y2="-2637.24" gradientTransform="translate(-59961.4 78982) rotate(90) scale(23.53)" xlink:href="#linear-gradient"/><clipPath id="clip-path-4" transform="translate(-4.85 685)"><rect class="cls-1" x="1051.13" y="472.4" width="72.38" height="95.14"/></clipPath><clipPath id="clip-path-5" transform="translate(-4.85 685)"><rect class="cls-1" x="1014.62" y="473.64" width="76.23" height="56.54"/></clipPath><clipPath id="clip-path-6" transform="translate(-4.85 685)"><path class="cls-1" d="M2368.08,2339.72s-27.46-31-55.46-48.67c-38.89-24.51-46.48-61-46.48-61,3.76-.31,7.37-.46,10.86-.46,94.4,0,91.08,110.11,91.08,110.11"/></clipPath><linearGradient id="linear-gradient-4" x1="-3246.81" y1="-2642.7" x2="-3242.59" y2="-2642.7" gradientTransform="translate(-61093.92 80132.72) rotate(90) scale(24)" xlink:href="#linear-gradient"/><clipPath id="clip-path-7" transform="translate(-4.85 685)"><rect class="cls-1" x="951.23" y="1103.61" width="108.13" height="351.12"/></clipPath><clipPath id="clip-path-8" transform="translate(-4.85 685)"><rect class="cls-1" x="837.54" y="1140.41" width="68.02" height="318.86"/></clipPath></defs><g class="cls-2"><rect class="cls-3" x="978.26" y="1092.49" width="1205.21" height="1219.95" transform="translate(-726.93 2694) rotate(-54.7)"/></g><path class="cls-4" d="M1589.37,2115.32c-66.85,0-132.88-8.47-192.63-32.63C1158.58,1986.35,1119.55,1780,1118,1771.27a12.68,12.68,0,0,1,2.18-9.59L1468.42,1276a12.66,12.66,0,0,1,9.86-5.28c287.28-9.78,369.53,150.46,413.65,236.57,24.58,48,66.73,123.56,67.15,124.31a12.67,12.67,0,0,1-7.15,18.22c-7,2.28-20.41,1.19-34.2-1,16.8,29.56,28.48,70,38.44,149.74,12.15,97.41,85.8,254.88,86.54,256.46a12.66,12.66,0,0,1-14.27,17.74c-38.18-8.71-105.61,2.33-183.7,15.11C1766.39,2100.72,1677.16,2115.32,1589.37,2115.32Zm-445.32-343.45c7.54,31.63,57.5,204.53,262.19,287.33,131.64,53.24,299.51,25.77,434.41,3.69,67.17-11,126.73-20.72,169.61-18-20.86-47-69.16-162.41-79.24-243.14-12.46-99.84-27-133.39-51.29-163.5a12.67,12.67,0,0,1,12.78-20.28c11,2.59,23.49,5,33.62,6.51-14.31-25.92-39.69-72.27-56.75-105.57-41.23-80.49-117.78-229.6-384-223Z" transform="translate(-4.85 685)"/><path class="cls-5" d="M1493,1383.64s88.06-6.53,164.88,40.91c65.57,40.5,84.75,85.92,90.15,126.31s6.38,88.72,41.66,115.89c0,0-28,7.54-46.29-1.4,0,0,58.18,91.36,22.81,198.61,0,0-36.41,2.43-66.77,10.11s-130.64,14-157.71,14.55c0,0,36.12,28.36,37.78,40.59,0,0-44.24-4.41-80.39,5.56s-218.8,12.47-248.92-157.32S1493,1383.64,1493,1383.64" transform="translate(-4.85 685)"/><g class="cls-6"><rect class="cls-7" x="1916.51" y="1679.34" width="239.55" height="251.28" transform="translate(-680.07 2261.65) rotate(-36.74)"/></g><path class="cls-4" d="M2105.18,1914.27c-11.25,0-34.07-4.16-72.27-28.07-53.73-33.63-67.66-86.48-69.89-124.9a178.85,178.85,0,0,0-11.64-53.45,12.68,12.68,0,0,1,14.77-17.25c75,19.06,93.77,95.21,103.83,136.12,9.64,39.18,46.16,63.66,46.53,63.9a12.67,12.67,0,0,1-3.3,22.7A28.22,28.22,0,0,1,2105.18,1914.27ZM1983,1724.33a205.68,205.68,0,0,1,5.31,35.5c1.89,32.46,13.48,77,58,104.89,7.34,4.59,13.93,8.32,19.81,11.35-8.68-11.83-16.62-26.39-20.78-43.3C2035.08,1790.88,2020.86,1745.78,1983,1724.33Z" transform="translate(-4.85 685)"/><g class="cls-8"><rect class="cls-9" x="1954.61" y="1969.71" width="279.46" height="281.03" transform="translate(-875.45 3015.27) rotate(-49.46)"/></g><path class="cls-4" d="M2195.79,2217c-10.54,0-61.33-1.76-100.21-34.16-9.1-7.59-17.62-15.37-25.86-22.89-26.94-24.58-50.2-45.82-79-47.36a12.67,12.67,0,0,1-2.25-25c2-.48,43.42-10.07,83-3-3.73-15.93-11.18-40-25.46-63.76a12.67,12.67,0,0,1,17.13-17.54c3.33,1.9,81.94,47.19,103.29,111,4.12,12.29,7.33,22.54,10.17,31.59,10.78,34.4,13.22,41.06,25.92,46.85a12.67,12.67,0,0,1-4.86,24.19C2197.46,2217,2196.82,2217,2195.79,2217Zm-149.44-109.52c13.9,9.53,27,21.49,40.45,33.76,8,7.33,16.34,14.92,25,22.14,16.69,13.91,36.48,21,52.77,24.59-4.13-8.94-7.64-20.13-12.13-34.45-2.8-8.94-6-19.07-10-31.13-9.35-27.93-33-52.58-53.95-70,9.37,26.79,11.51,47.09,11.64,48.35a12.67,12.67,0,0,1-16.94,13.16C2071.63,2109.68,2058.7,2107.93,2046.35,2107.52Z" transform="translate(-4.85 685)"/><path class="cls-10" d="M1291.33,1823.59s14.16-31.63-.35-59.42-46.85-7.85-46.85-7.85l-39.37,29.27,6,31.33Z" transform="translate(-4.85 685)"/><path class="cls-10" d="M1582,1418.27s-25.42,23.56-56.39,18.74-22.47-41.86-22.47-41.86l15.09-46.67,31.58-4.43Z" transform="translate(-4.85 685)"/><path class="cls-4" d="M1291.33,1836.26c-.34,0-.69,0-1,0l-80.63-6.67a12.67,12.67,0,0,1-11.4-10.27l-6-31.33a12.68,12.68,0,0,1,4.89-12.53l39.37-29.27c.3-.22.61-.42.92-.62,2.14-1.32,21.44-12.71,40.83-7.39,10.21,2.82,18.47,9.79,23.89,20.18,17.15,32.84,1.36,68.93.68,70.45A12.66,12.66,0,0,1,1291.33,1836.26Zm-70-31.17,61.1,5.06c2.49-9.57,4.76-25.81-2.71-40.11-2.84-5.44-6-6.86-8.09-7.45-7.14-2-17,2.32-20.52,4.3L1218.68,1791Z" transform="translate(-4.85 685)"/><path class="cls-11" d="M1161.66,827.11l258.77-179.88s89.24-42.82,135.15,2.09S1758.66,929,1758.66,929s-138-85.73-244.52-95.86-242.53,126.94-242.53,126.94" transform="translate(-4.85 685)"/><g class="cls-12"><path class="cls-4" d="M1161.66,827.11l258.77-179.88s89.24-42.82,135.15,2.09S1758.66,929,1758.66,929s-138-85.73-244.52-95.86-242.53,126.94-242.53,126.94" transform="translate(-4.85 685)"/></g><path class="cls-4" d="M1271.61,972.79a12.68,12.68,0,0,1-9-21.59c5.73-5.77,141.34-141.3,252.74-130.63,70.24,6.68,152.14,44.31,202.58,70.9-47.83-70.14-138.86-201.46-171.2-233.09-36.84-36-111.2-4.08-120-.11L1168.89,837.51a12.67,12.67,0,0,1-14.46-20.81L1413.2,636.83a13.31,13.31,0,0,1,1.75-1c4-1.9,97.83-46.07,149.49,4.46,46.33,45.31,198.3,272.09,204.75,281.73A12.67,12.67,0,0,1,1752,939.8c-1.36-.84-136.72-84.28-239-94-99.5-9.41-231,121.94-232.34,123.26A12.63,12.63,0,0,1,1271.61,972.79Z" transform="translate(-4.85 685)"/><path class="cls-13" d="M1218.68,873.82l281.22-235s35.47-8.11,72.85,21.91c39.76,31.94,151.78,151.18,174.75,208.15,6.32,15.67,11.16,60.16,11.16,60.16s-69.51-59.66-114.66-93-66.94-45.79-77-25.3c-10.52,21.49-135.25,343.49-136.41,377.63s-212-314.59-212-314.59" transform="translate(-4.85 685)"/><path class="cls-11" d="M1218.69,873.81s116.55,192.8,176.76,277.68c20.77,29.25,34.88,45.68,35.17,36.94,1.18-34.16,125.92-356.17,136.43-377.66,10-20.48,31.79-8,76.93,25.3s114.69,93,114.69,93-4.86-44.5-11.15-60.17c-23-57-135-176.2-174.77-208.12-37.37-30-72.84-21.92-72.84-21.92l-15.11,12.62Z" transform="translate(-4.85 685)"/><g class="cls-14"><path class="cls-15" d="M1218.69,873.81s2.33,3.89,6.55,10.77l250.44-209.27,15.11-12.62s35.47-8.11,72.84,21.91c39.78,31.92,151.8,151.17,174.77,208.13,2.19,5.53,4.26,14.7,5.95,24.15,8.83,7.48,14.32,12.16,14.32,12.16s-4.86-44.5-11.15-60.17c-23-57-135-176.2-174.77-208.12-37.37-30-72.84-21.92-72.84-21.92l-15.11,12.62Z" transform="translate(-4.85 685)"/></g><g class="cls-12"><path class="cls-4" d="M1218.69,873.81s116.55,192.8,176.76,277.68c46.28-103.92,124-307.28,89.35-500Z" transform="translate(-4.85 685)"/></g><path class="cls-4" d="M1428.18,1203.74c-10.74,0-28.46-17.18-121-163.06-50.12-79-98.83-159.5-99.31-160.31a12.66,12.66,0,0,1,2.72-16.27l281.22-235a12.72,12.72,0,0,1,5.3-2.63c1.69-.38,41.92-9.09,83.6,24.39,40.84,32.8,154.51,153.6,178.57,213.28,6.78,16.82,11.49,58.8,12,63.53a12.67,12.67,0,0,1-20.85,11c-.69-.59-69.68-59.74-113.93-92.38-14.14-10.42-47.28-34.82-56-32.7-.47.12-1.31,1.26-2.06,2.77-14.34,29.32-134.12,343.08-135.12,372.5-.29,8.47-5.9,12.91-10.6,14.14A17.6,17.6,0,0,1,1428.18,1203.74Zm-193-327.17c73,120.44,154.93,249.23,187.16,290.13,22.65-83.52,126.26-347,133.35-361.49,4.29-8.78,10.61-14.24,18.78-16.24,17.35-4.23,37.79,7.95,77.08,36.91,28,20.62,65.43,51.49,90,72.06-1.71-9.88-3.71-19.24-5.76-24.33-22.22-55.11-132.72-172.31-170.93-203-26.56-21.33-51.39-20.74-59.48-19.83Z" transform="translate(-4.85 685)"/><path class="cls-15" d="M1108.43,29.33l12.87,75.91,6.54,38.67,113,666.82s44-10.47,102-29.36c11.33-3.69,23.21-7.7,35.38-12,90.76-32.14,198.48-81.3,229.42-141,46.23-89.2-29.68-448-121.13-574.73-41.9-58.08-181.71-52.46-279-40.45-10.89,1.31-21.25,2.74-30.86,4.17-40.56,6-68.18,12-68.18,12" transform="translate(-4.85 685)"/><g class="cls-16"><path class="cls-4" d="M1121.3,105.24l6.54,38.67,89.73,529.46,23.28,137.36,2.66-.65,1.71-.43,1.61-.41c.43-.09.85-.21,1.28-.3.16-.06.37-.08.53-.14.79-.2,1.67-.42,2.59-.67a5.55,5.55,0,0,0,.62-.15l2.4-.62c1.16-.29,2.34-.61,3.58-.94.89-.26,1.84-.48,2.79-.74l3-.8c1.27-.33,2.62-.71,4-1.06,2.78-.77,5.74-1.57,8.85-2.44,2.75-.74,5.64-1.55,8.64-2.42,3.47-1,7.11-2,10.87-3.12,13.9-4.06,29.77-8.89,46.88-14.47,3.32-1.08,6.71-2.2,10.12-3.33,2.38-.79,4.82-1.62,7.26-2.45,5.89-2,11.94-4.08,18-6.25,90.79-32.15,198.48-81.3,229.38-141,38.1-73.45-6.62-329.73-74.7-488.69,39.87,143.13,58.22,302.28,29.5,357.63-14.2,27.37-109.64-35.39-118.58-82.17-23-120.65-75.83-270.58-204.12-337.39-3.33-1.74-64.66,21-118.41,27.48" transform="translate(-4.85 685)"/></g><path class="cls-4" d="M1227.19,831.34,1089.08,16.26l15.77-3.42c33-7.16,324.61-67.14,395.38,30.91,43.64,60.45,87.71,178.4,115,307.83,10.51,49.82,42.12,217.59,7.39,284.58-59.15,114.1-364.92,187.93-377.91,191ZM1127.81,42.6l126.63,747.34c94.73-24.57,297.71-91.22,338.21-169.33,43-83-33.13-437-119.81-557.09C1426.57-.57,1221.34,24.34,1127.81,42.6Z" transform="translate(-4.85 685)"/><path class="cls-15" d="M1571.54,352.25l-124.66,38.39a26,26,0,0,0-18.16,25.95c1.63,43.47,10.51,143.67,57.24,166.86,38.79,19.24,91.72,4,117.26-30.28,28.57-38.35,11.34-134.7.55-181.89a25.48,25.48,0,0,0-32.23-19" transform="translate(-4.85 685)"/><g class="cls-16"><path class="cls-4" d="M1428.73,416.6c1.61,43.46,10.51,143.67,57.24,166.84,38.8,19.25,91.71,4,117.27-30.29,17.55-23.59,17.8-69.12,12.87-111.64-1.22,22.07-6.53,41-15.29,54.58-50.18,77.89-114,13.87-114,13.87s-4.35,20-10.73,22.56c-26.65,10.54-40-79-45.89-125.52a25.49,25.49,0,0,0-1.43,9.6" transform="translate(-4.85 685)"/></g><path class="cls-4" d="M1523.52,608.73a101.33,101.33,0,0,1-45.06-10.15c-53-26.3-64.5-124.92-66.62-181.36a43,43,0,0,1,30.07-42.72l124.66-38.39a42.12,42.12,0,0,1,33.35,3.77,43.07,43.07,0,0,1,20.31,27.63c15.26,66.7,27,154.8-3.46,195.75C1595.19,592.22,1558.81,608.73,1523.52,608.73Zm53-240.34-124.66,38.39a9.12,9.12,0,0,0-6.25,9.17c3,80.84,21.38,139.23,47.87,152.37,30.64,15.19,74.69,3.64,96.21-25.25,17.27-23.18,16.38-86-2.37-168a9,9,0,0,0-4.28-5.91,8.16,8.16,0,0,0-6.52-.75Z" transform="translate(-4.85 685)"/><path class="cls-4" d="M1556.47,573c.19.07-.1,0-.4-.07a5.83,5.83,0,0,1-.87-.22c-.66-.22-1.28-.34-2-.63-1.38-.48-2.77-1-4.19-1.66a66.4,66.4,0,0,1-8.39-4.44,86.86,86.86,0,0,1-15.57-12.22c-9.75-9.33-17.76-21-24.14-33.71l-4.43-9.77c-1.51-3.26-2.54-6.74-3.85-10.11-2.59-6.72-4.61-14-6.65-21.1s-3.74-14.32-5.1-21.54c-.66-3.61-1.27-7.23-1.7-10.84a79.64,79.64,0,0,1-.68-10.4v-.49a4.45,4.45,0,0,0-8.86-.71,84.71,84.71,0,0,0-.69,12.21c0,3.93.22,7.82.48,11.69.55,7.75,1.51,15.42,2.7,23s2.43,15.11,4.38,22.79c1,3.8,1.69,7.69,2.93,11.47l3.64,11.36c5.48,15,13.08,29.68,23.74,42.63a113,113,0,0,0,18.07,17.91,94.35,94.35,0,0,0,10.84,7.46c1.9,1.16,3.91,2.23,6,3.25,1,.53,2.18,1,3.26,1.48.53.24,1.17.49,1.8.72s1.2.47,2.29.79a14.91,14.91,0,1,0,7.38-28.89" transform="translate(-4.85 685)"/><path class="cls-4" d="M1295.56,95.22c15.1-4.39,30.55-8.44,45.91-12.24s30.84-7.3,46.3-10.36,31-5.85,46.36-7.75,30.78-3.29,45.3-2.89h.07a16.91,16.91,0,1,0,1-33.8c-.48,0-1,0-1.47,0-17.46,1-33.78,4-49.9,7.42s-31.81,7.65-47.4,12.14-31,9.41-46.24,14.58-30.38,10.57-45.55,16.42a8.71,8.71,0,0,0,5.53,16.5Z" transform="translate(-4.85 685)"/><path class="cls-17" d="M1808.9-205c-4.45-11.32-9.94-16.78-9.94-16.78A131.56,131.56,0,0,0,1808.9-205" transform="translate(-4.85 685)"/><path class="cls-15" d="M1094.13,147s400.15-386.62,681.19-456.53c73-18.15,162.06-45.61,165.74,29.55,35.94,27.87,60.6,100.87,40.07,144.51-16.16,34.32-64.25,47.59-114.28,80.76S1469,197.42,1306.62,442" transform="translate(-4.85 685)"/><path class="cls-15" d="M1094.15,147l175.5,243.6,37,51.35c1.28-1.92,2.56-3.8,3.89-5.72,163.84-242.23,506.7-458,556.31-491,50.07-33.18,98.16-46.45,114.32-80.77,15.56-33.09,5.12-83.07-16.48-117.43-6.91-10.94-14.92-20.32-23.61-27.05-3.66-75.19-92.77-47.73-165.76-29.56C1494.26-239.62,1094.15,147,1094.15,147" transform="translate(-4.85 685)"/><g class="cls-16"><path class="cls-4" d="M1122.55,123.1l66,91.54C1274.35,149.23,1330.51,50.81,1335-60,1212.44,36.28,1122.55,123.1,1122.55,123.1" transform="translate(-4.85 685)"/></g><path class="cls-18" d="M726.31,239.72c61.44,36.74,134.32,58,212.52,58,6.29,0,12.5-.13,18.7-.43L953.73,86s-109.28,59.16-227.42,153.7" transform="translate(-4.85 685)"/><path class="cls-17" d="M844.88,287.14a419.06,419.06,0,0,0,94,10.56c151.5,0,283.12-79.72,349.87-196.94-73-53.67-185.19-104-309.21-44.67C809.75,137.37,828.92,244.83,844.88,287.14" transform="translate(-4.85 685)"/><g class="cls-16"><path class="cls-4" d="M1196.68,305.36l110,136.59c1.28-1.92,2.56-3.8,3.89-5.72,163.84-242.23,506.7-458,556.31-491,50.06-33.18,98.16-46.45,114.32-80.77,15.56-33.09,5.12-83.07-16.48-117.43-20,36.33-43.29,81.32-67.82,88.73-43,12.95-73.36-19.54-88-40.86,13,33.17,5.31,111.84-172,250-206,160.4-325.91,236.52-440.23,260.46" transform="translate(-4.85 685)"/></g><path class="cls-4" d="M1306.6,458.85a16.89,16.89,0,0,1-14-26.23C1363.33,326,1516.9,153.7,1846.48-61.56c4.54-3,8.26-5.4,11-7.24,17.16-11.38,34.16-20.53,49.16-28.61,28.34-15.26,50.72-27.31,59.16-45.26,17.18-36.5-5.23-100.78-35.13-124a16.9,16.9,0,0,1-6.52-12.52c-.94-19.17-8.5-24.76-11-26.6-21.37-15.82-76.22-1.94-120.29,9.21l-13.51,3.4c-273.39,68-669.57,448.45-673.53,452.29a16.89,16.89,0,1,1-23.47-24.3c16.47-15.91,406.65-390.57,688.84-460.78,4.41-1.09,8.88-2.22,13.38-3.36,56.25-14.23,114.43-29,148.67-3.62,13.52,10,21.57,25,24,44.55,37.54,34.41,62.76,109.84,39.12,160.08-13.19,28-41.24,43.13-73.71,60.62-15.07,8.11-30.65,16.5-46.52,27-2.83,1.88-6.6,4.34-11.23,7.37-324.77,212.12-475.23,380.6-544.26,484.58A16.87,16.87,0,0,1,1306.6,458.85Z" transform="translate(-4.85 685)"/><path class="cls-15" d="M1636.89-252.15s26.92-124.46,83.22-115.93c39.71,6,30.23,72.74,34.28,91.44,2.47,6,37,15.76,76.42,109.75" transform="translate(-4.85 685)"/><path class="cls-4" d="M1653.4-248.58c1.2-4.5,2.75-9.69,4.31-14.52s3.18-9.8,4.93-14.63a295.65,295.65,0,0,1,11.57-28.17,153.62,153.62,0,0,1,14.39-25c5.3-7.39,11.37-13.58,17-16.55a20.17,20.17,0,0,1,7.89-2.47,21.14,21.14,0,0,1,4,.11,14.72,14.72,0,0,1,3.26.88,11,11,0,0,1,5,4.06,31.9,31.9,0,0,1,4.53,9.31c2.6,7.79,4,17.48,4.73,27.57.4,5.07.64,10.31.93,15.8.14,2.75.29,5.58.54,8.61a75.8,75.8,0,0,0,1.43,10.53l.07.3a14.77,14.77,0,0,0,.83,2.59,24.9,24.9,0,0,0,1.68,3.14l.49.73.32.41.66.83a21.76,21.76,0,0,0,2.22,2.32,35.52,35.52,0,0,0,2.77,2.28l3.69,2.69c2.16,1.54,4.1,3,6,4.52a135.85,135.85,0,0,1,11,10c7.24,7.12,13.75,15.4,20.17,23.94s12.37,17.68,18.09,27.06,11.35,18.95,17.08,28.59l0,0a8.51,8.51,0,0,0,11.67,3,8.52,8.52,0,0,0,3.87-9.55,297.72,297.72,0,0,0-11.21-32.93A271.42,271.42,0,0,0,1812-234.86a193.3,193.3,0,0,0-20.76-29.93A138.58,138.58,0,0,0,1778-278.31c-2.38-2.12-4.86-4.17-7.2-6l-3-2.45c-.39-.31-.64-.57-.47-.44a7.08,7.08,0,0,1,.76.79l.32.42.51.71a11.68,11.68,0,0,1,1.15,2.22l.91,2.9a52,52,0,0,1-.45-5.58l-.2-7.6c-.08-5.32-.13-10.89-.37-16.62-.53-11.46-1.4-23.47-5.19-36.39a68,68,0,0,0-9.45-19.81,48.05,48.05,0,0,0-19.69-16.35,51,51,0,0,0-12.26-3.69,57,57,0,0,0-12.21-.67,56,56,0,0,0-23,6.67c-13.5,7.36-22.44,17.57-29.75,27.63a190.23,190.23,0,0,0-17.55,31.36,303.29,303.29,0,0,0-12,32.25q-2.49,8.14-4.63,16.37c-1.38,5.58-2.6,10.85-3.77,16.9a16.89,16.89,0,0,0,13.36,19.8,16.9,16.9,0,0,0,19.53-12.16Z" transform="translate(-4.85 685)"/><path class="cls-4" d="M1615.76,137.41a12.63,12.63,0,0,1-4.93-1c-137.56-58.2-189.06-256.2-191.19-264.61a12.67,12.67,0,0,1,9.17-15.38,12.7,12.7,0,0,1,15.39,9.17c.49,1.93,50.61,194.22,176.5,247.49a12.67,12.67,0,0,1-4.94,24.33Z" transform="translate(-4.85 685)"/><path class="cls-15" d="M953.73,86S611.47,271.27,483.45,510.3l203,85.46s123.18-139.68,273.1-184.21" transform="translate(-4.85 685)"/><path class="cls-15" d="M483.43,510.3l141,59.37,62,26.09S809.66,456.08,959.56,411.54l-2-110.38L953.74,86S611.46,271.26,483.43,510.3" transform="translate(-4.85 685)"/><g class="cls-16"><path class="cls-4" d="M624.46,569.67l62,26.09S809.66,456.08,959.56,411.54c0,0-52-202.78-105.71-98.38S732.24,426.44,624.46,569.67" transform="translate(-4.85 685)"/></g><g class="cls-16"><path class="cls-4" d="M726.31,239.72c61.44,36.74,134.32,58,212.52,58,6.29,0,12.5-.13,18.7-.43L953.73,86s-109.28,59.16-227.42,153.7" transform="translate(-4.85 685)"/></g><path class="cls-4" d="M686.48,608.43a12.63,12.63,0,0,1-4.91-1L478.53,522a12.65,12.65,0,0,1-6.25-17.65C600.62,264.69,933.59,82.51,947.7,74.88a12.67,12.67,0,0,1,12.06,22.28C956.43,99,631,277,501.36,504.09l181.8,76.53C710.33,551.53,821.58,439.33,956,399.41a12.66,12.66,0,1,1,7.21,24.28c-144.57,42.95-266,179.09-267.2,180.46A12.68,12.68,0,0,1,686.48,608.43Z" transform="translate(-4.85 685)"/><path class="cls-4" d="M800.18,507.22a12.68,12.68,0,0,1-11.61-7.58h0c-.63-1.43-64.19-143-175.47-146.39a12.67,12.67,0,1,1,.77-25.32C741.23,331.79,809,483,811.77,489.47a12.67,12.67,0,0,1-11.59,17.75Z" transform="translate(-4.85 685)"/><path class="cls-15" d="M1375.55,182.11c38.66,62.09,130.14,245.71,121.49,407.3-5.55,103.8-47,140.33-123.37,194.74-214,152.37-597.56-186.29-597.56-186.29s56-83.28,67.2-145.69c6.16-34.27,15.74-64.63,10-146.84,0,0-89.85-145.85,126.16-249.23s396,126,396,126" transform="translate(-4.85 685)"/><path class="cls-15" d="M776.09,597.87s383.62,338.65,597.57,186.26c76.43-54.39,117.81-90.91,123.38-194.7,1.73-32.56-.59-66-5.7-99.15C1471,358.8,1406.43,231.7,1375.56,182.13c0,0-180-229.41-396.07-126S853.37,305.34,853.37,305.34c5.69,82.21-3.89,112.57-10,146.81-2.58,14.36-7.56,29.86-13.65,45.14-20.39,51.22-53.58,100.58-53.58,100.58" transform="translate(-4.85 685)"/><g class="cls-16"><path class="cls-4" d="M776.09,597.87s383.62,338.65,597.57,186.26c76.43-54.39,117.81-90.91,123.38-194.7,1.73-32.56-.59-66-5.7-99.15-155.45,73.22-540,89.41-661.67,7-20.39,51.22-53.58,100.58-53.58,100.58" transform="translate(-4.85 685)"/></g><g class="cls-16"><path class="cls-4" d="M844.88,287.14a419.06,419.06,0,0,0,94,10.56c151.5,0,283.12-79.72,349.87-196.94-73-53.67-185.19-104-309.21-44.67C809.75,137.37,828.92,244.83,844.88,287.14" transform="translate(-4.85 685)"/></g><path class="cls-4" d="M1368.38,186.57c13.23,24,25,49.1,36,74.34s20.86,51,30,76.93c9,26,17.06,52.21,23.55,78.74,6.78,26.44,12.56,53,16.93,79.77a454.12,454.12,0,0,1,5.64,80.49c-.62,26.75-3.65,53.35-11.65,77.47S1447.38,699.67,1429,718s-40.34,34.59-62.79,50.69a191.75,191.75,0,0,1-69.64,31.85c-25.15,5.84-51.55,7.26-78,5.09a400.57,400.57,0,0,1-78.74-14.91,614.86,614.86,0,0,1-76.45-27.91c-50-21.87-97.93-49.12-144.05-79.13q-34.56-22.56-67.75-47.28c-22-16.4-44-33.64-64.33-51.24l2.84,22.08a500.05,500.05,0,0,0,40.4-68.48c5.77-12,11.2-24.2,15.84-36.89a255.61,255.61,0,0,0,11.38-39.58c1.38-7.31,2.12-13.11,3.19-19.48s2-12.81,2.92-19.41a331.61,331.61,0,0,0,3.19-40c.67-26.69-1.61-52.91-5.28-78.72a8.47,8.47,0,0,0-16.85,1.11v.06c-.25,25.57-1,51-3.92,75.7-1.52,12.37-3.69,24.48-6.33,36.67l-8.52,37c-6,22.72-16.34,45.49-27.54,67.67C793,534.1,787,545.12,780.9,556.07s-12.56,22-18.81,32.37l-.13.2a16.67,16.67,0,0,0,3,21.88c21.84,18.86,43.82,36.07,66.53,53s45.79,33,69.46,48.48c47.36,30.8,96.73,58.93,149,81.79a647.55,647.55,0,0,0,80.65,29.42,434.28,434.28,0,0,0,85.4,16.12c29.17,2.39,59.14.91,88.36-5.89,29.18-6.59,57.44-19.83,81.53-37.25,22.8-16.4,46.07-33.25,67.17-54.42a207.83,207.83,0,0,0,28.46-35.37A185.5,185.5,0,0,0,1501,665c9.54-29,12.66-58.47,13.37-87.37.26-14.5,0-29-1.1-43.37-.91-14.4-2.54-28.69-4.51-42.9a558.09,558.09,0,0,0-18.17-83.75c-8.23-27.28-18-54-28.7-80.17S1439,275.65,1426,250.59q-9.72-18.81-20.53-37.05c-7.18-12.17-14.63-24.18-22.72-35.89a8.45,8.45,0,0,0-14.38,8.84Z" transform="translate(-4.85 685)"/><path class="cls-15" d="M1211.86,646.17,911.55,656.34a36.52,36.52,0,0,1-37.62-35.17l-6.41-189.11a36.54,36.54,0,0,1,35.17-37.64L1203,384.27a36.52,36.52,0,0,1,37.63,35.16l6.4,189.11a36.52,36.52,0,0,1-35.16,37.63" transform="translate(-4.85 685)"/><path class="cls-18" d="M1245,548l2.25,66.56A30.47,30.47,0,0,1,1217.87,646L905.52,656.54a30.46,30.46,0,0,1-31.38-29.36L867.33,426a30.48,30.48,0,0,1,29.33-31.42l38.2-1.29,4.56,134.59a30.48,30.48,0,0,0,31.42,29.36Z" transform="translate(-4.85 685)"/><path class="cls-4" d="M910.3,673.25A53.44,53.44,0,0,1,857,621.74l-6.39-189.11a53.41,53.41,0,0,1,51.47-55.09l300.3-10.15a53.39,53.39,0,0,1,55.08,51.47L1263.9,608a53.37,53.37,0,0,1-51.47,55.08h0L912.12,673.22Zm301.55-27.08h0Zm-7.62-245h-.66L903.26,411.31a19.64,19.64,0,0,0-18.86,20.17l6.4,189.12A19.66,19.66,0,0,0,911,639.46l300.3-10.17a19.55,19.55,0,0,0,18.86-20.18L1223.74,420a19.61,19.61,0,0,0-19.51-18.86Z" transform="translate(-4.85 685)"/><path class="cls-15" d="M1154.19,648.27,867.71,658a25.34,25.34,0,0,1-26.18-24.47l-7.14-211.27a25.32,25.32,0,0,1,24.46-26.17l286.48-9.7a25.33,25.33,0,0,1,26.17,24.47l7.15,211.26a25.32,25.32,0,0,1-24.46,26.18" transform="translate(-4.85 685)"/><path class="cls-15" d="M834.46,424.61l7,206.49a27.72,27.72,0,0,0,28.65,26.77l281.69-9.53a27.69,27.69,0,0,0,26.78-28.65l-7-206.48a27.73,27.73,0,0,0-28.66-26.78L861.24,396a27.75,27.75,0,0,0-26.78,28.65" transform="translate(-4.85 685)"/><g class="cls-16"><path class="cls-4" d="M839.65,578.07l1.8,53a27.72,27.72,0,0,0,28.65,26.77l279-9.44A30.47,30.47,0,0,0,1178.48,617l-2.86-84.4c0,.1-.09.15-.13.24-33.89,52.25-49.06-14.8-49.06-14.8l-88.51,3s-.09,77.84-84.22,85.68c-49.29,4.58-88.09-11.82-114.05-28.65" transform="translate(-4.85 685)"/></g><path class="cls-4" d="M866.82,674.87a42.22,42.22,0,0,1-42.17-40.81l-7.14-211.25a42.21,42.21,0,0,1,40.77-43.63l286.47-9.7a42.28,42.28,0,0,1,43.63,40.77l7.15,211.27a42.21,42.21,0,0,1-40.77,43.63l-286.48,9.7Zm279.36-271.64h-.29l-286.47,9.7a8.44,8.44,0,0,0-8.16,8.72l7.15,211.27a8.43,8.43,0,0,0,2.68,5.89,8.17,8.17,0,0,0,6,2.27l286.49-9.7a8.44,8.44,0,0,0,8.14-8.72l-7.14-211.27A8.48,8.48,0,0,0,1146.18,403.23Z" transform="translate(-4.85 685)"/><path class="cls-15" d="M884.83,395.18l2.55,75.33a64.3,64.3,0,0,0,26.93,50.18,64.28,64.28,0,0,1,26.94,50.17l2.86,84.52" transform="translate(-4.85 685)"/><path class="cls-4" d="M944.1,668.05a12.68,12.68,0,0,1-12.66-12.24l-2.85-84.53A51.9,51.9,0,0,0,907,531a77.44,77.44,0,0,1-32.24-60.07l-2.55-75.34a12.67,12.67,0,1,1,25.32-.85L900,470.09a51.94,51.94,0,0,0,21.62,40.29,77.35,77.35,0,0,1,32.25,60L956.77,655A12.66,12.66,0,0,1,944.53,668Z" transform="translate(-4.85 685)"/><path class="cls-19" d="M1126.44,518.1c.87,26-15.47,47.53-36.54,48.24l-35.59,1.21-3.18-93.92,35.59-1.2c21.07-.71,38.84,19.74,39.72,45.67" transform="translate(-4.85 685)"/><g class="cls-14"><g class="cls-20"><path class="cls-15" d="M1123.51,501.81c-7.29-9-17.42-14.46-28.51-14.09l-35.57,1.21,2.65,78.34-7.78.27-3.18-93.92,35.61-1.2c16.37-.56,30.78,11.72,36.78,29.39" transform="translate(-4.85 685)"/></g></g><path class="cls-21" d="M1126.45,518.1c.88,25.95-15.48,47.52-36.54,48.23l-35.61,1.21-3.18-93.92,19.16-.65,1.56,46.07,35.57-1.21a32.65,32.65,0,0,0,18.42-6.61,61.28,61.28,0,0,1,.62,6.88" transform="translate(-4.85 685)"/><path class="cls-4" d="M1054.3,580.21A12.67,12.67,0,0,1,1041.65,568l-3.18-93.92A12.67,12.67,0,0,1,1050.7,461l35.6-1.2c14.2-.46,27.36,5.63,37.41,17.19,9.4,10.81,14.86,25.27,15.39,40.71h0c.52,15.45-3.95,30.25-12.6,41.66-9.24,12.21-22.09,19.2-36.17,19.67l-35.59,1.21Zm9.92-94.34,2.33,68.59,22.93-.78c6.3-.21,12.27-3.64,16.82-9.64,5.15-6.8,7.8-15.86,7.48-25.52h0c-.33-9.64-3.59-18.5-9.19-24.94-4.94-5.68-11-8.66-17.44-8.49Z" transform="translate(-4.85 685)"/><path class="cls-19" d="M1090.81,519.31c.88,25.94-15.46,47.54-36.5,48.25s-38.8-19.74-39.68-45.67,15.47-47.54,36.51-48.25,38.8,19.74,39.67,45.67" transform="translate(-4.85 685)"/><g class="cls-14"><g class="cls-22"><path class="cls-15" d="M1090.82,519.31a58.93,58.93,0,0,1-.32,8.33c-3.91-21.83-20-38-38.81-37.36s-33.74,17.85-36.16,39.9a59.53,59.53,0,0,1-.88-8.3c-.88-25.91,15.45-47.51,36.48-48.22s38.81,19.73,39.69,45.65" transform="translate(-4.85 685)"/></g></g><path class="cls-21" d="M1090.82,519.31c.88,26-15.46,47.55-36.51,48.26s-38.78-19.73-39.66-45.69a44.87,44.87,0,0,1,.06-4.65c6.74,15,20,25.06,34.77,24.56,19.79-.67,35.4-19.78,36.47-43.58a55.22,55.22,0,0,1,4.87,21.1" transform="translate(-4.85 685)"/><path class="cls-4" d="M1053.21,580.24c-13.5,0-26.18-6.07-35.86-17.22-9.4-10.81-14.86-25.27-15.38-40.71-1.11-32.86,20.75-60.38,48.74-61.33,27.8-.93,51.65,25,52.76,57.9h0c.53,15.44-4,30.23-12.59,41.66-9.24,12.21-22.08,19.2-36.14,19.68Zm-1-93.95h-.61c-13.78.47-24.9,16.57-24.27,35.16.33,9.65,3.59,18.51,9.18,24.95,5,5.69,11,8.7,17.41,8.49s12.25-3.64,16.8-9.65c5.14-6.8,7.8-15.86,7.47-25.51h0C1077.53,501.43,1065.71,486.29,1052.17,486.29Z" transform="translate(-4.85 685)"/><g class="cls-23"><rect class="cls-24" x="2242.65" y="2208.73" width="152.25" height="151.87" transform="translate(-934.85 3174.31) rotate(-48.18)"/></g><path class="cls-4" d="M2368.09,2352.38a12.67,12.67,0,0,1-9.49-4.26c-.26-.3-26.64-29.91-52.74-46.35-42.94-27.06-51.77-67.41-52.12-69.12a12.66,12.66,0,0,1,11.35-15.2c32.87-2.75,59.65,5.52,79.64,24.49,37.46,35.54,36.09,95.62,36,98.16a12.65,12.65,0,0,1-12.65,12.28Zm-83.71-109.82a96.89,96.89,0,0,0,35,37.77,242.7,242.7,0,0,1,31.77,24.62c-3.76-15.15-10.79-32.29-23.93-44.71C2316.15,2249.77,2301.78,2243.85,2284.38,2242.56Zm-18.24-12.49h0Z" transform="translate(-4.85 685)"/><path class="cls-4" d="M1534,1450.32a67.86,67.86,0,0,1-10.41-.8c-11.58-1.8-20.83-7.39-26.77-16.15-11.27-16.64-6.66-38.6-6.1-41,.09-.36.19-.71.3-1.06l15.08-46.68a12.7,12.7,0,0,1,10.3-8.65l31.58-4.42a12.58,12.58,0,0,1,13.38,7.5l32.19,74.22a12.68,12.68,0,0,1-3,14.34C1589.48,1428.58,1565.62,1450.32,1534,1450.32Zm-18.67-51.9c-.75,3.86-1.7,14.66,2.51,20.79,1.24,1.82,3.59,4.34,9.65,5.28,15.91,2.47,30.58-4.9,38.85-10.31L1542,1357.94l-14.19,2Z" transform="translate(-4.85 685)"/><path class="cls-17" d="M1464.78,1290.11s46.36-15.93,59.91-7.15c22.5,14.6,58,99.26,58,99.26s.42,34.4-.77,36c0,0-47.24-46.24-49.12-45.24,3,14.87,1.21,66.16,1.34,72.49,0,0,31.13,37.7,33,44s-.45,72.87-72.32,173.11l-165.13-118.42Z" transform="translate(-4.85 685)"/><g class="cls-14"><path class="cls-15" d="M1329.7,1544.22l4.69,3.37,123.93-233.12s46.36-16,59.92-7.18c22.5,14.61,58.06,99.27,58.06,99.27s0,2.54,0,6.25c3.46,3.34,5.62,5.45,5.62,5.45,1.18-1.65.8-36,.8-36s-35.56-84.7-58.06-99.27c-13.56-8.78-59.92,7.14-59.92,7.14Z" transform="translate(-4.85 685)"/></g><path class="cls-10" d="M1132.35,1753.72s-.22,49,12.44,59c21,16.63,112.65,23.14,112.65,23.14s32.7-10.64,33.89-12.3c0,0-58.95-29.9-58.62-32,15.07-1.9,63-20.08,69.09-22,0,0,45.7,17.39,52.27,17.08s68.88-23.8,140.75-124l-165.13-118.42Z" transform="translate(-4.85 685)"/><path class="cls-4" d="M1494.82,1675.31a12.69,12.69,0,0,1-7.38-2.37l-165.13-118.41a12.67,12.67,0,0,1-3.8-16.24l135.08-254.13a12.66,12.66,0,0,1,7.07-6c15.69-5.39,54-16.76,70.92-5.8,24.53,15.92,56.65,90.25,62.84,105a12.47,12.47,0,0,1,1,4.75c.47,38.56-.52,39.93-3.16,43.6a12.68,12.68,0,0,1-19.15,1.66c-8.62-8.45-17.86-17.35-25.84-24.89.09,10.73-.08,22.57-.29,33.88,0,1.77-.06,3.35-.08,4.69,30,36.56,31.74,42.67,32.42,45,2.72,9.47.76,79.48-74.19,184a12.65,12.65,0,0,1-8.24,5.12A11.85,11.85,0,0,1,1494.82,1675.31ZM1346.08,1540.4l145.72,104.49c55.37-80.94,63.88-138.87,63.06-151.73-3.33-5.71-17.94-24.44-30.44-39.58a12.66,12.66,0,0,1-2.9-7.8c0-1.43,0-5,.12-9.92.27-14.95.91-50-1.2-60.3a12.66,12.66,0,0,1,6.48-13.73c9.21-4.88,12.71-1.58,39.92,24.26l3.3,3.14c0-1.46,0-2.93,0-4.37-14.34-33.66-39.37-82.87-52.32-91.27-4.79-2.29-25.13,1-44.22,7Z" transform="translate(-4.85 685)"/><path class="cls-4" d="M1538.34,1350.44c.26-6.46.32-12.75.25-19.15s-.34-12.8-.86-19.3a139.46,139.46,0,0,0-2.91-20,54.24,54.24,0,0,0-3.72-11c-.43-1-1.09-2.07-1.66-3.09a33.18,33.18,0,0,0-2.42-3.34,20.75,20.75,0,0,0-9.65-6.4,12.67,12.67,0,0,0-6.37,24.52c-1.65-.52-2.08-1.36-1.92-1.37a2,2,0,0,1,.49.31c.23.3.48.47.76.88a30.84,30.84,0,0,1,3.35,6.21,118.09,118.09,0,0,1,5.3,16.4,318.87,318.87,0,0,1,6.7,35.83l0,.15a6.35,6.35,0,0,0,12.64-.6" transform="translate(-4.85 685)"/><path class="cls-4" d="M1518.78,1476c-1.58,6.22-3.52,12.68-5.59,18.89s-4.37,12.4-6.9,18.38c-5,11.89-11.11,23.39-18.47,32.06a12.71,12.71,0,1,0,19.37,16.46,12.88,12.88,0,0,0,1.22-1.69c8.1-13.52,12.46-27.23,15.93-40.89,1.7-6.84,3.06-13.68,4.22-20.53s2.08-13.62,2.73-20.71a6.35,6.35,0,0,0-12.47-2.15Z" transform="translate(-4.85 685)"/><path class="cls-4" d="M1507.65,1432.25l-45.11-4a12.79,12.79,0,0,0-2.26,25.49,13.22,13.22,0,0,0,3.57-.19l44.46-8.66a6.4,6.4,0,0,0-.66-12.65" transform="translate(-4.85 685)"/><path class="cls-4" d="M1257.44,1848.56l-.9,0c-16-1.13-96.66-7.71-119.6-25.84-15.8-12.49-17.33-52.43-17.26-69a12.62,12.62,0,0,1,3.45-8.64l197.34-209.48a12.67,12.67,0,0,1,16.6-1.61l165.13,118.41a12.65,12.65,0,0,1,2.91,17.67c-74.93,104.52-140.62,128.85-150.45,129.31-2.5.14-8.84.39-53.05-16.26l-4.34,1.56c-10.68,3.83-21.86,7.8-32.07,11.17,9.7,5.14,21.1,11,31.86,16.5a12.66,12.66,0,0,1,4.55,18.69c-2.62,3.65-3.61,5-40.25,17A12.75,12.75,0,0,1,1257.44,1848.56Zm-112.38-89.86c.44,20,3.89,40.31,7.72,44.22,12,9.47,66.63,17.39,103.09,20.16l4.15-1.38-4-2.11c-33.17-17.47-37.43-19.71-35.79-30a12.66,12.66,0,0,1,10.93-10.56c10.48-1.33,43.48-13.18,57.57-18.24,4.58-1.65,7.93-2.84,9.28-3.27a12.6,12.6,0,0,1,8.33.24c18.34,7,40.77,14.81,47.25,16.12,12.45-3.35,64.59-30,123.47-108.4L1331.31,1561Z" transform="translate(-4.85 685)"/><path class="cls-4" d="M1209.46,1791.9a320.39,320.39,0,0,1-36.1,5.15,119,119,0,0,1-17.23.24,30.92,30.92,0,0,1-7-1.18c-.48-.13-.72-.32-1.09-.44a2.67,2.67,0,0,1-.44-.36c0-.15.88,0,1.9,1.38a12.66,12.66,0,1,0-21.17,13.9,20.71,20.71,0,0,0,9.15,7.08,33.59,33.59,0,0,0,3.94,1.22c1.16.21,2.41.49,3.47.59a55,55,0,0,0,11.65,0,137.5,137.5,0,0,0,19.88-3.66c6.33-1.59,12.48-3.41,18.55-5.38s12-4.06,18.07-6.38a6.35,6.35,0,0,0-3.49-12.16Z" transform="translate(-4.85 685)"/><path class="cls-4" d="M1331.59,1756.45c6.51-2.9,12.59-5.94,18.75-9.24s12.15-6.78,18.09-10.58c11.81-7.68,23.4-16.19,33.61-28.21a12.71,12.71,0,0,0-19.38-16.46,14.7,14.7,0,0,0-1.21,1.7c-5.85,9.75-14.8,19.2-24.44,27.79-4.85,4.31-10,8.43-15.2,12.42s-10.71,7.87-16.1,11.35l-.15.1a6.35,6.35,0,0,0,6,11.13" transform="translate(-4.85 685)"/><path class="cls-13" d="M606.84,1600.85l-87.34,302.8s-11.92,98.26,45.35,127.34,330.09,102.59,330.09,102.59-125.47-103.16-169.26-200.83,42.41-270.45,42.41-270.45" transform="translate(-4.85 685)"/><path class="cls-11" d="M564.84,2031c57.26,29.09,330.07,102.6,330.07,102.6s-125.45-103.15-169.23-200.82c-17.4-38.85-14.28-89.56-4.18-136.56,15.32-71.19,46.62-133.89,46.62-133.89l-161.26-61.48-36,124.9-51.35,177.9s-11.91,98.25,45.35,127.35" transform="translate(-4.85 685)"/><path class="cls-25" d="M587.94,2040.91c85.89,33.1,307,92.68,307,92.68s-125.45-103.15-169.23-200.82a130.25,130.25,0,0,1-8.19-25.12Z" transform="translate(-4.85 685)"/><g class="cls-12"><path class="cls-4" d="M570.84,1725.74,613.15,1785s55.4,6,108.35,11.18c15.33-71.19,46.62-133.89,46.62-133.89l-161.26-61.48Z" transform="translate(-4.85 685)"/></g><path class="cls-4" d="M1292.92,1745.28l-6.07-44.88a12.79,12.79,0,1,0-25.35,3.43,13.2,13.2,0,0,0,1,3.44l18.25,41.44a6.4,6.4,0,0,0,12.2-3.43" transform="translate(-4.85 685)"/><path class="cls-4" d="M894.94,2146.25a13,13,0,0,1-3.3-.43c-11.19-3-274.76-74.2-332.53-103.54-64.43-32.71-52.71-135.79-52.18-140.16a13.36,13.36,0,0,1,.4-2l87.34-302.8a12.67,12.67,0,0,1,24.34,7l-87,301.72c-.93,9.53-7.35,90.27,38.6,113.6,40.34,20.49,193.92,64.57,275.7,87.37-41.37-39.24-103.29-104.74-132.16-169.13-45.72-102,39-274,42.64-281.28A12.67,12.67,0,0,1,779.43,1668c-.84,1.67-83,168.58-42.19,259.61,42.09,93.87,164.51,195.22,165.74,196.23a12.67,12.67,0,0,1-8,22.45Z" transform="translate(-4.85 685)"/><path class="cls-13" d="M669.38,1639.87,537,1981.63s3.7,36.19,44.13,62c43,27.41,191.88,95.25,253.21,98.72,16.87,1,60.56-8.73,60.56-8.73s-78.81-46.69-124.83-78.77-64.85-48.71-48.66-64.78c17-16.85,281.94-238.31,313.9-250.36s-366-99.8-366-99.8" transform="translate(-4.85 685)"/><path class="cls-11" d="M537,1981.62s3.71,36.19,44.12,62c43,27.44,191.91,95.26,253.22,98.77,16.89.92,60.55-8.75,60.55-8.75s-78.79-46.7-124.81-78.79-64.86-48.69-48.65-64.77c8.24-8.15,74.78-64.48,144.79-121.65,74.36-60.76,152.65-122.5,169.11-128.7,32-12.08-366-99.82-366-99.82L613.15,1785Z" transform="translate(-4.85 685)"/><g class="cls-12"><path class="cls-4" d="M613.15,1785c96.31,38.76,185.49,66.16,253.09,83.34,74.36-60.75,152.65-122.49,169.11-128.69,32-12.08-366-99.82-366-99.82Z" transform="translate(-4.85 685)"/></g><path class="cls-4" d="M836.76,2155c-1.1,0-2.14,0-3.11-.08-64.24-3.64-215.13-72.54-259.3-100.69-45.08-28.74-49.74-69.63-49.92-71.36a12.75,12.75,0,0,1,.79-5.86l132.35-341.76a12.65,12.65,0,0,1,14.54-7.8c.91.21,92.82,20.5,183.69,42.62,192.56,46.89,193.13,54.83,194,66.84.34,4.85-2.06,11.58-10,14.57-27.57,10.4-286.29,224.52-309.45,247.5-1.2,1.2-2,2.36-2,2.84.78,9,34.54,32.51,49,42.55,45.11,31.45,123.27,77.81,124,78.28a12.67,12.67,0,0,1-3.71,23.26C893.28,2146.92,856.08,2155,836.76,2155ZM550.1,1983c1.71,7.85,9.08,31.61,37.87,50,41.33,26.34,187.79,93.4,247.11,96.77,5.47.31,15-.8,24.89-2.36-27.36-16.65-68.62-42.25-97.12-62.11-40-27.91-58.15-43.37-59.69-61.16-.73-8.38,2.42-16.11,9.36-23,12.39-12.3,228.69-194.15,299.71-242.24-48.94-17.38-197.35-53.7-335-84.22Z" transform="translate(-4.85 685)"/><path class="cls-15" d="M1057,1783.1c236.74-27.19,326.09-200.6,326.09-200.6s135.57-140.27,85.4-373.25S1078.71,646.31,703.26,528a763.09,763.09,0,0,0-125-28.25,728.05,728.05,0,0,0-185.18-1.87c-152.58,18-265.18,79.68-314.2,111.17a84.22,84.22,0,0,0-36.23,50.52C28.54,716.12,6.22,842.53,38.16,992.8a729,729,0,0,0,61.26,174.9A764.49,764.49,0,0,0,166.24,1277c232.46,317.68,654,533.4,890.71,506.14" transform="translate(-4.85 685)"/><path class="cls-4" d="M1014.79,1802.31c-115.12,0-262.56-45.41-412.94-128.13-179-98.49-338.58-236-449.24-387.25a783.39,783.39,0,0,1-68.29-111.67A747.93,747.93,0,0,1,21.64,996.32c-32.19-151.42-10.92-278.51,4.61-340.8a100.85,100.85,0,0,1,43.49-60.65c54-34.7,167.62-95.63,321.35-113.72a747.12,747.12,0,0,1,189.47,1.91,783.84,783.84,0,0,1,127.77,28.87c178.73,56.3,360.17,163.29,510.9,301.26,143.41,131.27,240.27,274.34,265.72,392.5,49,227.57-71.39,368.55-88.07,386.73-11.87,21.63-106.8,180.89-338,207.47h0A386.15,386.15,0,0,1,1014.79,1802.31ZM478.42,509.82A713.59,713.59,0,0,0,395,514.7c-147,17.3-255.46,75.46-307,108.6a67.12,67.12,0,0,0-29,40.39c-14.84,59.46-35.13,180.83-4.35,325.6a714.28,714.28,0,0,0,59.85,170.85A748.27,748.27,0,0,0,179.88,1267c107.8,147.34,263.44,281.44,438.25,377.6C782.49,1735,941.73,1779.39,1055,1766.33h0c224.34-25.77,312.16-189.94,313-191.6a16.92,16.92,0,0,1,2.86-4c1.26-1.32,128.57-137.17,81-358-24-111.48-117.14-248-255.51-374.7C1049.25,703.39,872.31,599,698.18,544.15a750.1,750.1,0,0,0-122.24-27.63A711.56,711.56,0,0,0,478.42,509.82Z" transform="translate(-4.85 685)"/><path class="cls-15" d="M1057,1783.1c236.74-27.19,326.09-200.6,326.09-200.6s135.57-140.27,85.4-373.25S1078.71,646.31,703.26,528a763.09,763.09,0,0,0-125-28.25,728.05,728.05,0,0,0-185.18-1.87c-152.58,18-265.18,79.68-314.2,111.17a84.22,84.22,0,0,0-36.23,50.52C28.54,716.12,6.22,842.53,38.16,992.8a729,729,0,0,0,61.26,174.9A764.49,764.49,0,0,0,166.24,1277c232.46,317.68,654,533.4,890.71,506.14" transform="translate(-4.85 685)"/><path class="cls-15" d="M38.17,992.8a728.37,728.37,0,0,0,61.27,174.9,762.75,762.75,0,0,0,66.8,109.23c232.45,317.7,654,533.43,890.69,506.2,123.85-14.23,207.37-68.45,258.84-117,47-44.17,67.27-83.6,67.27-83.6s135.58-140.28,85.41-373.27S1078.72,646.31,703.26,528a767.09,767.09,0,0,0-125-28.24,726.36,726.36,0,0,0-185.2-1.86c-152.6,18-265.2,79.68-314.2,111.17a84.79,84.79,0,0,0-36.34,51A715.72,715.72,0,0,0,24,777.92,760.7,760.7,0,0,0,38.17,992.8" transform="translate(-4.85 685)"/><path class="cls-15" d="M38.17,992.8a728.37,728.37,0,0,0,61.27,174.9,762.75,762.75,0,0,0,66.8,109.23c232.45,317.7,654,533.43,890.69,506.2,123.85-14.23,207.37-68.45,258.84-117,47-44.17,67.27-83.6,67.27-83.6s135.58-140.28,85.41-373.27c-15.41-71.37-57.93-151.84-120.34-232.58-75.24-97.28-179.37-194.91-299.62-277.29C943,627,825,566.42,703.26,528a767.09,767.09,0,0,0-125-28.24,726.36,726.36,0,0,0-185.2-1.86c-152.6,18-265.2,79.68-314.2,111.17a84.79,84.79,0,0,0-36.34,51A715.72,715.72,0,0,0,24,777.92,760.7,760.7,0,0,0,38.17,992.8" transform="translate(-4.85 685)"/><g class="cls-16"><path class="cls-4" d="M1100.34,1097s-5.95,168.9,104.34,183.3c144.19,18.83,116.24-190,116.24-190l27.2-113.63c-75.25-97.28-179.38-194.91-299.63-277.29a364.13,364.13,0,0,0-60.43,200.91c-.25,142.46,112.28,196.72,112.28,196.72" transform="translate(-4.85 685)"/></g><g class="cls-16"><path class="cls-4" d="M38.17,992.8a728.37,728.37,0,0,0,61.27,174.9,762.75,762.75,0,0,0,66.8,109.23c232.45,317.7,654,533.43,890.69,506.2,123.85-14.23,207.37-68.45,258.84-117-108.43-62.66-220.37-164.34-185.29-315.46,3.09-13.39-326.14-256.06-326.14-256.06s-153.69,114.69-309,9C306.89,975.49,56.46,532,24,777.92A760.7,760.7,0,0,0,38.17,992.8" transform="translate(-4.85 685)"/></g><path class="cls-25" d="M655.08,1683.05c3.25,1.69,6.5,3.3,9.75,4.86q7.29,3.6,14.57,7.09c3.93,1.86,7.81,3.67,11.74,5.49.17.08.34.17.55.25q5.7,2.67,11.4,5.2a11.29,11.29,0,0,0,1.22.55c3.76,1.73,7.52,3.37,11.28,5,9.16,4,18.32,7.85,27.4,11.57,3.88,1.61,7.81,3.17,11.7,4.69,3.67,1.43,7.3,2.87,11,4.22,2.41.93,4.78,1.86,7.18,2.74q25.08,9.38,49.62,17.11c2.83.88,5.65,1.77,8.44,2.61,3.51,1.06,7,2.11,10.43,3.09,2.62.8,5.28,1.52,7.86,2.23,3.42,1,6.84,2,10.21,2.83,2.87.77,5.75,1.52,8.62,2.24q8.93,2.34,17.73,4.31c5.41,1.31,10.81,2.49,16.13,3.59,3.47.71,6.93,1.39,10.35,2.07,3.63.71,7.22,1.35,10.81,2,3.16.59,6.37,1.1,9.54,1.61,1.31.25,2.62.42,3.93.63,6.12,1,12.2,1.81,18.19,2.53q10.39,1.28,20.53,2.11c3.37.3,6.75.55,10,.76s6.67.38,9.92.55a388.43,388.43,0,0,0,61.73-1.86c14.44-1.64,28.29-3.88,41.64-6.54.5-.13,1-.21,1.47-.3,6.59-1.3,13-2.78,19.3-4.35l.55-.12c3.21-.8,6.37-1.65,9.5-2.49s6.38-1.73,9.5-2.66,6.25-1.86,9.33-2.83,6.08-2,9.12-3,6-2,8.87-3.12,5.87-2.12,8.74-3.26,5.7-2.19,8.49-3.37c5.61-2.24,11.06-4.65,16.42-7.1,2.66-1.22,5.28-2.45,7.9-3.71s5-2.41,7.47-3.68a8.36,8.36,0,0,1,.85-.42c2.32-1.22,4.64-2.41,6.92-3.63,4.65-2.41,9.21-4.94,13.6-7.52.29-.17.59-.33.84-.5,2.37-1.35,4.69-2.75,7-4.14,6.88-4.1,13.43-8.36,19.72-12.71q3.16-2.16,6.21-4.3l6-4.36c3-2.24,5.92-4.43,8.74-6.63,1.4-1.05,2.75-2.11,4.06-3.21,3.93-3.08,7.68-6.2,11.27-9.29,1.82-1.52,3.59-3.07,5.32-4.6l5.07-4.56c1.69-1.52,3.34-3,4.94-4.6-48.73-28.16-98.13-64.18-134.61-109-218.6,213.41-516.54,128.75-526.08,126" transform="translate(-4.85 685)"/><path class="cls-18" d="M21.91,827A754.78,754.78,0,0,0,38.18,992.8c1.47,7,3.07,14,4.8,21.07.81,3.38,1.7,6.8,2.58,10.26,1.78,6.84,3.63,13.69,5.66,20.57.59,2.11,1.22,4.18,1.86,6.29.12.42.25.84.38,1.27a1.72,1.72,0,0,0,.17.46c26.43,86.94,99.86,151.84,189.84,164.46,101,14.15,200.61-15.41,288.19-92.63a273,273,0,0,1-36.36-21C307,975.53,56.63,532.25,24.07,777.67c-.13,1.09-.21,2.19-.26,3.33-.24,3.42-.46,6.92-.71,10.47-.09,1.78-.17,3.55-.25,5.37s-.22,3.58-.26,5.4c-.08,1.27-.13,2.57-.17,3.89-.08,2.36-.17,4.73-.25,7.13s-.13,5.07-.17,7.65c0,2-.09,4.05-.09,6.12" transform="translate(-4.85 685)"/><path class="cls-4" d="M1014.79,1802.31c-115.12,0-262.56-45.41-412.94-128.13-179-98.49-338.58-236-449.24-387.25a783.39,783.39,0,0,1-68.29-111.67A747.93,747.93,0,0,1,21.64,996.32c-32.19-151.42-10.92-278.51,4.61-340.8a100.85,100.85,0,0,1,43.49-60.65c54-34.7,167.62-95.63,321.35-113.72a747.12,747.12,0,0,1,189.47,1.91,783.84,783.84,0,0,1,127.77,28.87c178.73,56.3,360.17,163.29,510.9,301.26,143.41,131.27,240.27,274.34,265.72,392.5,49,227.57-71.39,368.55-88.07,386.73-11.87,21.63-106.8,180.89-338,207.47h0A386.15,386.15,0,0,1,1014.79,1802.31ZM478.42,509.82A713.59,713.59,0,0,0,395,514.7c-147,17.3-255.46,75.46-307,108.6a67.12,67.12,0,0,0-29,40.39c-14.84,59.46-35.13,180.83-4.35,325.6a714.28,714.28,0,0,0,59.85,170.85A748.27,748.27,0,0,0,179.88,1267c107.8,147.34,263.44,281.44,438.25,377.6C782.49,1735,941.73,1779.39,1055,1766.33h0c224.34-25.77,312.16-189.94,313-191.6a16.92,16.92,0,0,1,2.86-4c1.26-1.32,128.57-137.17,81-358-24-111.48-117.14-248-255.51-374.7C1049.25,703.39,872.31,599,698.18,544.15a750.1,750.1,0,0,0-122.24-27.63A711.56,711.56,0,0,0,478.42,509.82Z" transform="translate(-4.85 685)"/><path class="cls-11" d="M654.92,1683c148.77,74.73,294.49,112.48,402,100.1C1293.7,1755.89,1383,1582.5,1383,1582.5s135.59-140.26,85.4-373.23c-22.76-105.84-105.31-231.66-223.8-348.6,3.92,5.56,220,315.38-.17,622.44-220.33,307.3-583.51,201.66-589.53,199.89" transform="translate(-4.85 685)"/><g class="cls-14"><path class="cls-15" d="M1452,1256c19.09,88.58,11.32,163.74-5.66,222.91,26.73-64,46.58-155.73,22-269.61-22.76-105.86-105.31-231.69-223.79-348.61,1.61,2.24,38.22,54.72,66.34,136.85,73.76,89.3,124.1,179.46,141.07,258.46" transform="translate(-4.85 685)"/></g><g class="cls-12"><path class="cls-4" d="M655,1683.05c3.29,1.65,6.55,3.3,9.84,4.86q7.27,3.6,14.57,7.09c3.93,1.86,7.81,3.67,11.74,5.49.17.08.34.17.54.25,3.81,1.78,7.6,3.51,11.41,5.2a10.48,10.48,0,0,0,1.22.55c3.76,1.73,7.52,3.37,11.28,5,9.16,4,18.32,7.85,27.4,11.57,3.89,1.61,7.81,3.17,11.69,4.69,3.68,1.43,7.31,2.87,11,4.22,2.4.93,4.77,1.86,7.17,2.74q25.08,9.38,49.61,17.11c2.83.88,5.67,1.77,8.45,2.61,3.5,1.06,7,2.11,10.43,3.09,2.62.8,5.28,1.52,7.85,2.23,3.43,1,6.84,2,10.22,2.83q4.32,1.15,8.61,2.24,8.94,2.34,17.74,4.31c5.41,1.31,10.81,2.49,16.13,3.59,3.47.71,6.92,1.39,10.35,2.07,3.63.71,7.22,1.35,10.8,2,3.17.59,6.38,1.1,9.55,1.61,1.31.25,2.61.42,3.93.63,6.12.93,12.2,1.77,18.19,2.53q10.39,1.28,20.53,2.11c3.38.3,6.75.55,10,.76s6.67.38,9.92.55a392.75,392.75,0,0,0,61.73-1.9c14.4-1.64,28.29-3.84,41.64-6.5.5-.13,1-.21,1.47-.3,6.55-1.35,13-2.78,19.3-4.35l.55-.12c3.21-.8,6.37-1.65,9.5-2.49s6.37-1.73,9.5-2.66,6.25-1.86,9.33-2.83,6.08-2,9.12-3,6-2,8.87-3.12,5.87-2.12,8.74-3.26,5.7-2.19,8.48-3.37c5.62-2.28,11.07-4.65,16.43-7.1,2.66-1.22,5.28-2.45,7.9-3.71s5-2.45,7.47-3.68c.3-.17.55-.29.84-.42,2.33-1.22,4.65-2.41,6.93-3.63,4.65-2.45,9.16-5,13.6-7.52.3-.17.59-.33.84-.5,2.37-1.35,4.69-2.75,7-4.14,6.88-4.14,13.43-8.4,19.72-12.71q3.16-2.16,6.2-4.3l6.05-4.36c3-2.24,5.91-4.43,8.73-6.63,1.4-1.05,2.75-2.11,4.06-3.21,3.93-3.08,7.68-6.2,11.27-9.29,1.82-1.52,3.59-3.07,5.32-4.6s3.42-3,5.07-4.56,3.33-3,4.94-4.6c-48.73-28.16-98.13-64.18-134.62-109-218.59,213.41-516.53,128.75-526.07,126Z" transform="translate(-4.85 685)"/></g><path class="cls-4" d="M1014.12,1802.34c-103.17,0-231.32-36.2-366.78-104.25a16.89,16.89,0,0,1,12.34-31.29c14.59,4.28,359.62,101.35,571-193.53,88.54-123.45,115.93-261.61,81.41-410.63-26.2-113.1-79.08-189.07-81.32-192.24a16.89,16.89,0,0,1,25.68-21.75c124.14,122.52,205.27,249.33,228.44,357.07,49,227.54-71.37,368.5-88.06,386.7-11.89,21.65-106.76,180.89-338,207.46A391.09,391.09,0,0,1,1014.12,1802.34Zm-236.83-84c105.29,39.42,202.73,56.68,277.71,48,224.37-25.78,312.16-189.93,313-191.59a16.92,16.92,0,0,1,2.86-4c1.27-1.32,128.59-137.16,81-357.94-15.88-73.82-63.63-160.77-135-248A646.75,646.75,0,0,1,1345,1055c36.29,156.66,6.25,308.1-86.87,437.93C1112.79,1695.73,908.25,1724.58,777.29,1718.29Z" transform="translate(-4.85 685)"/><path class="cls-19" d="M767.92,1469.1l34.45,24.7,3.75-5.24c85.76,28.8,200.18-19.92,274.19-123.12s83.45-227.24,28.67-299.23l3.75-5.24-34.44-24.7C991.45,974,851.55,1020.41,765.84,1140s-84.76,266.88,2.08,329.15" transform="translate(-4.85 685)"/><path class="cls-4" d="M858.71,1509.58a179.42,179.42,0,0,1-47.89-6.34,12.64,12.64,0,0,1-15.83.86l-34.45-24.7h0c-92.39-66.25-94.62-221.84-5-346.83,43-60,100.57-104.24,162.1-124.66,63-20.88,122.64-14.48,168,18.07l34.44,24.7a12.67,12.67,0,0,1,4.27,15.27c53.59,79,40.31,203.56-33.78,306.87C1029,1458.77,939.88,1509.57,858.71,1509.58Zm-52.59-33.68a12.57,12.57,0,0,1,4,.66c81.66,27.42,191-22.42,259.85-118.5s81.06-215.61,28.89-284.18a12.63,12.63,0,0,1-2.52-9l-25.47-18.27c-38.63-27.69-90.21-32.89-145.28-14.61-56.5,18.74-109.59,59.71-149.5,115.37-81.48,113.64-81.86,253.37-.83,311.48l25.48,18.27A12.76,12.76,0,0,1,806.12,1475.9Z" transform="translate(-4.85 685)"/><path class="cls-17" d="M815.19,1492.08c86.84,62.27,226.71,15.86,312.42-103.65s84.78-266.9-2.06-329.17-226.72-15.86-312.42,103.66-84.78,266.89,2.06,329.16" transform="translate(-4.85 685)"/><path class="cls-19" d="M803.59,1492.07c86.86,62.28,226.7,15.88,312.42-103.67,33-46,53.16-96.18,60.51-144,10-65.41-3.84-126.5-41.63-166.75a140.8,140.8,0,0,0-21-18.4c-86.85-62.29-226.7-15.89-312.42,103.66s-84.79,266.9,2.07,329.14" transform="translate(-4.85 685)"/><g class="cls-16"><path class="cls-4" d="M1136.1,1225.21c12.46,23.48,33,24.91,52,19.21,10.05-65.41-3.84-126.5-41.63-166.75-15.75,43-32,106.66-10.39,147.54" transform="translate(-4.85 685)"/></g><path class="cls-4" d="M892,1533.91c-35.36,0-68.78-9.59-97-29.82h0c-92.38-66.25-94.61-221.84-5-346.84s237.71-172.82,330.09-106.57c45.39,32.54,70.61,87,71,153.32.4,64.83-23.06,133.55-66.06,193.51C1062.81,1484.33,972.37,1533.91,892,1533.91Zm-82.24-50.41c81,58.09,213.25,12.9,294.75-100.75,39.9-55.65,61.67-119.07,61.3-178.59-.37-58-21.83-105.2-60.45-132.9-81-58.1-213.25-12.9-294.74,100.75s-81.88,253.38-.86,311.49Z" transform="translate(-4.85 685)"/><path class="cls-4" d="M837.54,1430.32a106.14,106.14,0,0,0,11.05,9.11c16.75,12,36.23,18.46,57,19.83a143.89,143.89,0,0,0,45.67-4.53c37.89-9.7,76.5-33.72,108.12-69.48a271.17,271.17,0,0,0,17.08-21.41c62.5-87.19,61.83-194.65-1.5-240.07a101.54,101.54,0,0,0-15.58-9.19c-31.66-15.26-70.27-14.2-108.12.71a212.11,212.11,0,0,0-45.67,25.12,255.35,255.35,0,0,0-58.47,58.95c-3.36,4.69-6.55,9.47-9.55,14.24-49.25,78.82-49.13,170,0,216.72" transform="translate(-4.85 685)"/><g class="cls-26"><g class="cls-27"><path class="cls-15" d="M951.23,1115.29v339.44c37.9-9.7,76.5-33.72,108.12-69.48V1114.58c-31.66-15.26-70.27-14.19-108.12.71" transform="translate(-4.85 685)"/></g></g><g class="cls-26"><g class="cls-28"><path class="cls-15" d="M837.54,1213.6v216.72a107.42,107.42,0,0,0,11.05,9.11c16.75,12,36.23,18.45,57,19.84V1140.41a255.35,255.35,0,0,0-58.47,58.95c-3.36,4.69-6.55,9.47-9.55,14.24" transform="translate(-4.85 685)"/></g></g><path class="cls-4" d="M913.88,1472.08c-26.48,0-51.51-7.2-72.67-22.37-68.91-49.4-70.89-165-4.42-257.71s176.61-127.92,245.51-78.51,70.88,165,4.42,257.71C1040.66,1435.44,973.63,1472.08,913.88,1472.08Zm95.22-355.88c-51.45,0-110.54,33.13-151.72,90.56-58.32,81.35-59,181.09-1.41,222.37s151.83,8.65,210.16-72.69,59-181.09,1.41-222.36C1050.62,1122,1030.52,1116.2,1009.1,1116.2Z" transform="translate(-4.85 685)"/><path class="cls-29" d="M848.61,1439.42c63.32,45.41,165.31,11.54,227.79-75.59s61.86-194.63-1.47-240a101.18,101.18,0,0,0-14-8.42c50.64,50,47.1,148.51-11,229.5s-150.26,115.94-213.82,84a100.85,100.85,0,0,0,12.45,10.53" transform="translate(-4.85 685)"/><path class="cls-4" d="M914.11,1472.33c-27,0-52-7.61-72.88-22.61h0a114.16,114.16,0,0,1-14-11.86,12.66,12.66,0,0,1,14.62-20.29c58.84,29.56,143.9-4.86,197.84-80.07s59.27-166.84,12.39-213.1A12.67,12.67,0,0,1,1066.6,1104a113.65,113.65,0,0,1,15.72,9.47c34,24.38,52.89,65.07,53.2,114.57.29,48-17,98.82-48.83,143.13s-74.34,77-119.88,92.14A167.52,167.52,0,0,1,914.11,1472.33ZM1109,1209.8c.11,46.14-16.28,97.18-48.75,142.46s-75.54,77.16-119.27,91.86a160.91,160.91,0,0,0,17.83-4.81c40.51-13.45,78.6-42.87,107.28-82.86s44.33-85.54,44.07-128.22A159.64,159.64,0,0,0,1109,1209.8Z" transform="translate(-4.85 685)"/><path class="cls-11" d="M53.45,1052.27c26.35,87.13,99.87,152.27,190,164.91,134.66,18.89,266.7-39.9,371.21-185.64,89.58-124.94,107.52-264,73.15-374.93C656.62,555.87,561.16,490,455.75,493.26c-21.56.67-42.47,2.29-62.68,4.66-152.58,18-265.18,79.68-314.2,111.17a84.22,84.22,0,0,0-36.23,50.52C28.54,716.12,6.22,842.53,38.16,992.8c4.14,19.45,9.19,39.31,15.29,59.47" transform="translate(-4.85 685)"/><g class="cls-30"><path class="cls-15" d="M577.25,608.37c-4-31.3-49-58.86-118.72-63.09-89.92-5.47-277.06,56-264.64,85.26,19.44,45.89,387.34,9.12,383.36-22.17" transform="translate(-4.85 685)"/></g><g class="cls-12"><path class="cls-4" d="M21.91,827A754.78,754.78,0,0,0,38.18,992.8c1.47,7,3.07,14,4.8,21.07.81,3.38,1.7,6.8,2.58,10.26,1.78,6.84,3.63,13.69,5.66,20.57.59,2.11,1.22,4.18,1.86,6.29.12.42.25.84.38,1.27a1.72,1.72,0,0,0,.17.46c26.43,86.94,99.86,151.84,189.84,164.46,101,14.15,200.61-15.41,288.19-92.63a273,273,0,0,1-36.36-21C307,975.53,56.63,532.25,24.07,777.67c-.13,1.09-.21,2.19-.26,3.33-.24,3.46-.5,6.92-.71,10.47-.09,1.78-.17,3.55-.25,5.37s-.22,3.58-.26,5.4c-.08,1.27-.13,2.57-.17,3.89-.08,2.36-.17,4.73-.25,7.13s-.13,5.07-.17,7.65c0,2-.09,4.05-.09,6.12" transform="translate(-4.85 685)"/></g><path class="cls-4" d="M291.65,1237.47a363.6,363.6,0,0,1-50.53-3.56c-95.39-13.38-175.41-82.77-203.84-176.75h0c-6-19.89-11.28-40.36-15.64-60.84C-10.55,844.9,10.72,717.8,26.25,655.52a100.85,100.85,0,0,1,43.49-60.64c54-34.71,167.62-95.64,321.36-113.73,21.27-2.5,42.84-4.11,64.12-4.77C568.74,472.91,670.9,544.89,704,651.61c38.54,124.34,10.29,270-75.56,389.77C536.75,1169.2,418.65,1237.46,291.65,1237.47ZM463.24,510q-3.48,0-7,.11c-20.31.64-40.91,2.17-61.22,4.56-147,17.3-255.47,75.46-307,108.6a67.12,67.12,0,0,0-29,40.4C44.19,723.15,23.9,844.51,54.68,989.29c4.16,19.55,9.19,39.1,14.93,58.09h0c24.63,81.43,93.8,141.52,176.2,153.07,134.87,18.92,257.71-42.88,355.14-178.75,79.72-111.18,106.17-245.79,70.75-360.09C643.79,571.54,558.68,510,463.24,510Z" transform="translate(-4.85 685)"/><path class="cls-4" d="M654.92,1695.67a12.9,12.9,0,0,1-4.29-.74,12.67,12.67,0,0,1,1.47-24.32,12.83,12.83,0,0,1,11.24,2.93,12.66,12.66,0,0,1-8.42,22.13Z" transform="translate(-4.85 685)"/><path class="cls-11" d="M1361.75,1699.11c19.65,11.07,424.88,217.87,448,189.42,19.54-31.11-306.34-348.55-323.13-363.62s-188.05-134.84-188.05-134.84l0,0a566.52,566.52,0,0,1-124.87,174.13l0,0s168.36,123.75,188,134.84" transform="translate(-4.85 685)"/><g class="cls-14"><path class="cls-15" d="M1287.39,1413.15c36.23,25.42,164.09,115.23,178.53,128.15,14.74,13.22,286.58,266.36,340,349.37a6.78,6.78,0,0,0,3.88-2.15c19.55-31.08-306.34-348.53-323.15-363.6s-188-134.87-188-134.87l-.05,0q-5.25,11.52-11.19,23.05" transform="translate(-4.85 685)"/></g><g class="cls-12"><path class="cls-4" d="M1173.68,1564.27s168.4,123.76,188.07,134.83S1786.62,1917,1809.8,1888.52a6.37,6.37,0,0,0,.85-3.38c-91.72-27.36-400.76-216.11-418-225.82-17.77-10-157.07-112.11-183.63-131.57-11.53,13.09-23.31,25.21-35.3,36.48Z" transform="translate(-4.85 685)"/></g><path class="cls-4" d="M1801,1903.87c-13.34,0-35.1-5.43-72.71-19.51-37.36-14-87.56-35.6-149.21-64.23-107.06-49.71-213-104.05-223.59-110h0c-20.12-11.34-182.44-130.6-189.33-135.68a12.67,12.67,0,0,1-1.46-19.16,554.13,554.13,0,0,0,122.32-170.45,12.11,12.11,0,0,1,1.39-2.35,12.69,12.69,0,0,1,17.42-2.82c7,4.91,172.05,120.37,189.25,135.79,9,8.08,94.45,91,175.9,176.48,46.89,49.21,83.46,89.83,108.7,120.74,43.8,53.64,48.13,70.9,40.8,82.57a15.42,15.42,0,0,1-.91,1.26C1816,1901,1810.71,1903.87,1801,1903.87ZM1368,1688.08c9.52,5.35,108.12,55.92,210.69,103.88,149.47,69.9,200,84,216.79,86.28-7.54-15.12-37.09-58.51-151.25-177.67-78.37-81.8-157.89-159-166-166.23-12.3-11-120.63-87.47-174.56-125.28a582.66,582.66,0,0,1-110.34,153.88c53.12,39,160.27,117,174.67,125.14Z" transform="translate(-4.85 685)"/><path class="cls-15" d="M1109.93,687.92S967,893.69,1172,1049c0,0-29.22,142.42,50.32,167,89.53,27.72,170.54-57.86,172.54-168.13,1.59-87.44-58.92-184.15-58.92-184.15s168.49-82.94,161.47-323.46l-29.65,11.29L1255.34,657.89Z" transform="translate(-4.85 685)"/><path class="cls-15" d="M1125,1006.36a339.37,339.37,0,0,0,47,42.64,306.11,306.11,0,0,0-4.77,40c-1.52,27.65,0,64.26,14.27,91.71,8.45,16.3,21.37,29.34,40.83,35.39,89.52,27.73,170.51-57.85,172.53-168.1,1.61-87.49-58.9-184.19-58.9-184.19s168.48-82.93,161.43-323.44l-29.65,11.27L1255.35,657.87l-145.43,30a243.45,243.45,0,0,0-14.23,24.49c-26.81,52.4-73.76,180,29.31,294" transform="translate(-4.85 685)"/><g class="cls-16"><path class="cls-4" d="M1327,723.91c36.65,48.18-64.92,99.64-47.47,177.56,6.45,28.84,60.39,163.66-154.49,104.89a339.37,339.37,0,0,0,47,42.64,306.11,306.11,0,0,0-4.77,40c38.17-9.67,124.23-26.18,144,14.65,26,53.63-53.92,101.21-129.76,77.06,8.45,16.3,21.37,29.35,40.83,35.38,89.52,27.75,170.51-57.84,172.54-168.09,1.6-87.49-58.91-184.19-58.91-184.19s168.48-82.93,161.43-323.44l-29.64,11.27L1255.35,657.87l-145.43,30a243.45,243.45,0,0,0-14.23,24.49l0,.08s171.51-67,231.22,11.44" transform="translate(-4.85 685)"/></g><path class="cls-4" d="M1103,683.1a193.62,193.62,0,0,0-15.84,21.6c-4.82,7.41-9.11,15.13-13.2,23s-7.67,16-11,24.23-6.15,16.73-8.67,25.32c-9.91,34.34-13.33,71.37-7.78,107.65a233.68,233.68,0,0,0,14.57,52.88,255.24,255.24,0,0,0,26,48,291,291,0,0,0,34.49,41.53,370,370,0,0,0,40.16,35.17l-6.35-16.86c-1.5,7.8-2.45,14.67-3.32,22s-1.44,14.47-1.82,21.75a280.76,280.76,0,0,0,1,44.18c1.62,14.86,4.61,30,10.59,44.85s15.37,29.58,29.37,40.33a81.42,81.42,0,0,0,22.89,12.39l3.06,1,2.86.79,5.7,1.55c3.86.88,7.76,1.64,11.67,2.28a127.15,127.15,0,0,0,47.6-1.92,133.81,133.81,0,0,0,43.3-18.79,158.15,158.15,0,0,0,34.51-30.75c19.88-23.35,33.18-51.14,40.93-80a235.92,235.92,0,0,0,7.37-44.06c.51-7.41.72-14.85.57-22.42s-.75-14.95-1.71-22.28c-3.58-29.42-11.78-57.39-22-84.21C1382.77,919,1377,905.83,1370.8,893q-4.68-9.66-9.75-19.12c-3.44-6.4-6.79-12.42-10.84-19l-6.86,24.11c2.53-1.29,4.23-2.24,6.19-3.38s3.73-2.21,5.56-3.33c3.63-2.26,7.16-4.61,10.63-7,6.93-4.81,13.57-9.93,20-15.22a340.2,340.2,0,0,0,36-34.72,349.7,349.7,0,0,0,55-82.93A379.76,379.76,0,0,0,1507,638a467.92,467.92,0,0,0,7.28-98.15,16.89,16.89,0,0,0-33.77,1v0a434.12,434.12,0,0,1-6.72,91,345.89,345.89,0,0,1-27.54,86.05,316,316,0,0,1-49.63,74.92A307,307,0,0,1,1364.26,824c-5.79,4.72-11.7,9.28-17.78,13.5-3,2.09-6.11,4.14-9.2,6.06l-4.62,2.77c-1.47.87-3.23,1.82-4.23,2.33l-.2.11a17,17,0,0,0-7.24,23c.18.34.39.7.59,1,3.18,5.2,6.59,11.27,9.7,17.07s6.2,11.87,9.12,17.89c5.84,12.06,11.21,24.34,16,36.79,9.51,24.87,16.92,50.52,20,76.15.84,6.4,1.21,12.77,1.47,19.12s-.06,12.7-.5,19.1a202,202,0,0,1-6.3,37.77c-6.59,24.56-17.91,47.93-34,66.81a124.05,124.05,0,0,1-27.26,24.36,100.33,100.33,0,0,1-32.49,14.15,93.22,93.22,0,0,1-34.92,1.41c-2.92-.49-5.82-1-8.72-1.71l-4.31-1.17-2.15-.58-1.86-.64a47.22,47.22,0,0,1-13.49-7.28c-8.08-6.19-14.32-15.38-18.69-26.25s-7-23.15-8.32-35.78a246.9,246.9,0,0,1-.83-38.82c.34-6.55.9-13.11,1.65-19.64s1.73-13.28,2.85-19.08l0-.18a17,17,0,0,0-6.38-16.68c-25.86-19.64-49.15-42.49-66.64-68.95a216,216,0,0,1-33.85-87.07c-4.76-31-3-63,3.65-94.52,1.6-7.89,3.48-15.76,5.71-23.56s4.58-15.61,7.28-23.32a419.39,419.39,0,0,1,18.56-45.39l.23-.48a8.47,8.47,0,0,0-14.1-9.15" transform="translate(-4.85 685)"/><path class="cls-15" d="M448.66-149.1s-72.39,74.8-73.77,95.35C372.32-15.62,459,160.59,527.15,185.1c26.7,9.59,168.23-36.24,168.23-36.24Z" transform="translate(-4.85 685)"/><g class="cls-16"><path class="cls-4" d="M695.38,148.87s-141.53,45.82-168.22,36.22-56.08-42.26-81.89-80.84c2.1.63,68.41,19.18,123.61-107.82a2.14,2.14,0,0,0,.1-.22Z" transform="translate(-4.85 685)"/></g><path class="cls-15" d="M1281.73-126.75S1407.32-206.49,1417-233.17s3.24-70.14-10-114.63v0c-20.63-69.46-57.87-141.33-76.77-155-16.71-12.06-120.5-4.06-120.5-4.06l35.12,185.37Z" transform="translate(-4.85 685)"/><g class="cls-16"><path class="cls-4" d="M1281.73-126.75S1407.32-206.49,1417-233.17s3.24-70.14-10-114.63c-.86,2-28.89,64.91-161.9,26.39l-.24-.07Z" transform="translate(-4.85 685)"/></g><path class="cls-4" d="M537.1,203c-6.4,0-11.74-.63-15.66-2C445.17,173.59,355.11-11.58,358-54.88c1.57-23.26,49.85-76.37,78.49-106l13.12-13.55L724.27,157.26l-23.68,7.67C662.37,177.31,578,203,537.1,203ZM391.72-52.17c-1.25,31.61,80.89,199.72,141.14,221.37,12.57,3.53,74.84-11.17,133.48-28.94L447.82-123.63C420.73-94.36,394.39-62,391.72-52.17Z" transform="translate(-4.85 685)"/><path class="cls-4" d="M1269.75-99.15l-80.14-423.08,18.8-1.45c41.06-3.17,112.77-6.45,131.68,7.18,35.2,25.38,120.32,212.87,92.75,289.08-10.48,29-102.85,90-142.08,114.93Zm-39.89-392.09,63.77,336.64c51.1-33.81,102.18-72.4,107.5-84.43,21.72-60.08-55.31-230.6-80.44-249.8C1311.37-493.08,1269.69-493.42,1229.86-491.24Z" transform="translate(-4.85 685)"/><polygon class="cls-17" points="912.81 541.87 913.52 543.38 914.14 542.19 912.81 541.87"/><polygon class="cls-17" points="914.14 542.19 915.46 542.48 914.74 540.96 914.14 542.19"/><path class="cls-15" d="M473.18-24.67c106,225.55,374.8,322.44,600.35,216.42S1396-183,1290-408.6,915.15-731,689.6-625,367.16-250.22,473.18-24.67" transform="translate(-4.85 685)"/><path class="cls-18" d="M473.16-24.67c106,225.54,374.81,322.44,600.35,216.42S1396-183.06,1290-408.61a450.82,450.82,0,0,0-38.8-67C1308.4-267.82,1209.57-42.79,1007.84,52s-438,27.32-561.53-149.37a451,451,0,0,0,26.85,72.66" transform="translate(-4.85 685)"/><path class="cls-4" d="M881.86,251.76a468.47,468.47,0,0,1-159.06-28C605.17,181.36,511.09,95.67,457.89-17.49h0c-109.8-233.62-9.08-513,224.52-622.82s513-9.09,622.83,224.52,9.08,513-224.53,622.82A466.84,466.84,0,0,1,881.86,251.76Zm-1-902.73a431.83,431.83,0,0,0-184.11,41.24C480-507.84,386.58-248.61,488.47-31.85h0C537.82,73.15,625.11,152.64,734.26,192s227.08,33.84,332.08-15.52c216.76-101.89,310.22-361.13,208.33-577.88C1200.77-558.62,1044.1-651,880.89-651Z" transform="translate(-4.85 685)"/><path class="cls-4" d="M881.86,251.76a468.47,468.47,0,0,1-159.06-28C605.17,181.36,511.09,95.67,457.89-17.49h0c-109.8-233.62-9.08-513,224.52-622.82s513-9.09,622.83,224.52,9.08,513-224.53,622.82A466.84,466.84,0,0,1,881.86,251.76Zm-1-902.73a431.83,431.83,0,0,0-184.11,41.24C480-507.84,386.58-248.61,488.47-31.85h0C537.82,73.15,625.11,152.64,734.26,192s227.08,33.84,332.08-15.52c216.76-101.89,310.22-361.13,208.33-577.88C1200.77-558.62,1044.1-651,880.89-651Z" transform="translate(-4.85 685)"/><path class="cls-4" d="M881.86,251.76a468.47,468.47,0,0,1-159.06-28C605.17,181.36,511.09,95.67,457.89-17.49h0c-109.8-233.62-9.08-513,224.52-622.82s513-9.09,622.83,224.52,9.08,513-224.53,622.82A466.84,466.84,0,0,1,881.86,251.76Zm-1-902.73a431.83,431.83,0,0,0-184.11,41.24C480-507.84,386.58-248.61,488.47-31.85h0C537.82,73.15,625.11,152.64,734.26,192s227.08,33.84,332.08-15.52c216.76-101.89,310.22-361.13,208.33-577.88C1200.77-558.62,1044.1-651,880.89-651Z" transform="translate(-4.85 685)"/><path class="cls-4" d="M881.51,251.59A467.45,467.45,0,0,1,522,83.25c-.25-.27-.5-.55-.73-.84a469.81,469.81,0,0,1-63.32-99.9A471.42,471.42,0,0,1,438.3-66c-77-225.75,27.92-472.63,244.13-574.26s473.17-24.92,597.85,178.36a462.09,462.09,0,0,1,25,46.16,468.32,468.32,0,0,1,36.49,112.53c.06.35.11.7.16,1C1381-93,1273.69,116.32,1080.72,207A467.8,467.8,0,0,1,881.51,251.59ZM547.4,61c126.31,152.23,339.68,199.71,518.95,115.45s278.91-279,242.16-473.39h0c-.06-.34-.12-.68-.16-1a434.72,434.72,0,0,0-33.68-103.45,428.91,428.91,0,0,0-23.15-42.82C1135.81-632.87,897.34-704,696.79-609.73s-298,323.35-226.52,532.8a439.07,439.07,0,0,0,18.21,45.07h0a436.26,436.26,0,0,0,58.1,91.93A12.26,12.26,0,0,1,547.4,61Z" transform="translate(-4.85 685)"/><path class="cls-4" d="M437.05-127a11.43,11.43,0,0,1-11.25-9.44c-36.26-205,70.22-410.21,258.94-498.91s414.42-39.81,549.18,118.77a11.43,11.43,0,0,1-.71,15.57,11.42,11.42,0,0,1-15.58.4c-134.74-119.12-331.09-144.72-500.22-65.22s-274.8,247.17-268.92,427a11.43,11.43,0,0,1-10.25,11.75A11.85,11.85,0,0,1,437.05-127ZM881.19-656.36a438.27,438.27,0,0,0-186.72,41.68C565.32-554,476.69-435.91,450-301.82,491.53-424,583.18-528,707.68-586.56s263-62.66,383.49-16.76A442.28,442.28,0,0,0,881.19-656.36Z" transform="translate(-4.85 685)"/><path class="cls-4" d="M473.21-24.67a452,452,0,0,0,61,96.31s0,0,0,0c135.18,103.58,341,150.62,515.13,68.77s269.19-270.32,275.69-440.49a0,0,0,0,1,0-.06A451,451,0,0,0,1290-408.59a444.06,444.06,0,0,0-24.07-44.51c-126.75-126.55-339.43-161.24-529.3-72S437.69-249.83,454.3-71.48a452.3,452.3,0,0,0,18.91,46.81" transform="translate(-4.85 685)"/><g class="cls-31"><path class="cls-32" d="M473.2-24.65a452.64,452.64,0,0,0,61,96.31s0,0,.06,0c135.17,103.57,341,150.61,515.11,68.76s269.2-270.31,275.7-440.49c0,0,0-.05,0-.05a450.67,450.67,0,0,0-17.44-65.13c-43.21,145.91-141.17,283.33-289.39,353C829.47,76.53,607.92,32.38,454.11-73.79c.06.8.09,1.56.18,2.33A452.3,452.3,0,0,0,473.2-24.65" transform="translate(-4.85 685)"/></g><g class="cls-30"><path class="cls-15" d="M1138.56-317.11c4.11,43.72,33.12,76.74,64.79,73.76s54-40.83,49.91-84.54-33.12-76.74-64.79-73.76-54,40.83-49.91,84.54" transform="translate(-4.85 685)"/></g><g class="cls-30"><path class="cls-15" d="M1139.13-153.23c-.9,20.13,12.38,37.08,29.65,37.86s32-14.92,32.92-35.06-12.37-37.07-29.65-37.85-32,14.92-32.92,35.05" transform="translate(-4.85 685)"/></g><g class="cls-30"><path class="cls-15" d="M639.87,31.74S493-170.83,584.79-301.88,852.21-491.35,851.87-478.72c0,0-178.55,112.11-203.14,291.18-19,138.08-8.86,219.28-8.86,219.28" transform="translate(-4.85 685)"/></g><path class="cls-15" d="M1193.69,538.51C1199.22,575.59,1246,588,1246,588s184,18.58,247.18-60.51c54.35-75-20.18-128.7-20.18-128.7s-9.42,10.51-29.18,23.52c-34.33,22.51-99.9,52.4-201.83,47.46,0,0-46.11,15.2-48.77,58.19a51,51,0,0,0,.46,10.59" transform="translate(-4.85 685)"/><g class="cls-16"><path class="cls-4" d="M1193.69,538.51C1199.22,575.59,1246,588,1246,588s184,18.58,247.18-60.51c54.35-75-20.18-128.7-20.18-128.7s-9.42,10.51-29.18,23.52c2.75,39.9-6.37,90.23-61.39,114-60.55,26.14-143,17.06-188.75,2.28" transform="translate(-4.85 685)"/></g><path class="cls-4" d="M1292.58,606.82c-27,0-45.88-1.81-48.28-2.05a18,18,0,0,1-2.62-.47c-23.86-6.31-68.21-30.62-65.29-77.45,3.32-53.76,58-72.39,60.33-73.15a16.84,16.84,0,0,1,6.1-.83c149.81,7.24,217-64.71,217.63-65.44a17,17,0,0,1,22.42-2.39c1.58,1.14,38.73,28.38,45.87,72.77,4.32,26.82-3,53.59-21.85,79.56-.16.22-.32.43-.49.64C1459,597.35,1354.42,606.82,1292.58,606.82Zm-43.43-35.53c17,1.45,176.43,13.05,230.62-54.07,32.39-45,9.09-79.82-6.44-95.74-27.17,22.75-100.06,70.58-228.59,65.29-8.18,3.43-33,16-34.64,42.17C1208.35,557.16,1242.35,569.18,1249.15,571.29Z" transform="translate(-4.85 685)"/><path class="cls-4" d="M1183.13,963.68c-107.48,0-133.11-95.81-133.36-96.79a12.67,12.67,0,1,1,24.55-6.25c.84,3.22,22,79.83,112.28,77.67,52.46-1.15,79.82-31,101.8-54.92,15.25-16.6,28.41-30.95,46.58-32.26a12.67,12.67,0,0,1,1.82,25.27c-8.13.59-18.14,11.5-29.73,24.12-23.91,26.05-56.65,61.73-119.91,63.12C1185.8,963.66,1184.46,963.68,1183.13,963.68Z" transform="translate(-4.85 685)"/><path class="cls-4" d="M1323.17,1026.61c-11.88,7.81-26.22,13.16-40.58,16.65a169.23,169.23,0,0,1-43.93,4.81c-14.63-.43-29.18-2.54-42.79-7.29a149.62,149.62,0,0,1-38-19.59l-.3-.21a12.68,12.68,0,1,0-14.6,20.74l.69.45a173.73,173.73,0,0,0,46,19.89c16.14,4.39,32.87,5.66,49.24,5a187.11,187.11,0,0,0,48-8.57c15.47-5,30.35-11.51,43.85-21.75a6.33,6.33,0,0,0-7.28-10.35Z" transform="translate(-4.85 685)"/><path class="cls-4" d="M1471.43,1566.46c-10,5.06-18.36,11.47-26.25,18.29a208.62,208.62,0,0,0-21.66,22.15,204.78,204.78,0,0,0-18.2,25.07c-5.4,8.92-10.3,18.26-13.58,29,10-5,18.39-11.44,26.27-18.27a205.67,205.67,0,0,0,21.64-22.16,209,209,0,0,0,18.18-25.1c5.39-8.92,10.3-18.26,13.6-29" transform="translate(-4.85 685)"/></svg>