<svg id="Layer_2" data-name="Layer 2" xmlns="http://www.w3.org/2000/svg" viewBox="0 0 934.46 1198.96"><defs><style>.cls-1{fill:#ffb200;}.cls-2{fill:#d66b09;}.cls-3{fill:#371a45;}.cls-4{fill:#ffc536;}.cls-5{fill:#ff9100;}.cls-6{fill:#ffec90;}.cls-7{opacity:0.41;}.cls-8{fill:#fff;}.cls-9{opacity:0.3;}.cls-10{fill:#6b184e;}.cls-11{opacity:0.35;}.cls-12{fill:#22a7f0;}.cls-13{opacity:0.7;}.cls-14{opacity:0.5;}.cls-15{fill:#111a28;}</style></defs><path class="cls-1" d="M1239.74,1171.46a312.86,312.86,0,0,1,11.1,37.17c-53.43,37.12-157.26,87-280.24,132.12s-234.4,74.34-299.16,80.62a312.83,312.83,0,0,1-15.59-35.52c-.21-.58-.42-1.15-.62-1.73q-3-8.16-5.4-16.35a310,310,0,0,1-9-38.55c-.09-.52-.18-1-.25-1.56a311,311,0,0,1,571.45-213.08c.83,1.33,1.64,2.66,2.45,4a310,310,0,0,1,18.11,35.18q3,6.81,5.66,13.83C1238.78,1168.89,1239.26,1170.17,1239.74,1171.46Z" transform="translate(-495.73 -398)"/><path class="cls-1" d="M1254.68,1329.33a311.07,311.07,0,0,1-431.13,234.43,313.52,313.52,0,0,1-76.95-47.88c77.48-13.58,167.66-38,261.66-72.54S1186.83,1369.11,1254.68,1329.33Z" transform="translate(-495.73 -398)"/><path class="cls-2" d="M1008.26,1443.34c94-34.51,178.57-74.23,246.42-114a307.94,307.94,0,0,1-8.53,37.11c-52.35,32.49-135.05,71.29-230.61,106.37-91.53,33.61-176.27,57-236.8,66.89a310.76,310.76,0,0,1-32.14-23.82C824.08,1502.3,914.26,1477.85,1008.26,1443.34Z" transform="translate(-495.73 -398)"/><path class="cls-2" d="M1238.29,1167.61c.49,1.28,1,2.56,1.45,3.85a312.86,312.86,0,0,1,11.1,37.17c-53.43,37.12-157.26,87-280.24,132.12s-234.4,74.34-299.16,80.62a312.83,312.83,0,0,1-15.59-35.52c-.21-.58-.42-1.15-.62-1.73C716.36,1381.84,829.65,1354,955,1308,1085.33,1260.12,1193,1205.73,1238.29,1167.61Z" transform="translate(-495.73 -398)"/><path class="cls-2" d="M635.51,1280.81l2.61-20.81c42.11,5.28,155.25-21.78,275.12-65.79,143-52.51,236.82-106,255.56-131.75l17,12.34c-24.8,34-131.41,89.93-265.28,139.09C795.83,1259.65,681.31,1286.55,635.51,1280.81Z" transform="translate(-495.73 -398)"/><path class="cls-2" d="M658.7,1176.43l-1.56-20.91c48.05-3.59,132.56-25.89,220.53-58.19,92.19-33.84,172.64-72.72,210-101.46l12.79,16.61c-38.89,30-121.47,70-215.52,104.53C795.23,1149.94,708.55,1172.7,658.7,1176.43Z" transform="translate(-495.73 -398)"/><path class="cls-2" d="M639.8,1338.11l1.63-20.91c48.5,3.78,165.43-24.66,291-70.76,131.7-48.36,243.41-105.37,271.65-138.65l16,13.57c-30.83,36.32-143.52,94.5-280.41,144.76C809.52,1313.9,691.82,1342.16,639.8,1338.11Z" transform="translate(-495.73 -398)"/><path class="cls-2" d="M823.54,1569v-5.22l-2.1-4.82,1-.44h1.11c42.17,0,124-20,208.57-51,85-31.21,158.29-67.78,191.28-95.45l6.74,8c-33.86,28.39-108.35,65.65-194.41,97.25C948.83,1549.25,867.52,1569.05,823.54,1569Z" transform="translate(-495.73 -398)"/><path class="cls-3" d="M948.06,1597a319.26,319.26,0,0,1-206.23-75.45l-12-10.18,15.53-2.73c79.82-14,169.86-39,260.39-72.19S1181,1363.94,1251,1323l13.6-8-2.58,15.56A318.2,318.2,0,0,1,948.06,1597Zm-184.23-76.72a303.7,303.7,0,0,0,480.54-176.44c-67.83,38.47-148.2,75.12-233.56,106.47S840.44,1505.68,763.83,1520.24Z" transform="translate(-495.73 -398)"/><path class="cls-4" d="M1420.56,1152c15.71,42.76-51.27,110.13-165.88,177.32-67.85,39.78-152.43,79.5-246.42,114s-184.18,59-261.66,72.54c-130.85,22.94-225.5,14.91-241.2-27.86-14.26-38.84,39.65-97.94,135.47-158.8a310,310,0,0,0,9,38.55c-26.63,18.72-40.19,34.12-36.59,43.94,3.67,10,24.69,12.89,58.2,9.66,64.76-6.28,176.18-35.47,299.16-80.62s226.81-95,280.24-132.12c27.63-19.21,41.78-35,38.11-45-3.61-9.81-23.92-12.78-56.32-9.83a310,310,0,0,0-18.11-35.18C1327,1103,1406.3,1113.16,1420.56,1152Z" transform="translate(-495.73 -398)"/><path class="cls-5" d="M641.24,1346.9l2.38,3.52c-23.86,15.72-42.45,30-56.58,42.73C597.89,1379.48,615.93,1364.13,641.24,1346.9Z" transform="translate(-495.73 -398)"/><path class="cls-5" d="M646,1353.9l-2.39-3.48c.41-.3.87-.59,1.33-.87Z" transform="translate(-495.73 -398)"/><path class="cls-6" d="M1329.49,1153.79c-4-10.69-14.62-17.79-32.34-21.32-17.15-3.39-40.89-3.44-71.48-.16l.46,4.21,1.35,12.68c58.36-6.25,82.71,1.3,86.09,10.45,5.61,15.32-35.11,56.37-137.85,110.23-57.43,30.1-126.33,60.17-199.22,86.95-42.89,15.75-85.47,29.74-126.14,41.42-28.46,8.25-56,15.35-82,21.2-113.18,25.43-170.79,20.5-176.42,5.15-3.3-9,9.87-29.91,56.38-62,.81-.57,1.64-1.13,2.47-1.69l-4.77-7-2.39-3.48-2.38-3.52c-25.31,17.23-43.35,32.58-54.2,46.25-11.38,14.2-15,26.56-11,37.31,3.85,10.46,14.3,17,29.19,20.52,38.83,9.26,107.73-1.67,166.86-15,26.76-6,55.07-13.35,84.34-21.83,40.65-11.74,83.15-25.73,125.93-41.43,73.58-27,143.17-57.41,201.28-87.83C1257.82,1246,1343.39,1191.65,1329.49,1153.79Z" transform="translate(-495.73 -398)"/><path class="cls-6" d="M1381.22,1149.73c-14.57-39.66-96.16-37.92-162-29.45l2.15,16.83,4.76-.59c28.47-3.48,51.95-4.62,71-4,43.34,1.32,63.85,11.46,68.15,23.12,7.71,21-27.21,70.13-151.13,139.17-64.05,35.69-141.32,70.51-223.49,100.67-37.58,13.78-75,26.18-111.42,36.9-43.28,12.8-85.11,23.23-124.13,31C616,1490.85,557.6,1476,549.86,1455c-4.29-11.69,4.84-32.75,37.18-61.85,14.12-12.73,32.72-27,56.58-42.73.41-.3.87-.59,1.33-.87l2.67-1.76-4.6-7.09-4.64-7.15c-55.69,36.17-119,87.62-104.43,127.28,5.63,15.35,21.08,24.59,42.06,29.6,49.39,11.75,129.25,0,182.41-10.49,46.64-9.23,97.21-22.29,149.35-38.49,29.23-9.07,58.93-19.12,88.74-30.08,83-30.47,161.12-65.67,225.91-101.79C1289.86,1272,1400.15,1201.27,1381.22,1149.73Z" transform="translate(-495.73 -398)"/><path class="cls-3" d="M620.81,1535.89c-68.38,0-111.35-15.4-122.34-45.32-15.3-41.66,33.87-101.17,138.44-167.58l9.42-6,1.82,11a305.92,305.92,0,0,0,8.75,37.63l1.54,5.11-4.36,3.06c-36.84,25.89-33.94,35.26-33.91,35.35s4,9.36,50.56,4.86c66.11-6.41,180-37.14,297.32-80.2s224-93.36,278.57-131.25c38.4-26.7,35.43-36.32,35.39-36.42s-3.88-9.1-48.71-5l-5.3.48-2.14-4.88a304.21,304.21,0,0,0-17.68-34.35l-5.72-9.57,11-1.54c122.71-17,198.7-3.47,214,38.18h0c16.73,45.56-44.89,113.44-169.07,186.24-70.65,41.41-156.28,81-247.61,114.57S828.55,1509,747.88,1523.15C699.22,1531.68,656.55,1535.89,620.81,1535.89Zm14.8-194.5c-89.21,58.21-135.16,111.73-123.28,144.09,13.61,37.07,102.89,45.93,233,23.12,79.82-14,169.86-39,260.39-72.19S1181,1363.94,1251,1323c114-66.81,176.29-131.34,162.68-168.41-11.88-32.35-81.54-43.43-187.22-30.08,3.87,7,7.5,14.23,10.83,21.52,35.23-2.64,53.91,2.19,58.64,15.07,5,13.72-7.94,30.76-40.83,53.63-56.34,39.15-161.73,88.87-281.91,133s-232.7,74.42-301,81c-39.88,3.84-60.8-.75-65.84-14.47-4.73-12.88,6.4-28.66,35-49.44C639.1,1357.09,637.2,1349.26,635.61,1341.39Z" transform="translate(-495.73 -398)"/><g class="cls-7"><path class="cls-8" d="M1250.84,1209.69q-9.33,6.49-20.65,13.45-3.45-12.56-8-25c-.48-1.29-1-2.57-1.45-3.84q-2.65-7-5.65-13.84a313.43,313.43,0,0,0-18.11-35.19c-.81-1.35-1.63-2.68-2.46-4a306.7,306.7,0,0,0-34.8-46,311.16,311.16,0,0,0-476.78,21.4,311,311,0,0,1,529.14-1.06c.84,1.34,1.65,2.68,2.45,4a309.05,309.05,0,0,1,18.11,35.17q3,6.84,5.66,13.84c.5,1.28,1,2.55,1.45,3.86A313.87,313.87,0,0,1,1250.84,1209.69Z" transform="translate(-495.73 -398)"/></g><path class="cls-3" d="M667.17,1429.2l-2.29-4.45a319.77,319.77,0,0,1-16-36.36c-2.25-6.12-4.32-12.35-6.16-18.5a318.35,318.35,0,0,1-9.17-39.46c-25-150.51,61-298,204.47-350.65s304.43,4.12,382.8,135a319.81,319.81,0,0,1,18.54,36c2.58,5.88,5,12,7.27,18.09h0a319.9,319.9,0,0,1,11.36,38l1.13,4.88-4.11,2.85c-56.34,39.15-161.73,88.87-281.91,133s-232.7,74.42-301,81ZM947.7,975a303,303,0,0,0-104.55,18.63c-136.8,50.23-218.8,190.85-195,334.38a306.19,306.19,0,0,0,8.75,37.62c1.76,5.88,3.74,11.82,5.88,17.66a304.67,304.67,0,0,0,13,30.19c66.75-7.41,177.94-37.68,292.31-79.67s218.73-90.87,274.42-128.41a308.74,308.74,0,0,0-9.66-31.4h0c-2.14-5.83-4.48-11.64-6.94-17.26a305.22,305.22,0,0,0-17.69-34.36C1152.2,1028.87,1052,975,947.7,975Z" transform="translate(-495.73 -398)"/><g class="cls-9"><path class="cls-3" d="M868.28,1375.56h0c-80.83,25.23-150.68,41.35-196.83,45.82-33.51,3.23-54.53.33-58.2-9.66-3.6-9.82,10-25.22,36.59-43.94-2.21-7.34-4.09-14.72-5.74-22.1v0C557.65,1403.08,510,1458,523.5,1494.81c3.92,10.65,12.73,19.15,25.77,25.55-1.23-.36-2.43-.73-3.62-1.1,42.36,13.43,113.56,11.94,201-3.38,77.48-13.58,167.66-38,261.66-72.54q10.93-4,21.67-8.13C766.08,1491.93,868.28,1375.56,868.28,1375.56Z" transform="translate(-495.73 -398)"/></g><g class="cls-9"><path class="cls-3" d="M875.66,1332.69c93.26-1.24,288-82.93,368.59-119.6,2.26-1.51,4.48-3,6.58-4.46-2-8.51,4.47-1.72,1.74-10.16-50.8,24.73-288.78,130.54-395,132-4.64.07-9.28-.08-13.9-.4A166.51,166.51,0,0,0,875.66,1332.69Z" transform="translate(-495.73 -398)"/></g><g class="cls-9"><path class="cls-3" d="M1252.57,1198.47c-50.8,24.73-288.78,130.54-395,132-55.73.75-111.37-26-123.06-80.49-.22-1-.38-1.86-.5-2.55-.09-.52-.17-1-.26-1.58a309.76,309.76,0,0,1,17.32-161.67,312.55,312.55,0,0,1,24.14-48.92,311.61,311.61,0,0,0-120.27,237.46,308.15,308.15,0,0,0,3.81,57.25c.06.52.15,1,.24,1.57a311.84,311.84,0,0,0,9,38.55c1.62,5.46,3.43,10.9,5.38,16.34.22.59.41,1.15.63,1.73a317.12,317.12,0,0,0,13.53,31.36q-4,.54-7.74,1c65.72-7.82,173-36.43,290.86-79.71,123-45.15,226.82-95,280.23-132.12C1248.85,1200.12,1255.3,1206.91,1252.57,1198.47Z" transform="translate(-495.73 -398)"/></g><g class="cls-9"><path class="cls-3" d="M776.48,1519.34a311.06,311.06,0,0,0,467.41-173.27c1.63-5.49,3.08-11,4.39-16.62-67.15,39-150.17,77.8-242.28,111.62-86.53,31.77-169.78,55-242.9,69.07C767.49,1513.32,771.93,1516.4,776.48,1519.34Z" transform="translate(-495.73 -398)"/></g><rect class="cls-8" x="798.06" y="701.92" width="295.37" height="276.74" rx="138.37" transform="translate(1395.76 1282.58) rotate(-180)"/><path class="cls-8" d="M1093.43,758.4V922.19c0,31.06-26.28,56.48-58.4,56.48H856.46c-32.11,0-58.4-25.42-58.4-56.48V758.4a54.44,54.44,0,0,1,6.06-25,57.3,57.3,0,0,1,11.2-15A59.22,59.22,0,0,1,853.51,702c1,0,2-.08,3-.08h178.6A58.73,58.73,0,0,1,1088.15,735a54.22,54.22,0,0,1,5.28,23.39Z" transform="translate(-495.73 -398)"/><path class="cls-3" d="M1036,701.92a57.59,57.59,0,0,1,57.43,57.43V921.23A57.59,57.59,0,0,1,1036,978.66H855.49a57.6,57.6,0,0,1-57.43-57.43V759.35a57.6,57.6,0,0,1,57.43-57.43H1036m0-11.83H855.49a69.33,69.33,0,0,0-69.25,69.26V921.23a69.33,69.33,0,0,0,69.25,69.26H1036a69.34,69.34,0,0,0,69.26-69.26V759.35A69.34,69.34,0,0,0,1036,690.09Z" transform="translate(-495.73 -398)"/><g class="cls-9"><path class="cls-10" d="M1087,766.72l-.76.39c0-.36,0-.73,0-1.09a12.37,12.37,0,0,1,.18-1.49c0-.13,0-.25.08-.38a.8.8,0,0,1,0-.15c0-.15.08-.3.12-.44s.06-.25.1-.37l.06-.18c.05-.14.09-.28.14-.4s.12-.32.18-.48c0,.17-.07.34-.1.51-.06.36-.11.74-.14,1.1A12.4,12.4,0,0,0,1087,766.72Z" transform="translate(-495.73 -398)"/></g><path class="cls-8" d="M864.71,712.12l-4.83,12.68-4.1,10.76-3.56,9.36-21,55.13c-3.41.94-6.88,1.8-10.46,2.51-44.86,9.22-104.11-.52-185-91.2-12.65-14.17-43.17-22.77-29.87-55,13.61-33,32.76-28.87,32.76-28.87s-5-16.34,5.8-24.61c15.27-11.69,33.38,5.62,51,18,2.5,1.76,1.38-21.93,17.89-21.22,23.63,1,22.37,55,22.37,55s31.87,35,81.35,50.42a155,155,0,0,0,40.85,7C860.15,712.12,862.43,712.15,864.71,712.12Z" transform="translate(-495.73 -398)"/><g class="cls-11"><path class="cls-3" d="M831.22,800h0c-46,12.78-108.11,9.22-195.42-88.67-12.64-14.18-43.17-22.77-29.86-55,8.16-19.81,18.34-26.22,25.15-28.2-2.31,3.5-4,8.09-6.73,13-15.57,27.42,27.06,54,38.81,49.17,7.21-3,9.74-5.88,13.91-19.66C681.5,656,688.39,649,689.2,649.94c3.69,4.13,3.77,55.17,12.25,73.12,21.61,45.76,79.82,68.26,122,66.3A7.88,7.88,0,0,1,831.22,800Z" transform="translate(-495.73 -398)"/></g><path class="cls-3" d="M794.33,811.2c-40.21,0-94.08-18.82-162.87-96-2.79-3.12-6.82-6.13-11.08-9.31-13.3-9.91-31.51-23.48-19.83-51.79,9.86-23.9,23-30.5,31.3-32.12-.57-6.86.37-17.08,9.11-23.77,16.52-12.64,34.44.63,50.25,12.33l1.48,1.09c2.23-7.34,7.34-18.47,20.91-17.85,26.12,1.13,27.94,46.22,27.95,58.44,9.13,9.18,57.88,54.92,123.09,54h.08a5.82,5.82,0,0,1,.07,11.63c-77.46,1-131.13-57-133.38-59.43a5.84,5.84,0,0,1-1.51-4c.35-15.74-3.29-48.43-16.8-49-5.79-.24-8.05,4.37-10.19,13-.89,3.58-1.66,6.68-5,8a6.25,6.25,0,0,1-5.76-.77c-2.59-1.82-5.2-3.75-7.81-5.68C667.68,607.63,657,600.66,648,607.49c-7.42,5.68-3.8,18.2-3.76,18.33a5.84,5.84,0,0,1-6.8,7.37c-.47-.08-14.8-2.13-26.15,25.39-8.24,19.95,3,28.33,16,38,4.54,3.38,9.24,6.88,12.81,10.89,89.44,100.29,151,97.65,189.52,86.94a5.82,5.82,0,1,1,3.12,11.21A142.17,142.17,0,0,1,794.33,811.2Z" transform="translate(-495.73 -398)"/><path class="cls-3" d="M702.54,619.58,701.23,638a6.19,6.19,0,0,1-1.05,3l-.16.24h0a14.78,14.78,0,0,0-1.22,1.51c-.43.59-.84,1.2-1.23,1.84a35.69,35.69,0,0,0-2.13,4,28.88,28.88,0,0,0-2.43,8.53,27.4,27.4,0,0,0-.18,4.44,26.87,26.87,0,0,0,.73,4.41,29.21,29.21,0,0,0,3.7,8.47l.16.26a2.9,2.9,0,0,1-4.78,3.27,35.83,35.83,0,0,1-6-9.69,34.38,34.38,0,0,1-1.76-5.6,37.48,37.48,0,0,1-.62-5.89,38.53,38.53,0,0,1,1.58-11.66,44.54,44.54,0,0,1,2-5.52q.58-1.35,1.29-2.67a28.25,28.25,0,0,1,1.65-2.79h0l-1.22,3.28,1.35-19a5.81,5.81,0,0,1,11.6.82Z" transform="translate(-495.73 -398)"/><path class="cls-3" d="M741.53,798.93a4.61,4.61,0,0,1-3.19-7.94c31.26-30,36-102.44,36.09-103.16a4.61,4.61,0,1,1,9.21.56c-.19,3.12-5,76.75-38.91,109.26A4.61,4.61,0,0,1,741.53,798.93Z" transform="translate(-495.73 -398)"/><path class="cls-8" d="M1145.32,950.57c-2.49,55-19.3,77.27-40,84.31a40.69,40.69,0,0,1-13.87,2.16,59.25,59.25,0,0,1-25.34-6.7s-5.41,2.27-10.37,1.79c-38.37-3.72-29.62-26.49-21.83-63a254.4,254.4,0,0,0,5.34-34.76c4.43-59.69-12.26-116.12-12.26-116.12l6.43-53.56,7.15-59.69s3.75,3.41,9.85,9.88c5.33,5.65,12.46,13.64,20.41,23.74C1103.24,779.79,1149.62,855.87,1145.32,950.57Z" transform="translate(-495.73 -398)"/><path class="cls-3" d="M1092.42,1042.88l-1.22,0a66.81,66.81,0,0,1-25.58-6.21,28.37,28.37,0,0,1-10.49,1.26c-14.48-1.4-23.67-5.44-28.94-12.7-8.24-11.36-4.6-27.65,0-48.28,2.83-12.66,6-27,7.21-43,4.31-57.86-11.86-113.48-12-114a5.81,5.81,0,0,1,11.15-3.3c.7,2.35,16.94,58.16,12.48,118.2-1.25,16.82-4.55,31.61-7.46,44.66-4,17.76-7.09,31.8-1.93,38.91,3.12,4.31,9.87,6.91,20.64,8a19.17,19.17,0,0,0,7.59-1.37l2.65-1.09,2.49,1.43a53.93,53.93,0,0,0,22.62,5.92,34.5,34.5,0,0,0,11.8-1.86c21.92-7.44,34.07-34,36.11-79.06,3.31-73-24.75-134.52-48.88-173.3-26.28-42.24-53.74-67.43-54-67.68a5.82,5.82,0,0,1,7.82-8.61c1.16,1,28.75,26.31,55.88,69.83,25.09,40.24,54.27,104.17,50.82,180.28-2.31,51-16.7,80.29-44,89.55A47.14,47.14,0,0,1,1092.42,1042.88Z" transform="translate(-495.73 -398)"/><path class="cls-3" d="M1038.1,883.41a4.61,4.61,0,0,1-1.58-8.95c3.16-1.15,77.63-27.76,104.69-3.43a4.62,4.62,0,1,1-6.17,6.87c-19.06-17.14-75.31-2-95.37,5.24A4.8,4.8,0,0,1,1038.1,883.41Z" transform="translate(-495.73 -398)"/><path class="cls-8" d="M1080.29,969.15H809.76c-.71-21.94-.53-43.07.29-63.26.77-18.7,2.13-36.6,3.9-53.6,1.62-15.54,3.59-30.33,5.8-44.32.29-1.85.64-3.65,1-5.41,5.48-24.79,20.21-42,30.33-58.57,1.72-2.82,3.3-5.61,4.68-8.43a59.66,59.66,0,0,0,3.89-9.89c.08-.29.16-.58.21-.87.7-3.62-.32-8.09-2-12.75-3.64-10.25-10.33-21.52-8.45-27.09,3.11-9.18,5.82-16.39,7.82-21.48,2.28-5.81,3.65-8.85,3.65-8.85h168.19s1.4,3,3.74,8.76c2.43,6,5.86,14.92,9.79,26.66,2.42,7.24,5,15.54,7.72,24.85,2,6.8,4,14.15,6,22,.94,3.73,1.89,7.59,2.8,11.54,4.4,18.53,8.6,39.52,12.12,62.82,2,13.06,3.75,26.81,5.19,41.26,1.73,17.07,3,35.09,3.72,54C1080.92,926.42,1081,947.36,1080.29,969.15Z" transform="translate(-495.73 -398)"/><path class="cls-3" d="M832.15,761.07a128.82,128.82,0,0,1-.24,13.37c-.18,4.41-.65,8.73-1,13.07s-1,8.6-1.63,12.9-1.55,8.51-2.31,12.78l-1.15,6.4c-.35,2.14-.64,4.29-.94,6.43q-.9,6.45-1.62,12.92t-1.42,12.95q-.69,6.48-1.22,13c-1.59,17.32-2.05,34.74-2.68,52.14-.4,8.7-.77,17.4-1.42,26.1-.49,8.71-1,17.41-5.82,26.06a1,1,0,0,1-1.37.4,1.06,1.06,0,0,1-.41-.43c-4.47-8.83-4.58-17.62-4.54-26.39s.13-17.56.55-26.33c.94-17.54,2.63-35,4.1-52.57.37-4.38.77-8.76,1.24-13.14s.9-8.75,1.43-13.13,1.05-8.74,1.65-13.11L815,811.34c.48-4.38,1.12-8.76,1.94-13.1s2-8.63,3.2-12.89a116.89,116.89,0,0,1,10.32-24.72.92.92,0,0,1,1.26-.35.94.94,0,0,1,.46.75Z" transform="translate(-495.73 -398)"/><path class="cls-3" d="M1079.4,969.17c-4.8-7.8-5.27-15.68-5.67-23.55-.57-7.86-.88-15.71-1.18-23.56-.47-15.68-.86-31.35-2.52-46.92q-1.17-11.68-2.81-23.31c-1.09-7.75-2.17-15.51-3.84-23.18-.77-3.84-1.61-7.67-2.27-11.54s-1.07-7.77-1.46-11.7-.55-7.9-.68-11.9a93.89,93.89,0,0,1,.36-12.16v0a.93.93,0,0,1,1-.82.91.91,0,0,1,.71.46,112.88,112.88,0,0,1,9.35,22.32,126.52,126.52,0,0,1,4.89,23.33c1,7.89,2.37,15.74,3.43,23.63s2.07,15.79,2.86,23.72c1.56,15.85,3.18,31.71,4,47.58.33,7.94.49,15.87.31,23.79s-.19,15.83-4.69,23.81a1,1,0,0,1-1.41.39A.92.92,0,0,1,1079.4,969.17Z" transform="translate(-495.73 -398)"/><g class="cls-11"><path class="cls-3" d="M1080.16,919.22c-16.6,1.62-37.31,2.21-53.39-2v8.93a22.53,22.53,0,0,1-22.47,22.46H881.67a22.53,22.53,0,0,1-22.45-22.46V919c-16,2.44-34.68,1.39-49.16-.25.76-14.9,2.12-29.16,3.89-42.7,13.29.55,30.45.79,45.27-.49v-16a22.51,22.51,0,0,1,22.45-22.45H1004.3a22.47,22.47,0,0,1,17.88,8.9,22.21,22.21,0,0,1,4.59,13.55v15c14.93,2.17,34.23,2.17,49.67,1.66C1078.17,889.83,1079.45,904.18,1080.16,919.22Z" transform="translate(-495.73 -398)"/></g><path class="cls-8" d="M883,895.71c-16.86,6.83-43,5.4-60.75,3.25a19.09,19.09,0,0,1-16.58-21.77h0a19.09,19.09,0,0,1,19.77-16.3c16.64.78,41.59,1.15,57.4-2.36" transform="translate(-495.73 -398)"/><g class="cls-11"><path class="cls-3" d="M883,895.71c-16.86,6.83-43,5.39-60.75,3.25a19.14,19.14,0,0,1-14.62-27.83,19.07,19.07,0,0,0,14.62,10.11C840,883.39,866,884.82,882.88,878Z" transform="translate(-495.73 -398)"/></g><path class="cls-3" d="M849.4,906.55a236.14,236.14,0,0,1-27.9-1.82,24.93,24.93,0,0,1,4.16-49.65c24.39,1.14,44.23.35,55.87-2.23,2.12-.47,9.35-1,13.24,11.49,3.66,11.77,3.13,31.59-9.64,36.76h0C875.06,905.18,862.17,906.55,849.4,906.55ZM883,895.71h0Zm-58.47-29a13.29,13.29,0,0,0-1.58,26.49c25.22,3.05,45.77,2,57.87-2.86,2.56-1,3.59-5.35,3.91-7.15,1.31-7.32-.6-15.74-2.32-18.61-16.17,3.22-39.9,3-57.25,2.14Z" transform="translate(-495.73 -398)"/><path class="cls-8" d="M1011.91,895.71c16.86,6.83,43,5.4,60.75,3.25a19.11,19.11,0,0,0,16.58-21.77h0a19.09,19.09,0,0,0-19.77-16.3c-16.64.78-41.6,1.15-57.4-2.36" transform="translate(-495.73 -398)"/><g class="cls-11"><path class="cls-3" d="M1072.65,899c-17.79,2.14-43.88,3.58-60.75-3.25l.08-17.85c16.86,6.79,42.91,5.37,60.67,3.21a19,19,0,0,0,14.58-10A19.11,19.11,0,0,1,1072.65,899Z" transform="translate(-495.73 -398)"/></g><path class="cls-3" d="M1045.46,906.55c-12.78,0-25.66-1.37-35.73-5.45h0c-12.77-5.17-13.3-25-9.64-36.76,3.89-12.52,11.12-12,13.24-11.49,11.63,2.58,31.47,3.37,55.87,2.23a24.93,24.93,0,0,1,4.15,49.65A235.82,235.82,0,0,1,1045.46,906.55Zm-31.37-16.23c12.1,4.9,32.65,5.92,57.87,2.86a13.3,13.3,0,0,0-2.22-26.48c-17.35.81-41.08,1.08-57.24-2.14-1.73,2.87-3.63,11.29-2.33,18.61.33,1.8,1.35,6.11,3.92,7.15Z" transform="translate(-495.73 -398)"/><path class="cls-8" d="M1018.43,846.24v59.59a20.17,20.17,0,0,1-20.11,20.1H888.58a20.16,20.16,0,0,1-20.09-20.1V846.24a20.15,20.15,0,0,1,20.09-20.09H998.32a20.15,20.15,0,0,1,16,8A19.92,19.92,0,0,1,1018.43,846.24Z" transform="translate(-495.73 -398)"/><g class="cls-11"><path class="cls-3" d="M1018.43,846.24v59.59a20.16,20.16,0,0,1-20.1,20.1H888.59a20.15,20.15,0,0,1-20.1-20.1V883.54c16.48,16.81,48.89,27.35,78.62,27.51a18.07,18.07,0,0,0,17.94-17,2.83,2.83,0,0,1,0-.29,17.34,17.34,0,0,1,34.51-.22c14.38-17.77,10.17-48.64,14.75-59.39A19.92,19.92,0,0,1,1018.43,846.24Z" transform="translate(-495.73 -398)"/></g><path class="cls-3" d="M998.33,931.75H888.59a25.94,25.94,0,0,1-25.91-25.91v-59.6a25.94,25.94,0,0,1,25.91-25.91H998.33a25.94,25.94,0,0,1,25.91,25.91v59.6A25.94,25.94,0,0,1,998.33,931.75ZM888.59,832a14.29,14.29,0,0,0-14.28,14.28v59.6a14.29,14.29,0,0,0,14.28,14.28H998.33a14.3,14.3,0,0,0,14.28-14.28v-59.6A14.3,14.3,0,0,0,998.33,832Z" transform="translate(-495.73 -398)"/><circle class="cls-12" cx="982.34" cy="876.04" r="17.33" transform="translate(-827.46 553.2) rotate(-45)"/><g class="cls-13"><path class="cls-8" d="M999.66,876a17.89,17.89,0,0,1-.33,3.46,17.34,17.34,0,0,0-34,0A17.13,17.13,0,0,1,965,876a17.33,17.33,0,1,1,34.66,0Z" transform="translate(-495.73 -398)"/></g><g class="cls-11"><path class="cls-3" d="M999.66,876A17.33,17.33,0,1,1,965,876a16.81,16.81,0,0,1,1.19-6.27,17.31,17.31,0,0,0,32.27,0A17,17,0,0,1,999.66,876Z" transform="translate(-495.73 -398)"/></g><path class="cls-3" d="M982.34,897.73A21.69,21.69,0,1,1,1004,876,21.72,21.72,0,0,1,982.34,897.73Zm0-34.66a13,13,0,1,0,13,13A13,13,0,0,0,982.34,863.07Z" transform="translate(-495.73 -398)"/><path class="cls-3" d="M933.23,930.29a4.37,4.37,0,0,1-4.37-4.36V894.27A17.43,17.43,0,0,0,922,880.41l-4.64-3.49a26.21,26.21,0,0,1-10.39-20.84V826.15a4.36,4.36,0,1,1,8.72,0v29.93A17.46,17.46,0,0,0,922.56,870l4.63,3.49a26.21,26.21,0,0,1,10.4,20.83v31.66A4.36,4.36,0,0,1,933.23,930.29Z" transform="translate(-495.73 -398)"/><g class="cls-11"><path class="cls-3" d="M1076.46,744.37c-4,3.69-8.14,7.19-12.44,10.47a179.56,179.56,0,0,1-27.53,17.38A177.89,177.89,0,0,1,843,751.08c-.4-.31-.81-.65-1.19-1a178,178,0,0,1-36.36-41.65A165.18,165.18,0,0,0,849.07,716c-3.88-11-11-23-9-28.93,3.32-9.8,6.21-17.51,8.36-22.94,2.44-6.22,3.9-9.46,3.9-9.46H1032s1.49,3.2,4,9.36c2.59,6.39,6.26,15.94,10.45,28.47,2.6,7.74,5.39,16.6,8.25,26.55C1060.35,725.05,1068,733.57,1076.46,744.37Z" transform="translate(-495.73 -398)"/></g><path class="cls-8" d="M1125.67,665.21h0a3.66,3.66,0,0,1-3.12-4.15l14.76-104.86a3.68,3.68,0,0,1,4.15-3.13h0a38.57,38.57,0,0,1,32.82,43.57l-5,35.76A38.56,38.56,0,0,1,1125.67,665.21Z" transform="translate(-495.73 -398)"/><path class="cls-3" d="M1131.08,666.72a40.3,40.3,0,0,1-5.56-.39,4.74,4.74,0,0,1-3.17-1.87,4.79,4.79,0,0,1-.93-3.56L1136.19,556a4.81,4.81,0,0,1,5.43-4.09,39.7,39.7,0,0,1,33.78,44.85l-5,35.75A39.76,39.76,0,0,1,1131.08,666.72ZM1141,554.17a2.51,2.51,0,0,0-1.53.51,2.55,2.55,0,0,0-1,1.68l-14.76,104.85a2.5,2.5,0,0,0,.49,1.89,2.53,2.53,0,0,0,1.67,1,37.48,37.48,0,0,0,42.29-31.85l5-35.76a37.49,37.49,0,0,0-31.85-42.29Z" transform="translate(-495.73 -398)"/><g class="cls-11"><path class="cls-3" d="M1171.6,615.63l-2.35,16.77a38.6,38.6,0,0,1-43.58,32.82,3.7,3.7,0,0,1-3.13-4.17l3.92-27.87a3.66,3.66,0,0,0,3,2.62l2.49.35A38.53,38.53,0,0,0,1171.6,615.63Z" transform="translate(-495.73 -398)"/></g><path class="cls-3" d="M1131.08,671.9a44.88,44.88,0,0,1-6.29-.45,10,10,0,0,1-8.49-11.28l14.77-104.85a10,10,0,0,1,11.27-8.49,44.87,44.87,0,0,1,38.18,50.69l-5,35.76A45,45,0,0,1,1131.08,671.9Zm-1.91-12.67A32.31,32.31,0,0,0,1163,631.52l5-35.76a32.3,32.3,0,0,0-24.85-36Z" transform="translate(-495.73 -398)"/><path class="cls-8" d="M795.36,504.34h0a3.66,3.66,0,0,1,3.12,4.15L783.72,613.34a3.66,3.66,0,0,1-4.15,3.13h0a38.56,38.56,0,0,1-32.82-43.57l5-35.75A38.56,38.56,0,0,1,795.36,504.34Z" transform="translate(-495.73 -398)"/><path class="cls-3" d="M780.08,617.64a3.85,3.85,0,0,1-.67,0,39.68,39.68,0,0,1-33.78-44.84l5-35.76a39.7,39.7,0,0,1,44.84-33.78h0a4.81,4.81,0,0,1,4.1,5.44L784.84,613.5A4.82,4.82,0,0,1,780.08,617.64Zm9.82-112.56a37.45,37.45,0,0,0-37,32.23l-5,35.75a37.43,37.43,0,0,0,31.84,42.29,2.54,2.54,0,0,0,2.88-2.16l14.76-104.86a2.53,2.53,0,0,0-.48-1.88,2.5,2.5,0,0,0-1.68-1h0A37.9,37.9,0,0,0,789.9,505.08Z" transform="translate(-495.73 -398)"/><g class="cls-11"><path class="cls-3" d="M787.82,584.26l-4.1,29.09a3.68,3.68,0,0,1-4.16,3.12,38.54,38.54,0,0,1-32.8-43.56l2.12-15.07a38.56,38.56,0,0,0,31.63,27.33l3.83.54A3.7,3.7,0,0,0,787.82,584.26Z" transform="translate(-495.73 -398)"/></g><path class="cls-3" d="M780.09,622.82a11,11,0,0,1-1.4-.1A44.88,44.88,0,0,1,740.51,572l5-35.75a44.88,44.88,0,0,1,50.7-38.18h0a10,10,0,0,1,8.49,11.28L790,614.22A10,10,0,0,1,780.09,622.82Zm9.82-112.56A32.29,32.29,0,0,0,758,538l-5,35.75a32.26,32.26,0,0,0,24.86,36l14-99.44Q790.89,510.26,789.91,510.26Zm4.57.32Z" transform="translate(-495.73 -398)"/><circle class="cls-8" cx="464.81" cy="186.77" r="180.45"/><path class="cls-3" d="M960.58,766.38a181.69,181.69,0,0,1-38.05-4C824.62,741.37,762,644.67,783,546.77S900.63,386.26,998.55,407.22s160.5,117.66,139.55,215.56h0C1119.87,707.93,1044.35,766.38,960.58,766.38Zm-.08-360.94c-82.74,0-157.3,57.71-175.3,141.8C764.5,643.92,826.32,739.42,923,760.12S1115.18,719,1135.88,622.31s-41.12-192.18-137.81-212.88A179.77,179.77,0,0,0,960.5,405.44Z" transform="translate(-495.73 -398)"/><g class="cls-11"><path class="cls-3" d="M1140.52,597.76A180.45,180.45,0,1,1,784.08,547c.6-2.8,1.26-5.59,2-8.32A180.47,180.47,0,0,0,928.29,728.11C1022.93,748.37,1116.11,690.39,1140.52,597.76Z" transform="translate(-495.73 -398)"/></g><path class="cls-3" d="M960.58,771.55a186.7,186.7,0,0,1-39.13-4.16c-100.7-21.55-165.08-121-143.53-221.71s121-165.08,221.71-143.52,165.08,121,143.52,221.71h0C1124.41,711.44,1046.74,771.55,960.58,771.55Zm-.08-360.94c-80.35,0-152.76,56.05-170.25,137.71C770.16,642.22,830.19,735,924.09,755.06s186.63-39.94,206.73-133.83S1090.88,434.59,997,414.49A174.16,174.16,0,0,0,960.5,410.61ZM1137,622.55h0Z" transform="translate(-495.73 -398)"/><path class="cls-3" d="M1135.45,627a161.88,161.88,0,0,1-49,87.35c-18.37,17.09-84.56,40.25-157.87,26.39-68-12.84-122.53-61.26-133-84.07a161.86,161.86,0,0,1-12-99.44c18.18-91.66,104.46-114,201.62-94.77S1153.63,535.3,1135.45,627Z" transform="translate(-495.73 -398)"/><g class="cls-14"><ellipse class="cls-8" cx="1080.75" cy="603.17" rx="31.93" ry="23.14" transform="translate(-372.11 989.86) rotate(-68.51)"/></g><g class="cls-14"><ellipse class="cls-8" cx="1040.64" cy="659.7" rx="14.66" ry="12.58" transform="translate(-540.98 843.92) rotate(-60.57)"/></g><g class="cls-11"><path class="cls-15" d="M1118.2,534.66c17.43,24.79,24.55,55.48,17.25,92.29a161.84,161.84,0,0,1-49,87.36c-18.37,17.09-84.56,40.24-157.87,26.4-25.89-4.89-49.82-14.94-70.12-26.78,90.48,15.1,171.16-13.43,194-34.62a205.41,205.41,0,0,0,62.17-110.87A182.13,182.13,0,0,0,1118.2,534.66Z" transform="translate(-495.73 -398)"/></g><path class="cls-3" d="M1136.27,549.19a5.63,5.63,0,0,1-4.32-2l-.48-.56-.34-.74c-21.39-47.42-74-82.61-144.29-96.56-70.7-14-132.83-.77-170.47,36.33l-.44.39a5.61,5.61,0,0,1-7.33-8.48c40.34-39.67,106.09-54,180.42-39.24,73.78,14.64,129.24,52.05,152.21,102.68a5.61,5.61,0,0,1-5,8.21Z" transform="translate(-495.73 -398)"/><g class="cls-14"><path class="cls-8" d="M812.34,619.55s-10.45-96,45.42-122.42,126-12.32,123.43-8.15c0,0-81.34,3.4-123.88,58.74C824.51,590.39,812.34,619.55,812.34,619.55Z" transform="translate(-495.73 -398)"/></g><circle class="cls-3" cx="596.06" cy="771.73" r="4.46"/><g class="cls-9"><path class="cls-3" d="M993.42,965.24s62.08-21.65,113.45,30.55c47.2,48-8,95.31-8,95.31s17,65.37-27.14,73.75c-37.47,7.12-71.32-29.09-67-73.89,3.56-36.84,11.65-33.41,8.67-53.62-3.37-22.87-52.14-28-52.14-28H943s-48.77,5.15-52.14,28c-3,20.21,5.11,16.78,8.67,53.62,4.32,44.8-29.53,81-67,73.89-44.14-8.38-27.14-73.75-27.14-73.75s-55.17-47.34-8-95.31c51.37-52.2,113.45-30.55,113.45-30.55Z" transform="translate(-495.73 -398)"/></g><path class="cls-8" d="M1002.16,946.33s75.23-43.86,137.47,19.4c57.2,58.12-9.66,115.48-9.66,115.48s20.6,79.21-32.89,89.37c-45.39,8.62-86.42-35.26-81.17-89.54,4.31-44.64,14.11-40.48,10.5-65-4.09-27.72-63.18-34-63.18-34H941s-59.09,6.25-63.18,34c-3.61,24.48,6.19,20.32,10.5,65,5.25,54.28-35.78,98.16-81.17,89.54-53.49-10.16-32.89-89.37-32.89-89.37s-66.85-57.36-9.66-115.48c62.24-63.26,137.47-19.4,137.47-19.4" transform="translate(-495.73 -398)"/><g class="cls-11"><path class="cls-3" d="M1126,1152.94c-5.51,8.27-14.53,14.92-28.87,17.64-45.4,8.63-86.43-35.27-81.18-89.54,4.31-44.64,14.1-40.49,10.5-65-4.09-27.72-63.18-34-63.18-34H941s-59.08,6.24-63.17,34c-3.62,24.47,6.19,20.32,10.5,65,5.25,54.27-35.77,98.17-81.17,89.54-14.35-2.72-23.37-9.37-28.88-17.64l1.18.22c54.08,9.33,102.94-37,96.7-95.77-5.15-48.34-16.83-43.84-12.52-70.36,4.87-30,75.24-36.77,75.24-36.77h26.48S1035.73,957,1040.6,987c4.29,26.52-7.38,22-12.51,70.36-6.24,58.79,42.62,105.1,96.69,95.77Z" transform="translate(-495.73 -398)"/></g><path class="cls-3" d="M1001.19,944.65a107.56,107.56,0,0,1,32.94-14.77,118.81,118.81,0,0,1,18-3.4,120.39,120.39,0,0,1,18.42-.37,107.17,107.17,0,0,1,36,8.7,121.46,121.46,0,0,1,30.9,20.23,104.07,104.07,0,0,1,23.22,29,77.32,77.32,0,0,1,6.53,18,68.42,68.42,0,0,1,1.25,19.14c-.93,12.79-5.32,24.92-11.46,35.64A121,121,0,0,1,1146.5,1072c-1.93,2.39-3.91,4.73-6,7-1,1.13-2.11,2.24-3.22,3.33s-2.16,2.12-3.5,3.3l1.84-5.88c1.07,4.35,1.78,8.35,2.42,12.56s1.07,8.34,1.35,12.56a118.52,118.52,0,0,1-.88,25.55,81.84,81.84,0,0,1-3.06,12.78,61.35,61.35,0,0,1-5.73,12.25,49.81,49.81,0,0,1-9.08,10.5,48.54,48.54,0,0,1-11.89,7.22,58.4,58.4,0,0,1-13.09,3.52c-2.18.4-4.4.51-6.61.71-2.23,0-4.45.15-6.67,0a62.21,62.21,0,0,1-13.16-2,65.42,65.42,0,0,1-12.47-4.52c-16-7.62-28.63-20.95-36.56-36.31a97.06,97.06,0,0,1-10.33-50.11c.24-4.36.78-8.36,1.25-12.51l.88-6.19,1.09-6.2c.86-4.12,1.78-8.26,3-12.33s2.61-8.06,3.7-11.63a32.94,32.94,0,0,0,1.59-10.29c0-.87,0-1.78-.1-2.69s-.1-1.82-.24-2.76l-.34-2.81c-.18-.75-.28-1.43-.49-2.14-1.65-5.57-7-10.49-13.41-14.07a94.56,94.56,0,0,0-21.24-8.37,160.58,160.58,0,0,0-22.91-4.54l.61,0H941l.61,0a160.58,160.58,0,0,0-22.91,4.54,94.56,94.56,0,0,0-21.24,8.37c-6.41,3.58-11.76,8.5-13.41,14.07-.21.71-.31,1.39-.49,2.14l-.34,2.81c-.14.94-.18,1.85-.24,2.76s-.13,1.82-.1,2.69a32.94,32.94,0,0,0,1.59,10.29c1.09,3.57,2.54,7.57,3.7,11.63s2.14,8.21,3,12.33l1.09,6.2.88,6.19c.47,4.15,1,8.15,1.25,12.51a97.06,97.06,0,0,1-10.33,50.11c-7.93,15.36-20.54,28.69-36.56,36.31a65.42,65.42,0,0,1-12.47,4.52,62.21,62.21,0,0,1-13.16,2c-2.22.18-4.44.05-6.66,0-2.22-.2-4.44-.31-6.62-.71a58.4,58.4,0,0,1-13.09-3.52,48.54,48.54,0,0,1-11.89-7.22,49.81,49.81,0,0,1-9.08-10.5,61.35,61.35,0,0,1-5.73-12.25,81.84,81.84,0,0,1-3.06-12.78,118.52,118.52,0,0,1-.88-25.55q.42-6.33,1.35-12.56c.64-4.21,1.35-8.21,2.42-12.56l1.84,5.88c-1.34-1.18-2.38-2.18-3.5-3.3s-2.17-2.2-3.22-3.33c-2.11-2.24-4.09-4.58-6-7a121,121,0,0,1-10.42-15.25c-6.13-10.72-10.55-22.85-11.44-35.64a68.7,68.7,0,0,1,1.31-19.13,76.4,76.4,0,0,1,6.59-17.9,103.88,103.88,0,0,1,23.35-28.76,121.78,121.78,0,0,1,30.74-20.27,103.86,103.86,0,0,1,35.82-9.39,116.55,116.55,0,0,1,18.5.24,119.19,119.19,0,0,1,18.07,3.27,113,113,0,0,1,17.13,6.22,82.59,82.59,0,0,1,15.66,9.24,2,2,0,0,1-1.83,3.39l-.12,0A201.53,201.53,0,0,0,868,939.57a165.82,165.82,0,0,0-16.69-1.79c-2.78,0-5.56-.2-8.33-.08-1.38,0-2.77,0-4.15.11l-4.14.3a103,103,0,0,0-32,7.88,94.83,94.83,0,0,0-14.61,7.87A104.7,104.7,0,0,0,774.87,964a92.31,92.31,0,0,0-20.78,25.46,64.56,64.56,0,0,0-5.53,15,57.11,57.11,0,0,0-1.08,15.82c.74,10.64,4.47,21.13,9.95,30.7a108.32,108.32,0,0,0,9.39,13.74c1.75,2.17,3.55,4.3,5.46,6.33.94,1,1.91,2,2.89,3s2,2,2.89,2.73l2.7,2.37-.86,3.51c-.87,3.53-1.6,7.52-2.17,11.33s-1,7.75-1.25,11.63a106.63,106.63,0,0,0,.77,23,70.43,70.43,0,0,0,2.58,10.86,50.76,50.76,0,0,0,4.54,9.75,37.81,37.81,0,0,0,6.78,7.84,36.77,36.77,0,0,0,8.83,5.35,46.73,46.73,0,0,0,10.36,2.76c1.81.35,3.65.41,5.47.59,1.83,0,3.67.14,5.5,0a51.22,51.22,0,0,0,10.85-1.65,53.75,53.75,0,0,0,10.36-3.76c13.38-6.34,24.31-17.74,31.22-31.15a85.42,85.42,0,0,0,9-44.08c-.2-3.75-.73-7.79-1.17-11.7l-.84-5.86-1-5.78c-.8-3.82-1.63-7.6-2.75-11.31s-2.39-7.37-3.67-11.55a44.68,44.68,0,0,1-2.08-13.66c0-1.16,0-2.27.12-3.38s.13-2.24.29-3.3l.39-3.23c.25-1.23.48-2.56.85-3.79a31,31,0,0,1,7.82-12.66,50.19,50.19,0,0,1,11-8.18,105.41,105.41,0,0,1,23.91-9.48,171.46,171.46,0,0,1,24.79-4.9l.26,0h22.92l.26,0a171.46,171.46,0,0,1,24.79,4.9,105.41,105.41,0,0,1,23.91,9.48,50.19,50.19,0,0,1,11,8.18,31,31,0,0,1,7.82,12.66c.37,1.23.6,2.56.85,3.79l.39,3.23c.16,1.06.22,2.18.29,3.3s.16,2.22.12,3.38a44.68,44.68,0,0,1-2.08,13.66c-1.28,4.18-2.61,7.81-3.67,11.55s-2,7.49-2.75,11.31l-1,5.78-.84,5.86c-.44,3.91-1,7.95-1.17,11.7a85.42,85.42,0,0,0,9,44.08c6.91,13.41,17.84,24.81,31.22,31.15a53.75,53.75,0,0,0,10.36,3.76,51.22,51.22,0,0,0,10.85,1.65c1.83.16,3.67,0,5.5,0,1.82-.18,3.66-.24,5.47-.59a46.73,46.73,0,0,0,10.36-2.76,36.77,36.77,0,0,0,8.83-5.35,37.81,37.81,0,0,0,6.78-7.84,50.76,50.76,0,0,0,4.54-9.75,70.43,70.43,0,0,0,2.58-10.86,106.63,106.63,0,0,0,.77-23q-.39-5.82-1.25-11.63c-.57-3.81-1.3-7.8-2.17-11.33l-.86-3.51,2.71-2.37c.85-.75,1.93-1.78,2.88-2.73s2-2,2.89-3c1.91-2,3.71-4.16,5.46-6.33a108.32,108.32,0,0,0,9.39-13.74c5.48-9.57,9.23-20.06,9.93-30.7a57.35,57.35,0,0,0-1.14-15.8,64.63,64.63,0,0,0-5.58-14.94,93.63,93.63,0,0,0-20.9-25.25,112.88,112.88,0,0,0-27.7-18.11,102.54,102.54,0,0,0-31.85-8.48,127.22,127.22,0,0,0-33.48,1.19,159.57,159.57,0,0,0-32.95,9.09l-.13,0a1.94,1.94,0,0,1-1.82-3.4Z" transform="translate(-495.73 -398)"/><path class="cls-3" d="M1132.18,1086.61l-4,1.27c-1.48.42-3,.8-4.46,1.09a53.83,53.83,0,0,1-9,1,71.56,71.56,0,0,1-17.33-1.69,101.1,101.1,0,0,1-16.08-5.24c-2.59-1-5.06-2.33-7.58-3.48s-4.87-2.63-7.29-3.94c2.62.87,5.22,1.77,7.83,2.59s5.26,1.52,7.93,2.06a96.36,96.36,0,0,0,16,2.24,63.79,63.79,0,0,0,15.53-1.2,43.64,43.64,0,0,0,7.19-2.15c1.15-.44,2.26-1,3.36-1.48l3.6-1.9a5.85,5.85,0,1,1,5.45,10.35,6.67,6.67,0,0,1-.92.39Z" transform="translate(-495.73 -398)"/><path class="cls-3" d="M776.93,1075.8l3.61,1.9c1.1.53,2.21,1,3.36,1.48a43.82,43.82,0,0,0,7.18,2.15,63.91,63.91,0,0,0,15.54,1.2,96.51,96.51,0,0,0,16-2.24c2.67-.54,5.27-1.38,7.93-2.06s5.21-1.72,7.83-2.59c-2.42,1.31-4.83,2.66-7.29,3.94s-5,2.46-7.59,3.48a100.44,100.44,0,0,1-16.08,5.24,71.43,71.43,0,0,1-17.32,1.69,53.83,53.83,0,0,1-9-1c-1.5-.29-3-.67-4.46-1.09l-4-1.27-.21-.06A5.85,5.85,0,0,1,776,1075.4,5.76,5.76,0,0,1,776.93,1075.8Z" transform="translate(-495.73 -398)"/><path class="cls-3" d="M1160.16,1038.85a4.18,4.18,0,0,1-.92-.1,4.37,4.37,0,0,1-3.35-5.18c2-9.38.55-16-4.47-20.34-20.82-17.86-95.62,5-122.69,15.26a4.36,4.36,0,1,1-3.1-8.15c10.45-4,103-38.17,131.47-13.73,7.56,6.49,10,16.18,7.32,28.79A4.36,4.36,0,0,1,1160.16,1038.85Z" transform="translate(-495.73 -398)"/><path class="cls-3" d="M745.83,1038.85a4.36,4.36,0,0,1-4.26-3.45c-2.7-12.61-.23-22.3,7.33-28.79,28.49-24.44,121,9.75,131.47,13.73a4.36,4.36,0,1,1-3.1,8.15c-27.07-10.3-101.89-33.11-122.69-15.26-5,4.31-6.49,11-4.48,20.34a4.35,4.35,0,0,1-3.35,5.18A4.12,4.12,0,0,1,745.83,1038.85Z" transform="translate(-495.73 -398)"/></svg>