<svg id="Layer_13" data-name="Layer 13" xmlns="http://www.w3.org/2000/svg" viewBox="0 0 890.51 970.08"><defs><style>.cls-1{fill:#fff;}.cls-2{fill:#e8e8e8;}.cls-3{fill:#371a45;}.cls-4{fill:#e5e5e5;}.cls-5{fill:#ff4545;}.cls-6{fill:#ff1d1d;}.cls-7{opacity:0.2;}.cls-8{opacity:0.5;}.cls-9{opacity:0.3;}.cls-10{fill:#dbdbdb;}.cls-11{fill:#22a7f0;}.cls-12{fill:#bcbcbc;}.cls-13{opacity:0.7;}.cls-14{fill:#006fa0;}.cls-15{fill:#371944;}.cls-16{fill:#d8d8d8;}.cls-17{fill:#220f2d;}.cls-18{fill:#1c7aea;}</style></defs><path class="cls-1" d="M1279,1029.38c-6,56.48,29.17,182.64,24.56,218.14-2.79,21.49-29.39,36.15-56.35,39.79-16,2.16-35.29.92-48.27-1.22-15-2.48-22.89-18.37-19.37-33.63,2.66-11.54,11.08-19,17.69-21.65-62.07-106.07-65.27-214.58-69-255.55Z" transform="translate(-796.2 -325.26)"/><path class="cls-1" d="M1303.52,1247.52c-2.79,21.49-29.39,36.15-56.35,39.79-16,2.16-35.29.92-48.27-1.22-15-2.48-22.89-18.37-19.37-33.63,2.66-11.54,11.08-19,17.69-21.65-33.21-56.75-49.56-114.17-58.16-161.6-7.49-41.23-9.13-74.89-10.89-94l150.8,54.12c-1.58,14.82-.34,34.45,2.3,56C1288.66,1145.83,1306.91,1221.34,1303.52,1247.52Z" transform="translate(-796.2 -325.26)"/><path class="cls-1" d="M1303.52,1247.52c-2.8,21.5-29.39,36.16-56.36,39.79-16,2.16-35.28.92-48.26-1.23-15-2.47-22.9-18.36-19.37-33.62,2.66-11.54,11.07-19,17.69-21.66-33.21-56.73-49.56-114.16-58.16-161.59-7.5-41.23-9.13-74.9-10.89-94l150.8,54.13c-1.58,14.83-.33,34.44,2.3,56,.63,5.15,1.34,10.42,2.11,15.75C1291.62,1158.35,1306.62,1223.57,1303.52,1247.52Z" transform="translate(-796.2 -325.26)"/><path class="cls-2" d="M1303.52,1247.52c-2.79,21.49-29.39,36.15-56.35,39.79-16,2.16-35.29.92-48.27-1.22-14.94-2.46-22.81-18.2-19.42-33.39,2.22,9.75,9.14,17.71,19.42,19.4,13,2.14,32.23,3.38,48.27,1.22,27-3.64,53.56-18.3,56.35-39.79.06-.43.1-.88.15-1.33A84.28,84.28,0,0,1,1303.52,1247.52Z" transform="translate(-796.2 -325.26)"/><path class="cls-2" d="M1283.38,1101.1c-31.15-16.35-91.94,7.66-144.32-31.89-7.5-41.23-9.13-74.9-10.89-94l150.8,54.13c-1.58,14.83-.33,34.44,2.3,56C1281.9,1090.5,1282.61,1095.77,1283.38,1101.1Z" transform="translate(-796.2 -325.26)"/><path class="cls-3" d="M1228.63,1294.43a195.79,195.79,0,0,1-30.71-2.44,28.88,28.88,0,0,1-19.44-12.64,36.16,36.16,0,0,1-4.78-28.23,37.84,37.84,0,0,1,15.3-22.59c-54.35-95.89-62-192.91-65.74-240-.37-4.76-.71-9-1-12.74a6,6,0,0,1,11.92-1.09c.34,3.75.68,8.07,1.07,12.89,3.72,47.05,11.46,145,67.18,240.19a6,6,0,0,1-2.91,8.57,25.34,25.34,0,0,0-14.11,17.45,24.52,24.52,0,0,0,3.06,18.88,16.91,16.91,0,0,0,11.45,7.49c11.48,1.9,30.54,3.35,46.5,1.19,23.63-3.18,48.81-16.1,51.22-34.62,2-15.14-4.15-50.08-10.63-87.07-8.13-46.47-17.34-99.14-14-130.93a6,6,0,0,1,11.91,1.27c-3.22,30.11,5.84,81.9,13.84,127.59,6.92,39.57,12.9,73.73,10.7,90.68-3.33,25.64-34.21,41.27-61.49,45A146.84,146.84,0,0,1,1228.63,1294.43Z" transform="translate(-796.2 -325.26)"/><path class="cls-1" d="M1249.76,746c-124-70.13-202.37-209.79-202.37-209.79-3.58-5.42-8.35-43.2-12.06-50.37-16.38-31.55-50.92-51.61-70.83-51.57-9.5,0-18,9.61-6.64,36.32-71.22,28.47-36,87.28-20.88,107.52,91.26,213.23,249.47,283.29,249.47,283.29" transform="translate(-796.2 -325.26)"/><path class="cls-1" d="M1249.76,746l-38.45,70.07-24.86,45.32S1028.23,791.36,937,578.13c-13.85-18.52-44.55-69.42,5.08-99.72a105.75,105.75,0,0,1,15.8-7.79c-11.38-26.71-2.85-36.3,6.65-36.32,19.9,0,54.45,20,70.83,51.57,3.72,7.17,8.47,45,12.06,50.37C1047.39,536.24,1125.73,675.9,1249.76,746Z" transform="translate(-796.2 -325.26)"/><path class="cls-1" d="M1249.76,746l-18,32.85-4.21,7.66-16.22,29.56-24.86,45.32S1028.23,791.36,937,578.13c-13.85-18.52-44.55-69.42,5.08-99.72a105.75,105.75,0,0,1,15.8-7.79c-11.38-26.71-2.85-36.3,6.65-36.32,19.9,0,54.45,20,70.83,51.57,3.72,7.17,8.47,45,12.06,50.37,0,0,29.34,52.31,80.54,109q7.39,8.19,15.38,16.45C1173.07,692.34,1209,723,1249.76,746Z" transform="translate(-796.2 -325.26)"/><path class="cls-2" d="M1249.76,746l-18,32.85c-71-32.48-96.24-104.49-103.81-133.68q7.39,8.19,15.38,16.45C1173.07,692.34,1209,723,1249.76,746Z" transform="translate(-796.2 -325.26)"/><path class="cls-2" d="M1428.53,774.72c-15.1,8.1-35.49,15.63-62.32,19.35l-12.11-47.42C1380.53,749.9,1405.08,760.34,1428.53,774.72Z" transform="translate(-796.2 -325.26)"/><path class="cls-2" d="M1394,788.39c-27,7.49-63,11.14-110,5.12-40.93-5.23-71.59-21.83-94.47-42.49l11.33-19.72s168.64-56.83,180.26-11.9C1385.49,736.51,1389.93,761,1394,788.39Z" transform="translate(-796.2 -325.26)"/><path class="cls-2" d="M1408.71,768.73a172.88,172.88,0,0,1-46.83,22.48l-12-42.11C1369,750.83,1389.2,758.34,1408.71,768.73Z" transform="translate(-796.2 -325.26)"/><path class="cls-2" d="M1392.49,778.54c-25.85,13.69-57.29,21.7-91.19,21.7-46.53,0-88.4-15.1-117.58-39.19l17.09-29.75s168.64-56.83,180.26-11.9C1385,734.44,1388.84,755.13,1392.49,778.54Z" transform="translate(-796.2 -325.26)"/><path class="cls-2" d="M1211.31,816.11l-24.86,45.32S1028.23,791.36,937,578.13c-13.85-18.52-44.55-69.42,5.08-99.72l60.51,43.69c3.5,39.82-26.09,61.59-1.74,118.55,36.51,85.44,136.91,164.9,195.95,169.71C1203,810.87,1207.76,812.94,1211.31,816.11Z" transform="translate(-796.2 -325.26)"/><path class="cls-3" d="M1186.44,867.41a6,6,0,0,1-2.42-.51c-1.65-.73-41-18.39-92-62.63C1045.14,763.64,979.32,692,931.75,581.14c-9.4-12.72-29.18-44.1-20.91-73.47,4.8-17.05,18-30.58,39.32-40.27-4.92-13.7-5-24.25-.29-31.42a17.16,17.16,0,0,1,14.62-7.66h.07c23,0,59.06,22,76.08,54.8,2.07,4,3.84,12.79,6.52,26.8,1.57,8.24,3.95,20.71,5.27,23.11.08.12.11.16.18.28.77,1.39,79,139.05,200.1,207.51a6,6,0,0,1-5.9,10.42c-122.19-69.09-201.45-206.47-204.55-211.91-2.18-3.51-3.79-11.09-6.86-27.17-1.68-8.78-4-20.8-5.39-23.53-15.55-30-48.58-48.34-65.45-48.34h0a5.19,5.19,0,0,0-4.65,2.28c-1.06,1.61-4,8.22,3.5,25.7a6,6,0,0,1-3.28,7.91c-20.89,8.35-33.59,20-37.72,34.74-7,24.69,11.26,52.73,19.41,63.64a6.47,6.47,0,0,1,.71,1.22c46.59,108.88,111.08,179.24,157,219.1,49.77,43.22,89,60.9,89.42,61.08a6,6,0,0,1-2.43,11.45Z" transform="translate(-796.2 -325.26)"/><path class="cls-3" d="M1021.72,723.15l-2.88,0a4.9,4.9,0,0,1,.23-9.79c32.5.76,58.32-12.18,76.76-38.47a122.92,122.92,0,0,0,18.35-40.73,4.9,4.9,0,0,1,9.6,1.94,130.44,130.44,0,0,1-19.73,44.12C1090.3,699.92,1064.93,723.15,1021.72,723.15Z" transform="translate(-796.2 -325.26)"/><path class="cls-1" d="M1323.36,735.44l-4.86,33.27L1316,785.66l-42.69,292.26s20.09,1.78,47.23,2c5.31,0,10.88,0,16.63-.07,42.84-.72,95.18-6.14,116.4-26.58,31.72-30.57,48.29-189.95,26.74-255.2-9.87-29.91-69.9-47-112.8-55.56-4.79-1-9.38-1.81-13.65-2.55C1335.88,736.8,1323.36,735.44,1323.36,735.44Z" transform="translate(-796.2 -325.26)"/><path class="cls-4" d="M1318.5,768.71,1316,785.66l-33.9,232.05-8.79,60.21,1.22.1.78.06.74.05.58,0,.25,0,1.19.08a1.23,1.23,0,0,0,.28,0l1.1.08,1.65.11,1.28.08,1.37.08,1.84.12,4.09.22c1.26.07,2.6.14,4,.19,1.61.07,3.29.16,5,.22,6.44.25,13.83.45,21.84.52l4.74,0c1.12,0,2.26,0,3.41,0,2.77,0,5.62,0,8.48-.08,42.86-.72,95.18-6.14,116.39-26.59,26.12-25.16,42-137.67,34.72-213-2.54,64.9-16.39,133.45-36.08,152.42-9.74,9.38-19.87-33.28-17.3-53.92,6.62-53.24-17.19-119.4-62.49-164.94C1371.25,772.59,1342.16,773.51,1318.5,768.71Z" transform="translate(-796.2 -325.26)"/><path class="cls-3" d="M1326.13,1086c-28.77,0-51.05-1.9-53.34-2.1l-6.3-.56,51.78-354.45,5.73.62a577.29,577.29,0,0,1,73.49,13.72c51.58,13.47,81.37,31.3,88.53,53,22.48,68.06,5,229.29-28.28,261.39C1433.19,1081.24,1371.57,1086,1326.13,1086Zm-46-13.55c27.61,1.85,137.54,7.1,169.27-23.47,13.48-13,25.87-56.53,31.55-110.91,5.82-55.72,3.4-108.64-6.34-138.1-11.28-34.17-104.42-52.66-146.21-57.89Z" transform="translate(-796.2 -325.26)"/><path class="cls-1" d="M1497.36,929.49c-8.19-7.82-65-12.17-65-12.17A13.86,13.86,0,0,0,1419,927.78c-5.66,22.43-16,74.87,4.83,93.85,17.33,15.77,43.63,11.47,58.73-.8,11.79-9.57,15.73-28.86,17.76-48.29C1502.51,951.5,1503.75,935.58,1497.36,929.49Z" transform="translate(-796.2 -325.26)"/><path class="cls-1" d="M1500.31,972.55c-1,10-2.6,20-5.49,28.62-2.69,8.1-6.56,15-12.27,19.66-15.1,12.26-41.4,16.57-58.73.8-16.37-14.89-13.52-50.39-8.79-75.81v0c1.29-7,2.74-13.19,4-18a13.85,13.85,0,0,1,13.36-10.46s56.83,4.34,65,12.17C1503.75,935.58,1502.52,951.5,1500.31,972.55Z" transform="translate(-796.2 -325.26)"/><path class="cls-4" d="M1494.82,1001.17c-2.69,8.1-6.56,15-12.27,19.66-15.1,12.26-41.4,16.57-58.73.8-16.37-14.89-13.52-50.39-8.79-75.81,0,1.07.86,27.9,9.61,26.49,6.89-1.1,11.9-14.53,12.2-15.33,0,1.75,1.25,54.73,30,54C1479.77,1010.71,1488.69,1006.49,1494.82,1001.17Z" transform="translate(-796.2 -325.26)"/><path class="cls-3" d="M1451.19,1037.77c-11.17,0-22.38-3.51-31.4-11.71-22.49-20.46-13.79-71.27-6.6-99.74a19.85,19.85,0,0,1,19.12-15h.25l.25,0c17.72,1.36,59.9,5.42,68.68,13.81h0c8.31,7.92,7.35,23.42,4.77,48-2,19.51-6,41-19.93,52.3A56.87,56.87,0,0,1,1451.19,1037.77Zm-19-114.46a7.88,7.88,0,0,0-7.39,5.94c-11,43.37-9.81,76.25,3.06,88,14.67,13.35,37.42,10,50.93-1,10.61-8.61,13.9-28.18,15.58-44.26,1.49-14.2,3.52-33.65-1.12-38.1C1488.93,930,1458.25,925.32,1432.18,923.31Zm61.06,10.51h0Zm0,0Z" transform="translate(-796.2 -325.26)"/><path class="cls-3" d="M1465.27,1033.78c-10.06.9-19-6.14-23.87-14.14-11.33-19.25-9.13-42.2-6-63.19a62.21,62.21,0,0,1,3.34-12.46,1.17,1.17,0,1,1,2.13,1,61.06,61.06,0,0,0-2.45,11.95c-2,21.13-3.31,53.76,16.39,66.82,3,1.84,6.63,2.79,9.49,2.32a3.9,3.9,0,1,1,1,7.74Z" transform="translate(-796.2 -325.26)"/><path class="cls-3" d="M1393.63,782.69c14.35-.36,28.62-.19,43,.61,14.53.9,28.87,2.13,43.12,6,5.69,1.76,3.15,10.18-2.59,8.46-13.1-4.28-27.28-6.23-41.08-7.77-14-1.5-28.26-2.37-42.37-2.73a2.28,2.28,0,0,1,0-4.56Z" transform="translate(-796.2 -325.26)"/><path class="cls-1" d="M1411.76,979.86c-1,3.83-2.13,8.47-3.66,13.67-7.19,24.26-22.88,60.58-69.71,82-13.62,6.24-37.62-4.08-52.73-.62-73.81,11.35-135.66-29.64-135.66-29.64-19.61-22.7-26.45-57.56-25.2-95.7,1.82-55.18,20.56-117.22,42.09-159.23l33.91-59.1s168.65-56.81,180.27-11.9C1396.42,778.74,1411.76,926.19,1411.76,979.86Z" transform="translate(-796.2 -325.26)"/><path class="cls-2" d="M1408.1,993.53c-7.19,24.26-22.88,60.58-69.71,82-13.62,6.24-37.62-4.08-52.73-.62-73.81,11.35-135.66-29.64-135.66-29.64-19.61-22.7-26.45-57.56-25.2-95.7,45,16.57,119,34.45,223.13,30.42C1375.8,979,1395.11,984.26,1408.1,993.53Z" transform="translate(-796.2 -325.26)"/><path class="cls-2" d="M1394,788.39c-27,7.49-63,11.14-110,5.12-40.93-5.23-71.59-21.83-94.47-42.49l11.33-19.72s168.64-56.83,180.26-11.9C1385.49,736.51,1389.93,761,1394,788.39Z" transform="translate(-796.2 -325.26)"/><path class="cls-3" d="M1287.42,1064.77c8.07-1.22,16.25.38,23.76,2.76,6.62,2,13.49,4.94,20.07,5.06,3,0,5-.79,8.54-2.68a130.65,130.65,0,0,0,22.69-14c18.29-14.28,31.62-34.23,39-56.19,2.35-6.8,4.2-13.75,6-20.92l-.14,1.1c-.52-37.45-4.1-75.17-8-112.49-5.6-49-11.34-98.16-22.71-146.15-1.27-5.74-5.65-9-11.43-11.08-37.11-12.27-120.43,12.78-160.32,22.38l-1.71.43-.85.22-.43.11-.21.05s-.25.09.08,0a1.88,1.88,0,0,0,.84-.76,2.21,2.21,0,0,1-3.66-2.48,2.73,2.73,0,0,1,1.33-.94l.21-.09.41-.16c8.4-3.36,17.36-6.56,25.94-9.36,31.27-10.06,133.49-38.87,155.28-8.64,3,3.87,4.18,10.33,5.28,15,13.91,64.92,20.31,131.08,26,197.09,1.4,19.07,2.65,38.14,2.78,57.43-5.17,22.17-13.49,44.31-27.91,62.28-1,1.14-4.52,5.39-5.59,6.56-1.55,1.66-4.53,4.52-6.06,6.12a125.2,125.2,0,0,1-13.32,10.86,128.07,128.07,0,0,1-19.63,11.64,26.67,26.67,0,0,1-9,3.33c-16.14,1.81-30.08-10.34-46.06-7.65a4.42,4.42,0,0,1-1.21-8.76Z" transform="translate(-796.2 -325.26)"/><path class="cls-3" d="M1169.55,791.75a525.16,525.16,0,0,0-21.65,62.34c-12.25,41.7-20.53,85.63-15.44,129.13,2.24,21.6,9.47,41.17,19.85,60.22a3.06,3.06,0,0,1-4.58,3.83c-9.3-7.34-15.69-17.87-19.8-28.76-14.16-38-10.4-79.75-3.56-118.65A330.15,330.15,0,0,1,1148.7,819a277.51,277.51,0,0,1,15.52-30c1.9-3.06,6.75-.71,5.33,2.73Z" transform="translate(-796.2 -325.26)"/><path class="cls-2" d="M1658.5,937.21s7.87,34.79-9.46,40.9c-17.48,6.18-25.23-14.21-25.23-14.21l-38.6,1.41-7.18-29,61.81-15.21" transform="translate(-796.2 -325.26)"/><path class="cls-3" d="M1642.54,985.29c-11,0-18.61-8.21-22.47-15.27l-34.65,1.27a6,6,0,0,1-6-4.55l-7.18-29a6,6,0,0,1,4.38-7.25l61.81-15.21a6,6,0,0,1,2.86,11.62l-56,13.78,4.57,18.45,33.74-1.23a6,6,0,0,1,5.81,3.85c.59,1.5,6.14,14.76,17.65,10.7,9.26-3.27,7.78-24.28,5.61-34a6,6,0,0,1,11.68-2.64c.92,4.1,8.42,40.21-13.3,47.88A25.39,25.39,0,0,1,1642.54,985.29Z" transform="translate(-796.2 -325.26)"/><path class="cls-1" d="M1354.1,746.65c87.62,10.79,154.62,100.46,228.69,151.77,5.64.67,17-3,41.2,1,29,4.79,63.67,27.32,54.68,44.56-7,13.49-34.3.71-47.71-2.35-9.62-.34-40.54,23.41-45.37,23.25-26.84-.89-32.27,13.36-63.87,2.58-67.31-22.95-132-81.48-132-81.48Z" transform="translate(-796.2 -325.26)"/><path class="cls-1" d="M1678.66,943.94l-.16.28c-7.25,13-34.22.41-47.55-2.62-9.61-.35-40.54,23.39-45.36,23.23-26.84-.88-32.26,13.37-63.87,2.59-67.32-22.95-132-81.48-132-81.48l-.29-1.12L1354.1,746.65c87.62,10.79,154.63,100.46,228.68,151.78,5.65.65,17-3.06,41.21.94C1653,904.17,1687.66,926.71,1678.66,943.94Z" transform="translate(-796.2 -325.26)"/><path class="cls-2" d="M1428.53,774.72c-15.1,8.1-35.49,15.63-62.32,19.35l-12.11-47.42C1380.53,749.9,1405.08,760.34,1428.53,774.72Z" transform="translate(-796.2 -325.26)"/><path class="cls-2" d="M1678.5,944.22c-7.25,13-34.22.41-47.55-2.62-9.61-.35-40.54,23.39-45.36,23.23-26.84-.88-32.26,13.37-63.87,2.59-67.32-22.95-132-81.48-132-81.48l-.29-1.12c52.74,35.27,147.95,71.47,150.3,72.08,15.33,3.94,82.11-30.26,86.19-30C1629.11,927.12,1659.36,943.5,1678.5,944.22Z" transform="translate(-796.2 -325.26)"/><path class="cls-3" d="M1354.83,740.71c71.91,9.69,125.26,64.73,177.68,109.74,17.39,15.18,35,30.06,53.69,43l-2.71-1a28,28,0,0,0,4.11-.2c20.3-2.37,41.6-.42,60.5,7.51,14.22,6.27,29,14.33,36.47,28.92,3.49,7,2.85,16.55-2.92,22.33-8.86,8.59-21.86,5.5-32,3-6.73-1.75-13.73-4.35-20.2-5.92l1.25.16c-3.93.73-8.34,3.43-12.12,5.45-9.38,5.19-18.28,11.79-28.09,16.54a12.09,12.09,0,0,1-5.88,1.18c-11.05-.56-19.73,3-31,5.41a54.79,54.79,0,0,1-19.11.35c-39.39-8-90.63-40.22-121.74-65.5-8.67-7.3-17.54-15.08-25.15-23.54-2.25-2.64,1-6.55,4-4.44,41.12,28.82,81.79,60,129.5,76.81a76.87,76.87,0,0,0,15.24,4c11.12,1.88,19.9-2,31.12-4.62a73.6,73.6,0,0,1,18-1.74h.29a2.65,2.65,0,0,0-.61,0c-.59.07-.5.09-.46.06,9.45-4.72,17.87-11.09,27.29-16.23,6.27-3.26,11.48-6.88,19.2-7.16,8.14.75,38.87,14.94,42,4.93a7.58,7.58,0,0,0-.7-5.59c-2.39-5-7.4-9.44-12.11-12.89-20.5-14.84-46.93-19.55-71.77-17a40.05,40.05,0,0,1-7.94-.07c-19.85-13.67-38.15-29.17-56-44.78-34.65-30.11-68.29-62.3-108.21-84.91-19.69-11.07-41-19.27-63.06-22-7.58-1.05-6.68-12.56,1.47-11.88Z" transform="translate(-796.2 -325.26)"/><path class="cls-3" d="M1457.62,940.74a4.9,4.9,0,0,1-4.85-4.22c-7.9-56.91,51.8-100.12,54.35-101.93a4.9,4.9,0,0,1,5.68,8c-.58.41-57.41,41.61-50.33,92.6a4.89,4.89,0,0,1-4.17,5.53A5.27,5.27,0,0,1,1457.62,940.74Z" transform="translate(-796.2 -325.26)"/><path class="cls-1" d="M1575.57,945.64c13.64,10.41,28.57,13.67,34.47,24.4,3.93,7.15,1.15,16.06-4.55,19.12-19.52,10.5-64.48-9.7-74.31-13.42s-44.23-22.68-65.59-34.81Z" transform="translate(-796.2 -325.26)"/><path class="cls-1" d="M1610.86,982.73a12.09,12.09,0,0,1-5.37,6.43c-19.52,10.5-64.48-9.7-74.3-13.42s-44.25-22.68-65.6-34.81l38.32,1.63,71.66,3.08c13.64,10.41,28.57,13.67,34.47,24.41A15.1,15.1,0,0,1,1610.86,982.73Z" transform="translate(-796.2 -325.26)"/><path class="cls-2" d="M1610.86,982.73a12.09,12.09,0,0,1-5.37,6.43c-19.52,10.5-64.48-9.7-74.3-13.42s-44.25-22.68-65.6-34.81l38.32,1.63s0,0,0,0C1518.34,948,1571,994.53,1610.86,982.73Z" transform="translate(-796.2 -325.26)"/><path class="cls-3" d="M1577.38,943.26c7.91,4.43,15.89,7.33,24.11,11.63,4.18,2.3,8.71,5.22,12.18,9.94,8.1,10.21,4.11,27.49-9,31.49-14.64,4.89-29.93,1-43.76-2.7a299.62,299.62,0,0,1-38.8-14.75c-20.32-10.17-40-21.39-59.52-32.74-6.6-4.1-1.09-14,5.91-10.4,23.55,12.47,46.52,26.64,71.31,36.35,15.92,6.12,32.85,12.59,49.64,13.6,5.32,0,10.33.15,14.25-2.89a9.2,9.2,0,0,0,.35-11.23c-1.74-2.69-4.69-5.16-8.16-7.51-7-4.72-15.5-9.27-22.19-16a3,3,0,0,1,3.63-4.76Z" transform="translate(-796.2 -325.26)"/><path class="cls-1" d="M1408.59,934.27C1410,988.7,1422.87,1073,1429,1086.19c25.9,45.66,55.6,75.44,62.79,99.15,6.76,22.31,3,72.21-18.5,91-19.62,17.15-56,16.59-70.59,2.38-16.57-16.09-11-45-8.29-60.91-34.18-18.11-62.77-43.33-77-66.14-11.55-18.58-22.56-49.55-29.21-73.91-.65-2.41-27.9,4.29-64.08-4.36" transform="translate(-796.2 -325.26)"/><path class="cls-1" d="M1473.28,1276.33c-19.63,17.15-56,16.59-70.6,2.38-16.56-16.1-11-45-8.29-60.91-34.18-18.11-62.77-43.33-77-66.14-8.8-14.15-17.28-35.5-23.77-55.63-2-6.3-3.86-12.48-5.44-18.28-.65-2.4-27.9,4.28-64.09-4.36l118-89,5.78-4.36,60.67-45.76c.3,11.4,1.09,24.13,2.23,37.25.22,2.52.45,5,.69,7.58a4.28,4.28,0,0,1,0,.49c.25,2.7.53,5.41.81,8.11.83,8,1.76,16,2.76,23.81a2,2,0,0,0,0,.35c.16,1.32.33,2.63.49,3.94s.35,2.6.53,3.9c.35,2.58.7,5.13,1.06,7.63.11.84.23,1.66.35,2.48.42,2.92.84,5.76,1.28,8.53q.13.9.27,1.77c0,.38.11.74.18,1.1q.45,3,.92,5.78c.19,1.12.37,2.23.56,3.31.22,1.32.45,2.62.67,3.89.1.64.21,1.27.34,1.89.06.37.12.75.2,1.11.12.73.26,1.46.4,2.18a2.08,2.08,0,0,0,0,.23c.18,1,.36,1.93.54,2.88.14.7.27,1.4.41,2.07s.25,1.31.39,2a.2.2,0,0,0,0,.07c.09.43.17.86.26,1.29q.43,2.13.87,4.08c.23,1,.45,2,.67,3,.14.61.29,1.21.43,1.78s.28,1.19.43,1.75a53,53,0,0,0,2.49,7.74c25.91,45.65,55.62,75.43,62.79,99.15C1498.53,1207.65,1494.76,1257.54,1473.28,1276.33Z" transform="translate(-796.2 -325.26)"/><path class="cls-2" d="M1473.27,1276.33c-19.62,17.15-56,16.59-70.6,2.38-7.78-7.55-10.67-17.93-11.29-28.45a35.51,35.51,0,0,0,9.25,15.91c14.64,14.21,51,14.77,70.61-2.39,17.55-15.34,23.28-51.5,21.1-76.36C1498.28,1210.62,1494.12,1258.12,1473.27,1276.33Z" transform="translate(-796.2 -325.26)"/><path class="cls-2" d="M1360.74,1172.51c-3.5-10.21,21-25.37,35.43-18.58,12.28,5.77,35,37.46,22,44.82C1401.27,1208.38,1364.24,1182.71,1360.74,1172.51Z" transform="translate(-796.2 -325.26)"/><path class="cls-2" d="M1200.31,1197.46c2.6-13.39,35.87-17.17,46.14-4.89,8.7,10.4,6.2,32.23-8.5,34.65C1202.67,1233,1199.11,1203.65,1200.31,1197.46Z" transform="translate(-796.2 -325.26)"/><path class="cls-2" d="M1426.83,1079.77c-25.15-8.47-85.63-26.68-133.15,16.26h0c-2-6.3-3.86-12.48-5.44-18.28-.65-2.4-27.9,4.28-64.09-4.36l118-89,5.78-4.36c.92-.12,43-4.21,62.9-8.51h0c.22,2.52.45,5,.68,7.58a4.28,4.28,0,0,1,0,.49l.81,8.11c.84,8,1.77,16,2.76,23.81a2,2,0,0,0,0,.35c.16,1.32.33,2.63.49,3.94s.35,2.6.53,3.9c.35,2.58.7,5.13,1.06,7.63.11.84.23,1.66.35,2.48.42,2.92.84,5.76,1.28,8.53q.13.9.27,1.77c0,.38.11.74.18,1.1q.45,3,.92,5.78c.19,1.12.37,2.23.56,3.31.22,1.32.45,2.62.67,3.89.1.64.21,1.27.34,1.89.06.37.12.75.2,1.11.12.73.26,1.46.4,2.18a2.08,2.08,0,0,0,0,.23c.18,1,.36,1.93.54,2.88.14.7.27,1.4.41,2.07s.25,1.31.39,2a.2.2,0,0,0,0,.07c.09.43.17.86.26,1.29q.43,2.13.87,4.08c.23,1,.45,2,.67,3,.14.61.29,1.21.43,1.78s.28,1.19.43,1.75S1426.72,1079.34,1426.83,1079.77Z" transform="translate(-796.2 -325.26)"/><path class="cls-3" d="M1414.57,934.11c1.29,38,5.83,76.12,11.9,113.68,2.22,12,3.89,24.46,7.94,35.88,5.83,10.36,15.3,25.07,23.28,36.41,8.35,12,17.24,23.76,25.62,36.27,6.27,9.5,12.84,20.11,15.33,31.7,3.81,19.15,2.41,38.81-2.25,57.66-3.92,15.25-11.62,31.56-25.78,40-20,12.15-50.76,13.81-69.9-.76a41.09,41.09,0,0,1-13.36-21.7c-4-15.55-1.48-31.36,1.14-46.45l3.1,6.3c-27.82-15-53.83-34.37-73.29-59.64a147.22,147.22,0,0,1-16.07-27.79,322,322,0,0,1-19.72-56.12l0-.12v-.06s-.06-.17.09.29a5.67,5.67,0,0,0,.88,1.65,5.12,5.12,0,0,0,2.91,1.87,3.65,3.65,0,0,0-.84-.06c-10.12.25-20.91.66-31.11-.44a139.53,139.53,0,0,1-31-6.37,3,3,0,0,1,1.39-5.82,222.26,222.26,0,0,0,52.62,1.35c5.7-.17,15-2.94,16.81,5.23,5.53,18.08,11.47,36.26,19,53.57,7.67,18.46,19.85,34.1,34.68,47.47a242.31,242.31,0,0,0,49.22,34.42,6,6,0,0,1,3.07,6.29,191.85,191.85,0,0,0-2.87,21.29c-.41,6.94-.16,13.83,1.5,20.08,2.26,9.16,8.26,16.78,17.32,19.92,15.37,5.64,34.29,3.74,48-4.56,21.67-13.43,25.8-51.32,24.16-74.75-.65-14.21-7.14-26.12-15.1-37.81-16.63-24.34-35.35-48.19-49.79-74.27-2.72-6.61-3.88-13-5.37-19.84-3.83-19-6.62-38.15-9.08-57.34-3.18-25.62-5.72-51.24-6.49-77.1,0-7.76,11.45-8.39,12-.32Z" transform="translate(-796.2 -325.26)"/><path class="cls-5" d="M1053.21,529.57c12.29,45.61,71.1,38.08,71.52,30.32s-35.67-10.58-34.82-48.31C1090.58,482.17,1043.73,494.37,1053.21,529.57Z" transform="translate(-796.2 -325.26)"/><path class="cls-6" d="M1089.91,511.59c-.85,37.72,35.25,40.53,34.82,48.3-.13,2.45-6.07,4.87-14.52,5.61-15.43,1.36-39.27-2.89-51.46-22.84a49.81,49.81,0,0,1-5.54-13.09C1043.72,494.37,1090.58,482.17,1089.91,511.59Z" transform="translate(-796.2 -325.26)"/><g class="cls-7"><path class="cls-3" d="M1089.91,511.59c-.85,37.72,35.25,40.53,34.82,48.3-.13,2.45-6.07,4.87-14.52,5.61,1.86-2.39,3-5.35.56-8-5.11-5.53-15-11.83-24.44-21.15-7.33-7.22-17.59,2.14-27.58,6.28a49.81,49.81,0,0,1-5.54-13.09C1043.72,494.37,1090.58,482.17,1089.91,511.59Z" transform="translate(-796.2 -325.26)"/></g><path class="cls-3" d="M1105,570c-19.32,0-47.52-8.14-55.92-39.32-3.62-13.43-.26-25.63,9.21-33.47,7.75-6.42,18.1-8.24,25.75-4.53,6.65,3.22,10.35,10.15,10.15,19-.53,23.31,13.94,31.45,24.51,37.4,5.91,3.32,10.58,5.95,10.3,11-.37,6.76-11.07,8.88-17.42,9.55A64,64,0,0,1,1105,570Zm-29.64-70.68a18.76,18.76,0,0,0-11.62,4.47c-6.78,5.62-9.11,14.6-6.4,24.67h0c5.41,20.08,20.34,27.94,31.91,31,13.44,3.55,25.42,1.69,30-.14-1.29-.87-3.18-1.94-4.7-2.79-10.32-5.8-29.52-16.6-28.87-45,.09-3.85-.77-8.91-5.32-11.11A11.26,11.26,0,0,0,1075.36,499.32Z" transform="translate(-796.2 -325.26)"/><g class="cls-8"><path class="cls-1" d="M1089.31,558a25.2,25.2,0,0,1-20.12-10.52S1080.43,550.64,1089.31,558Z" transform="translate(-796.2 -325.26)"/></g><path class="cls-5" d="M1057.88,443.88c17.17-44,74.82-30.13,74.4-22.37s-36.62,6.64-39.87,44.23C1089.88,495.06,1044.63,477.84,1057.88,443.88Z" transform="translate(-796.2 -325.26)"/><path class="cls-6" d="M1092.41,465.74c3.25-37.59,39.44-36.46,39.87-44.23.13-2.45-5.51-5.5-13.83-7.16-15.2-3-39.35-1.39-53.63,17.12a49.46,49.46,0,0,0-6.94,12.41C1044.63,477.84,1089.88,495.06,1092.41,465.74Z" transform="translate(-796.2 -325.26)"/><g class="cls-7"><path class="cls-3" d="M1092.41,465.74c3.25-37.59,39.44-36.46,39.87-44.23.13-2.45-5.51-5.5-13.83-7.16,1.59,2.58,2.39,5.65-.31,8-5.69,4.94-16.18,10.13-26.59,18.37-8.07,6.38-17.26-4-26.73-9.24a49.46,49.46,0,0,0-6.94,12.41C1044.63,477.84,1089.88,495.06,1092.41,465.74Z" transform="translate(-796.2 -325.26)"/></g><path class="cls-3" d="M1078.07,485a26.64,26.64,0,0,1-18.66-8.38c-8.56-8.82-10.57-21.32-5.51-34.28h0c13.16-33.72,47.91-35.95,66.37-32,6.24,1.35,16.64,4.63,16.28,11.39-.28,5.09-5.21,7.19-11.45,9.86-11.15,4.75-26.42,11.27-28.43,34.5-.76,8.83-5.19,15.31-12.15,17.79A19.11,19.11,0,0,1,1078.07,485Zm-16.21-39.55c-3.79,9.71-2.44,18.9,3.69,25.22,4.64,4.78,11.26,6.92,16.1,5.19s6.17-6.63,6.5-10.46c2.45-28.35,22.71-37,33.6-41.64,1.6-.68,3.6-1.53,5-2.26-4.32-2.32-16-5.47-29.77-3.4-11.84,1.79-27.54,8-35.1,27.35Z" transform="translate(-796.2 -325.26)"/><g class="cls-8"><path class="cls-1" d="M1096.86,419.53a25.19,25.19,0,0,0-21.14,8.27S1087.23,425.89,1096.86,419.53Z" transform="translate(-796.2 -325.26)"/></g><path class="cls-6" d="M1074.36,529.1l12.69-2a15.77,15.77,0,0,0,12.44-10.36h0a94.73,94.73,0,0,0,3.35-50.85h0a15.78,15.78,0,0,0-11-11.91l-12.32-3.64Z" transform="translate(-796.2 -325.26)"/><g class="cls-9"><path class="cls-1" d="M1104.78,489.06c0,1-.09,1.94-.16,2.91a95,95,0,0,0-2-20.14,15.8,15.8,0,0,0-11-11.92l-12.31-3.64.19-2.9,0-3,12.31,3.64a15.8,15.8,0,0,1,11,11.91A95.15,95.15,0,0,1,1104.78,489.06Z" transform="translate(-796.2 -325.26)"/></g><g class="cls-7"><path class="cls-3" d="M1104.78,489.06a94.69,94.69,0,0,1-5.29,27.68,15.8,15.8,0,0,1-12.44,10.37l-12.69,2,2.72-41.22c1.3,2.77,4.32,6.4,11.26,6.68,11.31.45,16.49-10.21,16.49-10.21a.06.06,0,0,0,0,0C1104.87,485.89,1104.84,487.48,1104.78,489.06Z" transform="translate(-796.2 -325.26)"/></g><path class="cls-1" d="M802.07,478c6.38,9.47,20.81,27.52,46.55,43.79,21.16,13.37,50,25.53,88.26,30.71a255.46,255.46,0,0,0,64.75.87c47.72-5.7,72.73-24.25,72.73-24.25.29-.65.58-1.31.85-2A113.61,113.61,0,0,0,1083,466c0-.2-.06-.4-.1-.6a113.25,113.25,0,0,0-3.37-15s-7.83-7.58-23.88-16.25q-3.95-2.14-8.54-4.32c-3.64-1.71-7.59-3.43-11.85-5.1l-1.22-.47c-5.47-2.11-11.44-4.12-17.91-6-1.79-.5-3.62-1-5.48-1.47a255.83,255.83,0,0,0-64.35-7.64c-1.56,0-3.12,0-4.65.06-6.56.13-12.87.5-18.94,1.07a230.27,230.27,0,0,0-23.82,3.5A205.18,205.18,0,0,0,867,422.89c-1.88.72-3.72,1.44-5.53,2.2-31.66,13.11-50.39,31-58.55,40.21A10.36,10.36,0,0,0,802.07,478Z" transform="translate(-796.2 -325.26)"/><path class="cls-1" d="M1084.14,488a113.55,113.55,0,0,1-8.93,39.18c-.27.65-.56,1.31-.85,2,0,0-25,18.56-72.73,24.26a255.46,255.46,0,0,1-64.75-.87c-38.29-5.18-67.1-17.35-88.26-30.71-25.74-16.27-40.17-34.32-46.55-43.79a10.38,10.38,0,0,1,.82-12.68c8.16-9.21,26.89-27.1,58.55-40.21q2.71-1.14,5.53-2.2a206,206,0,0,1,31.94-9.13q5.45-1.1,11.25-2,6.11-.92,12.57-1.53c6.07-.57,12.38-.94,18.93-1.07,1.54,0,3.1-.06,4.66-.06a255.83,255.83,0,0,1,64.35,7.64c1.8.46,3.57.94,5.3,1.42l.17.05c6.48,1.84,12.45,3.86,17.92,6l1.21.47c4.27,1.67,8.22,3.39,11.86,5.1q4.61,2.18,8.54,4.32c16,8.67,23.88,16.25,23.88,16.25a112.94,112.94,0,0,1,3.38,15l.09.6A113.51,113.51,0,0,1,1084.14,488Z" transform="translate(-796.2 -325.26)"/><path class="cls-10" d="M848.62,521.77c21.16,13.36,50,25.53,88.26,30.71a255.46,255.46,0,0,0,64.75.87c47.72-5.7,72.73-24.26,72.73-24.26.29-.64.58-1.3.85-2A113.58,113.58,0,0,0,1083,466l-.09-.6a113.08,113.08,0,0,0-3.38-15s-7.83-7.58-23.88-16.25q-2-1.06-4.1-2.15c.43.29,23.51,16.11,17.63,35.05-2.8,9-11.52,17.88-18.18,19.49-.1,5.95,3.47,22.56-13.59,37-33.5,28.35-130.81,19.26-184.86-9.15-9.17-4.82-15.76-5.88-20.35-4.27A177.17,177.17,0,0,0,848.62,521.77Z" transform="translate(-796.2 -325.26)"/><path class="cls-11" d="M877.69,419.2a274,274,0,0,0-7.53,114.28c-39.55-18.39-60.1-43.65-68.1-55.5a10.39,10.39,0,0,1,.84-12.69c.24-.27.48-.55.74-.83C813.58,453.48,837.12,431.92,877.69,419.2Z" transform="translate(-796.2 -325.26)"/><path class="cls-6" d="M870.16,533.48q-.84-5.73-1.43-11.48a274.35,274.35,0,0,1,8.95-102.8c-40.56,12.72-64.1,34.28-74,45.26-.25.28-.51.56-.74.83a10.41,10.41,0,0,0-.84,12.7c1.6,2.36,3.69,5.26,6.34,8.52C819,499.63,838.5,518.75,870.16,533.48Z" transform="translate(-796.2 -325.26)"/><g class="cls-7"><path class="cls-3" d="M870.16,533.48q-.84-5.73-1.43-11.48s-35-13.45-60.33-35.49C819,499.63,838.5,518.75,870.16,533.48Z" transform="translate(-796.2 -325.26)"/></g><path class="cls-3" d="M870.15,537.75a4.39,4.39,0,0,1-1.8-.39C829,519,807.93,494.14,798.9,480.93a15.37,15.37,0,0,1,1.25-19c10.68-11.91,34.8-33.83,76.26-46.83a4.28,4.28,0,0,1,5.39,5.25,268,268,0,0,0-7.42,112.49,4.26,4.26,0,0,1-4.23,4.89Zm1.34-112c-34.94,12.52-55.53,31.34-65,41.87a6.84,6.84,0,0,0-.56,8.45c8,11.67,25.92,33,58.92,50A276,276,0,0,1,871.49,425.79Z" transform="translate(-796.2 -325.26)"/><path class="cls-3" d="M973.74,559.3a278.1,278.1,0,0,1-37.43-2.59c-24.68-3.34-47.55-9.85-68-19.35a4.24,4.24,0,0,1-2.44-3.39A276.58,276.58,0,0,1,873.57,418a4.27,4.27,0,0,1,2.84-2.91c21.47-6.74,45-10.19,69.9-10.26h.9c90.5,0,133.52,40.67,135.32,42.41a4.3,4.3,0,0,1,1.12,1.85,117.81,117.81,0,0,1-5.38,81.72,4.24,4.24,0,0,1-1.36,1.69C1075.2,533.8,1039.92,559.3,973.74,559.3Zm-99.68-28.72a228.69,228.69,0,0,0,63.4,17.66c80.14,10.84,126.63-17.43,133.48-22a109.2,109.2,0,0,0,4.85-73.56c-6.18-5.4-48.61-39.53-129.45-39.29a228.82,228.82,0,0,0-65.17,9.19A268.09,268.09,0,0,0,874.06,530.58Zm200.3-1.48h0Z" transform="translate(-796.2 -325.26)"/><path class="cls-3" d="M1050.37,545.65a4.2,4.2,0,0,1-1.54-.29,4.28,4.28,0,0,1-2.44-5.53,170.89,170.89,0,0,0,6.18-104.13,4.27,4.27,0,1,1,8.28-2.12,179.22,179.22,0,0,1-6.49,109.34A4.27,4.27,0,0,1,1050.37,545.65Z" transform="translate(-796.2 -325.26)"/><path class="cls-3" d="M1074.36,533.38a4.28,4.28,0,0,1-.66-8.5l12.68-2a11.49,11.49,0,0,0,9.08-7.56,90.54,90.54,0,0,0,3.2-48.55,11.5,11.5,0,0,0-8-8.69l-12.31-3.64a4.27,4.27,0,1,1,2.42-8.2l12.32,3.64A20.06,20.06,0,0,1,1107,465a99.13,99.13,0,0,1-3.5,53.13,20,20,0,0,1-15.82,13.18l-12.68,2A3.88,3.88,0,0,1,1074.36,533.38Z" transform="translate(-796.2 -325.26)"/><path class="cls-10" d="M953.35,452.56a37.63,37.63,0,0,1,42.19,58.14h0a37.62,37.62,0,1,1-53.47-52A37.42,37.42,0,0,1,953.35,452.56Z" transform="translate(-796.2 -325.26)"/><path class="cls-6" d="M952.74,446.67a37.17,37.17,0,0,1,41.68,57.43h0a37.16,37.16,0,1,1-52.82-51.39A36.85,36.85,0,0,1,952.74,446.67Z" transform="translate(-796.2 -325.26)"/><path class="cls-12" d="M935.45,504.91a37.16,37.16,0,0,0,52.2,6.14,37.62,37.62,0,0,0,6.77-6.94h0a37.24,37.24,0,0,0,6.92-28,37.23,37.23,0,0,1-7.36,22.8h0a37.17,37.17,0,0,1-66.51-16.41A37,37,0,0,0,935.45,504.91Z" transform="translate(-796.2 -325.26)"/><g class="cls-13"><path class="cls-1" d="M991.67,456.81a38.36,38.36,0,0,0-60.39,42.11,37.16,37.16,0,0,1,60.39-42.11Z" transform="translate(-796.2 -325.26)"/></g><path class="cls-3" d="M964.66,522.45a40.57,40.57,0,1,1,31.81-65.71h0a40.56,40.56,0,0,1-31.81,65.71Zm-.11-74.31A33.75,33.75,0,1,0,991.1,461h0a33.49,33.49,0,0,0-22.53-12.6A34.13,34.13,0,0,0,964.55,448.14Z" transform="translate(-796.2 -325.26)"/><circle class="cls-11" cx="964.54" cy="482.49" r="25.88" transform="translate(-370.22 1091.62) rotate(-86.62)"/><path class="cls-14" d="M941.48,494.24A25.88,25.88,0,0,1,989.59,476a25.59,25.59,0,0,0-4.74-9.54,25.88,25.88,0,0,0-43.37,27.78Z" transform="translate(-796.2 -325.26)"/><g class="cls-8"><path class="cls-1" d="M953,459.34l20.95,47.27a25.9,25.9,0,0,0,12.62-10.51l-17.3-39.05A25.75,25.75,0,0,0,953,459.34Z" transform="translate(-796.2 -325.26)"/></g><g class="cls-8"><path class="cls-1" d="M940.45,473l14.91,33.66a26.08,26.08,0,0,0,12.92,1.41l-20.2-45.58A25.89,25.89,0,0,0,940.45,473Z" transform="translate(-796.2 -325.26)"/></g><path class="cls-3" d="M964.57,510.57a28.08,28.08,0,0,1-17.43-50.13h0a28.09,28.09,0,1,1,17.43,50.13Zm-.08-51.75a23.48,23.48,0,0,0-14.61,5.1h0A23.65,23.65,0,1,0,967.31,459,24.25,24.25,0,0,0,964.49,458.82Zm-16,3.36h0Z" transform="translate(-796.2 -325.26)"/><path class="cls-11" d="M1092.23,476.79c21.11,1.15,37.59,14,37.59,14s-17.77,11-38.89,9.81-37.59-14-37.59-14S1071.11,475.64,1092.23,476.79Z" transform="translate(-796.2 -325.26)"/><path class="cls-6" d="M1092.23,476.79c21.11,1.15,37.59,14,37.59,14s-17.77,11-38.89,9.81-37.59-14-37.59-14S1071.11,475.64,1092.23,476.79Z" transform="translate(-796.2 -325.26)"/><g class="cls-8"><path class="cls-1" d="M1073.39,478.67l.59,1.07s-10,3.54-12.86,6.11c14.09,1.14,31.24,2.88,31.24,2.88s-17.24-.14-31.36-.53c2.54,2.86,12.11,7.47,12.11,7.47l-.71,1a79.57,79.57,0,0,1-17.08-8.66c-1.28-.87-2-1.41-2-1.41s.75-.46,2.11-1.18A79.54,79.54,0,0,1,1073.39,478.67Z" transform="translate(-796.2 -325.26)"/></g><g class="cls-7"><path class="cls-3" d="M1092.22,476.79c21.13,1.15,37.6,14,37.6,14s-17.77,11-38.89,9.82a60.45,60.45,0,0,1-10.23-1.46c16.28-1.9,33.1-4.32,33.36-9.21s-16.18-9.13-32.16-12.78A60.51,60.51,0,0,1,1092.22,476.79Z" transform="translate(-796.2 -325.26)"/></g><path class="cls-3" d="M1094.08,504.94c-1.12,0-2.24,0-3.38-.09-22.2-1.21-39.27-14.32-40-14.87a4.28,4.28,0,0,1,.38-7c.78-.48,19.15-11.67,41.37-10.45h0c22.2,1.21,39.27,14.32,40,14.87a4.26,4.26,0,0,1-.38,7C1131.33,494.86,1114.74,504.94,1094.08,504.94Zm-32.17-17.87c6.3,3.62,17,8.58,29.25,9.24s23.43-3.1,30.08-6c-6.29-3.62-17-8.58-29.25-9.24S1068.57,484.16,1061.91,487.07Z" transform="translate(-796.2 -325.26)"/><g class="cls-8"><path class="cls-1" d="M817.8,465.85c6.15-9.36,31.93-25.65,39.58-19.33C864.65,452.52,811.66,475.21,817.8,465.85Z" transform="translate(-796.2 -325.26)"/></g><path class="cls-1" d="M1048.31,562.52s-11.14-40.72-24.25-59.08c-9.22-12.91-30.5-7.14-27.2,15.35,1.75,12,7.94,17,7,19.1a130.66,130.66,0,0,0-7.65,33.79" transform="translate(-796.2 -325.26)"/><path class="cls-3" d="M1045.42,563.31c-9.62-18.95-15.41-39.58-27-57-6.21-7.25-15.64-2.69-15.87,6.55-.44,6.34,1.92,13.07,5.32,18.58a20,20,0,0,1,1.61,3.34,8.32,8.32,0,0,1-.47,6.47c-3,10.38-5.87,20.4-9.81,30.72a3.09,3.09,0,0,1-6-.49c-2.06-12,.17-24,4.8-35.12l.35-.82a4.78,4.78,0,0,0-.4,2.3,3.18,3.18,0,0,0,.15.77c.06.15,0-.07-.16-.32A52.36,52.36,0,0,1,991.8,524c-3.62-12.83.23-29.19,14.93-32.81,8.31-2.09,17.23,1.62,22.19,8.4,9,12.64,14.24,26.89,18.38,41.5a124.86,124.86,0,0,1,3.9,20.62,3,3,0,0,1-5.78,1.58Z" transform="translate(-796.2 -325.26)"/><path class="cls-1" d="M1161.54,948.08s-21.57-8.85-38.56-17c-22.56-10.78-16.12-46.86,12.11-45.11a189,189,0,0,1,57.59,13.21l-24.07,41.92" transform="translate(-796.2 -325.26)"/><path class="cls-1" d="M1178.39,921l-13.84,24.11-3,3s-21.57-8.85-38.56-17a23.59,23.59,0,0,1-13.61-21.65,26.34,26.34,0,0,1,11.44-1.65A189,189,0,0,1,1178.39,921Z" transform="translate(-796.2 -325.26)"/><path class="cls-4" d="M1178.39,921l-13.84,24.11-3,3s-21.57-8.85-38.56-17a23.59,23.59,0,0,1-13.61-21.65,26.34,26.34,0,0,1,11.44-1.65A189,189,0,0,1,1178.39,921Z" transform="translate(-796.2 -325.26)"/><path class="cls-3" d="M1161.54,952.5a4.33,4.33,0,0,1-1.68-.33c-.22-.09-21.88-9-38.79-17.07A28.29,28.29,0,0,1,1105.88,902c3.45-13.32,15-21.36,29.49-20.46a191.3,191.3,0,0,1,59.08,13.58,4.42,4.42,0,0,1,2.07,6.25l-24.07,41.92a4.43,4.43,0,0,1-7.68-4.4l21.52-37.48a188.91,188.91,0,0,0-51.47-11c-12.2-.77-18.51,6.66-20.38,13.85-2,7.66.44,18.08,10.45,22.86,16.69,8,38.11,16.78,38.33,16.86a4.43,4.43,0,0,1-1.68,8.52Z" transform="translate(-796.2 -325.26)"/><path class="cls-1" d="M1086.8,542.4c-1.31,25.58,1.35,50.57,11.84,61.1,7.54,7.56,68.15,19.84,68.15,19.84l-15.41-166s-4.23.33-10.24,1.12c-12.51,1.66-32.78,5.4-38.72,12.64C1096,479,1088.42,511.16,1086.8,542.4Z" transform="translate(-796.2 -325.26)"/><path class="cls-2" d="M1086.8,542.4c-1.31,25.58,1.35,50.57,11.84,61.1,7.54,7.56,68.15,19.84,68.15,19.84l-15.41-166s-4.23.33-10.24,1.12A283.14,283.14,0,0,0,1115,538.09C1111,561.55,1094.68,559.93,1086.8,542.4Z" transform="translate(-796.2 -325.26)"/><path class="cls-15" d="M1171.74,628.87l-5.83-1.18c-14.53-3-62.53-13.18-70.4-21.08-25-25.12-9.49-122.46,3.49-138.27,9.73-11.85,47.74-15,52-15.36l4.33-.33Zm-24.37-166.68c-15,1.54-36.51,5.64-41.54,11.77-4.82,5.87-11.61,31.52-14,60.33-2.73,32.37,1,57.07,10,66.08,3.85,3.86,32.53,11.61,60,17.44Z" transform="translate(-796.2 -325.26)"/><circle class="cls-1" cx="531.67" cy="227.43" r="221.7"/><path class="cls-16" d="M1528.35,647.44c-40.7,86.26-134.41,139.44-233.56,124.48-121.07-18.28-204.41-131.25-186.13-252.32a220.67,220.67,0,0,1,59.55-120.76c2.22,112,128.07,217.74,296.31,243.14A493.61,493.61,0,0,0,1528.35,647.44Z" transform="translate(-796.2 -325.26)"/><path class="cls-3" d="M1328,778.84a226.92,226.92,0,0,1-33.9-2.56,226.12,226.12,0,0,1,67.5-447.18c123.29,18.61,208.46,134,189.85,257.34C1534.57,698.34,1437.91,778.84,1328,778.84Zm-.61-443.47a217.3,217.3,0,0,0-32,432.17c118.47,17.88,229.39-63.95,247.28-182.42l4.37.66-4.37-.66c17.88-118.46-64-229.39-182.42-247.27A220.08,220.08,0,0,0,1327.41,335.37Z" transform="translate(-796.2 -325.26)"/><path class="cls-3" d="M1328,780.14a227.24,227.24,0,0,1-225.53-257.75c.16-1.23.33-2.44.51-3.64a227.42,227.42,0,0,1,258.82-190.93c124,18.72,209.64,134.82,190.93,258.82C1535.76,699.18,1438.54,780.14,1328,780.14Zm-.27-443.45A216,216,0,0,0,1114.3,520.46c-.17,1.14-.33,2.3-.49,3.44a215.74,215.74,0,0,0,104.44,215,215,215,0,0,0,77.38,27.4c117.77,17.77,228-63.57,245.82-181.34l5.65.86-5.65-.86c17.77-117.76-63.57-228-181.34-245.81A216.46,216.46,0,0,0,1327.75,336.69Z" transform="translate(-796.2 -325.26)"/><path class="cls-3" d="M1312,768.15a245.9,245.9,0,0,1-36.67-2.77,242.09,242.09,0,0,1-61.65-17.86,4.11,4.11,0,0,1-.42-.21A226.1,226.1,0,0,1,1102.86,571.9a180.72,180.72,0,0,1,.9-47.25c.11-.73.22-1.45.36-2.17.16-1.17.32-2.34.49-3.49a226.21,226.21,0,0,1,99-154.79l.54-.3c41.63-19.17,88.19-25.6,134.65-18.59,123.82,18.69,210.33,128.12,192.85,243.93-8.48,56.15-39.84,105.41-88.3,138.67C1404.83,754.32,1359.22,768.15,1312,768.15Zm-94.8-28a233.76,233.76,0,0,0,59.35,17.16c57.87,8.74,115.45-4.09,162.12-36.13s76.72-79.26,84.85-133.16l4,.61-4-.61c16.81-111.36-66.63-216.62-186-234.64-44.78-6.76-89.63-.6-129.73,17.81a217.92,217.92,0,0,0-95.12,149c-.18,1.15-.34,2.32-.49,3.47,0,.09,0,.2,0,.28-.13.64-.22,1.27-.32,1.91a173,173,0,0,0-.85,45.23A218,218,0,0,0,1217.22,740.15Z" transform="translate(-796.2 -325.26)"/><path class="cls-3" d="M1506.32,585.42C1490.8,688.21,1389,758.1,1279,741.48c-93.28-14.08-162.56-85.79-172-169.92a176,176,0,0,1,.87-46.3c.1-.71.21-1.4.35-2.11,16.56-101.64,117.72-170.44,227-153.94C1445.2,385.82,1521.83,482.62,1506.32,585.42Z" transform="translate(-796.2 -325.26)"/><path class="cls-17" d="M1506.32,585.42C1490.8,688.21,1389,758.1,1279,741.48c-82.77-12.49-146.63-70.35-166.58-142,33.17,47.76,86.95,82.84,151.31,92.55,114,17.21,219.78-51.36,243.26-154.87A176.48,176.48,0,0,1,1506.32,585.42Z" transform="translate(-796.2 -325.26)"/><path class="cls-3" d="M1311.53,747.21a221.44,221.44,0,0,1-33.06-2.5c-93-14-164.91-85.09-174.79-172.79a180.3,180.3,0,0,1,.89-47.15c.11-.76.23-1.5.38-2.26,8.14-50,36.59-93.8,80.1-123.33s97-41.29,150.59-33.2c54,8.16,101.89,35.5,134.74,77s46.8,92.31,39.16,142.93l-3.22-.48,3.22.48c-7.64,50.63-35.91,95-79.61,125A208.52,208.52,0,0,1,1311.53,747.21Zm-8.39-377.15c-94.42,0-177.16,63.95-191.77,153.62-.15.77-.25,1.41-.35,2.07a173.76,173.76,0,0,0-.85,45.44c9.55,84.76,79.15,153.46,169.27,167.07,52.4,7.91,104.54-3.71,146.8-32.72s69.48-71.8,76.85-120.61S1497,487.14,1465.26,447s-78.19-66.67-130.6-74.58A211,211,0,0,0,1303.14,370.06Z" transform="translate(-796.2 -325.26)"/><g class="cls-8"><path class="cls-1" d="M1409.06,453.51s-90.78-48.51-167.41-20.42l-.25.09c-16.12,5.93-35.19,25.86-46,39.05a193.16,193.16,0,0,0-27.47,44.2c-17.93,38.52-19,59.94-19,59.94-12.79-30.59-14.58-59.46,0-91.7,1.45-3.17,3.07-6.39,4.83-9.64.4-.75.82-1.49,1.25-2.22,0,0,0,0,0,0,4-6.33,9.67-17.72,16.8-26.36,21.48-26.05,56.53-53.54,102.59-54.12C1360.57,391.22,1414.16,451,1409.06,453.51Z" transform="translate(-796.2 -325.26)"/></g><g class="cls-8"><ellipse class="cls-1" cx="1434.54" cy="580.36" rx="34.89" ry="30.37" transform="translate(-165.78 1577.26) rotate(-80.72)"/></g><g class="cls-8"><ellipse class="cls-1" cx="1423.78" cy="642.82" rx="14.41" ry="12.54" transform="translate(-111.78 1693.69) rotate(-86.05)"/></g><path class="cls-1" d="M1560.71,557.07l-23.07,84.25-14.36,52.48-30.17-3.1-2.85-.3c-12.78-3.78-14-40.15-2.79-81.18.25-.93.52-1.87.79-2.8,11.32-39.58,30.2-68.3,42.69-64.59l2.56,1.31Z" transform="translate(-796.2 -325.26)"/><path class="cls-2" d="M1537.64,641.32l-14.36,52.48-30.17-3.1-2.85-.3c-12.78-3.78-14-40.15-2.79-81.18.25-.93.52-1.87.79-2.8l2.73-4.64s.36,18.54,8.35,22.63c8.45,4.35,18.45-16.08,18.45-16.08Z" transform="translate(-796.2 -325.26)"/><path class="cls-3" d="M1523.28,699.52a5.83,5.83,0,0,1-.59,0l-33-3.39a6.1,6.1,0,0,1-1-.21c-18.7-5.56-17.51-48.57-6.66-88.18,9.46-34.57,24.52-61.87,38.35-69.56,5.28-2.94,9.58-2.61,12.25-1.81a5.26,5.26,0,0,1,1,.4L1563.32,552a5.72,5.72,0,0,1,2.9,6.6l-37.44,136.73A5.7,5.7,0,0,1,1523.28,699.52Zm-31.75-14.72,27.51,2.83L1554,560.05l-25-12.83a5.76,5.76,0,0,0-3.09.92c-9.23,5.13-23.49,28.27-32.88,62.59C1481,654.44,1485.66,682,1491.53,684.8Z" transform="translate(-796.2 -325.26)"/><path class="cls-1" d="M1565.76,621.89s0,0,0,0c-.71,3.25-1.54,6.52-2.45,9.86-10.33,37.74-28.24,65.52-40,62-11.42-3.39-12.85-35.07-3.42-71.54.26-1,.55-2.09.84-3.15,10.33-37.74,28.26-65.53,40-62C1571.43,560.27,1573.32,588.33,1565.76,621.89Z" transform="translate(-796.2 -325.26)"/><path class="cls-2" d="M1565.73,621.93c-.71,3.25-1.54,6.52-2.45,9.86-10.33,37.74-28.24,65.52-40,62-11.42-3.39-12.85-35.07-3.42-71.54,2.24,14.53,7.92,40.52,19.63,35.92C1546.32,655.47,1557.37,637.3,1565.73,621.93Z" transform="translate(-796.2 -325.26)"/><path class="cls-3" d="M1525.34,699.81a12.82,12.82,0,0,1-3.69-.53c-17.49-5.2-16.49-45-6.45-81.68,8.74-31.92,22.68-57.16,35.51-64.29,5-2.78,9.09-2.46,11.63-1.7,17.5,5.2,16.49,45,6.46,81.68-8.74,31.92-22.68,57.16-35.52,64.29A16.28,16.28,0,0,1,1525.34,699.81Zm33.3-137.31a5.64,5.64,0,0,0-2.38.8c-8.41,4.67-21.43,25.86-30,57.32-10.7,39.06-6.93,66-1.31,67.71a4.42,4.42,0,0,0,2.82-.74c8.41-4.67,21.43-25.86,30-57.32,10.69-39.06,6.92-66,1.31-67.71A1.63,1.63,0,0,0,1558.64,562.5Z" transform="translate(-796.2 -325.26)"/><path class="cls-3" d="M1206,1232.73c19,.33,38.72.84,57-4.82-15.74,11.46-39.27,11.32-57,4.82Z" transform="translate(-796.2 -325.26)"/><path class="cls-3" d="M1406.23,1220.4c17.66,3.15,36.52,2.8,51.32-8.53-10.67,16.65-35.39,18.1-51.32,8.53Z" transform="translate(-796.2 -325.26)"/><path class="cls-3" d="M1209.94,1153.75c-26.69,0-50.06-7-58.88-16.9a4.89,4.89,0,0,1,7.3-6.52c6.17,6.9,26.1,13.85,52.39,13.68,16.87-.09,48.78-3.33,72.93-24.07a4.9,4.9,0,1,1,6.38,7.43C1267.86,1146.44,1237.17,1153.75,1209.94,1153.75Z" transform="translate(-796.2 -325.26)"/><path class="cls-3" d="M1347.08,1154.48c-28.15,0-42.23-17-43-18a4.9,4.9,0,0,1,7.62-6.15c.86,1.06,21.24,25.07,63.87,8.41,37.37-14.59,48.57-53.5,48.68-53.89a4.9,4.9,0,0,1,9.44,2.6c-.49,1.79-12.51,44-54.56,60.42C1366.94,1152.67,1356.26,1154.48,1347.08,1154.48Z" transform="translate(-796.2 -325.26)"/><path class="cls-1" d="M1219.62,1045.31c-58.77-8.94-81-51.37-68.6-56.48,18.85-7.8,64.56,26.5,178.85,11.87C1370.23,995.53,1318.93,1060.41,1219.62,1045.31Z" transform="translate(-796.2 -325.26)"/><path class="cls-1" d="M1169.14,869.49c-5.33,7-33.45,84-33.45,84l3.47,4.1A41.24,41.24,0,0,0,1165.83,972l121.38,14.37a21.83,21.83,0,0,0,24.11-18.07c1-6,2.15-13.07,3.31-20.76,2.07-13.7,4.62-35.18,6.26-49.42a21.83,21.83,0,0,0-11.45-21.76c-8.93-4.74-20-10.25-24.69-11.15C1247.52,858.11,1172.5,865.08,1169.14,869.49Z" transform="translate(-796.2 -325.26)"/><path class="cls-3" d="M1289.82,990.94a25.52,25.52,0,0,1-3.13-.19l-121.38-14.37a45.57,45.57,0,0,1-29.54-15.9l-3.46-4.1a4.42,4.42,0,0,1-.77-4.37c4.73-13,28.62-78,34.08-85.21,1.29-1.69,3.48-3.25,17.14-5.22,8.54-1.23,19.63-2.28,31.22-3,13.73-.81,48.21-2.21,71.6,2.25,1.59.3,6.43,1.23,25.94,11.59a26.11,26.11,0,0,1,13.76,26.17c-1.74,15.15-4.23,36-6.27,49.57-1,6.82-2.15,13.82-3.33,20.83A26.24,26.24,0,0,1,1289.82,990.94Zm-149.09-38.31,1.81,2.14a36.65,36.65,0,0,0,23.81,12.82L1287.73,982A17.43,17.43,0,0,0,1307,967.56c1.17-7,2.28-13.92,3.3-20.69,2-13.39,4.5-34.18,6.23-49.26a17.3,17.3,0,0,0-9.13-17.35c-16.53-8.79-21.9-10.42-23.44-10.71-35-6.67-103-.47-111.61,3.14C1168.12,879.5,1151.28,923.82,1140.73,952.63Zm31.93-80.46Zm-3.52-2.68h0Z" transform="translate(-796.2 -325.26)"/><path class="cls-1" d="M1169.14,869.49c-5.33,7-33.45,84-33.45,84l3.47,4.1A41.24,41.24,0,0,0,1165.83,972l121.38,14.37a21.83,21.83,0,0,0,24.11-18.07c1-6,2.15-13.07,3.31-20.76,2.07-13.7,4.62-35.18,6.26-49.42a21.83,21.83,0,0,0-11.45-21.76c-8.93-4.74-20-10.25-24.69-11.15C1247.52,858.11,1172.5,865.08,1169.14,869.49Z" transform="translate(-796.2 -325.26)"/><path class="cls-4" d="M1314.64,947.54c-1.16,7.69-2.3,14.73-3.32,20.74a21.83,21.83,0,0,1-24.11,18.08c-30.23-3.59-92-10.91-121.38-14.37a41.23,41.23,0,0,1-26.67-14.36l-3.46-4.11s28.11-77,33.45-84c.52-.68,2.74-1.41,6.27-2.15-5.11,13.6-8.94,24.1-8.94,24.1l3.47,4.11a41.21,41.21,0,0,0,26.67,14.36c29.28,3.45,90.85,10.74,121.16,14.34C1316.72,932.69,1315.62,941,1314.64,947.54Z" transform="translate(-796.2 -325.26)"/><path class="cls-3" d="M1289.82,990.94a25.52,25.52,0,0,1-3.13-.19l-121.38-14.37a45.57,45.57,0,0,1-29.54-15.9l-3.46-4.1a4.42,4.42,0,0,1-.77-4.37c4.73-13,28.62-78,34.08-85.21,1.29-1.69,3.48-3.25,17.14-5.22,8.54-1.23,19.63-2.28,31.22-3,13.73-.81,48.21-2.21,71.6,2.25,1.59.3,6.43,1.23,25.94,11.59a26.11,26.11,0,0,1,13.76,26.17c-1.74,15.15-4.23,36-6.27,49.57-1,6.82-2.15,13.82-3.33,20.83A26.24,26.24,0,0,1,1289.82,990.94Zm-149.09-38.31,1.81,2.14a36.65,36.65,0,0,0,23.81,12.82L1287.73,982A17.43,17.43,0,0,0,1307,967.56c1.17-7,2.28-13.92,3.3-20.69,2-13.39,4.5-34.18,6.23-49.26a17.3,17.3,0,0,0-9.13-17.35c-16.53-8.79-21.9-10.42-23.44-10.71-35-6.67-103-.47-111.61,3.14C1168.12,879.5,1151.28,923.82,1140.73,952.63Zm31.93-80.46Zm-3.52-2.68h0Z" transform="translate(-796.2 -325.26)"/><path class="cls-1" d="M1139.56,874.28l-7.18,65.52a20.85,20.85,0,0,0,18.3,23l115.58,13.52a20.84,20.84,0,0,0,23.09-18l9.21-70.7a20.85,20.85,0,0,0-19.19-23.49l-117.62-8.34A20.83,20.83,0,0,0,1139.56,874.28Z" transform="translate(-796.2 -325.26)"/><path class="cls-3" d="M1268.67,980.86a26.44,26.44,0,0,1-2.93-.17l-115.57-13.53A25.33,25.33,0,0,1,1128,939.32l7.17-65.52a25.2,25.2,0,0,1,26.91-22.46l117.61,8.35A25.26,25.26,0,0,1,1303,888.16l-9.22,70.7A25.38,25.38,0,0,1,1268.67,980.86ZM1139.56,874.28l4.4.48-7.18,65.52a16.46,16.46,0,0,0,14.41,18.09l115.58,13.53A16.46,16.46,0,0,0,1285,957.72l9.22-70.71a16.41,16.41,0,0,0-15.12-18.49l-117.62-8.35A16.35,16.35,0,0,0,1144,874.76Z" transform="translate(-796.2 -325.26)"/><path class="cls-3" d="M1189.4,970.62l-.4,0a3.31,3.31,0,0,1-2.89-3.69l3.65-30.39a25,25,0,0,0-3.7-16.32l-7.19-11.35a31.69,31.69,0,0,1-4.76-19.88l3-31.17a3.32,3.32,0,1,1,6.61.63l-3,31.17a25.08,25.08,0,0,0,3.76,15.7l7.2,11.35a31.61,31.61,0,0,1,4.67,20.66l-3.65,30.39A3.32,3.32,0,0,1,1189.4,970.62Z" transform="translate(-796.2 -325.26)"/><path class="cls-18" d="M1224.78,920.71s6.37,6.88,11,10a17,17,0,0,0,10.84,2.72c10.49-.8,19.45-10,20-20.64a17,17,0,0,0-4.3-12.57c-3.27-3.57-12.87-11.71-12.87-11.71Z" transform="translate(-796.2 -325.26)"/><path class="cls-3" d="M1245.17,936.79a20,20,0,0,1-11.22-3.33c-4.92-3.3-11.33-10.21-11.61-10.5a3.33,3.33,0,0,1-.19-4.27l24.68-32.2a3.3,3.3,0,0,1,2.28-1.28,3.33,3.33,0,0,1,2.5.76c.4.34,9.8,8.32,13.18,12a20.38,20.38,0,0,1,5.17,15c-.65,12.19-11,22.85-23.08,23.77Q1246,936.79,1245.17,936.79Zm-16-16.33a65,65,0,0,0,8.49,7.48,13.66,13.66,0,0,0,8.74,2.17c8.87-.67,16.48-8.52,16.95-17.5a13.76,13.76,0,0,0-3.43-10.16c-2.06-2.24-6.9-6.51-9.94-9.14Z" transform="translate(-796.2 -325.26)"/><ellipse class="cls-11" cx="1237.2" cy="904.66" rx="20.33" ry="17.87" transform="translate(-1061.84 880.3) rotate(-47.5)"/><ellipse class="cls-11" cx="1237.2" cy="904.66" rx="11.46" ry="10.07" transform="translate(-1061.85 880.3) rotate(-47.5)"/><path class="cls-18" d="M1236.62,915.47a12.6,12.6,0,0,0,11.29-11.63,10.2,10.2,0,0,0-1-5,12.62,12.62,0,0,1-10.87,9.17,9.22,9.22,0,0,1-9.15-5,10.72,10.72,0,0,0-.42,2.48A9.24,9.24,0,0,0,1236.62,915.47Z" transform="translate(-796.2 -325.26)"/><path class="cls-3" d="M1234.72,927.22a19.61,19.61,0,0,1-13.94-5.55,20.13,20.13,0,0,1-5.9-15.74c.65-12.19,11-22.85,23.08-23.77a19.89,19.89,0,0,1,15.66,5.48,20.15,20.15,0,0,1,5.89,15.75c-.64,12.19-11,22.85-23.07,23.77C1235.86,927.2,1235.29,927.22,1234.72,927.22Zm4.93-38.49c-.39,0-.79,0-1.19,0-8.87.67-16.48,8.52-17,17.5a13.62,13.62,0,0,0,3.91,10.65,13.31,13.31,0,0,0,10.51,3.61c8.88-.67,16.48-8.52,17-17.5a13.62,13.62,0,0,0-3.91-10.65A13.14,13.14,0,0,0,1239.65,888.73Z" transform="translate(-796.2 -325.26)"/><path class="cls-1" d="M1310.69,954.92s49.56,12.61,102.49,18.6c11.59-7.77,18-30.36-4.15-43.25-30.73-9-91.73-18.65-91.73-18.65S1286.22,925.22,1310.69,954.92Z" transform="translate(-796.2 -325.26)"/><path class="cls-4" d="M1413.18,973.52c-52.93-6-102.48-18.59-102.48-18.59-12.81-15.54-10.4-26.68-5.21-33.75.58,2,1.28,5.16,2.31,8.52a19.7,19.7,0,0,0,14.4,13.38c14.89,3.45,46.29,10.26,80.79,14.85a19.88,19.88,0,0,0,19.82-9.95c.11-.19.21-.37.31-.53A25.19,25.19,0,0,1,1413.18,973.52Z" transform="translate(-796.2 -325.26)"/><path class="cls-3" d="M1413.18,977.94a4,4,0,0,1-.49,0c-52.63-5.95-102.59-18.57-103.09-18.7a4.45,4.45,0,0,1-2.32-1.47c-8.68-10.54-12-20.6-9.74-29.89,3.28-13.7,17.38-20,18-20.28a4.43,4.43,0,0,1,2.46-.32c2.51.4,61.64,9.77,92.3,18.77a4.46,4.46,0,0,1,1,.42c10.59,6.16,16.61,15.27,16.94,25.65.31,9.78-4.73,19.86-12.56,25.1A4.4,4.4,0,0,1,1413.18,977.94Zm-100-27c8.37,2,52.32,12.54,98.76,17.94a21.43,21.43,0,0,0,7.4-16.56c-.23-7.18-4.41-13.4-12.1-18-27.69-8-80-16.65-89.25-18.14-2.77,1.5-10.08,6.12-11.87,13.74C1304.69,936.11,1307.07,943.17,1313.2,951Z" transform="translate(-796.2 -325.26)"/></svg>