<svg id="Layer_12" data-name="Layer 12" xmlns="http://www.w3.org/2000/svg" viewBox="0 0 2105.98 3399.06"><defs><style>.cls-1{fill:#371a45;}.cls-2{fill:#fff;}.cls-3{opacity:0.35;}.cls-4{opacity:0.3;}.cls-5{fill:#293856;}.cls-6{fill:none;stroke:#293856;stroke-linecap:round;stroke-miterlimit:10;stroke-width:30.92px;}.cls-7{fill:#22a7f0;}.cls-8{opacity:0.6;}.cls-9{fill:#220f2d;}.cls-10{opacity:0.5;}.cls-11{fill:#ffb200;}.cls-12{fill:#d66b09;}.cls-13{fill:#ffcc4d;}.cls-14{fill:#ffec90;}.cls-15{opacity:0.41;}.cls-16{opacity:0.25;}</style></defs><path class="cls-1" d="M1381.54,1092a12.32,12.32,0,0,1-12.31-12.32v-914a12.32,12.32,0,0,1,24.63,0v914.05A12.32,12.32,0,0,1,1381.54,1092Z" transform="translate(-206.2 860.47)"/><path class="cls-2" d="M845.21,1464.84s-303.1,79-313.91,197.89c-9.43,103.69,104.22,453.29,171,491.7,48.69,28,195.49-23.36,195.49-23.36Z" transform="translate(-206.2 860.47)"/><g class="cls-3"><path class="cls-1" d="M530.8,1682.14c3.49,122,108.44,436,171.48,472.27,48.69,28,195.48-23.35,195.48-23.35l-23.32-136S727.66,2046.46,679,2018.43C633.43,1992.24,566.05,1821.12,530.8,1682.14Z" transform="translate(-206.2 860.47)"/></g><path class="cls-1" d="M762.81,2174.27c-31.48,0-63.16-6.79-89.44-26.21-72.58-53.62-163.22-380.53-157-486.2,5.9-101,191.14-163.24,199-165.84a15,15,0,0,1,9.4,28.49c-48.31,16-174.55,72.06-178.46,139.09-5.92,101.21,86.57,417.23,144.91,460.33,71,52.43,202.12-12.56,203.44-13.23a15,15,0,1,1,13.49,26.8C903.93,2139.61,833.91,2174.27,762.81,2174.27Z" transform="translate(-206.2 860.47)"/><path class="cls-2" d="M1194.13,1503.41s-13.22,107.25,33.27,33.7c42.42-67.18,95.24-179.19,141.86-361.82l1.18-4.5s21-1.83,46.75-14.71c60.72-30.33,47.71-148.58,36-188.79-13.8-47.36-46.4-34.57-46.4-34.57-11.44-18.72-34-28.67-72-28.11-71.37,1-85.9,58.76-85.9,58.76-65.43,196.9-145.14,318.25-192.59,378.71-25.1,32.08-41.16,47-41.16,47Z" transform="translate(-206.2 860.47)"/><g class="cls-3"><path class="cls-1" d="M1194.13,1503.41s-13.22,107.25,33.27,33.7c42.42-67.18,95.24-179.19,141.86-361.82-15.63-3.8-38.63-11-50.76-21.78-30.39-27.15-35.89-89.7-35.89-89.7-12.57,60.32,0,95.63,14.67,115.54,15.8,21.39,20.65,49,11.44,74-13.4,36.27-30.3,75.73-57,101.22-61.46,58.54-147.15,32.3-195.43-12.48-25.1,32.08-41.16,47-41.16,47Z" transform="translate(-206.2 860.47)"/></g><g class="cls-3"><path class="cls-1" d="M1391.64,1166.23s-55.41,20.25-92.32-63.53c0,0,21.31,10.64,73.86,7.94,52.18-2.68,87.58-52.35,87.58-52.35S1464.38,1148.58,1391.64,1166.23Z" transform="translate(-206.2 860.47)"/></g><path class="cls-1" d="M1022.66,1390.71a15.46,15.46,0,0,1-10.21-27.08c1.81-1.6,124.44-112.75,221.54-404.63,6.35-24.09,35.22-68.87,100.52-69.85,36.88-.52,62.67,8.12,78.8,26.49,16.87,19.2,22,47.12,16,87.86-5.85,40.2-33.09,68.36-63.26,65.54-27.75-2.6-56.24-32.66-53-109.23a15.46,15.46,0,1,1,30.89,1.31c-2.16,51.19,11.45,75.87,25,77.14,11.46,1,26.06-13.62,29.79-39.22,4.46-30.67,1.63-51.28-8.66-63-9.65-11-28.21-16.39-55.11-16-58.83.87-71,46.62-71.16,47.09l-.32,1.1c-100.34,301.91-225.37,414-230.65,418.62A15.43,15.43,0,0,1,1022.66,1390.71Z" transform="translate(-206.2 860.47)"/><path class="cls-1" d="M1146.82,1646a15.46,15.46,0,0,1-7.79-28.83c1.1-.66,122-77.35,216.41-450.12l2.69-10.65,10.94-.95c.13,0,18.71-1.9,41.2-13.14,48.37-24.18,39.79-130.4,28.07-170.62-3.52-12.07-8.64-20.14-14.79-23.35a15.72,15.72,0,0,0-11.48-1,15.32,15.32,0,0,1-19.88-8.81,15.6,15.6,0,0,1,8.9-20.09,46.51,46.51,0,0,1,35.77,2c14.51,7.13,25,21.46,31.15,42.6,14.75,50.58,24.16,172.89-43.91,206.93a172.58,172.58,0,0,1-41.2,14.48c-98,380-223,456.38-228.33,459.46A15.42,15.42,0,0,1,1146.82,1646Z" transform="translate(-206.2 860.47)"/><path class="cls-1" d="M1359.67,1186.5c-19.39,0-35.59-6.24-48.28-18.63-24.47-23.9-33.49-68.94-26.81-133.87,6.52-63.44,35-73.44,40.59-74.8l7,29.16a3.79,3.79,0,0,0,1.11-.33c-.14.06-14.56,6.79-18.9,49-5.53,53.81.83,92.64,17.93,109.34,8.6,8.4,20.43,11.5,36.19,9.5a15,15,0,0,1,3.77,29.77A101,101,0,0,1,1359.67,1186.5Z" transform="translate(-206.2 860.47)"/><path class="cls-2" d="M727.23,1819.25A297.17,297.17,0,0,1,744.67,1866c14.54,49.93,20.3,103.12,43.13,153.59A160.33,160.33,0,0,0,807.47,2052c2.22,2.85,4.44,5.52,6.66,8.06,16.8,19.07,32.57,28.59,32.57,28.59.09,5,.45,11.33.68,18.89,1,31.08.63,83.14-21.79,148.06-1.63,4.8-3.35,9.65-5.3,14.54-15,39-5.94,165.28,10.51,194.1,47.25,83.09,165.68,70.45,199.39,13.72,30.49-51.46,17.71-151.32,12-186.43-1.31-8-2.26-12.64-2.26-12.64,31.26-65.42,58.12-153.27,58.12-219.1a145.11,145.11,0,0,0,19.85,1.54l0,2.17c4.49,40.73-3.08,110.28-17.89,173.84-1.64,7-3.36,14-5.17,20.84-8.74,33,7.48,137.28,51.06,189.11,50.52,60.17,161.2,39.15,183.4-5.75,26.73-53.92-8.2-144.44-21.57-175.29-3-6.84-4.89-10.69-4.89-10.69,55.73-131.89,59-244.7,49.11-358.69a807.49,807.49,0,0,0-159.7-416.23c-4.58-6.07-9.38-12-14.27-17.85-6.21-7.38-12.64-14.59-18.94-21.47-11.19-12.15-22.11-23.38-31.4-33.26l-12.73,10.78-20.7,4.81-343.51,80-3,40.32-1.32,18.08-2.85,38.82-7.25,97.55-4.3,58.35-3.58,47.94Z" transform="translate(-206.2 860.47)"/><g class="cls-3"><path class="cls-1" d="M1145.81,2447.36c50.51,60.15,161.21,39.15,183.42-5.77,26.72-53.9-8.2-144.44-21.6-175.3a17.64,17.64,0,0,1-2.54,1.09s50.55,93.5-4.49,143.61c-43.39,39.55-113.41,27-142.13-25.49-35-64.08-39.55-179.18-39.55-179.18l-19,31.08c-1.66,7-3.36,14-5.2,20.86C1086,2291.22,1102.25,2395.5,1145.81,2447.36Z" transform="translate(-206.2 860.47)"/></g><g class="cls-4"><path class="cls-5" d="M956.33,2312l2.62-.61A19,19,0,0,0,956.33,2312Z" transform="translate(-206.2 860.47)"/></g><g class="cls-4"><path class="cls-5" d="M955.8,2312.08l.53-.13Z" transform="translate(-206.2 860.47)"/></g><g class="cls-3"><path class="cls-1" d="M830.79,2464.29c47.27,83.11,165.69,70.45,199.39,13.75,30.51-51.51,17.73-151.33,12-186.47l-83,19.73c11.44-2.19,48.41-4.37,50.68,57.66,1.53,40.73-5,86.08-59.45,93.28-133.75,17.59-123.71-117.64-117.68-194.33,1.18-15.32-1.7-17.94-7.12-12.27q-2.42,7.2-5.28,14.58C805.25,2309.2,814.37,2435.48,830.79,2464.29Z" transform="translate(-206.2 860.47)"/></g><g class="cls-3"><path class="cls-1" d="M1063.9,2241.86s-30.58,62.64-110.45,75.4c-7.76,1.24-11.29-9.32-4.36-13,31.07-16.61,76.41-58.6,88.78-115.91,10.61-49.15,6.16-97.14.16-130a37,37,0,0,1,34.65-43.72c40.35-1.83,98.88-6.46,137.35-18.14,25.82-7.85,52.49-18.59,75.23-38.25a14.68,14.68,0,0,1,24.3,10.18c.74,11.9-.23,24.13-5.91,30.29-21.63,23.43-123,52.62-205.79,69.86,0,0-1.63,37.65-13.68,87.79C1070.56,2213.05,1063.9,2241.86,1063.9,2241.86Z" transform="translate(-206.2 860.47)"/></g><g class="cls-3"><path class="cls-1" d="M1117.83,2063.58s119.72-18.88,177.78-74.93c0,0-5.72,71.75-109.1,128.1-46.21,25.19-67,56.92-80.91,100.59C1105.6,2217.34,1125.28,2118.92,1117.83,2063.58Z" transform="translate(-206.2 860.47)"/></g><path class="cls-1" d="M1234.29,2499.51c-40.64,0-77.06-15.23-100-42.51-47.33-56.35-63.63-166.62-54.11-202.58,17.79-67.2,27.35-146.77,22.73-189.2a15,15,0,1,1,29.82-3.25c5,46.37-4.63,128.67-23.55,200.13-7.1,26.84,6.54,126.15,48.08,175.61,20.08,23.9,55,35.41,93.42,30.81,30.34-3.64,57.1-17.45,65.09-33.57,24-48.44-11-141.12-26.53-172.74l-3-6.14,2.65-6.31c57.26-135.44,56.9-249,48-351.54-12.32-141.48-49.77-254.51-117.86-355.72a15,15,0,0,1,24.9-16.75c71,105.6,110.07,223.12,122.84,369.87,9.12,104.83,9.57,220.91-47.64,359.63,12.1,26.63,54.87,129.7,23.54,193-12.8,25.86-46.67,45-88.4,50A167.87,167.87,0,0,1,1234.29,2499.51Z" transform="translate(-206.2 860.47)"/><path class="cls-1" d="M1175.17,1456.55a228.92,228.92,0,0,1,21.32,14.93c6.74,5.32,13.28,10.83,19.54,16.63a194.57,194.57,0,0,1,17.94,18.27c5.45,6.57,10.52,13.55,14.23,21.6a15.23,15.23,0,0,1-24.44,17.3l-.21-.21a130.57,130.57,0,0,1-15.46-18.85c-4.72-6.69-8.89-13.92-13.12-21.14s-8.3-14.64-12.23-22.2-7.66-15.34-10.85-23.58a2.26,2.26,0,0,1,3.28-2.75Z" transform="translate(-206.2 860.47)"/><path class="cls-2" d="M741.85,1470.67" transform="translate(-206.2 860.47)"/><path class="cls-6" d="M741.85,1470.67" transform="translate(-206.2 860.47)"/><path class="cls-2" d="M1169.39,2251.13" transform="translate(-206.2 860.47)"/><path class="cls-2" d="M758.63,1794.82,770.2,1827l-.87-14.75A100.51,100.51,0,0,0,758.63,1794.82Z" transform="translate(-206.2 860.47)"/><path class="cls-1" d="M936.07,2538.58h-1.4c-50.38-.46-93-24.83-116.93-66.87-18.26-32.09-28.3-163.24-11.44-206.9,29.32-76,27-134.45,25.77-165.87,0-.73-.06-1.43-.09-2.12-12.92-9.47-40.68-33-57.85-71-16.25-36-22.53-77.18-28.6-117-6.58-43.19-12.79-84-30.81-111.41a15,15,0,0,1,25.08-16.47c21.61,32.9,28.3,76.84,35.38,123.36,5.77,37.87,11.73,77,26.28,109.21,18.52,41,52.72,62.28,53.06,62.49l7,4.28.21,8.22c.06,2.69.18,5.81.32,9.32,1.24,31.2,3.81,96.12-27.75,177.86-13.41,34.72-4.64,156.39,9.52,181.26,18.5,32.5,51.72,51.35,91.13,51.71,35.66.44,68.56-15,82.32-38.21,34.08-57.39,8.2-187.1,7.94-188.41l-1-4.93,2.17-4.53c34.53-72.21,54.34-146.54,54.34-203.94a15,15,0,0,1,30,0c0,60.52-20.06,137.68-55.15,212.4,4.78,26,23.7,143.76-12.49,204.72C1023.92,2517.91,982,2538.58,936.07,2538.58Z" transform="translate(-206.2 860.47)"/><path class="cls-2" d="M906.75,2295" transform="translate(-206.2 860.47)"/><path class="cls-1" d="M1090.8,2051.79c8.45-2.61,17-4.82,25.53-6.87,8.47-2.35,17-4.4,25.55-6.49,16.95-4.51,34.1-8.44,50.93-13.43,16.89-4.83,33.69-10.06,50.17-16.23s33-12.75,48.23-21.48l.14-.08a1.79,1.79,0,0,1,2.17,2.81c-6.5,6.67-13.75,12.12-21.16,17.47s-15.17,10.12-23,14.75a420.18,420.18,0,0,1-49,24A480.8,480.8,0,0,1,1149,2064.6c-8.72,2.48-17.5,4.71-26.32,6.79-8.86,1.86-17.76,3.56-26.72,4.87a12.52,12.52,0,0,1-5.5-24.36Z" transform="translate(-206.2 860.47)"/><path class="cls-1" d="M1396.93,1563.82a91.52,91.52,0,0,1-18.26-1.61,12.5,12.5,0,0,1,5.74-24.34c3.06.69,76.61,16,106.67-83.26,17.91-59.12-23.12-113.4-62.78-165.9-30.48-40.34-59.26-78.43-59.26-117.27a12.5,12.5,0,0,1,25,0c0,30.46,26.33,65.3,54.2,102.2,41.42,54.8,88.36,116.93,66.77,188.22C1487.77,1551.76,1427.37,1563.82,1396.93,1563.82Z" transform="translate(-206.2 860.47)"/><path class="cls-2" d="M1283.36,1861.5c-16.44,8.65-35,18-55.18,27.64,12.41-4.85,23.78-9.47,33.89-13.69A69.49,69.49,0,0,0,1283.36,1861.5Z" transform="translate(-206.2 860.47)"/><path class="cls-1" d="M950.77,2310.31a160.54,160.54,0,0,0,28.06-10.72,138.34,138.34,0,0,0,24.5-15.1,154.49,154.49,0,0,0,20.41-18.84c1.48-1.75,3.27-3.2,4.64-5.06s2.92-3.54,4.47-5.25c3-3.47,5.61-7.33,8.93-10.75l1.15-1.19a12.49,12.49,0,0,1,20.14,14.28,93.5,93.5,0,0,1-20.16,27.15c-8.09,8-18,14.11-28,19a113.19,113.19,0,0,1-31.66,10c-10.84,1.69-21.72,2.06-32.46.07a1.8,1.8,0,0,1-1.45-2.11,1.82,1.82,0,0,1,1.29-1.42Z" transform="translate(-206.2 860.47)"/><path class="cls-1" d="M1224.06,2293.26c18.11-8.44,34.31-19.32,47.37-32.3a158.85,158.85,0,0,0,17.6-20.65c5.55-7,9.83-14.83,15.16-22.32l.67-.94a12.52,12.52,0,0,1,22,11.54,90.57,90.57,0,0,1-16.57,28.59c-7,8.65-15.79,15.68-25,21.56a116.5,116.5,0,0,1-29.34,13.54c-10.25,3-20.69,4.88-31.33,4.51a1.81,1.81,0,0,1-.71-3.45Z" transform="translate(-206.2 860.47)"/><path class="cls-2" d="M597,2240.06c27.91,8.06,148.65,32.44,145.35-81.15-.68-24-8.48-62.61-7.93-62.65s64.11,32.75,82.09-1.82c6.53-12.55,4.53-24.1-2.35-34.34a57.83,57.83,0,0,0-6.66-8.06c-21.89-22.29-65.61-36.75-84.18-39.15,0,0,.13-1.54.4-4.39,1.64-17.54,8.43-84.5,21-142.49,6.8-31.31,15.27-60,25.51-76.93l-8.88-62.43-4.12-29.18-13.73-96.55-6.93-48.61c-1.59,0-107.92.45-148.83,122.51-.09.22-.14.45-.23.68-24.47,73.71-29.31,209.81-17.62,394.89C573.14,2122.71,538,2222.93,597,2240.06Z" transform="translate(-206.2 860.47)"/><g class="cls-3"><path class="cls-1" d="M707.57,2027c4.93,3.49,10.51-5,16.12-18.53,1.64-17.54,8.43-84.5,21-142.49,14.54,49.93,20.3,103.12,43.13,153.59A160.33,160.33,0,0,0,807.47,2052c2.22,2.85,4.44,5.52,6.66,8.06,16.8,19.07,32.57,28.59,32.57,28.59.09,5,.45,11.33.68,18.89l17.26-2a516.29,516.29,0,0,0-3-71.69,38.41,38.41,0,0,1,31.54-42.23c33.77-6,76-18.74,126.16-43.66,0,0,25.42-63.38-27.14-81.68,0,0-90.88,58.49-172.48,46.44-15.22-34.66-28.36-81.6-20.79-152,5.53-51.33-11.24-52.28-29.41-40.45a68.47,68.47,0,0,0-8.24,6.34c-17.49,15.54-23.79,37.69-29.86,65.06-.86,3.94-2,8.29-3.12,13-9.65,38.42-28.64,101.71-36.88,171.75C684,2039.71,707.57,2027,707.57,2027Z" transform="translate(-206.2 860.47)"/></g><path class="cls-1" d="M774.61,1791.78c-4.54,18-7.47,36.17-10.6,54.63L759.17,1874l-4.6,27.84-8.79,56c-2.82,18.7-5.16,37.68-7,56.32l-13.49-16.75a160.73,160.73,0,0,1,22,5.1c6.91,2.06,13.64,4.44,20.29,7.13,13.27,5.43,26.24,11.9,38.58,20.9a91.94,91.94,0,0,1,17.52,16.4c5.27,6.64,10.13,15.05,11.74,25.17a47.94,47.94,0,0,1-4.88,28.8,44,44,0,0,1-9.16,12.35,44.64,44.64,0,0,1-13.05,8.37c-9.32,3.74-18.29,4.31-26.42,3.94a114,114,0,0,1-22.92-3.84,175.78,175.78,0,0,1-20.83-7.06l-5-2.11-4.6-2.07a14.55,14.55,0,0,0,4.9,1.16c.72,7.56,26.75-23.93,16.4-15.56l0-.89.11.8.36,2.28.81,4.9c2.22,13.3,4.36,26.79,5.75,40.75a176.12,176.12,0,0,1,1,21.77,133.64,133.64,0,0,1-2.09,22.51c-2.54,15.07-9,30.76-19.88,43.41s-25.75,21.24-40.54,25.71c-14.89,4.71-29.86,6-44.39,6a227.07,227.07,0,0,1-42.78-4.71c-3.51-.74-7-1.51-10.53-2.43-1.78-.46-3.47-.9-5.41-1.5l-6.2-2.19a56.71,56.71,0,0,1-22-16.14,66.72,66.72,0,0,1-12-23,110,110,0,0,1-4.22-22.92c-1.28-14.9-.44-29,.7-42.75s2.9-27.11,4.29-40.18,2.49-25.73,1.73-37.43l-2.29-40.23c-1.36-26.84-2.48-53.7-3.08-80.61s-.9-53.86-.38-80.86,1.44-54,3.71-81.13,5.48-54.25,11.16-81.41c1.38-6.79,3.2-13.57,4.85-20.36l3-10.16,1.56-5.07,1.92-5c2.66-6.63,4.95-13.38,8-19.88,3.3-6.4,6.48-12.85,9.93-19.17,4-6.06,7.85-12.19,12-18.14l6.86-8.53c2.32-2.8,4.36-5.86,7-8.39,5.19-5.17,9.92-10.86,15.77-15.39l8.53-7c3-2.11,6.17-4.06,9.26-6.08,12.57-7.67,26.26-13.65,40.62-16.56a99.32,99.32,0,0,1,21.75-2.21,73.67,73.67,0,0,1,22,3.23,5.39,5.39,0,0,1,.53,10l-.58.26c-12,5.32-23.81,10.53-34.85,15.8-2.75,1.4-5.56,2.58-8.26,4s-5.4,2.79-8.08,4.18-5.16,3.13-7.8,4.56l-3.91,2.23-3.73,2.52c-2.51,1.64-5,3.34-7.53,4.9l-7.14,5.48c-5,3.35-9.08,7.86-13.63,11.84-4.38,4.18-8,9.11-12,13.68-3.55,5-6.74,10.21-10.17,15.28-24.69,42.75-31.68,95.7-36.27,147.88-2.19,26.22-3.15,52.67-3.61,79.15s-.22,53,.38,79.61,1.7,53.16,3,79.75l2.27,39.88c.93,15-.47,29.12-1.84,42.62s-3.1,26.69-4.24,39.61-1.74,25.6-.7,37.37,3.88,22.54,9.29,28.88a25.51,25.51,0,0,0,10,7.3l3.26,1.13c1.25.4,2.8.81,4.25,1.18,3,.78,6,1.44,9,2.08,24.29,4.87,50.14,6.18,71.68-.46,10.74-3.27,19.81-8.85,26.45-16.46a59.31,59.31,0,0,0,12.84-28.76,102.79,102.79,0,0,0,1.58-17.39A141.31,141.31,0,0,0,726,2147c-1.25-12.65-3.28-25.6-5.46-38.68l-.83-5-.42-2.67-.24-1.69a20.05,20.05,0,0,1-.17-2.13c-10.33,8.25,15.61-23.73,16.59-16a16.09,16.09,0,0,1,5.48,1.4l4.55,2,4.24,1.79a145.4,145.4,0,0,0,17.14,5.81,83.17,83.17,0,0,0,16.57,2.84c5.19.27,9.84-.34,13-1.63a12.09,12.09,0,0,0,6.43-6.07,16.83,16.83,0,0,0,1.94-10.07c-.82-6.3-7.71-14.85-17.06-21.49-9.28-6.8-20.37-12.47-31.85-17.13-5.75-2.33-11.63-4.41-17.54-6.17a106.88,106.88,0,0,0-17.1-3.88l-14.74-1.8,1.25-15c1.62-19.51,3.65-38.6,5.75-57.88s4.88-38.45,8.5-57.56l2.89-14.33,3.4-14.26c1.09-4.75,2.35-9.5,3.76-14.22s2.7-9.42,4.45-14.1,3.39-9.32,5.27-13.92c2.15-4.57,4.17-9.15,6.41-13.63,2.4-4.47,5.08-8.89,7.8-13.14a113.39,113.39,0,0,1,9.78-12.1,5.22,5.22,0,0,1,9,4.73Z" transform="translate(-206.2 860.47)"/><g class="cls-3"><path class="cls-1" d="M597,2240.09c27.85,8.07,148.63,32.43,145.32-81.15-.31-10.26-1.31-21.52-2.58-31.78C717,2195.34,617.42,2199.25,599,2182.31c-24.53-22.52-23.39-73.78-26.53-95.09C566.86,2136.2,555.19,2228,597,2240.09Z" transform="translate(-206.2 860.47)"/></g><g class="cls-3"><path class="cls-1" d="M1313,1759.35a759.69,759.69,0,0,1-56.4-142.54,769.38,769.38,0,0,0,34.35,76.32,437.05,437.05,0,0,1,36.81,97.61C1323.19,1780.05,1318.23,1769.56,1313,1759.35Z" transform="translate(-206.2 860.47)"/></g><circle class="cls-2" cx="1102.82" cy="2594.54" r="49.01"/><g class="cls-3"><path class="cls-1" d="M1355.56,1718.73a49,49,0,1,1-93.1,30.68,48.47,48.47,0,0,1-2.08-21.38,49,49,0,0,0,84.15-27.73A48.52,48.52,0,0,1,1355.56,1718.73Z" transform="translate(-206.2 860.47)"/></g><path class="cls-1" d="M1309,1798.57a64.48,64.48,0,1,1,61.29-84.68h0a64.55,64.55,0,0,1-61.29,84.67Zm0-98a33.55,33.55,0,1,0,10.52,65.41,33.55,33.55,0,0,0-10.52-65.41Z" transform="translate(-206.2 860.47)"/><path class="cls-2" d="M1298.55,1865.52l-240.81,95.55a55.94,55.94,0,0,1-72.43-31.28l-50.84-128.15a56,56,0,0,1,21.34-67.27,54.64,54.64,0,0,1,9.94-5.16l240.78-95.54A55.9,55.9,0,0,1,1279,1665l40.29,101.49,10.59,26.65A56,56,0,0,1,1298.55,1865.52Z" transform="translate(-206.2 860.47)"/><g class="cls-3"><path class="cls-1" d="M1298.55,1865.52l-240.81,95.55a55.94,55.94,0,0,1-72.43-31.28l-50.84-128.15a56,56,0,0,1,21.34-67.27c17.28,3.66,28.27,6,28.27,6,52.54,98.22,102.18,137.89,230.74,89.29,55.49-21,87-43.21,104.43-63.23l10.59,26.65A56,56,0,0,1,1298.55,1865.52Z" transform="translate(-206.2 860.47)"/></g><path class="cls-1" d="M1037.27,1977.52a68.39,68.39,0,0,1-63.56-43.11l-50.86-128.16a68.44,68.44,0,0,1,38.29-88.66L1201.93,1622a68.44,68.44,0,0,1,88.66,38.29l50.86,128.17a68.43,68.43,0,0,1-38.29,88.65l-240.8,95.56A68,68,0,0,1,1037.27,1977.52Zm20.48-16.44h0ZM1227,1642.23a43.13,43.13,0,0,0-15.85,3l-240.79,95.56a43.47,43.47,0,0,0-24.28,56.2l50.86,128.17a43.35,43.35,0,0,0,56.21,24.26l240.79-95.54a43.46,43.46,0,0,0,24.27-56.2l-50.86-128.17a43.65,43.65,0,0,0-40.35-27.32Z" transform="translate(-206.2 860.47)"/><path class="cls-2" d="M1307.84,1860.74a49,49,0,0,1-9.29,4.78l-240.81,95.55a55.89,55.89,0,0,1-59.27-11.75,54.86,54.86,0,0,1-13.12-19.54l-22.62-56.92-7.46-18.79-20.8-52.43a56,56,0,0,1,31.28-72.43l52-20.63a55.94,55.94,0,0,0-22.06,67.67l27.44,69.23,23.41,59a56,56,0,0,0,72.43,31.28Z" transform="translate(-206.2 860.47)"/><g class="cls-3"><path class="cls-1" d="M1307.84,1860.74a49,49,0,0,1-9.29,4.78l-240.81,95.55a55.88,55.88,0,0,1-72.39-31.29l-30.08-75.71c11.37,11,28.77,23.08,46.86,17.9,9.94-2.82,16.61-13.43,21-26.49l23.41,59a56,56,0,0,0,72.43,31.28Z" transform="translate(-206.2 860.47)"/></g><path class="cls-1" d="M1037.3,1977.52a68.63,68.63,0,0,1-63.59-43.12l-50.85-128.16a68.45,68.45,0,0,1,38.28-88.66l52-20.64,11.3,22.18a43.34,43.34,0,0,0-17.11,52.53l50.86,128.16a43.41,43.41,0,0,0,56.17,24.29l188.87-75,11.41,22.1a64.44,64.44,0,0,1-11.57,5.93l-240.74,95.53A67.64,67.64,0,0,1,1037.3,1977.52Zm-55.1-241.4-11.84,4.7a43.47,43.47,0,0,0-24.27,56.2L997,1925.19a43.43,43.43,0,0,0,56.18,24.28l13.38-5.31A67.68,67.68,0,0,1,1035,1909l-50.86-128.16A68.13,68.13,0,0,1,982.2,1736.12Z" transform="translate(-206.2 860.47)"/><path class="cls-7" d="M1116.52,1803.71c1.85,4.75,10.13,45.69,10.13,45.69L1099.59,1860c-18.63,7.27-41.26-6.13-50.55-29.93s-1.71-49,16.93-56.25l27.06-10.56S1113.5,1796,1116.52,1803.71Z" transform="translate(-206.2 860.47)"/><g class="cls-3"><path class="cls-1" d="M1116.52,1803.71c1.85,4.75,10.13,45.69,10.13,45.69L1099.59,1860c-18.63,7.27-41.26-6.13-50.55-29.93s-1.71-49,16.93-56.25l27.06-10.56S1113.5,1796,1116.52,1803.71Z" transform="translate(-206.2 860.47)"/></g><path class="cls-1" d="M1094.11,1864.41c-19,0-38.34-14.3-47.06-36.65-5.1-13.06-5.88-27-2.2-39.21,3.88-12.88,12.18-22.38,23.39-26.76l18.89-7.37a18,18,0,0,1,21.92,7.36c11.13,18.13,17.68,29.64,19.46,34.2h0c.47,1.2,1.72,4.41,8.71,38.2a18,18,0,0,1-11.11,20.43l-18.79,7.33A36.25,36.25,0,0,1,1094.11,1864.41Zm-.42-96.23a3.12,3.12,0,0,0-1.11.21l-18.89,7.38c-6.81,2.66-12,8.73-14.48,17.1-2.71,9-2.07,19.48,1.82,29.44,7.76,19.91,26.1,31.41,40.84,25.66l18.79-7.32a3,3,0,0,0,1.87-3.42c-6.3-30.46-7.77-35.17-8-35.81-1.39-3.55-8.22-15.42-18.27-31.79A3,3,0,0,0,1093.69,1768.18Z" transform="translate(-206.2 860.47)"/><ellipse class="cls-7" cx="1114.84" cy="1801.31" rx="36.22" ry="46.26" transform="matrix(0.93, -0.36, 0.36, 0.93, -784.69, 1388.9)"/><g class="cls-3"><path class="cls-1" d="M1082.74,1771.76a58.56,58.56,0,0,0,3.36,12.72c9.29,23.8,31.92,37.19,50.55,29.92a30.51,30.51,0,0,0,15.29-13.54c2.86,19.48-5,37.57-20.29,43.54-18.63,7.27-41.26-6.12-50.55-29.92C1075.09,1799.06,1076.18,1783.09,1082.74,1771.76Z" transform="translate(-206.2 860.47)"/></g><g class="cls-8"><path class="cls-2" d="M1143.58,1803.15c-9.29-23.8-31.92-37.2-50.55-29.93a30.56,30.56,0,0,0-15.37,13.67c1.88-13.27,9.08-24.27,20.37-28.67,18.63-7.27,41.26,6.13,50.55,29.93,6,15.35,4.93,31.26-1.56,42.58A55,55,0,0,0,1143.58,1803.15Z" transform="translate(-206.2 860.47)"/></g><path class="cls-1" d="M1121.17,1853.86c-19,0-38.34-14.31-47.06-36.66-10.76-27.61-1.26-57.21,21.19-66s49.49,6.58,60.27,34.2c5.09,13.06,5.88,27,2.2,39.2-3.88,12.89-12.18,22.39-23.39,26.76A36.22,36.22,0,0,1,1121.17,1853.86Zm-12.45-90.14a21.74,21.74,0,0,0-8,1.49c-14.74,5.75-20.43,26.63-12.66,46.54s26.09,31.42,40.84,25.67c6.81-2.66,12-8.74,14.47-17.11,2.72-9,2.08-19.48-1.81-29.44C1135.18,1774.44,1121.57,1763.72,1108.72,1763.72Z" transform="translate(-206.2 860.47)"/><path class="cls-1" d="M1223.33,1906.81a12.52,12.52,0,0,1-11.73-8.17l-30.44-82.35a27,27,0,0,1,3.56-25.43l21.55-29.45a2.11,2.11,0,0,0,.26-2l-42.7-108.72a12.5,12.5,0,1,1,23.27-9.14l42.71,108.71a27,27,0,0,1-3.36,25.94l-21.56,29.46a2.11,2.11,0,0,0-.28,2l30.44,82.34a12.5,12.5,0,0,1-7.39,16.06A12.66,12.66,0,0,1,1223.33,1906.81Z" transform="translate(-206.2 860.47)"/><path class="cls-2" d="M754,1854.87s-16.76,23.84-10,52.12c7.75,32.71,30.65,40.82,30.65,40.82s96.87,23.4,224.11-42.14c0,0,25.4-63.38-27.2-81.68C971.54,1824,834.18,1881.94,754,1854.87Z" transform="translate(-206.2 860.47)"/><g class="cls-3"><path class="cls-1" d="M744,1907c7.75,32.67,30.63,40.78,30.63,40.78s96.86,23.42,224.13-42.14c0,0,8.33-20.88,5.52-42.09-.36,1.18-.63,1.82-.63,1.82-93,47.92-169.78,48.29-204.35,45a57.14,57.14,0,0,1-50.17-42.7l-.24-1a10.18,10.18,0,0,1-.31-1.63C744.4,1874.71,740,1890.07,744,1907Z" transform="translate(-206.2 860.47)"/></g><path class="cls-1" d="M820.5,1967.41c-29.77,0-47.78-4.16-49.5-4.58l-1.54-.45c-11.45-4.06-32.87-19.54-40.52-51.82-8.23-34.66,11.59-63.38,12.44-64.59l6.65-9.45,11,3.7c73.62,24.86,205.24-29.92,206.56-30.47l5.47-2.31,5.62,2c17.59,6.12,30.58,17.47,37.57,32.81,13.76,30.23.45,65.32-1.11,69.22l-2.15,5.35-5.12,2.64C929,1959,862.85,1967.41,820.5,1967.41ZM779.35,1933c10.58,2.09,96.49,16.59,206.75-38.27,2.82-9.79,5.75-27.12-.08-39.82-2.86-6.2-7.62-10.9-14.5-14.24-26.72,10.55-133.88,49.77-209.56,32.45-3,7.46-5.73,18.53-2.94,30.29C763.94,1924.19,776.19,1931.45,779.35,1933Z" transform="translate(-206.2 860.47)"/><path class="cls-1" d="M1210,2231.63c-32.49,0-68.88-8.32-106.15-32.44a10,10,0,1,1,10.86-16.79c107.78,69.71,207.13-6.93,208.12-7.71a10,10,0,0,1,12.39,15.69C1334.49,2191,1281.81,2231.63,1210,2231.63Z" transform="translate(-206.2 860.47)"/><path class="cls-1" d="M949.72,2229.07a203.52,203.52,0,0,1-112.38-33.18,10,10,0,0,1,10.86-16.79c108.29,70.06,222.63-4.14,223.77-4.9a10,10,0,1,1,11,16.67C1082.17,2191.43,1024.16,2229.07,949.72,2229.07Z" transform="translate(-206.2 860.47)"/><path class="cls-1" d="M731.22,1954.14a10,10,0,0,1-3.33-.58c-1.09-.38-109.51-38.15-157.53-1.47a10,10,0,1,1-12.14-15.9c56.63-43.24,171.49-3.2,176.35-1.48a10,10,0,0,1-3.35,19.43Z" transform="translate(-206.2 860.47)"/><path class="cls-1" d="M1331,1284.51c-142.56,0-167-131.9-167.19-133.27a10,10,0,0,1,19.71-3.41c.9,5.11,23.17,122.44,157.39,116.46h.46a10,10,0,0,1,.44,20C1338.18,1284.43,1334.57,1284.51,1331,1284.51Z" transform="translate(-206.2 860.47)"/><g class="cls-3"><path class="cls-1" d="M587.69,1674.82a330.2,330.2,0,0,0,93.73,22.06,489.5,489.5,0,0,0,54.78,1.59c6.89-.18,13.86-.5,21-1,61.11-4.3,130-20.79,201.79-59.49,101.76-55,163.1-129.62,200-196.62-11.19-12.15-22.11-23.38-31.4-33.26l-12.73,10.78-20.7,4.81-343.51,80-3,40.32-1.32,18.08-2.85,38.82-6.93-48.61C734.93,1552.31,628.6,1552.76,587.69,1674.82Z" transform="translate(-206.2 860.47)"/></g><path class="cls-2" d="M1187.74,1096.12a481.6,481.6,0,0,1-41.22,240.38,488.65,488.65,0,0,1-24,46.21c-4.31,7.37-8.9,14.67-13.67,21.94a484.25,484.25,0,0,1-47.59,60.75,481.59,481.59,0,0,1-110.09,89q-12,7.07-24.39,13.43c-150.85,77.41-337.94,73.29-489.31-27.06-223-147.79-283.94-448.37-136.19-671.36A483.58,483.58,0,0,1,402.08,759c4.43-3.61,9-7.11,13.6-10.51q18.44-13.76,37.94-25.58a487.08,487.08,0,0,1,196-67q16.43-1.89,33-2.68a484,484,0,0,1,290,80.12C1100.93,818.3,1175.56,953.86,1187.74,1096.12Z" transform="translate(-206.2 860.47)"/><path class="cls-1" d="M705.2,1622.83A485.81,485.81,0,0,1,436.64,1542c-223.3-148-284.58-450.08-136.6-673.4A484.58,484.58,0,0,1,401.16,757.82c4.22-3.44,8.82-7,13.65-10.54,12.26-9.14,25.06-17.78,38.05-25.66A488.48,488.48,0,0,1,649.49,654.4c11.07-1.29,22.21-2.19,33.09-2.7a485.39,485.39,0,0,1,290.87,80.37c124.36,82.4,203,215,215.75,363.93h0a484.68,484.68,0,0,1-41.34,241.1,490.76,490.76,0,0,1-24.09,46.36c-4,6.77-8.45,14-13.71,22a489,489,0,0,1-47.74,61,483.37,483.37,0,0,1-110.42,89.31c-8,4.68-16.22,9.2-24.47,13.46A486.47,486.47,0,0,1,705.2,1622.83Zm.17-968.72c-7.5,0-15.07.18-22.65.52-10.82.51-21.88,1.41-32.89,2.68a485.54,485.54,0,0,0-195.44,66.82c-12.91,7.84-25.64,16.42-37.83,25.51-4.81,3.53-9.36,7.05-13.56,10.47A481.8,481.8,0,0,0,302.49,870.26c-147.09,222-86.18,522.24,135.77,669.33,145.45,96.43,332.37,106.76,487.82,27,8.21-4.24,16.4-8.74,24.33-13.39a480,480,0,0,0,109.74-88.76,486.17,486.17,0,0,0,47.46-60.57c5.22-8,9.68-15.13,13.62-21.87a487.31,487.31,0,0,0,24-46.08,481.77,481.77,0,0,0,41.1-239.64h0c-12.68-148-90.84-279.83-214.45-361.73a481.79,481.79,0,0,0-239.44-79.63C723.54,654.37,714.5,654.11,705.37,654.11Z" transform="translate(-206.2 860.47)"/><g class="cls-3"><path class="cls-1" d="M437.45,1540.8c151.36,100.38,338.48,104.49,489.31,27q12.36-6.36,24.38-13.41a485.28,485.28,0,0,0,157.71-149.79c4.73-7.28,9.33-14.56,13.67-21.92a497.4,497.4,0,0,0,24-46.24,481.56,481.56,0,0,0,41.22-240.38,487.35,487.35,0,0,0-29.31-129.73,483.23,483.23,0,0,1-66,275.46c-4.3,7.36-8.9,14.65-13.67,21.93a482.94,482.94,0,0,1-157.67,149.79Q909,1420.61,896.63,1427c-150.83,77.44-337.91,73.32-489.3-27a482.08,482.08,0,0,1-185.78-233.18C230.65,1313.1,305.81,1453.58,437.45,1540.8Z" transform="translate(-206.2 860.47)"/></g><path class="cls-1" d="M705.2,1632.67a495.56,495.56,0,0,1-274-82.43c-227.83-151-290.35-459.19-139.37-687A494.82,494.82,0,0,1,395,750.13c4.28-3.48,9-7.13,14-10.78,12.45-9.29,25.52-18.1,38.77-26.15a498.5,498.5,0,0,1,200.62-68.59c11.28-1.3,22.64-2.23,33.75-2.74a495.08,495.08,0,0,1,296.77,82C1105.77,807.94,1186,943.27,1199,1095.16h0a494.56,494.56,0,0,1-42.19,246,500.94,500.94,0,0,1-24.57,47.29c-4,6.89-8.61,14.22-14,22.39a498.32,498.32,0,0,1-96.9,108,492.7,492.7,0,0,1-64.5,45.33c-8.16,4.78-16.55,9.39-25,13.73A496.36,496.36,0,0,1,705.2,1632.67ZM705.36,664q-11,0-22.2.51c-10.58.49-21.42,1.38-32.2,2.63a475.74,475.74,0,0,0-191.47,65.45c-12.64,7.67-25.1,16.08-37.05,25-4.72,3.48-9.15,6.9-13.22,10.21a472.34,472.34,0,0,0-98.53,108c-144.08,217.44-84.41,511.58,133,655.67,142.48,94.46,325.6,104.59,477.89,26.42,8-4.14,16.06-8.56,23.85-13.12a470.21,470.21,0,0,0,107.46-86.93,476.7,476.7,0,0,0,46.51-59.35c5.1-7.79,9.47-14.81,13.33-21.4a481.4,481.4,0,0,0,23.48-45.18,472,472,0,0,0,40.25-234.73h0c-12.42-145-89-274.13-210.08-354.36a472,472,0,0,0-234.54-78C723.16,664.21,714.31,664,705.36,664Z" transform="translate(-206.2 860.47)"/><path class="cls-1" d="M705.2,1636a498.92,498.92,0,0,1-275.81-83c-229.34-152-292.27-462.23-140.3-691.59A498.12,498.12,0,0,1,393,747.57c4.3-3.5,9.07-7.19,14.07-10.87,12.52-9.33,25.68-18.2,39-26.3a501.41,501.41,0,0,1,201.94-69c11.36-1.32,22.8-2.26,34-2.77A498.59,498.59,0,0,1,980.7,721.13c127.73,84.63,208.49,220.85,221.58,373.75h0a497.82,497.82,0,0,1-42.47,247.64,505.4,505.4,0,0,1-24.74,47.61c-4,6.93-8.65,14.3-14,22.52a501.94,501.94,0,0,1-49.08,62.64A496,496,0,0,1,958.57,1567c-8.22,4.81-16.66,9.45-25.12,13.82A499.59,499.59,0,0,1,705.2,1636Zm.16-968.71q-11,0-22.05.51c-10.5.49-21.26,1.36-32,2.6a472.38,472.38,0,0,0-190.15,65c-12.55,7.61-24.93,16-36.78,24.8-4.7,3.46-9.09,6.84-13.11,10.13a469,469,0,0,0-97.88,107.23c-143.08,215.94-83.82,508,132.09,651.12,141.5,93.81,323.33,103.86,474.58,26.24,8-4.11,15.95-8.5,23.69-13a466.72,466.72,0,0,0,106.7-86.32,471.92,471.92,0,0,0,46.19-59c5.06-7.73,9.41-14.7,13.23-21.24a476.3,476.3,0,0,0,23.33-44.88,468.59,468.59,0,0,0,40-233.09c-12.33-144-88.37-272.23-208.62-351.91A468.67,468.67,0,0,0,731.67,668C723,667.49,714.25,667.24,705.36,667.24Z" transform="translate(-206.2 860.47)"/><path class="cls-1" d="M1182.38,1220.13C1054.27,1541.76,654.05,1635.78,448.93,1361,309.38,1174.06,384.67,893.1,572.8,770.56c136.92-89.18,309.61-116.35,506.12,58.32,0,0,75,90.76,91.37,173.31s18.26,165.6,18.26,165.6Z" transform="translate(-206.2 860.47)"/><path class="cls-9" d="M448.94,1361c205.11,274.77,605.33,180.74,733.45-140.86l1.24-10.61c-230.25,218.16-592.94,233-805.5-41C383.26,1236.68,405.89,1303.3,448.94,1361Z" transform="translate(-206.2 860.47)"/><path class="cls-1" d="M759.47,1585.93a444.82,444.82,0,0,1-57.94-3.76c-121-15.9-226-79.21-303.57-183.09-71.37-95.59-98.24-218.08-75.67-344.91,24.55-138,106.09-264,218.12-336.93,62.89-41,126.87-66.64,190.15-76.33l1.3-.2,1.31.08a496,496,0,0,1,246.46,82c127.23,84.3,207.68,220,220.72,372.29h0A495.94,495.94,0,0,1,1158,1341.72a503.72,503.72,0,0,1-24.64,47.42c-4,6.91-8.62,14.25-14,22.44a500.21,500.21,0,0,1-48.88,62.4l-1.47,1.35C978.25,1547,868.06,1585.93,759.47,1585.93Zm-26.38-919.8c-59.28,9.29-119.45,33.61-178.87,72.31-106.28,69.23-183.67,188.91-207,320.16-21.32,119.87,3.9,235.41,71,325.35,73.39,98.28,172.49,158.15,286.6,173.13,119.45,15.69,246.19-21.11,347.78-101a474.06,474.06,0,0,0,45.68-58.43c5.08-7.77,9.45-14.77,13.29-21.34a478.69,478.69,0,0,0,23.42-45,470.64,470.64,0,0,0,40.13-234.07c-12.38-144.55-88.73-273.35-209.48-353.36A470.59,470.59,0,0,0,733.09,666.13Z" transform="translate(-206.2 860.47)"/><ellipse class="cls-2" cx="370" cy="1403.66" rx="125.87" ry="173.23" transform="translate(-908.15 1285.32) rotate(-32.83)"/><path class="cls-1" d="M410.7,1578.89c-59.85,0-126.33-41.88-165.62-110.38h0c-29.79-52-38.8-109-24.73-156.46,9.67-32.61,29.35-57.32,56.92-71.47,68.74-35.25,166.37,8.8,217.64,98.23,29.79,51.94,38.81,109,24.74,156.45-9.66,32.61-29.35,57.33-56.93,71.47A113,113,0,0,1,410.7,1578.89ZM270.41,1454c43.63,76.1,123.94,115,179,86.78,20.3-10.42,34.92-29,42.26-53.79,11.64-39.28,3.39-89.24-22.07-133.64-43.64-76.1-123.94-115-179-86.78-20.31,10.42-34.92,29-42.26,53.8-11.64,39.28-3.39,89.24,22.07,133.63Z" transform="translate(-206.2 860.47)"/><ellipse class="cls-2" cx="341.99" cy="1436.37" rx="102.56" ry="137.48" transform="translate(-964.73 1312.47) rotate(-34.8)"/><path class="cls-1" d="M372.72,1565.07c-29.82,0-61.51-13.44-88.73-38h0c-55.68-50.26-75.1-131.81-43.3-181.79,13.17-20.69,33.13-33.4,57.71-36.73,33.38-4.5,70.41,9,101.59,37.17,55.67,50.27,75.09,131.82,43.3,181.8-13.18,20.69-33.13,33.39-57.72,36.73A96.19,96.19,0,0,1,372.72,1565.07Zm-61.45-254.36a93.8,93.8,0,0,0-12.46.83c-23.66,3.21-42.87,15.44-55.54,35.35-31,48.77-11.86,128.57,42.76,177.89h0c30.5,27.54,66.6,40.82,99.13,36.41,23.67-3.21,42.88-15.43,55.55-35.34,31-48.78,11.85-128.58-42.76-177.9C371.29,1323.88,340.33,1310.71,311.27,1310.71Z" transform="translate(-206.2 860.47)"/><g class="cls-3"><path class="cls-1" d="M455,1438.69c-7.05-25.07-21-48.3-39-67.33,11.28,58.53-21.76,104-77.65,103.65-36.11-.21-73.46-19.53-101.24-49,.69,3.69,1.61,7.47,2.67,11.27,18,63.84,80.77,115.91,140.2,116.29S473,1502.5,455,1438.69Z" transform="translate(-206.2 860.47)"/></g><path class="cls-1" d="M377.78,1575.74c-47.32,0-100.65-35.23-134.11-93.06h0c-25.22-43.59-33.52-92.22-22.22-130.08,7.21-24.14,21.71-42.29,42-52.47,53.7-27,129.44,10,172.41,84.24C461,1428,469.34,1476.59,458,1514.46c-7.2,24.14-21.72,42.28-42,52.46A84.44,84.44,0,0,1,377.78,1575.74Zm-76.06-259.13a59.41,59.41,0,0,0-26.94,6.12c-13.86,7-23.92,19.8-29.09,37.1-9.34,31.32-1.91,72.51,19.89,110.18h0c35.65,61.62,98,95,139.12,74.31,13.87-7,23.92-19.8,29.09-37.1,9.35-31.32,1.92-72.51-19.88-110.18C385.42,1347.79,339.83,1316.61,301.72,1316.61Z" transform="translate(-206.2 860.47)"/><g class="cls-10"><path class="cls-2" d="M526,921.63S707,819.51,867.79,857.3l.51.12a195.8,195.8,0,0,1,90,49c33.26,31.73,51.54,58.46,66.72,82.62,46.14,73.48,54,116.55,54,116.55,17.42-65.08,13.3-123.94-24.53-185.53q-5.61-9.09-12.22-18.32-1.5-2.12-3.09-4.18s0,0-.08-.07a486,486,0,0,0-39.75-42.55C949.49,807.53,871.19,754,778.92,764.3,606.38,783.53,515.13,917.75,526,921.63Z" transform="translate(-206.2 860.47)"/></g><g class="cls-10"><ellipse class="cls-2" cx="504.55" cy="1183.39" rx="64.75" ry="75.45" transform="translate(-532.64 1061.8) rotate(-17.15)"/></g><g class="cls-10"><ellipse class="cls-2" cx="544.96" cy="1314.38" rx="26.74" ry="31.16" transform="translate(-473.78 1006.79) rotate(-12.3)"/></g><path class="cls-11" d="M1971.17-138.65a640.07,640.07,0,0,1-12.06,78.14A645.27,645.27,0,0,1,1926.49,45.2c-60.06,148.37-175,274.77-332.4,345.94-157.7,71.32-329,74.06-480.29,20.84a648.62,648.62,0,0,1-96.43-43.05,646.33,646.33,0,0,1-70.15-44.48c158.38-39.84,341.43-104.08,530.88-189.76S1836.66-46,1971.17-138.65Z" transform="translate(-206.2 860.47)"/><path class="cls-12" d="M1478.1,134.69C1667.53,49,1836.66-46,1971.17-138.65a640.07,640.07,0,0,1-12.06,78.14c-103.51,75.2-268.89,168-461.47,255.14-184.47,83.42-356.41,144.63-480.27,174.3a646.33,646.33,0,0,1-70.15-44.48C1105.6,284.61,1288.65,220.37,1478.1,134.69Z" transform="translate(-206.2 860.47)"/><path class="cls-11" d="M1945-388c-105,84.94-312.51,203.84-560.36,316S910.45,117.33,777.29,140.1a648.23,648.23,0,0,1-37.65-71.2c-.52-1.17-1-2.31-1.57-3.51q-7.32-16.41-13.64-33A642.51,642.51,0,0,1,700.06-46.1c-.28-1.08-.52-2.12-.77-3.2a639.25,639.25,0,0,1-16.5-118,645.51,645.51,0,0,1,27.9-219.45,649.94,649.94,0,0,1,67.71-149.6,642.82,642.82,0,0,1,283.49-249.24q18.16-8.2,36.54-15.21c164.17-62.63,340-53.69,490.91,13.09,1,.43,1.91.83,2.86,1.29a645.9,645.9,0,0,1,179.29,119.58,636.65,636.65,0,0,1,71.91,80.39c2.4,3.14,4.73,6.33,7.07,9.53,1.94,2.61,3.81,5.25,5.68,7.93A640.8,640.8,0,0,1,1899-498.84q7.24,13.65,13.83,27.78c1.2,2.58,2.4,5.16,3.57,7.78A649.62,649.62,0,0,1,1945-388Z" transform="translate(-206.2 860.47)"/><path class="cls-12" d="M1912.78-471c1.22,2.57,2.41,5.14,3.59,7.75A648.6,648.6,0,0,1,1945-388c-105,84.95-312.51,203.86-560.36,316S910.44,117.32,777.29,140.09a647.32,647.32,0,0,1-37.65-71.2c-.53-1.16-1-2.31-1.55-3.49,126.25-14,356.64-88.72,609.3-203C1610-256.36,1824.74-385.27,1912.78-471Z" transform="translate(-206.2 860.47)"/><path class="cls-12" d="M691.42-150.44c-3.31,0-6.47-.08-9.51-.24l1.72-33.22c88.69,4.59,319.92-68.72,562.18-178.28C1535-493,1722-618.84,1757.36-675.6L1785.6-658c-45,72.3-261.34,206.41-526.08,326.14C1017-222.18,791.71-150.44,691.42-150.44Z" transform="translate(-206.2 860.47)"/><path class="cls-12" d="M713.14-370.28l-4.9-32.91c99.42-14.77,271.57-73.87,449.27-154.23,186.22-84.22,347.44-177.21,420.75-242.69l22.17,24.82c-75.66,67.57-240.12,162.67-429.21,248.19C990.91-445.56,815.39-385.46,713.14-370.28Z" transform="translate(-206.2 860.47)"/><path class="cls-12" d="M700.26-32.67h-1l.17-33.27h1c102.21,0,340.22-76.62,593.07-191,266.14-120.37,489.68-256,543.61-329.82l26.87,19.63C1806-487.87,1582.27-351,1307.13-226.6,1050.37-110.47,806.82-32.67,700.26-32.67Z" transform="translate(-206.2 860.47)"/><path class="cls-12" d="M1114.4,420.28l-.6-8.26-3.12-7.75,1.21-.48,1.31-.11c87.63-6.31,254.49-60.24,425.08-137.4,171.54-77.58,318.07-164.58,382.41-227l11.6,11.94c-65.64,63.72-214,152-387.15,230.27C1370.25,360.54,1205.2,413.74,1114.4,420.28Z" transform="translate(-206.2 860.47)"/><path class="cls-1" d="M1328.37,465.83A664.73,664.73,0,0,1,936.91,338.59l-30.2-22L943,307.48c163-41,345.61-106.27,527.94-188.74s351.88-176.44,490.35-271.8L1992-174.25,1988.59-137c-21.81,237.45-170.21,446-387.29,544.12A662.08,662.08,0,0,1,1328.37,465.83ZM988.83,331.7c178.26,114,404,131.25,598.05,43.49s330.2-268.63,362.25-477.8c-133.91,89.05-293.4,176.17-463.82,253.24S1144.13,290,988.83,331.7Z" transform="translate(-206.2 860.47)"/><path class="cls-12" d="M1953.82-547.55a21.24,21.24,0,0,1,1.38,4.17Z" transform="translate(-206.2 860.47)"/><path class="cls-13" d="M2287.88-530.91c39,86.19-89.53,235.82-316.71,392.26C1836.66-46,1667.53,49,1478.1,134.69S1105.6,284.61,947.22,324.45c-267.51,67.28-464.72,65-503.7-21.23C408.12,224.94,510.82,94.4,700.06-46.1a643.93,643.93,0,0,0,24.38,78.47c-52.32,42.78-78.08,76.72-69.13,96.51,9.11,20.15,53.07,23,122,11.21C910.44,117.32,1136.77,40,1384.6-72.06S1839.94-303.06,1945-388c54.32-44,81.23-78.83,72.12-99-8.94-19.76-51.45-22.85-118.11-11.83A643.64,643.64,0,0,0,1856.15-569C2086.63-618.28,2252.48-609.19,2287.88-530.91Z" transform="translate(-206.2 860.47)"/><path class="cls-14" d="M685.75,209.12c-49.68,0-87.57-10.31-100-37.91-17.85-39.45,22.86-98.92,121-176.75L722.2,14C599.14,111.62,604,151.14,608.44,160.93c15.37,34,136,36.47,370.7-34.5C1108.27,87.34,1254.28,31.52,1401.36-35s285.42-139.29,400-210.44C2009.73-374.85,2087.49-467.06,2072.12-501c-4.43-9.79-30.87-39.56-185.45-11.61l-4.44-24.55c123.24-22.3,194.77-13.59,212.62,25.87,34.71,76.74-160.72,212.8-280.3,287.08-115.52,71.71-254.84,145-402.9,212S1116.53,110.92,986.37,150.31C900.08,176.4,774.21,209.12,685.75,209.12Z" transform="translate(-206.2 860.47)"/><path class="cls-14" d="M649.67,296.21c-70.22,0-127.73-14.25-146.49-55.74-34.77-76.86,87.12-191,195.49-273.15l15.08,19.89c-138.81,105.27-209,196.11-187.84,243,12.57,27.79,59.78,42.37,133.29,41.17,76.3-1.29,179.71-19.31,299.06-52.12,147-40.4,312.45-101.41,478.3-176.42s320.86-158.91,448.31-242.65c103.45-68,185.28-133.72,236.64-190.16,49.4-54.29,69.68-99.49,57.12-127.28-21.2-46.87-135.78-54.13-306.51-19.41l-5-24.45c133.29-27.11,299.47-43.28,334.22,33.58,47.11,104.14-196.05,278.46-302.78,348.58C1770.05-94.53,1613.84-10,1446.84,65.56s-333.68,137-482,177.75C890.79,263.67,755.74,296.2,649.67,296.21Z" transform="translate(-206.2 860.47)"/><path class="cls-1" d="M631.77,389.2c-109.54,0-180.52-26.43-204.2-78.77C375.72,195.78,569.5,29,689.62-60.15l21.22-15.76,6.22,25.69a630.12,630.12,0,0,0,23.73,76.34l4.5,11.8-9.77,8c-68.83,56.29-64.34,75.59-64.26,75.76s12,16.73,103.09,1.17c135.74-23.22,366.82-104,603-210.84S1826.88-315,1934-401.61c71.83-58.14,67.25-78,67.17-78.17s-11.62-16.28-99.3-1.78l-12.46,2.06-5.88-11.18a629.5,629.5,0,0,0-41.66-68.23l-15.19-21.63,25.85-5.53c146.3-31.31,399.48-66.71,451.33,47.94,42,92.87-75.63,243.73-322.73,413.9C1840.94-27.71,1669.5,67.33,1485.31,150.63s-368.8,149.29-533.82,190.79C824.51,373.35,716.58,389.2,631.77,389.2Zm58-405.64C518.92,114.38,431,233.08,459.46,296c33.34,73.7,218.6,78.09,483.49,11.47,163-41,345.61-106.27,527.94-188.74s351.88-176.44,490.35-271.8c225-154.93,344-296.95,310.69-370.64h0c-28.45-62.93-175.65-75.3-386.71-33.39,8.2,12.74,16,25.8,23.29,39.06,72.72-10.61,112.4-3,124.51,23.82,13,28.69-11.51,66.76-77,119.81-110.89,89.69-321.79,208.68-564.16,318.29s-471,189.4-611.57,213.45c-83.14,14.19-127.9,7.45-140.87-21.25-12.12-26.79,8.36-61.65,64.36-109.24C698.59,12.61,693.93-1.86,689.78-16.44Z" transform="translate(-206.2 860.47)"/><g class="cls-15"><path class="cls-2" d="M1945-388q-18.33,14.83-40.72,31c-6-17-12.82-33.89-20.36-50.57-1.19-2.61-2.39-5.17-3.59-7.73q-6.57-14.18-13.8-27.8a650,650,0,0,0-42.81-70.14c-1.87-2.67-3.79-5.3-5.7-7.93a637.22,637.22,0,0,0-79-89.92A645.23,645.23,0,0,0,1556.86-732c-162.22-71.75-353.13-76.75-527.46,2.11A642.69,642.69,0,0,0,754.87-494.75a643.06,643.06,0,0,1,307.05-290.83c174.33-78.82,365.24-73.86,527.42-2.12a645.37,645.37,0,0,1,182.15,120.91,638.52,638.52,0,0,1,79,89.87c2,2.63,3.82,5.3,5.69,8a642.61,642.61,0,0,1,42.82,70.1q7.23,13.69,13.8,27.8c1.24,2.57,2.44,5.13,3.59,7.77A648.82,648.82,0,0,1,1945-388Z" transform="translate(-206.2 860.47)"/></g><path class="cls-1" d="M768.55,159.34l-6.19-10.12A670,670,0,0,1,723.69,76.1c-5.59-12.36-10.84-25-15.61-37.51a665.23,665.23,0,0,1-25-80.57c-74.7-308.93,81.6-628.36,371.64-759.53s633.13-37.6,815.78,222.49a664.78,664.78,0,0,1,44,72c6.24,11.8,12.25,24.08,17.86,36.47h0a670.32,670.32,0,0,1,29.36,77.33l3.51,11.33L1956-374.4c-110.89,89.69-321.79,208.68-564.16,318.29s-471,189.4-611.57,213.45Zm559.2-984.81a626.47,626.47,0,0,0-258.63,55.85c-274.74,124.25-422.8,426.81-352,719.41a628.15,628.15,0,0,0,23.72,76.33C745.31,38,750.28,50,755.58,61.68a635.5,635.5,0,0,0,30.52,59.05C923.18,95,1147.86,15.81,1377.39-88s437.39-220.21,547.22-306.18a636.39,636.39,0,0,0-24.19-61.91h0c-5.31-11.73-11-23.36-16.92-34.56a628.67,628.67,0,0,0-41.67-68.26C1721.39-730.41,1527.28-825.47,1327.75-825.47Z" transform="translate(-206.2 860.47)"/><g class="cls-16"><path class="cls-1" d="M1466.46,139.94C1281.14,223,1102.34,285.41,947.21,324.45c-267.5,67.27-464.72,64.95-503.71-21.23C408.13,224.93,510.83,94.41,700-46.1a649.54,649.54,0,0,0,24.41,78.47c-52.33,42.77-78.1,76.7-69.14,96.5,9.12,20.17,53.09,23,122,11.23C865.6,125,995,85.88,1144.42,28.53c-3.6,19.46-2,37.22,5,52.86C1178.67,146,1296.66,163.48,1466.46,139.94Z" transform="translate(-206.2 860.47)"/></g><g class="cls-4"><path class="cls-5" d="M808.2-580.5c2.43-3.31,4.89-6.63,7.47-9.92C813.12-587.13,810.63-583.84,808.2-580.5Z" transform="translate(-206.2 860.47)"/></g><g class="cls-4"><path class="cls-5" d="M824.43-601.64q8.54-10.7,17.61-21Q833-612.34,824.43-601.64Z" transform="translate(-206.2 860.47)"/></g><g class="cls-4"><path class="cls-5" d="M880.06-662.55q-9.45,9.13-18.51,18.56Q870.6-653.49,880.06-662.55Z" transform="translate(-206.2 860.47)"/></g><g class="cls-4"><path class="cls-5" d="M890.14-672c6.79-6.26,13.73-12.41,20.83-18.37C903.87-684.43,896.93-678.28,890.14-672Z" transform="translate(-206.2 860.47)"/></g><g class="cls-16"><path class="cls-1" d="M1971.17-138.65a640.07,640.07,0,0,1-12.06,78.14A645.27,645.27,0,0,1,1926.49,45.2c-60.06,148.37-175,274.77-332.4,345.94-157.7,71.32-329,74.06-480.29,20.84a648.62,648.62,0,0,1-96.43-43.05,646.33,646.33,0,0,1-70.15-44.48c158.38-39.84,341.43-104.08,530.88-189.76S1836.66-46,1971.17-138.65Z" transform="translate(-206.2 860.47)"/></g><g class="cls-16"><path class="cls-1" d="M1945-388c-105,84.91-312.53,203.82-560.38,315.92S910.45,117.35,777.28,140.11a644.84,644.84,0,0,1-37.62-71.22c-.52-1.17-1-2.29-1.57-3.5-4.91-10.92-9.47-22-13.65-33a639.84,639.84,0,0,1-24.37-78.47c-.29-1.09-.53-2.09-.77-3.18a638.68,638.68,0,0,1-16.52-118A645.73,645.73,0,0,1,710.7-386.72a647.33,647.33,0,0,1,67.71-149.61A642,642,0,0,1,913.75-692.74a641.48,641.48,0,0,0-43.06,61.51A649.42,649.42,0,0,0,803-481.63a645.51,645.51,0,0,0-27.91,219.45,637.8,637.8,0,0,0,16.51,118c.25,1.08.49,2.13.77,3.18.13.55.28,1.14.45,1.78C821.3-28.91,937.05,34.34,1045.83.49c122.3-38.06,272.29-95.6,431.09-167.44,184.21-83.34,346.13-170.39,460.25-244.51C1940-403.64,1942.53-395.83,1945-388Z" transform="translate(-206.2 860.47)"/></g></svg>