<svg id="Layer_9" data-name="Layer 9" xmlns="http://www.w3.org/2000/svg" xmlns:xlink="http://www.w3.org/1999/xlink" viewBox="0 0 1139.26 1144.48"><defs><style>.cls-1{fill:#e4e4e4;}.cls-2{fill:#fff;}.cls-3{fill:#371a45;}.cls-4{fill:#f7fbff;}.cls-5{fill:#aeaeb1;}.cls-6{fill:#220f2d;}.cls-7{opacity:0.5;}.cls-8{fill:#ecad74;}.cls-9{fill:#371b45;}.cls-10{fill:#ff4545;}.cls-11{fill:#e42e2e;}.cls-12{fill:url(#linear-gradient);}.cls-13{fill:#ffab48;}.cls-14{fill:#d9dde7;}.cls-15{fill:#b4b9c5;}.cls-16{fill:#cdddf1;}.cls-17{fill:#c2d2e9;}.cls-18{fill:#f65252;}.cls-19{fill:#d73636;}.cls-20{fill:#e4e6e9;}.cls-21{fill:#bbc2cd;}.cls-22{fill:#31bfff;}.cls-23{fill:#1e8cd7;}.cls-24{opacity:0.4;}.cls-25{fill:#ffb739;}.cls-26{fill:#ff8933;}.cls-27{opacity:0.7;}.cls-28{fill:#e1e1e1;}.cls-29{fill:#ffa54d;}.cls-30{fill:#ff8645;}.cls-31{fill:#be8b73;}.cls-32{fill:#f3c2af;}.cls-33{fill:#f24e6c;}.cls-34{fill:#f28d0a;}.cls-35{opacity:0.3;}.cls-36{fill:#f33;}.cls-37{fill:#3aa8ff;}.cls-38{fill:#3e83ff;}</style><linearGradient id="linear-gradient" x1="970.36" y1="1337.57" x2="970.36" y2="1222.92" gradientTransform="matrix(0.18, 0.98, -0.98, 0.18, 1634.43, 221.29)" gradientUnits="userSpaceOnUse"><stop offset="0" stop-color="#ff4545"/><stop offset="1" stop-color="#f6921e"/></linearGradient></defs><rect class="cls-1" x="585.91" y="388.8" width="103.24" height="128.21"/><path class="cls-2" d="M798.54,1090.43c7.16,5.62,17,9.41,28.05,11.9,38.64,8.72,91.4,1.5,91.4,1.5l20-251.72,2.81-35.38c-3.75,1.47-95.49,11.08-143,40.74C758.2,882.21,763.7,1063.1,798.54,1090.43Z" transform="translate(-410.32 -438.92)"/><path class="cls-1" d="M798.54,1090.43c7.16,5.62,17,9.41,28.05,11.9l1.49.32c.7.16,1.4.3,2.11.43s1.61.32,2.43.46l1.52.28c2.1.34,4.23.66,6.39.94.93.12,1.87.24,2.8.34l.81.09c.63.08,1.27.15,1.91.21l.66.06c1.06.11,2.12.2,3.19.29,2.12.18,4.24.32,6.37.44l1.59.09,3.18.14,1.58.06,1.57,0c1.26,0,2.51.06,3.74.08l1.81,0c2.29,0,4.54,0,6.75,0l1.5,0h.72l1.19,0,2.57-.07,2.57-.08c2.4-.09,4.71-.18,6.94-.31l2.55-.14c.86,0,1.71-.1,2.53-.16l1.86-.13c.92-.05,1.81-.13,2.69-.19l1.08-.09c9.36-.75,15.3-1.56,15.3-1.56l20-251.72c-3.35.48-6.48,1-9.34,1.4-11,1.71-18,3-18,3S854,852.29,847,873.73c-11.18,34.45-14.39,57.81-22.7,109.41Q823,991,822,998.78c-1.61,12.47-16.17,18.75-26.11,11l-.19-.15c-11.82-9.28-20.26-36.24-24.71-68.79C767.13,1001.23,777.47,1073.9,798.54,1090.43Z" transform="translate(-410.32 -438.92)"/><path class="cls-1" d="M931.41,818.32l-2.79,35.19c2.86-.44,6-.92,9.34-1.4l2.81-35.38C940.11,817,936.75,817.49,931.41,818.32Z" transform="translate(-410.32 -438.92)"/><path class="cls-3" d="M872.84,1111.67c-27.16,0-59.62-3.36-77.38-17.3-22.64-17.77-32.87-90.13-29.67-149.83,1.51-28.19,7.33-77.54,29.36-91.3,40.47-25.29,110.1-36,136.31-40,3.54-.54,6.88-1,7.72-1.25a5,5,0,0,1,3.4,9.39c-1.05.41-2.42.64-9.6,1.74-23.2,3.56-93.81,14.39-132.54,38.58-13.09,8.18-22.32,39.34-24.67,83.37-3.38,63,8.46,127.78,25.85,141.43,30.25,23.73,114.84,12.48,115.69,12.37a5,5,0,1,1,1.36,9.89A368.22,368.22,0,0,1,872.84,1111.67ZM939.12,812l-.17.06Z" transform="translate(-410.32 -438.92)"/><path class="cls-3" d="M792,858.36c19,.25,37.37,5.13,54.71,12.54A151.74,151.74,0,0,0,806,865.14a95.75,95.75,0,0,0-13.42.84c-5.36.6-6-7.4-.58-7.62Z" transform="translate(-410.32 -438.92)"/><path class="cls-2" d="M771.93,989.86l45.54,2.71a8.93,8.93,0,0,1,8.25,7.18c2.88,14.63,7.79,48.77-6.31,60.29-11.7,9.57-30.95,8.77-42.37-.6-12.78-10.47-14.53-44-14.59-60.62A9,9,0,0,1,771.93,989.86Z" transform="translate(-410.32 -438.92)"/><path class="cls-1" d="M825.72,999.75c2.89,14.63,7.79,48.78-6.31,60.29-11.7,9.57-30.95,8.77-42.38-.6-7.85-6.45-11.54-21.61-13.22-36.2,2.16,7.27,5.47,13.14,9.53,17,23.27,21.92,40-4.61,40-4.61s3.07,6.33,5.44,6.65c9.92,1.36,7.39-29.6,5.71-45.58A8.55,8.55,0,0,1,825.72,999.75Z" transform="translate(-410.32 -438.92)"/><path class="cls-3" d="M798.89,1071a38.84,38.84,0,0,1-24.49-8.37c-13.17-10.8-16-40.67-16.11-63.83a13.14,13.14,0,0,1,4.1-9.56,13.29,13.29,0,0,1,9.79-3.57l45.54,2.71a13.1,13.1,0,0,1,12.08,10.53c3.68,18.66,7.56,51.82-7.75,64.33C815.7,1068.45,807.34,1071,798.89,1071Zm-27.5-77a4.75,4.75,0,0,0-3.28,1.31,4.69,4.69,0,0,0-1.49,3.49c.1,29.32,5,50.79,13.06,57.41,10.24,8.4,27.23,8.67,37.1.6,8.6-7,10.41-28.06,4.86-56.27a4.79,4.79,0,0,0-4.41-3.83L771.69,994h-.3Z" transform="translate(-410.32 -438.92)"/><path class="cls-3" d="M795,1063.1c13.09-7.38,17-23.68,17.55-37.83.21-5.15.33-10.38-.81-15.47,1.81,4.92,2.41,10.22,2.89,15.43,1.68,16.21-1.48,35.8-16.19,45.5-5.47,3-9.32-5.52-3.44-7.63Z" transform="translate(-410.32 -438.92)"/><path class="cls-4" d="M1274.45,1052.74c0,1.14-.08,2.3-.13,3.45-1.42,27.18-10.8,55.8-26,75.9-6.23,8.3-13.47,15.14-21.52,19.81a32.27,32.27,0,0,1-6.29,2.79,34.75,34.75,0,0,1-27.27-2.63c-22.19-12-45.4-33.68-70.14-46.45-51.25,5.41-90.72,3.61-118.11-43.43l42.61-21.58c19.14-14.5,38.4-25.25,58.21-30.28,33.54-8.52,68.58-.65,107.05,33.17,16-13.33,35.31-22.88,52-10.64A23.68,23.68,0,0,1,1274.45,1052.74Z" transform="translate(-410.32 -438.92)"/><path class="cls-1" d="M1248.37,1132.09c-6.23,8.3-13.47,15.14-21.52,19.81a32.27,32.27,0,0,1-6.29,2.79,34.75,34.75,0,0,1-27.27-2.63c-22.19-12-45.4-33.68-70.14-46.45-51.25,5.41-90.72,3.61-118.11-43.43l42.61-21.58c19.14-14.5,38.4-25.25,58.21-30.28-11.23,4.17-22.52,9.53-30.08,18.81s-10.35,23.75-3.36,33.63c8.49,12,25.63,12.18,40,15,20.06,4,38,15,54.08,27.75s31.87,27.8,52.06,31.12A50,50,0,0,0,1248.37,1132.09Z" transform="translate(-410.32 -438.92)"/><path class="cls-3" d="M1008.2,1060.34c26.41,46,67,46.73,114.56,41.64a3.58,3.58,0,0,1,2.06.38c25.4,13.22,45.63,32.62,69.53,46.1,30.93,17.08,56.63-21.32,66.29-46.42a147.85,147.85,0,0,0,9.7-41.82,82.69,82.69,0,0,0,.42-9.3c-.3-11.82-11.67-20.29-22.91-20-12.15.24-23.27,7.82-32.6,15.4a3.73,3.73,0,0,1-4.76-.06c-35.76-31.45-76.9-46.81-122.8-27-13.89,5.69-27,13.37-40,21.4,34.92-32.67,84.29-48.47,129.11-26.06,14.18,6.61,26.89,15.92,38.56,26.21l-4.75-.07a97.63,97.63,0,0,1,16.85-11.46c6.13-3.14,13-5.58,20.38-5.63,15.12-.37,29.88,11.4,30.27,26.95a151.83,151.83,0,0,1-16.87,67.92c-10.61,19.92-30,44-55.09,41.33-7.11-.63-13.69-3.71-19.65-7.43-11.48-6.9-22-14.9-32.51-22.53s-21.17-15.09-32.48-21l2.06.39c-22.71,2.26-46,4.07-68.52-2-23-5.75-41.66-23.12-53.13-43.27-2.3-4.2,3.75-7.87,6.32-3.68Z" transform="translate(-410.32 -438.92)"/><path class="cls-3" d="M1223.09,1040.33c-9.38,7-17.47,15.64-22.67,26.22a88.86,88.86,0,0,0-4.63,11.17,55.09,55.09,0,0,1,6.2-24.09,53.19,53.19,0,0,1,16.85-19.24c3.92-2.6,8,3.07,4.25,5.94Z" transform="translate(-410.32 -438.92)"/><path class="cls-3" d="M1126.87,1111.27a3.67,3.67,0,0,1-3.65-3.45c-2.66-45.84,20.22-92.33,47.09-95.66a3.66,3.66,0,1,1,.9,7.26c-20.6,2.55-43.34,42.36-40.69,88a3.66,3.66,0,0,1-3.43,3.86Z" transform="translate(-410.32 -438.92)"/><path class="cls-5" d="M1274.32,1056.19c-2,38.4-19.9,79.69-47.47,95.71a32.27,32.27,0,0,1-6.29,2.79C1173.26,1156.41,1271,999.54,1274.32,1056.19Z" transform="translate(-410.32 -438.92)"/><path class="cls-3" d="M1219.82,1158.36c-9.59,0-15.33-5.94-15.79-16.42-1.33-30.32,41.85-100.67,62.43-101.73,3.93-.2,10.67,1.57,11.51,15.77,0,.13,0,.27,0,.4-2.23,42.55-22.5,83.13-49.29,98.68a36.15,36.15,0,0,1-7,3.12,3.67,3.67,0,0,1-1,.17Zm47.12-110.85h-.11c-15.19.78-56.71,66.41-55.49,94.11.36,8.24,4.47,9.45,8.59,9.43a28,28,0,0,0,5.08-2.32c24.73-14.35,43.48-52.38,45.64-92.52C1270.44,1052.85,1269.67,1047.51,1266.94,1047.51Z" transform="translate(-410.32 -438.92)"/><path class="cls-3" d="M1273.36,1065.07a4.11,4.11,0,0,1-1-.13l-23.25-6.36a3.65,3.65,0,0,1,1.93-7l23.25,6.35a3.66,3.66,0,0,1-1,7.19Z" transform="translate(-410.32 -438.92)"/><path class="cls-3" d="M1270.62,1083.93a3.88,3.88,0,0,1-.82-.09l-33.7-7.74a3.65,3.65,0,1,1,1.63-7.12l33.71,7.73a3.66,3.66,0,0,1-.82,7.22Z" transform="translate(-410.32 -438.92)"/><path class="cls-3" d="M1264.61,1105.7a3.85,3.85,0,0,1-.88-.11l-40.29-9.93a3.66,3.66,0,1,1,1.75-7.1l40.29,9.93a3.66,3.66,0,0,1-.87,7.21Z" transform="translate(-410.32 -438.92)"/><path class="cls-3" d="M1257,1121.87a4.11,4.11,0,0,1-.69-.06l-41.47-7.89a3.65,3.65,0,1,1,1.37-7.18l41.47,7.88a3.66,3.66,0,0,1-.68,7.25Z" transform="translate(-410.32 -438.92)"/><path class="cls-3" d="M1245,1138.85a4,4,0,0,1-.6,0l-35.9-5.9a3.66,3.66,0,1,1,1.18-7.22l35.91,5.9a3.66,3.66,0,0,1-.59,7.27Z" transform="translate(-410.32 -438.92)"/><path class="cls-1" d="M870.52,1033.35c7.22,31.89,17.33,61.66,34,86.66l46,4.92,71.6-20,19.13-65.77-72.41-72.43-38.3-13.32-30.81,30.42Z" transform="translate(-410.32 -438.92)"/><path class="cls-3" d="M950.44,1129.1a3.15,3.15,0,0,1-.44,0l-46-4.92a4.16,4.16,0,0,1-3-1.84c-15.11-22.73-26.08-50.71-34.54-88a4.13,4.13,0,0,1,.47-3l29.14-49.5a3.88,3.88,0,0,1,.66-.85l30.8-30.42a4.15,4.15,0,0,1,4.3-1l38.29,13.32a4,4,0,0,1,1.58,1l72.42,72.43a4.15,4.15,0,0,1,1.05,4.1L1026,1106.11a4.17,4.17,0,0,1-2.88,2.85l-71.6,20A4.27,4.27,0,0,1,950.44,1129.1Zm-43.57-13,43.22,4.63,68.6-19.14,17.8-61.19-70-70-35-12.16L903,986.43l-28,47.61C882.92,1068.66,893.1,1094.83,906.87,1116.08Z" transform="translate(-410.32 -438.92)"/><path class="cls-4" d="M983.74,851.86s-20,63.27-20,64.94-51.62,18.31-51.62,18.31l-72.21,10.61c-.8-32.44,21.59-62.56,52.38-88.35a339.48,339.48,0,0,1,29.82-22.16l43.31,11.7Z" transform="translate(-410.32 -438.92)"/><path class="cls-1" d="M958.2,877.17c-5.31,7.69-12.65,13.8-20.58,18.76-11.59,7.26-24.78,12.29-38.43,13.16-5.86.36-12.41.23-16.64,4.29q6.41-13.83,12.78-27.67c1.84-4,3.73-8.13,4-12.54.31-6-2.57-11.61-7-15.8a339.48,339.48,0,0,1,29.82-22.16l43.31,11.7a29.76,29.76,0,0,1,.55,3.9C966.73,860.13,963.53,869.49,958.2,877.17Z" transform="translate(-410.32 -438.92)"/><path class="cls-3" d="M839.92,949.88a4.17,4.17,0,0,1-4.16-4.06c-.94-37.88,27.35-76.26,84.06-114.08a4.17,4.17,0,0,1,3.4-.55l61.61,16.65a4.15,4.15,0,0,1,2.88,5.27c-7.49,23.73-18.78,59.85-19.79,64.08-.07,3.4-2,4.95-54.5,21.88a3.84,3.84,0,0,1-.67.16l-72.22,10.61A4.08,4.08,0,0,1,839.92,949.88Zm83-110.16c-35.55,23.95-76.69,60.3-78.74,101.17L911.2,931c20.75-6.7,43.45-14.43,49-16.91,1.25-4.67,5.3-18.18,18.3-59.39Zm45,77.08v0Zm-8.1-1.36a4,4,0,0,0-.23,1.25A7.13,7.13,0,0,1,959.83,915.44Z" transform="translate(-410.32 -438.92)"/><path class="cls-2" d="M1255.08,755a216,216,0,0,1-68.26,86.31,220.37,220.37,0,0,1-19.6,13.16c-3.31,2-6.73,3.91-10.21,5.77a222.53,222.53,0,0,1-95.59,25.65q-6.36.21-12.69.1c-77.28-1.52-151.6-43-190.85-115-57.85-106-17.7-237.9,89.65-294.61a221.78,221.78,0,0,1,64.28-22.22q3.84-.72,7.73-1.26,10.37-1.5,20.75-2a225.25,225.25,0,0,1,93.21,15.27q7,2.75,13.83,6a221.89,221.89,0,0,1,20,10.72,218.76,218.76,0,0,1,79.35,82.79A214.59,214.59,0,0,1,1255.08,755Z" transform="translate(-410.32 -438.92)"/><path class="cls-3" d="M1053,886.54c-1.43,0-2.85,0-4.27,0-80.09-1.59-153.39-45.76-191.32-115.29A214.23,214.23,0,0,1,840.05,605.6c16.89-56.06,55-102.13,107.22-129.74a222.45,222.45,0,0,1,64.44-22.28c2.45-.46,5-.87,7.75-1.26,6.89-1,13.89-1.69,20.8-2a225.45,225.45,0,0,1,93.44,15.31c4.73,1.85,9.4,3.86,13.87,6a221.53,221.53,0,0,1,99.57,93.74,214.56,214.56,0,0,1,8.44,189.86l-.5-.22.5.22a217.21,217.21,0,0,1-68.44,86.52,222.36,222.36,0,0,1-19.64,13.2c-3.08,1.85-6.42,3.74-10.23,5.78A224,224,0,0,1,1125,874.6a222.49,222.49,0,0,1-63.55,11.79C1058.64,886.49,1055.81,886.54,1053,886.54Zm-1.64-435.44c-3.69,0-7.36.09-11,.27-6.88.35-13.85,1-20.71,2-2.75.38-5.27.79-7.7,1.26a221.28,221.28,0,0,0-64.13,22.16c-52,27.47-89.88,73.32-106.68,129.09a213.14,213.14,0,0,0,17.26,164.78c37.74,69.19,110.69,113.14,190.38,114.72,4.2.07,8.46,0,12.66-.11a221.51,221.51,0,0,0,63.24-11.73,224,224,0,0,0,32.12-13.85c3.79-2,7.12-3.91,10.18-5.75a222.53,222.53,0,0,0,19.55-13.14,216.21,216.21,0,0,0,68.09-86.08,213.46,213.46,0,0,0-8.4-188.91A219,219,0,0,0,1167,483.26a221.72,221.72,0,0,0-19.93-10.7c-4.45-2.1-9.09-4.1-13.8-5.95a224.89,224.89,0,0,0-82-15.51Z" transform="translate(-410.32 -438.92)"/><path class="cls-1" d="M857.88,771c39.25,72,113.57,113.48,190.85,115q6.33.12,12.68-.11A222.93,222.93,0,0,0,1157,860.2c3.46-1.87,6.88-3.77,10.21-5.76a226.24,226.24,0,0,0,19.59-13.17,216.14,216.14,0,0,0,84.38-143.88A215.82,215.82,0,0,1,1205,779.11a220.39,220.39,0,0,1-19.59,13.18c-3.31,2-6.73,3.89-10.21,5.76a222.24,222.24,0,0,1-95.59,25.64q-6.37.22-12.7.11c-77.28-1.52-151.59-43-190.85-115A214.24,214.24,0,0,1,851.55,577,214.59,214.59,0,0,0,857.88,771Z" transform="translate(-410.32 -438.92)"/><path class="cls-3" d="M1053,890.18c-1.45,0-2.9,0-4.34,0C967.26,888.54,892.75,843.63,854.2,773a217.88,217.88,0,0,1-17.64-168.41c17.17-57,55.88-103.85,109-131.92A226.2,226.2,0,0,1,1011.07,450c2.46-.47,5.06-.89,7.89-1.28,7-1,14.09-1.71,21.12-2.07a229.23,229.23,0,0,1,95,15.56c4.81,1.88,9.55,3.93,14.1,6.08a225.25,225.25,0,0,1,101.21,95.29,218.15,218.15,0,0,1,8.58,193.07,220.84,220.84,0,0,1-69.58,88,226,226,0,0,1-20,13.41c-3.12,1.88-6.52,3.8-10.38,5.87A226.86,226.86,0,0,1,1061.58,890C1058.73,890.13,1055.85,890.18,1053,890.18Zm-1.64-435.43q-5.43,0-10.85.27c-6.76.34-13.61,1-20.36,2-2.72.38-5.18.78-7.55,1.23a217.55,217.55,0,0,0-63.11,21.81c-51.12,27-88.37,72.08-104.89,126.92a209.56,209.56,0,0,0,17,162c37.11,68,108.86,111.27,187.25,112.82,4.13.07,8.33,0,12.46-.11a217.95,217.95,0,0,0,62.18-11.53,218.54,218.54,0,0,0,31.6-13.63c3.72-2,7-3.84,10-5.65a219.78,219.78,0,0,0,19.24-12.92,212.67,212.67,0,0,0,66.94-84.63,209.84,209.84,0,0,0-8.26-185.7,215.21,215.21,0,0,0-77.84-81.21,218.26,218.26,0,0,0-19.6-10.52c-4.37-2.07-8.94-4-13.58-5.85a221.1,221.1,0,0,0-80.61-15.26Z" transform="translate(-410.32 -438.92)"/><path class="cls-3" d="M1053,890.15c-1.45,0-2.9,0-4.34,0C967.27,888.51,892.77,843.61,854.23,773a217.85,217.85,0,0,1-17.64-168.4c17.16-57,55.87-103.83,109-131.89A226.08,226.08,0,0,1,1011.07,450c2.47-.47,5.06-.89,7.89-1.28,7-1,14.1-1.71,21.12-2.07A229.22,229.22,0,0,1,1135,462.23c4.81,1.88,9.55,3.93,14.09,6.08a227.33,227.33,0,0,1,20.36,10.92,223.61,223.61,0,0,1,80.84,84.36,218.12,218.12,0,0,1,8.59,193l-3.82-1.67,3.82,1.67a221.05,221.05,0,0,1-69.58,88,229.6,229.6,0,0,1-20,13.41c-3.12,1.87-6.52,3.79-10.39,5.86A226.8,226.8,0,0,1,1061.58,890C1058.73,890.1,1055.85,890.15,1053,890.15Zm-1.64-435.43c-3.63,0-7.24.09-10.85.27-6.76.34-13.62,1-20.36,2-2.72.38-5.18.78-7.55,1.23A217.51,217.51,0,0,0,949.47,480c-51.13,27-88.39,72.1-104.91,126.94a209.6,209.6,0,0,0,17,162c37.12,68,108.88,111.28,187.28,112.83,4.13.07,8.33,0,12.47-.1a217.43,217.43,0,0,0,34.18-4,215.19,215.19,0,0,0,28-7.52,219.77,219.77,0,0,0,31.61-13.63c3.71-2,7-3.84,10-5.66a216,216,0,0,0,19.23-12.92,212.32,212.32,0,0,0,67-84.64A209.82,209.82,0,0,0,1243,567.58a215.16,215.16,0,0,0-77.84-81.22,217.34,217.34,0,0,0-19.61-10.53c-4.37-2.07-8.94-4-13.57-5.85a221.2,221.2,0,0,0-80.63-15.26Z" transform="translate(-410.32 -438.92)"/><path class="cls-3" d="M1226.26,802.88c-120.67,99.93-301.75,51.81-325.1-100.61C885.28,598.57,976,503.47,1077.93,495.1c74.22-6.1,149.47,20,190.89,130.95,0,0,10.64,51.9-.55,88s-28.28,69.4-28.28,69.4Z" transform="translate(-410.32 -438.92)"/><path class="cls-6" d="M901.17,702.27c23.34,152.42,204.43,200.53,325.09,100.62L1229,799C1089.58,836.18,940.61,764.72,914.1,611,901.51,639.09,896.27,670.27,901.17,702.27Z" transform="translate(-410.32 -438.92)"/><path class="cls-3" d="M1084.12,881.76c-47.14,0-92.64-13.9-129.1-40.13C910.76,809.8,882.77,763,874.07,706.26c-8-52.07,7.1-105.41,42.46-150.18,39.3-49.77,99.11-82.46,160-87.46,33.84-2.78,64.85.66,92.15,10.24a4.93,4.93,0,0,1,.77.37,223.56,223.56,0,0,1,80.85,84.36,218.12,218.12,0,0,1,8.59,193l-3.82-1.67,3.82,1.67a221.05,221.05,0,0,1-69.58,88,229.6,229.6,0,0,1-20,13.41c-3.12,1.87-6.52,3.79-10.39,5.86A227.67,227.67,0,0,1,1126.15,878a6.25,6.25,0,0,1-.62.16A243.15,243.15,0,0,1,1084.12,881.76Zm40.69-7.68h0Zm-26-398.07q-10.57,0-21.59.9c-58.64,4.82-116.26,36.34-154.16,84.33-33.91,42.94-48.38,94-40.76,143.76,8.35,54.47,35.18,99.38,77.58,129.88,45.19,32.5,104.91,45.31,163.9,35.16a219.81,219.81,0,0,0,31.29-13.52c3.72-2,7-3.84,10-5.66a216,216,0,0,0,19.23-12.92,212.32,212.32,0,0,0,67-84.64A209.82,209.82,0,0,0,1243,567.58a215.22,215.22,0,0,0-77.47-81C1145.33,479.55,1123,476,1098.81,476Z" transform="translate(-410.32 -438.92)"/><path class="cls-2" d="M802.77,701.17c1.27,42.92,28.05,78.24,59.81,78.87s56.46-33.65,55.19-76.57c0-.27,0-.56,0-.83-1.58-42.55-28.24-77.42-59.77-78-24.54-.49-44.86,19.86-52.26,48.92A100.59,100.59,0,0,0,802.77,701.17Z" transform="translate(-410.32 -438.92)"/><path class="cls-1" d="M802.77,701.17c1.27,42.92,28.05,78.24,59.81,78.87s56.46-33.65,55.19-76.57c0-.27,0-.56,0-.83-3.36,4.34-8.66,8.57-16.07,7-13-2.82-36.93-30.89-36.93-30.89s-25.59-2.41-59-5.19A100.59,100.59,0,0,0,802.77,701.17Z" transform="translate(-410.32 -438.92)"/><path class="cls-3" d="M863.45,784.21h-1c-33.89-.68-62.55-37.87-63.89-82.9h0c-.77-26,7.49-49.77,22.68-65.12,10.47-10.57,23.19-16,36.76-15.75,33.89.68,62.55,37.87,63.89,82.91.77,26-7.49,49.77-22.69,65.11C889,778.77,876.67,784.21,863.45,784.21Zm-6.37-155.46c-10.94,0-21.26,4.59-29.88,13.29-13.4,13.53-21,35.59-20.28,59h0c1.21,40.67,26.21,74.24,55.74,74.82,11.18.23,21.84-4.36,30.67-13.28,13.39-13.52,21-35.58,20.28-59-1.21-40.68-26.22-74.24-55.74-74.83Z" transform="translate(-410.32 -438.92)"/><ellipse class="cls-2" cx="841.97" cy="709.29" rx="46.73" ry="61.81" transform="translate(-492.61 -327.74) rotate(-7.2)"/><path class="cls-3" d="M845.32,771.5A38.17,38.17,0,0,1,831.88,769c-14.28-5.35-26.16-18.55-32.6-36.22-11.55-31.71-1.84-68,21.64-81a36.31,36.31,0,0,1,31.15-2.16c14.27,5.35,26.16,18.56,32.59,36.23,11.55,31.7,1.84,68-21.64,81A36.37,36.37,0,0,1,845.32,771.5Zm-6.7-123.29a35.15,35.15,0,0,0-17.15,4.53c-23,12.71-32.49,48.43-21.13,79.63,6.33,17.36,18,30.32,31.93,35.55a35.24,35.24,0,0,0,30.21-2.09c23-12.71,32.48-48.43,21.12-79.63-6.32-17.36-18-30.31-31.93-35.55A37.08,37.08,0,0,0,838.62,648.21Z" transform="translate(-410.32 -438.92)"/><path class="cls-1" d="M886.89,734.3a72.72,72.72,0,0,0-1.18-34.95c-8.06,25.56-31.12,36.5-53.5,24.45-14.47-7.78-25.33-23.38-30.16-41-.52,1.61-1,3.3-1.35,5-6.49,29.09,7.53,63.07,31.34,75.89S880.4,763.37,886.89,734.3Z" transform="translate(-410.32 -438.92)"/><path class="cls-3" d="M844.67,775.22l-1,0c-26.1-.72-48.35-31.49-49.6-68.58-.75-22,6.12-42.55,18.35-54.85,7.82-7.87,17.3-11.86,27.21-11.61,26.1.73,48.35,31.49,49.6,68.59.74,22-6.12,42.54-18.35,54.85C863.34,771.21,854.29,775.22,844.67,775.22Zm-6-126.74c-7.36,0-14.39,3.15-20.36,9.16-10.64,10.71-16.6,28.91-15.93,48.7,1.1,32.78,19.73,59.94,41.51,60.54,7.68.2,14.91-3,21.07-9.15,10.65-10.71,16.61-28.91,15.94-48.7-1.1-32.78-19.73-59.94-41.51-60.54Z" transform="translate(-410.32 -438.92)"/><g class="cls-7"><path class="cls-2" d="M1032.54,550.54s92-1.75,146.84,46l.17.15a85.68,85.68,0,0,1,24.92,37.45,172.28,172.28,0,0,1,8.79,45.55c2.66,37.78-3.26,55.95-3.26,55.95,20.38-21.39,31.07-44.86,29.17-76.34q-.3-4.67-.94-9.57c-.1-.75-.21-1.5-.34-2.25,0,0,0,0,0,0a211.77,211.77,0,0,0-6.63-24.58c-9.59-28.53-29-65.29-67.13-80.44C1092.76,514.13,1029.11,546.81,1032.54,550.54Z" transform="translate(-410.32 -438.92)"/></g><g class="cls-7"><ellipse class="cls-2" cx="980.33" cy="640.14" rx="33.9" ry="29.52" transform="translate(-254.96 1032.04) rotate(-78.35)"/></g><g class="cls-7"><ellipse class="cls-2" cx="959.09" cy="700.57" rx="14.01" ry="12.18" transform="translate(-401.42 974.26) rotate(-73.01)"/></g><path class="cls-8" d="M1167.29,886.53l0,.1a4.78,4.78,0,0,1-6.55,2.46l-51.33-25.36L1065.47,842,956.14,788l-46.49-23L890,755.34a10,10,0,0,1-4.63-13,14.09,14.09,0,0,1,.69-1.27,9.64,9.64,0,0,1,12.76-3.39l18.88,10.12,45.53,24.44,103.61,55.6,46,24.69,52.22,28A4.87,4.87,0,0,1,1167.29,886.53Z" transform="translate(-410.32 -438.92)"/><path class="cls-9" d="M963.2,772.23a69.21,69.21,0,0,0-7.06,15.8l-46.49-23a49,49,0,0,1,8-17.28Z" transform="translate(-410.32 -438.92)"/><g class="cls-7"><path class="cls-2" d="M1165,880.55l-52.22-28-46-24.69L963.2,772.23l-45.53-24.44-18.88-10.12A9.64,9.64,0,0,0,886,741.06a14.09,14.09,0,0,0-.69,1.27,9.52,9.52,0,0,0-.78,2.66,9.65,9.65,0,0,1,12.62-3.19l18.88,10.13,45.52,24.44L1065.2,832l46,24.69,52.22,28a5,5,0,0,1,2.55,3.76,4.55,4.55,0,0,0,1.31-1.81l0-.1A4.87,4.87,0,0,0,1165,880.55Z" transform="translate(-410.32 -438.92)"/></g><path class="cls-3" d="M1162.84,891.83a7,7,0,0,1-3.12-.73L889,757.35a12.33,12.33,0,0,1-5.66-16,12.86,12.86,0,0,1,.82-1.5,11.91,11.91,0,0,1,15.72-4.19l187.31,100.53,78.91,42.35a7.11,7.11,0,0,1,3.33,8.73l-.08.22a6.84,6.84,0,0,1-3.94,3.84A7.18,7.18,0,0,1,1162.84,891.83ZM894.24,738.76a7.43,7.43,0,0,0-6.31,3.49,10,10,0,0,0-.55,1A7.76,7.76,0,0,0,891,753.33L1161.7,887.08a2.57,2.57,0,0,0,2.07.09,2.47,2.47,0,0,0,1.41-1.37l2.11.73-2.09-.8a2.65,2.65,0,0,0-1.25-3.21L1085,840.17,897.73,739.64A7.44,7.44,0,0,0,894.24,738.76Z" transform="translate(-410.32 -438.92)"/><path class="cls-8" d="M1165.52,892.25s0,.07,0,.1a4.78,4.78,0,0,1-6.12,3.4l-54.5-17.57-46.61-15L942.2,825.75l-49.35-15.9L872,803.11a10,10,0,0,1-6.48-12.19,11.72,11.72,0,0,1,.5-1.36,9.64,9.64,0,0,1,12.12-5.22l20.16,7.25,48.61,17.5c33.46,12,73.8,26.57,110.65,39.82l49.1,17.68,55.77,20.07A4.89,4.89,0,0,1,1165.52,892.25Z" transform="translate(-410.32 -438.92)"/><path class="cls-9" d="M946.87,809.09a70.39,70.39,0,0,0-4.67,16.66l-49.35-15.9a49.29,49.29,0,0,1,5.41-18.26Z" transform="translate(-410.32 -438.92)"/><g class="cls-7"><path class="cls-2" d="M1162.39,886.66l-55.77-20.07-49.1-17.68c-36.85-13.25-77.19-27.78-110.65-39.82l-48.61-17.5-20.16-7.25A9.64,9.64,0,0,0,866,789.56a11.72,11.72,0,0,0-.5,1.36,9.31,9.31,0,0,0-.38,2.75,9.64,9.64,0,0,1,12-5l20.16,7.25,48.62,17.5c33.45,12,73.79,26.57,110.64,39.82l49.1,17.68L1161.4,891a4.91,4.91,0,0,1,3.07,3.34,4.62,4.62,0,0,0,1-2s0-.06,0-.1A4.89,4.89,0,0,0,1162.39,886.66Z" transform="translate(-410.32 -438.92)"/></g><path class="cls-3" d="M1160.85,898.22a7.15,7.15,0,0,1-2.15-.33L871.27,805.25a12.34,12.34,0,0,1-7.94-15,13.37,13.37,0,0,1,.59-1.6,11.91,11.91,0,0,1,14.94-6.45l198.48,71.44,85.8,30.88a7.11,7.11,0,0,1,4.57,8.16l0,.2a6.85,6.85,0,0,1-3.34,4.4A7.12,7.12,0,0,1,1160.85,898.22ZM874.84,786a7.42,7.42,0,0,0-6.81,4.45,9.39,9.39,0,0,0-.4,1.09,7.78,7.78,0,0,0,5,9.43l287.42,92.64a2.57,2.57,0,0,0,2.06-.22,2.43,2.43,0,0,0,1.19-1.56l2.2.41-2.19-.48a2.67,2.67,0,0,0-1.7-3l-85.81-30.88L877.34,786.45A7.28,7.28,0,0,0,874.84,786Z" transform="translate(-410.32 -438.92)"/><path class="cls-4" d="M965.32,1000.18q-44.73,2.82-92.68,1.75a15.37,15.37,0,0,0-14.92,10,24.66,24.66,0,0,0,4.34,24.66,15.4,15.4,0,0,0,11.59,5.1q57.42-.11,113.42-3.32Z" transform="translate(-410.32 -438.92)"/><path class="cls-1" d="M965.32,1000.18q-10.08.63-20.35,1.06h0a19.2,19.2,0,0,1-15.91,28.68q-34.89,1.45-70.33,1.7a22.48,22.48,0,0,0,3.33,5,15.72,15.72,0,0,0,11.85,5.1q57.3-.11,113.16-3.32Z" transform="translate(-410.32 -438.92)"/><path class="cls-3" d="M873.62,1045.84a19.55,19.55,0,0,1-14.68-6.51,28.84,28.84,0,0,1-5.15-28.82,19.45,19.45,0,0,1,18.5-12.74h.44c32,.68,63.08.1,92.33-1.75a4.17,4.17,0,0,1,3.87,2.1l21.76,38.17a4.16,4.16,0,0,1-3.38,6.21c-36.73,2.15-75,3.27-113.66,3.34Zm-1.33-39.75a11.14,11.14,0,0,0-10.65,7.21,20.52,20.52,0,0,0,3.53,20.51,11.21,11.21,0,0,0,8.45,3.7h0c36.18-.06,72-1,106.49-2.94L963,1004.49c-28.72,1.73-59.14,2.27-90.44,1.61Z" transform="translate(-410.32 -438.92)"/><path class="cls-10" d="M755.08,1561.79a17.62,17.62,0,0,0,15,9.16c.45,0,.9,0,1.35,0a162.76,162.76,0,0,0,101.14-41.33L966,1446l-128.26-58.54-32.11,60.93-50.8,96.35A17.58,17.58,0,0,0,755.08,1561.79Z" transform="translate(-410.32 -438.92)"/><path class="cls-11" d="M755.08,1561.79a17.62,17.62,0,0,0,15,9.16c.45,0,.9,0,1.35,0a162.76,162.76,0,0,0,101.14-41.33L966,1446l-128.26-58.54-32.11,60.93c16.29,14,43.52,43,29.64,71.09C822.91,1544.36,779.48,1549.17,755.08,1561.79Z" transform="translate(-410.32 -438.92)"/><path class="cls-3" d="M770.6,1575.94a22.89,22.89,0,0,1-20.21-33.57l82.9-157.29a5,5,0,0,1,6.49-2.22l128.27,58.55a5,5,0,0,1,1.26,8.26l-93.37,83.65a168.14,168.14,0,0,1-104.26,42.6C771.32,1575.94,771,1575.94,770.6,1575.94Zm69.33-182L759.23,1547a12.91,12.91,0,0,0,12,18.91,158.06,158.06,0,0,0,98-40.06L957,1447.32Z" transform="translate(-410.32 -438.92)"/><path class="cls-10" d="M684.89,1178.64A17.61,17.61,0,0,1,696,1165c.41-.16.84-.29,1.27-.43a162.79,162.79,0,0,1,109.15,5l116,47.48-101.18,98.18-50.7-46.61-80.19-73.72A17.57,17.57,0,0,1,684.89,1178.64Z" transform="translate(-410.32 -438.92)"/><path class="cls-11" d="M684.89,1178.64A17.61,17.61,0,0,1,696,1165c.41-.16.84-.29,1.27-.43a162.79,162.79,0,0,1,109.15,5l116,47.48-101.18,98.18-50.7-46.61c10.66-18.65,26.56-55.12,4.07-76.92C754.63,1172.29,712.11,1182.34,684.89,1178.64Z" transform="translate(-410.32 -438.92)"/><path class="cls-3" d="M821.25,1320.17a5,5,0,0,1-3.39-1.32L687,1198.5a22.89,22.89,0,0,1,8.8-38.74,168,168,0,0,1,112.5,5.14l116,47.46a5,5,0,0,1,1.59,8.21l-101.18,98.19A5,5,0,0,1,821.25,1320.17Zm-76.46-157.73a157.54,157.54,0,0,0-46.08,6.87,12.9,12.9,0,0,0-5,21.84l127.4,117.16,92.32-89.6-109-44.56A157.74,157.74,0,0,0,744.79,1162.44Z" transform="translate(-410.32 -438.92)"/><path class="cls-12" d="M703.32,1375.8s-32.38,91.5-102.73,95.46c-54.85,3.08-88.83-57-177.82-44.71,87.64-19.7,98.43-87.85,150.89-104.18C640.93,1301.43,703.32,1375.8,703.32,1375.8Z" transform="translate(-410.32 -438.92)"/><path class="cls-13" d="M529,1407.33a297.74,297.74,0,0,0,22.14-22.6c11.56-12.71,20.7-22.75,32.71-26.49,27.61-8.59,56.46,13.15,70.79,26.39-8.74,17.44-28,47.83-57.07,49.46-12.56.71-24.63-5.5-39.91-13.35A302.2,302.2,0,0,0,529,1407.33Z" transform="translate(-410.32 -438.92)"/><path class="cls-3" d="M596.51,1476.37c-22.67,0-42-9.94-62.41-20.42-28.55-14.67-60.9-31.3-110.65-24.45a5,5,0,0,1-1.78-9.82c49-11,73.48-37.93,95.07-61.67,16.42-18,31.92-35.09,55.43-42.4,69.66-21.69,132.34,51.83,135,55a5,5,0,0,1,.88,4.87c-1.37,3.87-34.33,94.69-107.16,98.79C599.4,1476.33,598,1476.37,596.51,1476.37Zm-139.07-56.09c33.72,2.36,58.61,15.16,81.23,26.78,21.34,11,39.76,20.44,61.64,19.21,59.53-3.35,91.26-74.54,97.25-89.43-10.83-11.85-65.5-67.41-122.42-49.7-20.91,6.51-34.86,21.84-51,39.6C507,1385.54,488.19,1406.25,457.44,1420.28Z" transform="translate(-410.32 -438.92)"/><path class="cls-14" d="M777.79,1406.44s-68.7,69.87-87.58,70.86c-17.31.9-43.23-31.9-53.64-89.43s2.38-97.33,18.91-102.55c18-5.69,106.86,35.68,106.86,35.68Z" transform="translate(-410.32 -438.92)"/><path class="cls-2" d="M639.55,1400c.54,3,1.12,5.9,1.74,8.74-1.78-6.55-3.38-13.53-4.72-20.92-10.4-57.52,2.38-97.32,18.91-102.54,18-5.68,106.85,35.67,106.85,35.67l2.13,11.79c-9.11-4.21-89-40.65-106-35.29C641.92,1302.71,629.14,1342.51,639.55,1400Z" transform="translate(-410.32 -438.92)"/><path class="cls-15" d="M777.8,1406.45s-68.71,69.85-87.58,70.84c-14.87.79-36.1-23.3-48.39-66.58,10.9,19.23,23.38,29.41,33.12,28.89,10.3-.54,35.48-21.62,56.21-40.65.27-7.09-11.29-48.36,4.26-71.71,9.87-14.81,17.72-10.42,17.72-10.42,5.72,2.56,9.19,4.17,9.19,4.17Z" transform="translate(-410.32 -438.92)"/><path class="cls-3" d="M689.55,1482.31c-20.3,0-47.22-34.54-57.89-93.55-10.84-59.9,2.84-102.06,22.32-108.2,18.93-6,95.34,28.87,110.47,35.91a5,5,0,0,1,2.8,3.64l15.46,85.44a5,5,0,0,1-1.35,4.4c-11.7,11.89-71.07,71.3-90.89,72.34ZM660.2,1289.69a11.24,11.24,0,0,0-3.22.39c-12.76,4-25.63,40.86-15.49,96.9s35.19,86,48.46,85.33c12.06-.63,56.16-41,82.47-67.53l-14.54-80.34C726.43,1309.94,676.51,1289.69,660.2,1289.69Z" transform="translate(-410.32 -438.92)"/><path class="cls-3" d="M717.47,1464.44a3,3,0,0,1-1.28-.29c-15.35-7.49-34.64-36-43.12-82.88s-.41-80.34,11.36-92.74a2.9,2.9,0,0,1,3-.76c8.8,2.79,19.09,6.52,30.58,11.06,23.77,9.4,45.35,19.43,45.56,19.53a2.92,2.92,0,0,1,1.64,2.12l15.46,85.46a2.93,2.93,0,0,1-.79,2.55c-.17.17-16.86,17.12-35.84,34.25-9.16,8.28-17.49,15.37-24.76,21.08A2.9,2.9,0,0,1,717.47,1464.44Zm-30-170.56c-9.78,12.09-16.45,43.44-8.68,86.35s25,70,38.38,77.85c6.81-5.42,14.53-12,23-19.65,16.12-14.55,30.59-29,34.53-33L759.74,1323c-5.08-2.34-23.69-10.78-43.89-18.77C705.27,1300,695.72,1296.56,687.46,1293.88Z" transform="translate(-410.32 -438.92)"/><path class="cls-3" d="M742.08,1443.49h-.18a2.92,2.92,0,0,1-2-1c-12.73-14.71-23-39.57-28.19-68.21s-4.27-55.53,2.51-73.76a2.92,2.92,0,0,1,1.54-1.64,2.88,2.88,0,0,1,2.25-.05c23.77,9.4,45.35,19.43,45.56,19.53a2.92,2.92,0,0,1,1.64,2.12l15.46,85.46a2.93,2.93,0,0,1-.79,2.55c-.17.17-16.86,17.12-35.84,34.25A2.86,2.86,0,0,1,742.08,1443.49Zm-23.41-138.14c-5.52,17.21-6,41.71-1.27,67.9s13.78,49,25,63.15c15.2-13.85,28.52-27.14,32.28-30.92L759.74,1323C754.89,1320.77,737.76,1313,718.67,1305.35Z" transform="translate(-410.32 -438.92)"/><path class="cls-14" d="M806.93,1405.74s-21.63,31.19-40.16,23.38c-16.76-7.07-26.52-45.09-29.14-59.53s-6.78-53.47,6.44-66c14.61-13.81,45.8,7.82,45.8,7.82Z" transform="translate(-410.32 -438.92)"/><path class="cls-2" d="M806.92,1405.74s-.27.39-.79,1.09l-15.21-84.18s-31.2-21.63-45.81-7.82c-8.87,8.37-9.91,28.69-8.85,45.52-2.15-17.7-3.18-46.35,7.81-56.72,14.61-13.81,45.81,7.82,45.81,7.82Z" transform="translate(-410.32 -438.92)"/><path class="cls-15" d="M806.92,1405.74s-21.62,31.19-40.15,23.38c-16.76-7.07-26.52-45.09-29.13-59.53-.51-2.77-1.06-6.43-1.54-10.65,4.88,16.22,13,35.18,24.35,40,18.53,7.81-13.24-38.44,3.74-75,9.6-20.71,24.72-13.08,24.72-13.08l1,.66Z" transform="translate(-410.32 -438.92)"/><path class="cls-3" d="M773,1435.36a20.72,20.72,0,0,1-8.13-1.64c-21.75-9.18-31.12-57.74-32.11-63.24s-9.24-54.27,7.91-70.48c17.36-16.41,50.68,6.37,52.08,7.34a5,5,0,0,1,2.07,3.22l17.06,94.29a5,5,0,0,1-.81,3.74C810.17,1409.83,792.21,1435.36,773,1435.36ZM757,1304c-3.71,0-7,.93-9.5,3.27-10.07,9.51-8.48,42-5,61.44s13.4,50.43,26.16,55.81c11.31,4.78,26.58-11.5,32.92-20l-16.3-90.11C778.89,1310.31,766.66,1304,757,1304Z" transform="translate(-410.32 -438.92)"/><path class="cls-4" d="M1536.83,1225c6.54,36.15-90,197.94-399.34,253.9-170.65,30.87-287.6-13.6-322.83-29.84a55.76,55.76,0,0,1-23.55-20.39c-7.72-12-17.25-32.3-23.1-64.59s-4-54.65-1-68.59a55.69,55.69,0,0,1,14.92-27.34c27.3-27.55,121.25-110.18,291.91-141.05C1383.16,1071.15,1530.29,1188.85,1536.83,1225Z" transform="translate(-410.32 -438.92)"/><path class="cls-4" d="M1536.83,1225c6.54,36.15-90,197.94-399.34,253.9-170.65,30.87-287.6-13.6-322.83-29.84a55.76,55.76,0,0,1-23.55-20.39c-7.72-12-17.25-32.3-23.1-64.59s-4-54.65-1-68.59a55.69,55.69,0,0,1,14.92-27.34c27.3-27.55,121.25-110.18,291.91-141.05C1383.16,1071.15,1530.29,1188.85,1536.83,1225Z" transform="translate(-410.32 -438.92)"/><path class="cls-4" d="M1137.49,1478.9c-170.65,30.87-287.6-13.59-322.83-29.83a55.61,55.61,0,0,1-23.54-20.39c-5.74-8.9-12.48-22.4-18-42-1.89-6.79-3.64-14.3-5.14-22.61-5.85-32.29-4-54.66-1-68.6a55.69,55.69,0,0,1,14.92-27.34c27.31-27.55,121.25-110.19,291.91-141.05,309.31-56,456.44,61.74,463,97.9a31.14,31.14,0,0,1-.58,11.55C1525.77,1287.43,1421,1427.63,1137.49,1478.9Z" transform="translate(-410.32 -438.92)"/><path class="cls-4" d="M1137.49,1478.9c-170.65,30.87-287.6-13.58-322.83-29.82a55.58,55.58,0,0,1-23.55-20.39c-5.74-8.91-12.47-22.4-18-42-1.89-6.78-3.65-14.29-5.15-22.6-5.84-32.29-4-54.66-1-68.6a55.5,55.5,0,0,1,9.47-21,56.13,56.13,0,0,1,5.45-6.38c27.31-27.55,121.26-110.19,291.92-141.05,3.86-.69,7.68-1.37,11.49-2,301.46-51,445,64.2,451.48,99.9a31.08,31.08,0,0,1-.58,11.54C1525.77,1287.43,1421,1427.63,1137.49,1478.9Z" transform="translate(-410.32 -438.92)"/><path class="cls-4" d="M1137.49,1478.9c-170.65,30.87-287.6-13.58-322.83-29.82a55.58,55.58,0,0,1-23.55-20.39c-5.74-8.91-12.47-22.4-18-42-1.89-6.78-3.65-14.29-5.15-22.6-5.84-32.29-4-54.66-1-68.6a55.5,55.5,0,0,1,9.47-21,56.13,56.13,0,0,1,5.45-6.38c24.06-24.27,99.81-91.27,234.16-128,18.18-5,37.42-9.38,57.76-13.06,3.86-.69,7.68-1.37,11.49-2,79.9-13.52,148.7-15.37,206.8-10.11,161.13,14.57,239.94,83.77,244.68,110a31.08,31.08,0,0,1-.58,11.54C1525.77,1287.43,1421,1427.63,1137.49,1478.9Z" transform="translate(-410.32 -438.92)"/><path class="cls-16" d="M1137.49,1478.9c-170.65,30.87-287.6-13.59-322.83-29.83a55.61,55.61,0,0,1-23.54-20.39c-5.74-8.9-12.48-22.4-18-42,20.44,9,137.34,57.72,208.68,18,50.19-28-14.61-79.4,39.21-130.83,38.54-36.84,113.59-31.74,157.94-6.48,17.56,10,12.38,50.18,41.37,69.85,74.49,50.54,240.7-10.51,315.89-100.64C1525.77,1287.43,1421,1427.63,1137.49,1478.9Z" transform="translate(-410.32 -438.92)"/><path class="cls-17" d="M1367.25,1403.18c-5.88-17.65-11.43-36.24-16.57-55.6,68.77-16.85,142.27-59.12,185.57-111C1529.31,1270.21,1481.12,1342.94,1367.25,1403.18Z" transform="translate(-410.32 -438.92)"/><path class="cls-3" d="M1022.11,1494.46c-110.15,0-184.86-29.48-209.54-40.86a60.55,60.55,0,0,1-25.65-22.22c-7.49-11.62-17.7-32.58-23.82-66.4s-3.9-57-1-70.54a60.61,60.61,0,0,1,16.25-29.8c25.26-25.48,121.15-111.08,294.57-142.45,167.4-30.28,281.41-8.77,347.58,14.61,73.14,25.85,117,64.28,121.2,87.32h0c4.17,23-23.48,74.41-82.93,124.24-53.78,45.08-153,105.18-320.43,135.46A652.64,652.64,0,0,1,1022.11,1494.46Zm208.08-377.19c-45.38,0-97.11,4.2-155.45,14.75-170.54,30.85-264.52,114.7-289.26,139.66a50.68,50.68,0,0,0-13.58,24.88c-2.74,12.64-4.79,34.45,1,66.64s15.39,51.91,22.38,62.78a50.7,50.7,0,0,0,21.44,18.55c31.92,14.71,149.3,60.32,319.85,29.46,165.25-29.89,262.94-89,315.79-133.29,59.41-49.79,82.57-97.94,79.52-114.8s-41.61-53.85-114.7-79.68C1375.14,1131.36,1313.33,1117.27,1230.19,1117.27Z" transform="translate(-410.32 -438.92)"/><path class="cls-18" d="M1367.25,1403.17a1073.72,1073.72,0,0,1-51.67-285.61c145.35,18.78,216.73,82.51,221.25,107.45S1496.8,1334.64,1367.25,1403.17Z" transform="translate(-410.32 -438.92)"/><path class="cls-10" d="M1367.25,1403.17a1073.72,1073.72,0,0,1-51.67-285.61c145.35,18.78,216.73,82.51,221.25,107.45S1496.8,1334.64,1367.25,1403.17Z" transform="translate(-410.32 -438.92)"/><g class="cls-7"><path class="cls-2" d="M1412.49,1238.24c-2.21-6.2,36.19-25.46,69.24-18,40.28,9,11.74,22.9-5.15,25.76C1447.45,1250.88,1414.69,1244.44,1412.49,1238.24Z" transform="translate(-410.32 -438.92)"/></g><g class="cls-7"><path class="cls-2" d="M1535.68,1239c-6.81-25.77-77.72-87.15-219.38-105.83q-.43-7.89-.72-15.59c145.35,18.77,216.73,82.51,221.25,107.45C1537.46,1228.55,1537.12,1233.27,1535.68,1239Z" transform="translate(-410.32 -438.92)"/></g><path class="cls-19" d="M1367.25,1403.18c-5.88-17.65-11.43-36.24-16.57-55.6,68.77-16.85,142.27-59.12,185.57-111C1529.31,1270.21,1481.12,1342.94,1367.25,1403.18Z" transform="translate(-410.32 -438.92)"/><path class="cls-3" d="M1367.25,1408.17a5,5,0,0,1-4.74-3.42,1079.22,1079.22,0,0,1-51.92-287,5,5,0,0,1,5.63-5.14c146.77,19,220.37,83,225.52,111.52s-41.33,114.27-172.16,183.47A5.06,5.06,0,0,1,1367.25,1408.17Zm-46.44-284.87A1073.93,1073.93,0,0,0,1370.13,1396c67.5-36.57,107-75.16,128.31-101.37,25.8-31.68,35.44-57.81,33.47-68.69s-20.15-32-55.42-52.61C1447.31,1156.21,1396.83,1133.9,1320.81,1123.3Z" transform="translate(-410.32 -438.92)"/><path class="cls-3" d="M917,1484.54a4.36,4.36,0,0,1-3.91-2.43c-.29-.6-29.72-60.89-43.38-136.42s-7.23-142.31-7.16-143a4.35,4.35,0,1,1,8.66.86c-.06.66-6.37,66.28,7.07,140.56s42.34,133.53,42.63,134.12a4.36,4.36,0,0,1-2,5.83A4.23,4.23,0,0,1,917,1484.54Z" transform="translate(-410.32 -438.92)"/><circle class="cls-3" cx="851.3" cy="1243.8" r="4.35" transform="translate(-1066.22 795.5) rotate(-55.25)"/><path class="cls-3" d="M888.94,1451.86a4.35,4.35,0,1,1,3.51-5A4.34,4.34,0,0,1,888.94,1451.86Z" transform="translate(-410.32 -438.92)"/><circle class="cls-3" cx="855.12" cy="1313.26" r="4.35" transform="translate(-809.39 -65.27) rotate(-20.09)"/><path class="cls-3" d="M868.19,1385.47a4.35,4.35,0,1,1,3.5-5.06A4.36,4.36,0,0,1,868.19,1385.47Z" transform="translate(-410.32 -438.92)"/><circle class="cls-20" cx="681.63" cy="866.57" r="95.02"/><path class="cls-21" d="M1108.86,1399a95,95,0,0,1-110.41-76.59c21.12,36.52,35.28,17.44,35.82-18.2,32.27-5.84,74.58-22.55,107.82-27.74,24.9,43.81,36.3,32.94,43.36,12.11A95,95,0,0,1,1108.86,1399Z" transform="translate(-410.32 -438.92)"/><circle class="cls-20" cx="1091.95" cy="1305.49" r="71.2" transform="translate(-1013.62 715.58) rotate(-45)"/><path class="cls-3" d="M1091.9,1405.51a100.07,100.07,0,1,1,17.85-1.61h0A99.65,99.65,0,0,1,1091.9,1405.51Zm17-6.52h0ZM1092,1215.46a90,90,0,1,0,16,178.61h0a90,90,0,0,0-16-178.61Z" transform="translate(-410.32 -438.92)"/><circle class="cls-22" cx="1091.95" cy="1305.49" r="64.22" transform="translate(-1013.62 715.58) rotate(-45)"/><path class="cls-23" d="M1153.12,1325.1a65,65,0,0,0-1-10.12,64.23,64.23,0,0,0-124.37-8.17,64.23,64.23,0,1,1,125.39,18.29Z" transform="translate(-410.32 -438.92)"/><g class="cls-24"><path class="cls-2" d="M1151.54,1281.53l-122.68,35.93c0-.17-.07-.36-.1-.54a63.82,63.82,0,0,1,6.38-41.38l88.5-25.91A64.09,64.09,0,0,1,1151.54,1281.53Z" transform="translate(-410.32 -438.92)"/></g><g class="cls-24"><path class="cls-2" d="M1147.51,1337.71l-85,24.87a64.13,64.13,0,0,1-29.48-31.43l122.28-35.82A63.89,63.89,0,0,1,1147.51,1337.71Z" transform="translate(-410.32 -438.92)"/></g><path class="cls-3" d="M1091.92,1374.08a68.73,68.73,0,1,1,12.24-1.11h0A68.2,68.2,0,0,1,1091.92,1374.08Zm11.46-5.39h0Zm-11.3-123.09a59.9,59.9,0,1,0,34,10.69A59.81,59.81,0,0,0,1092.08,1245.6Z" transform="translate(-410.32 -438.92)"/><g class="cls-7"><path class="cls-2" d="M1389.14,1233.25c3.84-.56,14.1,0,16.91,6s-5.88,12.15-16.13,11.59c-7.91-.44-13-1.84-14-6.17C1374.94,1240,1382.49,1234.22,1389.14,1233.25Z" transform="translate(-410.32 -438.92)"/></g><path class="cls-25" d="M1152.23,918.54c.07,7.51-.25,15.27-.9,23.27l-24.39,10-45-10-3.33-15q2-9.31,3.53-18.72a411.09,411.09,0,0,0,4.92-48.5,172,172,0,0,1,51.87,17,21.09,21.09,0,0,1,11.42,15.79A193,193,0,0,1,1152.23,918.54Z" transform="translate(-410.32 -438.92)"/><g class="cls-7"><path class="cls-2" d="M1082.18,914.73a411.09,411.09,0,0,0,4.92-48.5,172,172,0,0,1,51.87,17A21.09,21.09,0,0,1,1150.39,899a193.91,193.91,0,0,1,1.82,25.22c0-1.9,0-3.8,0-5.68a193,193,0,0,0-1.84-26.2A21.09,21.09,0,0,0,1139,876.55a172,172,0,0,0-51.87-17,411.09,411.09,0,0,1-4.92,48.5q-1.52,9.39-3.53,18.72l.71,3.17C1080.39,924.9,1081.36,919.82,1082.18,914.73Z" transform="translate(-410.32 -438.92)"/></g><path class="cls-26" d="M1152.23,915.21c.07,7.51-.25,15.27-.9,23.27l-24.39,9.95-45-10-3.33-15q2-9.32,3.53-18.72Q1116.08,930.2,1152.23,915.21Z" transform="translate(-410.32 -438.92)"/><path class="cls-3" d="M1127.16,954.37l-47.27-10.5-3.79-17.07.11-.54a399.21,399.21,0,0,0,8.39-66.8l.12-2.78,2.75.42a176.85,176.85,0,0,1,54.91,18.39,19.52,19.52,0,0,1,10.15,14.33c2.43,15.43,2.86,33,1.3,52.19l-.13,1.53Zm-43.08-14.69,42.64,9.47,22.25-9.07c1.39-18.21.93-34.85-1.37-49.49a14.52,14.52,0,0,0-7.53-10.67,172.89,172.89,0,0,0-50.61-17.44,404.1,404.1,0,0,1-8.25,64.3Z" transform="translate(-410.32 -438.92)"/><path class="cls-3" d="M1106.56,939.44a2,2,0,0,1-.41,0,2.18,2.18,0,0,1-1.74-2.56c5-26.16,6.4-49.26,4.27-70.61a2.2,2.2,0,0,1,4.37-.44c2.17,21.78.75,45.29-4.34,71.87A2.19,2.19,0,0,1,1106.56,939.44Z" transform="translate(-410.32 -438.92)"/><path class="cls-3" d="M1093.24,936.11a2,2,0,0,1-.41,0,2.19,2.19,0,0,1-1.74-2.56c5-26.16,6.4-49.26,4.27-70.61a2.19,2.19,0,1,1,4.36-.44c2.18,21.78.76,45.29-4.33,71.87A2.19,2.19,0,0,1,1093.24,936.11Z" transform="translate(-410.32 -438.92)"/><path class="cls-3" d="M1122,937.35a1.62,1.62,0,0,1-.31,0,2.25,2.25,0,0,1-1.92-2.53,322.46,322.46,0,0,0,2.64-64.65,2.24,2.24,0,0,1,2.09-2.38,2.22,2.22,0,0,1,2.38,2.09,327,327,0,0,1-2.66,65.56A2.25,2.25,0,0,1,1122,937.35Z" transform="translate(-410.32 -438.92)"/><path class="cls-3" d="M1136.82,943.73a2.2,2.2,0,0,1-.44-.05,2.25,2.25,0,0,1-1.76-2.64c4.81-24.12,4.51-46.13-.89-65.41a2.24,2.24,0,1,1,4.32-1.21c5.59,20,5.92,42.68,1,67.5A2.25,2.25,0,0,1,1136.82,943.73Z" transform="translate(-410.32 -438.92)"/><path class="cls-2" d="M956.05,962.51a7,7,0,0,0,2.18,4.73c11.9,12.82,71,22.4,142,22.14s130-10.26,141.76-23.17a7,7,0,0,0,2.12-4.74c-.08-15.13-64.63-27.16-144.19-26.87S956,947.37,956.05,962.51Z" transform="translate(-410.32 -438.92)"/><path class="cls-3" d="M1097.36,992.71c-70.83,0-128.83-9.47-141.57-23.21a10.21,10.21,0,0,1-3.07-7h0A10.57,10.57,0,0,1,956.2,955c13.59-13.72,72.69-23.47,143.72-23.73,59.3-.25,147.41,7.65,147.54,30.18a10.24,10.24,0,0,1-3,7c-12.72,14-72,24-144.21,24.26Zm5.37-54.79h-2.79c-76.56.28-128.76,11.42-139,21.76a4.6,4.6,0,0,0-1.55,2.8h0a4,4,0,0,0,1.28,2.48c9.56,10.3,60.57,21.08,136.63,21.08h2.93c77.73-.28,129.8-11.59,139.31-22.08a3.86,3.86,0,0,0,1.26-2.49c0-3.19-8.37-10.14-39.57-16C1174.84,940.61,1140,937.92,1102.73,937.92Z" transform="translate(-410.32 -438.92)"/><path class="cls-25" d="M1055,962.61c7.09,10.17,23.07,17.84,42.26,19,18.19,1.14,34.63-3.82,43.94-12.13,4.55-4.06,7.39-8.91,7.92-14.24.63-6.55-2.35-12.83-7.91-18.09-6.4-6.09-16.25-10.83-27.94-13.09a81.17,81.17,0,0,0-22-1.2c-13,1.07-24.27,5.28-31.56,11.44-4.93,4.17-8,9.23-8.57,14.82A19.85,19.85,0,0,0,1055,962.61Z" transform="translate(-410.32 -438.92)"/><g class="cls-27"><path class="cls-2" d="M1096.56,948.06a9.41,9.41,0,0,1,4.58-8.77,1.76,1.76,0,0,0,.62-.55,1.45,1.45,0,0,0,0-.92c-.35-2.23,2.11-4.08,4.54-5.2a2.28,2.28,0,0,0,1-.69,1.77,1.77,0,0,0,0-1.36c-.51-2.83,2.08-5.8,5.57-6.38l.29-.09a81.17,81.17,0,0,0-22-1.2c-.47.16-.94.31-1.4.48a3.66,3.66,0,0,1,1.2,4.55,12.43,12.43,0,0,1-3.38,4.1,6,6,0,0,1-.61,8.77c1.57.36,1.75,2.1,1.38,3.37a12.75,12.75,0,0,1-2.64,4.81Z" transform="translate(-410.32 -438.92)"/></g><path class="cls-26" d="M1051.09,949.16a19.85,19.85,0,0,0,3.86,13.45l1.23.58c6.17,2.78,13,4.5,19.83,6a162,162,0,0,0,23.9,3.78c13.84,1,27.74-.82,41.25-3.46,4.54-4.06,7.38-8.91,7.9-14.24.64-6.55-2.34-12.83-7.9-18.09a6.52,6.52,0,0,1-3.28,3.82,9.72,9.72,0,0,1-8,.31c.26,2.49-1.68,4.88-4.27,6.27a25.65,25.65,0,0,1-8.78,2.38,88.47,88.47,0,0,1-30.8-1.17c-3.24-.74-6.87-2.06-7.67-4.69-3.27,1.28-7.77-.59-8.36-3.47a9.6,9.6,0,0,1-7.65-1.29,5.9,5.9,0,0,1-2.65-5C1054.73,938.51,1051.63,943.57,1051.09,949.16Z" transform="translate(-410.32 -438.92)"/><path class="cls-3" d="M1102.28,984.05c-1.72,0-3.45,0-5.21-.16-17.93-1.12-33.69-7.73-42.17-17.67-4.53-5.33-6.62-11.3-6-17.28,1.69-17.42,26-30.15,54.22-28.39,17.93,1.12,33.69,7.73,42.17,17.68,4.53,5.32,6.62,11.3,6,17.27C1149.7,971.84,1128.21,984.05,1102.28,984.05Zm-4.53-59.18c-23.6,0-43.06,10.46-44.43,24.5h0c-.46,4.74,1.27,9.56,5,13.94,7.58,8.9,22.54,15.07,39,16.1,25.82,1.61,48-9.3,49.48-24.34.46-4.74-1.27-9.56-5-13.93-7.58-8.91-22.54-15.08-39-16.11C1101.1,924.92,1099.41,924.87,1097.75,924.87Zm-46.66,24.29h0Z" transform="translate(-410.32 -438.92)"/><path class="cls-3" d="M1102,975.89c-1.36,0-2.74,0-4.14-.13-13.45-.84-25.21-5.71-31.44-13-3.23-3.79-4.71-8-4.3-12.28h0c1.24-12.78,18.84-21.75,40.06-20.42,13.45.84,25.2,5.71,31.43,13,3.23,3.79,4.72,8,4.31,12.28C1136.75,967.28,1121.31,975.89,1102,975.89Zm-36.06-25h0c-.31,3.18.87,6.43,3.41,9.41,5.48,6.44,16.5,10.91,28.75,11.68,18.84,1.18,35-6.43,36-17,.31-3.18-.86-6.44-3.4-9.42-5.49-6.43-16.5-10.91-28.75-11.67C1083.09,932.7,1067,940.31,1065.93,950.84Z" transform="translate(-410.32 -438.92)"/><path class="cls-3" d="M1101.09,969.67q-1.47,0-3-.09c-9.54-.6-18.16-4.12-22.49-9.21a11.33,11.33,0,0,1-3-8.5c.87-8.9,13.37-15.15,28.45-14.2,9.54.6,18.16,4.13,22.49,9.21a11.29,11.29,0,0,1,3,8.5C1125.73,963.69,1114.8,969.67,1101.09,969.67Zm-2.91-28.24c-11.45,0-21.14,4.68-21.73,10.82a7.49,7.49,0,0,0,2.07,5.63c3.68,4.32,11.27,7.33,19.81,7.86,12.56.78,23.74-4.13,24.38-10.73a7.51,7.51,0,0,0-2.07-5.64c-3.68-4.31-11.27-7.33-19.81-7.86C1099.94,941.45,1099.06,941.43,1098.18,941.43Z" transform="translate(-410.32 -438.92)"/><path class="cls-2" d="M1205.94,961.32c-20.4,19.1-45,11-55.81,2.57s-6.56-25.94,9.44-39.06,37.72-16.88,48.51-8.43S1221.5,946.74,1205.94,961.32Z" transform="translate(-410.32 -438.92)"/><path class="cls-28" d="M1150.13,963.89c10.79,8.46,35.41,16.53,55.81-2.57,11.89-11.14,13.16-26.54,8.28-37a34.15,34.15,0,0,1-10,16.59c-20.39,19.11-45,11-55.8,2.57a15.33,15.33,0,0,1-2.11-2C1142.57,950.32,1143.6,958.76,1150.13,963.89Z" transform="translate(-410.32 -438.92)"/><path class="cls-3" d="M1177.29,975.52a48,48,0,0,1-28.7-9.66,17.82,17.82,0,0,1-6.92-14.32c-.11-9.47,6-20.17,16.32-28.64,17.12-14,39.8-17.74,51.63-8.46,5.72,4.48,9.36,12.29,9.74,20.87a36.11,36.11,0,0,1-11.72,27.83C1198,972.2,1187.25,975.52,1177.29,975.52Zm15.58-61.19c-9.93,0-21.92,4.41-31.71,12.44-9.17,7.51-14.59,16.75-14.5,24.71a13,13,0,0,0,5,10.45c10.93,8.57,33.95,15,52.56-2.43h0a30.63,30.63,0,0,0,10.13-24c-.31-7.15-3.24-13.56-7.83-17.16C1203.05,915.63,1198.26,914.33,1192.87,914.33Z" transform="translate(-410.32 -438.92)"/><ellipse class="cls-29" cx="1173.83" cy="944.47" rx="20.98" ry="13.11" transform="translate(-728.17 293.9) rotate(-30.74)"/><path class="cls-30" d="M1157.88,957.54c5.94,4.66,17.89,2.58,26.7-4.64,7.39-6.06,10.22-13.8,7.43-18.89a24.11,24.11,0,0,1-7.68,10.23c-8.81,7.22-20.77,9.3-26.71,4.64a8.6,8.6,0,0,1-2.23-2.61C1153.81,950.73,1154.54,954.92,1157.88,957.54Z" transform="translate(-410.32 -438.92)"/><g class="cls-27"><path class="cls-2" d="M1172.43,941.2c-2.27,1.87-5.37,2.41-6.9,1.2s-.93-3.69,1.34-5.56,5.37-2.4,6.91-1.2S1174.71,939.33,1172.43,941.2Z" transform="translate(-410.32 -438.92)"/></g><path class="cls-3" d="M1165.41,971c-6.54,0-12.43-1.66-16.82-5.1a17.82,17.82,0,0,1-6.92-14.32c-.11-9.47,6-20.17,16.32-28.64,17.12-14,39.8-17.74,51.63-8.46a17.82,17.82,0,0,1,6.92,14.32c.1,9.47-6,20.17-16.32,28.63C1189.46,966.21,1176.49,971,1165.41,971Zm27.46-56.63c-9.93,0-21.92,4.41-31.71,12.44-9.17,7.51-14.59,16.75-14.5,24.71a13,13,0,0,0,5,10.45c9.91,7.76,30.26,4,45.38-8.4h0c9.16-7.51,14.58-16.75,14.5-24.72a13,13,0,0,0-5-10.44C1203.05,915.63,1198.26,914.33,1192.87,914.33Z" transform="translate(-410.32 -438.92)"/><path class="cls-31" d="M1066.76,994.92c4.74-13.95-1.6-22.17,4.76-52.51,6.5-31-63.39-60.16-61.44-29.82C1015.21,992.42,1061.34,1010.89,1066.76,994.92Z" transform="translate(-410.32 -438.92)"/><g class="cls-27"><path class="cls-2" d="M1020.11,900c-3.4,2-5.35,5.48-5,10.9,4.09,63.71,34.3,88.34,49.08,87.58-11.22,8.33-49.47-13.65-54.11-85.92C1009.58,904.87,1013.74,901,1020.11,900Z" transform="translate(-410.32 -438.92)"/></g><path class="cls-32" d="M1061,929c3,4.62,4.13,9,3.27,13.12a130.49,130.49,0,0,0-2.92,34.11c.18,6.15.29,10.21-1.41,15.24l0,.1c-.63.27-3.43.61-8.19-1.91-5.78-3-11.69-8.88-16.65-16.45-6.78-10.34-15.28-29.16-17.27-60.1-.24-3.67,1-4.17,1.76-4.5,8.11-3.35,31.65,5.45,41.44,20.39Z" transform="translate(-410.32 -438.92)"/><path class="cls-31" d="M1054,935.8c-5.71-5.06-11.62-10.12-17.91-14-2.09-1.2-4.39-2.59-6.61-2.57-.63.11-.55.26-.73.74-1.67,9.92,13,56.7,22.87,59,.71-.95,1.05-3.7,1.23-5.69a90.31,90.31,0,0,0-1.28-22.41c-.72-5.35-3.17-10.08-7.89-12.84a5.14,5.14,0,0,0-3.1-1.06,2.41,2.41,0,0,0-.32,1.49,61.18,61.18,0,0,0,4.26,19.15,1.13,1.13,0,0,1-.6,1.51,1.12,1.12,0,0,1-1.43-.55,58.89,58.89,0,0,1-4-11.14,54.31,54.31,0,0,1-1.55-8.84,5.41,5.41,0,0,1,1.07-4c5.08-4.64,14.68,4.62,16.23,9.5,2.75,7,7.17,35.18,0,39.33-4.16,2.41-8.65-1.47-10.77-4.24-6.16-8-9.84-17.44-13.26-26.64a133.61,133.61,0,0,1-6.18-22.78c-1.33-7.19-1.78-18.51,9-14.87,5.79,2.39,10.27,6.59,14.64,10.73,2.79,2.76,5.49,5.56,8,8.58a1.12,1.12,0,0,1-1.62,1.54Z" transform="translate(-410.32 -438.92)"/><path class="cls-3" d="M1058.52,1002.68a17.4,17.4,0,0,1-2.35-.16c-16.69-2.21-44.64-28.54-48.58-89.77-.51-7.86,3.27-11.62,6.53-13.39,10.68-5.8,30,1.15,42.68,10.62,13.23,9.85,19.48,21.85,17.16,32.94a127.61,127.61,0,0,0-2.88,33.72c.2,6.86.36,12.28-1.95,19.09h0C1067.61,1000.18,1063.73,1002.68,1058.52,1002.68Zm-34.93-100.42a15,15,0,0,0-7.09,1.49c-2.92,1.58-4.2,4.42-3.93,8.68,3.89,60.42,31.5,83.45,44.26,85.14,2.28.3,6.31.25,7.56-3.45h0c2-6,1.89-10.73,1.7-17.34a131.83,131.83,0,0,1,3-34.88c2.71-12.93-9.76-23.83-15.25-27.91C1044,906.67,1032.09,902.26,1023.59,902.26Z" transform="translate(-410.32 -438.92)"/><path class="cls-2" d="M1002,979.85c-1.38,2.87.43,6.92,4.55,9.65s9.2,3.23,12.15,1.4a14.46,14.46,0,0,0,11.33,6.45c4.54.17,7.4-2.31,7-5.77,4.33,2.11,9.17,2,11.47-.53s1.27-6.51-2.18-9.56c4-.54,6.18-3.5,4.88-7.2s-5.6-6.89-10.13-7.75c1.38-2.88-.43-6.92-4.55-9.66s-9.19-3.23-12.15-1.4A14.49,14.49,0,0,0,1013.1,949c-4.53-.17-7.4,2.31-7,5.77-4.33-2.1-9.17-2-11.47.53s-1.27,6.51,2.18,9.56c-4,.55-6.18,3.51-4.88,7.2S997.49,979,1002,979.85Z" transform="translate(-410.32 -438.92)"/><path class="cls-3" d="M1030.48,999.39H1030a16.77,16.77,0,0,1-11.94-5.93c-3.64,1.24-8.53.42-12.58-2.26s-6.21-6.47-5.9-9.89c-4.48-1.48-8.26-4.78-9.58-8.54a7.29,7.29,0,0,1,.49-6.3,7.12,7.12,0,0,1,2.73-2.54,9.83,9.83,0,0,1-1.85-5,6.66,6.66,0,0,1,1.76-5c2.42-2.62,6.81-3.33,11.27-2a6.71,6.71,0,0,1,1.44-2.36,9.34,9.34,0,0,1,7.37-2.6,16.81,16.81,0,0,1,11.94,5.93c3.65-1.24,8.53-.42,12.58,2.26s6.21,6.47,5.9,9.89c4.48,1.48,8.26,4.79,9.58,8.54a7.25,7.25,0,0,1-.49,6.3,7.12,7.12,0,0,1-2.73,2.54,9.86,9.86,0,0,1,1.85,5,6.64,6.64,0,0,1-1.76,5c-2.42,2.63-6.81,3.34-11.27,2a6.83,6.83,0,0,1-1.43,2.36A9.18,9.18,0,0,1,1030.48,999.39Zm-11.07-11.31,1.06,1.79a12.52,12.52,0,0,0,9.65,5.45,5.51,5.51,0,0,0,4.26-1.31,2.7,2.7,0,0,0,.69-2.22l-.38-3.63,3.29,1.6c3.55,1.72,7.46,1.69,9.08-.08a2.65,2.65,0,0,0,.69-2A7.33,7.33,0,0,0,1045,983l-3.33-2.94,4.4-.59a4.22,4.22,0,0,0,3.13-1.68,3.35,3.35,0,0,0,.11-2.84c-1-2.93-4.72-5.69-8.59-6.43l-2.59-.49,1.14-2.38c.94-2-.71-5-3.85-7.08-3.35-2.22-7.63-2.81-9.94-1.37l-1.76,1.09-1.06-1.78a12.59,12.59,0,0,0-9.66-5.46,5.58,5.58,0,0,0-4.26,1.32,2.68,2.68,0,0,0-.69,2.21l.37,3.63-3.28-1.59c-3.55-1.72-7.45-1.69-9.08.07a2.65,2.65,0,0,0-.69,2,7.33,7.33,0,0,0,2.72,4.66l3.33,2.94-4.4.6a4.12,4.12,0,0,0-3.12,1.68,3.29,3.29,0,0,0-.12,2.83c1,2.93,4.72,5.69,8.59,6.43l2.59.49-1.14,2.38c-.94,2,.71,5,3.85,7.08,3.35,2.23,7.63,2.81,9.95,1.38Z" transform="translate(-410.32 -438.92)"/><path class="cls-33" d="M1016.16,980.14c12.4,5.75,23.49-2,10.32-12.56-4-2.71-10-5-14.14-2a3.55,3.55,0,0,0-1.21,3.58c1.15,4.16,7.48,8,11.57,6.08a2.17,2.17,0,0,0,.55-3.23c-.94-2-6.35-4.83-7.33-1.9a.88.88,0,0,1-1.76-.11,3,3,0,0,1,.75-1.9c5.09-4.8,16.2,4.48,9.31,9.47-5.94,3.37-14.48-1.45-16.24-7.66-1.41-5.32,3.88-9.25,8.65-9.07a21.25,21.25,0,0,1,16.22,8.52c4.8,6.19,2.64,14.39-5.75,15.15a20,20,0,0,1-11.8-2.71.92.92,0,0,1-.35-1.26.93.93,0,0,1,1.21-.37Z" transform="translate(-410.32 -438.92)"/><path class="cls-2" d="M1074.76,963.46c-1.66,2.77-.27,6.93,3.57,9.91s8.83,3.83,12,2.19c1.72,3.64,6.13,6.7,10.64,7.17s7.61-1.83,7.6-5.3c4.11,2.38,9,2.56,11.48.22s1.93-6.41-1.2-9.67c4.07-.29,6.51-3.1,5.59-6.86s-4.88-7.24-9.31-8.39c1.66-2.77.27-6.93-3.57-9.92s-8.83-3.82-12-2.18c-1.72-3.65-6.13-6.7-10.64-7.17s-7.61,1.83-7.6,5.29c-4.11-2.37-8.94-2.55-11.48-.21s-1.93,6.41,1.2,9.67c-4.07.28-6.51,3.1-5.59,6.86S1070.33,962.3,1074.76,963.46Z" transform="translate(-410.32 -438.92)"/><path class="cls-3" d="M1102.06,984.82c-.43,0-.88,0-1.34-.07a16.17,16.17,0,0,1-11.32-6.68c-3.76,1-8.55-.15-12.32-3.09s-5.52-6.87-4.92-10.26c-4.31-1.78-7.75-5.33-8.69-9.17a7.13,7.13,0,0,1,4.11-8.57,9.54,9.54,0,0,1-1.35-5,6.86,6.86,0,0,1,2.23-4.94c2.67-2.45,7.12-2.85,11.43-1.21a6.76,6.76,0,0,1,1.68-2.3,9.61,9.61,0,0,1,7.56-2.09,16.21,16.21,0,0,1,11.33,6.68c3.75-1,8.54.15,12.31,3.09s5.52,6.87,4.92,10.25c4.31,1.78,7.75,5.34,8.69,9.18a7.14,7.14,0,0,1-4.12,8.58,9.6,9.6,0,0,1,1.36,5,6.85,6.85,0,0,1-2.23,4.93c-2.67,2.45-7.11,2.85-11.43,1.21a6.76,6.76,0,0,1-1.68,2.3A9.1,9.1,0,0,1,1102.06,984.82Zm-10.84-12,.91,1.91c1.44,3,5.31,5.64,9,6a5.78,5.78,0,0,0,4.42-1.06,2.84,2.84,0,0,0,.94-2.21v-3.53l3.06,1.77c3.36,1.94,7.27,2.15,9.09.47a2.83,2.83,0,0,0,.92-2.06,6.89,6.89,0,0,0-2.22-4.71l-3-3.13,4.34-.3a4.4,4.4,0,0,0,3.35-1.53,3.37,3.37,0,0,0,.41-2.82c-.72-3-4.1-5.93-7.85-6.9L1112,954l1.39-2.32c1.13-1.9-.19-5-3.08-7.27-3.1-2.42-7.3-3.28-9.77-2l-1.87,1-.9-1.9c-1.45-3-5.32-5.64-9-6a5.83,5.83,0,0,0-4.43,1.06,2.88,2.88,0,0,0-.94,2.21v3.53l-3-1.77c-3.36-1.94-7.27-2.15-9.09-.48a2.87,2.87,0,0,0-.92,2.07,7,7,0,0,0,2.22,4.71l3,3.13-4.34.3a4.4,4.4,0,0,0-3.35,1.53,3.37,3.37,0,0,0-.41,2.82c.72,3,4.1,5.92,7.85,6.9l2.63.68-1.4,2.33c-1.13,1.9.19,5,3.08,7.27,3.11,2.43,7.31,3.28,9.77,2Z" transform="translate(-410.32 -438.92)"/><path class="cls-33" d="M1088.8,964.67c4.91,2.92,16.28,4.77,16.54-3.31-.08-3.17-2.25-6.33-4.92-8.55-3.77-3-9.58-5.56-13.91-2.91a3.75,3.75,0,0,0-1.6,3.48c.68,4.26,6.75,8.49,10.92,6.78a2.22,2.22,0,0,0,.9-3.18c-.77-2.17-5.89-5.18-7.13-2.32a.88.88,0,0,1-1.74-.31c.43-2.81,3.83-3.37,6-2.58,4.63,1.21,8.58,7.58,3.32,10.82-6.2,3-14.38-2.33-15.49-8.82-.83-5.25,4.79-8.83,9.38-8.34a20.41,20.41,0,0,1,15.51,9.66c4.15,6.6,1,14.4-7.2,14.61a19.67,19.67,0,0,1-11.57-3.46.93.93,0,0,1,1-1.57Z" transform="translate(-410.32 -438.92)"/><path class="cls-25" d="M1112.71,985.25a32.06,32.06,0,0,0,4.63,11.76c9.47,14.81,30.89,23.88,53.86,21.31,17.24-1.92,31.41-10,39.12-20.75,5.06-7.09,7.35-15.37,5.86-23.88a32.71,32.71,0,0,0-6.74-14.73c-7.07-9-18.74-15.39-32.3-17.77h0a69,69,0,0,0-19.43-.58,67.21,67.21,0,0,0-11.21,2.22c-11.27,3.25-20.56,9.27-26.6,16.8S1111.11,976,1112.71,985.25Z" transform="translate(-410.32 -438.92)"/><g class="cls-27"><path class="cls-2" d="M1177.63,941.6c-3.21,1.11-4.54,4.75-2.59,7.08a5,5,0,0,0-3.55,3.37,4.08,4.08,0,0,0,1.72,4.19c-3.23,1.48-4.72,5-3.28,7.75a55.11,55.11,0,0,0-15.29,2.87,8.64,8.64,0,0,0,1.22-4.7,4.3,4.3,0,0,0-3.4-3.64c2.59-2.51,1.13-6.93-2.66-8.09,1.82-2.66-.19-6.5-3.84-7.32,7.24-4.07,16.84-3.81,25.67-3.38,2.15.1,4.6.34,5.8,1.77Z" transform="translate(-410.32 -438.92)"/></g><path class="cls-26" d="M1112.71,985.25a32.06,32.06,0,0,0,4.63,11.76,91.62,91.62,0,0,0,11.56,4.47c15.47,5,32.22,8.32,48.83,6.92,11.85-1,23.62-4.67,32.59-10.83,5.06-7.09,7.35-15.37,5.86-23.88a32.71,32.71,0,0,0-6.74-14.73,12.79,12.79,0,0,1-1,5.66,6.63,6.63,0,0,1-5.44,3.6c.18,2.35-2.77,4-5.39,5a125.13,125.13,0,0,1-40.76,8.5c-2.84.11-5.82.11-8.37-.91a10,10,0,0,0-2.93-1,12.81,12.81,0,0,0-2.74.37c-3.75.55-7.72-2.05-7.78-5.12a7.81,7.81,0,0,1-6.66-1.56,4.61,4.61,0,0,1-1.21-5.48,6.11,6.11,0,0,1-7.08-2c-1.33-2-1-4.42,0-6.5l-.23,0C1113.91,967.09,1111.11,976,1112.71,985.25Z" transform="translate(-410.32 -438.92)"/><path class="cls-3" d="M1163.51,1021c-26.47,0-49.44-14.82-53-35.36h0c-1.59-9.17.77-18.28,6.82-26.34,8.54-11.39,23.17-19,40.12-20.9,29.67-3.32,57,12.34,61,34.91,1.6,9.17-.76,18.28-6.81,26.34-8.55,11.39-23.18,19-40.13,20.91A71.08,71.08,0,0,1,1163.51,1021Zm-48.59-36.13c3.52,20.28,28.67,34.29,56,31.23,15.73-1.76,29.23-8.73,37-19.14,5.29-7.05,7.36-15,6-22.88-3.52-20.28-28.67-34.28-56-31.23-15.73,1.76-29.23,8.73-37,19.14-5.29,7-7.36,15-6,22.88Z" transform="translate(-410.32 -438.92)"/><path class="cls-3" d="M1163.71,1012.67c-21.15,0-39.5-11.85-42.35-28.27-1.28-7.34.61-14.63,5.45-21.08,6.83-9.1,18.51-15.19,32-16.7,23.67-2.66,45.54,9.87,48.68,27.92,1.27,7.33-.61,14.62-5.45,21.07-6.83,9.1-18.51,15.19-32,16.7A56.63,56.63,0,0,1,1163.71,1012.67Zm1.53-62.57a52.42,52.42,0,0,0-6,.34c-12.49,1.39-23.2,6.93-29.4,15.19-4.19,5.58-5.83,11.84-4.74,18.11,2.8,16.08,22.74,27.19,44.47,24.76,12.49-1.4,23.21-6.94,29.4-15.19,4.19-5.59,5.83-11.85,4.74-18.12C1201.21,960.6,1184.55,950.1,1165.24,950.1Z" transform="translate(-410.32 -438.92)"/><path class="cls-3" d="M1163.91,1004.45c-15.84,0-29.58-8.91-31.73-21.26a20.33,20.33,0,0,1,4.11-15.93c5.12-6.82,13.86-11.38,24-12.51,17.72-2,34.08,7.43,36.44,21a20.24,20.24,0,0,1-4.11,15.93c-5.12,6.83-13.85,11.39-24,12.52A44.49,44.49,0,0,1,1163.91,1004.45Zm1.14-46.13a37.57,37.57,0,0,0-4.35.25c-8.94,1-16.92,5.11-21.33,11a16.53,16.53,0,0,0-3.4,13c2,11.6,16.47,19.6,32.23,17.84,8.94-1,16.91-5.11,21.33-11a16.56,16.56,0,0,0,3.4-13C1191.1,965.88,1179,958.32,1165.05,958.32Z" transform="translate(-410.32 -438.92)"/><path class="cls-3" d="M1164.11,996.08c-10.42,0-19.48-5.93-20.9-14.12a13.81,13.81,0,0,1,2.75-10.69c3.37-4.49,9.11-7.5,15.75-8.24,11.66-1.3,22.41,5,24,14a13.78,13.78,0,0,1-2.74,10.68c-3.38,4.5-9.12,7.5-15.75,8.24A26.77,26.77,0,0,1,1164.11,996.08Zm.73-29.38a24.7,24.7,0,0,0-2.7.15c-5.51.61-10.41,3.13-13.11,6.73a9.84,9.84,0,0,0-2,7.72h0c1.22,7,10.09,11.87,19.76,10.78,5.5-.61,10.4-3.13,13.1-6.73a9.84,9.84,0,0,0,2-7.72C1180.79,971.27,1173.41,966.7,1164.84,966.7Z" transform="translate(-410.32 -438.92)"/><path class="cls-3" d="M1164.26,986.67c-4.46,0-8.23-2.52-8.86-6.11h0a6.08,6.08,0,0,1,1.21-4.71,9.57,9.57,0,0,1,6.68-3.51c5-.56,9.51,2.09,10.2,6a6.11,6.11,0,0,1-1.2,4.71,9.59,9.59,0,0,1-6.69,3.51A12.19,12.19,0,0,1,1164.26,986.67ZM1158,980.1c.43,2.48,3.78,4.25,7.29,3.85a7,7,0,0,0,4.85-2.47,3.37,3.37,0,0,0,.71-2.65c-.43-2.48-3.79-4.25-7.29-3.85a7.07,7.07,0,0,0-4.85,2.47,3.44,3.44,0,0,0-.71,2.65Z" transform="translate(-410.32 -438.92)"/><path class="cls-25" d="M1020.09,980.11a19.9,19.9,0,0,0,3.86,13.45c7.09,10.17,23.07,17.84,42.26,19,18.19,1.14,34.63-3.82,44-12.13,4.54-4.06,7.38-8.91,7.91-14.24.63-6.55-2.35-12.83-7.9-18.09-8.22-7.8-22.09-13.39-38.23-14.4-17.75-1.11-33.86,3.59-43.28,11.55C1023.73,969.46,1020.64,974.52,1020.09,980.11Z" transform="translate(-410.32 -438.92)"/><g class="cls-27"><path class="cls-2" d="M1081.94,955.14c-3.5.58-6.08,3.55-5.57,6.38a1.87,1.87,0,0,1,0,1.36,2.58,2.58,0,0,1-1,.7c-2.43,1.11-4.89,3-4.54,5.19a1.45,1.45,0,0,1,0,.92,1.76,1.76,0,0,1-.62.55,9.42,9.42,0,0,0-4.58,8.76l-10.79.93a12.79,12.79,0,0,0,2.64-4.8c.37-1.28.19-3-1.38-3.38a6,6,0,0,0,.62-8.77,12.68,12.68,0,0,0,3.38-4.1,3.69,3.69,0,0,0-1.21-4.56,38.85,38.85,0,0,1,12.11-2.39,21.32,21.32,0,0,1,11.72,3" transform="translate(-410.32 -438.92)"/></g><path class="cls-26" d="M1020.09,980.11a19.9,19.9,0,0,0,3.86,13.45l1.23.58c6.18,2.78,13,4.5,19.83,6a163.51,163.51,0,0,0,23.91,3.78c13.84,1,27.74-.82,41.24-3.46,4.54-4.06,7.38-8.91,7.91-14.24.63-6.55-2.35-12.83-7.9-18.09a6.62,6.62,0,0,1-3.28,3.82,9.75,9.75,0,0,1-8.05.31c.27,2.49-1.68,4.88-4.27,6.27a25.53,25.53,0,0,1-8.78,2.38,88.41,88.41,0,0,1-30.79-1.17c-3.25-.74-6.87-2.06-7.68-4.69-3.27,1.28-7.77-.59-8.35-3.47a9.62,9.62,0,0,1-7.66-1.29,5.93,5.93,0,0,1-2.65-5C1023.73,969.46,1020.64,974.52,1020.09,980.11Z" transform="translate(-410.32 -438.92)"/><path class="cls-3" d="M1071.28,1015c-1.72,0-3.45,0-5.21-.16-17.93-1.12-33.69-7.73-42.16-17.68-4.54-5.32-6.63-11.29-6-17.27,1.7-17.42,26-30.14,54.22-28.39,17.93,1.12,33.7,7.73,42.17,17.68,4.53,5.32,6.62,11.3,6,17.27C1118.7,1002.79,1097.21,1015,1071.28,1015Zm-4.53-59.18c-23.6,0-43.06,10.46-44.43,24.5-.46,4.74,1.27,9.56,5,13.94,7.59,8.9,22.54,15.07,39,16.1,25.83,1.61,48-9.3,49.48-24.34.46-4.74-1.27-9.56-5-13.93-7.59-8.91-22.55-15.08-39-16.11C1070.1,955.87,1068.42,955.82,1066.75,955.82Z" transform="translate(-410.32 -438.92)"/><path class="cls-3" d="M1071,1006.84c-1.36,0-2.74,0-4.14-.13-13.45-.84-25.2-5.71-31.43-13-3.23-3.79-4.72-8-4.31-12.28h0c1.25-12.78,18.83-21.74,40.06-20.42,13.45.84,25.21,5.71,31.44,13,3.23,3.79,4.72,8,4.3,12.28C1105.75,998.23,1090.32,1006.84,1071,1006.84Zm-3.89-42.14c-17.14,0-31.21,7.28-32.16,17.09h0c-.31,3.17.87,6.43,3.4,9.41,5.49,6.43,16.5,10.91,28.75,11.68,18.85,1.18,35-6.44,36-17,.31-3.17-.87-6.43-3.41-9.41-5.48-6.43-16.5-10.91-28.75-11.68C1069.64,964.74,1068.36,964.7,1067.1,964.7ZM1033,981.6h0Z" transform="translate(-410.32 -438.92)"/><path class="cls-3" d="M1070.1,1000.62q-1.49,0-3-.09c-9.55-.6-18.17-4.13-22.5-9.21a11.37,11.37,0,0,1-3-8.5c.87-8.9,13.38-15.14,28.45-14.2,9.54.6,18.17,4.13,22.5,9.21a11.32,11.32,0,0,1,3,8.5C1094.73,994.64,1083.81,1000.62,1070.1,1000.62Zm-2.91-28.24c-11.46,0-21.14,4.68-21.74,10.82h0a7.46,7.46,0,0,0,2.08,5.63c3.67,4.32,11.27,7.33,19.81,7.86,12.55.78,23.73-4.13,24.38-10.73a7.55,7.55,0,0,0-2.08-5.64c-3.68-4.31-11.27-7.33-19.81-7.86C1068.94,972.4,1068.06,972.38,1067.19,972.38ZM1043.54,983h0Z" transform="translate(-410.32 -438.92)"/><path class="cls-2" d="M979.73,951.22c-8,2.8-12.53,5.91-12.51,9.18a5.19,5.19,0,0,0,2,3.71c11,10,65.44,17.53,131,17.3s120-8.11,130.78-18.25a5.16,5.16,0,0,0,2-3.72c0-1.64-1.14-3.22-3.28-4.74s5.25.92,1.21-.45c0,0,8.66-.93,5,11.36-4.15,13.71-39.39,31.58-135.52,31.93-98.28.35-133.95-16.11-137-29.81C959.87,952.92,979.73,951.22,979.73,951.22Z" transform="translate(-410.32 -438.92)"/><path class="cls-34" d="M1092.18,997.76" transform="translate(-410.32 -438.92)"/><g class="cls-35"><path class="cls-2" d="M1205.4,1036.05c9.75-10.7,17.93-26.87,11-31.42-9.31-6.11-22.18,10.46-34.84,21.17-20.87,17.64-35.76,19.87-35,28.67C1147,1059.88,1177.56,1066.62,1205.4,1036.05Z" transform="translate(-410.32 -438.92)"/></g><path class="cls-3" d="M1229.65,954.7c3.28,1.4,5.7,5,2.92,8.49-6.71,7.38-17,9-26.07,11.48-24.4,5.51-49.31,7.56-74.2,8.7a773.72,773.72,0,0,1-93.24-1.45c-18.65-1.76-37.35-3.79-55.43-9.06-6.11-2.07-13.08-3.84-17.07-9.46-2.33-3.78.89-7.62,4.21-9.15a37.59,37.59,0,0,1,9-3c-8.38,4.44-18,9.27-3.53,14.82,14.31,5.29,29.68,7,44.88,8.79A695.39,695.39,0,0,0,1095,978.7c37-.13,74.18-1.69,110.55-8.34,8.58-2.05,18.1-3.52,25.22-8.7,2.49-2.1,1-5-1.13-7Z" transform="translate(-410.32 -438.92)"/><path class="cls-36" d="M956.05,962.51s-8.9,122.09,144.72,121.53,143.35-122.57,143.35-122.57a7,7,0,0,1-2.12,4.74c-11.72,12.91-70.71,22.91-141.76,23.17s-130.11-9.32-142-22.14A7,7,0,0,1,956.05,962.51Z" transform="translate(-410.32 -438.92)"/><path class="cls-37" d="M956.05,962.51s-8.9,122.09,144.72,121.53,143.35-122.57,143.35-122.57a7,7,0,0,1-2.12,4.74c-11.72,12.91-70.71,22.91-141.76,23.17s-130.11-9.32-142-22.14A7,7,0,0,1,956.05,962.51Z" transform="translate(-410.32 -438.92)"/><path class="cls-38" d="M964.34,978.68c2.16,18,9.8,47.7,35.91,69.74,23.41,19.77,57.22,29.71,100.48,29.56a247.83,247.83,0,0,0,25.59-1.38c-31.19-3.18-56.31-12.68-74.88-28.36-20.74-17.51-29.83-39.86-33.77-57.33C995.75,988.17,976.79,984.13,964.34,978.68Z" transform="translate(-410.32 -438.92)"/><path class="cls-2" d="M957.41,995a9.8,9.8,0,0,0,1,1.21c11.9,12.83,71,22.4,142,22.15s130-10.26,141.76-23.18a11.58,11.58,0,0,0,1-1.23,103.5,103.5,0,0,0,1.06-21.06,7,7,0,0,1-2.13,4.74c-11.71,12.92-70.71,22.92-141.76,23.17s-130.11-9.31-142-22.14a7.08,7.08,0,0,1-2.17-4.73A103.45,103.45,0,0,0,957.41,995Z" transform="translate(-410.32 -438.92)"/><path class="cls-3" d="M1020.28,985.07c-14.19-1.1-67.53-4.22-67.56-22.54,0,0,6.65.22,6.65.22-.87,56.82,33.84,99.54,89,112.29a232.52,232.52,0,0,0,104.54-.33c44.56-10.57,77.78-41.49,86-87.22a111.11,111.11,0,0,0,1.94-25.75l6.65-.29c-.18,22.9-80.66,25.58-98.58,26.15,8.45-1,16.87-2.21,25.26-3.55,14-2.38,61.06-10.19,66.66-22.57a3.39,3.39,0,0,1,3.86-3.32,3.31,3.31,0,0,1,2.79,3,100.38,100.38,0,0,1-.22,13.91,126.19,126.19,0,0,1-9.8,39.89c-23,54.52-81.89,72.81-136.77,72.38-36,.08-74-6.33-103.47-28.56-29.75-22.2-45.62-59.82-44.46-96.55a3.32,3.32,0,0,1,6.6-.23c3.48,12.15,48.56,20.52,60.95,23Z" transform="translate(-410.32 -438.92)"/><g class="cls-35"><path class="cls-2" d="M1201.77,1036.42c11.29-12.39,20.76-31.11,12.73-36.38-10.78-7.08-25.68,12.1-40.34,24.5-24.16,20.42-41.4,23-40.55,33.2C1134.13,1064,1169.53,1071.8,1201.77,1036.42Z" transform="translate(-410.32 -438.92)"/></g><path class="cls-31" d="M968.36,957.52a34.64,34.64,0,0,0,15.29,13.15c8.46,2.46,19.88,4.61,33.48,6.32,5.08.64,10.47,1.22,16.13,1.73,1.69.16,3.41.31,5.15.45,2.9.24,5.85.46,8.87.66l4.51.28,5.17.29c-.1-.45-.21-.91-.34-1.39h0c-.25-.89-.55-1.8-.89-2.75-.23-.63-.49-1.27-.76-1.93-.42-1-.89-2-1.41-3h0c-.35-.68-.72-1.38-1.12-2.09a84.7,84.7,0,0,0-12.38-16.32l-.59-.63c-2-2.1-4.22-4.25-6.63-6.45l-1.47-1.32c-1.25-1.1-2.54-2.21-3.89-3.33l-.81-.68-2.52-2-1.75-1.36-2.71-2.07A270.67,270.67,0,0,0,987,914.38a27.41,27.41,0,0,0-3.29-1.54c-.35-.14-.7-.26-1-.38l-1-.32-1-.25h0a19.3,19.3,0,0,0-2.37-.37l-.84,0h-.83a2.06,2.06,0,0,0-.34,0h-.19l-.58.06-.58.07-.48.09a12.58,12.58,0,0,0-2.12.61l-.44.19a.88.88,0,0,0-.22.1c-.16.07-.33.15-.49.24l0,0-.54.29a13.74,13.74,0,0,0-2.16,1.58C959.63,922.6,958.9,942.92,968.36,957.52Z" transform="translate(-410.32 -438.92)"/><g class="cls-27"><path class="cls-2" d="M968.43,914.75c3.84-1.31,8.61-.83,14.22,2.22,44.87,24.39,64.11,47.68,69.14,63.14l5.17.29c0,.12,0,.23.08.35,0-.11,0-.23-.07-.35-.1-.45-.22-.91-.35-1.39h0c-.25-.88-.54-1.8-.89-2.75-.23-.63-.49-1.27-.76-1.93-.41-1-.88-2-1.41-3h0c-.34-.68-.72-1.38-1.12-2.09a84.7,84.7,0,0,0-12.38-16.32l-.59-.63c-2-2.11-4.22-4.26-6.63-6.45l-1.47-1.32c-1.25-1.1-2.54-2.21-3.89-3.33l-.81-.68q-1.23-1-2.52-2l-1.75-1.36c-.88-.69-1.79-1.38-2.71-2.07A270.67,270.67,0,0,0,987,914.38a27.41,27.41,0,0,0-3.29-1.54c-.35-.14-.7-.26-1-.38l-1-.32-1-.25h0a19.3,19.3,0,0,0-2.37-.37l-.84,0h-.83a2.06,2.06,0,0,0-.34,0h-.19l-.58.06-.58.07-.48.09a12.58,12.58,0,0,0-2.12.61l-.44.19a.88.88,0,0,0-.22.1c-.16.07-.33.15-.49.24l0,0-.54.29A13.74,13.74,0,0,0,968.43,914.75Z" transform="translate(-410.32 -438.92)"/></g><path class="cls-32" d="M975.12,953a33.92,33.92,0,0,0,3,4.77,24.67,24.67,0,0,0,12.31,9,233.39,233.39,0,0,1,26.7,10.16c5.08.64,10.47,1.22,16.13,1.73,1.69.16,3.41.31,5.15.45,2.9.24,5.85.46,8.87.66-1-5-4-10.88-8.55-16.93-7.52-10-23.2-25.58-55.2-43-3.79-2.06-4.94-1.49-5.7-1.12C970.87,922.23,967.89,939.15,975.12,953Z" transform="translate(-410.32 -438.92)"/><path class="cls-31" d="M1017.7,961.5a169.21,169.21,0,0,0-16.58-11,15.84,15.84,0,0,0-3.86-1.82c-.44,0-.49,0-.35-.1-.65,2.6,1.11,6.32,3,8.59,4.37,4.41,10.49,8,15.89,11.42a129.55,129.55,0,0,0,17.74,9.26.9.9,0,0,1-.53,1.71c-9.93-2.84-19.06-7.69-27.83-13.05-6.11-3.66-12.88-9.13-12.86-17.16.15-5.11,4.51-6.38,8.73-4A60.56,60.56,0,0,1,1019,960.25a.9.9,0,0,1-1.28,1.25Z" transform="translate(-410.32 -438.92)"/><path class="cls-31" d="M1038.08,978.48c5.82-4.59-30-33.52-34.84-37-3.61-2.71-7.33-5.29-11.13-7.64-2.7-1.49-5.33-3.48-8.4-3.57-3.89.64-.69,10.64,0,13.39a123.82,123.82,0,0,0,4.76,12.71.77.77,0,0,1-1.39.67c-3.17-6.18-6.06-12.53-7.63-19.35-3.84-21.14,18.5-4.47,25.89.89,11,8.29,21.9,17.05,30.49,28,2.16,3.07,8.07,10.67,2.85,13.33a.77.77,0,0,1-.65-1.39Z" transform="translate(-410.32 -438.92)"/><path class="cls-3" d="M1060.08,983.07l-3.25-.17-5.18-.29-4.53-.29c-3-.2-6-.42-8.91-.66-1.76-.14-3.48-.29-5.18-.45-5.63-.51-11.09-1.09-16.21-1.74-13.88-1.75-25.27-3.9-33.87-6.4l-.3-.11a37.25,37.25,0,0,1-16.38-14.08c-9.79-15.11-9.55-37,.5-46a14.91,14.91,0,0,1,2.57-1.87c.21-.13.42-.24.64-.36l.2-.1.39-.19.43-.19.4-.16a14.53,14.53,0,0,1,2.57-.75l.77-.13.52-.07.66-.06h.24l.46,0h.89c.33,0,.67,0,1,.06.5,0,1,.1,1.54.19l.05,0,1.13.27h0l1.87.42v.1l.31.09c.42.15.81.29,1.18.44a30,30,0,0,1,3.58,1.66,277.22,277.22,0,0,1,33,20.83l2.75,2.09,1.76,1.38,2.56,2.07.8.67c1.39,1.15,2.71,2.28,4,3.4l1.48,1.34c2.37,2.16,4.64,4.36,6.76,6.57l.6.64A87.42,87.42,0,0,1,1054.61,968c.42.73.8,1.46,1.17,2.17l.28.56c.44.89.84,1.77,1.21,2.64.29.7.56,1.38.81,2,.36,1,.67,2,.94,2.92l.57,2-.09,0ZM984.5,968.32c8.33,2.41,19.41,4.49,32.94,6.19,5.07.64,10.47,1.22,16,1.73l5.12.44c2.89.23,5.83.45,8.84.66l4.49.28,1.66.09c-.07-.2-.14-.4-.22-.6-.21-.6-.46-1.2-.72-1.83-.38-.91-.83-1.86-1.33-2.84l-.16-.31c-.29-.56-.59-1.12-.91-1.69a82.86,82.86,0,0,0-12-15.84l-.62-.65c-2-2.09-4.19-4.22-6.47-6.29l-1.45-1.3c-1.22-1.08-2.5-2.18-3.82-3.28l-.83-.68c-.79-.66-1.62-1.33-2.47-2l-1.73-1.35c-.86-.67-1.76-1.35-2.68-2a269.53,269.53,0,0,0-32.35-20.44,25.86,25.86,0,0,0-3-1.4l-1-.35-.67-.21-.27.2-1.12-.55a15.51,15.51,0,0,0-1.72-.25l-.71,0h-.29l-2.18.2a10.24,10.24,0,0,0-1.67.49l-.54.23-.38.18-.14.08-.34.19a10.87,10.87,0,0,0-1.74,1.27c-7.41,6.61-8.86,25.32.36,39.55h0A31.91,31.91,0,0,0,984.5,968.32Z" transform="translate(-410.32 -438.92)"/><path class="cls-4" d="M1240,996.87c39.35,25.66,10.75,90.08-34.24,96.11-26.14-12.93-29.79-37.87-12.06-58a27.21,27.21,0,0,1,12.07-8.17c6.19-1.95,13.11-1.65,21,1.48C1232.59,1017.81,1237.28,1007.31,1240,996.87Z" transform="translate(-410.32 -438.92)"/><path class="cls-1" d="M1187,1047c-.15-.56-.28-1.13-.39-1.7-8.86,17.72-2.73,36.87,19.09,47.66,31.12-4.17,54.39-36.28,52.76-64.18a68.35,68.35,0,0,1-28.06,34.81C1213.94,1073.68,1191.88,1065.7,1187,1047Z" transform="translate(-410.32 -438.92)"/><path class="cls-3" d="M1205.71,1096.31a3.28,3.28,0,0,1-1.47-.35c-13.32-6.58-21.93-16.67-24.24-28.42s1.67-24,11.15-34.72a30.51,30.51,0,0,1,13.57-9.15c6.34-2,13.19-1.8,20.41.56,5.57-10.22,9.37-19.47,11.59-28.19a3.33,3.33,0,0,1,5-2c16.61,10.83,23.42,29.07,18.68,50-5.2,23-25.52,48.31-54.3,52.17A3.15,3.15,0,0,1,1205.71,1096.31Zm8-67.36a23.11,23.11,0,0,0-7,1.08,23.92,23.92,0,0,0-10.58,7.2c-8.08,9.15-11.49,19.46-9.61,29s8.85,17.64,19.75,23.28c25.23-3.9,43-26.4,47.67-46.89,3.71-16.41-.69-30.83-12.1-40.25a141.9,141.9,0,0,1-12.28,27.57,3.32,3.32,0,0,1-4.14,1.46A31.43,31.43,0,0,0,1213.76,1029Z" transform="translate(-410.32 -438.92)"/><path class="cls-3" d="M1223.26,1023.92a36.43,36.43,0,0,1,19.41,15.26,114.08,114.08,0,0,0-21.38-9.16c-3.89-1.41-2-7.24,2-6.1Z" transform="translate(-410.32 -438.92)"/><path class="cls-4" d="M1206.25,1099.06c0,1.3-.07,2.61-.12,3.93-1.35,31-11.74,63.62-28.79,86.65-7,9.51-15.18,17.37-24.31,22.76a36.77,36.77,0,0,1-7.12,3.25,39.61,39.61,0,0,1-31.07-2.73c-25.38-13.49-52-37.9-80.31-52.19-58.28,6.66-103.24,5-134.88-48.28l48.29-25c21.65-16.7,43.48-29.12,66-35,38.1-10,78.06-1.42,122.19,36.71,18.13-15.33,40-26.39,59.13-12.62A27,27,0,0,1,1206.25,1099.06Z" transform="translate(-410.32 -438.92)"/><path class="cls-1" d="M1177.34,1189.64c-7,9.51-15.18,17.37-24.31,22.76a36.77,36.77,0,0,1-7.12,3.25,39.61,39.61,0,0,1-31.07-2.73c-25.38-13.49-52-37.9-80.31-52.19-58.28,6.66-103.24,5-134.88-48.28l48.29-25c21.65-16.7,43.48-29.12,66-35-12.73,4.86-25.54,11.07-34,21.71s-11.55,27.14-3.49,38.32c9.77,13.52,29.29,13.62,45.69,16.7,22.87,4.29,43.46,16.75,61.84,31s36.55,31.34,59.56,34.92A56.9,56.9,0,0,0,1177.34,1189.64Z" transform="translate(-410.32 -438.92)"/><path class="cls-3" d="M903.23,1110.32c30.52,52.11,76.75,52.54,130.83,46.28a4,4,0,0,1,2.34.42c30.73,15.4,54.47,39.39,84.19,54,17.94,7,33-1.4,45.44-14.36s21-29.5,26.88-46.4a171.38,171.38,0,0,0,8.73-42.6,98.84,98.84,0,0,0,.4-10.6,23.2,23.2,0,0,0-14.51-20.13c-17.46-7.72-35.47,4.49-48.73,15.41a4.24,4.24,0,0,1-5.42,0c-6.56-5.48-13.27-10.74-20.29-15.52-36.63-25.58-78.25-32.47-119.77-14-15.76,6.62-30.62,15.48-45.38,24.76a173.83,173.83,0,0,1,43.11-29.82c42.93-20.94,88.1-15,126.81,12.08a223.73,223.73,0,0,1,21,16.25s-5.48,0-5.39,0c17.76-15.14,42.5-28.45,64.3-12.75a31.06,31.06,0,0,1,12.62,23.33,99.41,99.41,0,0,1-.41,11.71,177,177,0,0,1-15.57,60.64c-13.19,28.34-41.7,63.81-76.81,49.86-30.5-14.59-54.92-39.32-84.91-54.28l2.35.42c-25.83,2.79-52.36,5.09-78-1.56-26.2-6.32-47.65-25.91-60.9-48.74-2.66-4.76,4.19-9,7.15-4.25Z" transform="translate(-410.32 -438.92)"/><path class="cls-3" d="M1147.67,1085.43c-10.62,8-19.75,18-25.56,30.08a102,102,0,0,0-5.16,12.75,63,63,0,0,1,6.82-27.48,60.54,60.54,0,0,1,19-22.06c4.48-3,9.1,3.36,4.9,6.71Z" transform="translate(-410.32 -438.92)"/><path class="cls-3" d="M1038.79,1167.13a4.17,4.17,0,0,1-4.15-3.89c-3.49-52.16,22.11-105.3,52.67-109.35a4.16,4.16,0,1,1,1.09,8.25c-23.42,3.1-48.92,48.65-45.45,100.55a4.16,4.16,0,0,1-3.88,4.43Z" transform="translate(-410.32 -438.92)"/><path class="cls-5" d="M1206.13,1103c-1.91,43.72-21.86,90.91-53.1,109.41a36.77,36.77,0,0,1-7.12,3.25C1092.07,1218.06,1201.77,1038.53,1206.13,1103Z" transform="translate(-410.32 -438.92)"/><path class="cls-3" d="M1144.88,1219.83c-10.79,0-17.3-6.69-17.91-18.54-1.82-34.5,46.64-115,70.06-116.42,4.48-.27,12.16,1.69,13.26,17.84a3.53,3.53,0,0,1,0,.46c-2.12,48.45-24.79,94.84-55.14,112.81a40.85,40.85,0,0,1-7.94,3.62,4.26,4.26,0,0,1-1.12.21Zm52.79-126.65h-.14c-6.61.4-21.79,15-38,42.07-15.45,25.8-25,51.55-24.22,65.61.49,9.37,5.11,10.76,9.87,10.65a32.4,32.4,0,0,0,5.76-2.69c28-16.59,49-60.06,51-105.78C1201.69,1099.23,1200.76,1093.18,1197.67,1093.18Z" transform="translate(-410.32 -438.92)"/><path class="cls-3" d="M1205.1,1113.1a4.37,4.37,0,0,1-1.07-.14l-26.54-7a4.16,4.16,0,1,1,2.13-8l26.53,7a4.16,4.16,0,0,1-1.05,8.19Z" transform="translate(-410.32 -438.92)"/><path class="cls-3" d="M1202.16,1134.6a4.07,4.07,0,0,1-.9-.1l-38.44-8.47a4.16,4.16,0,1,1,1.79-8.13l38.45,8.47a4.16,4.16,0,0,1-.9,8.23Z" transform="translate(-410.32 -438.92)"/><path class="cls-3" d="M1195.54,1159.44a4,4,0,0,1-1-.12l-46-10.9a4.17,4.17,0,0,1,1.92-8.11l46,10.91a4.17,4.17,0,0,1-1,8.22Z" transform="translate(-410.32 -438.92)"/><path class="cls-3" d="M1187,1177.93a3.81,3.81,0,0,1-.75-.07l-47.29-8.57a4.16,4.16,0,1,1,1.48-8.19l47.29,8.57a4.16,4.16,0,0,1-.73,8.26Z" transform="translate(-410.32 -438.92)"/><path class="cls-3" d="M1173.57,1197.37a4.87,4.87,0,0,1-.65,0L1132,1191a4.16,4.16,0,0,1,1.28-8.23l40.93,6.37a4.16,4.16,0,0,1-.63,8.28Z" transform="translate(-410.32 -438.92)"/><path class="cls-4" d="M870.52,920.13c26.08-14.32,49.57-33.81,72-55.47A62.88,62.88,0,0,0,954.21,849c16.1-30.23,43.14-44.7,80.07-45.53a46,46,0,0,1,27,7.71c7.55,5.15,12.23,11.74,12.5,18,.27,6-5.8,10.41-11.63,8.75a84.11,84.11,0,0,0-15.11-2.75c30,40,14.88,78.92-6.66,59.94,0,11.41-8.33,23.31-26.65,31.64-28.66,30.86-56.94,61-93.2,73.77-35.83,12.62-74.75-10.08-79.94-47.7a79.11,79.11,0,0,1,0-21.08c.93,5.29,2.91,6.9,4.17,7.49C850.1,941.82,860.32,934.23,870.52,920.13Z" transform="translate(-410.32 -438.92)"/><path class="cls-1" d="M1030.37,875.17c0,11.41-8.33,23.31-26.65,31.64-28.66,30.86-56.94,61-93.2,73.77a60.81,60.81,0,0,1-68.3-19.87c9.14,32.84,45,51.57,78.29,39.85,36.26-12.78,64.54-42.91,93.2-73.77,18.32-8.33,26.62-20.23,26.65-31.64,20.68,18.22,35.38-17,10-55.16C1060.28,869.11,1047.34,890.12,1030.37,875.17Z" transform="translate(-410.32 -438.92)"/><path class="cls-1" d="M1063.21,812.62c3.09,3.75,10.52,13.26,8,16.76-.88,1.2-3,1.72-11.66,0-19.13-3.79-25.79-9.61-33.3-6.66-2.2.86-5.45,2.87-8.32,8.32a42.44,42.44,0,0,1,20,0,41.28,41.28,0,0,1,10.77,4.35,83.1,83.1,0,0,1,13.5,2.57c5.83,1.66,11.9-2.7,11.63-8.75C1073.51,823.51,1069.61,817.53,1063.21,812.62Z" transform="translate(-410.32 -438.92)"/><path class="cls-3" d="M844.35,932.29c-2.8,19.17,2.63,40,17.42,53.09a57.61,57.61,0,0,0,61.06,10.17c35.9-14.26,62.06-43.71,88.07-71.38a3.76,3.76,0,0,1,1.23-.88c11.64-5.36,24-14.41,24.39-28.15a3.85,3.85,0,0,1,6.37-2.87c8.66,7.83,15,3.12,16.61-7.21,2.35-17.09-5.62-34-15.55-47.54a3.88,3.88,0,0,1,3.43-6.14,89.34,89.34,0,0,1,15.81,2.78c4.86,1.08,7.82-3.22,5.91-7.69-3.61-9.52-15.12-15.85-25-17.86-5.58-1.19-11.3-.87-17-.5-17.33,1.25-34.64,6.41-48.36,17.29a78.15,78.15,0,0,0-17.38,19.15c-4.82,8-9.33,16.44-16.4,22.77-22.36,20.54-45.4,42.22-74.42,52.81,4.55-4.32,9.23-8.17,13.89-12C898.35,896.7,912.78,886,926,873.65q6.63-6.09,13.08-12.43c6.5-6,10.25-14,14.75-21.48a84.23,84.23,0,0,1,53.77-38.11c15.72-3.18,32.73-5.6,47.93.85,9.42,4.28,18.31,11,21.82,21.3,3.88,10.36-4.63,20.91-15.57,18.43a87.94,87.94,0,0,0-15.1-3.18l3.44-6.13a92.58,92.58,0,0,1,15.28,30.26c2.71,10.37,3.81,22.14-1.17,32.08-5.91,11.36-18.14,10.56-26.38,2.79l6.38-2.87c-.09,16.81-14.92,28.91-28.9,35.12l1.23-.88c-28.34,30.12-57.51,63-98.57,75.9-21.15,6.34-45.08.62-61.36-14.24-16.6-14.69-23-38.36-19.86-59.78.82-5,8.16-4,7.61,1Z" transform="translate(-410.32 -438.92)"/><path class="cls-3" d="M1035.26,901.16c2.85-10.08-.63-20.47-8.23-27.66a25.51,25.51,0,0,1,13.29,11.22,28.53,28.53,0,0,1,3,18.28,4.17,4.17,0,1,1-8.11-1.84Z" transform="translate(-410.32 -438.92)"/><path class="cls-3" d="M1046.17,841a25.85,25.85,0,0,0-15.86-8.42c-6.4-1-13.26-.4-19.93,1,9.43-4.3,20.71-7.34,31.33-4.42a31.83,31.83,0,0,1,10.64,5.2c5.21,4.2-1.59,11.54-6.18,6.66Z" transform="translate(-410.32 -438.92)"/><path class="cls-3" d="M935.45,998.3l-.44,0c-12.78-1.35-24.26-9-33.19-22.07-13.55-19.84-18.41-48.64-12.1-71.66a4.16,4.16,0,1,1,8,2.2c-5.7,20.8-1.3,46.83,10.94,64.77,5.24,7.67,14.21,17.11,27.2,18.48a4.16,4.16,0,0,1-.44,8.3Z" transform="translate(-410.32 -438.92)"/><path class="cls-3" d="M770.6,1583.39a30.35,30.35,0,0,1-26.8-44.49l47.72-90.54a67.91,67.91,0,0,1-7.11-7.69c-7.86,2.87-15.54,2.84-22.48-.09l-.9-.4c-51.76,48.57-65.55,49.3-70.17,49.54-.42,0-.87,0-1.31,0-12.28,0-25-8.65-36.4-24.55-16.1,11.23-33.51,17.44-51.86,18.47-1.57.09-3.18.14-4.78.14-24.47,0-44.55-10.32-65.81-21.25-27.57-14.17-58.81-30.22-106.24-23.69a12.44,12.44,0,0,1-4.42-24.47c46.7-10.5,70.34-36.48,91.19-59.41,17.12-18.81,33.29-36.59,58.73-44.51,17.55-5.46,36-5.74,55.06-.86,5.28-19.41,14.8-32.42,26.72-36.18,4.4-1.38,17.58-5.52,83.08,21.83l.7-.7c5.48-5.17,12.66-7.87,21-7.94a67.58,67.58,0,0,1,4.21-10.2L682,1204a30.34,30.34,0,0,1,11.66-51.35,175.57,175.57,0,0,1,117.5,5.37l64,26.18c16.68-9.35,34.13-18,52.07-25.83-14.71-9.45-27.64-23.11-37.32-39.65-5.8.27-11.51.4-17,.4-38.42,0-66-6.35-82-18.89-7.2-5.65-13.44-15.68-18.54-29.83-1-.66-1.83-1.31-2.64-2-12.38-10.15-18.72-33.55-18.83-69.56a20.63,20.63,0,0,1,6.42-15c.27-.25.54-.5.83-.74-.51-13.26-.42-26.35.25-39,1.94-36.21,9.22-82.46,32.85-97.23,19.51-12.18,47.67-22.53,83.84-30.81-.71-.83-1.41-1.66-2.11-2.51L869,812.34a19.71,19.71,0,0,1-13.42-21.28,61.4,61.4,0,0,1-27.9-12c-23.1-9.91-39.91-39.41-41-72.22-.62-18.64,3.75-36.35,12.33-50a81,81,0,0,1,17-26,66,66,0,0,1,8.07-7c1.44-7.31,3.25-14.56,5.36-21.59C847.18,543.48,887.19,495.05,942.09,466a233.39,233.39,0,0,1,67.66-23.37c2.49-.48,5.19-.92,8.18-1.34,7.19-1,14.53-1.76,21.77-2.13a237,237,0,0,1,98,16.07c5,2,9.88,4.07,14.56,6.28A232.53,232.53,0,0,1,1256.88,560a225.56,225.56,0,0,1,8.87,199.61,228.36,228.36,0,0,1-71.94,91,236.53,236.53,0,0,1-20.62,13.86c-2.64,1.59-5.47,3.2-8.59,4.9l5,2.68a14.6,14.6,0,0,1,6.76,18l-.12.29a6.78,6.78,0,0,0-1.25,4c0,.08,0,.15,0,.23l-.08.3a14.18,14.18,0,0,1-6.87,9,14.56,14.56,0,0,1-6.27,1.84c.12,1.77.21,3.56.28,5.37,18.41-11,39.56-12.35,52.21-2.43a26.28,26.28,0,0,1,2.42,2.16c6,5.9,9.75,14.76,10.16,24.24,0,.72,0,1.44,0,2.16,13,4.05,27.21,10.77,28,23.29l0,.29v.3h0a107.73,107.73,0,0,1-.23,14.64,136.45,136.45,0,0,1-2.45,17.05,49.2,49.2,0,0,1,16.34,29.25c10.28,6.37,16.67,16.93,17,28.39v.25c0,1.6,0,3.2-.12,4.79,0,0,0,.08,0,.12a10.74,10.74,0,0,1,0,1.27,162.59,162.59,0,0,1-8.73,44.57c13.64.89,27,2.17,39.85,3.81.23,0,.46,0,.68.06,119,15.38,180.7,58.45,201.67,76.25,15.63,13.13,25.75,26.11,29.25,37.52l.09.29c.12.39.23.81.34,1.22.17.63.31,1.26.43,1.87,0,.15.07.31.1.45s0,.25.05.38c.1.56.19,1.25.26,2,0,.41.08.83.11,1.27,0,0,0,.26,0,.3l-7.43.51,7.44-.42c.68,11.86-4.23,27.47-14.19,45.14-13.37,24-56,86-162.27,142.22-.18.1-.4.2-.63.3-66.24,34.93-144.53,60.72-232.72,76.68a663,663,0,0,1-117.59,10.75,598.87,598.87,0,0,1-92.09-7l-49.12,44A175.64,175.64,0,0,1,772,1583.36Zm22.58-156a52.57,52.57,0,0,0,12.25,13.28,7.45,7.45,0,0,1,2.06,9.38L757,1545.85a15.3,15.3,0,0,0,.62,15.48,15.12,15.12,0,0,0,13.75,7.15A160.63,160.63,0,0,0,871,1527.77l51.76-46.37a7.48,7.48,0,0,1,6.17-1.81,581.91,581.91,0,0,0,93.22,7.42,648.17,648.17,0,0,0,114.93-10.51c86.86-15.72,163.83-41.08,228.79-75.4l.43-.21.21-.09c102.47-54.28,143.13-113.27,155.86-136.13,8.33-14.78,12.81-28.26,12.31-37a2.16,2.16,0,0,0,0-.28c0-.29,0-.5-.05-.72q-.06-.56-.15-1.08s0-.1,0-.16a2.07,2.07,0,0,1,0-.22c0-.22-.13-.57-.23-.92s-.12-.47-.19-.7l0-.18c-2.6-8.46-11.57-19.57-24.63-30.55-20-16.95-78.73-57.9-193.62-72.81l-.26,0-.37,0c-15.79-2-32.39-3.49-49.34-4.35a7.44,7.44,0,0,1-6.48-10.35,146.85,146.85,0,0,0,11.32-49l0-.21a6.94,6.94,0,0,1,0-.79c.07-1.55.11-3.1.13-4.65-.23-7.12-4.89-13.71-12.19-17.24a7.46,7.46,0,0,1-4.17-6,35.31,35.31,0,0,0-14.73-25.76,7.45,7.45,0,0,1-2.84-7.79,120.89,120.89,0,0,0,3.12-19.31,92.79,92.79,0,0,0,.21-12.63v-.07c0-.12,0-.24,0-.36h0c-.06-1.54-4.32-6.65-23-11.65a7.45,7.45,0,0,1-5.42-8.46,26.89,26.89,0,0,0,.38-5.71c-.25-5.66-2.41-11-5.77-14.31a13.27,13.27,0,0,0-1.13-1c-9-7.09-28-3.33-42.31,8.37-1,.8-1.92,1.64-2.91,2.58a7.44,7.44,0,0,1-12.58-5.55,206,206,0,0,0-1.22-28.64,7.46,7.46,0,0,1,9.69-8l4.61,1.49a7.46,7.46,0,0,1,1.86-5.66l-17.27-9.27a7.44,7.44,0,0,1,.39-13.31c4-1.85,7.24-3.45,10.23-5,3.71-2,7-3.84,10-5.66a221.1,221.1,0,0,0,19.33-13,213.5,213.5,0,0,0,67.23-85,210.75,210.75,0,0,0-8.3-186.52,216.18,216.18,0,0,0-78.16-81.56,219.48,219.48,0,0,0-19.7-10.57c-4.37-2.07-9-4.05-13.63-5.88a221.87,221.87,0,0,0-91.86-15.05c-6.78.34-13.65,1-20.42,2-2.79.39-5.25.79-7.57,1.23A218.64,218.64,0,0,0,949,479.21c-51.35,27.14-88.76,72.41-105.35,127.49a215.92,215.92,0,0,0-5.56,23,7.43,7.43,0,0,1-3.25,4.88,51.52,51.52,0,0,0-8.3,6.81,66.45,66.45,0,0,0-14.07,21.76,7.87,7.87,0,0,1-.64,1.22c-7.09,11-10.86,26.3-10.33,42,.91,27.12,14.65,52.07,32.66,59.31a7.61,7.61,0,0,1,1.77,1c7.8,6,16.51,9.47,25.19,10a7.44,7.44,0,0,1,5.89,3.49q1.47,2.36,3,4.65a7.45,7.45,0,0,1,.67,7,4.24,4.24,0,0,0-.23.59,4.88,4.88,0,0,0,3.08,5.79l6,1.94a7.47,7.47,0,0,1,3.48,2.37c3.79,4.63,7.66,9,11.52,13A7.45,7.45,0,0,1,890.71,828c-40.58,8.34-71.4,19-91.62,31.6-14,8.75-23.43,39.87-25.87,85.39a416.81,416.81,0,0,0-.07,41.7,7.43,7.43,0,0,1-4.22,7.06,5.65,5.65,0,0,0-3.19,5.11c.1,30,5,51.2,13.38,58.09a27,27,0,0,0,3.21,2.22,7.39,7.39,0,0,1,3.21,4c5.38,15.81,10.87,22.54,14.52,25.41,13.09,10.28,38.26,15.71,72.78,15.71,6.71,0,13.72-.21,20.83-.63a7.48,7.48,0,0,1,6.92,3.78c.56,1,1.12,2,1.69,3a8.53,8.53,0,0,1,.44.85v0c11.08,19,27,33.58,44.69,41.1a7.44,7.44,0,0,1-.11,13.75,575.78,575.78,0,0,0-68,32.88,7.47,7.47,0,0,1-6.5.42l-67.35-27.55a160.63,160.63,0,0,0-107.5-4.91A15.44,15.44,0,0,0,692,1193l83.16,76.48a7.44,7.44,0,0,1,1.25,9.47,52.4,52.4,0,0,0-7,17,.43.43,0,0,1,0,0,7.47,7.47,0,0,1-8.33,5.77c-6.75-1-11.76.2-15.33,3.57a15.58,15.58,0,0,0-2.38,2.95,7.45,7.45,0,0,1-9.17,2.82c-61.83-26.28-75.81-24.2-78-23.52-6.17,1.95-14.26,11.58-18.43,32.76a7.44,7.44,0,0,1-9.63,5.64c-18.75-6.16-36.85-6.61-53.78-1.35-21.57,6.72-36.41,23-52.13,40.31-18.86,20.74-39.84,43.81-76.8,57.43h.76c39,0,66.52,14.14,91.28,26.87,20.85,10.71,40.36,20.79,63,19.49,17.7-1,34.48-7.75,49.9-20.09a7.45,7.45,0,0,1,11,1.91c11,17.87,21.79,24.23,28.21,24.23h.53c2.28-.12,16.11-3.06,64.8-49.35a7.46,7.46,0,0,1,9.58-.57,15.93,15.93,0,0,0,3.26,1.93c4.56,1.92,9.66,1.22,15.6-2a7.46,7.46,0,0,1,9.86,2.52Zm-370.75-3.23h0ZM1534.5,1225.83v0Zm-264-169.84h0ZM1160.39,891.3a.08.08,0,0,1,0,0Z" transform="translate(-410.32 -438.92)"/></svg>