<svg id="Layer_6" data-name="Layer 6" xmlns="http://www.w3.org/2000/svg" xmlns:xlink="http://www.w3.org/1999/xlink" viewBox="0 0 897.81 1009.77"><defs><style>.cls-1{fill:none;}.cls-2{clip-path:url(#clip-path);}.cls-3{fill:#ec1c24;}.cls-4{fill:#ec1d24;}.cls-5{fill:#ec1e24;}.cls-6{fill:#ec1f24;}.cls-7{fill:#ec2024;}.cls-8{fill:#ed2124;}.cls-9{fill:#ed2224;}.cls-10{fill:#ed2324;}.cls-11{fill:#ed2424;}.cls-12{fill:#ed2524;}.cls-13{fill:#ed2624;}.cls-14{fill:#ed2724;}.cls-15{fill:#ed2824;}.cls-16{fill:#ed2924;}.cls-17{fill:#ed2a24;}.cls-18{fill:#ee2a24;}.cls-19{fill:#ee2b24;}.cls-20{fill:#ee2c24;}.cls-21{fill:#ee2d24;}.cls-22{fill:#ee2e24;}.cls-23{fill:#ee2f24;}.cls-24{fill:#ee3024;}.cls-25{fill:#ee3124;}.cls-26{fill:#ee3224;}.cls-27{fill:#ee3225;}.cls-28{fill:#ef3325;}.cls-29{fill:#ef3425;}.cls-30{fill:#ef3525;}.cls-31{fill:#ef3625;}.cls-32{fill:#ef3725;}.cls-33{fill:#ef3825;}.cls-34{fill:#ef3925;}.cls-35{fill:#ef3a25;}.cls-36{fill:#ef3b25;}.cls-37{fill:#ef3c25;}.cls-38{fill:#f03d25;}.cls-39{fill:#f03e25;}.cls-40{fill:#f03f25;}.cls-41{fill:#f04025;}.cls-42{fill:#f04125;}.cls-43{fill:#f04225;}.cls-44{fill:#f04325;}.cls-45{fill:#f04425;}.cls-46{fill:#f04525;}.cls-47{fill:#f14625;}.cls-48{fill:#f14725;}.cls-49{fill:#f14825;}.cls-50{fill:#f14925;}.cls-51{fill:#f14a25;}.cls-52{fill:#f14b25;}.cls-53{fill:#f14c25;}.cls-54{fill:#f14d25;}.cls-55{fill:#f14e25;}.cls-56{fill:#f24f25;}.cls-57{fill:#f25025;}.cls-58{fill:#f25125;}.cls-59{fill:#f25225;}.cls-60{fill:#f25325;}.cls-61{fill:#f25425;}.cls-62{fill:#f25525;}.cls-63{fill:#f25625;}.cls-64{fill:#f25725;}.cls-65{fill:#f35825;}.cls-66{fill:#f35925;}.cls-67{fill:#f35a25;}.cls-68{fill:#f35c25;}.cls-69{fill:#f35d25;}.cls-70{fill:#f35e26;}.cls-71{fill:#f35f26;}.cls-72{fill:#f36026;}.cls-73{fill:#f46126;}.cls-74{fill:#f46226;}.cls-75{fill:#f46426;}.cls-76{fill:#f46526;}.cls-77{fill:#f46626;}.cls-78{fill:#f46726;}.cls-79{fill:#f46826;}.cls-80{fill:#f46a26;}.cls-81{fill:#f56b26;}.cls-82{fill:#f56c26;}.cls-83{fill:#f56d26;}.cls-84{fill:#f56f26;}.cls-85{fill:#f57026;}.cls-86{fill:#f57126;}.cls-87{fill:#f57226;}.cls-88{fill:#f67426;}.cls-89{fill:#f67526;}.cls-90{fill:#f67626;}.cls-91{fill:#f67726;}.cls-92{fill:#f67926;}.cls-93{fill:#f67a26;}.cls-94{fill:#f67b26;}.cls-95{fill:#f77d26;}.cls-96{fill:#f77e26;}.cls-97{fill:#f77f26;}.cls-98{fill:#f78126;}.cls-99{fill:#f78226;}.cls-100{fill:#f78426;}.cls-101{fill:#f78526;}.cls-102{fill:#f88626;}.cls-103{fill:#f88826;}.cls-104{fill:#f88927;}.cls-105{fill:#f88a27;}.cls-106{fill:#f88c27;}.cls-107{fill:#f88d27;}.cls-108{fill:#f98f27;}.cls-109{fill:#f99027;}.cls-110{fill:#f99227;}.cls-111{fill:#f99327;}.cls-112{fill:#f99427;}.cls-113{fill:#f99627;}.cls-114{fill:#f99727;}.cls-115{fill:#fa9927;}.cls-116{fill:#fa9a27;}.cls-117{fill:#fa9c27;}.cls-118{fill:#fa9d27;}.cls-119{fill:#fa9f27;}.cls-120{fill:#faa027;}.cls-121{fill:#fba227;}.cls-122{fill:#fba327;}.cls-123{fill:#fba527;}.cls-124{fill:#fba627;}.cls-125{fill:#fba827;}.cls-126{fill:#fbaa27;}.cls-127{fill:#fcab27;}.cls-128{fill:#fcad27;}.cls-129{fill:#fcae27;}.cls-130{fill:#fcb027;}.cls-131{fill:#fcb127;}.cls-132{fill:#fcb327;}.cls-133{fill:#fdb528;}.cls-134{fill:#fdb628;}.cls-135{fill:#fdb828;}.cls-136{fill:#fdb928;}.cls-137{fill:#fdbb28;}.cls-138{fill:#febd28;}.cls-139{fill:#febe28;}.cls-140{fill:#fec028;}.cls-141{fill:#fec228;}.cls-142{fill:#fec328;}.cls-143{fill:#fec528;}.cls-144{fill:#ffc728;}.cls-145{fill:#ffc828;}.cls-146{fill:#ffca28;}.cls-147{opacity:0.5;}.cls-148{fill:#fff;}.cls-149{opacity:0.3;}.cls-150{fill:#371a45;}.cls-151{fill:#ffd553;}.cls-152{opacity:0.25;}.cls-153{opacity:0.35;}.cls-154{fill:#0af;}.cls-155{opacity:0.6;}.cls-156{fill:#d25658;}.cls-157{fill:#6bd6f0;}.cls-158{opacity:0.2;}.cls-159{opacity:0.7;}.cls-160{fill:#111a28;}.cls-161{fill:#22a7f0;}</style><clipPath id="clip-path" transform="translate(-591.99 -376.3)"><path class="cls-1" d="M600.79,1320.62c106-46,140,27.37,207.23-1.8s50-107.1,50-107.1-45.12-65.84-112.34-36.66S706.8,1274.61,600.79,1320.62Z"/></clipPath></defs><g class="cls-2"><polygon class="cls-3" points="8.8 944.32 23.36 971.7 8.8 971.7 8.8 944.32"/><polygon class="cls-3" points="8.8 940.92 25.17 971.7 23.36 971.7 8.8 944.32 8.8 940.92"/><polygon class="cls-3" points="8.8 937.51 26.98 971.7 25.17 971.7 8.8 940.92 8.8 937.51"/><polygon class="cls-3" points="8.8 934.11 28.79 971.7 26.98 971.7 8.8 937.51 8.8 934.11"/><polygon class="cls-3" points="8.8 930.7 30.6 971.7 28.79 971.7 8.8 934.11 8.8 930.7"/><polygon class="cls-3" points="8.8 927.29 32.41 971.7 30.6 971.7 8.8 930.7 8.8 927.29"/><polygon class="cls-3" points="8.8 923.89 34.23 971.7 32.41 971.7 8.8 927.29 8.8 923.89"/><polygon class="cls-4" points="8.8 920.48 36.04 971.7 34.23 971.7 8.8 923.89 8.8 920.48"/><polygon class="cls-4" points="8.8 917.08 37.85 971.7 36.04 971.7 8.8 920.48 8.8 917.08"/><polygon class="cls-4" points="8.8 913.67 39.66 971.7 37.85 971.7 8.8 917.08 8.8 913.67"/><polygon class="cls-4" points="8.8 910.27 41.47 971.7 39.66 971.7 8.8 913.67 8.8 910.27"/><polygon class="cls-4" points="8.8 906.86 43.28 971.7 41.47 971.7 8.8 910.27 8.8 906.86"/><polygon class="cls-5" points="8.8 903.46 45.09 971.7 43.28 971.7 8.8 906.86 8.8 903.46"/><polygon class="cls-5" points="8.8 900.05 46.9 971.7 45.09 971.7 8.8 903.46 8.8 900.05"/><polygon class="cls-5" points="8.8 896.65 48.71 971.7 46.9 971.7 8.8 900.05 8.8 896.65"/><polygon class="cls-6" points="8.8 893.24 50.52 971.7 48.71 971.7 8.8 896.65 8.8 893.24"/><polygon class="cls-6" points="8.8 889.84 52.33 971.7 50.52 971.7 8.8 893.24 8.8 889.84"/><polygon class="cls-6" points="8.8 886.43 54.15 971.7 52.33 971.7 8.8 889.84 8.8 886.43"/><polygon class="cls-7" points="8.8 883.02 55.96 971.7 54.15 971.7 8.8 886.43 8.8 883.02"/><polygon class="cls-7" points="8.8 879.62 57.77 971.7 55.96 971.7 8.8 883.02 8.8 879.62"/><polygon class="cls-7" points="8.8 876.22 59.58 971.7 57.77 971.7 8.8 879.62 8.8 876.22"/><polygon class="cls-8" points="8.8 872.81 61.39 971.7 59.58 971.7 8.8 876.22 8.8 872.81"/><polygon class="cls-8" points="8.8 869.4 63.2 971.7 61.39 971.7 8.8 872.81 8.8 869.4"/><polygon class="cls-8" points="8.8 866 65.01 971.7 63.2 971.7 8.8 869.4 8.8 866"/><polygon class="cls-9" points="8.8 865.26 9.91 864.67 66.82 971.7 65.01 971.7 8.8 866 8.8 865.26"/><polygon class="cls-9" points="9.91 864.67 11.32 863.92 68.63 971.7 66.82 971.7 9.91 864.67"/><polygon class="cls-10" points="11.32 863.92 12.73 863.17 70.44 971.7 68.63 971.7 11.32 863.92"/><polygon class="cls-10" points="12.73 863.17 14.14 862.42 72.25 971.7 70.44 971.7 12.73 863.17"/><polygon class="cls-11" points="14.14 862.42 15.55 861.67 74.06 971.7 72.25 971.7 14.14 862.42"/><polygon class="cls-11" points="15.55 861.67 16.97 860.92 75.88 971.7 74.06 971.7 15.55 861.67"/><polygon class="cls-12" points="16.97 860.92 18.38 860.17 77.69 971.7 75.88 971.7 16.97 860.92"/><polygon class="cls-12" points="18.38 860.17 19.79 859.42 79.5 971.7 77.69 971.7 18.38 860.17"/><polygon class="cls-13" points="19.79 859.42 21.2 858.66 81.31 971.7 79.5 971.7 19.79 859.42"/><polygon class="cls-13" points="21.2 858.66 22.61 857.91 83.12 971.7 81.31 971.7 21.2 858.66"/><polygon class="cls-14" points="22.61 857.91 24.02 857.16 84.93 971.7 83.12 971.7 22.61 857.91"/><polygon class="cls-14" points="24.02 857.16 25.44 856.41 86.74 971.7 84.93 971.7 24.02 857.16"/><polygon class="cls-15" points="25.44 856.41 26.85 855.66 88.55 971.7 86.74 971.7 25.44 856.41"/><polygon class="cls-15" points="26.85 855.66 28.26 854.91 90.36 971.7 88.55 971.7 26.85 855.66"/><polygon class="cls-16" points="28.26 854.91 29.67 854.16 92.17 971.7 90.36 971.7 28.26 854.91"/><polygon class="cls-17" points="29.67 854.16 31.08 853.41 93.98 971.7 92.17 971.7 29.67 854.16"/><polygon class="cls-18" points="31.08 853.41 32.49 852.66 95.79 971.7 93.98 971.7 31.08 853.41"/><polygon class="cls-19" points="32.49 852.66 33.91 851.91 97.6 971.7 95.79 971.7 32.49 852.66"/><polygon class="cls-19" points="33.91 851.91 35.32 851.16 99.42 971.7 97.6 971.7 33.91 851.91"/><polygon class="cls-20" points="35.32 851.16 36.73 850.41 101.23 971.7 99.42 971.7 35.32 851.16"/><polygon class="cls-21" points="36.73 850.41 38.14 849.66 103.04 971.7 101.23 971.7 36.73 850.41"/><polygon class="cls-21" points="38.14 849.66 39.55 848.91 104.85 971.7 103.04 971.7 38.14 849.66"/><polygon class="cls-22" points="39.55 848.91 40.97 848.16 106.66 971.7 104.85 971.7 39.55 848.91"/><polygon class="cls-23" points="40.97 848.16 42.38 847.4 108.47 971.7 106.66 971.7 40.97 848.16"/><polygon class="cls-23" points="42.38 847.4 43.79 846.65 110.28 971.7 108.47 971.7 42.38 847.4"/><polygon class="cls-24" points="43.79 846.65 45.2 845.9 112.09 971.7 110.28 971.7 43.79 846.65"/><polygon class="cls-25" points="45.2 845.9 46.61 845.15 113.9 971.7 112.09 971.7 45.2 845.9"/><polygon class="cls-26" points="46.61 845.15 48.02 844.4 115.71 971.7 113.9 971.7 46.61 845.15"/><polygon class="cls-27" points="48.02 844.4 49.44 843.65 117.52 971.7 115.71 971.7 48.02 844.4"/><polygon class="cls-28" points="49.44 843.65 50.85 842.9 119.33 971.7 117.52 971.7 49.44 843.65"/><polygon class="cls-29" points="50.85 842.9 52.26 842.15 121.14 971.7 119.33 971.7 50.85 842.9"/><polygon class="cls-30" points="52.26 842.15 53.67 841.4 122.96 971.7 121.14 971.7 52.26 842.15"/><polygon class="cls-30" points="53.67 841.4 55.08 840.65 124.77 971.7 122.96 971.7 53.67 841.4"/><polygon class="cls-31" points="55.08 840.65 56.49 839.9 126.58 971.7 124.77 971.7 55.08 840.65"/><polygon class="cls-32" points="56.49 839.9 57.91 839.15 128.39 971.7 126.58 971.7 56.49 839.9"/><polygon class="cls-33" points="57.91 839.15 59.32 838.4 130.2 971.7 128.39 971.7 57.91 839.15"/><polygon class="cls-34" points="59.32 838.4 60.73 837.65 132.01 971.7 130.2 971.7 59.32 838.4"/><polygon class="cls-34" points="60.73 837.65 62.14 836.9 133.82 971.7 132.01 971.7 60.73 837.65"/><polygon class="cls-35" points="62.14 836.9 63.55 836.14 135.63 971.7 133.82 971.7 62.14 836.9"/><polygon class="cls-36" points="63.55 836.14 64.96 835.39 137.44 971.7 135.63 971.7 63.55 836.14"/><polygon class="cls-37" points="64.96 835.39 66.37 834.64 139.25 971.7 137.44 971.7 64.96 835.39"/><polygon class="cls-38" points="66.37 834.64 67.79 833.89 141.06 971.7 139.25 971.7 66.37 834.64"/><polygon class="cls-39" points="67.79 833.89 69.2 833.14 142.88 971.7 141.06 971.7 67.79 833.89"/><polygon class="cls-39" points="69.2 833.14 70.61 832.39 144.69 971.7 142.88 971.7 69.2 833.14"/><polygon class="cls-40" points="70.61 832.39 72.02 831.64 146.5 971.7 144.69 971.7 70.61 832.39"/><polygon class="cls-41" points="72.02 831.64 73.43 830.89 148.31 971.7 146.5 971.7 72.02 831.64"/><polygon class="cls-42" points="73.43 830.89 74.84 830.14 150.12 971.7 148.31 971.7 73.43 830.89"/><polygon class="cls-43" points="74.84 830.14 76.26 829.39 151.93 971.7 150.12 971.7 74.84 830.14"/><polygon class="cls-44" points="76.26 829.39 77.67 828.64 153.74 971.7 151.93 971.7 76.26 829.39"/><polygon class="cls-45" points="77.67 828.64 79.08 827.89 155.55 971.7 153.74 971.7 77.67 828.64"/><polygon class="cls-46" points="79.08 827.89 80.49 827.14 157.36 971.7 155.55 971.7 79.08 827.89"/><polygon class="cls-47" points="80.49 827.14 81.9 826.39 159.17 971.7 157.36 971.7 80.49 827.14"/><polygon class="cls-48" points="81.9 826.39 83.31 825.64 160.98 971.7 159.17 971.7 81.9 826.39"/><polygon class="cls-49" points="83.31 825.64 84.73 824.89 162.79 971.7 160.98 971.7 83.31 825.64"/><polygon class="cls-50" points="84.73 824.89 86.14 824.13 164.6 971.7 162.79 971.7 84.73 824.89"/><polygon class="cls-51" points="86.14 824.13 87.55 823.38 166.42 971.7 164.6 971.7 86.14 824.13"/><polygon class="cls-52" points="87.55 823.38 88.96 822.63 168.23 971.7 166.42 971.7 87.55 823.38"/><polygon class="cls-53" points="88.96 822.63 90.37 821.88 170.04 971.7 168.23 971.7 88.96 822.63"/><polygon class="cls-54" points="90.37 821.88 91.78 821.13 171.85 971.7 170.04 971.7 90.37 821.88"/><polygon class="cls-55" points="91.78 821.13 93.2 820.38 173.66 971.7 171.85 971.7 91.78 821.13"/><polygon class="cls-56" points="93.2 820.38 94.61 819.63 175.47 971.7 173.66 971.7 93.2 820.38"/><polygon class="cls-57" points="94.61 819.63 96.02 818.88 177.28 971.7 175.47 971.7 94.61 819.63"/><polygon class="cls-58" points="96.02 818.88 97.43 818.13 179.09 971.7 177.28 971.7 96.02 818.88"/><polygon class="cls-59" points="97.43 818.13 98.84 817.38 180.9 971.7 179.09 971.7 97.43 818.13"/><polygon class="cls-60" points="98.84 817.38 100.25 816.63 182.32 970.96 180.94 971.7 180.9 971.7 98.84 817.38"/><rect class="cls-61" x="733.18" y="1182.32" width="1.6" height="174.8" transform="translate(-1102.19 116.94) rotate(-28)"/><rect class="cls-62" x="734.59" y="1181.57" width="1.6" height="174.8" transform="translate(-1101.69 117.54) rotate(-28)"/><rect class="cls-63" x="736" y="1180.82" width="1.6" height="174.8" transform="translate(-1101.15 118.09) rotate(-28)"/><rect class="cls-64" x="737.42" y="1180.07" width="1.6" height="174.8" transform="translate(-1100.65 118.69) rotate(-28)"/><rect class="cls-65" x="738.83" y="1179.32" width="1.6" height="174.8" transform="translate(-1100.14 119.27) rotate(-28)"/><rect class="cls-66" x="740.24" y="1178.57" width="1.6" height="174.8" transform="translate(-1099.61 119.83) rotate(-28)"/><rect class="cls-67" x="741.65" y="1177.81" width="1.6" height="174.8" transform="translate(-1099.1 120.42) rotate(-28)"/><rect class="cls-68" x="743.06" y="1177.06" width="1.6" height="174.8" transform="translate(-1098.57 120.97) rotate(-28)"/><rect class="cls-69" x="744.47" y="1176.31" width="1.6" height="174.8" transform="translate(-1098.06 121.57) rotate(-28)"/><rect class="cls-70" x="745.89" y="1175.56" width="1.6" height="174.8" transform="translate(-1097.54 122.14) rotate(-28)"/><rect class="cls-71" x="747.3" y="1174.81" width="1.6" height="174.8" transform="translate(-1097.01 122.69) rotate(-28)"/><rect class="cls-72" x="748.71" y="1174.06" width="1.6" height="174.8" transform="translate(-1096.51 123.29) rotate(-28)"/><rect class="cls-73" x="750.12" y="1173.31" width="1.6" height="174.8" transform="translate(-1095.97 123.84) rotate(-28)"/><rect class="cls-74" x="751.53" y="1172.56" width="1.6" height="174.8" transform="translate(-1095.47 124.44) rotate(-28)"/><rect class="cls-75" x="752.94" y="1171.81" width="1.6" height="174.8" transform="translate(-1094.96 125.02) rotate(-28)"/><rect class="cls-76" x="754.36" y="1171.06" width="1.6" height="174.8" transform="translate(-1094.42 125.57) rotate(-28)"/><rect class="cls-77" x="755.77" y="1170.31" width="1.6" height="174.8" transform="translate(-1093.92 126.16) rotate(-28)"/><rect class="cls-78" x="757.18" y="1169.56" width="1.6" height="174.8" transform="translate(-1093.39 126.72) rotate(-28)"/><rect class="cls-79" x="758.59" y="1168.81" width="1.6" height="174.8" transform="translate(-1092.89 127.31) rotate(-28)"/><rect class="cls-80" x="760" y="1168.06" width="1.6" height="174.8" transform="translate(-1092.37 127.89) rotate(-28)"/><rect class="cls-81" x="761.41" y="1167.31" width="1.6" height="174.8" transform="translate(-1091.84 128.44) rotate(-28)"/><rect class="cls-82" x="762.83" y="1166.55" width="1.6" height="174.8" transform="translate(-1091.33 129.04) rotate(-28)"/><rect class="cls-83" x="764.24" y="1165.8" width="1.6" height="174.8" transform="translate(-1090.8 129.59) rotate(-28)"/><rect class="cls-84" x="765.65" y="1165.05" width="1.6" height="174.8" transform="translate(-1090.3 130.19) rotate(-28)"/><rect class="cls-85" x="767.06" y="1164.3" width="1.6" height="174.8" transform="translate(-1089.78 130.76) rotate(-28)"/><rect class="cls-86" x="768.47" y="1163.55" width="1.6" height="174.8" transform="translate(-1089.25 131.31) rotate(-28)"/><rect class="cls-87" x="769.88" y="1162.8" width="1.6" height="174.8" transform="translate(-1088.74 131.91) rotate(-28)"/><rect class="cls-88" x="771.3" y="1162.05" width="1.6" height="174.8" transform="translate(-1088.21 132.46) rotate(-28)"/><rect class="cls-89" x="772.71" y="1161.3" width="1.6" height="174.8" transform="translate(-1087.71 133.06) rotate(-28)"/><rect class="cls-90" x="774.12" y="1160.55" width="1.6" height="174.8" transform="translate(-1087.19 133.64) rotate(-28)"/><rect class="cls-91" x="775.53" y="1159.8" width="1.6" height="174.8" transform="translate(-1086.66 134.19) rotate(-28)"/><rect class="cls-92" x="776.94" y="1159.05" width="1.6" height="174.8" transform="translate(-1086.15 134.79) rotate(-28)"/><rect class="cls-93" x="778.35" y="1158.3" width="1.6" height="174.8" transform="translate(-1085.62 135.34) rotate(-28)"/><rect class="cls-94" x="779.77" y="1157.55" width="1.6" height="174.8" transform="translate(-1085.12 135.94) rotate(-28)"/><rect class="cls-95" x="781.18" y="1156.8" width="1.6" height="174.8" transform="translate(-1084.6 136.51) rotate(-28)"/><rect class="cls-96" x="782.59" y="1156.05" width="1.6" height="174.8" transform="translate(-1084.07 137.06) rotate(-28)"/><rect class="cls-97" x="784" y="1155.29" width="1.6" height="174.8" transform="translate(-1083.57 137.66) rotate(-28)"/><rect class="cls-98" x="785.41" y="1154.54" width="1.6" height="174.8" transform="translate(-1083.03 138.21) rotate(-28)"/><rect class="cls-99" x="786.82" y="1153.79" width="1.6" height="174.8" transform="translate(-1082.53 138.81) rotate(-28)"/><rect class="cls-100" x="788.24" y="1153.04" width="1.6" height="174.8" transform="translate(-1082.01 139.39) rotate(-28)"/><rect class="cls-101" x="789.65" y="1152.29" width="1.6" height="174.8" transform="translate(-1081.48 139.94) rotate(-28)"/><rect class="cls-102" x="791.06" y="1151.54" width="1.6" height="174.8" transform="translate(-1080.98 140.54) rotate(-28)"/><rect class="cls-103" x="792.47" y="1150.79" width="1.6" height="174.8" transform="translate(-1080.45 141.09) rotate(-28)"/><rect class="cls-104" x="793.88" y="1150.04" width="1.6" height="174.8" transform="translate(-1079.94 141.69) rotate(-28)"/><rect class="cls-105" x="795.29" y="1149.29" width="1.6" height="174.8" transform="translate(-1079.42 142.26) rotate(-28)"/><rect class="cls-106" x="796.71" y="1148.54" width="1.6" height="174.8" transform="translate(-1078.89 142.81) rotate(-28)"/><rect class="cls-107" x="798.12" y="1147.79" width="1.6" height="174.8" transform="translate(-1078.39 143.41) rotate(-28)"/><rect class="cls-108" x="799.53" y="1147.04" width="1.6" height="174.8" transform="translate(-1077.86 143.96) rotate(-28)"/><rect class="cls-109" x="800.94" y="1146.29" width="1.6" height="174.8" transform="translate(-1077.35 144.56) rotate(-28)"/><rect class="cls-110" x="802.35" y="1145.54" width="1.6" height="174.8" transform="translate(-1076.84 145.14) rotate(-28)"/><rect class="cls-111" x="803.76" y="1144.79" width="1.6" height="174.8" transform="translate(-1076.3 145.69) rotate(-28)"/><rect class="cls-112" x="805.18" y="1144.03" width="1.6" height="174.8" transform="translate(-1075.8 146.29) rotate(-28)"/><rect class="cls-113" x="806.59" y="1143.28" width="1.6" height="174.8" transform="translate(-1075.27 146.84) rotate(-28)"/><rect class="cls-114" x="808" y="1142.53" width="1.6" height="174.8" transform="translate(-1074.77 147.44) rotate(-28)"/><rect class="cls-115" x="809.41" y="1141.78" width="1.6" height="174.8" transform="translate(-1074.23 147.99) rotate(-28)"/><rect class="cls-116" x="810.82" y="1141.03" width="1.6" height="174.8" transform="translate(-1073.73 148.59) rotate(-28)"/><rect class="cls-117" x="812.23" y="1140.28" width="1.6" height="174.8" transform="translate(-1073.21 149.16) rotate(-28)"/><rect class="cls-118" x="813.65" y="1139.53" width="1.6" height="174.8" transform="translate(-1072.68 149.71) rotate(-28)"/><rect class="cls-119" x="815.06" y="1138.78" width="1.6" height="174.8" transform="translate(-1072.18 150.31) rotate(-28)"/><rect class="cls-120" x="816.47" y="1138.03" width="1.6" height="174.8" transform="translate(-1071.65 150.86) rotate(-28)"/><rect class="cls-121" x="817.88" y="1137.28" width="1.6" height="174.8" transform="translate(-1071.14 151.46) rotate(-28)"/><rect class="cls-122" x="819.29" y="1136.53" width="1.6" height="174.8" transform="translate(-1070.62 152.04) rotate(-28)"/><polygon class="cls-123" points="187.78 770.09 188.72 769.58 189.32 769.58 271.26 923.67 269.85 924.42 187.78 770.09"/><polygon class="cls-124" points="191.13 769.58 272.67 922.92 271.26 923.67 189.32 769.58 191.13 769.58"/><polygon class="cls-125" points="192.94 769.58 274.08 922.17 272.67 922.92 191.13 769.58 192.94 769.58"/><polygon class="cls-126" points="194.75 769.58 275.49 921.42 274.08 922.17 192.94 769.58 194.75 769.58"/><polygon class="cls-127" points="196.56 769.58 276.9 920.67 275.49 921.42 194.75 769.58 196.56 769.58"/><polygon class="cls-128" points="198.37 769.58 278.31 919.92 276.9 920.67 196.56 769.58 198.37 769.58"/><polygon class="cls-129" points="200.18 769.58 279.73 919.17 278.31 919.92 198.37 769.58 200.18 769.58"/><polygon class="cls-130" points="202 769.58 281.14 918.42 279.73 919.17 200.18 769.58 202 769.58"/><polygon class="cls-131" points="203.81 769.58 282.55 917.67 281.14 918.42 202 769.58 203.81 769.58"/><polygon class="cls-132" points="205.62 769.58 283.26 915.59 283.26 917.29 282.55 917.67 203.81 769.58 205.62 769.58"/><polygon class="cls-133" points="207.43 769.58 283.26 912.19 283.26 915.59 205.62 769.58 207.43 769.58"/><polygon class="cls-134" points="209.24 769.58 283.26 908.78 283.26 912.19 207.43 769.58 209.24 769.58"/><polygon class="cls-135" points="211.05 769.58 283.26 905.38 283.26 908.78 209.24 769.58 211.05 769.58"/><polygon class="cls-136" points="212.86 769.58 283.26 901.97 283.26 905.38 211.05 769.58 212.86 769.58"/><polygon class="cls-137" points="214.67 769.58 283.26 898.57 283.26 901.97 212.86 769.58 214.67 769.58"/><polygon class="cls-138" points="216.48 769.58 283.26 895.16 283.26 898.57 214.67 769.58 216.48 769.58"/><polygon class="cls-139" points="218.29 769.58 283.26 891.75 283.26 895.16 216.48 769.58 218.29 769.58"/><polygon class="cls-140" points="220.1 769.58 283.26 888.35 283.26 891.75 218.29 769.58 220.1 769.58"/><polygon class="cls-141" points="221.91 769.58 283.26 884.94 283.26 888.35 220.1 769.58 221.91 769.58"/><polygon class="cls-142" points="223.72 769.58 283.26 881.54 283.26 884.94 221.91 769.58 223.72 769.58"/><polygon class="cls-143" points="225.53 769.58 283.26 878.13 283.26 881.54 223.72 769.58 225.53 769.58"/><polygon class="cls-144" points="227.35 769.58 283.26 874.73 283.26 878.13 225.53 769.58 227.35 769.58"/><polygon class="cls-145" points="229.16 769.58 283.26 871.32 283.26 874.73 227.35 769.58 229.16 769.58"/><polygon class="cls-146" points="230.97 769.58 283.26 867.92 283.26 871.32 229.16 769.58 230.97 769.58"/><polygon class="cls-146" points="283.26 867.92 230.97 769.58 283.26 769.58 283.26 867.92"/></g><g class="cls-147"><path class="cls-148" d="M649.79,1306.33c49-42.48,41.63-92.1,95.35-115.41,67.23-29.18,112.34,36.66,112.34,36.66a107.44,107.44,0,0,1,1.92,17.83,119.6,119.6,0,0,0-1.43-33.69s-45.12-65.84-112.34-36.66-38.83,99.55-144.84,145.56C619.09,1312.68,635.24,1308.3,649.79,1306.33Z" transform="translate(-591.99 -376.3)"/></g><g class="cls-149"><path class="cls-150" d="M856.72,1261.31c-7.84,12.45-19.8,23.84-37.9,31.7-55.61,24.13-88.47-21.89-158.15-12.5-13.47,14.26-32,28-59.88,40.11,106-46,140,27.37,207.23-1.8C838.29,1305.68,851.42,1282.65,856.72,1261.31Z" transform="translate(-591.99 -376.3)"/></g><path class="cls-151" d="M684.73,1285.8c61.72-26.78,103.49,15.92,142.62-1.07s25-71.76,25-71.76-30.35-47.75-69.49-30.76S746.45,1259,684.73,1285.8Z" transform="translate(-591.99 -376.3)"/><path class="cls-150" d="M774.19,1331.76c-16.56,0-32-4.47-48-9.09-32.37-9.36-69-20-126.18,4.83a5.72,5.72,0,1,1-4.56-10.49c57.21-24.83,75.07-57.66,90.82-86.62,13.11-24.1,25.49-46.86,57.1-60.58,29.33-12.73,59.34-10,86.78,7.84a125.93,125.93,0,0,1,32.55,30.84,5.62,5.62,0,0,1,.87,2,125.8,125.8,0,0,1,.28,44.84c-5.69,32.24-24.2,56-53.54,68.74A88.8,88.8,0,0,1,774.19,1331.76ZM667.3,1300.64c23.84,0,43.6,5.71,62,11,26,7.52,48.48,14,76.4,1.9,58-25.19,48.51-90.37,46.85-99.54-5.78-7.91-46.13-59.14-104.69-33.73-28,12.15-38.93,32.27-51.6,55.55-11.76,21.64-24.64,45.31-52.69,66.66A152.3,152.3,0,0,1,667.3,1300.64Z" transform="translate(-591.99 -376.3)"/><path class="cls-148" d="M1204.31,868.37s74.31,31.23,86.91,50.54-33.59,19.78-33.59,19.78" transform="translate(-591.99 -376.3)"/><path class="cls-150" d="M1257.63,945.28a6.6,6.6,0,0,1-5.26-2.61l-53.32-70.31a6.6,6.6,0,0,1,7.81-10.07c7.8,3.28,76.57,32.6,89.88,53,4.68,7.17,3.48,12.76,1.64,16.18-6.68,12.49-32.83,13.72-40.68,13.8ZM1225.17,885l35.66,47c12.35-.58,24.24-3.59,25.92-6.73.16-.3-.16-1.36-1.06-2.75C1279.39,912.85,1250.85,897.16,1225.17,885Z" transform="translate(-591.99 -376.3)"/><path class="cls-148" d="M892.35,704.64C863.48,726.27,837,829.29,843.71,890.7s115.24,66,177.32,64,61.86-142.36,61-180C1080.81,716.05,935.12,672.58,892.35,704.64Z" transform="translate(-591.99 -376.3)"/><g class="cls-152"><path class="cls-150" d="M1021,954.72c-62.08,2-170.63-2.61-177.32-64a200.71,200.71,0,0,1-1-26c17.14,13.47,41,1.48,43.91-15,17.78-101.74,55.67-140.78,74-154.15,55.84,7.83,120.6,40.13,121.43,79.2C1082.9,812.36,1083.11,952.73,1021,954.72Z" transform="translate(-591.99 -376.3)"/></g><path class="cls-150" d="M999.39,961.67c-75,0-156-13.4-162.24-70.25C830.68,832,855.3,724.16,888.39,699.36c29.34-22,97-11.49,142.91,10.84,36.48,17.76,56.86,40.64,57.38,64.42,1.49,68.87-5.29,184.7-67.44,186.69C1014.07,961.55,1006.76,961.67,999.39,961.67Zm-63-261.39c-17.08,0-31.4,3.12-40.09,9.64h0c-26.65,20-52.47,121-46,180.07,6,55.15,109.43,60.1,170.55,58.14,54.16-1.74,55.53-133,54.66-173.22-.39-18.32-18.6-37.58-50-52.85C996.4,707.89,963,700.28,936.39,700.28Zm-44,4.36h0Z" transform="translate(-591.99 -376.3)"/><path class="cls-148" d="M898.44,807.68l-27.55-11A11.15,11.15,0,0,0,856,804.22c-5.78,22.33-14.7,68.61,7.77,78.08,27.23,11.48,36.88-19.93,41.66-63.08A11.12,11.12,0,0,0,898.44,807.68Z" transform="translate(-591.99 -376.3)"/><g class="cls-152"><path class="cls-150" d="M905.35,819.15c-4.69,43.16-14.27,74.6-41.52,63.18-11.19-4.68-14.63-18.52-14.54-34a19.88,19.88,0,0,0,10.08,9.76C883.77,868.33,894,844.2,899.23,808A11,11,0,0,1,905.35,819.15Z" transform="translate(-591.99 -376.3)"/></g><path class="cls-150" d="M874.33,890.8A33.27,33.27,0,0,1,861.48,888c-24.91-10.43-20-52.09-11.5-85.2A17.25,17.25,0,0,1,873,791L900.61,802a17.24,17.24,0,0,1,10.8,17.86c-4.3,39.65-11.78,59.9-25,67.7A23.28,23.28,0,0,1,874.33,890.8ZM866.67,802a5.06,5.06,0,0,0-2.29.56,4.93,4.93,0,0,0-2.58,3.22c-7.75,30.15-10.66,64.61,4.39,70.92,5.72,2.39,10.3,2.49,14,.31,13.61-8,17.73-46,19.09-58.52a5.05,5.05,0,0,0-3.17-5.21l-27.57-10.92A5.18,5.18,0,0,0,866.67,802Z" transform="translate(-591.99 -376.3)"/><path class="cls-150" d="M888.31,704.78l32.46,15c10.8,5.08,21.57,10.09,32.3,15.55a3.3,3.3,0,0,1-2.7,6l0,0C939.38,737,928.16,733,917,728.92L883.39,717l-.06,0a6.61,6.61,0,0,1,4.41-12.46A5.72,5.72,0,0,1,888.31,704.78Z" transform="translate(-591.99 -376.3)"/><path class="cls-148" d="M1387,684.92c-10.71,36.51-92,104.14-208.63,107.52a317.37,317.37,0,0,1-34.8-.89L1133.2,747.1l-8.33-35.58s18.11-3.3,42.87-9.88c19.56-5.18,43.26-12.4,65.48-21.64,20.94-8.71,40.59-19.22,54.15-31.5,0,0,.74-36.59,11.11-40.31,12.67-4.56,22,21.17,22,21.17s28.8-29.63,45.61-26.76C1391.13,606.85,1398.8,644.87,1387,684.92Z" transform="translate(-591.99 -376.3)"/><g class="cls-153"><path class="cls-150" d="M1392.28,655.06a131.49,131.49,0,0,1-5.24,29.86c-11.75,40-108.38,117.51-243.43,106.63l-18.74-80s5.62-1,14.88-3.07l21.89,42.42C1273.19,784.48,1374,696.26,1392.28,655.06Z" transform="translate(-591.99 -376.3)"/></g><path class="cls-150" d="M1169.23,799.18c-8.56,0-17.26-.34-26.15-1a6.6,6.6,0,0,1,1.06-13.15c133.2,10.73,226.2-66.58,236.57-101.93,7.4-25.23,6.68-50.35-1.85-64-3.52-5.64-8.17-9-13.82-9.95-9.21-1.57-28.8,13.6-39.77,24.87l-7.33,7.53-3.6-9.87c-2.9-7.9-9.57-18.47-13.52-17.27-3.27,2.33-6.53,18.59-6.86,34.27l-.06,2.84-2.11,1.91c-47,42.56-160.9,63.75-165.73,64.63a6.6,6.6,0,1,1-2.37-13c1.13-.2,111.57-20.75,157.16-59.6.52-13.53,3.14-39,15.4-43.45,12.44-4.49,21.5,7.22,26.4,16.2,10.56-9.58,29.85-24.6,44.6-22.09,9.39,1.6,17.28,7.12,22.81,16,10.59,17,11.86,45.58,3.31,74.71C1381.4,727.56,1293.15,799.18,1169.23,799.18Zm131.65-184.86" transform="translate(-591.99 -376.3)"/><path class="cls-148" d="M1266,949.66s-163.31,63.15-220.61,58.63S926.37,994.7,923,886c-2.1-67.56,31.32-134,56.92-174.63,15.58-24.74,28.27-39.9,28.27-39.9l157.68,8s.61,8.31,1.88,22.1c.79,8.61,1.84,19.35,3.18,31.52,1.91,17.48,4.39,37.92,7.49,59.28,4.75,32.72,11,67.59,18.8,97.24C1200.59,902.52,1254.43,906,1266,949.66Z" transform="translate(-591.99 -376.3)"/><path class="cls-150" d="M1174.86,748.44c5.9,19.24,9.28,38.68,12.7,58.11s6.56,38.86,10.57,58.08c1,4.81,2.11,9.59,3.23,14.36l1.76,7.12.44,1.78,0,.11v-.07a.31.31,0,0,0,0-.08l-.06-.05,0,0s0,0,0,.1a2.83,2.83,0,0,1,.24.25c.08.16.5.42.72.65a32.31,32.31,0,0,0,5.21,3.13c2,1,4.21,2,6.45,3.06,4.46,2,9.1,4.1,13.7,6.42,9.17,4.63,18.36,10.29,26.06,18.11a65,65,0,0,1,10,13.1,63.3,63.3,0,0,1,6.31,15.32l1.54,5.73-5.54,2.11c-26,9.89-52,19.05-78.38,27.67s-52.94,16.54-80.09,23a362.24,362.24,0,0,1-41.45,7.59,126,126,0,0,1-21.76.92c-1.93-.05-3.58-.24-5.33-.37l-5.21-.45c-3.47-.32-7-.66-10.45-1.07-14-1.64-28.15-4.12-41.87-9.17a102.67,102.67,0,0,1-19.8-9.72,87.8,87.8,0,0,1-17.16-14.27,92.12,92.12,0,0,1-13-18,111.57,111.57,0,0,1-8.71-20.09l-.87-2.58-.73-2.61-1.44-5.22L921,926.1l-.59-2.63-.46-2.64-.92-5.28c-.28-1.77-.47-3.53-.71-5.3-.51-3.53-.81-7.06-1.1-10.59a224,224,0,0,1,.37-42.54,264.65,264.65,0,0,1,7.9-41.66c7.37-27.26,18.51-53.2,31.62-77.92,6.55-12.36,13.11-24.77,21.06-36.3s16.76-22.51,28.36-31.16a2.26,2.26,0,0,1,3.16.46,2.29,2.29,0,0,1,.25,2.29l0,.08c-5.79,12.78-12.87,24.4-20.05,35.94s-14.69,22.91-21.07,34.92c-12.79,24-23.5,49.09-30.56,75.14a252,252,0,0,0-7.51,39.58,211.45,211.45,0,0,0-.34,40.1c.28,3.34.55,6.68,1,10,.22,1.65.4,3.32.66,5l.86,4.91.43,2.46.54,2.42,1.08,4.84,1.32,4.75.66,2.38.79,2.32a97.86,97.86,0,0,0,7.71,17.82,78.53,78.53,0,0,0,11.1,15.5c8.61,9.32,19.66,16.13,31.86,20.59s25.4,6.86,38.81,8.43c3.35.4,6.74.73,10.13,1l5.1.44c1.69.13,3.47.32,5,.34s3.13.21,4.77.13l4.87-.12c3.29-.25,6.57-.42,9.9-.86a346.49,346.49,0,0,0,39.91-7.33c26.57-6.27,52.89-14.17,79-22.66s52.11-17.68,77.71-27.43l-4,7.84a50.15,50.15,0,0,0-13-22.52c-6.24-6.37-14.13-11.33-22.62-15.6-4.25-2.15-8.66-4.12-13.22-6.19-2.28-1-4.6-2.1-7-3.32a43.54,43.54,0,0,1-7.47-4.59,20.85,20.85,0,0,1-2-1.85l-1-1.12c-.33-.44-.67-1-1-1.44a14,14,0,0,1-1.51-3.45l-.47-1.82-1.9-7.28q-1.82-7.3-3.49-14.62c-2.22-9.75-4.36-19.52-6.23-29.32s-3.46-19.66-4.85-29.53c-2.73-19.74-4.6-39.6-3.37-59.74a2.24,2.24,0,0,1,4.37-.51Z" transform="translate(-591.99 -376.3)"/><path class="cls-154" d="M938.82,1281.69l-28.26,4.39a35.19,35.19,0,0,1-33.45-13.51h0A211.1,211.1,0,0,1,835.43,1167h0a35.15,35.15,0,0,1,15.17-32.72l23.64-16.11" transform="translate(-591.99 -376.3)"/><g class="cls-155"><path class="cls-148" d="M879.26,1134.42l-23.4,15.95a38.86,38.86,0,0,0-16.78,36.18q.85,8.23,2.31,16.36a210,210,0,0,1-6-32.39,35.18,35.18,0,0,1,15.18-32.72l23.64-16.1Z" transform="translate(-591.99 -376.3)"/></g><g class="cls-153"><path class="cls-150" d="M853.23,1225.84h0a211,211,0,0,0,20.4,32.8,35.16,35.16,0,0,0,33.44,13.51l26.35-4.11-59.18-149.83-5,3.44,43.88,111.07-28.27,4.41A35.16,35.16,0,0,1,853.23,1225.84Zm54.45-6.76-38.49-97.43,1.59-1.08,38.81,98.22Z" transform="translate(-591.99 -376.3)"/></g><path class="cls-3" d="M943.81,1074.79c-14.69-28.78-65-66.87-164-4a1.7,1.7,0,0,0,.6,3.1c16.48,2.93,94,16.14,108.19,56.45" transform="translate(-591.99 -376.3)"/><g class="cls-155"><path class="cls-148" d="M796.43,1075.21c-7.1-1.52-12.8-2.51-16.06-3.1a1.69,1.69,0,0,1-.61-3.09c99-62.84,149.36-24.75,164,4l-6,6C918.84,1054.54,874.19,1032.17,796.43,1075.21Z" transform="translate(-591.99 -376.3)"/></g><path class="cls-150" d="M888.55,1136.91a6.59,6.59,0,0,1-6.22-4.4c-4.75-13.48-24.35-38.16-102.34-52l-.78-.14a8.29,8.29,0,0,1-3-15.16c48.14-30.55,90.11-41.24,124.75-31.77,30.55,8.35,44.25,29.62,48.72,38.37a6.6,6.6,0,1,1-11.75,6c-3.68-7.19-15-24.68-40.45-31.64-28-7.65-63.53.52-103.39,23.62,71,14.69,94.07,39.58,100.67,58.35a6.6,6.6,0,0,1-4,8.42A6.67,6.67,0,0,1,888.55,1136.91Z" transform="translate(-591.99 -376.3)"/><path class="cls-156" d="M1018,1262.69c9,31-1.11,94.94-116.34,116.74a1.69,1.69,0,0,1-1.68-2.67c10-13.41,56.88-77.81,39.69-116.94" transform="translate(-591.99 -376.3)"/><path class="cls-3" d="M901.7,1379.44a1.7,1.7,0,0,1-1.67-2.68c5.13-6.87,19.93-27.12,30.83-50.5,10.31-22.08,17.13-47,9-66-.06-.14-.13-.29-.18-.42h.47l77.85,2.85a69.41,69.41,0,0,1,1.13,32.25C1013.06,1326.29,984.59,1363.74,901.7,1379.44Z" transform="translate(-591.99 -376.3)"/><g class="cls-153"><path class="cls-150" d="M930.86,1326.26c10.31-22.08,17.13-47,9-66,.1-.13.19-.28.29-.41l77.85,2.85a69.41,69.41,0,0,1,1.13,32.25C1000.59,1310.71,972.43,1323.09,930.86,1326.26Z" transform="translate(-591.99 -376.3)"/></g><path class="cls-150" d="M901.36,1386.06a8.29,8.29,0,0,1-6.62-13.25c12.91-17.28,53.89-76.29,38.93-110.33a6.6,6.6,0,1,1,12.08-5.31c15.22,34.64-13.6,85.14-33,113.2,44.28-10.28,75.53-28.62,90.78-53.41,14.72-23.92,10-46.19,8.18-52.44a6.6,6.6,0,1,1,12.68-3.66c2.8,9.7,7.45,35.26-9.62,63-18.89,30.7-56.52,51.58-111.83,62.05A8.48,8.48,0,0,1,901.36,1386.06Zm-.89-13.11Z" transform="translate(-591.99 -376.3)"/><path class="cls-148" d="M1483.56,971.25s-25.9,164.72-239.24,266.47c-181.76,86.67-307.43,44-307.43,44a253.15,253.15,0,0,1-64.57-163.49S900.23,1066,976,1013.11c2.6-1.82,5.28-3.65,8-5.46,29.59-19.76,66-39.37,110.16-56.1q15.63-5.94,32.61-11.33c.44-.15.89-.28,1.33-.41,45.66-14.4,87.44-21.62,125-24,1.21-.09,2.4-.15,3.58-.22C1401.78,907.45,1483.56,971.25,1483.56,971.25Z" transform="translate(-591.99 -376.3)"/><path class="cls-3" d="M1374.77,1152.07a610.14,610.14,0,0,0-93.7-237.19c131-.87,204.4,56.37,204.4,56.37S1471,1063.16,1374.77,1152.07Z" transform="translate(-591.99 -376.3)"/><g class="cls-155"><path class="cls-148" d="M1482.75,981.47c2-7.65,2.72-12,2.72-12s-73.37-57.24-204.4-56.36q4.62,6.93,9,14C1401.16,928.64,1468.77,971.67,1482.75,981.47Z" transform="translate(-591.99 -376.3)"/></g><path class="cls-150" d="M1370.28,1165.2l-2-12a599.84,599.84,0,0,0-92.69-234.62l-6.76-10.16,12.21-.09c103.86-.71,172.45,34.8,197.13,50.09a24.4,24.4,0,0,1,10.77,27.27c-7.57,28-33.41,100.82-109.68,171.27Zm-77-243.63a612.14,612.14,0,0,1,85.83,217.26c66.93-65.4,90.09-130.81,97.06-156.63a11.27,11.27,0,0,0-5-12.61C1448.47,955.5,1386.85,923.57,1293.3,921.57Z" transform="translate(-591.99 -376.3)"/><path class="cls-150" d="M1023.17,1298.81c-53.87,0-85.17-10.43-86.49-10.88l-1.63-.55-1.15-1.29a259.52,259.52,0,0,1-66.27-167.74l0-1.72.81-1.53c.66-1.23,16.62-30.66,56.59-67.86,36.65-34.11,101.39-81.45,201.69-113.3,52.58-16.7,104.51-25.33,154.34-25.66l3.57,0,2,3a612.79,612.79,0,0,1,94.61,239.14l1.31,3.55-3.23,3c-36.6,33.82-80.41,63-130.21,86.75-95,45.3-174.6,55-224.67,55.12Zm-80.66-22.88c7,2.06,36.58,9.94,82.54,9.68,48.57-.23,125.88-9.75,218.32-53.84,47.41-22.61,89.21-50.23,124.3-82.12a599.51,599.51,0,0,0-90.12-228.13c-47.41.69-96.81,9.1-146.87,25-175.75,55.81-241.88,159.93-249.81,173.38a246.44,246.44,0,0,0,61.64,156Z" transform="translate(-591.99 -376.3)"/><path class="cls-150" d="M905.12,1293.1a41.72,41.72,0,0,1-33.27-16.55,217.78,217.78,0,0,1-43-108.82,41.7,41.7,0,0,1,18-38.86l23.63-16.11a6.6,6.6,0,1,1,7.43,10.91l-23.63,16.1A28.52,28.52,0,0,0,842,1166.35a204.52,204.52,0,0,0,40.38,102.24,28.54,28.54,0,0,0,27.17,11l28.26-4.39a6.6,6.6,0,1,1,2,13l-28.26,4.39A41.31,41.31,0,0,1,905.12,1293.1Z" transform="translate(-591.99 -376.3)"/><g class="cls-153"><circle class="cls-150" cx="1217.94" cy="1087.35" r="90.75" transform="translate(-1004.13 803.39) rotate(-45)"/></g><circle class="cls-3" cx="627.96" cy="699.84" r="81.61"/><g class="cls-155"><path class="cls-148" d="M1300.21,1063.06q-.82-2.65-1.86-5.26a81.62,81.62,0,0,0-156.15,44.89,81.61,81.61,0,1,1,158-39.63Z" transform="translate(-591.99 -376.3)"/></g><g class="cls-153"><path class="cls-150" d="M1249.92,1152a81.59,81.59,0,0,1-111-86,81.61,81.61,0,0,0,161.68-2.18A81.63,81.63,0,0,1,1249.92,1152Z" transform="translate(-591.99 -376.3)"/></g><path class="cls-150" d="M1219.93,1164.39a88.45,88.45,0,1,1,32.42-6.22h0A88,88,0,0,1,1219.93,1164.39Zm0-163.31a75,75,0,1,0,27.55,144.82h0A75.06,75.06,0,0,0,1220,1001.08Z" transform="translate(-591.99 -376.3)"/><circle class="cls-157" cx="1220.49" cy="1074.87" r="51.92" transform="translate(-994.56 801.55) rotate(-45)"/><g class="cls-149"><path class="cls-148" d="M1239.57,1123.17a51.92,51.92,0,0,1-67.36-29.22,51.19,51.19,0,0,1-3.62-17.59c.19.54.4,1.08.61,1.63a51.92,51.92,0,0,0,100.19-20.55A51.92,51.92,0,0,1,1239.57,1123.17Z" transform="translate(-591.99 -376.3)"/></g><g class="cls-153"><path class="cls-150" d="M1273,1077.55c-.29-.84-.59-1.68-.92-2.52a51.92,51.92,0,0,0-100.2,18.07A51.92,51.92,0,1,1,1273,1077.55Z" transform="translate(-591.99 -376.3)"/></g><path class="cls-150" d="M1220.48,1133.42a58.58,58.58,0,1,1,21.51-4.12A58.4,58.4,0,0,1,1220.48,1133.42Zm0-103.87a45.32,45.32,0,1,0,16.7,87.48h0a45.33,45.33,0,0,0-16.7-87.48Z" transform="translate(-591.99 -376.3)"/><g class="cls-158"><path class="cls-148" d="M1389.93,963.56c-.4-12.39-26.15-22.11-40.71-22-15.1.11-24.17,2.71-24.24,10-.09,10.2,11.66,13.79,25.63,14.32C1360.49,966.29,1390.41,978.86,1389.93,963.56Z" transform="translate(-591.99 -376.3)"/></g><g class="cls-158"><path class="cls-148" d="M1427.75,979.22c-.81-10.74-13.8-20.75-20.87-21.56-7.32-.84-11.6.84-11.27,7.15.47,8.81,6.35,12.66,13.16,14C1413.59,979.74,1428.75,992.48,1427.75,979.22Z" transform="translate(-591.99 -376.3)"/></g><g class="cls-153"><path class="cls-150" d="M935.33,1269.49s125.66,42.7,307.41-44c184.58-88,228.84-223.16,237.42-258,.88.58,1.64,1.1,2.3,1.56-2.67-1.86-7.12-4.8-13.29-8.39-25.06,57-84.71,148.58-222.12,214.11-85.82,40.92-159.13,53-212.61,54.35-68.31,1.73-129.72-42.11-149.07-107.64-.11-.36-.21-.72-.32-1.08-.75-2.6-1.45-5.22-2.13-7.85-.34-1.09-.71-2.16-1-3.26-.11-.36-.22-.73-.32-1.09s-.21-.78-.32-1.17l.24-.35h0a135.71,135.71,0,0,0-7.25,11.51,252.85,252.85,0,0,0,8,57.71A252.93,252.93,0,0,0,935.33,1269.49Z" transform="translate(-591.99 -376.3)"/></g><path class="cls-3" d="M926.41,1224.69c-37.41,14.78-85.95-.29-85.95-.29s.09-.17.28-.46c2.82-4.79,27.13-44.61,62.25-58.5,33.72-13.33,70.44.35,77,3,.67.27,1,.43,1,.43S963.58,1210,926.41,1224.69Z" transform="translate(-591.99 -376.3)"/><g class="cls-155"><path class="cls-148" d="M982.74,1170.62s-1.07,2.51-3.21,6.49c-12.52-4.33-43.48-12.64-72.27-1.25C879,1187,857.76,1215,849,1228c-4.33-1-6.85-1.8-6.85-1.8s.11-.17.28-.48c2.83-4.78,27.14-44.59,62.27-58.49,33.71-13.33,70.42.35,77,3Z" transform="translate(-591.99 -376.3)"/></g><g class="cls-153"><path class="cls-150" d="M926.41,1224.69c-37.41,14.78-85.95-.29-85.95-.29s.09-.17.28-.46L980,1168.46c.67.27,1,.43,1,.43S963.58,1210,926.41,1224.69Z" transform="translate(-591.99 -376.3)"/></g><path class="cls-150" d="M887.89,1237.81a183.93,183.93,0,0,1-49.39-7.1l-7.84-2.44,4.06-7.13c1.07-1.89,26.74-46.37,65.85-61.83,39.29-15.54,81.32,2.76,83.09,3.55l5.93,2.63-2.53,6c-.75,1.78-18.93,43.87-58.23,59.38C915.59,1236.06,901.21,1237.81,887.89,1237.81Zm-37-17.54c15.07,3.37,47.27,8.48,73.08-1.71s41.58-34.55,47.83-46c-12.44-4.11-40.67-11.11-66.39-.94S859.59,1207.51,850.91,1220.27Zm-10.46,4.13h0Z" transform="translate(-591.99 -376.3)"/><g class="cls-152"><path class="cls-150" d="M1112.33,1090.1c5.2,7.45,41.09,68,12.21,92.07-25.28,21.08-72,17.61-96.54-15.52-16.24-21.92-19.54-47.19-18.62-66.52,1.09-22.58,5.13-44.12-6.13-61-6-9-15.9-17.07-27.25-26,2.6-1.82,5.28-3.65,8-5.46,29.59-19.76,66-39.37,110.16-56.1A88.11,88.11,0,0,1,1118,967.91c27.38,27.17,28.14,81.7,9.55,103.8C1120.22,1080.42,1112.33,1090.1,1112.33,1090.1Z" transform="translate(-591.99 -376.3)"/></g><path class="cls-148" d="M1128.83,1073.61c5.19,7.45,41.08,68,12.2,92.06-25.28,21.08-71.94,17.62-96.53-15.52-16.25-21.92-19.55-47.19-18.63-66.52,1.09-22.58,5.13-44.12-6.13-61-12.82-19.27-62.82-26.46-87.7-55-14.66-16.79-22.51-47.28-21.18-84.64a264.42,264.42,0,0,1,3.85-35.78c9.23-52.81,35.06-113.56,82.63-167.34,0,0,18.9,75.61,38.71,142.78,13.81,46.83,28.06,89.56,36.62,99.68a5.63,5.63,0,0,0,3.1,2.24,118.33,118.33,0,0,1,32.79,9.5,89.92,89.92,0,0,1,25.93,17.35c27.38,27.17,28.13,81.69,9.55,103.79C1136.71,1063.92,1128.83,1073.61,1128.83,1073.61Z" transform="translate(-591.99 -376.3)"/><g class="cls-152"><path class="cls-150" d="M1150.25,1151.87a29,29,0,0,1-9.22,13.8c-25.28,21.08-71.94,17.62-96.53-15.52-16.25-21.9-19.55-47.19-18.63-66.52,1.09-22.58,5.12-44.12-6.13-61-12.82-19.26-62.82-26.47-87.71-55-14.65-16.79-22.5-47.32-21.17-84.66,0-.17,0-.35,0-.51,0-1.26.12-2.51.18-3.78s.13-2.33.22-3.51c0-.53.06-1.08.11-1.62.22-2.79.46-5.61.78-8.46q.23-2,.48-4.11c.11-1,.24-1.93.38-2.9.09-.81.21-1.62.32-2.43.19-1.27.38-2.54.58-3.82.23-1.45.48-2.92.73-4.39l.05-.25a34.85,34.85,0,0,1,2.5-2.57,107.15,107.15,0,0,0,15.62,5c16.91,4.39,48.1,10.07,96.28,10l-.76-25a12.62,12.62,0,0,1,7.7-12,12.4,12.4,0,0,1,3.58-.92l29.94-3.2,43.28,104.78-40.18-1-30.22-.75a12.62,12.62,0,0,1-11.82-12.22l-.38-12.55c-26.44,5.92-70.2,7.47-98.52-1.86,2.11,26.09,9.38,47.17,20.67,60.1,24.87,28.52,62.16,13.21,87.4,42.63,15.76,18.41,7.52,50.79,6.43,73.37-.93,19.33-8.4,47.68,7.83,69.59C1075.54,1169.6,1122,1167,1150.25,1151.87Z" transform="translate(-591.99 -376.3)"/></g><g class="cls-152"><path class="cls-150" d="M1233.22,680a175.68,175.68,0,0,1-62.3,53.16,173.35,173.35,0,0,1-37.72,13.94,175.51,175.51,0,0,1-115.44-11.54,43.93,43.93,0,0,0-58.54,21.74c-14.47,32-23,63.64-26.39,92.35a107.15,107.15,0,0,1-15.62-5,34.85,34.85,0,0,0-2.5,2.57c9.23-52.81,35.06-113.56,82.63-167.34l.5,5.06c6.31-8.62,10.34-13.44,10.34-13.44l157.68,8s.61,8.31,1.88,22.1C1187.3,696.46,1211,689.24,1233.22,680Z" transform="translate(-591.99 -376.3)"/></g><path class="cls-150" d="M1078.93,922.82a84.54,84.54,0,0,1,25.47,3.79,90.26,90.26,0,0,1,23.81,11A84.08,84.08,0,0,1,1138.8,946a71.17,71.17,0,0,1,9,10.43,83.73,83.73,0,0,1,11.46,24.36,107.43,107.43,0,0,1,4.11,26.15,100,100,0,0,1-2.31,26.43c-2,8.7-5.19,17.48-11.25,25.19l-15.85,19.21.29-7.94c1.33,1.94,2.36,3.65,3.43,5.45s2.06,3.57,3,5.37c2,3.61,3.8,7.26,5.53,11a159,159,0,0,1,8.79,23.16c2.25,8,3.91,16.47,3.7,25.4a47.51,47.51,0,0,1-2.13,13.53,36.93,36.93,0,0,1-6.92,12.6l-1.19,1.39c-.41.44-.87.84-1.3,1.26a24.57,24.57,0,0,1-2.67,2.34c-1.81,1.31-3.56,2.72-5.44,3.9s-3.84,2.24-5.8,3.26l-6.07,2.61a73.67,73.67,0,0,1-25.63,4.32,80.59,80.59,0,0,1-25.43-4.33,75.85,75.85,0,0,1-22.65-12.41,45.15,45.15,0,0,1-4.93-4.22c-1.53-1.54-3.16-3-4.58-4.61l-4.14-5c-1.36-1.67-2.48-3.46-3.73-5.19A102.56,102.56,0,0,1,1025,1126.8a113.08,113.08,0,0,1-5.23-24.64,119,119,0,0,1-.63-12.51c0-2.09.06-4.17.13-6.26l.35-6c.51-8,1.21-15.8,1.22-23.3s-.67-14.72-3.15-21a16.3,16.3,0,0,0-1-2.31c-.39-.74-.68-1.53-1.12-2.23l-1.28-2.13c-.46-.62-.8-1.16-1.31-1.73a35.81,35.81,0,0,0-7.62-6.33c-6.06-3.88-13.13-7.14-20.26-10.38-14.3-6.49-29.39-12.87-43.14-22.65a80.43,80.43,0,0,1-18.55-17.91A86.54,86.54,0,0,1,912,944.5a146.47,146.47,0,0,1-5.81-24.23,210.7,210.7,0,0,1-2-24.51A265.16,265.16,0,0,1,908,847.2a336.12,336.12,0,0,1,30.44-91.7c7.3-14.37,14.77-28.74,24-42s19.81-25.65,33.24-35.08a2.26,2.26,0,0,1,3.3,2.89v0c-7.5,14.35-16.42,27-24.86,40s-17,26-23.85,40a322.87,322.87,0,0,0-29.25,88,252,252,0,0,0-3.65,46.05,196.85,196.85,0,0,0,1.87,22.82,133.61,133.61,0,0,0,5.24,21.92,73.44,73.44,0,0,0,9.67,19.46,67.29,67.29,0,0,0,15.53,14.91c12.13,8.66,26.41,14.82,40.91,21.36,7.26,3.32,14.67,6.66,22,11.32a48.23,48.23,0,0,1,10.52,8.87,37,37,0,0,1,2.27,3l1.78,3c.6,1,1,2.05,1.55,3.08a26.35,26.35,0,0,1,1.34,3.15,55.67,55.67,0,0,1,3.25,13,90.8,90.8,0,0,1,.78,12.75c0,8.34-.76,16.34-1.26,24.14l-.33,5.82c-.06,1.87-.14,3.74-.12,5.62a107.28,107.28,0,0,0,.56,11.2,100.62,100.62,0,0,0,4.61,21.75c4.8,13.89,12.77,27,24.13,35.7a62.24,62.24,0,0,0,18.8,10.31,67.33,67.33,0,0,0,21.18,3.6,60.29,60.29,0,0,0,21-3.5l4.84-2.08c1.54-.82,3-1.72,4.55-2.56s2.79-2,4.21-3a14,14,0,0,0,1.79-1.57c.28-.27.58-.51.84-.79l.73-.88c4-4.6,5.84-11,5.94-18s-1.18-14.26-3.2-21.44a147.22,147.22,0,0,0-8.06-21.21c-1.61-3.47-3.34-6.89-5.16-10.24-.9-1.69-1.85-3.34-2.8-5s-2-3.28-2.89-4.6l-2.83-4.15,3.13-3.8,15.76-19.09c4.23-5.35,7-12.47,8.66-19.85a91.42,91.42,0,0,0-2.39-45.63,78.48,78.48,0,0,0-9.61-20.41,60.43,60.43,0,0,0-7-8.55,69.44,69.44,0,0,0-8.56-7.43,129.41,129.41,0,0,0-20-12.07,214.6,214.6,0,0,0-22.36-9.24h0a2.24,2.24,0,0,1,.72-4.34Z" transform="translate(-591.99 -376.3)"/><path class="cls-150" d="M1026.47,1045.25a5,5,0,0,1-4.9-4.28c-7.69-56.94,26-83.86,40.88-92.79,24.62-14.8,54.3-16.18,72.16-3.36a4.95,4.95,0,1,1-5.77,8c-14.51-10.42-40.29-8.82-61.29,3.81-13.18,7.92-43.08,31.86-36.17,83a5,5,0,0,1-4.24,5.57A5,5,0,0,1,1026.47,1045.25Z" transform="translate(-591.99 -376.3)"/><path class="cls-150" d="M1137.91,1072.78c-.7.66-1.17,1-1.75,1.54s-1.12.9-1.68,1.33c-1.13.87-2.3,1.65-3.48,2.42a61.53,61.53,0,0,1-7.41,4,55,55,0,0,1-16.38,4.59,39.33,39.33,0,0,1-17-1.5,29.1,29.1,0,0,1-13.65-9.31c5.41.94,10.24,1.67,15,1.44a50.26,50.26,0,0,0,6.88-.61,40,40,0,0,0,6.66-1.46,67,67,0,0,0,12.65-5.3c2-1,4-2.27,6-3.47l2.91-1.87,2.67-1.8.4-.27a6.6,6.6,0,0,1,8.24,10.25Z" transform="translate(-591.99 -376.3)"/><path class="cls-148" d="M1264.18,601.47h0a3.56,3.56,0,0,1-3.78-3.32l-6.53-102.3a3.54,3.54,0,0,1,3.32-3.77h0A37.33,37.33,0,0,1,1296.83,527l2.23,34.88A37.34,37.34,0,0,1,1264.18,601.47Z" transform="translate(-591.99 -376.3)"/><path class="cls-150" d="M1264,602.18a4.26,4.26,0,0,1-4.25-4l-6.54-102.29a4.27,4.27,0,0,1,4-4.53,38.07,38.07,0,0,1,40.39,35.54l2.23,34.88a38,38,0,0,1-35.53,40.39H1264Zm.23-.71h0Zm-4.56-108.76c-.79,0-1.59,0-2.38.07a2.86,2.86,0,0,0-2.67,3l6.54,102.29a2.83,2.83,0,0,0,3,2.66,36.61,36.61,0,0,0,34.21-38.88L1296.12,527a36.61,36.61,0,0,0-36.5-34.29Z" transform="translate(-591.99 -376.3)"/><g class="cls-153"><path class="cls-150" d="M1298,545.48l1,16.35a37.36,37.36,0,0,1-34.88,39.65,3.57,3.57,0,0,1-3.78-3.33l-1.75-27.2a3.56,3.56,0,0,0,3.37,1.9l2.43-.16A37.29,37.29,0,0,0,1298,545.48Z" transform="translate(-591.99 -376.3)"/></g><path class="cls-150" d="M1264,608.07a10.16,10.16,0,0,1-10.13-9.5l-6.54-102.29a10.18,10.18,0,0,1,9.49-10.79,43.93,43.93,0,0,1,46.64,41l2.23,34.88a43.93,43.93,0,0,1-41,46.64h0C1264.38,608.07,1264.17,608.07,1264,608.07Zm.23-6.6h0Zm-3.53-102.86,6.13,95.93a30.77,30.77,0,0,0,25.69-32.29l-2.23-34.88a30.75,30.75,0,0,0-29.59-28.76Z" transform="translate(-591.99 -376.3)"/><path class="cls-148" d="M919.55,513.66h0a3.56,3.56,0,0,1,3.78,3.32l6.54,102.29a3.56,3.56,0,0,1-3.33,3.78h0a37.32,37.32,0,0,1-39.63-34.87l-2.23-34.88A37.32,37.32,0,0,1,919.55,513.66Z" transform="translate(-591.99 -376.3)"/><path class="cls-150" d="M924.11,623.84a38,38,0,0,1-37.91-35.62L884,553.34A38,38,0,0,1,919.51,513h0a4.29,4.29,0,0,1,4.53,4l6.53,102.29a4.26,4.26,0,0,1-4,4.53C925.76,623.81,924.93,623.84,924.11,623.84ZM919.6,514.37a36.62,36.62,0,0,0-34.22,38.88l2.23,34.88a36.64,36.64,0,0,0,38.89,34.22,2.84,2.84,0,0,0,2.66-3L922.62,517a2.84,2.84,0,0,0-3-2.66Z" transform="translate(-591.99 -376.3)"/><g class="cls-153"><path class="cls-150" d="M928.06,590.9l1.81,28.37a3.56,3.56,0,0,1-3.33,3.78,37.31,37.31,0,0,1-39.63-34.87L886,573.49a37.34,37.34,0,0,0,35.34,19.71L925,593A3.61,3.61,0,0,0,928.06,590.9Z" transform="translate(-591.99 -376.3)"/></g><path class="cls-150" d="M924.13,629.73a44,44,0,0,1-43.81-41.13l-2.23-34.88a43.93,43.93,0,0,1,41-46.64h0a10.14,10.14,0,0,1,10.78,9.48l6.54,102.29A10.16,10.16,0,0,1,927,629.64C926,629.7,925.07,629.73,924.13,629.73ZM917,520.59a30.77,30.77,0,0,0-25.69,32.29l2.23,34.88a30.75,30.75,0,0,0,29.59,28.76Z" transform="translate(-591.99 -376.3)"/><circle class="cls-148" cx="1091.89" cy="557.56" r="174.67" transform="translate(-666.44 559.09) rotate(-45)"/><path class="cls-150" d="M1091.91,732.94h-1.28c-96.7-.69-174.8-79.92-174.11-176.62.69-96.27,79.24-174.12,175.35-174.12h1.27a175.38,175.38,0,0,1,174.12,176.63C1266.57,655.09,1188,732.94,1091.91,732.94Zm-.06-349.34a175.79,175.79,0,1,0,1.28,0Z" transform="translate(-591.99 -376.3)"/><g class="cls-153"><path class="cls-150" d="M1265.05,534.62a172.5,172.5,0,0,1,1.5,24.19,174.67,174.67,0,1,1-349.33-2.5c0-2.77.1-5.55.25-8.28a174.68,174.68,0,0,0,347.58-13.41Z" transform="translate(-591.99 -376.3)"/></g><path class="cls-150" d="M1091.92,738.83h-1.33a179.51,179.51,0,1,1,1.33,0Zm-.07-349.34a170,170,0,1,0,1.24,0Z" transform="translate(-591.99 -376.3)"/><path class="cls-150" d="M1266,563.29a156.68,156.68,0,0,1-29.34,92.41c-14.06,19.79-72.27,54.71-144.47,55.93-67,1.14-128.16-34.08-142.54-53.65a156.65,156.65,0,0,1-30.8-91.92c-.72-90.45,76.69-128.56,172.56-129.33S1265.24,472.85,1266,563.29Z" transform="translate(-591.99 -376.3)"/><path class="cls-150" d="M1088.91,715.59c-67.82,0-127.67-35.14-142.47-55.28a160.44,160.44,0,0,1-31.57-94.22c-.35-44.16,17.08-78.34,51.81-101.6,30.34-20.33,73.45-31.29,124.65-31.69s94.49,9.86,125.15,29.7c35.09,22.71,53.07,56.61,53.42,100.76h0A160.46,160.46,0,0,1,1239.83,658c-13.82,19.44-71.3,56.29-147.62,57.59C1091.11,715.59,1090,715.59,1088.91,715.59ZM1094,440.66h-2.58c-51,.4-169.55,13.43-168.66,125.35a152.68,152.68,0,0,0,30,89.63c13.57,18.46,71.89,52.07,136.19,52.07l3.11,0c72.6-1.23,128.73-36.54,141.34-54.28a152.61,152.61,0,0,0,28.6-90.09h0C1261.15,453.25,1146.29,440.66,1094,440.66Z" transform="translate(-591.99 -376.3)"/><g class="cls-159"><ellipse class="cls-148" cx="1209.45" cy="551.46" rx="30.91" ry="22.4" transform="translate(-132.09 1272.9) rotate(-80.19)"/></g><g class="cls-159"><ellipse class="cls-148" cx="1182.5" cy="612.9" rx="14.19" ry="12.18" transform="translate(-353.83 1175.84) rotate(-72.24)"/></g><g class="cls-153"><path class="cls-160" d="M1231.53,479.18c21.38,20.08,34.13,47.78,34.43,84.11a156.81,156.81,0,0,1-29.33,92.41c-14.07,19.79-72.28,54.71-144.49,55.94-25.49.44-50.15-4.41-71.71-11.65,88.72-3.41,159.62-46.25,177.07-70.81a198.78,198.78,0,0,0,37.23-117.27A177.64,177.64,0,0,0,1231.53,479.18Z" transform="translate(-591.99 -376.3)"/></g><path class="cls-150" d="M936.48,492.88l-10.36-8.18,4.86,3.9-5.18-3.46c30.67-45.92,90.59-72.59,164.39-73.17,73.35-.56,133.55,24.24,165.44,68.12a6.59,6.59,0,0,1-9.52,9A6.92,6.92,0,0,1,1245,488c-29.34-40.45-85.76-63.37-154.74-62.79-69.37.55-125.33,25.09-153.52,67.31Zm-5.21-4.05h0Z" transform="translate(-591.99 -376.3)"/><g class="cls-159"><path class="cls-148" d="M958.22,619.55s-28.73-89,19.08-124.94,117-36.35,115.4-31.9c0,0-76.44,19.15-105.93,79.94C964,589.53,958.22,619.55,958.22,619.55Z" transform="translate(-591.99 -376.3)"/></g><path class="cls-148" d="M1202.1,813.55l4.73,36.48,3.68,28.37a14.81,14.81,0,0,1-11.74,16.42c-4.91,1-11,2.18-18,3.39-25,4.31-61.7,9.12-98.62,8.56a14.83,14.83,0,0,1-14.56-14.46l-1.9-75.3a14.82,14.82,0,0,1,15.19-15.2c25.65.66,76.76,1.51,105.23-1.12A14.8,14.8,0,0,1,1202.1,813.55Z" transform="translate(-591.99 -376.3)"/><path class="cls-148" d="M1079.72,801.83,1049.78,805A12.61,12.61,0,0,0,1038.51,818l2.28,74.71a12.61,12.61,0,0,0,11.82,12.21l27.66,1.73" transform="translate(-591.99 -376.3)"/><g class="cls-152"><path class="cls-150" d="M1079.72,801.83,1049.78,805A12.61,12.61,0,0,0,1038.51,818l2.28,74.71a12.61,12.61,0,0,0,11.82,12.21l27.66,1.73" transform="translate(-591.99 -376.3)"/></g><path class="cls-150" d="M1088.2,912.64c-2,0-4.11,0-6.17,0a20.57,20.57,0,0,1-20.28-20.13l-1.91-75.31A20.66,20.66,0,0,1,1081,796c27.09.69,76.71,1.47,104.55-1.1a20.57,20.57,0,0,1,22.32,17.91l8.4,64.84a20.71,20.71,0,0,1-16.34,22.89C1177.28,905.14,1133.46,912.64,1088.2,912.64Zm-7.73-105a9,9,0,0,0-9,9.23l1.9,75.31a9,9,0,0,0,8.82,8.78c46.29.69,92.18-7.11,115.4-11.84a9,9,0,0,0,7.12-10l-8.4-64.84a9,9,0,0,0-9.71-7.81c-28.43,2.62-78.56,1.84-105.91,1.14h-.24Z" transform="translate(-591.99 -376.3)"/><path class="cls-150" d="M1080.28,912.44h-.37l-27.66-1.74A18.38,18.38,0,0,1,1035,892.84l-2.28-74.7a18.54,18.54,0,0,1,16.49-18.91L1079.1,796a5.82,5.82,0,0,1,1.24,11.58l-29.94,3.19a6.83,6.83,0,0,0-6.07,7l2.28,74.71a6.76,6.76,0,0,0,6.37,6.58l27.66,1.73a5.83,5.83,0,0,1-.36,11.64Z" transform="translate(-591.99 -376.3)"/><path class="cls-150" d="M1143.42,909.88a5.83,5.83,0,0,1-5.81-5.48l-2.23-38.16-19.32-13a5.78,5.78,0,0,1-2.55-4.42l-3.16-46A5.82,5.82,0,0,1,1122,802l3,43.12,19.36,13.05a5.83,5.83,0,0,1,2.55,4.49l2.4,41a5.83,5.83,0,0,1-5.48,6.15Z" transform="translate(-591.99 -376.3)"/><path class="cls-161" d="M1197.75,848.39c.24,2.31-1.07,21.3-1.07,21.3l-13.17,1.37c-9.06.94-17.39-7.68-18.59-19.26s5.17-21.73,14.23-22.67l13.17-1.37S1197.36,844.62,1197.75,848.39Z" transform="translate(-591.99 -376.3)"/><path class="cls-148" d="M1197.74,848.39c.25,2.31-1,21.3-1,21.3l-.44,0c.34-5.48.68-12,.55-13.28-.38-3.76-5.42-20.62-5.42-20.62l-13.17,1.37c-6.33.65-11.36,5.82-13.41,12.82-.43-10.83,5.75-20,14.36-20.89l13.16-1.37S1197.36,844.62,1197.74,848.39Z" transform="translate(-591.99 -376.3)"/><path class="cls-150" d="M1182.18,876.08c-11,0-20.78-10.24-22.18-23.77-1.49-14.27,6.88-26.88,18.64-28.1l9.19-1a9.73,9.73,0,0,1,10.37,7c4.11,14.19,4.38,16.79,4.47,17.64h0c.07.69.24,2.29-.78,18.1a9.72,9.72,0,0,1-8.72,9.06l-9.14,1A16.51,16.51,0,0,1,1182.18,876.08Zm6.55-43-9.07.94c-6.23.65-10.72,8.54-9.82,17.24s6.94,15.47,13.16,14.85l9-.94c.68-10.54.86-15.38.8-16.34C1192.68,847.57,1191.53,842.78,1188.73,833.11Z" transform="translate(-591.99 -376.3)"/><ellipse class="cls-161" cx="1194.5" cy="848.72" rx="16.5" ry="21.08" transform="translate(-673.38 -248.17) rotate(-5.94)"/><path class="cls-148" d="M1210.91,847a27.21,27.21,0,0,1,.11,4.12c-2.51-9.44-9.88-16-17.84-15.16s-13.86,8.78-14.34,18.56a27.37,27.37,0,0,1-.76-4.11c-1.2-11.58,5.18-21.73,14.24-22.67S1209.7,835.44,1210.91,847Z" transform="translate(-591.99 -376.3)"/><path class="cls-150" d="M1195.29,874.71a20,20,0,0,1-14.42-6.52,30.32,30.32,0,0,1-3.71-35.71c3.51-5.6,8.72-9,14.65-9.64s11.72,1.66,16.31,6.41a29.18,29.18,0,0,1,7.72,17.26h0a29.21,29.21,0,0,1-4,18.47c-3.52,5.6-8.72,9-14.65,9.64A17.28,17.28,0,0,1,1195.29,874.71Zm-1.63-42.07a7.81,7.81,0,0,0-.83,0c-2.84.3-5.43,2.09-7.29,5.06a20.5,20.5,0,0,0,2.45,23.58c2.44,2.52,5.34,3.75,8.18,3.45s5.42-2.09,7.29-5.06a19.25,19.25,0,0,0,2.53-12.18h0a19.23,19.23,0,0,0-5-11.4A10.33,10.33,0,0,0,1193.66,832.64Z" transform="translate(-591.99 -376.3)"/><path class="cls-148" d="M917.21,828.15s39.39,17.82,133.06,14.6c0,0,17.16,16.45,0,30s-113.75,21.4-139.55-6.44C894.39,848.72,917.21,828.15,917.21,828.15Z" transform="translate(-591.99 -376.3)"/><g class="cls-152"><path class="cls-150" d="M1050.27,872.79c-17.15,13.58-113.74,21.4-139.55-6.44C903,858,904,848.93,907.33,841.74a23.68,23.68,0,0,0,3.39,4.6c25.81,27.84,122.4,20,139.55,6.45a23.68,23.68,0,0,0,4.35-4.41C1058.22,854.37,1061.17,864.15,1050.27,872.79Z" transform="translate(-591.99 -376.3)"/></g><path class="cls-150" d="M982.27,890.93c-21.88,0-59.3-2.8-75.82-20.62-5.24-5.66-7.73-12.14-7.41-19.26.66-14.79,13.72-26.73,14.27-27.23l2.83-2.55,3.46,1.57c.6.26,39.95,17.21,130.47,14.09l2.46-.08,1.77,1.7c1,1,10,9.88,9.4,21.41-.22,4.56-2.09,11.28-9.81,17.39-11.51,9.12-44.42,13.43-70.12,13.58ZM918.71,835c-3,3.41-7.75,9.85-8,16.63-.17,3.93,1.25,7.46,4.32,10.78,23.64,25.51,117.18,17.3,131.67,5.83,3.49-2.76,5.26-5.64,5.4-8.81.2-4.1-2.37-8.31-4.3-10.75C970.8,851,930.73,839.31,918.71,835Z" transform="translate(-591.99 -376.3)"/><g class="cls-152"><path class="cls-150" d="M1254.43,966.46c-14.1,17-59.33,33.48-83.67,18.23-20.34-12.74-21-31-35.4-41.47a63.85,63.85,0,0,0-7.26-3.41c45.66-14.4,87.44-21.62,125-24C1269.32,935.72,1266.11,952.34,1254.43,966.46Z" transform="translate(-591.99 -376.3)"/></g><path class="cls-148" d="M1057.9,750.87c51,63.64,135.16,102.66,185.44,148,27.56,24.86,23.22,36.82,9.47,53.45-14.09,17-47.19,33.49-71.53,18.23-20.34-12.74-21.6-24.85-36-35.34-5.68-4.14-97.13-28.41-147.9-107.54" transform="translate(-591.99 -376.3)"/><g class="cls-152"><path class="cls-150" d="M1252.81,952.34c-14.08,17-47.19,33.49-71.53,18.23-20.34-12.73-21.61-24.84-36-35.35-5.68-4.14-97.14-28.4-147.9-107.54l1-1.32c56.62,59.53,115.64,63.09,154.84,93.26,14.13,10.88,15.35,14.48,35.69,27.21,24.35,15.26,57.45-1.18,71.53-18.22.91-1.09,1.77-2.16,2.58-3.22C1265.36,935,1260.6,942.93,1252.81,952.34Z" transform="translate(-591.99 -376.3)"/></g><path class="cls-150" d="M1059.62,749.49c10.82,7.65,19.76,16.33,29.32,24.66,9.38,8.43,19,16.65,28.75,24.82,9.91,8,20.16,15.59,30.67,22.91s21.11,14.58,31.75,21.82,21.37,14.48,31.91,22.1c2.65,1.86,5.28,3.79,7.88,5.75s5.24,3.88,7.83,5.87c5.12,4.09,10.31,8.06,15.25,12.45a150.58,150.58,0,0,1,14.6,13.89c1.13,1.33,2.28,2.64,3.39,4s2.15,2.86,3.16,4.39l1.44,2.4.72,1.21c.22.42.42.87.63,1.31l1.21,2.67c.36.93.63,1.93.94,2.9a26.22,26.22,0,0,1,.64,12.59,35,35,0,0,1-4.38,11,77.15,77.15,0,0,1-6.11,8.63c-1,1.31-2.22,2.67-3.44,4s-2.52,2.55-3.79,3.8a80.91,80.91,0,0,1-17.2,12,75.68,75.68,0,0,1-19.85,7.17,55,55,0,0,1-21.78.27l-2.74-.63a16.32,16.32,0,0,1-2.7-.79c-1.75-.69-3.57-1.22-5.24-2.08s-3.36-1.76-5-2.68-2.91-1.88-4.32-2.92a77.32,77.32,0,0,1-8.15-6.7,84,84,0,0,1-7.12-7.68c-4.35-5.3-7.82-10.39-11.89-14.22-.49-.51-1-.94-1.56-1.42a18.74,18.74,0,0,0-1.61-1.34l-.83-.65-.42-.32-.21-.17c-.09-.07,0,0,0,0a.37.37,0,0,0,.12.07l-.34-.15c-.28-.13-.49-.24-.87-.38-2.7-1.12-5.81-2.28-8.81-3.44-6.07-2.34-12.15-4.81-18.15-7.44-24-10.51-47.07-23.6-67.86-39.9-5.23-4-10.24-8.35-15.16-12.76s-9.83-8.88-14.41-13.69a86.46,86.46,0,0,1-6.59-7.47c-1.05-1.29-2.09-2.58-3-4s-1.92-2.72-2.83-4.11a69.79,69.79,0,0,1-4.78-8.8,52.66,52.66,0,0,1-3.2-9.69,2.34,2.34,0,0,1,3.59-2.45l.11.07a67.89,67.89,0,0,1,7.63,6.31c2.43,2.13,4.55,4.45,6.76,6.68,1.1,1.13,2.15,2.28,3.2,3.45s2.14,2.27,3.18,3.44,2.1,2.3,3.11,3.48,2.12,2.3,3.15,3.47a180.26,180.26,0,0,0,13,13.52c4.65,4.2,9.42,8.29,14.39,12.13,19.77,15.5,41.87,28.07,65,38.2,5.8,2.55,11.66,4.92,17.61,7.22,3,1.17,5.93,2.25,9.18,3.59.38.14.9.38,1.35.59.26.12.42.18.75.35s.78.44,1.17.68c.16.1.44.28.5.33l.27.21.54.41,1.07.84a51.75,51.75,0,0,1,4.1,3.58c5.3,5.06,9.1,10.73,12.93,15.35a65.19,65.19,0,0,0,12.77,12c1.18.88,2.46,1.65,3.69,2.49l3.54,1.91c1.18.63,2.5,1,3.73,1.48a9.73,9.73,0,0,0,1.93.56l2,.45a42.11,42.11,0,0,0,16.57-.26A66.73,66.73,0,0,0,1243,953c1-1,2.14-2,3-3s1.89-2.07,2.84-3.32a62.43,62.43,0,0,0,5.06-7.1,22,22,0,0,0,2.77-6.8,13,13,0,0,0-.36-6.5c-1.3-4.5-4.64-9.31-8.63-13.71a138.92,138.92,0,0,0-13.4-12.69c-4.68-4.18-9.73-8-14.67-12-2.52-1.93-5.09-3.81-7.63-5.72s-5.11-3.8-7.73-5.63c-10.33-7.47-21-14.65-31.62-21.9s-21.35-14.46-31.94-22-21-15.23-31.5-23c-10.32-8-20.63-16.11-29.76-25.6-9.39-9.15-17.62-19.74-23.32-31.85a2.27,2.27,0,0,1,3.35-2.81Z" transform="translate(-591.99 -376.3)"/><path class="cls-150" d="M1061.86,899.09a5.43,5.43,0,0,1-1.38-.17,5.82,5.82,0,0,1-4.28-7c.79-3.25,19.93-79.19,72.82-79.19h.86a5.82,5.82,0,1,1-.18,11.64h-.65c-43.88,0-61.36,69.59-61.53,70.3A5.83,5.83,0,0,1,1061.86,899.09Z" transform="translate(-591.99 -376.3)"/><path class="cls-150" d="M1277.53,778.72a5.85,5.85,0,0,1-2.84-.74c-29.37-16.5-31.51-95.88-31.66-104.88a5.83,5.83,0,0,1,5.72-5.92h.1a5.83,5.83,0,0,1,5.82,5.73c.38,22.59,5.74,83.69,25.72,94.91a5.82,5.82,0,0,1-2.86,10.9Z" transform="translate(-591.99 -376.3)"/><path class="cls-150" d="M1325.75,629.76c.06.36.09,1,.13,1.6l.11,1.78c.1,1.2.14,2.42.26,3.63.16,2.44.47,4.88.82,7.34s.85,4.91,1.33,7.48,1,5.19,1.37,8.32a20.1,20.1,0,0,1-7-5.54,27.28,27.28,0,0,1-2.56-3.66,42.2,42.2,0,0,1-2-4,39.81,39.81,0,0,1-2.56-8.54,38.74,38.74,0,0,1-.49-4.46c0-.75-.06-1.5,0-2.27a19.44,19.44,0,0,1,.21-2.46,5.19,5.19,0,0,1,10.27-.15Z" transform="translate(-591.99 -376.3)"/></svg>