<svg id="Layer_6" data-name="Layer 6" xmlns="http://www.w3.org/2000/svg" xmlns:xlink="http://www.w3.org/1999/xlink" viewBox="0 0 3348.37 3156.95"><defs><style>.cls-1{fill:none;}.cls-2{fill:#fff;}.cls-3{opacity:0.25;}.cls-4{fill:#371b45;}.cls-5{opacity:0.3;}.cls-6{fill:#0096f0;}.cls-7{fill:#121a27;}.cls-8{opacity:0.5;}.cls-9{opacity:0.2;}.cls-10{fill:#371a45;}.cls-11{fill:#99a4c4;}.cls-12{fill:#ffd243;}.cls-13{opacity:0.6;}.cls-14{fill:#ff9d33;}.cls-15{fill:#00bdff;}.cls-16{clip-path:url(#clip-path);}.cls-17{fill:#5ce205;}.cls-18{fill:#54a520;}.cls-19{opacity:0.4;}.cls-20{opacity:0.35;}</style><clipPath id="clip-path" transform="translate(729.25 922.64)"><circle class="cls-1" cx="1938.05" cy="238.57" r="347.12"/></clipPath></defs><path class="cls-2" d="M444.49,303.83,325.77,893.07l-102.3,507.84c-146.89.64-221.08-79.06-223.75-183.29-2.3-89.1-18.22-549.26,45.65-748.26,10.8-33.78,23.95-60.08,39.87-75.68C194.82,286,444.49,303.83,444.49,303.83Z" transform="translate(729.25 922.64)"/><g class="cls-3"><path class="cls-4" d="M325.77,893.07l-102.3,507.84c-146.89.64-221.08-79.06-223.75-183.29-2.3-89.1-18.22-549.26,45.65-748.26l11.38-12.13s-33,242.24,114,306.22C242.12,794.56,291.46,836.46,325.77,893.07Z" transform="translate(729.25 922.64)"/></g><path class="cls-4" d="M221.74,1422.27c-147,0-240.16-78.08-243.39-204.1l-.39-14.44c-13-474.62,18-752.29,92.3-825.28,115.13-113.15,365.15-96.74,375.74-96a21.38,21.38,0,0,1-3,42.65c-2.4-.16-241.4-15.78-342.74,83.82C63.39,445.15,4.06,596.4,20.71,1202.56l.39,14.52c2.6,101.79,77.57,162.43,200.63,162.43.58,0,1.16,0,1.73,0a21.39,21.39,0,0,1,.09,42.77Z" transform="translate(729.25 922.64)"/><path class="cls-2" d="M196.37,1178.87s-147.21-8-200.07-29.4S-41.26,931.66-41.26,931.66l375.05,45.43" transform="translate(729.25 922.64)"/><g class="cls-5"><path class="cls-4" d="M196.37,1178.87s-147.21-8-200.07-29.4S-41.26,931.66-41.26,931.66l375.05,45.43" transform="translate(729.25 922.64)"/></g><path class="cls-4" d="M196.39,1200.25c-.4,0-.79,0-1.18,0-6.16-.34-151.4-8.47-206.93-30.93C-74.23,1144-66.45,979.74-62.57,930a21.45,21.45,0,0,1,23-19.65,21.38,21.38,0,0,1,19.66,23c-7.34,94.65,4.22,188.23,24.26,196.34,40.65,16.44,153.26,25.68,193.21,27.86a21.38,21.38,0,0,1-1.14,42.73Z" transform="translate(729.25 922.64)"/><path class="cls-2" d="M1313.6,2115.71a55.14,55.14,0,0,1-46.23,44.09c-68.8,9.79-223.54,25.45-368.55-4.38a617.09,617.09,0,0,1-67-17.53l-46.34-71.3s-2.24-381.27-34.1-507.79l71-44.9,64-40.41,365.61-231.07s-6.79,352-36.19,683.43c0,0,79.16,12.13,98.89,97C1320.34,2047.29,1321.08,2077.76,1313.6,2115.71Z" transform="translate(729.25 922.64)"/><path class="cls-4" d="M1085.78,2194.06c-81.9,0-175.67-8.27-260.61-35.85a21.35,21.35,0,0,1-11.32-8.69l-46.32-71.27a21.34,21.34,0,0,1-3.46-11.52c0-3.79-2.59-380.14-33.43-502.69a21.38,21.38,0,0,1,41.46-10.44c30.23,120.07,34.24,454.71,34.68,506.59l38.75,59.62c156.54,48.43,344.5,29.43,418.84,18.84a33.83,33.83,0,0,0,28.24-27.09c10.19-51.57,5.05-92.6-15.26-122-24.62-35.57-64.59-42.59-65-42.65a21.51,21.51,0,0,1-17.92-23c29-326.88,36-678.44,36.11-682a21.39,21.39,0,0,1,21.37-21h.43a21.39,21.39,0,0,1,21,21.79c-.07,3.47-6.9,344-34.72,667.13,19.84,6.92,50.73,22.24,73.42,54.6,27.55,39.29,35.15,91.54,22.56,155.28a76.67,76.67,0,0,1-64.18,61.15A1344.34,1344.34,0,0,1,1085.78,2194.06Z" transform="translate(729.25 922.64)"/><path class="cls-2" d="M1903.86,1005.1c-4.12,3.32-6.63,5-6.63,5-46.34,46.29-55.21,74.83-286.87,85.52-172,8-267.84-37.68-305.79-61.68v-.05c-13.15-8.29-19.35-14-19.35-14v96.22c-16,320.7-465.93,373.24-465.93,373.24s-1.77,80.18-48.32,185.32-41.64,269-41.64,269c83.11,14.22,128.28,70.55,145.12,126.57a174.88,174.88,0,0,1,7.8,56.82c-.48,15.71-3.42,29.93-8.5,41.42-5.56,12.78-13.79,22.13-24.16,26.41-60.56,25-570.16,42.76-600.41-80.18s46.29-457.86-17.85-684.17-20.48-391.21-20.48-391.21c-147.63,31.54-385.43,12.45-450.7,6.31a100.35,100.35,0,0,1-36.45-10.69,358.84,358.84,0,0,1-65.16-43.24c-44.57-37.1-30.94-74-30.94-74s-.59-.27-1.77-.91c-2.08-1-5.88-3-10.85-5.94-22.29-12.82-67-42.76-77-80.06-9.24-34.75,11-57,24.32-67.3a66.86,66.86,0,0,1,10.43-6.84s-19.35-76.81,22.77-81.51,104,97.12,104,97.12L-217.66,741c-32.93-91.72,8-123.79,41.9-121.12,17.37,1.39,33.2,31,44.47,59.49a482,482,0,0,1,17.43,53.19l199.1-34.11s25-64.35,125.61-205.09C288,385.44,397.29,325.9,444,304c14.16-6.68,22.61-9.84,22.61-9.84s215.51-93,523.66,0,432.15,455.73,432.15,455.73c82.85,24.05,236.3,19.35,236.3,19.35s11.34-40.09,46.72-66.82c52.86-39.87,88.19,2,75.53,22.77s-20,57.41-20,57.41l108.24,6c17.37-45.43,61.9-46.77,61.9-46.77,52.59-8,42.76,72.16,42.76,72.16C2001,918.35,1927,986.77,1903.86,1005.1Z" transform="translate(729.25 922.64)"/><path class="cls-4" d="M636.27,2234.3c-126.4,0-272.83-13-349-51.67-32.88-16.68-52.68-37.8-58.84-62.81-13.23-53.69-7.54-141.41-1-243,9-138.4,20.13-310.64-16.67-440.46-49.12-173.28-36.8-310.57-27.06-370.3-149.66,23.68-360.86,6.91-425.53.83A121.5,121.5,0,0,1-286,1054a381,381,0,0,1-69.11-45.88c-35-29.11-41-59.55-40.49-78.61-25.15-14.38-74.88-47.82-87-93.2-11.37-42.62,11-73.49,31.62-89.66-3-19.42-4.95-51.35,9.75-72.52,8.07-11.65,20-18.65,34.39-20.26,44.08-4.83,91.95,57.37,115.08,92.24l47.62-17.93c-14.88-54.16-3.41-85.63,9.81-102.93a68.55,68.55,0,0,1,60.26-26.67c37.31,2.94,62.11,63.35,75.72,109.66L70.31,679.34C81.74,654.86,115,590.68,193.46,480.92,295,339,447.17,278.75,458.61,274.37c14.39-6.1,229.93-93.59,537.87-.63,130.74,39.47,249.4,133.25,343.12,271.2,57.1,84,88.55,159.68,99.05,187.2,65.37,16,167.92,16.47,205.26,16.05,7.27-16.4,22.13-42.72,48.68-62.77,41.07-31,77.12-22.49,95.51-5.79,17.08,15.5,21.76,39.37,11.11,56.75-4.28,7-8.06,16.94-11,26.39l67.86,3.77c23-40.09,64.06-45.26,72.81-45.91,22.91-3.2,37.52,5.63,45.79,13.65,23.21,22.53,22.14,63.23,20.85,78.23,25.37,105.41-42.88,185.11-84.54,214.06-3,3-5.83,6-8.58,8.81-45.27,46.85-78.78,71.76-291,81.56-160.06,7.39-257.16-30.34-304.76-56.94v56.07c0,.35,0,.71,0,1.07-7,139.55-93.88,252-251.31,325.21C964.5,1484.55,876,1502.1,839.35,1508c-3.15,30.43-13.7,95.92-48.84,175.26-35.57,80.3-39.67,199.43-39.92,243,100.27,25.1,144.64,108.22,152,174.67,6.14,55.31-11.47,99.94-44.87,113.69C831.68,2225.38,740.82,2234.3,636.27,2234.3ZM210.85,1017.94a21.38,21.38,0,0,1,20.67,26.85c-.41,1.57-41.21,162.6,20.4,379.91,38.8,136.9,27.37,313.22,18.19,454.89-6.35,98-11.84,182.72-.19,230,3.8,15.41,22,27.48,36.66,34.9,129.41,65.62,491.64,48.43,534.87,30.62,12.39-5.09,22.75-32.46,18.65-69.42-6.16-55.47-45-125.66-134.38-141A21.4,21.4,0,0,1,708,1944.31c-.2-6.9-4.53-170,43.45-278.34,44.05-99.43,46.5-176.38,46.52-177.15a21.42,21.42,0,0,1,18.89-20.72c1.09-.13,111.25-13.55,221.34-64.95,143.36-66.93,219.28-163.7,225.68-287.63v-95.66a21.38,21.38,0,0,1,35.88-15.71c.8.72,91.53,80.15,309.67,70.07,205.15-9.47,226.64-31.71,262.23-68.55,3.35-3.47,6.81-7,10.5-10.73a21.06,21.06,0,0,1,3.18-2.63c3.87-2.63,95.6-66.52,67.86-172.85a21.46,21.46,0,0,1-.54-8c1.72-14.67,0-39-7.77-46.53-.94-.91-3.11-3-10.54-1.9a22.47,22.47,0,0,1-2.58.23c-2.92.16-30.92,2.52-42.59,33A21.26,21.26,0,0,1,1868,810l-108.25-6A21.4,21.4,0,0,1,1740,778.47c.82-4.07,8.27-40,22.11-63.32-.44-1.39-2.22-4.3-6.23-6.18-9.2-4.31-22.85-.45-37.48,10.58-28.88,21.79-39,55.25-39.08,55.58a21.39,21.39,0,0,1-19.92,15.55c-6.39.18-157.8,4.49-242.91-20.22a21.38,21.38,0,0,1-14.27-13.62c-1.21-3.51-124.27-353.47-418.07-442.17-296.25-89.44-507-1.72-509-.82l-.89.36h0c-1.5.56-150.45,58.09-245.93,191.59C131.06,641.7,105.41,705.62,105.16,706.25a21.5,21.5,0,0,1-16.31,13.3l-199.1,34.08a21.38,21.38,0,0,1-24.33-15.78c-11.64-45.53-32.25-91.23-43.54-96.72a25.73,25.73,0,0,0-22.25,10c-11.6,15.18-10.56,45.3,2.85,82.62A21.38,21.38,0,0,1-210.12,761L-293,792.21a21.41,21.41,0,0,1-25.79-8.89c-28.75-47.18-68.57-88.72-83.38-87-2.53.28-3.22,1-4,2.13-6.56,9.46-4.43,36.81-.37,52.91a21.38,21.38,0,0,1-11.17,24.35c-3.17,1.66-32.11,17.78-23.64,49.54,8.84,33.14,59.43,64,78.18,73.12,10.2,4.94,15.18,16,10.85,26.4-1,3.59-5.5,25.48,24.48,50.45a338.44,338.44,0,0,0,61.25,40.68,79.25,79.25,0,0,0,28.72,8.4c67.84,6.37,300.4,24.81,444.2-5.91A21.29,21.29,0,0,1,210.85,1017.94ZM466.61,294.21h0Z" transform="translate(729.25 922.64)"/><path class="cls-4" d="M-198.21,732.37l7.74,37.26a21.15,21.15,0,0,1-.52,10.66c-1,9.22-6.88,17.73-9.81,26.61-6.48,17.79-11.23,36.78-8.82,55.79a58,58,0,0,0,10.91,27.55c-9.32-4.94-17.47-13.22-23.2-23.07-11.48-19.89-14.72-43.56-14.76-66.19.48-11.64-.67-23.44,5.11-34.16l-.78,11.51-7.74-37.26c-4.9-27.81,35.25-36.22,41.87-8.7Z" transform="translate(729.25 922.64)"/><path class="cls-4" d="M-392.26,909.64c15.54-34.3,33.89-69.48,68-89.12,26.2-15.37,65.46-5.2,78,23.85,10.35,24.14,3.68,49.64-4.88,71.72a157.56,157.56,0,0,1-6.93,15.08L-276,899.61c18.85,5.67,35.53,18.91,46.64,34.77a82.1,82.1,0,0,1,8.26,15.32A76.46,76.46,0,0,0-236,942.77c-13.28-4.38-27.87-5.3-41.07-1-.27.16-1.15.39-.7.59l-17.92-31.56c7.56-15.86,15-34.65,10.43-48.78-21.48-27.32-61.19,46.56-67.51,64-11.57,25.74-49.53,10.09-39.5-16.37Z" transform="translate(729.25 922.64)"/><path class="cls-4" d="M-333,864.19a21.41,21.41,0,0,1-19.58-12.77c-28.94-65.68-75.55-73.33-77.52-73.63A21.26,21.26,0,0,1-448.57,754a21.52,21.52,0,0,1,24-18.58c2.92.36,72,9.86,111.15,98.79a21.38,21.38,0,0,1-10.94,28.19A21.42,21.42,0,0,1-333,864.19Z" transform="translate(729.25 922.64)"/><path class="cls-4" d="M181.06,1066.22a21.68,21.68,0,0,1-5.37-.69,21.38,21.38,0,0,1-15.34-26.06C215.93,824.71,78.46,720.05,72.58,715.7a21.38,21.38,0,0,1,25.27-34.49c6.84,5,167,125.24,103.9,369A21.41,21.41,0,0,1,181.06,1066.22Z" transform="translate(729.25 922.64)"/><rect class="cls-2" x="1461.91" y="1713.75" width="571.93" height="393.76" rx="74.83"/><path class="cls-4" d="M1229.75,1198.22H807.49a88.29,88.29,0,0,1-88.2-88.19V865.93a88.3,88.3,0,0,1,88.2-88.19h422.26a88.3,88.3,0,0,1,88.2,88.19V1110A88.3,88.3,0,0,1,1229.75,1198.22ZM807.49,804.47A61.53,61.53,0,0,0,746,865.93V1110a61.54,61.54,0,0,0,61.47,61.47h422.26a61.55,61.55,0,0,0,61.47-61.47V865.93a61.54,61.54,0,0,0-61.47-61.46Z" transform="translate(729.25 922.64)"/><path class="cls-4" d="M916.09,1198.22a88.3,88.3,0,0,1-88.2-88.19V865.93a88.3,88.3,0,0,1,88.2-88.19,13.37,13.37,0,0,1,0,26.73,61.53,61.53,0,0,0-61.47,61.46V1110a61.54,61.54,0,0,0,61.47,61.47,13.36,13.36,0,0,1,0,26.72Z" transform="translate(729.25 922.64)"/><path class="cls-4" d="M1038.22,1198.22a13.37,13.37,0,0,1-13.37-13.36V1064.15a13.37,13.37,0,0,1,6.27-11.33l115.39-72.27c.46-66.79.87-167.77.11-177.56a13.36,13.36,0,0,1,26.16-5.33c.52,2.09,1.75,7,.4,190.42a13.34,13.34,0,0,1-6.27,11.22l-115.33,72.24v113.32A13.36,13.36,0,0,1,1038.22,1198.22Zm108.43-395.05a8.46,8.46,0,0,0,.2,1C1146.77,803.83,1146.7,803.5,1146.65,803.17Z" transform="translate(729.25 922.64)"/><ellipse class="cls-6" cx="1675.36" cy="1886.48" rx="56.88" ry="73.5"/><path class="cls-4" d="M968.42,1052.66c-7.26,0-15.22-1-23.95-2.06-39.76-4.92-68.61-41.41-68.61-86.76,0-47.9,31.51-86.86,70.25-86.86,3.67,0,7.27-.09,10.77-.17,18.45-.44,35.89-.87,48.06,11.32,8.11,8.12,11.84,20.21,11.41,37-2,77.31-5.38,105.37-21.4,119.17C987.46,1050.7,978.66,1052.66,968.42,1052.66ZM966.8,903.38c-3,0-6.16.07-9.28.15-3.7.09-7.52.18-11.41.18-24,0-43.52,27-43.52,60.13,0,31.66,19,57,45.16,60.23,13.93,1.73,26,3.2,29.76-.07,9-7.76,10.88-51.55,12.12-99.61.23-8.66-1-14.82-3.6-17.38C983,904,975.42,903.38,966.8,903.38Z" transform="translate(729.25 922.64)"/><ellipse class="cls-2" cx="1719.55" cy="1886.48" rx="50.11" ry="73.5"/><ellipse class="cls-6" cx="1719.55" cy="1886.48" rx="50.11" ry="73.5"/><path class="cls-4" d="M990.3,1050.7c-35.6,0-63.48-38.15-63.48-86.86S954.7,877,990.3,877s63.47,38.15,63.47,86.86S1025.89,1050.7,990.3,1050.7Zm0-147c-19.93,0-36.75,27.53-36.75,60.13S970.37,1024,990.3,1024,1027,996.44,1027,963.84,1010.21,903.71,990.3,903.71Z" transform="translate(729.25 922.64)"/><path class="cls-2" d="M377.44,913.84l363.9,28.71A29.62,29.62,0,0,1,771,972.17v67.7a29.62,29.62,0,0,1-29.62,29.62l-530.49-30.17C265.9,1003.32,341.8,964.66,377.44,913.84Z" transform="translate(729.25 922.64)"/><path class="cls-4" d="M741.34,1082.86c-.25,0-.51,0-.76,0l-530.49-30.17a13.36,13.36,0,0,1-4.91-25.44c57.92-27.13,117.07-71.7,162.3-122.28a13.29,13.29,0,0,1,11-4.42l363.43,28.67a43,43,0,0,1,42.4,43v67.71A43,43,0,0,1,741.34,1082.86Zm-482.27-54.18,482.59,27.45a16.28,16.28,0,0,0,15.93-16.25V972.17a16.27,16.27,0,0,0-16.25-16.25c-.35,0-.7,0-1.05,0L382.94,927.68A568.45,568.45,0,0,1,259.07,1028.68Z" transform="translate(729.25 922.64)"/><path class="cls-4" d="M368,904.42c54.16-50.2,104.39-106.24,143.55-169.19-15.76,34-34.83,66.62-55.86,97.73a968.18,968.18,0,0,1-68.74,90.31A13.4,13.4,0,1,1,368,904.42Z" transform="translate(729.25 922.64)"/><path class="cls-4" d="M1271.1,818c-24.9-100-54.84-199.92-100.8-292.54,13.65,22.08,26.13,44.92,37.9,68.15,34.74,70.24,63.66,142.9,88.65,217.25,5.25,17.67-21.08,25.1-25.75,7.14Z" transform="translate(729.25 922.64)"/><path class="cls-4" d="M1304.58,889.79a13.36,13.36,0,0,1-12.42-18.28c43.56-110,123.27-133.5,126.64-134.45a13.36,13.36,0,0,1,7.27,25.72c-3,.86-70.67,21.61-109.07,118.57A13.35,13.35,0,0,1,1304.58,889.79Z" transform="translate(729.25 922.64)"/><path class="cls-4" d="M1874.16,1006.34c3.13-25.16,8.18-53.82,2.58-78.22-3.33-15.57-15.83-26.22-31.39-22.07-21.85,8.05-35.92,26-48.78,48.77-2.75-24.05,6.21-52.35,25.51-71.14,33.45-32.13,85.87-11.95,99.43,29.59,10.56,30,7.55,60.14-.62,89.36a145.07,145.07,0,0,1-5.93,16.53,21.5,21.5,0,0,1-40.8-12.82Z" transform="translate(729.25 922.64)"/><path class="cls-4" d="M1878.91,914.67a21.6,21.6,0,0,1-6.72-1.08,21.38,21.38,0,0,1-13.58-27c28.11-85,90-98.35,118.74-93.59a21.38,21.38,0,0,1-6.74,42.22c-5.15-.67-48.59-4.17-71.4,64.8A21.38,21.38,0,0,1,1878.91,914.67Z" transform="translate(729.25 922.64)"/><path class="cls-4" d="M1781.37,789l-52.51,97.85,11.64-110.44a21.79,21.79,0,0,1,24-19.38c15.14,1.26,24.3,18.81,16.92,32Z" transform="translate(729.25 922.64)"/><path class="cls-4" d="M798,1491.46l8.8-126.85,33.75,122.6a21.69,21.69,0,0,1-15.16,26.66c-14.09,4.17-28.64-7.85-27.39-22.41Z" transform="translate(729.25 922.64)"/><path class="cls-4" d="M541.17,1810c-151.89,0-285.43-64.16-293.63-68.18a21.38,21.38,0,0,1,18.8-38.41h0c2.77,1.36,279.39,133.93,473.6,11a21.38,21.38,0,1,1,22.86,36.13C692.76,1794.89,614.8,1810,541.17,1810Z" transform="translate(729.25 922.64)"/><path class="cls-4" d="M722.22,1963.83c-43-18.35-93.74-11.2-137.19,3.6-6.71,2.44-13.32,5.22-20.06,7.86,5.84-4.17,11.64-8.54,17.66-12.64,43.61-28.68,96.91-47.58,149.79-40,30.46,5.71,19.65,50.08-10.2,41.2Z" transform="translate(729.25 922.64)"/><path class="cls-4" d="M980.17,1788.53c-75.38,0-154.52-11.48-218-47.31a21.38,21.38,0,1,1,21-37.24c157.46,88.83,438.54,8,441.36,7.12a21.38,21.38,0,0,1,12,41C1228.8,1754.4,1110.11,1788.53,980.17,1788.53Z" transform="translate(729.25 922.64)"/><path class="cls-4" d="M1212.82,1947c-42.16-9.86-87.22-11.35-129.45-.22A172.05,172.05,0,0,0,1042,1964.6a177.77,177.77,0,0,1,37.28-27.68c42.69-22.79,91.88-32.37,140.21-32.23,32.06,2.78,24.72,49.58-6.69,42.34Z" transform="translate(729.25 922.64)"/><path class="cls-4" d="M63.88,390.79c45.35-10.33,93.59,4.17,131.44,29,15.85,10.47,30.82,23.85,44,37.41-6.56-3.92-13-8-19.5-11.66-34.43-18.64-75.26-29.76-114.16-23-9,1.6-18.66,3.86-26.42,8.11C52.58,440,37.79,401.76,63.88,390.79Z" transform="translate(729.25 922.64)"/><g class="cls-3"><path class="cls-4" d="M1903.86,1005.1c-4.12,3.32-6.63,5-6.63,5-46.34,46.29-55.21,74.83-286.87,85.52-172,8-267.84-37.68-305.79-61.68v-.05l-6.79-199.11c85.63,223.91,481.43,158.11,481.43,158.11,88.73,14.91,120-71.94,120-71.94l4.49,54.84S1903.86,988,1903.86,1005.1Z" transform="translate(729.25 922.64)"/></g><g class="cls-3"><path class="cls-4" d="M990.28,450.07S764.5,530.94,482.6,495.18c-45.27-5.77-90.6,9.94-123.42,41.64C309.9,584.34,234.53,663.66,155.42,771.31c0,0-222.51,46.77-259.93,10.69s-26.78-102.63-26.78-102.63a482,482,0,0,1,17.43,53.19l199.1-34.11s25-64.35,125.61-205.09C288,385.44,397.29,325.9,444,304Z" transform="translate(729.25 922.64)"/></g><path class="cls-2" d="M121.4-197c9.81,378.84,330,677.89,715.23,667.91,125.09-3.24,241.59-38.66,341.64-98C1386.38,249.49,1523,22.66,1516.38-233.18c-4.42-170.72-71.89-325.2-179.89-442.55-131.76-143-323.74-230.78-535.39-225.3C415.9-891.06,111.59-575.84,121.4-197Z" transform="translate(729.25 922.64)"/><g class="cls-3"><path class="cls-4" d="M121.4-197c9.81,378.84,330,677.89,715.23,667.91,125.09-3.24,241.59-38.66,341.64-98,19.8-11.74,39-24.43,57.4-38a707.22,707.22,0,0,1-218,40.13C632.45,385,312.24,86,302.42-292.9,296.43-524.32,407.67-732,583-860.84,307.4-763.34,113.54-500.6,121.4-197Z" transform="translate(729.25 922.64)"/></g><path class="cls-4" d="M818,492.46c-387.82,0-708.06-305.23-718-688.93h0c-10.11-390,304.17-715.65,700.55-725.92,191.69-5,374.33,63.88,513.56,193.88s218.74,305.81,223.63,494.8c10.1,390-304.17,715.66-700.56,725.92Q827.58,492.47,818,492.46Zm-675.26-690c9.49,366.44,320.62,656.7,693.34,647.05S1504.49,133.84,1495-232.6c-4.6-177.44-79.2-342.46-210.08-464.66s-302.48-187-483.26-182.38C428.87-870,133.3-564,142.75-197.58Z" transform="translate(729.25 922.64)"/><path class="cls-4" d="M361.14-1.36C510.71,368.78,944.9,435.71,1178.27,372.88,1386.38,249.49,1523,22.66,1516.38-233.18c-4.42-170.72-71.89-325.2-179.89-442.55h-.11C992.6-844.07,480.92-678.44,372.47-249.37Z" transform="translate(729.25 922.64)"/><path class="cls-7" d="M361.14-1.36C510.71,368.78,944.9,435.71,1178.27,372.88q20.94-12.4,40.81-26.19c-377.67,1-688.72-294.84-698.39-668.13A674.44,674.44,0,0,1,556-555.69C470-477.16,404.1-374.45,372.47-249.37Z" transform="translate(729.25 922.64)"/><path class="cls-4" d="M920,479.81c-.34,0-.7,0-1,0C705.64,466,422.52,383.35,285.1,68.22a16,16,0,0,1-1.32-7l15.57-387a15.62,15.62,0,0,1,.66-3.95C355.73-516.13,472.6-662.91,638-754.25c155.91-86.11,341.66-113.34,523-76.69A16,16,0,0,1,1173.53-812a16,16,0,0,1-18.9,12.54c-371.24-75-717.17,125.52-823.32,477L316,58.75c131.5,297.56,401.4,375.84,605.05,389a16,16,0,0,1-1,32Z" transform="translate(729.25 922.64)"/><ellipse class="cls-2" cx="205.69" cy="-140.51" rx="192.05" ry="229.06" transform="translate(739.71 936.84) rotate(-4.06)"/><g class="cls-3"><path class="cls-4" d="M311.39,53.85C285.46,73.44,255,85.65,221.88,88,116.09,95.5,23.05-.73,14.1-126.93S83.68-361.52,189.47-369c40.17-2.85,78.45,9.24,111,32.26a270.42,270.42,0,0,0-51.62,27.3C144.08-238.61,107.24-109.95,166.66-22,198.73,25.44,252.37,51.3,311.39,53.85Z" transform="translate(729.25 922.64)"/></g><path class="cls-4" d="M210.4,109.77C98.46,109.77,2.2,7.22-7.21-125.41-17-263.16,70.59-382,188-390.33c57.62-4.12,113.37,18.57,157.09,63.78,42.73,44.2,68.84,104.91,73.52,170.94h0C428.36-17.86,340.8,101,223.41,109.3Q216.87,109.77,210.4,109.77ZM201.08-348c-3.36,0-6.71.12-10.08.35C97.13-341,27.35-242.67,35.45-128.44s91,201.65,184.93,195.09S384-38.36,375.93-152.58h0c-4-56-25.84-107.25-61.6-144.23C282.17-330.09,242.29-348,201.08-348Z" transform="translate(729.25 922.64)"/><path class="cls-4" d="M160.09,76.06c-39.66,0-77.74-20.55-108-58.51-31-38.83-50.26-91.71-54.32-148.9S5.31-243.61,30.5-286.42c26.31-44.72,64.24-71,106.81-74,85.31-6,162,86.85,170.51,207.12h0c4.06,57.19-7.58,112.27-32.76,155.07-26.32,44.73-64.25,71-106.82,74Q164.16,76.05,160.09,76.06ZM145.43-328.67c-2,0-3.89.07-5.85.21-31.72,2.24-60.64,22.95-81.44,58.3-21.93,37.27-32,85.76-28.42,136.54S50.16-36.25,77.13-2.45C102.7,29.61,134.24,46,166,43.78s60.63-23,81.43-58.31c21.93-37.26,32-85.76,28.42-136.54h0C268.76-250.74,210.9-328.67,145.43-328.67Z" transform="translate(729.25 922.64)"/><g class="cls-8"><path class="cls-2" d="M1386.45,14.6c90.86-428-35.19-667.92-447.5-659.45C1190.23-535.84,1332.25-308.26,1386.45,14.6Z" transform="translate(729.25 922.64)"/></g><g class="cls-8"><ellipse class="cls-2" cx="562.33" cy="-253.39" rx="69.49" ry="80.07" transform="translate(736 937.12) rotate(-1.48)"/></g><g class="cls-8"><ellipse class="cls-2" cx="638.4" cy="0.11" rx="80.18" ry="99.78" transform="translate(795.87 1206.69) rotate(-26.42)"/></g><g class="cls-3"><path class="cls-4" d="M-344.66,868-385,910.81c-22.29-12.82-67-42.76-77-80.06-9.24-34.75,11-57,24.32-67.3C-438.09,767.73-445.15,854.48-344.66,868Z" transform="translate(729.25 922.64)"/></g><g class="cls-3"><path class="cls-4" d="M885.11,2127a148.64,148.64,0,0,1-8.49,41.42c-5.56,12.78-13.79,22.13-24.16,26.41-60.56,25-570.17,42.76-600.42-80.18s46.29-457.86-17.85-684.17-20.47-391.21-20.47-391.21c-147.64,31.54-385.44,12.45-450.7,6.31a100.4,100.4,0,0,1-36.46-10.69,358.49,358.49,0,0,1-65.15-43.24c-44.58-37.1-31-74-31-74s-.59-.27-1.76-.91l14.16-24.59L-322.66,843c-2.68,4.81-54,100,115.61,123.41,174,24.06,404.62-34.74,404.62-34.74S360.71,860.84,507.7,716.52c0,0,70.82,19.14,32.07,197.34,0,0-102.9-11.06-118.93,131l49.33,9.08s-80.28,210.55-50.67,468.39-69.06,458.77,27.85,547.88,330.11,96.21,430,0l.05,0S887.09,2093.52,885.11,2127Z" transform="translate(729.25 922.64)"/></g><g class="cls-3"><path class="cls-4" d="M1297.78,1124.08s-11.23,75-99.42,118.34-473,87.45-501.1,18c-15.77-39.07-24.38-92.52-28.87-131.81-47.19-14.43-218.34-66-218.34-66l222.14,6.25c21-19.14,71.14-74.35,23.68-129.89l37.47-8.66s-19.62-117,37.63-134.64,94.66,0,94.66,0S785.61,1179.3,1297.78,1124.08Z" transform="translate(729.25 922.64)"/></g><g class="cls-3"><path class="cls-4" d="M1313.6,2115.71a55.14,55.14,0,0,1-46.23,44.09c-68.8,9.79-223.54,25.45-368.55-4.38.64-8.66-35.86-128.39-113.37-217.06L781,1650.63s17.91-55.91,41.32-136.73c3.21-11,6.52-22.5,9.89-34.37q27.35-1.68,54.09-6c118.93-19.08,228.88-76.86,329.42-175.74,0,0-93.54,188-287.72,266.4l16,380.14s-15,88.46,57.51,127.64c70.93,38.38,244.65,40.89,313.07-49.07C1320.34,2047.29,1321.08,2077.76,1313.6,2115.71Z" transform="translate(729.25 922.64)"/></g><g class="cls-9"><path class="cls-10" d="M-41.49,237c3,.35,6.06.63,9.16.88C-35.43,237.64-38.49,237.35-41.49,237Z" transform="translate(729.25 922.64)"/></g><g class="cls-9"><path class="cls-10" d="M-9.69,238.54c-7.7.11-15.29-.11-22.64-.67C-25,238.43-17.39,238.64-9.69,238.54Z" transform="translate(729.25 922.64)"/></g><g class="cls-9"><path class="cls-10" d="M-9.69,238.54c4.84-.06,9.73-.25,14.63-.55Q-2.41,238.44-9.69,238.54Z" transform="translate(729.25 922.64)"/></g><path class="cls-11" d="M-23.48,232.47a346.51,346.51,0,0,1-6.89,40.44,346.85,346.85,0,0,1-34.82,90.24c-93.13,167.6-304.47,228-472.06,134.83-133.44-74.15-198.89-223.25-173-365.54A347.33,347.33,0,0,1-672.08,25.92a349.39,349.39,0,0,1,29.62-44.79,343.7,343.7,0,0,1,89.89-81c7.77-4.87,15.74-9.4,23.84-13.59a348.11,348.11,0,0,1,140.82-38.58c.44,0,.87-.06,1.3-.07,3-.17,6-.29,9.05-.36q9-.25,18,0a344.23,344.23,0,0,1,121.14,25.29A349,349,0,0,1-200-108.89c2.7,1.52,5.38,3,8,4.62,1.61.93,3.19,1.9,4.76,2.88a345.81,345.81,0,0,1,52.84,39.68C-52,13.44-11.56,123.6-23.48,232.47Z" transform="translate(729.25 922.64)"/><path class="cls-12" d="M-23.48,232.47a346.51,346.51,0,0,1-6.89,40.44,346.85,346.85,0,0,1-34.82,90.24c-93.13,167.6-304.47,228-472.06,134.83-133.44-74.15-198.89-223.25-173-365.54A347.33,347.33,0,0,1-672.08,25.92a349.39,349.39,0,0,1,29.62-44.79,343.7,343.7,0,0,1,89.89-81c7.77-4.87,15.74-9.4,23.84-13.59a348.11,348.11,0,0,1,140.82-38.58c.44,0,.87-.06,1.3-.07,3-.17,6-.29,9.05-.36q9-.25,18,0a344.23,344.23,0,0,1,121.14,25.29A349,349,0,0,1-200-108.89c2.7,1.52,5.38,3,8,4.62,1.61.93,3.19,1.9,4.76,2.88a345.81,345.81,0,0,1,52.84,39.68C-52,13.44-11.56,123.6-23.48,232.47Z" transform="translate(729.25 922.64)"/><g class="cls-13"><path class="cls-2" d="M-67.63,76.59a340.62,340.62,0,0,0-69.69-88.95,340.63,340.63,0,0,0-52.19-39.17c-1.54-1-3.11-1.93-4.69-2.86-2.62-1.56-5.26-3-7.93-4.56a342.18,342.18,0,0,0-37.94-18.13,339.49,339.49,0,0,0-119.62-25q-8.9-.21-17.77,0c-3,.06-6,.19-8.93.35-.43,0-.86.06-1.3.07a343.87,343.87,0,0,0-139.06,38.1c-8,4.13-15.86,8.62-23.54,13.43A339.49,339.49,0,0,0-639,30a343,343,0,0,0-29.26,44.24c-.53,1-1.06,1.92-1.58,2.88A321.7,321.7,0,0,1-647.74,28,322.64,322.64,0,0,1-620.5-13.26a316.51,316.51,0,0,1,82.68-74.53q10.73-6.72,21.92-12.51a320.36,320.36,0,0,1,129.52-35.49c.42,0,.81-.05,1.21-.05,2.76-.16,5.52-.27,8.31-.34q8.28-.23,16.55,0A316.44,316.44,0,0,1-248.9-112.95,322.2,322.2,0,0,1-213.56-96c2.49,1.4,4.95,2.79,7.39,4.24,1.47.86,2.92,1.75,4.38,2.66A318.72,318.72,0,0,1-153.2-52.66,318.15,318.15,0,0,1-67.63,76.59Z" transform="translate(729.25 922.64)"/></g><path class="cls-14" d="M-55.12,285.9a328,328,0,0,1-26.4,61.42C-169.64,505.89-369.6,563-528.18,474.89A327.32,327.32,0,0,1-682,286.1,417.18,417.18,0,0,0-571.5,374.93C-396.57,472.14-182,430.35-55.12,285.9Z" transform="translate(729.25 922.64)"/><path class="cls-14" d="M-157.46,232.6c-9.48,42.3,3.5,76.54,29,76.47s56.13-33.32,65.61-75.62-5.8-77.62-31.29-77.55S-148,190.3-157.46,232.6Z" transform="translate(729.25 922.64)"/><path class="cls-4" d="M-176.55,204.43c-17.54,36.45-11.39,103.27,30.76,119.69,2.37.63,1.82,4.38-.62,4.32-13.41.15-26.09-8-34.36-18.19-24.45-30.2-26.93-79.48-.25-108.88,2-2.25,5.85.37,4.47,3.06Z" transform="translate(729.25 922.64)"/><ellipse class="cls-14" cx="-526.24" cy="-12.95" rx="34.5" ry="29.43" transform="translate(729.01 888.96) rotate(-3.67)"/><ellipse class="cls-12" cx="-518.59" cy="-3.07" rx="25.92" ry="20.92" transform="translate(698.07 742.43) rotate(-20.31)"/><path class="cls-4" d="M-525.15,20.06c-41,5.76-60.25-44.32-22.23-64.57,14.91-7.64,33.71-6.69,47.11,3.43,13.71,9.27,18.21,30.66,7.19,43.34A1.84,1.84,0,0,1-496.15.31,25.22,25.22,0,0,0-506-32.83c-15.44-9.79-39.78-5.25-48.2,11.44-9.44,18.78,10.42,36.31,28.88,36.93,2.64.12,2.77,4.19.19,4.52Z" transform="translate(729.25 922.64)"/><path class="cls-4" d="M-481.11-34.21C-470.43-22.62-468.69-4-476.06,10c-14.72,29.13-55.34,37.45-82,20.54C-571.24,22.68-580.89,7.5-579.56-8a1.83,1.83,0,0,1,3.63-.12c2.13,13.33,11,24.1,22.82,29.93C-518.37,40.67-463.9,10-484.82-31.62c-1.3-2.27,2-4.55,3.71-2.59Z" transform="translate(729.25 922.64)"/><path class="cls-4" d="M-619.53,65.42c32.61,1.93,58.81,32.78,61.64,64.87,3.68,32.11-10.51,65.37-35.42,85.52-16.33,13.46-37.75,21.2-58.43,19.09a2.33,2.33,0,0,1-2.08-2.56,2.34,2.34,0,0,1,2.09-2.09,86.69,86.69,0,0,0,49.94-24.06c41.22-37.93,41-116.28-18.81-135.1-3.25-.92-2.3-6,1.07-5.67Z" transform="translate(729.25 922.64)"/><ellipse class="cls-14" cx="-642.84" cy="149.13" rx="56.47" ry="49.61" transform="translate(51.77 412.77) rotate(-79.95)"/><path class="cls-12" d="M-643.81,200.79c17.64.21,35.59-11.8,44.81-32,12.26-26.88,4.4-58.09-17.55-69.73a37,37,0,0,0-9.6-3.5c-13,5.28-24.56,16.36-31.6,31.76C-670.21,154.64-663.83,186-643.81,200.79Z" transform="translate(729.25 922.64)"/><path class="cls-4" d="M-690.66,127.58c22.9-55.85,102.09-47.8,102.46,16.36-.5,25.27-16.07,49.05-38.9,59.12-22.17,10.84-53,2.54-63-20.64-1.13-2.36,2.32-4.3,3.78-2.19,12.13,17.69,35.9,22,54,11.94,26.13-13.44,39.27-50.9,21.12-75.2-20.28-26.45-59.66-12.65-74.65,13.05-1.63,2.8-6.11.49-4.84-2.44Z" transform="translate(729.25 922.64)"/><path class="cls-4" d="M-230.68,133.55c8.29,40.85-14.4,86.21-52.1,105.19-50.46,27.24-117.61,7.43-148.17-40a112.1,112.1,0,0,1-15.75-37.5,2.18,2.18,0,0,1,1.7-2.59,2.19,2.19,0,0,1,2.5,1.4,119.23,119.23,0,0,0,46.94,58.53c41.66,27.61,102,23.74,135.23-15,16.24-18.52,25-43.73,24.26-69.51-.18-3.26,4.84-3.83,5.39-.58Z" transform="translate(729.25 922.64)"/><ellipse class="cls-14" cx="-343.31" cy="136.38" rx="67.76" ry="69.59" transform="translate(679.47 834.74) rotate(-15.72)"/><path class="cls-12" d="M-403.06,157.9c6.48,23.79,27.87,42.82,55.85,46.67,37.25,5.12,72.09-18.61,77.82-53a57.49,57.49,0,0,0,.6-14.36c-11.34-15.17-29.2-26.09-50.55-29C-357.18,103-392.77,124.77-403.06,157.9Z" transform="translate(729.25 922.64)"/><path class="cls-4" d="M-332.24,65.17c40.33,4.07,73.47,45.26,65.83,86-6.17,43.67-54.83,68.69-95,54.09-47.94-14.81-72.5-78.1-36.62-116.61a2.2,2.2,0,0,1,3.37,2.78c-29.12,39.75.47,97,47.4,102.84,38.83,6.59,74.14-26.18,67.9-65.62-3.69-27-25.61-51.22-53.81-58.15-3.26-.76-2.33-5.75,1-5.34Z" transform="translate(729.25 922.64)"/><path class="cls-12" d="M-537.1,333.62c-16.34,8.6-29.09,21.15-36.22,37.16-12.91,29-3.76,61.1,19.86,89.34,15.5,18.52,37.51,34.66,64.24,45.49,67.48,27.34,139.52,10.54,160.91-37.52,8-17.89,7.79-37.59.95-56.67-11.53-32.22-42.67-61-85-78.16" transform="translate(729.25 922.64)"/><path class="cls-4" d="M-570.84,371.89c-12.22,31.72,3.77,65.33,26.1,88.35,44.76,45.6,121.05,67.49,180.07,38.23,29.36-14.74,46.05-49.22,36.84-81.42-.83-2.55,3.23-3.91,4.14-1.41,21.52,59.66-29.55,105.14-86.23,109.35-69.69,6.26-148.92-32.85-170.62-102.57-4.68-17.43-3.67-36.91,4.75-52.74a2.72,2.72,0,0,1,4.95,2.21Z" transform="translate(729.25 922.64)"/><ellipse class="cls-14" cx="-450.78" cy="418.83" rx="72.78" ry="100.14" transform="translate(-11.14 798.57) rotate(-75.18)"/><ellipse class="cls-12" cx="-446" cy="440.54" rx="53.53" ry="84.89" transform="translate(-71.74 846.49) rotate(-79.84)"/><path class="cls-4" d="M-386.73,481.36c54.84-35.71,16.11-97.82-31.75-117.44C-458.79,343.61-536,345.74-540,403.21c0,35.11,30.78,63.8,61.12,78.92,3.24,1.52,1.17,6.54-2.18,5.38-27.39-9-53.44-27.62-67-54.15-16-28.82-7.22-66.8,20.93-84.68,65.14-44.1,188.88,8.86,180.49,93.17A59.54,59.54,0,0,1-359.35,470a65.23,65.23,0,0,1-24,17.72,3.59,3.59,0,0,1-4.75-1.85,3.6,3.6,0,0,1,1.4-4.52Z" transform="translate(729.25 922.64)"/><path class="cls-12" d="M-236.37,4c12.19-8,21.25-18.86,25.63-32,7.93-23.82-1.74-48.34-22.48-68.73-13.62-13.38-32.16-24.38-54-30.85-55.17-16.32-110.53,2.43-123.66,41.88C-415.79-71-414.14-55.52-407.3-41-395.75-16.58-369,3.65-334.41,13.9" transform="translate(729.25 922.64)"/><path class="cls-4" d="M-213.31-28.83c5.56-22.34-5.11-43.8-20.59-59.45-31.33-31.24-80.37-44.83-123.49-35.15-21.55,5.07-42.31,17.36-51.44,38.45-.94,2.42-4.83,1.12-4.14-1.38,2.83-12,10.28-22.84,19.6-31.14,49-39.73,128.5-24.95,168.81,20.64,16.45,18.17,26.93,46.17,16.39,69.74a2.72,2.72,0,0,1-5.14-1.71Z" transform="translate(729.25 922.64)"/><ellipse class="cls-14" cx="-310.8" cy="-56.35" rx="57.51" ry="79.13" transform="translate(523.97 568.57) rotate(-80.76)"/><ellipse class="cls-12" cx="-316.12" cy="-71.96" rx="42.3" ry="67.08" transform="translate(510.09 541.31) rotate(-85.42)"/><path class="cls-4" d="M-366-100.71c-40.73,32-5.32,78.72,33.94,90.37,33.68,13.18,94.23,5,93-40.61-2.67-27.67-29.49-48.17-54.4-57.44-2.55-.84-1.33-4.87,1.23-4.19,48.13,9.31,92.19,64.74,46.7,105.27C-293.48,32.1-394,.37-394.23-66.44a47.37,47.37,0,0,1,7.82-23A50.56,50.56,0,0,1-369-105.24a2.71,2.71,0,0,1,3.7,1,2.75,2.75,0,0,1-.72,3.5Z" transform="translate(729.25 922.64)"/><ellipse class="cls-12" cx="-120.23" cy="230.02" rx="67.37" ry="35.12" transform="translate(429.83 964.9) rotate(-71.26)"/><path class="cls-4" d="M-67,178.5c-27-40-70.72,6.17-80.4,37.13-12,27-14.93,90.18,28.78,84.23,24.64-6,42.21-30.34,52.45-53a2.2,2.2,0,0,1,2.95-1.16,2.2,2.2,0,0,1,1.17,2.61,110.3,110.3,0,0,1-7.45,19.56C-98.86,330.61-170,329.42-169.83,252.61c1.27-40.85,26.68-93,71.22-99.25a36.61,36.61,0,0,1,22.29,5.57c4.12,1.95,18.69,17.59,12.65,20.6a2.72,2.72,0,0,1-3.38-1Z" transform="translate(729.25 922.64)"/><path class="cls-4" d="M-369.25,555a358.3,358.3,0,0,1-174.49-45.31A360.37,360.37,0,0,1-723.41,130.05,359.93,359.93,0,0,1-683.76,19.44a360.53,360.53,0,0,1,124.13-130.7c8-5,16.32-9.76,24.75-14.12a364.08,364.08,0,0,1,146.22-40.06l1.4,13.31-.83-13.34.95-.05c2.95-.16,6.09-.29,9.25-.37,6-.16,12.32-.17,18.63,0A356.55,356.55,0,0,1-233.4-139.63a361.91,361.91,0,0,1,39.87,19.06c2.86,1.6,5.65,3.18,8.41,4.83,1.58.92,3.27,2,4.93,3C-61.84-40.37,4.91,95.73-10.19,233.92h0a358.71,358.71,0,0,1-7.17,42,360.58,360.58,0,0,1-36.15,93.72C-119.33,488.08-242.49,555-369.25,555Zm-18-707.11.83,13.34-.95,0a337.21,337.21,0,0,0-135.2,37.08c-7.79,4-15.49,8.43-22.89,13.07a333.88,333.88,0,0,0-114.93,121,333.82,333.82,0,0,0-36.72,102.41A333.69,333.69,0,0,0-530.76,486.31c160.89,89.38,364.49,31.23,453.89-129.65a333.49,333.49,0,0,0,33.48-86.78A328.64,328.64,0,0,0-36.77,231h0c14-128-47.8-254-157.44-321-1.54-1-3-1.86-4.52-2.73-2.66-1.6-5.24-3-7.83-4.5a334.33,334.33,0,0,0-36.9-17.64,329.69,329.69,0,0,0-116.46-24.31c-5.84-.15-11.67-.14-17.3,0-2.92.07-5.8.19-8.67.35Z" transform="translate(729.25 922.64)"/><path class="cls-15" d="M2248.65,83.59c1.56,3.14,3.09,6.3,4.56,9.46,78.45,169.69,8.22,372.11-160.19,456.13s-372.37,18.41-460.76-146.32c-1.65-3.07-3.25-6.19-4.82-9.33a346.26,346.26,0,0,1-35-121.72c-13.16-137.16,56.67-274.5,185.86-341.42,1.57-.83,3.17-1.63,4.78-2.43s3.23-1.61,4.85-2.38c131.19-63,282.88-36.14,384.52,56.85A346.21,346.21,0,0,1,2248.65,83.59Z" transform="translate(729.25 922.64)"/><g class="cls-16"><path class="cls-17" d="M2120.88,431.38a58.47,58.47,0,0,0-25.4-42.67c-18.27-12.16-22.42-38.8-24.95-57.91-2-15.41-11.74-27.4-26.78-16.77-34.54,24.42-84.63-12.73-94.46-48.36-8.58-38.12.47-71.47,19.83-103.88,13.44-22.5,41.71-29.27,64.4-18.16,26.75,13.09,68.45-27.41,72.8-53.87.49-3,.81-7.09-.25-9.5-10.83-24.32-47.9-25.88-60.29-3.31-8,14.61-24.62,19.92-39.44,12-27.23-14.52-35.81-2.39-45.08,24.34-3,8.62-3,24.2-13.7,17.58-10.5-6.51-19.5-19.5-14-31.86,13.3-30.15,25.68-62.16,33.63-94.65.52-2.12,2.63-5,4.1-5.15,33.81-3.55,30.27-47.14,36.9-71.44,2.34-8.57.55-12.49-5-15.88s-8.26.47-10.45,6.49c-3.66,10.1-7.25,20.25-11,30.32-1.91,5.16-2.61,13-8.35,12.16-6.74-1-10.2-9.19-9.8-16.64,1.13-21.34,6.78-45.16,19.77-62.43,9.84-13.06,28.83-22.51,43.91-12.48,18.72,12.46,33.32,11.2,53.82.67,8.61-4.42,17.87-9.21,27-12,15.39-4.64,26.38-17,30.27-32.67a40.94,40.94,0,0,1,32.35-29.82c9.87-1.87,16.24-7.33,19.12-19.23,5.13-21.18,21.85-37.17,42-44,30-10.11,54.72-8.44,76.44,13.94,5.93,6.11,12.11,3.73,17.9,2.48,15.15-3.26,31.34-5.74,45.72-9.33,10.91-2.72,26.56,2.44,33.6,11.18,4.76,5.89,10.27,6.55,15.72,5.77,7.49-1.07,15.55-1.21,22.63-2,17.08-2,24.35,1.53,33.34,16.93,3.56,15.09-6.48,35.26-20.62,38.92a60.26,60.26,0,0,1-13.78,1.84c-13.23.22-15.42,8.54-11,25.24,9.51,35.86-2.38,88.65-40.63,101.95-9.27,3.22-14.41,6.86-10.08,21.6,2.27,7.71,3.56,16.82-.25,24.79-8.71,18.27-13.4,38.88-7.77,58.52,4.43,15.45-10.4,27.1-24.3,18.94a446.68,446.68,0,0,1-43.87-29.63c-10.85-8.25-17-5.65-21.64,8.85-4,12.49-10.53,25.17-13.56,37.25-3.86,15.38-16.77,26-30.89,14.21-16.14-10.26-24.8-14.18-41.44-10-5.89,1.49-12.5-.8-18.21-5.13s-12.51-9.28-15.55,2.64c-2.86,11.22,6.41,10.52,10.59,13.93,7.56,6.2,15.82,11.1,23.75,16.15,13.92,8.86,15.48,22.91,6.43,36.08-8.84,12.84-25.47,23.43-40.86,12.8-10.37-6.58-20.56-13.49-30.88-20.09-4.9-3.12-9.51-8.67-14,2.61-4.74,12,2.13,12.85,6.66,15.92,18.06,12.2,36.19,24.24,54.66,35.79a35.6,35.6,0,0,1,12.78,46.58c-17.39,34-14.15,70.7-1.76,108.87a458.68,458.68,0,0,1,12.28,47.17c7,32-8.08,79.78-43.45,88.4-14.08,3.15-25.7-6.65-29.75-19.58C2126.58,454.77,2123.78,442.87,2120.88,431.38Z" transform="translate(729.25 922.64)"/><path class="cls-17" d="M1454.94,212.11c-14.75-30.36-12.49-54.12,21.35-67.19q75-32.59,148-69.43c8.2-4.13,16.61-9.1,23.91-.07,6.17,7.64,5.74,17.26,2.61,27.44-5.57,18,7.84,22.57,20.46,28.7,10.63,5.16,22.32-1.47,31.07-10.24,7.69-7.71-.17-17.29-1.73-25.84-1.1-6-4.54-12.37,0-17.64,4.71-5.45,9.54-.29,13.58,2.5,8.09,5.6,15.8,6.47,24.78,1.36,7.86-4.47,16.28-4.21,22.31,4.85s5,20,1.43,30c-14.67,40.67-31.17,81.92-45.52,121.48-6.16,17-25.06,22.8-40.13,29.08s-15.49,23.12-9,35.8c2.7,5.23,5.7,9,10.49,7.09,19.11-7.71,35.07,6.23,49.16,16,10.82,7.53,25.66,12.24,38.64,5.45,15.52-8.12,28.27-7.23,43.58,2,12,7.23,28.93,18.07,43.9,13.83,19.52-5.53,29.71,51,25.78,65.55-10.75,39.88-25.39,82.52-40.41,121.74-8.17,21.3-9.51,42.81-2.52,63.72,3.49,10.47,6.27,22.76,8.85,34.35,1.6,7.17,6.77,15.91,2.92,21.5-4.79,7-12-.33-17.51-3.64-18.8-11.28-30.56-32.43-36.08-52.92-4.09-15.2-8.87-30.82-12-46.11-6.25-30.43-17.05-62.7-45.14-80.35-25.42-17.49-34.69-71.07-27-98,2-7,11.1-14.56,4.11-22.44-7.28-8.22-17-18.92-26.88-15-20.2,8-42.4-4.6-58-16.64-15.21-11.73-30.58-23.53-47.52-32.88-24.91-13.52-31.87-42.81-40.46-66.81-7.3-20.37-37-43.13-58.84-40.34C1467.21,181.06,1462.05,199.26,1454.94,212.11Z" transform="translate(729.25 922.64)"/><path class="cls-17" d="M2573.48,189.86a8.48,8.48,0,0,1,.57,1.84c.81,9.61,11.69,19.44,3,27.94-8.27,8.11-24.87,16.49-36.68,10.1-18-5.76-25.11-4.61-40.64,4-12.51,6.93-28.65,6.7-38.31-5.54-11.17-13.27-10.16-31.54-4.51-46.8,8.8-23.8,32-48.62,58.65-47.13C2542,135.74,2565.6,166,2573.48,189.86Z" transform="translate(729.25 922.64)"/><path class="cls-17" d="M1793.09-98.15c6.27-3.44,12.94-7.11,18.83-10.23,12.62-6.67,34.45-25.43,45.95-5.3,16.46,28.82,20,55.69,9.47,85.25-9,25.15-19.86,52.18-28.42,78.8-7.17,22.31-16.07,25.11-30.6,12.5-8.37-7.26-18-13.91-21.33-25.56-5.44-19.1-19.42-33.42-36.44-42.66-9.42-5.12-19.53-12.74-16.29-30.29,2.8-15.16,6.11-34.22,21.29-41.94,12.34-6.27,25-13.59,37.57-20.46Z" transform="translate(729.25 922.64)"/><path class="cls-17" d="M1692.17,44c-10.75,6.57-20,11.22-30,7.06a13.46,13.46,0,0,1-8.56-10.32c-1.15-7.06,4.47-8.41,8.18-10.62,6.23-3.72,12.69-6.8,19-10.35,11.25-6.32,24.05-9.71,27.78,7.21C1712.06,42.54,1696.16,37.79,1692.17,44Z" transform="translate(729.25 922.64)"/><path class="cls-17" d="M2370.78,104.1c15.38-1.33,38,10.21,45.46,21.7,4.76,7.34-2,11.61-5.85,12.28-11.55,2-38.63-12.32-45.45-22.85C2362.44,111.37,2364.57,106.71,2370.78,104.1Z" transform="translate(729.25 922.64)"/><path class="cls-17" d="M2207.25,351.4c-2.52-13.17-3.59-30.32,8.88-38.67,9.32-6.24,10.63,7.48,12.49,15.08,3.18,13.06,4.48,30.26-8.51,38.67C2209.7,373.23,2210.88,358.2,2207.25,351.4Z" transform="translate(729.25 922.64)"/><path class="cls-17" d="M2475.05-126c2.39,16.1-12.44,46.77-24.86,49.9-3.27.82-8.87-3-7.16-7.27,5.37-15,9.82-33.34,23.16-42.73C2468.58-127.76,2473.9-130.25,2475.05-126Z" transform="translate(729.25 922.64)"/><path class="cls-17" d="M2468.47,118.49c-4.65-.2-13.32,11.1-16.27-3.68-3.14-15.78,7.13-21.53,17.65-23.78,5.62-1.19,14.1-9.64,17,1.15C2491.26,105.8,2481.31,116.25,2468.47,118.49Z" transform="translate(729.25 922.64)"/><path class="cls-17" d="M2609.65,195.78c-.77,5,9.58,11.9-.62,14.58-10.65,2.79-16.15-7-18.58-17.18-1.4-5.88-8.8-15.25-.45-17.83C2604.43,170.88,2605,186.65,2609.65,195.78Z" transform="translate(729.25 922.64)"/><path class="cls-17" d="M1938.85-8.82c2.88,11.07,8,27.57-4,35-7.54,4.67-8.61-7.36-9.81-13.66-2.11-11.2-8.3-28.09,2.67-36.38C1937.13-31,1934.48-11.86,1938.85-8.82Z" transform="translate(729.25 922.64)"/><path class="cls-17" d="M2424.86,58.68c2.8,11.35,5.78,22.81-5.6,26.57-9.09,3-8.24-8.7-10.55-14.82-4-10.64-1.79-20.93,5.94-24.76C2424,41,2422,54.31,2424.86,58.68Z" transform="translate(729.25 922.64)"/><path class="cls-17" d="M1918.69,19.59c1.71,7.32.84,13.12-5.24,15.92-4.15,1.9-7.32.59-8.81-5.1-1.87-7.09-.49-13.34,4.4-17.21C1914.28,9.05,1916.88,13.71,1918.69,19.59Z" transform="translate(729.25 922.64)"/><path class="cls-18" d="M2154.54,491.64c-14.65,0-25.77-11.31-29.77-24.06-2.91-9.29-5.35-19.1-7.7-28.58l-1.71-7.1a52.67,52.67,0,0,0-23-38.57c-19.42-12.93-24.31-38.68-27.37-61.8-1-7.72-4.18-13.8-8-15.48-2.66-1.16-6-.32-10,2.51-13.65,9.65-31,11.47-48.73,5.11-24.87-8.88-47.71-32.66-54.29-56.53l-.06-.25c-8.22-36.5-1.71-70.8,20.48-107.95,14.59-24.42,45.37-33.14,71.6-20.3,8.72,4.27,18.95.82,26-2.81,18.14-9.36,36.3-31.31,38.88-47,.65-4,.32-6,.15-6.35-5-11.2-16.2-15.59-25-16-10.91-.44-20.64,4.55-25.32,13.07-9.51,17.31-29.67,23.44-46.91,14.25-9.56-5.1-16.55-6.66-21.35-4.77-6.58,2.58-11.1,12.27-15.87,26a59.61,59.61,0,0,0-1.55,5.93c-1.47,6.45-3.14,13.75-9.07,16.23-3.39,1.42-7.18.85-11.26-1.68-13-8.06-22.74-24-16.19-38.82,15.9-36,26.49-65.82,33.32-93.73.85-3.49,4.27-8.87,8.91-9.35,20.15-2.12,24.5-21,28.43-47.51a178.79,178.79,0,0,1,3.69-19.88c1.9-7,.24-8-2.52-9.68-.2-.12-.37-.21-.51-.28a17.84,17.84,0,0,0-1.82,3.93q-1.87,5.17-3.74,10.37c-2.39,6.67-4.79,13.35-7.25,20-.35,1-.65,2-1,3.09-1.32,4.56-4.06,14-13.4,12.64-10.13-1.49-15-12.67-14.54-22.42.81-15.15,4.58-43.81,20.89-65.47,11.66-15.5,33.65-25.59,51.41-13.77,15.93,10.6,28.09,10.69,48.21.35l.39-.2c8.47-4.35,18.07-9.28,27.53-12.13,13.1-3.95,23-14.68,26.49-28.7a46.46,46.46,0,0,1,36.69-33.93c8.28-1.57,12.56-5.95,14.77-15.09,5.37-22.18,22.42-40.09,45.62-47.93,34.59-11.67,60.72-6.8,82.2,15.33,3,3,5.43,2.63,10.73,1.39.68-.16,1.35-.32,2-.46,6.16-1.33,12.54-2.54,18.72-3.71,9-1.71,18.38-3.48,26.83-5.59,13-3.23,30.94,2.76,39.27,13.08,2.78,3.45,5.65,4.47,10.61,3.76,4.43-.63,9-.95,13.36-1.25,3.32-.24,6.46-.45,9.41-.8,19.35-2.23,28.78,2.54,38.77,19.65l.42.72.19.8c4.4,18.64-7.8,41.22-24.62,45.58a66,66,0,0,1-15.09,2c-2.33,0-5.34.41-6.52,2s-2,5.67.81,16.3c9.49,35.8-.58,93.45-44.17,108.61-7,2.44-9.92,3.45-6.58,14.79s3.19,20.88-.56,28.74c-9.58,20.08-12.08,38.45-7.45,54.61,2.7,9.41-.08,18.71-7.26,24.28s-16.79,5.91-25.19,1a451.8,451.8,0,0,1-44.42-30c-5-3.82-7.06-3.6-7.57-3.44s-2.86,1.47-5.42,9.54c-1.79,5.64-4.07,11.27-6.28,16.73-2.86,7.06-5.57,13.74-7.19,20.2-2.84,11.32-9.61,19.72-18.1,22.49-7,2.28-14.61.46-21.44-5.13-15-9.54-22.18-12.79-36.81-9.1-7.21,1.82-15.35-.34-22.92-6.09-1.29-1-4.15-3.14-5.6-3.61a11,11,0,0,0-1.22,3.2c-.91,3.56-.83,3.59,3.2,5.27a21.15,21.15,0,0,1,5.52,3,188.42,188.42,0,0,0,19.1,13.15c1.38.87,2.76,1.73,4.12,2.6,7.7,4.9,12.58,11.52,14.13,19.14,1.64,8-.48,16.59-6.11,24.78-7,10.13-17,17.27-26.83,19.08a28.5,28.5,0,0,1-21.75-4.86c-5.29-3.35-10.7-6.91-16.11-10.47-4.87-3.19-9.72-6.39-14.61-9.51-.74-.47-1.48-1-2.2-1.51s-1.51-1.07-2.17-1.45a15.38,15.38,0,0,0-1.46,2.94c-2.15,5.43-1.63,5.72,1.8,7.6,1,.53,1.92,1.07,2.81,1.67,14.8,10,34.36,23.1,54.49,35.68a41,41,0,0,1,14.78,53.81c-14.77,28.86-15.22,62.11-1.42,104.63A461.43,461.43,0,0,1,2208.7,396c7.18,33-7.43,85.16-47.57,94.95A30.47,30.47,0,0,1,2154.54,491.64Zm-28.17-61.21,1.47,5.89c2.32,9.33,4.72,19,7.53,27.94,3,9.46,11.51,18.46,23.23,15.83,33-8.06,45.32-53.84,39.24-81.81a447.7,447.7,0,0,0-12.13-46.64c-14.77-45.51-14.11-81.45,2.1-113.11A30,30,0,0,0,2177,199.18c-20.28-12.67-40-25.84-54.83-35.89-.61-.41-1.28-.77-1.94-1.14-4.38-2.41-12.53-6.89-6.77-21.42,1.41-3.56,3.85-8.46,8.69-9.89s8.8,1.39,11.69,3.44c.58.42,1.16.83,1.75,1.21,4.93,3.14,9.82,6.36,14.72,9.58,5.37,3.53,10.73,7.06,16.15,10.5a17.61,17.61,0,0,0,13.61,3.19c7-1.29,14.35-6.69,19.69-14.46,3.89-5.64,5.4-11.27,4.38-16.27-.94-4.66-4-8.69-9.21-12l-4.07-2.57a196.69,196.69,0,0,1-20.22-14,14.39,14.39,0,0,0-2.75-1.34c-4.22-1.76-13-5.4-9.7-18.26.57-2.23,2.31-9,8.25-11.09,6.12-2.13,11.85,2.22,16,5.4,4.76,3.61,9.68,5.13,13.49,4.17,18.71-4.72,28.77-.14,45.78,10.68l.57.42c4,3.33,7.75,4.45,11.18,3.33,4.7-1.53,8.92-7.27,10.77-14.63s4.79-14.56,7.67-21.67c2.13-5.26,4.33-10.69,6-15.91,1.93-6.09,5.34-14.46,12.65-16.77,5.14-1.63,10.91.06,17.64,5.18a442,442,0,0,0,43.32,29.27c4.47,2.62,9.24,2.55,12.77-.19s4.83-7.41,3.39-12.44c-5.41-18.84-2.68-39.85,8.09-62.44,2.52-5.29,2.5-12.11-.06-20.84-5.25-17.83,1.64-24.25,13.58-28.4,33.64-11.7,46.54-59.61,37.08-95.28-2.23-8.43-4.13-19,1.07-25.85,3.11-4.11,8.23-6.25,15.2-6.37a55.62,55.62,0,0,0,12.48-1.66c10.66-2.76,19.21-19,16.77-31.5-7.59-12.78-12.65-15.18-27.47-13.47-3.2.37-6.61.61-9.91.84-4.19.29-8.53.6-12.56,1.17-8.78,1.27-15.59-1.28-20.83-7.78-5.7-7.08-19-11.5-27.93-9.27-8.76,2.18-18.27,4-27.46,5.72-6.1,1.16-12.42,2.36-18.44,3.65q-.91.19-1.83.42c-5.47,1.29-13.76,3.23-21.23-4.46-18.65-19.22-39.79-23-70.68-12.55-19.57,6.61-33.91,21.57-38.38,40-3.23,13.35-10.91,21-23.49,23.38a35.45,35.45,0,0,0-28,25.79c-4.42,17.78-17.15,31.48-34,36.57-8.49,2.56-17.21,7-25.66,11.38l-.38.2c-19.64,10.08-37.26,13.77-59.44-1-12.85-8.55-29,1.4-36.39,11.2-14.53,19.31-17.93,45.5-18.67,59.38-.26,5,1.83,9.85,4.58,10.75a28.74,28.74,0,0,0,1.6-4.63c.39-1.34.78-2.66,1.22-3.86,2.44-6.6,4.83-13.24,7.22-19.88q1.86-5.2,3.74-10.4c1.62-4.46,3.91-9.24,8.65-10.9,3.11-1.09,6.45-.56,9.92,1.57,8.08,4.95,10.3,11.55,7.43,22.07a172,172,0,0,0-3.42,18.58c-3.5,23.6-7.85,52.88-36.95,56.77a4.14,4.14,0,0,0-.59,1.1c-7,28.56-17.77,58.93-34,95.57-4.45,10.1,4.67,20.43,11.89,24.9a8.25,8.25,0,0,0,1.18.62c1-1.56,1.93-5.8,2.47-8.2a69.54,69.54,0,0,1,1.89-7.1c5.94-17.13,11.74-28.59,22.3-32.73,8.13-3.18,17.86-1.49,30.63,5.31,11.92,6.35,25.35,2.23,32-9.8,6.72-12.23,20.38-19.44,35.51-18.81,15.52.65,28.82,9.29,34.72,22.55,1.33,3,1.54,7.25.65,12.66-3.16,19.24-23.23,43.93-44.74,55-13.35,6.9-25.79,7.91-36,2.92-21-10.28-45.59-3.39-57.19,16-20.61,34.51-26.72,66.19-19.21,99.69,5.65,20.27,26,41.28,47.28,48.9,10.1,3.61,25,5.89,38.59-3.72,9.21-6.52,16.45-5.57,20.89-3.63,7.68,3.36,13,12.18,14.59,24.2,2.74,20.71,7,43.67,22.52,54A63.85,63.85,0,0,1,2126.37,430.43Z" transform="translate(729.25 922.64)"/><path class="cls-18" d="M1843.61,662.6c-4.72,0-9-3-12.53-5.4-1-.7-2-1.38-2.92-1.93-17.79-10.68-31.85-31.18-38.6-56.26-1.1-4.07-2.25-8.18-3.4-12.3-3.12-11.19-6.36-22.77-8.69-34.13-5.49-26.71-15.29-59.57-42.66-76.77-28.29-19.47-37.27-76.6-29.38-104.2A34.68,34.68,0,0,1,1709,364c3.4-6,3.68-7.49,1.75-9.66-7.21-8.13-14.76-15.88-20.68-13.53-17.91,7.11-39.26,1.25-63.45-17.4-14.76-11.39-30-23.16-46.82-32.42-23.59-12.8-32.18-38.11-39.77-60.44-1.08-3.18-2.14-6.31-3.23-9.36-6.36-17.77-33.68-39.17-52.9-36.7-9.86,1.26-14.73,11.33-19.9,22-1.33,2.76-2.72,5.62-4.18,8.27l-5.18,9.36-4.67-9.62c-9.48-19.51-11.62-35.27-6.55-48.16,4.53-11.51,14.93-20.48,30.89-26.64,48.82-21.22,98.51-44.53,147.48-69.21l1.26-.63c7.86-4,19.73-10,29.47,2,6.64,8.22,7.81,18.87,3.59,32.56-3.55,11.52,1.87,14.63,14.47,20.59l3.11,1.48c9.47,4.6,20.44-4.87,24.71-9.16,2.57-2.57,2.12-5.23-.62-12.47a48.2,48.2,0,0,1-2.63-8.45c-.22-1.21-.56-2.43-.88-3.65-1.39-5.2-3.29-12.32,2.17-18.63,7.43-8.58,16.08-2.06,19.34.4.55.41,1.08.81,1.6,1.17,6.67,4.62,12.14,4.94,18.87,1.11,11.49-6.54,22.59-4.07,29.68,6.59,6.21,9.33,6.91,21.41,2,34.93-7.57,21-15.72,42.38-23.61,63.07-7.36,19.3-15,39.27-21.91,58.41-6.33,17.46-24,24.56-38.19,30.27-1.7.69-3.38,1.36-5,2a14.52,14.52,0,0,0-8.52,8.55c-2,5.5-1.12,12.82,2.37,19.59,1.89,3.67,2.93,4.44,3.2,4.59,0,0,.12,0,.27-.1,19.94-8.06,36.6,3.89,50,13.49,1.5,1.07,3,2.12,4.42,3.13,4.29,3,19.34,12.18,32.9,5.09,17-8.91,31.7-8.27,49,2.15l1.64,1c10.93,6.61,25.89,15.65,37.88,12.26,4-1.13,10-1.21,16.09,4.81,14.18,14,20,54.9,16.56,67.52-9.73,36.1-23.77,78.38-40.59,122.28-8,20.8-8.79,41-2.44,60,3.71,11.09,6.65,24.29,9,34.9a58.6,58.6,0,0,0,1.72,5.64c2.1,6.19,4.72,13.88.36,20.22a11.57,11.57,0,0,1-7.48,5.14A11.44,11.44,0,0,1,1843.61,662.6ZM1692.29,329.3c11,0,20.63,10.81,26.75,17.71,7.57,8.54,2.57,17.3-.42,22.54a27,27,0,0,0-2.52,5.11c-7,24.68,1.26,75.67,24.82,91.88,30.73,19.31,41.5,54.94,47.42,83.8,2.26,11,5.44,22.37,8.52,33.38,1.16,4.16,2.31,8.3,3.42,12.41,6,22.32,18.25,40.41,33.57,49.61,1.12.66,2.31,1.48,3.54,2.33,1.74,1.2,4.95,3.42,6.17,3.43,0,0,.16-.19.38-.51,1.2-1.75-.42-6.52-1.72-10.35a65.73,65.73,0,0,1-2-6.81c-2.3-10.35-5.17-23.24-8.7-33.79-7.19-21.51-6.31-44.21,2.6-67.47,16.69-43.55,30.6-85.46,40.24-121.2,2.67-9.91-3-46.22-13.64-56.73-2.76-2.73-4.52-2.24-5.27-2-16.62,4.71-34-5.78-46.64-13.43l-1.63-1c-13.93-8.39-24.62-8.9-38.15-1.83-12.89,6.74-29.48,4.57-44.38-5.81-1.5-1-3-2.13-4.55-3.23-12.33-8.84-25.09-18-39.36-12.22-6.86,2.77-12.75-.49-17.5-9.7-4.89-9.47-6-20.11-2.93-28.48a25.5,25.5,0,0,1,14.68-15c1.67-.7,3.4-1.4,5.15-2.1,13.4-5.39,27.26-11,31.89-23.75,7-19.23,14.6-39.24,22-58.58,7.87-20.65,16-42,23.55-62.89,2.53-7,4.45-17.07-.83-25-2.41-3.62-6.57-7.86-15-3.1-10.46,6-20.5,5.42-30.68-1.63-.64-.44-1.3-.93-2-1.44a17.65,17.65,0,0,0-3.8-2.44,3.63,3.63,0,0,0-.45.45c-1.47,1.69-1.1,3.78.15,8.49.39,1.45.79,3,1.08,4.52a40.4,40.4,0,0,0,2.09,6.52c2.59,6.83,6.14,16.18-1.89,24.24-12.59,12.62-26.23,16.75-37.43,11.31l-3-1.43c-11.34-5.36-26.86-12.7-20.33-33.9,3.09-10,2.58-17.12-1.62-22.31-3.58-4.44-6.59-3.8-15.79.88l-1.3.66c-49.16,24.77-99,48.17-148.27,69.56-13.34,5.16-21.37,11.81-24.77,20.43-3,7.59-2.46,17,1.62,28.45,5.44-11.06,12.55-23.51,27.12-25.38,24.8-3.16,56.88,22,64.76,44,1.11,3.1,2.2,6.29,3.3,9.53,7.26,21.39,14.78,43.52,34.58,54.27,17.57,9.69,33.18,21.73,48.27,33.37,20.87,16.09,38.56,21.44,52.57,15.87A17.15,17.15,0,0,1,1692.29,329.3Zm13.1-248.36Z" transform="translate(729.25 922.64)"/><path class="cls-18" d="M2482.89,243.84a32.38,32.38,0,0,1-25.81-12.21c-10.84-12.89-12.83-31.95-5.36-52.17,9.79-26.45,35-52.41,64.17-50.74,30.36,1.7,55,35.76,62.87,59.4l.12.33a10,10,0,0,1,.7,2.79c.2,2.38,1.44,5.19,2.76,8.16,2.81,6.35,7,15.94-1.39,24.21-8.64,8.47-27.77,18.9-42.71,11.27-15.72-5-21.18-4.39-35.8,3.71A40.43,40.43,0,0,1,2482.89,243.84Zm30.42-104.09c-22.79,0-43.24,22.1-51.17,43.56-2.87,7.75-8.26,27.27,3.55,41.31,8.24,10.44,21.67,9.63,31.37,4.26,17.32-9.6,26.16-10.46,45-4.43l1,.41c9.14,4.94,23.4-2.56,30.15-9.18,2.58-2.52,2.1-4.78-1-11.79-1.51-3.41-3.21-7.25-3.64-11.35l0-.1c-.11-.28-.22-.57-.31-.86-7.93-23.93-30.42-50.52-52.94-51.78C2514.61,139.77,2514,139.75,2513.31,139.75Zm55.21,52.42h0Z" transform="translate(729.25 922.64)"/><path class="cls-18" d="M1822.93,75.91c-7.13,0-13.68-4.88-18.25-8.85-1.15-1-2.33-2-3.51-3-7.59-6.38-16.2-13.61-19.52-25.26-5.84-20.5-21.57-32.69-33.75-39.3-6.4-3.48-23.42-12.73-19.1-36.18l.13-.68c2.83-15.34,6.7-36.35,24.11-45.2,8.58-4.36,17.54-9.34,26.2-14.16l7.4-4.12h0l6-3.4c5.64-3.1,11.49-6.3,16.73-9.08,1.93-1,4.2-2.41,6.61-3.89,9.72-5.95,21.82-13.35,33.12-10.46,5.62,1.44,10.21,5.21,13.63,11.21,17.59,30.81,20.73,59.36,9.87,89.86-3.26,9.17-6.7,18.36-10.33,28.09-6.2,16.57-12.61,33.71-18,50.55-4.52,14-9.82,21.22-17.21,23.28A15.18,15.18,0,0,1,1822.93,75.91ZM1799.58-95.38l0,.12-3.82,2.09c-3.71,2-7.43,4.1-11.15,6.18-8.75,4.87-17.8,9.91-26.57,14.36-12.52,6.36-15.55,22.81-18.22,37.31l-.13.68c-2.38,12.93,3.39,18.93,13.48,24.41,14,7.63,32.24,21.81,39.13,46,2.38,8.38,9,13.92,16,19.79q1.85,1.55,3.65,3.1c5.33,4.62,9.49,6.69,12.06,6,1.83-.52,5.53-3.28,9.62-16,5.49-17.08,11.94-34.35,18.19-51,3.62-9.69,7-18.84,10.28-27.93,9.82-27.59,7-52.46-9.06-80.62-1.91-3.34-4.11-5.29-6.74-6-6.78-1.73-16.64,4.32-24.57,9.18-2.56,1.57-5,3-7.22,4.24C1809.83-101,1804.65-98.16,1799.58-95.38Z" transform="translate(729.25 922.64)"/><path class="cls-18" d="M1670,58.2a25.35,25.35,0,0,1-9.88-2,19,19,0,0,1-11.9-14.56c-1.6-9.86,5.65-13.59,9.14-15.38.58-.3,1.15-.58,1.67-.9,3.75-2.24,7.58-4.25,11.29-6.2,2.62-1.38,5.25-2.76,7.85-4.22,10.48-5.89,18.73-7.34,25.23-4.43,5.39,2.41,9,7.55,10.7,15.28,3.34,15.15-7.69,18.22-13,19.69-1.41.39-3.76,1-4.25,1.58l-.69,1.07-1.06.62C1686.81,53.77,1678.63,58.2,1670,58.2Zm26.29-38.05c-2.45,0-6.42.93-12.68,4.45-2.69,1.51-5.41,2.94-8.12,4.37-3.74,2-7.27,3.82-10.77,5.91-.72.42-1.49.83-2.29,1.24-3.56,1.83-3.53,2-3.25,3.72a8,8,0,0,0,5.21,6.09c6.84,2.86,13.54.21,24.05-6.14,2.62-3.06,6.51-4.14,9.7-5,5.6-1.56,6.19-1.72,5.11-6.6-.9-4.1-2.38-6.64-4.38-7.54A6.29,6.29,0,0,0,1696.24,20.15Z" transform="translate(729.25 922.64)"/><path class="cls-18" d="M2408.16,143.8c-14.95,0-40.74-14.53-47.88-25.55a11.34,11.34,0,0,1-1.41-9.66c1.26-4.08,4.72-7.49,9.76-9.61l.81-.34.86-.07c16.66-1.45,41.74,10.55,50.6,24.21,3.64,5.62,2.54,10.24,1.55,12.49-2.07,4.74-7.07,7.57-11.1,8.28A19,19,0,0,1,2408.16,143.8Zm-36-34.23c-1.82.91-2.55,1.87-2.68,2.29,0,.06,0,.12.12.35,5.94,9.18,30.88,21.94,39.84,20.4a4.51,4.51,0,0,0,2.84-1.78c.15-.34-.13-1.13-.7-2C2405.64,119.65,2385.79,108.89,2372.16,109.57Z" transform="translate(729.25 922.64)"/><path class="cls-18" d="M2215.57,373.74a9.16,9.16,0,0,1-3.39-.65c-5.28-2.09-6.72-8-8-13.18a29.27,29.27,0,0,0-1.84-5.89l-.39-.75-.16-.83c-1.54-8.06-6.24-32.61,11.24-44.32,4.82-3.23,8.61-2.77,10.95-1.82,6.24,2.53,8,10.62,9.34,17.11.23,1.09.45,2.14.68,3.08,6.55,26.84-2.3,39.09-10.88,44.65A14.08,14.08,0,0,1,2215.57,373.74Zm-3-24.12a41.76,41.76,0,0,1,2.4,7.65,45.69,45.69,0,0,0,1.42,5c.2-.11.43-.24.7-.42,8.09-5.23,10.15-16.24,6.13-32.7-.25-1-.5-2.2-.75-3.4-.51-2.37-1.49-7-2.56-8.79-.18.09-.41.23-.69.41C2211.68,322.39,2209.5,333,2212.57,349.62Z" transform="translate(729.25 922.64)"/><path class="cls-18" d="M2449.26-70.43a12.87,12.87,0,0,1-9.39-4.4,10.14,10.14,0,0,1-2-10.58c.69-2,1.43-4.16,2.19-6.41,4.7-13.93,10-29.73,22.92-38.8,2-1.42,7.23-4.52,12.14-2.75a8.4,8.4,0,0,1,5.28,5.94l.13.64c2.65,17.87-13.12,52.09-29,56.09A9.7,9.7,0,0,1,2449.26-70.43Zm-1-11.08v0A0,0,0,0,0,2448.27-81.51Zm.16-.44a2.3,2.3,0,0,0,.71.4c8.16-2.54,20.56-25.46,20.64-40.26l-.4.27c-9.92,7-14.43,20.35-18.79,33.27Q2449.51-85,2448.43-81.95Z" transform="translate(729.25 922.64)"/><path class="cls-18" d="M2457.77,128a9.41,9.41,0,0,1-4-.9c-5.23-2.47-6.54-9-7-11.19-1.83-9.18-1.41-25.31,21.93-30.29a21.29,21.29,0,0,0,3.58-1.53c3.66-1.77,8.66-4.21,13.52-2,3.06,1.39,5.2,4.25,6.37,8.5a23.86,23.86,0,0,1-2,20.07c-4.14,6.88-11.68,11.72-20.68,13.29l-.6.11h-.26a23.42,23.42,0,0,0-2.28,1.12C2464.08,126.37,2461.06,128,2457.77,128Zm23.28-35.6a27.82,27.82,0,0,0-3.92,1.68,27.37,27.37,0,0,1-6.12,2.39c-14.2,3-14.72,10.43-13.36,17.27a14,14,0,0,0,.85,2.93c.77-.31,1.83-.88,2.54-1.26,2.05-1.1,4.34-2.32,6.88-2.45,5.57-1.07,10.29-4,12.67-8a12.88,12.88,0,0,0,1-11.06l-.08-.28A7.79,7.79,0,0,0,2481.05,92.39Z" transform="translate(729.25 922.64)"/><path class="cls-18" d="M2605.49,216.38a16.4,16.4,0,0,1-8.57-2.35c-7-4.17-10.3-12.95-11.87-19.57a31.16,31.16,0,0,0-1.61-4.17c-1.88-4.32-4.22-9.7-2-14.59a10.63,10.63,0,0,1,6.9-5.66c16.18-5,21.08,9.16,23.71,16.76a52.27,52.27,0,0,0,2.53,6.46l.81,1.6-.22,1.46a17.81,17.81,0,0,0,1.28,2.55c1.59,2.83,3.76,6.7,2,10.93s-6.48,5.52-8,5.92A19.11,19.11,0,0,1,2605.49,216.38Zm-13.8-35.74a31.45,31.45,0,0,0,1.93,5.22,38,38,0,0,1,2.23,6c1.5,6.34,4,10.94,6.78,12.62a5.84,5.84,0,0,0,4.59.57l-.43-.77c-1.15-2.05-2.53-4.5-2.71-7.31-1-2.12-1.74-4.37-2.5-6.56C2597.92,179.85,2596.52,179.15,2591.69,180.64Z" transform="translate(729.25 922.64)"/><path class="cls-18" d="M1931.74,31.4a7.4,7.4,0,0,1-3.09-.67c-5.12-2.3-6.35-9.54-7.35-15.35-.12-.74-.24-1.44-.37-2.09-.31-1.68-.73-3.49-1.16-5.38-2.54-11.16-6-26.45,5.4-35.09,3.06-2.31,5.92-3,8.51-2,4.35,1.66,5.35,6.75,6.31,11.68a25.67,25.67,0,0,0,1.42,5.39l1.08.75.84,3.18C1946.4,3.46,1951,21,1937,29.72A10,10,0,0,1,1931.74,31.4Zm-1.11-52.25c-.13.08-.27.19-.43.31-6.61,5-5,14.59-2.31,26.61.46,2,.89,3.9,1.23,5.67.13.69.25,1.44.39,2.24.4,2.32,1.3,7.58,2.46,9a4.46,4.46,0,0,0,.66-.35c8.12-5,6-16,2.65-28.68l-.16-.59c-1.93-2.25-2.6-5.68-3.3-9.26A38.28,38.28,0,0,0,1930.63-20.85Z" transform="translate(729.25 922.64)"/><path class="cls-18" d="M2416.57,91.29a10,10,0,0,1-5.14-1.36c-4.72-2.74-5.89-8.49-6.82-13.11a34.35,34.35,0,0,0-1.09-4.44c-5.11-13.59-1.55-26.62,8.67-31.69,3.71-1.84,7-2,9.92-.62,4.65,2.31,5.65,7.54,6.46,11.75a20.7,20.7,0,0,0,.94,3.83l.53.8.32,1.33c2.69,10.92,6.76,27.42-9.36,32.74A14.2,14.2,0,0,1,2416.57,91.29Zm.4-40.58c-4.8,2.52-6.06,9.79-3.06,17.77a40.34,40.34,0,0,1,1.58,6.14,27.83,27.83,0,0,0,1.48,5.51l.55-.15c5.13-1.7,5.55-5.31,2.14-19.22a25,25,0,0,1-2-6.86C2417.49,53,2417.24,51.7,2417,50.71Z" transform="translate(729.25 922.64)"/><path class="cls-18" d="M1910.19,40.48a8.67,8.67,0,0,1-3.73-.81c-2.8-1.32-4.77-4.08-5.85-8.2-2.34-8.89-.21-16.75,5.85-21.54,3.58-2.83,6.58-2.73,8.46-2.14,4.41,1.37,6.45,6.37,7.75,10.58l.07.27c2.41,10.29-.13,17.24-7.55,20.65A11.88,11.88,0,0,1,1910.19,40.48Zm2.33-24.6a4.93,4.93,0,0,0-.9.58c-4.34,3.44-4,8.91-3,12.89.53,2,1.16,2.7,1.36,2.79a2.87,2.87,0,0,0,1.69-.41c1.74-.81,5-2.29,3-11.06C1913.67,17.46,1912.88,16.28,1912.52,15.88Z" transform="translate(729.25 922.64)"/></g><g class="cls-19"><path class="cls-2" d="M1980.54-35c77-1.93,180.91,42.13,204.27,133.91,22.15,87.06-60.72,30.83-107.57-21.23C2038.61,34.73,1927.66-33.69,1980.54-35Z" transform="translate(729.25 922.64)"/></g><g class="cls-13"><path class="cls-2" d="M1772.75-41.85c1.57-.83,3.17-1.63,4.78-2.43s3.23-1.62,4.85-2.38c131.19-63,282.88-36.14,384.51,56.85a346.07,346.07,0,0,1,76.21,101.16c1.56,3.14,3.09,6.29,4.55,9.46a345.3,345.3,0,0,1,27.76,199.5,345.65,345.65,0,0,0-22.2-227.26c-1.47-3.16-3-6.32-4.56-9.46a346,346,0,0,0-76.2-101.16c-101.64-93-253.33-119.81-384.52-56.85-1.62.77-3.25,1.58-4.85,2.38s-3.21,1.6-4.78,2.43C1676.74-17,1611.89,79.13,1595.18,184.48A346.36,346.36,0,0,1,1772.75-41.85Z" transform="translate(729.25 922.64)"/></g><circle class="cls-1" cx="2667.31" cy="1161.21" r="347.12"/><g class="cls-20"><path class="cls-10" d="M2090.24,524.2c-168.38,84-372.37,18.4-460.76-146.32-1.65-3.08-3.24-6.19-4.81-9.33a345.11,345.11,0,0,1-32.22-209.35,346.07,346.07,0,0,0,32.22,100.08c1.57,3.13,3.16,6.25,4.81,9.32,88.39,164.73,292.38,230.35,460.76,146.33,104.24-52,170.85-149.34,187.87-256.2C2301.51,304.56,2229.39,454.78,2090.24,524.2Z" transform="translate(729.25 922.64)"/></g><path class="cls-10" d="M1938.35,599.2a361.36,361.36,0,0,1-317.86-190c-1.71-3.19-3.37-6.43-5-9.68a358.87,358.87,0,0,1-36.35-126.42c-14.14-147.32,61.62-286.49,193-354.56,1.56-.82,3.26-1.67,5-2.52s3.4-1.7,5.11-2.5c133.34-64,290.07-40.81,399.23,59.07a358.86,358.86,0,0,1,79.15,105.06h0c1.62,3.25,3.21,6.52,4.72,9.8a360.75,360.75,0,0,1-327,511.76Zm.21-694.71a334.3,334.3,0,0,0-144.85,33.14c-1.61.76-3.15,1.53-4.66,2.29s-3,1.5-4.5,2.28c-121.76,63.07-191.9,191.93-178.81,328.33a332.36,332.36,0,0,0,33.66,117q2.26,4.53,4.64,9c85.85,160,280.44,221.8,443,140.68s230.23-273.75,154-438.56q-2.11-4.57-4.39-9.11a332.36,332.36,0,0,0-73.26-97.26C2100.31-65.45,2020-95.51,1938.56-95.51Z" transform="translate(729.25 922.64)"/></svg>