<svg id="Layer_16" data-name="Layer 16" xmlns="http://www.w3.org/2000/svg" viewBox="0 0 3143.79 3232.71"><defs><style>.cls-1{fill:#fb132b;}.cls-2{fill:#f99707;}.cls-3{opacity:0.3;}.cls-4{fill:#371a45;}.cls-5{opacity:0.7;}.cls-6{fill:#fff;}.cls-7{fill:#fed730;}.cls-8{fill:#0096f0;}.cls-9{opacity:0.6;}.cls-10{fill:#febd1c;}.cls-11{opacity:0.35;}.cls-12{fill:#101928;}.cls-13{opacity:0.5;}.cls-14{fill:#fff3e9;}</style></defs><path class="cls-1" d="M2636.81,1109.41l-191.45-81.47-146.65,25.8L2141.64,741.43s54.85-2.17,123.13,7.28c51.7,7.12,111.07,21,160.22,47.47,0,0,81,79.73,164,223l.11.11C2605.09,1047,2621.17,1077.09,2636.81,1109.41Z" transform="translate(352.19 854)"/><path class="cls-2" d="M1969.7,1423.37s-19,125.07,55.18,230.08l25.35-49.79S2063.81,1719.53,2158,1792l28.06-63.37s38,124.44,302.35,234.21c0,0,27.15-187.14-54.32-324.73l41.64,5.43s8.11-122.66-86.47-213.63l69.73,25.8s-32.14-134.77-178.33-205.21Z" transform="translate(352.19 854)"/><path class="cls-2" d="M1969.7,1423.37s-19,125.07,55.18,230.08l25.35-49.79S2063.81,1719.53,2158,1792l28.06-63.37s38,124.44,302.35,234.21c0,0,27.15-187.14-54.32-324.73l41.64,5.43s8.11-122.66-86.47-213.63l69.73,25.8s-32.14-134.77-178.33-205.21Z" transform="translate(352.19 854)"/><g class="cls-3"><path class="cls-4" d="M2409.57,1437.41c-18.47-43.24-63.28-120.52-160-169.68l31-17.27c146.15,70.44,178.31,205.2,178.31,205.2Z" transform="translate(352.19 854)"/></g><g class="cls-3"><path class="cls-4" d="M2437.48,1638.48c-1.79-37.86-14.23-125.52-86.3-194.83l69.74,25.8s-.44-1.79-1.41-5.1c62.46,84.62,56.16,179.12,56.16,179.12Z" transform="translate(352.19 854)"/></g><g class="cls-3"><path class="cls-4" d="M2488.37,1962.78q-18.33-7.58-35.19-15.31c4-58,4.78-191.08-57.14-295.63l41.61,5.43s.32-4.67,0-12.82C2514.72,1781.43,2488.37,1962.78,2488.37,1962.78Z" transform="translate(352.19 854)"/></g><g class="cls-3"><path class="cls-4" d="M2437.7,1644.45c-1.14-2.12-2.39-4.29-3.64-6.41l3.42.44C2437.65,1640.65,2437.7,1642.66,2437.7,1644.45Z" transform="translate(352.19 854)"/></g><g class="cls-5"><path class="cls-6" d="M2488.37,1962.78C2224,1853,2186,1728.58,2186,1728.58L2157.93,1792c-94.12-72.46-107.7-188.31-107.7-188.31l-25.37,49.81c-74.19-105-55.18-230.08-55.18-230.08l14.94-8.31c-.76,46,6.46,118.62,49.31,185.1l27.43-48.61s8.58,116.34,99.56,192.76l30.74-62.13s32.64,126,292,247c0,0,6.25-32.86,7.87-81.47C2495.49,1913.9,2488.37,1962.78,2488.37,1962.78Z" transform="translate(352.19 854)"/></g><path class="cls-7" d="M2065.62,1388.22c-3.62,3.62-11.77,54.31,12.67,134l28.06-35.3s-9,86,40.74,165.65l30.77-57.93s61.56,143,201.87,211.82c0,0,15.39-152.08-55.22-277.9l61.56,25.34s-30.78-95-115-132.16l60.65-23.54s-61.65-70.12-161.13-66.08Z" transform="translate(352.19 854)"/><path class="cls-8" d="M1882.74,1341.09l9.79,106.42c161.77-42.09,318.66-137.69,445.56-242.15l-90.29-77.51Z" transform="translate(352.19 854)"/><path class="cls-6" d="M2261.29,1118.75a3320.68,3320.68,0,0,1-408,236.92c-38.35,18.73-84.73,6.68-108.63-28.74-285.2-422-556.55-863-816.93-1318.84C807.1-222,752.57-461.5,844-721.83A67.09,67.09,0,0,1,917-766c239.68,34.38,425.22,186.18,579.25,406.21q12,19.06,23.9,38.29h0c242,388,500.88,841.69,768.21,1328A85.76,85.76,0,0,1,2261.29,1118.75Z" transform="translate(352.19 854)"/><path class="cls-1" d="M1520.13-321.48c-149.31-49.1-522.23,163-592.4,329.57C807.1-222,752.57-461.5,844-721.83A67.09,67.09,0,0,1,917-766c239.68,34.38,425.22,186.18,579.25,406.21Q1508.2-340.71,1520.13-321.48Z" transform="translate(352.19 854)"/><g class="cls-3"><path class="cls-4" d="M2261.29,1118.75a3320.68,3320.68,0,0,1-408,236.92,85.83,85.83,0,0,1-97-14.94,3316.68,3316.68,0,0,0,321.65-188L1903.58,854.41l153.6,16.72q-77.8-140.45-154.47-276.61c-64.41,15.91-199.93,49.15-205,47.79L1870.4,537.43C1697.84,232.62,1530.28-53,1370.11-309.86h0q-11.89-19.23-23.9-38.29C1210.76-541.56,1051-682.29,851.53-736.82A67.1,67.1,0,0,1,917-766c239.68,34.38,425.22,186.18,579.25,406.21q12,19.06,23.9,38.29h0c242,388,500.88,841.69,768.21,1328A85.76,85.76,0,0,1,2261.29,1118.75Z" transform="translate(352.19 854)"/></g><g class="cls-9"><path class="cls-6" d="M2150.87,1190.66a3310.79,3310.79,0,0,1-297.58,165c-38.35,18.73-84.73,6.68-108.63-28.74-285.2-422-556.55-863-816.93-1318.84C807.1-222,752.57-461.5,844-721.83a67,67,0,0,1,47.58-43,66.52,66.52,0,0,0-12.27,21.29C787.87-483.23,842.4-243.71,963-13.63,1223.41,442.22,1494.76,883.19,1780,1305.21c23.9,35.41,70.29,47.47,108.63,28.73Q2021.22,1269.1,2150.87,1190.66Z" transform="translate(352.19 854)"/></g><path class="cls-1" d="M1764.16,1351.43,1762,1354l-94.35,110.8-20.26,156.64-6.4,49.7c-123.3-184.18-162.84-341.25-162.84-341.25,2.34-64.15,25.91-131.39,49.16-183,7.22-16,14.34-30.47,20.8-42.85,15-28.57,26.34-46.27,26.34-46.27Z" transform="translate(352.19 854)"/><path class="cls-4" d="M1641,1687.42a16.29,16.29,0,0,1-13.54-7.23C1504,1495.75,1464,1340.36,1462.35,1333.83a15.91,15.91,0,0,1-.48-4.56c4.79-132.46,95-274.34,98.84-280.31a16.29,16.29,0,1,1,27.42,17.61c-.88,1.38-88.09,138.66-93.6,261.49,4.91,18,41.5,145,136,296.84l21-162.21a16.19,16.19,0,0,1,3.75-8.47l96.51-113.38a16.29,16.29,0,0,1,24.82,21.12l-93.39,109.71-26.08,201.55a16.28,16.28,0,0,1-16.16,14.2Z" transform="translate(352.19 854)"/><path class="cls-4" d="M1892.53,1463.8a16.27,16.27,0,0,1-16.22-14.8l-9.8-106.42a16.29,16.29,0,1,1,32.45-3l8,87.08c163.72-46.81,308.05-143.3,405.7-221.66l-75.5-64.8a16.3,16.3,0,1,1,21.23-24.73l90.3,77.51a16.31,16.31,0,0,1-.26,24.94c-103.55,85.23-266,197-451.81,245.34A16.42,16.42,0,0,1,1892.53,1463.8Z" transform="translate(352.19 854)"/><path class="cls-4" d="M1815.74,1380.63a102,102,0,0,1-84.59-44.58c-272.92-403.85-548-847.92-817.57-1319.88-.1-.17-.19-.34-.28-.51C772.1-253.64,745.21-489.7,828.66-727.23a83.6,83.6,0,0,1,90.63-54.88c225.27,32.31,418.36,167.4,590.29,413,.16.22.3.45.45.68q11.68,18.62,23.33,37.37l.65,1c217,348.07,468.49,782.72,768.66,1328.8a101.68,101.68,0,0,1-32.22,133.54h0a3353.81,3353.81,0,0,1-410,238.07A101.56,101.56,0,0,1,1815.74,1380.63ZM942,.27c269.12,471.15,543.71,914.44,816.13,1317.54,19.15,28.38,57,38.36,88,23.22a3320,3320,0,0,0,406-235.76h0a69.22,69.22,0,0,0,22-90.89C1974.52,469.37,1723.57,35.53,1507-311.86c-.25-.34-.49-.69-.71-1.05q-11.76-19-23.62-37.86c-166.42-237.58-352.23-368.14-568-399.09a51,51,0,0,0-55.25,33.43C779.18-488.09,805.42-260.37,942,.27Z" transform="translate(352.19 854)"/><path class="cls-8" d="M1889.43,317.27l-495,294.1a48.1,48.1,0,0,0-17.36,64.91l42,74.76a48.11,48.11,0,0,0,66.73,17.65L1981,470.79A48.09,48.09,0,0,0,1997.56,405l-42.23-71A48.09,48.09,0,0,0,1889.43,317.27Z" transform="translate(352.19 854)"/><g class="cls-3"><path class="cls-4" d="M1981,470.79l-108.62,65.34a48,48,0,0,0,12.76-63.28L1843,401.92A48.18,48.18,0,0,0,1777,385.14L1386.79,617.06a47.83,47.83,0,0,1,7.66-5.71l495-294.11A48.18,48.18,0,0,1,1955.34,334l42.2,70.93A48.1,48.1,0,0,1,1981,470.79Z" transform="translate(352.19 854)"/></g><path class="cls-4" d="M1461.16,791.9a65.15,65.15,0,0,1-16.61-2.17A63.85,63.85,0,0,1,1404.89,759l-42-74.75a64,64,0,0,1,23.24-86.91l495-294.1a64.49,64.49,0,0,1,88.24,22.43l42.22,71a64.52,64.52,0,0,1-22.14,88.1l-495.21,297.9A63.89,63.89,0,0,1,1461.16,791.9Zm452.78-465.08a31.69,31.69,0,0,0-16.19,4.45h0l-495,294.1a31.62,31.62,0,0,0-11.49,42.92l42,74.75a31.8,31.8,0,0,0,44.12,11.68l495.2-297.9a31.87,31.87,0,0,0,10.93-43.52l-42.22-71A31.84,31.84,0,0,0,1913.94,326.82Zm-24.51-9.55h0Z" transform="translate(352.19 854)"/><polygon class="cls-1" points="2155.29 1766.52 2243.55 1706.77 2578.94 2248.55 2493.8 2301.51 2155.29 1766.52"/><g class="cls-5"><polygon class="cls-6" points="2578.94 2248.55 2493.83 2301.51 2155.29 1766.52 2178.81 1750.6 2516.69 2284.67 2577.8 2246.7 2578.94 2248.55"/></g><polygon class="cls-10" points="1901.01 1373.65 1997.88 1526.51 2177.06 1418.72 2082.03 1266.09 1901.01 1373.65"/><path class="cls-4" d="M1645.71,688.81a16.27,16.27,0,0,1-13.78-7.57l-96.88-152.87a16.3,16.3,0,0,1,5.44-22.73l181-107.56a16.3,16.3,0,0,1,22.16,5.4l95,152.64a16.29,16.29,0,0,1-5.43,22.57L1654.09,686.48A16.21,16.21,0,0,1,1645.71,688.81Zm-74.15-163.72,79.37,125.26,151.36-91.06-77.84-125Z" transform="translate(352.19 854)"/><path class="cls-4" d="M1725.22,638.27a13.56,13.56,0,0,1-11.44-6.25l-32.46-50.55a13.58,13.58,0,0,1,22.85-14.67l32.47,50.55a13.59,13.59,0,0,1-11.42,20.92Z" transform="translate(352.19 854)"/><path class="cls-4" d="M1656.15,530.67a13.55,13.55,0,0,1-11.44-6.24l-28.42-44.29a13.58,13.58,0,1,1,22.85-14.67l28.42,44.29a13.57,13.57,0,0,1-11.41,20.91Z" transform="translate(352.19 854)"/><g class="cls-11"><path class="cls-6" d="M1070.77-205c-100.17-189.7,72.11-253.46,187-86.9l293.11,503.26a80.52,80.52,0,0,1-36.49,113.94l-27.56,12.43a80.52,80.52,0,0,1-101.71-31.25Z" transform="translate(352.19 854)"/></g><path class="cls-4" d="M1692.74,587.7a13.58,13.58,0,0,1-7.29-25l35.15-22.32L1700.74,508l-38.07,21a13.58,13.58,0,1,1-13.11-23.78L1699,477.94a13.57,13.57,0,0,1,18.12,4.79l33.64,54.8a13.57,13.57,0,0,1-4.29,18.56L1700,585.58A13.48,13.48,0,0,1,1692.74,587.7Z" transform="translate(352.19 854)"/><path class="cls-4" d="M927.74,21.67a13.45,13.45,0,0,1-5.26-1.07,13.58,13.58,0,0,1-7.25-17.78c74.39-176.57,455.86-387.69,609.22-337.17a13.58,13.58,0,0,1,8.65,17.14,13.58,13.58,0,0,1-17.15,8.65c-65-21.43-185.76,10.3-315,82.81C1073.7-154.35,971.38-60.49,940.26,13.36A13.57,13.57,0,0,1,927.74,21.67Z" transform="translate(352.19 854)"/><path class="cls-4" d="M1555.84,1055.29a13.58,13.58,0,0,1-6.36-25.58c278.24-147.15,552.19-349.3,554.93-351.32a13.58,13.58,0,0,1,16.16,21.83c-2.75,2-278.29,205.37-558.39,353.5A13.52,13.52,0,0,1,1555.84,1055.29Z" transform="translate(352.19 854)"/><path class="cls-6" d="M1641.17,991.76,1624.82,1006s-.16.11-.49.38l-146.15,126.94s-113.63,29.49-119.06,29.49c-1.25,0-27.21-32.7-66.26-82.78C1166,917.3,900.93,570.73,895.56,563.67l45.35,31.93L934.55,548a114.39,114.39,0,0,1,63.82-118.08l121.39-58.39a89.73,89.73,0,0,1,38.94-8.9h126.18l282.81,430.05,11.89,18,71.59,108.9A55.31,55.31,0,0,1,1641.17,991.76Z" transform="translate(352.19 854)"/><g class="cls-3"><path class="cls-4" d="M1624.33,1006.37l-146.15,126.94s-113.63,29.49-119.06,29.49c-1.25,0-27.21-32.7-66.26-82.78-7.44-15.8-16.78-34.65-29.6-58.82-52.63-99.17-82.4-191.51-89.24-231.32s15.64-117.7,15.64-117.7l73.6-51L1314,670.66s-25,16.41,11.62,70.77,39.27,74.74,39.27,74.74c91.19,15.32,140.18-22.16,87-187.44L1555.57,781a84.8,84.8,0,0,1,12.12,11.68,78.87,78.87,0,0,1,11.89,18c9.78,21,9.94,51-35.36,81.58-84.18,56.92-147.57,71.86-147.57,71.86s46.33,97.82,128.56,77.4C1599.73,1023,1621,1008.87,1624.33,1006.37Z" transform="translate(352.19 854)"/></g><path class="cls-4" d="M1359.1,1179.11c-9.83,0-9.83,0-87.6-99.92-38.7-49.73-92.26-119.06-159.19-206.07C998.37,725,883.63,575,882.48,573.45a16.29,16.29,0,0,1,25.89-19.79q6.3,8.24,12.73,16.64l-2.68-20.21a130.4,130.4,0,0,1,72.89-134.91l121.38-58.38a106.83,106.83,0,0,1,46-10.5h126.14a16.31,16.31,0,0,1,13.62,7.34l366.28,557a71.85,71.85,0,0,1-12.89,93.42l-163.05,141.56a16.22,16.22,0,0,1-6.59,3.46C1366.62,1179.11,1361.54,1179.11,1359.1,1179.11ZM950.53,608.76C1114.51,823,1327.87,1100.37,1365,1145c18.1-4.17,63.55-15.67,105.4-26.52l160.15-139a39.15,39.15,0,0,0,7-50.91L1276.08,378.89H1158.73a73.9,73.9,0,0,0-31.91,7.28l-121.38,58.38a97.87,97.87,0,0,0-54.71,101.26L957,593.48A16.28,16.28,0,0,1,950.53,608.76Z" transform="translate(352.19 854)"/><path class="cls-6" d="M1695.49,1685.46l-77.24,240.23a37.81,37.81,0,0,1-16.18,20.53c-37.53,22.86-78,21.12-108.25.54-32.86-22.27-53.61-66.75-45.08-125.85,0,0-104.23-42.31-189.88-165.22l-.22-.27L1142.3,1488.24c1.25-.43,2.5-.92,3.75-1.35.22-.06.43-.17.6-.22,38.34-14.18,76-33.84,105.85-51.22,2.23-1.3,4.46-2.61,6.63-4,57.74-35.42,102.6-89.08,123.84-153.44,0,0,68.48,137.31,104.66,196.18,27.43,44.54,138.39,124.38,190.69,160.55A44.81,44.81,0,0,1,1695.49,1685.46Z" transform="translate(352.19 854)"/><path class="cls-6" d="M1383,1278.05c-22.06,66.81-69.58,122.1-130.47,157.4-31,18-70.39,38.51-110.2,52.79l116.34,167.18.22.27,23.41,33.68a53.89,53.89,0,0,1-1.79,64.2c-33.14,41.87-104.12,116.77-229.37,185.48-21.94,12-49.26,9.83-68.38-6.36a144.29,144.29,0,0,1-18.9-19.22h-.06c-35.3-43.24-45-106.4,19.66-152.3,0,0-212.74-178.31-176.51-321.37q-93.78-50.6-160.45-143.17-14.09-19.8-27.1-41.5-70.71-118.62-104-295.08C338.46,919,187.09,830.29,55.6,704.77c-128.07-5.7-174.73-68.11-153.93-177.44C-62.1,415.33,4.87,395.18,90,426L852.43,536.4s113.35-55.67,239.63,19,232.19,194.17,221.33,305.51c0,0-4.62,38.29-27.54,70.18a115.29,115.29,0,0,1-11.84,14S1445.43,1088.77,1383,1278.05Z" transform="translate(352.19 854)"/><path class="cls-4" d="M1021.43,1962.92a76.12,76.12,0,0,1-49.21-17.77c-34.43-29.12-54-69.23-52.39-107.26.89-21,8.65-50.13,38.33-77.28-47.64-43.45-190.42-185.65-169.62-312.38-145.18-83.3-241.71-242.92-287.12-474.77C335.71,933,183.47,848.05,48.73,720.73c-66-3.94-113.19-23.39-140.44-57.85-26.19-33.12-33.8-79.74-22.61-138.58a17.28,17.28,0,0,1,.51-2C-95,464.26-67.84,427.18-30.66,409c34.74-17,76-16.48,126.18,1.67a16.3,16.3,0,0,1-11.09,30.65c-41.4-15-74.36-16-100.76-3.06-28.23,13.83-50.48,45.17-66.16,93.16-9.09,48.65-3.59,86.08,16.34,111.28,22,27.76,63.16,43.18,122.46,45.82A16.32,16.32,0,0,1,66.83,693C203.07,823,351,905.17,519.12,944.17A16.3,16.3,0,0,1,531.45,957c43.7,233,139,390.62,283.2,468.43a16.31,16.31,0,0,1,8.06,18.34c-33.27,131.44,169.15,303.15,171.2,304.87a16.31,16.31,0,0,1-1,25.78c-25.8,18.29-39.42,40.1-40.47,64.81-1.18,27.64,14.49,58.67,40.88,81,13.69,11.59,33.79,13.4,50,4.5,124.41-68.23,194-142.88,224.42-181.32a37.8,37.8,0,0,0,1.21-44.75l-140-201.14a16.29,16.29,0,0,1,7.86-24.64c32.66-11.73,68.84-29.07,107.55-51.54,59.16-34.32,102.89-87,123.15-148.41,58.19-176.32-102.33-314-104-315.37a16.31,16.31,0,0,1-1-24c29-28.94,34.67-74.15,34.72-74.59,10.39-106.56-99.71-222.29-213.45-289.56C967,500.4,863.88,548.94,859.55,551a16.29,16.29,0,0,1-14.33-29.27c5-2.43,122.8-58.65,255.14,19.61C1214,608.6,1342.24,733,1329.6,862.51c-.27,2.37-5.78,45.84-32.91,81.34a432.91,432.91,0,0,1,69.27,88.48c48.3,82.11,59.53,168.85,32.47,250.85-22.76,69-71.67,128-137.73,166.38-32.84,19-64.07,34.63-93.15,46.45l128.1,184.07c17.57,25.24,16.58,59.61-2.39,83.59-32,40.36-104.87,118.68-234.32,189.67A78,78,0,0,1,1021.43,1962.92Z" transform="translate(352.19 854)"/><path class="cls-6" d="M683.81,960.05l-145.74,82.77a46.71,46.71,0,0,0-22.66,50.6c9.57,43.43,32.59,120.57,84,186.4a46.85,46.85,0,0,0,55.75,14l313.81-137.74a37.93,37.93,0,0,0,21.64-43.52l-1.94-8.1Z" transform="translate(352.19 854)"/><path class="cls-4" d="M1284.11,957.89c-81.8,61.51-169.71,115.48-264.69,154-80.07,29-171.86,22.52-247.42-16.62-58-29-111.93-87.45-104.31-156.86,4.25-45.06,27.23-85.72,61.13-115.08,16.59-14,38.32-26.4,61.08-26.24,25.76-.76,61.85,7.21,69.78,36.88a25.62,25.62,0,0,1,.53,2.82l-28.25-9c26.69-29.13,74.85-57.69,106.64-19.11,16,17.14,26.19,39.74,27.64,63.23L940,859.3c9.09-9.54,19.4-17.49,29.87-25.24,32.51-22.59,67.16-42,104.06-56.87-12,16.36-25.12,31-39,45.42-22.83,23.4-46.48,46.34-75.08,62.57,0,0-26.24-12.65-26.21-12.62-1.94-19-11.89-38.95-28.16-49.32-8-2.42-15.44,1.19-23.14,5.31a122.31,122.31,0,0,0-26.25,21.14l-28.25-9a8,8,0,0,0,.15,1c.06.16,0,0,0,.06s-.07-.15-.1-.26c-2-4-5.68-5.9-10.37-7.91-8.8-3.36-22.13-4.45-32.7-3.53-13.05,2.28-24.45,9.52-35,18.26-39.91,34.24-64.26,94-41,143.58,15.32,32.82,46.09,57.77,78.27,74.57,67.37,34.89,149.8,40.81,221.22,14.88,55-21.84,107.21-50.63,157.64-81.66,33.57-20.85,67.06-43.54,98.23-67.5,17.13-12.66,36.72,12,19.95,25.76Z" transform="translate(352.19 854)"/><path class="cls-4" d="M859.16,833l-1.82,45.36-.22-1a27.29,27.29,0,0,1,.12,6.27c-.43,13.49-11,24.87-24.53,24.82,5.37-2.57,10.51-6.63,12-12.33,1.65-5.43-.15-10.7-2.22-15.48L827,838c-7.35-25.35,31.47-31.45,32.2-5Z" transform="translate(352.19 854)"/><path class="cls-4" d="M966,875.05l-25.1,48.79-7-54.42a17.07,17.07,0,0,1,14.75-19.1c13.27-2.12,23.77,13.12,17.35,24.73Z" transform="translate(352.19 854)"/><path class="cls-4" d="M983.48,843c-15.82-40.57-35.28-80.18-59.79-116.52,24.92,22.21,47.51,47.63,68.27,74,7,8.94,13.68,17.77,20.4,27.44L983.48,843Z" transform="translate(352.19 854)"/><path class="cls-4" d="M1160.69,1016.3c-33.92-182.68-127.11-195-128-195.08l3-27c4.65.51,114.22,14.82,151.79,217.12Z" transform="translate(352.19 854)"/><path class="cls-4" d="M499.37,962.75a557.68,557.68,0,0,1,11.54-127.28A541.91,541.91,0,0,0,531.5,957.34c6,23.88-29.92,30-32.13,5.41Z" transform="translate(352.19 854)"/><path class="cls-4" d="M212.24,843.43a13.6,13.6,0,0,1-2.5-27c5.88-3.2,51.65-31.28,74.42-130.2a13.58,13.58,0,1,1,26.47,6.09C282.34,815.16,220,841.67,219.32,841.92A18.84,18.84,0,0,1,212.24,843.43Zm7.25-25h0Zm0,0Zm0,0h0Zm0,0Zm0,0Z" transform="translate(352.19 854)"/><path class="cls-4" d="M26.57,593.46c-15.33,0-35.6-2.17-48.44-16.34-13.22-14.6-12.56-34.81-10.92-48.74,4.68-39.83,66.62-85.3,79-94A16.29,16.29,0,0,1,65,461C39.15,479.22,1.79,513.35-.43,532.19c-1.37,11.61-.43,19.58,2.72,23,2.47,2.73,9.19,5.91,27,5.6,24.26-.44,53.32-29.63,62.47-40.84A16.3,16.3,0,0,1,117,540.56c-4.32,5.32-43.51,52.07-87.17,52.87C28.79,593.45,27.69,593.46,26.57,593.46Z" transform="translate(352.19 854)"/><path class="cls-4" d="M-44.15,666.89c-16.57,0-33.79-4.57-51.52-13.69a16.3,16.3,0,0,1-7-21.94,16.3,16.3,0,0,1,21.94-7c21.15,10.88,39.75,12.91,56.9,6.25,34.44-13.39,51.94-58.51,52.11-59a16.29,16.29,0,1,1,30.56,11.3c-.88,2.41-22.35,59.17-70.86,78A87.91,87.91,0,0,1-44.15,666.89Z" transform="translate(352.19 854)"/><path class="cls-4" d="M32.51,482.09A16.31,16.31,0,0,1,17,460.87c.12-1.37.32-11.95-19.81-28.73a16.29,16.29,0,1,1,20.86-25c40.54,33.78,30.83,61.71,29.59,64.78A16.28,16.28,0,0,1,32.51,482.09ZM17.38,459.75Zm0,0h0Zm0,0a0,0,0,0,0,0,0A0,0,0,0,1,17.41,459.69Z" transform="translate(352.19 854)"/><path class="cls-4" d="M878.44,1662.34a13.58,13.58,0,0,1-1.75-27c212.58-27.91,256.06-144.28,256.47-145.46a13.58,13.58,0,0,1,25.68,8.85c-1.85,5.43-48.08,133.27-278.61,163.54A13.54,13.54,0,0,1,878.44,1662.34Z" transform="translate(352.19 854)"/><path class="cls-4" d="M977.14,1746.14l73.28-13-60.69,43.09c-23.26,14.12-39-23.38-12.59-30.06Z" transform="translate(352.19 854)"/><path class="cls-4" d="M791.24,1435.36c11.34-34.39,22.3-68.35,41.22-99.24,30-50.85,68.47-98.24,117.48-131.66-31.42,34.06-56.07,72.93-75.93,114.47-10.16,20.3-17.87,41.78-27.14,62.46a453.85,453.85,0,0,0-24.43,63.39c-6.81,20.35-36.8,11.43-31.2-9.42Z" transform="translate(352.19 854)"/><path class="cls-4" d="M636.23,1314.09a63,63,0,0,1-49.7-24.24c-54-69.17-77.7-150.56-87-192.92A62.71,62.71,0,0,1,530,1028.65l145.74-82.78a16.29,16.29,0,0,1,16.09,28.34L546.12,1057a30.25,30.25,0,0,0-14.8,32.93c8.74,39.66,30.88,115.78,80.91,179.88a30.51,30.51,0,0,0,36.34,9.1l313.82-137.75a21.61,21.61,0,0,0,12.34-24.81l-1.94-8.09a16.3,16.3,0,1,1,31.7-7.57l1.94,8.1A54.19,54.19,0,0,1,975.48,1171L661.67,1308.74A63.2,63.2,0,0,1,636.23,1314.09Z" transform="translate(352.19 854)"/><path class="cls-4" d="M882.55,1210.3a16.3,16.3,0,0,1-6.56-31.22,26.81,26.81,0,0,0,13.38-36.14l-11.12-23.12a16.3,16.3,0,1,1,29.37-14.13l11.12,23.13a59.39,59.39,0,0,1-29.65,80.1A16.32,16.32,0,0,1,882.55,1210.3Z" transform="translate(352.19 854)"/><path class="cls-4" d="M791.07,1247.74a13.57,13.57,0,0,1-11.9-7l-61.61-111.6L632.43,1148a13.59,13.59,0,0,1-15.23-7.48L563.83,1027a13.58,13.58,0,0,1,24.58-11.55l48.75,103.71,84.44-18.74a13.62,13.62,0,0,1,14.83,6.7l66.51,120.49a13.58,13.58,0,0,1-11.87,20.15Z" transform="translate(352.19 854)"/><path class="cls-6" d="M982.62,254.4C982.62,519.83,767.48,735,502.05,735a478.43,478.43,0,0,1-238.49-63.28h-.05c-144.58-82.88-242-238.7-242-417.29A477.73,477.73,0,0,1,102.2-12.11c86.14-129,233.06-214,399.85-214C767.48-226.16,982.62-11,982.62,254.4Z" transform="translate(352.19 854)"/><g class="cls-3"><path class="cls-4" d="M982.62,254.4C982.62,519.83,767.48,735,502.05,735a478.43,478.43,0,0,1-238.49-63.28h-.05c-1-.59-2-1.14-3-1.79a480.24,480.24,0,0,0,111.45,13c265.43,0,480.52-215.14,480.52-480.57,0-177.28-96-332.18-238.88-415.44C825.27-162.83,982.62,27.43,982.62,254.4Z" transform="translate(352.19 854)"/></g><path class="cls-4" d="M722.4,428.26c-42.69,155.23-254.07,315-458.84,243.43h-.05c-144.58-82.88-242-238.7-242-417.29A477.73,477.73,0,0,1,102.2-12.11c243.05-149.42,536.34-.06,608.64,229.91Z" transform="translate(352.19 854)"/><g class="cls-11"><path class="cls-12" d="M722.4,428.26c-42.69,155.23-254.07,315-458.84,243.43h-.05A482.62,482.62,0,0,1,104.37,524.23a462.92,462.92,0,0,0,185.1,38.4c190,0,353.36-114.27,425.06-277.86Z" transform="translate(352.19 854)"/></g><path class="cls-4" d="M367.21,702.75A326.87,326.87,0,0,1,259,684.5a13.58,13.58,0,0,1,9-25.63c82.22,28.76,174,20.19,258.54-24.12,88-46.11,159.22-127.57,182.2-208L697.39,220.27c-36.55-114.4-129.06-209-247.79-253.41C334.36-76.19,213.51-64.62,109.3-.57A13.56,13.56,0,0,1,90.63-5a13.57,13.57,0,0,1,4.45-18.68c111.5-68.53,240.78-80.91,364-34.87,127.06,47.47,226,149.27,264.7,272.32a13.41,13.41,0,0,1,.61,3.32L736,427.49a13.85,13.85,0,0,1-.47,4.35c-24.6,89.39-99.84,176.35-196.36,227C483.53,688,424.81,702.75,367.21,702.75Z" transform="translate(352.19 854)"/><ellipse class="cls-6" cx="1170.65" cy="1171.11" rx="144.61" ry="148.68"/><g class="cls-3"><path class="cls-4" d="M963.07,317.08c0,82.12-64.74,148.71-144.64,148.71-65.66,0-121.12-45.08-138.72-106.78a141.41,141.41,0,0,0,80.82,25.31c79.84,0,144.58-66.59,144.58-148.71a151,151,0,0,0-5.81-41.77A149.72,149.72,0,0,1,963.07,317.08Z" transform="translate(352.19 854)"/></g><path class="cls-4" d="M818.46,482.09c-88.72,0-160.91-74-160.91-165s72.19-165,160.91-165,160.9,74,160.9,165S907.18,482.09,818.46,482.09Zm0-297.37c-70.75,0-128.32,59.39-128.32,132.39S747.71,449.5,818.46,449.5s128.31-59.39,128.31-132.39S889.21,184.72,818.46,184.72Z" transform="translate(352.19 854)"/><path class="cls-4" d="M852.4,453.57c-68.5,0-124.24-59.39-124.24-132.39S783.9,188.79,852.4,188.79s124.25,59.39,124.25,132.39S920.91,453.57,852.4,453.57Zm0-237.62c-53.53,0-97.08,47.21-97.08,105.23s43.55,105.23,97.08,105.23,97.09-47.2,97.09-105.23S905.94,216,852.4,216Z" transform="translate(352.19 854)"/><path class="cls-4" d="M502.06,751.27a497.06,497.06,0,0,1-245.82-65c-.28-.15-.56-.29-.83-.45C101.1,597.38,5.25,432.06,5.25,254.4A496.81,496.81,0,0,1,502.06-242.46c274,0,496.86,222.9,496.86,496.86S776,751.27,502.06,751.27ZM270.87,657.13l.79.42a464.27,464.27,0,0,0,230.4,61.13c256,0,464.27-208.28,464.27-464.28S758.06-209.87,502.06-209.87A464.22,464.22,0,0,0,37.84,254.4C37.84,420.13,127.1,574.37,270.87,657.13Z" transform="translate(352.19 854)"/><path class="cls-4" d="M759.71,194.84a13.59,13.59,0,0,1-12.8-9.05C702.51,60.63,616.07-37.42,503.52-90.3c-96.5-45.34-205.53-53.56-291.65-22a13.6,13.6,0,0,1-17.43-8.08,13.58,13.58,0,0,1,8.08-17.42c92.78-34,209.62-25.47,312.55,22.89,119.17,56,210.59,159.55,257.43,291.6a13.57,13.57,0,0,1-8.25,17.33A13.4,13.4,0,0,1,759.71,194.84Z" transform="translate(352.19 854)"/><path class="cls-4" d="M471.94,747.6a13.58,13.58,0,0,1-1.73-27c134.12-17.52,257.3-132,286.55-266.23a13.58,13.58,0,1,1,26.53,5.78C751.73,605,618.64,728.56,473.72,747.48A13.31,13.31,0,0,1,471.94,747.6Z" transform="translate(352.19 854)"/><g class="cls-13"><path class="cls-6" d="M330.56-5.28C137.07-13,49.73,192.09,136.33,421.54c7,18.52,34.48,14.22,35.53-5.55C181.81,227.89,226.27,118.71,341,27.58,354.31,17,347.57-4.61,330.56-5.28Z" transform="translate(352.19 854)"/></g><g class="cls-13"><ellipse class="cls-6" cx="503.21" cy="484.35" rx="77.4" ry="60.2" transform="translate(175.55 1498.39) rotate(-57.15)"/></g><g class="cls-13"><circle class="cls-6" cx="565.56" cy="304.55" r="50.13" transform="translate(302.49 1343.11) rotate(-45)"/></g><path class="cls-4" d="M1545.83,1979.17a108.09,108.09,0,0,1-59.94-18.05c-39.39-26-59.38-74.11-54.68-130.33-30.19-14.87-114.13-62.87-186-166.09a16.29,16.29,0,1,1,26.75-18.61c81.63,117.31,181.87,159.33,182.87,159.74a16.32,16.32,0,0,1,10,17.4c-7,48.6,7.58,90,39,110.68,26.22,17.29,59.76,16.68,89.72-1.6a21.27,21.27,0,0,0,9.18-11.63L1680,1680.46a28.45,28.45,0,0,0-11-32.3c-60.78-42-167-119.39-195.28-165.41-36.18-58.78-102.58-191.77-105.39-197.41a16.29,16.29,0,0,1,29.16-14.54c.68,1.37,68.57,137.33,104,194.87,18.13,29.47,87.69,87.67,186.06,155.69a60.84,60.84,0,0,1,23.45,69.08l-77.28,240.22a53.85,53.85,0,0,1-23.22,29.46C1589.74,1972.81,1567.51,1979.17,1545.83,1979.17Z" transform="translate(352.19 854)"/><path class="cls-4" d="M1309.26,1731.31a13.58,13.58,0,0,1-6.27-25.63c134.51-69.85,181-220.44,181.46-222a13.58,13.58,0,1,1,26,7.8c-2,6.63-50.36,163.16-195,238.26A13.5,13.5,0,0,1,1309.26,1731.31Z" transform="translate(352.19 854)"/><path class="cls-4" d="M1425,900.07a51.34,51.34,0,0,1-11.31-1.27,50.36,50.36,0,0,1-32.4-23.45L1291,724.43a50.61,50.61,0,0,1,13.29-66.83l87.24-64.8h0a50.78,50.78,0,0,1,72.69,12.86l99.56,151.41a50.89,50.89,0,0,1-14.26,70.14L1453,891.52A50.31,50.31,0,0,1,1425,900.07ZM1411,619l-87.23,64.8a18.12,18.12,0,0,0-4.77,23.93l90.31,150.92A18.19,18.19,0,0,0,1435,864.4l96.49-64.31a18.21,18.21,0,0,0,5.1-25.11L1437,623.57a18.2,18.2,0,0,0-26-4.61Z" transform="translate(352.19 854)"/><path class="cls-4" d="M1250.11,705.6a16.25,16.25,0,0,1-12.16-5.45,59.79,59.79,0,0,1,13.23-90.71l67.1-41.36a70,70,0,0,1,63.2-5.15l52.67,21.65a16.29,16.29,0,1,1-12.39,30.14l-52.67-21.65a37.38,37.38,0,0,0-33.71,2.75l-67.1,41.36a27.19,27.19,0,0,0-6,41.27,16.29,16.29,0,0,1-12.15,27.15Z" transform="translate(352.19 854)"/><path class="cls-4" d="M1372.12,908.54a77.89,77.89,0,0,1-64.54-34.34l-7.22-10.72a16.29,16.29,0,0,1,27-18.2l7.22,10.72a45.25,45.25,0,0,0,45.05,19.31l45.56-7.76a16.3,16.3,0,1,1,5.47,32.13l-45.56,7.76A78.43,78.43,0,0,1,1372.12,908.54Z" transform="translate(352.19 854)"/><path class="cls-4" d="M1282.05,386.73,1146.37,445,1266,358.38c20.13-13.19,37.75,17.82,16.08,28.35Z" transform="translate(352.19 854)"/><polygon class="cls-4" points="1807.22 1998.16 1738.45 1867.82 1834.18 1979.86 1807.22 1998.16 1807.22 1998.16"/><g class="cls-3"><path class="cls-4" d="M1061.57,399.47s-73.11,99.42,42.51,57.75L1155.15,440s-59.12,25.8,0,84.19,108.13,96.94,108.13,96.94S1385,558.5,1370.92,487l67.55,116.39-84.35-23.56-101.41,48.88-13.36,27.09L1092.06,555.41s-64.72-23-151.17-38.68c0,0,10.55-45.78,14.5-50.94s70.14-49,70.14-49Z" transform="translate(352.19 854)"/></g><g class="cls-3"><path class="cls-4" d="M515.43,741.42s167.09,64.37,445.38-142.34c0,0,177.61,65.37,211.92,208.64s-190.11,213.49-190.11,213.49-220.29,57-289.08-68c0,0-9,53.57,59.43,111.65,0,0,89.5,94.33,270.65,28s261.26-162.74,261.26-162.74,74.68-93.69,0-203.67-214.54-186-214.54-186L901.73,521.32S806.46,703.38,515.43,741.42Z" transform="translate(352.19 854)"/></g><g class="cls-3"><path class="cls-4" d="M933.59,738.15,916.75,712s27.26,69.31-31.33,97.12c0,0,51.17.87,68.14,53.15,0,0,32.44-39.23,32.59-43.34s-33.73-56.23-33.73-56.23Z" transform="translate(352.19 854)"/></g><g class="cls-3"><path class="cls-4" d="M-55.76,465.79s50.49,7.06,40.18,89.53c0,0-8.5,69.79-64.63,78.84s0-10.86,0-5.43,59.2,39.19,100.66,7.83,116.6-59.4,116.6-59.4L86.48,495.82S-12.82,537.31,16,493s9-40.74,10.66-45.26S-3.26,419.63-3.26,419.63Z" transform="translate(352.19 854)"/></g><g class="cls-3"><path class="cls-4" d="M695.57,1002.14a208.27,208.27,0,0,1,23.58,30.2C708.93,1021.91,701,1011.59,695.57,1002.14Z" transform="translate(352.19 854)"/></g><g class="cls-3"><path class="cls-4" d="M1383,1278.05c-22.06,66.81-69.58,122.1-130.47,157.4-31,18-70.39,38.51-110.2,52.79l116.34,167.18.22.27,23.41,33.68a53.89,53.89,0,0,1-1.79,64.2c-33.14,41.87-104.12,116.77-229.37,185.48-21.94,12-49.26,9.83-68.38-6.36a144.29,144.29,0,0,1-18.9-19.22c56.48,15.15,164.89-77.62,213.78-136s-27.16-150.72-82.83-232.19,9.29-114.49,9.29-114.49C1372.27,1311.29,1303,1065,1258.64,1036s-180.16,82.45-241.69,113.79-108.63,96.84-108.63,96.84c-126.66,56.48-217.64,51.65-261.85,50-9.07-.38-16.13-.6-21.18-.17-29.87,2.66-49.15-26.83-49.15-26.83,15.69-4.56,30.09-9.45,43.23-14.5,173.26-66.7,133.4-171.58,99.78-222.79,51.32,52.41,159.08,107.48,278.79,69.08,143.44-46,286.94-171.25,286.94-171.25s.32.33,1,.93a115.29,115.29,0,0,1-11.84,14S1445.43,1088.77,1383,1278.05Z" transform="translate(352.19 854)"/></g><g class="cls-3"><path class="cls-4" d="M1173,1523a2,2,0,0,1-.27.16l-9.72-13.25Z" transform="translate(352.19 854)"/></g><g class="cls-3"><path class="cls-4" d="M1695.49,1685.46l-77.24,240.23a37.81,37.81,0,0,1-16.18,20.53c-37.53,22.86-78,21.12-108.25.54,1.19-.06,2.39-.06,3.64-.06,98.52,1.74,116.94-144.79,93.36-229s-101.35-122.21-204.54-194.61c-40.52-28.46-82.12-34.54-117.75-31.44-63.12,19.44-47.47,93.74,56.43,229.42L1173,1523l-10-13.09-.33-.38-16.62-22.59,0-.06.65-.16c44-11.35,81.41-31.5,112.48-55.18,57.74-35.42,102.6-89.08,123.84-153.44,0,0,68.48,137.31,104.66,196.18,27.43,44.54,138.39,124.38,190.69,160.55A44.81,44.81,0,0,1,1695.49,1685.46Z" transform="translate(352.19 854)"/></g><path class="cls-4" d="M2636.81,1125.7a16.4,16.4,0,0,1-6.38-1.3l-187-79.58-141.88,25a16.3,16.3,0,0,1-5.65-32.1l146.64-25.8a16.4,16.4,0,0,1,9.21,1.05l150.5,64c-83.12-158.38-174-254.21-187.1-267.57-108.71-57.46-271.23-51.77-272.88-51.71a16.29,16.29,0,0,1-1.3-32.56c7.08-.29,175.12-6.23,291.77,56.72a16.19,16.19,0,0,1,3.69,2.73c4.8,4.71,118.54,117.88,215.06,317.73a16.29,16.29,0,0,1-14.67,23.38Z" transform="translate(352.19 854)"/><path class="cls-4" d="M2141.63,1463.8a16.29,16.29,0,0,1-13.79-7.58l-338.51-535A16.28,16.28,0,0,1,1794,899l88.27-59.75a16.28,16.28,0,0,1,23,4.92L2240.6,1386a16.3,16.3,0,0,1-5.24,22.41l-85.14,53A16.26,16.26,0,0,1,2141.63,1463.8ZM1825.32,917.16l321.41,508,57.61-35.83-317.9-513.52Z" transform="translate(352.19 854)"/><path class="cls-4" d="M1895.92,1072.8a13.62,13.62,0,0,1-11.47-6.32l-92.82-146.7a13.57,13.57,0,0,1,3.86-18.5l88.26-59.75a13.59,13.59,0,0,1,19.16,4.1L1993.51,992a13.59,13.59,0,0,1-3.77,18.28l-86,60.08A13.64,13.64,0,0,1,1895.92,1072.8Zm-74.3-156.42L1899.8,1040l63.86-44.59L1887.26,872Z" transform="translate(352.19 854)"/><path class="cls-4" d="M2488.35,1979.09a16.4,16.4,0,0,1-6.25-1.25c-189.27-78.61-265.78-165.3-295-211.44l-14.24,32.15a16.3,16.3,0,0,1-24.84,6.31c-61.49-47.3-90.39-111.29-103.58-153.9l-5,9.88a16.29,16.29,0,0,1-27.82,2c-77.14-109.11-58.81-236.56-58-241.93a16.29,16.29,0,0,1,32.22,4.89c-.21,1.41-14.36,102.26,37.54,194.73l12.36-24.27a16.29,16.29,0,0,1,30.7,5.5c.12,1,12.41,96.44,85.43,163.74l19.27-43.53a16.3,16.3,0,0,1,30.48,1.84c.34,1,38.77,112.87,272.79,215.3,4-52,7.42-188.42-54.36-292.76a16.3,16.3,0,0,1,16.13-24.46l23,3c-1.93-35.62-14-118.59-81.27-183.31a16.29,16.29,0,0,1,16.95-27l36.83,13.63a327.68,327.68,0,0,0-158.16-163.08,16.29,16.29,0,0,1,14.14-29.36c151.43,73,185.72,210.3,187.11,216.11a16.3,16.3,0,0,1-21.51,19.06l-12.44-4.61c56.43,84.71,51.4,173.78,51.1,178.24a16.29,16.29,0,0,1-18.37,15.08l-10.32-1.35c64.94,136.32,42.3,299.48,41.23,306.83a16.31,16.31,0,0,1-16.13,14Z" transform="translate(352.19 854)"/><g class="cls-3"><path class="cls-4" d="M1172.73,346.1l129.94-28.76a45.79,45.79,0,0,1,48.17,19.57L1490.8,550l21.77-7.68,93.29,154.18L1580,712l129,171.75s20.81,79-87.82,140.56c27.87-31.29,44.64-62.65,35-94.15L1274,355.81Z" transform="translate(352.19 854)"/></g><g class="cls-3"><path class="cls-4" d="M1762,1354l-94.35,110.8-20.26,156.64-52-31.34c-25.8-134.42,35.31-168.37,38-294.65,2.17-101.56-75.6-138.12-106.07-148.55a115,115,0,0,0-12.06-3.53L1548.1,1104l27.16-32.42,179.07,267.16S1757.42,1344.75,1762,1354Z" transform="translate(352.19 854)"/></g><g class="cls-3"><path class="cls-4" d="M2636.81,1109.41l-191.45-81.47-146.65,25.8L2141.64,741.43s54.85-2.17,123.13,7.28c-3.48,33.95-9.89,172.77,112.7,197.76C2517.32,975,2589,1019.19,2589,1019.19l.11.11C2605.09,1047,2621.17,1077.09,2636.81,1109.41Z" transform="translate(352.19 854)"/></g><g class="cls-3"><polygon class="cls-4" points="2472.71 2063.36 2532.3 2173.21 2686.14 2055.81 2591.16 1981.85 2472.71 2063.36"/></g><path class="cls-14" d="M2499-364.11c-1.07,4.85-12,6.89-27.33,5.93a18,18,0,0,0-17.82,11.36c-5.61,14.35-12,23.36-16.9,22.29s-6.88-12-5.93-27.33a18,18,0,0,0-11.36-17.82c-14.36-5.62-23.4-12.05-22.32-16.91s12-6.91,27.35-5.94a18,18,0,0,0,17.84-11.36c5.62-14.37,12-23.38,16.9-22.3s6.89,11.95,5.93,27.34A18,18,0,0,0,2476.74-381C2491.08-375.42,2500.08-369,2499-364.11Z" transform="translate(352.19 854)"/><path class="cls-14" d="M1950.94-235.66c-1.07,4.85-12,6.89-27.33,5.93a18,18,0,0,0-17.82,11.36c-5.61,14.35-12,23.36-16.9,22.29s-6.89-12-5.93-27.33a18,18,0,0,0-11.36-17.82c-14.36-5.62-23.4-12.05-22.32-16.91s12-6.91,27.35-5.94a18,18,0,0,0,17.84-11.36c5.61-14.37,12-23.38,16.9-22.3s6.88,11.95,5.93,27.34a18,18,0,0,0,11.38,17.83C1943-247,1952-240.54,1950.94-235.66Z" transform="translate(352.19 854)"/><circle class="cls-14" cx="2057.65" cy="-766.01" r="17.19" transform="translate(1496.51 2084.62) rotate(-45)"/><circle class="cls-14" cx="2205.43" cy="349.69" r="20.39" transform="translate(610.9 2297.53) rotate(-38.34)"/><circle class="cls-14" cx="-110.43" cy="-501.41" r="24.28" transform="translate(674.4 629.05) rotate(-45)"/><circle class="cls-14" cx="662.2" cy="3161.81" r="19.31"/><circle class="cls-14" cx="2593.41" cy="808.7" r="8.84"/><circle class="cls-14" cx="2782.76" cy="3.59" r="8.84" transform="translate(562.64 1919.19) rotate(-22.5)"/><path class="cls-14" d="M2608.42,667.48a10.49,10.49,0,1,1,1.5-14.76A10.48,10.48,0,0,1,2608.42,667.48Z" transform="translate(352.19 854)"/><circle class="cls-14" cx="65.16" cy="-176.3" r="12.48" transform="translate(534.01 825.06) rotate(-58.65)"/><path class="cls-14" d="M392.7,2054.36a9.94,9.94,0,1,1-9.91-10A9.94,9.94,0,0,1,392.7,2054.36Z" transform="translate(352.19 854)"/><circle class="cls-14" cx="749.94" cy="2358.56" r="20.15" transform="translate(-966.08 1853.25) rotate(-39.05)"/><path class="cls-14" d="M686.41,1873.67c0,5.07-10.39,9.49-25.91,11.92a18.32,18.32,0,0,0-15.23,15.23c-2.43,15.52-6.85,25.9-11.91,25.9s-9.49-10.38-11.92-25.9a18.32,18.32,0,0,0-15.23-15.23c-15.53-2.43-25.94-6.85-25.94-11.92s10.4-9.52,25.92-11.93a18.32,18.32,0,0,0,15.25-15.24c2.43-15.53,6.85-25.92,11.92-25.92s9.48,10.39,11.91,25.92a18.32,18.32,0,0,0,15.25,15.24C676,1864.15,686.41,1868.58,686.41,1873.67Z" transform="translate(352.19 854)"/><path class="cls-14" d="M-246,63.47c0,5.07-10.39,9.49-25.9,11.92a18.29,18.29,0,0,0-15.23,15.23c-2.44,15.52-6.86,25.9-11.92,25.9s-9.49-10.38-11.92-25.9a18.32,18.32,0,0,0-15.23-15.23c-15.53-2.43-25.94-6.85-25.94-11.92s10.4-9.51,25.92-11.93A18.32,18.32,0,0,0-311,36.3c2.43-15.53,6.85-25.91,11.92-25.91s9.48,10.38,11.92,25.91a18.29,18.29,0,0,0,15.25,15.24C-256.43,54-246,58.38-246,63.47Z" transform="translate(352.19 854)"/><path class="cls-14" d="M1489.56-800.91c0,5.07-10.38,9.49-25.9,11.92a18.32,18.32,0,0,0-15.23,15.23c-2.43,15.51-6.85,25.9-11.92,25.9s-9.48-10.38-11.92-25.9A18.29,18.29,0,0,0,1409.36-789c-15.52-2.43-25.94-6.85-25.94-11.92s10.41-9.52,25.92-11.93a18.32,18.32,0,0,0,15.26-15.24c2.43-15.53,6.85-25.92,11.91-25.92s9.49,10.39,11.92,25.92a18.33,18.33,0,0,0,15.25,15.24C1479.18-810.43,1489.56-806,1489.56-800.91Z" transform="translate(352.19 854)"/><circle class="cls-14" cx="-103.8" cy="1566.16" r="19.31" transform="translate(-1251.12 1956.35) rotate(-76.6)"/><path class="cls-14" d="M1631.57-657.22a9.94,9.94,0,0,1-10,9.91,9.94,9.94,0,0,1-9.92-10,10,10,0,0,1,10-9.92A9.94,9.94,0,0,1,1631.57-657.22Z" transform="translate(352.19 854)"/></svg>