<svg id="Layer_18" data-name="Layer 18" xmlns="http://www.w3.org/2000/svg" viewBox="0 0 2868.8 2780.07"><defs><style>.cls-1{fill:#fff;}.cls-2{opacity:0.3;}.cls-3{fill:#371a45;}.cls-4{fill:#5ae9ff;}.cls-10,.cls-5{fill:none;}.cls-5{stroke:#371a45;stroke-linecap:round;stroke-linejoin:round;stroke-width:32.9px;}.cls-6{fill:#220f2d;}.cls-7{opacity:0.5;}.cls-8{fill:#ffdb23;}.cls-9{fill:#ff4e4e;}.cls-11{fill:#4ee2ff;}.cls-12{fill:#8c8c8c;}</style></defs><path class="cls-1" d="M1560.21,1162.77l-12.28-6.06c-2.49-17.25-4.51-65.06-80.76-74.69s-158.53,91.73-158.53,91.73l-9.64-6.66L1244,944.5l-36.24-8.69c.12-.7.19-1.16.19-1.16-6.46-1-12.69-2.24-19.05-3.36L1175.14,928l-1.09.68C767,851.86,587.49,601.11,587.49,601.11S444.6,571.24,354,586.79s-196.37,243-196.37,243-81.94,49.1-168.1,236.1-85,341.58,47.08,411.82c78.95,42,152.73,71.29,200.9,79.66,32.39,5.63,50.4,15.37,50.4,15.37-15.16,75.18-92.5,275-114.35,362.3S212,2234.18,347.28,2266.9s168.17-148.25,168.17-148.25,16.61,42.37,107.92,42.63,123.34-151,123.34-151,99.16-20.1,180.95-102.81,115.13-260.67,131.45-316.92c10.71-36.87,35.35-92.65,51.07-126.71,15.16,22.28,53.65,67,122.08,74.84,91.8,10.49,155.85-36.23,155.85-36.23s56.67-1.55,107.42-20,129-52.94,154.93-175.07S1560.21,1162.77,1560.21,1162.77Z" transform="translate(83.18 492.74)"/><g class="cls-2"><path class="cls-3" d="M1180.83,1368s50.57,39.64,137.32,43.6,139.56-57.21,139.56-57.21.19-22.9,0-37.81,12.79,59.81,12.79,59.81,58.93,7,84.81-6.3c55.4-28.44,96.19-67.92,96.19-67.92s-24.83,141.71-130.47,170.23S1394.47,1502,1394.47,1502s-82.06,52.43-168.39,35.8-98.92-69.1-98.92-69.1l-9.42-21.1s2.15-7.59,6.48-8.29,25.29-2.22,28.13-5.3,7.69-12.89,7.69-12.89Z" transform="translate(83.18 492.74)"/></g><g class="cls-2"><path class="cls-3" d="M293.88,1527.47,192.27,1502s17.73-24,21.46-29.57,13.27-42.4,13.23-45.88,3.56-31.54,3.56-31.54l30.82-5s14.37,10.26,13.63,16.51-3.13,57.77,0,58.12S293.88,1527.47,293.88,1527.47Z" transform="translate(83.18 492.74)"/></g><ellipse class="cls-4" cx="989.98" cy="1307.42" rx="64" ry="43.58" transform="matrix(0.3, -0.95, 0.95, 0.3, -471.62, 2350.69)"/><path class="cls-3" d="M365.07,1075.67a13.71,13.71,0,0,1-12.76-8.7C292.83,915.62,113,889.87,111.16,889.63a13.71,13.71,0,0,1,3.6-27.18c8,1.06,197.6,27.89,263.06,194.49a13.73,13.73,0,0,1-12.75,18.73Z" transform="translate(83.18 492.74)"/><path class="cls-3" d="M585.47,1340.52a14.16,14.16,0,0,1-2.75-.27c-8.36-1.71-205.65-43.32-294.1-169.62a13.71,13.71,0,0,1,22.45-15.73c75.36,107.61,244.12,150.84,272.94,157.55,18.42-8.69,29.9-20.2,34.15-34.23,5.88-19.42-2.92-40.11-7.39-48.78-236.15-65.85-263.28-146.75-265.61-155.82a13.71,13.71,0,0,1,26.48-7.09c.63,1.89,27.46,76.48,251.88,138a13.65,13.65,0,0,1,7.85,5.73c1,1.53,24.47,38.12,13,75.91-7,23.13-25,41-53.54,53.26A13.75,13.75,0,0,1,585.47,1340.52Z" transform="translate(83.18 492.74)"/><path class="cls-3" d="M997.35,1515.74c-.77,0-1.55,0-2.33,0-31.73-1.54-346-78.85-391-98.77-53.23-23.54-57.13-45.39-41.43-95.13A13.71,13.71,0,1,1,588.7,1330c-12.32,39-11.65,45,26.38,61.81,46.21,20.44,360.81,95.46,381.27,96.45,14.16.58,27.73-13.83,33-21.15,5.67-19.56,48.42-167.42,57.73-205.25,6.58-26.73-7.9-44-13.12-49.17-32.43-9.5-314-92-363-106.08-37.62-10.85-54.25,12.52-57.36,17.61l-30,95a13.71,13.71,0,1,1-26.14-8.25L628,1114.61a13.66,13.66,0,0,1,1-2.3c9.21-17.36,39.82-46.39,89.69-32,51.78,14.93,363,106.07,366.11,107a13.74,13.74,0,0,1,4.69,2.44c1.49,1.19,36.39,29.68,24.32,78.71-10.06,40.87-56.66,201.64-58.64,208.47a13.78,13.78,0,0,1-1.65,3.62C1052.49,1482,1030.28,1515.74,997.35,1515.74Z" transform="translate(83.18 492.74)"/><path class="cls-3" d="M642.42,1429.31a13.35,13.35,0,0,1-3.52-.46,13.69,13.69,0,0,1-9.74-16.75c2.58-9.75,63.26-238.95,71.69-261,9-23.65,37.57-53.23,40.8-56.53a13.71,13.71,0,0,1,19.59,19.18c-7.66,7.84-28.85,31.59-34.78,47.12-6.57,17.22-53.34,192.28-70.8,258.28A13.72,13.72,0,0,1,642.42,1429.31Z" transform="translate(83.18 492.74)"/><path class="cls-3" d="M827.56,1478.35a13.72,13.72,0,0,1-13.25-17.26l38.51-143.54L805.91,1266a13.7,13.7,0,0,1-3.17-12.52l30.88-124.8a13.71,13.71,0,1,1,26.61,6.58L831.11,1253l47,51.65a13.7,13.7,0,0,1,3.1,12.77l-40.45,150.78A13.71,13.71,0,0,1,827.56,1478.35Z" transform="translate(83.18 492.74)"/><path class="cls-3" d="M979.8,1383.54a43.82,43.82,0,0,1-13.21-2c-15.33-4.84-27.26-18.06-32.74-36.28-5-16.61-4.46-36.17,1.51-55.07,13.11-41.55,47.38-66.54,78-56.86s44.35,49.79,31.24,91.35c-6,18.9-16.76,35.22-30.38,45.95C1003.46,1379.11,991.43,1383.54,979.8,1383.54ZM1000,1258.69c-14.35,0-31.35,17-38.54,39.74-4.26,13.51-4.77,27.7-1.4,38.93,1.66,5.52,5.78,15.2,14.74,18s17.89-2.73,22.42-6.29c9.21-7.26,16.94-19.17,21.21-32.68,8.06-25.54,1.83-52.16-13.35-57A16.73,16.73,0,0,0,1000,1258.69Z" transform="translate(83.18 492.74)"/><path class="cls-3" d="M892.29,1835.54c-102.43,0-180-48.58-202.39-64.31-91.19,34.08-191.49,20.61-290.58-39.18C323.48,1686.3,275.56,1630.34,273.56,1628a13.71,13.71,0,0,1,20.9-17.75C296.3,1612.4,481.13,1826,686.82,1743a13.75,13.75,0,0,1,13.57,1.92c1.29,1,131.62,100.49,287.88,47.11a13.71,13.71,0,1,1,8.87,25.94A322.53,322.53,0,0,1,892.29,1835.54Z" transform="translate(83.18 492.74)"/><g class="cls-2"><path class="cls-3" d="M-72.44,1240.05s60.07,127.49,133,125.75,143.19-272.7,286.61-389.29,260.09-88.1,264.55-72.06S448.88,1038.1,512.26,1182c0,0-69.94-22.77-118-66.7,0,0-3.21,114.33,236.82,167.31l-4.62,14.78s11,34.4,27.77,46.37,304.93,92.92,339.3,97.1,54.75-6,54.75-6l19.52-69.4s63.69,12.37,65.46,15.78-10.54,50-10.54,50l-21.8-.28-33.67-3.91-13.06,3.51-14.66,50.1s-9.32,28.55-48.4,20.86-344.21-80.14-392.63-102.28-24.22-61.15-24.22-61.15l-6.78-14.69s-74.19-14.92-157.76-64.74c0,0,8.53,180.12-3.48,290.56s-139.56,339.59-152.35,419.33S287.08,2174.12,369.37,2203s128.14-27.84,128.14-27.84-38.36,126.42-157.26,89.95-175.34-207.47-170.89-297,107.46-320.22,119.45-400-7.16-115.64-7.16-115.64,2.19-40.83-13.59-56.44-19.89-11.08-33.81-6c-23.25,8.54,8.52,67-33,93.46-3.84,2.45-52.3,45.36-133.7,7.79S-93.2,1380.1-72.44,1240.05Z" transform="translate(83.18 492.74)"/></g><g class="cls-2"><path class="cls-3" d="M693.12,2106.18s-54.45,26.61-103.48-24.09,97-157.52,150.82-243.52,62-229.74,62-229.74l-60-11-16,10.5S715,1714.21,673.3,1799.58s-149.68,205.76-149.68,205.76-22.92,13.89-18.5,32.94,9.07,61.67,9.07,61.67,6.59,34.47,26.48,43.36S669.44,2187.24,693.12,2106.18Z" transform="translate(83.18 492.74)"/></g><g class="cls-2"><path class="cls-3" d="M581.48,620.15s80,201.84,294.83,311.52,340.16,22.67,340.16,22.67l-8.56-19.69S801.38,863.9,626.45,646.31Z" transform="translate(83.18 492.74)"/></g><path class="cls-3" d="M379,2287.33a151.15,151.15,0,0,1-35.56-4.44c-51.82-12.53-97.87-50-133.17-108.32-45.8-75.68-68.42-180.37-52.62-243.51,10.34-41.32,32.08-105,55.1-172.44,25.17-73.73,51.2-150,59.09-189.12,13.84-68.62-12.52-119.42-12.78-119.93a16.45,16.45,0,0,1,29.06-15.41c1.32,2.49,32.11,61.82,16,141.85-8.32,41.23-34.7,118.5-60.21,193.24-21.78,63.81-44.31,129.81-54.32,169.8-12,47.9,3,142.73,48.86,218.49,21.38,35.33,58.29,80.21,112.75,93.38,29.39,7.09,54.52,3.52,76.8-11,54.43-35.34,71.17-123.4,71.33-124.28,1.36-7.41,7.41-13.41,14.92-13.91s14.24,3.7,16.57,10.86h0s15.9,32,92.66,32.19h.18c76.7,0,106.72-136.58,107-138a16.46,16.46,0,0,1,12.82-12.7c.92-.19,95.49-20.36,172.53-98.25,65.67-66.41,99.73-201.66,118-274.32,3.57-14.18,6.66-26.43,9.33-35.63,16.53-56.94,64.1-155,66.12-159.12a16.4,16.4,0,0,1,17.09-9.09,78.28,78.28,0,0,0,16.65.52c4.76-12.69,14.85-51.31,22.49-84.07a16.45,16.45,0,0,1,32,7.47c-21.19,90.89-27.62,97.54-30.71,100.72-7.5,7.75-20.52,9.51-32.87,9.06-12.67,26.76-46.47,99.77-59.22,143.68-2.51,8.64-5.52,20.62-9,34.49-19.06,75.71-54.54,216.63-126.53,289.42-69.7,70.48-150.64,97.2-179,104.84-9.51,36.13-47.4,153.83-136.7,153.84h-.3c-51.17-.15-81.72-12.73-99.62-25.66C513,2185.72,490,2238.81,446,2267.48A120.56,120.56,0,0,1,379,2287.33Z" transform="translate(83.18 492.74)"/><path class="cls-3" d="M1253.63,1556.09c-54.12,0-112.8-20-155.09-88.72a16.45,16.45,0,0,1,28-17.26c35.15,57.09,87.85,81.11,156.65,71.32,53.26-7.56,96-32.84,96.47-33.09a16.33,16.33,0,0,1,7.47-2.3c184.16-10.91,251.53-114.54,253.17-207.89,1.56-89.36-89.91-98.64-93.81-99a16.49,16.49,0,0,1-14.91-18.25c.55-5.51,3.8-54.92-55.88-62-57.21-6.84-135.78,64.53-161.23,92.59a16.45,16.45,0,0,1-28.15-7.1l-56-226.55-25.87-7.06C978.94,914.6,820,824.54,726.26,755.31,639.43,691.15,591.7,633.55,578.13,616,550.41,610.72,433,589.92,356.8,603,289.52,614.56,201,775.65,172.57,836.74a16.55,16.55,0,0,1-4,5.39c-1.08,1-108.79,97.2-163.79,230.06-84.46,204-71.51,331.91,39.6,391,44.13,23.47,84.86,28.69,128.18,16.41a16.45,16.45,0,0,1,9,31.65c-51.29,14.55-101.21,8.32-152.6-19C-39.17,1456-76.61,1397.41-82.37,1318c-5-69.51,13.51-154,56.72-258.4C28.16,929.63,126.52,836,144.17,819.81c16.55-35,114-233.25,207.06-249.23,92.61-15.9,233.66,13.18,239.62,14.43a16.42,16.42,0,0,1,10,6.53c1.85,2.58,191,260.05,609.64,326.87.58.1,1.16.22,1.74.38l36,9.84a16.44,16.44,0,0,1,11.63,11.92l51.33,207.58c34.5-32.41,105.16-89.45,168.35-81.91s82.43,50.88,84.88,82.37c45,9.13,110.23,44.16,108.72,130.14-1.8,102.5-76.39,226.38-280.34,239.91C1377.82,1526.77,1319.06,1556.09,1253.63,1556.09Z" transform="translate(83.18 492.74)"/><path class="cls-3" d="M177,1511.89a16.45,16.45,0,0,1-4.74-32.21c15.23-4.58,25.61-12.48,31.73-24.15,13.28-25.34,2.29-60.06,2.18-60.41a16.48,16.48,0,0,1,18.89-21.24c23.15,4.67,44.67-13.24,49.07-17.19,28.4-40.22-15.44-99.47-15.9-100.07a16.54,16.54,0,0,1-3.21-11.79c.55-4.7,14.76-116.51,144.13-244.73a16.45,16.45,0,0,1,23.16,23.36C318,1126.87,293.5,1219.27,288.73,1242.86c13.09,19.82,49.13,83.48,11,134.61a15.92,15.92,0,0,1-1.57,1.81c-1.18,1.18-24.25,23.78-55.95,27.7,2.27,17.24,2.42,41.8-8.93,63.61-10.27,19.75-27.6,33.41-51.49,40.6A16.71,16.71,0,0,1,177,1511.89Z" transform="translate(83.18 492.74)"/><path class="cls-5" d="M198,1400.63" transform="translate(83.18 492.74)"/><path class="cls-5" d="M177,1495.44" transform="translate(83.18 492.74)"/><path class="cls-3" d="M400.05,999.28c24.45-21.49,50.84-39.78,78.89-56,28.62-15,58.08-34.2,92.25-30.61a1.49,1.49,0,0,1,.73,2.62c-25.55,20.35-51.84,32.94-77.22,52.39-9.34,6.8-27.9,20.85-37,28-.27.2-36.27,28.6-36.53,28.8-16.83,12.68-36.53-10.82-21.13-25.2Z" transform="translate(83.18 492.74)"/><path class="cls-3" d="M157.66,846.25a16.45,16.45,0,0,1-10-29.49c9.3-7.14,230.09-175.5,435.53-231.52A16.45,16.45,0,1,1,591.82,617C392.57,671.32,169.89,841.14,167.67,842.85A16.4,16.4,0,0,1,157.66,846.25Z" transform="translate(83.18 492.74)"/><path class="cls-3" d="M325.28,585.9c20.86,6.84,39.09,18.37,55.88,32.22,5.57,4.54,10.53,10.41,12.35,19.87a1.92,1.92,0,0,1-1.51,2.23c-9.49,1.67-16.14,0-22.45-2.36-18-6.68-38.87-13.36-56.15-21.33-18.3-9-7.55-36.36,11.88-30.63Z" transform="translate(83.18 492.74)"/><path class="cls-3" d="M1124.25,1450.5a17.79,17.79,0,0,1-2.71-.22l-56.24-9.3a16.45,16.45,0,0,1,5.37-32.46l56.24,9.29a16.46,16.46,0,0,1-2.66,32.69Z" transform="translate(83.18 492.74)"/><path class="cls-3" d="M1181.7,1354.4a16,16,0,0,1-3.8-.45l-90.35-21.37a16.45,16.45,0,0,1,7.57-32l90.36,21.38a16.45,16.45,0,0,1-3.78,32.46Z" transform="translate(83.18 492.74)"/><path class="cls-3" d="M1165.29,1336.71c3.71-75.06,8.34-159.91,7-234.64-.71-26.09-1-52,1.48-78.94a1.42,1.42,0,0,1,2.7-.46c10.9,25,15.74,51.52,18.63,77.92,3.59,32.81,5.56,66.38,6.55,99.37.95,46.45.4,92.81-3.58,139.23-2.47,21.3-33.54,19-32.8-2.48Z" transform="translate(83.18 492.74)"/><path class="cls-3" d="M515.44,2135.09A16.45,16.45,0,0,1,499,2119.37c0-.45-2.11-45.78-11.15-92.61a16.47,16.47,0,0,1,5.43-15.58c2.16-1.86,216.05-188.58,210.28-412a16.45,16.45,0,1,1,32.88-.85c5.63,218-175.33,395.58-214.58,431.47a755.35,755.35,0,0,1,10,88.16,16.45,16.45,0,0,1-15.71,17.16Z" transform="translate(83.18 492.74)"/><path class="cls-3" d="M518.14,2032.09c-21,31.79-64.28,37.67-98.88,32.7-11.28-1.75-21.8-5.31-30.6-13.3a1.63,1.63,0,0,1-.1-2.31c10.3-5.35,20.7-6.51,31.48-7.28,16.54-1.78,32.21-4.54,47.15-11.19,8-3.64,15.9-8.49,21.82-14.7l.72-.78c.06,0,.56-.69.17,0,11.57-18.33,38.91-2,28.24,16.88Z" transform="translate(83.18 492.74)"/><path class="cls-3" d="M741,2025.72c-29.41-9.89-87.1-46.84-87.23-81.23a1.66,1.66,0,0,1,2.26-1.55c20.07,7.12,30.68,19.37,48.36,28.4,13.87,7.84,34.1,17.15,48.76,23.87,18.52,9,7.41,36.63-12.15,30.51Z" transform="translate(83.18 492.74)"/><path class="cls-3" d="M273.56,1458.32h-.38a16.45,16.45,0,0,1-16.07-16.82l1.41-61.26a16.45,16.45,0,0,1,32.89.75L290,1442.24A16.46,16.46,0,0,1,273.56,1458.32Z" transform="translate(83.18 492.74)"/><path class="cls-3" d="M581.83,1522.92c105.43,48.22,222.67,85.57,339.25,65.29,38.18-6.25,74.92-19.91,110.51-37.6a5.51,5.51,0,0,1,6,9.19c-116.16,93.68-287.42,78.5-411,7-17.79-10.31-35-21.28-50.89-34.75-4.86-4.12.35-12.16,6.12-9.1Z" transform="translate(83.18 492.74)"/><path class="cls-3" d="M288.83,1584.5a15.92,15.92,0,0,1-2.74-.23c-6.25-1-153.66-26.21-215.13-76.06a16.45,16.45,0,1,1,20.72-25.55c54.75,44.4,198.41,68.92,199.85,69.17a16.45,16.45,0,0,1-2.7,32.67Z" transform="translate(83.18 492.74)"/><path class="cls-3" d="M212.11,1403.29c-8.19-5.41-16-11.3-23.75-17.38a15.39,15.39,0,0,1-6.74-13.27c1.81-26.35,10.45-53.18,30.81-71.11,7.39-5.59,16.95-8.73,26.12-6.75a1.62,1.62,0,0,1,.93,2.57c-8.84,13.76-15.2,21.56-19.82,35.94-3.83,12.21-5.29,26.65-5.2,39.37l-6.73-13.27c8.13,5.49,16.13,11.17,23.78,17.33,15.92,13.37-1.89,37.6-19.4,26.57Z" transform="translate(83.18 492.74)"/><path class="cls-3" d="M1563.67,1158c15.12,48.08-1.52,103.54-59.69,102.65-53.07,2.19-81.54-46.63-54.23-91.7a1.46,1.46,0,0,1,2.65.71c1.32,9.66,2.47,18.76,4.38,27.16,3.87,19.79,13.37,34.45,34.34,35.07,10.33.44,22.49-.58,31.29-6.23,17.73-12.35,13.59-40.06,9.58-58.92-4.64-20.65,25.08-28.79,31.68-8.74Z" transform="translate(83.18 492.74)"/><path class="cls-3" d="M1495.78,1264.17c-19.49,26.71-37.36,63.88-20.64,96,11,21,29.17,31.58,46.44,50.15a1.49,1.49,0,0,1-1.09,2.51c-36.9-1.19-70.08-29.1-79.87-65.53-9-37.34,6.42-75.86,30.11-104.48,14.51-16.18,38.68,4.43,25,21.33Z" transform="translate(83.18 492.74)"/><path class="cls-3" d="M1184.9,1293.48a16.45,16.45,0,0,1-13.31-26.09c58.16-80.43,123-101.77,125.71-102.64a16.45,16.45,0,0,1,10,31.33c-1,.32-57.89,19.77-109.09,90.59A16.44,16.44,0,0,1,1184.9,1293.48Z" transform="translate(83.18 492.74)"/><path class="cls-1" d="M1659.83,742.37a694,694,0,0,1-312.25,165.75,711.18,711.18,0,0,1-74.64,13.43c-12.33,1.58-24.85,2.79-37.48,3.77a712.38,712.38,0,0,1-112.65-.71,708.92,708.92,0,0,1-93.87-14.28,711.47,711.47,0,0,1-107.82-33q-19-7.56-37.48-16.07C658.27,757,493.25,539,470.68,276.55c-33.32-386.52,255.1-722.71,644.12-751a713.07,713.07,0,0,1,217.8,17.64c8.15,1.88,16.28,4,24.35,6.28q32.46,9,63.68,20.82a717.76,717.76,0,0,1,136.45,69.43,720.31,720.31,0,0,1,118,95.84q17.09,17.13,33,35.43a709.54,709.54,0,0,1,171.46,403.33C1898.76,396.7,1811.46,602.34,1659.83,742.37Z" transform="translate(83.18 492.74)"/><path class="cls-3" d="M1183.58,928.78c-20.39,0-40.75-.87-60.9-2.6a715.11,715.11,0,0,1-202.14-47.36c-12.59-5-25.22-10.43-37.56-16.1-233.49-108-392.07-332.59-413.87-586C453,90.08,510.83-90.86,631.87-232.8c122-143.07,293.49-229.44,482.81-243.19A714.47,714.47,0,0,1,1333-458.31c7.8,1.8,15.79,3.86,24.41,6.3,21.56,5.94,43,12.95,63.81,20.85a725.07,725.07,0,0,1,255,165.64c11.55,11.59,22.68,23.53,33.08,35.5a715.81,715.81,0,0,1,45,57.46,706.57,706.57,0,0,1,126.83,346.78c18.58,215.38-61.7,422.88-220.25,569.3a698,698,0,0,1-313,166.14,716,716,0,0,1-74.8,13.45c-11.39,1.46-23.67,2.7-37.56,3.79C1218.29,928.15,1200.92,928.78,1183.58,928.78Zm-16.65-1403.5q-26,0-52,1.88c-188.48,13.69-359.17,99.66-480.64,242.09-120.49,141.29-178,321.4-162,507.17C494,528.74,651.84,752.3,884.3,859.85c12.29,5.65,24.87,11,37.41,16a713,713,0,0,0,107.57,32.9A708.84,708.84,0,0,0,1122.94,923a714.67,714.67,0,0,0,112.4.72c13.83-1.08,26.06-2.31,37.4-3.76a714.64,714.64,0,0,0,74.48-13.4,694.75,694.75,0,0,0,311.54-165.38h0C1816.59,595.45,1896.5,388.89,1878,174.49a703.47,703.47,0,0,0-126.26-345.24,711.32,711.32,0,0,0-44.82-57.2c-10.35-11.91-21.42-23.81-32.92-35.35a721.91,721.91,0,0,0-253.93-164.91c-20.69-7.86-42.07-14.85-63.54-20.76-8.58-2.43-16.52-4.48-24.29-6.27A707.57,707.57,0,0,0,1166.93-474.72Z" transform="translate(83.18 492.74)"/><g class="cls-2"><path class="cls-3" d="M470.69,276.54C493.23,539,658.28,757,883.66,861.27q18.48,8.54,37.45,16.07a716.58,716.58,0,0,0,314.35,48c12.62-1,25.13-2.21,37.48-3.76a721.28,721.28,0,0,0,74.64-13.47,694.35,694.35,0,0,0,434-314.29,693.75,693.75,0,0,1-300.25,154.94,708.37,708.37,0,0,1-74.65,13.46c-12.31,1.59-24.82,2.77-37.47,3.77a715.82,715.82,0,0,1-112.64-.71A717,717,0,0,1,1162.72,751a715.26,715.26,0,0,1-107.81-33q-19-7.57-37.48-16.1C792,597.67,627,379.62,604.46,117.18c-13.21-153.09,24.11-298.26,98.1-419.52C543.45-162.22,451,48.4,470.69,276.54Z" transform="translate(83.18 492.74)"/></g><path class="cls-3" d="M1183.57,939.34c-20.7,0-41.35-.88-61.8-2.63a725.5,725.5,0,0,1-205.1-48.06c-12.79-5.09-25.6-10.58-38.1-16.33-237-109.63-397.86-337.51-420-594.73C442.25,88.14,500.93-95.55,623.83-239.66,747.7-384.9,921.75-472.57,1113.92-486.53a724.7,724.7,0,0,1,221.51,17.95c7.88,1.81,16,3.91,24.83,6.4,21.8,6,43.59,13.13,64.68,21.14A735.85,735.85,0,0,1,1683.72-273c11.71,11.76,23,23.88,33.56,36A724.57,724.57,0,0,1,1763-178.64a717.12,717.12,0,0,1,128.7,352c18.87,218.65-62.63,429.32-223.6,578h0a708.48,708.48,0,0,1-317.71,168.65,726.31,726.31,0,0,1-75.91,13.66c-11.53,1.48-24,2.74-38,3.83Q1210,939.34,1183.57,939.34ZM1166.92-464.15q-25.58,0-51.25,1.85C930-448.82,761.93-364.15,642.31-223.9,523.66-84.78,467,92.58,482.78,275.51c21.38,248.55,176.93,468.78,406,574.75,12.1,5.57,24.51,10.89,36.88,15.81a701.4,701.4,0,0,0,198.2,46.44,703.52,703.52,0,0,0,110.76.7c13.59-1.06,25.65-2.28,36.82-3.71a703.47,703.47,0,0,0,73.4-13.2,684.12,684.12,0,0,0,306.79-162.86h0c155.41-143.52,234.1-346.92,215.89-558a692.94,692.94,0,0,0-124.37-340A702.33,702.33,0,0,0,1699-221c-10.2-11.73-21.11-23.45-32.44-34.82a711.4,711.4,0,0,0-250.2-162.5c-20.38-7.74-41.43-14.62-62.58-20.45-8.48-2.4-16.26-4.4-23.85-6.15A697.75,697.75,0,0,0,1166.92-464.15ZM1659.83,742.37h0Z" transform="translate(83.18 492.74)"/><path class="cls-3" d="M1183.56,943.64c-20.82,0-41.59-.88-62.16-2.65a725.06,725.06,0,0,1-96-14.61,729.72,729.72,0,0,1-110.3-33.72c-12.88-5.13-25.75-10.65-38.32-16.43C638.42,766,476.55,536.71,454.29,278,437.86,87.36,496.91-97.46,620.56-242.45c124.62-146.12,299.72-234.33,493.05-248.37a729.25,729.25,0,0,1,222.83,18.05c7.91,1.82,16.13,3.94,25,6.45,21.9,6,43.82,13.19,65,21.26A740.07,740.07,0,0,1,1686.77-276c11.78,11.82,23.14,24,33.76,36.24a729.18,729.18,0,0,1,46,58.66A721.38,721.38,0,0,1,1896,173c19,220-63,431.94-225,581.5h0a712.75,712.75,0,0,1-319.64,169.68A730.16,730.16,0,0,1,1275,937.87c-11.59,1.49-24.12,2.75-38.25,3.85C1219,943,1201.28,943.64,1183.56,943.64ZM1166.91-459.84q-25.41,0-50.93,1.83c-184.47,13.4-351.53,97.53-470.39,236.91C527.7-82.86,471.4,93.37,487.07,275.14c21.25,247,175.85,465.89,403.48,571.21,12,5.53,24.36,10.83,36.66,15.72a696.81,696.81,0,0,0,197,46.15,698.64,698.64,0,0,0,110.09.7c13.49-1.06,25.49-2.26,36.58-3.68a699.85,699.85,0,0,0,73-13.13,679.9,679.9,0,0,0,304.86-161.83h0c154.43-142.61,232.62-344.72,214.52-554.51A688.6,688.6,0,0,0,1739.6-162.17a696.39,696.39,0,0,0-43.91-56c-10.12-11.66-21-23.3-32.23-34.6a705.71,705.71,0,0,0-115.34-93.66,703.1,703.1,0,0,0-133.34-67.85c-20.25-7.7-41.18-14.54-62.19-20.33-8.45-2.39-16.15-4.37-23.68-6.1A692.88,692.88,0,0,0,1166.91-459.84ZM1659.83,742.37h0Z" transform="translate(83.18 492.74)"/><path class="cls-3" d="M1513.17,846.12c-484,138.16-954.59-237.19-826.47-715.74,87.16-325.58,476.74-488.25,787.52-381.23,226.2,77.9,413.93,251.73,392.47,631.71,0,0-35.69,166.43-115.28,258.28S1578.62,806.8,1578.62,806.8Z" transform="translate(83.18 492.74)"/><path class="cls-6" d="M686.71,130.39C558.59,608.93,1029.2,984.27,1513.17,846.14l13.26-8C1068.09,767.59,722.13,365,842.56-121.31,769.28-55,713.63,29.92,686.71,130.39Z" transform="translate(83.18 492.74)"/><path class="cls-3" d="M1183.56,943.64c-20.82,0-41.59-.88-62.16-2.65a16.67,16.67,0,0,1-2.53-.41c-194.8-48.06-361.12-168-456.32-329.09C573,460,551,285.3,598.87,106.36,642.86-58,756.62-196.09,919.2-282.56c180.62-96.06,399.72-115.09,586.11-50.9,103.58,35.67,190.7,86.06,259,149.78a16.17,16.17,0,0,1,2.21,2.53A721.49,721.49,0,0,1,1896,173c19,220-63,431.94-225,581.5h0a712.75,712.75,0,0,1-319.64,169.68A730.16,730.16,0,0,1,1275,937.87c-11.59,1.49-24.12,2.75-38.25,3.85C1219,943,1201.28,943.64,1183.56,943.64Zm-58.06-35.31a698.87,698.87,0,0,0,108.77.59c13.49-1.06,25.49-2.26,36.58-3.68a699.85,699.85,0,0,0,73-13.13,679.75,679.75,0,0,0,304.86-161.83c154.43-142.61,232.62-344.72,214.52-554.51a688.54,688.54,0,0,0-122.62-336.55c-64.67-60-147.42-107.64-246-141.58-177.91-61.26-387.24-43-559.94,48.84-154.44,82.14-262.4,213-304,368.39C585.1,285.07,605.93,451,690.87,594.75,781.4,747.93,939.77,862.17,1125.5,908.33Zm534.33-166h0Z" transform="translate(83.18 492.74)"/><path class="cls-1" d="M409.56-44.22C345.51,78,364.83,219,452.75,270.84s211.13-5.25,275.18-127.44c.41-.76.82-1.58,1.2-2.37,62.6-121.62,42.91-261.25-44.4-312.69-67.92-40-156.89-15.07-223.39,54.66A322.56,322.56,0,0,0,409.56-44.22Z" transform="translate(83.18 492.74)"/><g class="cls-2"><path class="cls-3" d="M409.56-44.22C345.51,78,364.83,219,452.75,270.84s211.13-5.25,275.18-127.44c.41-.76.82-1.58,1.2-2.37-16.24,6.85-37.76,10.33-56-5.84C641.3,106.84,618.42-9.48,618.42-9.48S550.6-56.55,461.34-117A322.56,322.56,0,0,0,409.56-44.22Z" transform="translate(83.18 492.74)"/></g><path class="cls-3" d="M523.83,306.47A154.76,154.76,0,0,1,444.41,285C349.19,228.9,327,77.78,395-51.86,434.21-126.73,495.44-180.71,563-200c46.8-13.34,91.79-8.46,130.11,14.12C788.28-129.73,810.46,21.38,742.5,151c-39.24,74.87-100.47,128.85-168,148.1A184.75,184.75,0,0,1,523.83,306.47Zm89.66-480.84A151.3,151.3,0,0,0,572-168.32c-58,16.54-113.3,65.79-147.86,131.73h0c-59.95,114.36-43.35,245.91,37,293.25,30.37,17.89,66.48,21.64,104.39,10.82,58-16.54,113.3-65.79,147.87-131.73,59.94-114.35,43.34-245.9-37-293.25A122.49,122.49,0,0,0,613.49-174.37ZM409.54-44.22h0Z" transform="translate(83.18 492.74)"/><ellipse class="cls-1" cx="508.25" cy="35.33" rx="204.01" ry="139.06" transform="translate(349.6 976.49) rotate(-65.64)"/><g class="cls-2"><path class="cls-3" d="M414.42,216.1C348.3,176.44,336.74,63.39,388.58-36.47a292.94,292.94,0,0,1,18.34-30.66C389.14,11,408.11,85.39,459.55,116.17c58.08,34.75,138.54,2.46,192.59-72.33A298.09,298.09,0,0,1,628,107.1C576.11,207,480.51,255.73,414.42,216.1Z" transform="translate(83.18 492.74)"/></g><path class="cls-3" d="M465.06,246.35a113.63,113.63,0,0,1-59.12-16.16c-73.3-44-87.64-167-32-274.23h0c33-63.61,85.25-110.8,139.7-126.21,35.13-9.94,68.63-6.23,96.88,10.71,73.3,44,87.65,167,32,274.23-33,63.62-85.25,110.8-139.7,126.21A138.6,138.6,0,0,1,465.06,246.35ZM403.17-28.88c-47.82,92.1-39,195.67,19.69,230.86,20.28,12.16,44.83,14.67,71,7.27,45.88-13,90.54-54,119.47-109.72,47.81-92.1,39-195.67-19.7-230.86-20.28-12.16-44.83-14.68-71-7.26-45.88,13-90.54,54-119.46,109.71Z" transform="translate(83.18 492.74)"/><g class="cls-7"><path class="cls-1" d="M1252.42-157.11s283.81,79,385.21,294.12c.11.22.22.45.32.68,21.31,45.29,23.74,131.91,19.19,181.39-6,65.44-19.85,109.54-33.53,147.87-41.66,116.58-83.26,163.19-83.26,163.19C1629.48,592.9,1692.28,536.7,1728,440q5.24-14.32,9.74-29.87c.7-2.38,1.34-4.76,2-7.17.06,0,0-.06,0-.15a685.14,685.14,0,0,0,12.44-82.26c8.79-98-.92-233.5-95.25-329C1480.47-187,1247.05-172.81,1252.42-157.11Z" transform="translate(83.18 492.74)"/></g><g class="cls-7"><ellipse class="cls-1" cx="975.15" cy="79.67" rx="101.22" ry="88.12" transform="translate(429.15 1321.68) rotate(-54.65)"/></g><g class="cls-7"><ellipse class="cls-1" cx="829.26" cy="221.14" rx="41.81" ry="36.37" transform="translate(204.18 1198.59) rotate(-49.32)"/></g><path class="cls-8" d="M2287.58,1086.85l167.58-111.79a36,36,0,0,1,54.71,20.7l48,181a36,36,0,0,0,17,22l175.34,99.83c24.15,13.75,24.24,48.54.15,62.41l-168,96.72a36,36,0,0,0-17.53,25.22l-28.63,171a36,36,0,0,1-57,22.83L2283.38,1530a35.89,35.89,0,0,0-22.51-7.17l-186.45,4.94c-27.82.73-45.89-29-32.41-53.38l91.06-164.33a36,36,0,0,0,2.39-29.59l-67.25-187.12c-10-27.88,16.09-55.24,44.42-46.52l144.42,44.46A36,36,0,0,0,2287.58,1086.85Z" transform="translate(83.18 492.74)"/><path class="cls-3" d="M2319,1334.81s29.53,23.53,83.91,32.36c0,0-32.42,36-60.37,32.36S2319,1334.81,2319,1334.81Z" transform="translate(83.18 492.74)"/><g class="cls-7"><path class="cls-1" d="M2136.75,1347.68a36,36,0,0,0,2.39-29.59l-4.35-12.09a33.75,33.75,0,0,1-1.72,4.07L2042,1474.4a35.71,35.71,0,0,0,2.91,39.25c.27-.55.47-1.1.77-1.64Z" transform="translate(83.18 492.74)"/></g><g class="cls-7"><path class="cls-1" d="M2116.3,1084.44l144.43,44.46a35.94,35.94,0,0,0,30.53-4.45l167.58-111.78a36,36,0,0,1,54.71,20.7l48,181a35.92,35.92,0,0,0,17,22l175.34,99.83a35.94,35.94,0,0,1,10.82,9.41,35.94,35.94,0,0,0-14.5-47l-175.34-99.83a35.92,35.92,0,0,1-17-22l-48-181a36,36,0,0,0-54.71-20.7l-167.58,111.79a36,36,0,0,1-30.53,4.45l-144.42-44.46c-28.33-8.72-54.45,18.64-44.42,46.52l4.24,11.82C2079.13,1089.13,2097.19,1078.56,2116.3,1084.44Z" transform="translate(83.18 492.74)"/></g><g class="cls-2"><path class="cls-3" d="M2459.86,974.47a32.05,32.05,0,0,1,16.74-5.4,35.55,35.55,0,0,0-21.44,6l-156.65,104.5a32.15,32.15,0,0,0,10.28-4.32Z" transform="translate(83.18 492.74)"/></g><g class="cls-2"><path class="cls-3" d="M2750.16,1298.58l-8-4.55a32.07,32.07,0,0,1-16.23,28.34l-151.44,87.19a32.43,32.43,0,0,0-15.8,22.74l-25.8,154.11a32.43,32.43,0,0,1-51.42,20.59L2305,1474.74a32.46,32.46,0,0,0-20.3-6.47l-168.08,4.46c-25.07.66-41.37-26.18-29.21-48.12l82.08-148.14a32.38,32.38,0,0,0,2.16-26.67L2111,1081.11a32,32,0,0,1,6.56-32.75l-5-1.52c-28.33-8.72-54.45,18.64-44.42,46.52l67.25,187.12a36,36,0,0,1-2.39,29.59L2042,1474.4c-13.48,24.34,4.59,54.11,32.41,53.38l186.45-4.94a35.89,35.89,0,0,1,22.51,7.17l195.75,146.71a36,36,0,0,0,57-22.83l28.62-171a36,36,0,0,1,17.53-25.22l168-96.72C2774.4,1347.12,2774.31,1312.33,2750.16,1298.58Z" transform="translate(83.18 492.74)"/></g><path class="cls-3" d="M2500.6,1701.25a53,53,0,0,1-31.84-10.69L2273,1543.85a18.48,18.48,0,0,0-11.68-3.72l-186.46,4.94a53.25,53.25,0,0,1-48-79L2118,1301.69a18.66,18.66,0,0,0,1.23-15.35l-67.25-187.12a53.26,53.26,0,0,1,65.79-68.91l144.42,44.46a18.61,18.61,0,0,0,15.85-2.31l167.57-111.78a53.26,53.26,0,0,1,81,30.65l48,181a18.74,18.74,0,0,0,8.8,11.43l175.34,99.83a53.25,53.25,0,0,1,.23,92.43l-168,96.72a18.6,18.6,0,0,0-9.09,13.09l-28.63,171a52.89,52.89,0,0,1-32.72,40.65A53.75,53.75,0,0,1,2500.6,1701.25Zm-238.8-195.72a53.48,53.48,0,0,1,32,10.64l195.75,146.71a18.67,18.67,0,0,0,29.6-11.85l28.63-171a53.06,53.06,0,0,1,26-37.36l168-96.72a18.66,18.66,0,0,0-.08-32.39l-175.34-99.83a53.53,53.53,0,0,1-25.12-32.63l-48-181a18.66,18.66,0,0,0-28.39-10.74l-167.58,111.78h0a53,53,0,0,1-45.22,6.59l-144.42-44.46a18.67,18.67,0,0,0-23.06,24.15l67.25,187.12a53.24,53.24,0,0,1-3.53,43.81l-91.06,164.34a18.66,18.66,0,0,0,16.82,27.7l186.45-4.94Zm25.78-418.68h0Z" transform="translate(83.18 492.74)"/><ellipse class="cls-3" cx="2480.9" cy="1283.54" rx="53.85" ry="42.44" transform="translate(651.13 3811.71) rotate(-74.13)"/><ellipse class="cls-3" cx="2308.29" cy="1225.83" rx="53.85" ry="42.44" transform="translate(581.23 3603.74) rotate(-74.13)"/><ellipse class="cls-1" cx="2475.29" cy="1258.86" rx="15.63" ry="11.77" transform="translate(230.62 3265.84) rotate(-60)"/><ellipse class="cls-1" cx="2302.8" cy="1203.32" rx="15.63" ry="11.77" transform="translate(192.47 3088.69) rotate(-60)"/><path class="cls-9" d="M2317.14,1366.26s35-9.77,65,14.52c0,0-21.37,27.49-43.5,16.9S2317.14,1366.26,2317.14,1366.26Z" transform="translate(83.18 492.74)"/><path class="cls-3" d="M2346.56,1405.56a36.46,36.46,0,0,1-4.79-.31c-32.41-4.26-29-64.06-28.54-70.86a5.76,5.76,0,0,1,9.34-4.09c.28.22,29.2,22.73,81.24,31.18a5.77,5.77,0,0,1,3.37,9.55C2405.84,1372.51,2375.76,1405.56,2346.56,1405.56Zm-22.08-60.08c.23,18.13,3.77,46.36,18.79,48.34,17.15,2.32,37.07-13.25,47.72-23C2358.54,1364.06,2336.07,1352.57,2324.48,1345.48Z" transform="translate(83.18 492.74)"/><ellipse class="cls-8" cx="1959.89" cy="761.96" rx="344.09" ry="204.98" transform="translate(125.61 2117.89) rotate(-45.48)"/><path class="cls-8" d="M2201.15,516.61c-80.72-79.37-254.16-33.87-387.41,101.63s-175.82,309.69-95.11,389.06,254.17,33.88,387.42-101.62S2281.87,596,2201.15,516.61Zm-132.62,342c-101.18,102.9-222.27,147.9-270.45,100.52s-5.22-169.2,96-272.1,222.27-147.89,270.45-100.51S2169.71,755.77,2068.53,858.66Z" transform="translate(83.18 492.74)"/><path class="cls-10" d="M2068.53,858.66c78.49-79.82,121.92-171,115-230a58.48,58.48,0,0,0-5-5.68c-48.18-47.38-169.26-2.38-270.44,100.51-78.5,79.83-121.92,171-115,230a58.76,58.76,0,0,0,5,5.69C1846.26,1006.56,1967.35,961.56,2068.53,858.66Z" transform="translate(83.18 492.74)"/><g class="cls-7"><path class="cls-1" d="M1827.73,654.62c133.25-135.5,306.7-181,387.42-101.63A125.65,125.65,0,0,1,2237,582c-6.12-25.5-17.93-47.81-35.85-65.43-80.72-79.37-254.16-33.87-387.41,101.63-118.8,120.81-165.44,272.32-117,360C1675.31,888.87,1724.06,760,1827.73,654.62Z" transform="translate(83.18 492.74)"/></g><path class="cls-10" d="M1894,687.08c-66.19,67.32-107.45,142.72-114.59,200.1,2.32,15.86,8.4,29.3,18.63,39.35,48.18,47.38,169.27,2.38,270.45-100.51C2134.72,758.7,2176,683.3,2183.12,625.93c-2.32-15.87-8.4-29.31-18.63-39.36C2116.31,539.19,1995.22,584.19,1894,687.08Z" transform="translate(83.18 492.74)"/><g class="cls-2"><path class="cls-3" d="M1894,654.44c-79.71,81.06-123.24,173.83-114.59,232.74,7.14-57.38,48.4-132.78,114.59-200.1,101.18-102.89,222.27-147.89,270.45-100.51,10.23,10,16.31,23.49,18.63,39.36,3.78-30.33-2-55.63-18.63-72C2116.31,506.54,1995.22,551.54,1894,654.44Z" transform="translate(83.18 492.74)"/></g><g class="cls-2"><path class="cls-3" d="M2106.05,873c-133.25,135.5-306.7,181-387.42,101.63-24.27-23.88-37.32-56.37-40.18-93.76-3.65,51.11,9.07,95.81,40.18,126.4,80.72,79.38,254.17,33.88,387.42-101.62,93.16-94.75,141.93-208.37,135.28-295.31C2235.51,691.88,2187.94,789.75,2106.05,873Z" transform="translate(83.18 492.74)"/></g><path class="cls-11" d="M1894,687.08c-101.18,102.9-144.14,224.72-96,272.1s169.27,2.38,270.45-100.52,144.14-224.71,96-272.09S1995.22,584.19,1894,687.08Z" transform="translate(83.18 492.74)"/><g class="cls-7"><path class="cls-1" d="M2167.77,623.88a63,63,0,0,1,16.07,27.42c2-27.09-4-49.68-19.35-64.73-48.18-47.38-169.27-2.38-270.45,100.51-85.31,86.77-129.23,187-112,244.68,4.38-58.17,46.28-137.16,115.31-207.36C1998.51,621.5,2119.59,576.5,2167.77,623.88Z" transform="translate(83.18 492.74)"/></g><path class="cls-12" d="M1699.56,1098.25h0a25.14,25.14,0,0,1-2,33.93L1429.44,1392.1a25.13,25.13,0,0,1-36.37-1.45l-35.67-40.52a25.15,25.15,0,0,1,1-34.26l256.76-260.57a25.14,25.14,0,0,1,30.47-4.13l5.9,3.4" transform="translate(83.18 492.74)"/><polyline class="cls-1" points="1838.97 1525.34 1782.73 1590.99 1734.67 1547.31 1790.7 1486.51"/><path class="cls-3" d="M1851,994.24c-26.16,0-48.4-7.51-64.48-23.33-55.5-54.57-13.42-184.32,95.76-295.36h0c50.6-51.45,107.81-90.69,161.1-110.5,57.41-21.33,104.5-17.86,132.61,9.79s32.38,74.67,12,132.43c-18.91,53.62-57.18,111.48-107.77,162.93C2002.7,949.06,1915.14,994.23,1851,994.24Zm260.17-410c-16.22,0-35.33,3.9-56.33,11.7-48.87,18.16-101.82,54.65-149.1,102.73h0c-102.69,104.42-132.63,213-96.16,248.83s144.5,4.1,247.19-100.32c47.28-48.08,82.87-101.63,100.21-150.8,15.65-44.38,14.17-80.11-4.05-98C2143.41,588.91,2129.05,584.19,2111.2,584.19ZM1894,687.08h0Z" transform="translate(83.18 492.74)"/><path class="cls-3" d="M1825,1062.88c-47.84,0-88.45-14.85-117.94-43.85-43.34-42.62-56.52-109.78-37.13-189.12,18.66-76.32,65.55-155.59,132-223.2h0c66.49-67.62,145-115.84,221-135.77,79-20.74,146.38-8.67,189.72,33.95s56.52,109.78,37.12,189.11c-18.66,76.32-65.55,155.59-132,223.21s-145,115.83-221,135.77C1871.57,1059.6,1847.51,1062.88,1825,1062.88Zm.43-433.11h0c-126.67,128.82-169.43,292.92-95.3,365.8,34.74,34.17,90.95,43.26,158.3,25.59,70.35-18.46,143.45-63.56,205.85-127s106.27-137.3,123.54-207.95c16.53-67.63,6.5-123.69-28.24-157.85C2115.5,455.46,1952.14,501,1825.47,629.77Z" transform="translate(83.18 492.74)"/><path class="cls-3" d="M1699.56,1114.7a16.46,16.46,0,0,1-11.07-4.27l-48.06-43.69a16.44,16.44,0,0,1-1-23.32l56-60.8a16.45,16.45,0,0,1,24.19,22.3l-44.81,48.62,23.28,21.15,45.21-52.79a16.45,16.45,0,0,1,25,21.4L1712.05,1109a16.45,16.45,0,0,1-11.47,5.72Z" transform="translate(83.18 492.74)"/><path class="cls-3" d="M1411.92,1415.64c-.55,0-1.09,0-1.63,0a41.74,41.74,0,0,1-29.57-14.08L1345.06,1361a41.74,41.74,0,0,1,1.6-56.68l256.75-260.56a41.62,41.62,0,0,1,50.41-6.84l5.89,3.4a16.45,16.45,0,1,1-16.44,28.5l-5.89-3.4a8.69,8.69,0,0,0-10.54,1.43l-256.75,260.56a8.74,8.74,0,0,0-.34,11.85l35.66,40.52a8.71,8.71,0,0,0,12.59.51l268.12-259.92a8.64,8.64,0,0,0,.68-11.73,16.45,16.45,0,0,1,25.51-20.78A41.36,41.36,0,0,1,1709,1144l-268.12,259.92A41.81,41.81,0,0,1,1411.92,1415.64Z" transform="translate(83.18 492.74)"/><g class="cls-2"><polygon class="cls-3" points="1516.99 1869.12 1491.81 1837.96 1725 1599.55 1769.09 1636.21 1516.99 1869.12"/></g><g class="cls-2"><path class="cls-3" d="M1679.61,1071.36l46.17-49.44s14.14,2.21,15.81,3.2,6.44,16.54,5.75,17.35l-16,18.67s-13.32,14.42-17.84,16.28-20.38,7-20.38,7Z" transform="translate(83.18 492.74)"/></g><g class="cls-7"><ellipse class="cls-1" cx="2053.19" cy="679.12" rx="36.85" ry="30.78" transform="translate(682.12 2772.47) rotate(-66.05)"/></g><g class="cls-7"><ellipse class="cls-1" cx="2004.21" cy="789.35" rx="48.6" ry="40.61" transform="translate(552.29 2793.19) rotate(-66.05)"/></g><path class="cls-1" d="M1526.43,1103.11s-78.68,62.09-77.93,82.84-.23,46.31,33.36,58.91c0,0-28.27,37.05-28.13,75.54s16.77,56,16.77,56S1651,1249.71,1645.11,1223.5s-47.82-48.6-55.52-51.4-34.28-10.49-34.28-10.49l-8-16.49Z" transform="translate(83.18 492.74)"/><path class="cls-3" d="M1563.67,1158c15.12,48.08-1.52,103.54-59.69,102.65-53.07,2.19-81.54-46.63-54.23-91.7a1.46,1.46,0,0,1,2.65.71c1.32,9.66,2.47,18.76,4.38,27.16,3.87,19.79,13.37,34.45,34.34,35.07,10.33.44,22.49-.58,31.29-6.23,17.73-12.35,13.59-40.06,9.58-58.92-4.64-20.65,25.08-28.79,31.68-8.74Z" transform="translate(83.18 492.74)"/><path class="cls-3" d="M1495.78,1264.17c-19.49,26.71-37.36,63.88-20.64,96,11,21,29.17,31.58,46.44,50.15a1.49,1.49,0,0,1-1.09,2.51c-36.9-1.19-70.08-29.1-79.87-65.53-9-37.34,6.42-75.86,30.11-104.48,14.51-16.18,38.68,4.43,25,21.33Z" transform="translate(83.18 492.74)"/><path class="cls-3" d="M1548,1179.22a14.93,14.93,0,0,1-1.88-.11,16.44,16.44,0,0,1-14.48-18.2c.55-5.51,3.8-54.92-55.88-62a16.45,16.45,0,0,1,3.89-32.66c74.83,8.91,88.11,68.27,84.67,98.41A16.45,16.45,0,0,1,1548,1179.22Z" transform="translate(83.18 492.74)"/><path class="cls-3" d="M1656.76,1294.89h-.3a16.45,16.45,0,0,1-16.15-16.74c1.56-89.36-89.91-98.64-93.81-99a16.45,16.45,0,0,1,2.81-32.78c43.59,3.68,125.58,36.06,123.89,132.35A16.45,16.45,0,0,1,1656.76,1294.89Z" transform="translate(83.18 492.74)"/></svg>