<svg xmlns="http://www.w3.org/2000/svg" xmlns:xlink="http://www.w3.org/1999/xlink" viewBox="0 0 310.55 296.4"><defs><style>.cls-1{fill:none;}.cls-2{isolation:isolate;}.cls-3{clip-path:url(#clip-path);}.cls-4{clip-path:url(#clip-path-2);}.cls-38,.cls-39,.cls-5{fill:#a5a7aa;}.cls-6{fill:#7d8082;}.cls-18,.cls-24,.cls-34,.cls-36,.cls-37,.cls-38,.cls-48,.cls-51,.cls-55,.cls-57,.cls-6,.cls-7,.cls-9{mix-blend-mode:multiply;}.cls-8,.cls-9{fill:#797b7e;}.cls-10{fill:url(#linear-gradient);}.cls-11,.cls-12,.cls-13,.cls-14,.cls-15,.cls-16,.cls-26,.cls-30,.cls-31,.cls-32,.cls-33,.cls-35,.cls-39,.cls-47,.cls-58{mix-blend-mode:screen;}.cls-11{fill:url(#linear-gradient-2);}.cls-12{fill:url(#linear-gradient-3);}.cls-13{fill:url(#linear-gradient-4);}.cls-14{fill:url(#linear-gradient-5);}.cls-15{fill:url(#linear-gradient-6);}.cls-16{fill:url(#linear-gradient-7);}.cls-17,.cls-18{fill:#95989a;}.cls-19{fill:#4a4d4e;}.cls-20{fill:#1f2123;}.cls-21{fill:#beb9bd;}.cls-22,.cls-35{fill:#fff;}.cls-23{fill:#90949c;}.cls-24{opacity:0.29;}.cls-25{fill:#7f848b;}.cls-27{fill:#fff56d;}.cls-28{fill:#f6faf0;}.cls-29{fill:#fff89f;}.cls-30{fill:url(#linear-gradient-8);}.cls-31{fill:url(#linear-gradient-9);}.cls-32{fill:url(#linear-gradient-10);}.cls-33{fill:url(#linear-gradient-11);}.cls-34{fill:#6d7278;}.cls-36,.cls-37,.cls-40{fill:#686b6d;}.cls-36{opacity:0.44;}.cls-41{fill:#383b3d;}.cls-42{fill:#595c5e;}.cls-43{fill:#343739;}.cls-44{fill:#111315;}.cls-45{fill:url(#linear-gradient-12);}.cls-46,.cls-55,.cls-58{opacity:0.4;}.cls-47,.cls-48,.cls-55,.cls-57,.cls-58{fill:#adafb2;}.cls-47,.cls-51,.cls-57{opacity:0.3;}.cls-48{opacity:0.8;}.cls-49{fill:#1a1a1c;}.cls-50,.cls-51,.cls-52{fill:#c1c3c4;}.cls-52{mix-blend-mode:overlay;opacity:0.5;}.cls-53{fill:#1a1718;}.cls-54{fill:#0a0a0b;}.cls-56{fill:#424244;}.cls-59{fill:#16191a;}.cls-60{fill:#56585b;}</style><clipPath id="clip-path" transform="translate(12.63 -1.44)"><circle class="cls-1" cx="141.88" cy="152.76" r="132.35"/></clipPath><clipPath id="clip-path-2" transform="translate(12.63 -1.44)"><rect class="cls-1" x="-1.88" y="6.82" width="290.7" height="291.01"/></clipPath><linearGradient id="linear-gradient" x1="143.47" y1="162.21" x2="143.47" y2="49.14" gradientUnits="userSpaceOnUse"><stop offset="0" stop-color="#010415"/><stop offset="0.19" stop-color="#0b2030"/><stop offset="0.36" stop-color="#113242"/><stop offset="0.49" stop-color="#133848"/><stop offset="0.89" stop-color="#2b0e48"/><stop offset="1" stop-color="#2b0e48"/></linearGradient><linearGradient id="linear-gradient-2" x1="204.24" y1="61.99" x2="175.91" y2="82.29" xlink:href="#linear-gradient"/><linearGradient id="linear-gradient-3" x1="173.89" y1="82.57" x2="177.21" y2="80.49" gradientUnits="userSpaceOnUse"><stop offset="0" stop-color="#fff"/><stop offset="0.07" stop-color="#e7ebec"/><stop offset="0.26" stop-color="#a7b5bb"/><stop offset="0.45" stop-color="#728892"/><stop offset="0.62" stop-color="#496672"/><stop offset="0.77" stop-color="#2b4d5b"/><stop offset="0.9" stop-color="#193d4d"/><stop offset="1" stop-color="#133848"/></linearGradient><linearGradient id="linear-gradient-4" x1="178.14" y1="78.06" x2="179.37" y2="79.81" xlink:href="#linear-gradient"/><linearGradient id="linear-gradient-5" x1="110.64" y1="91.58" x2="82.31" y2="111.87" xlink:href="#linear-gradient"/><linearGradient id="linear-gradient-6" x1="80.29" y1="112.16" x2="83.61" y2="110.08" xlink:href="#linear-gradient-3"/><linearGradient id="linear-gradient-7" x1="84.54" y1="107.64" x2="85.77" y2="109.39" xlink:href="#linear-gradient"/><linearGradient id="linear-gradient-8" x1="59.03" y1="184.36" x2="59.03" y2="213.49" gradientUnits="userSpaceOnUse"><stop offset="0" stop-color="#010415"/><stop offset="0.05" stop-color="#2b2d3c"/><stop offset="0.14" stop-color="#6b6c76"/><stop offset="0.23" stop-color="#a0a1a7"/><stop offset="0.31" stop-color="#c9cacd"/><stop offset="0.38" stop-color="#e7e7e8"/><stop offset="0.45" stop-color="#f9f9f9"/><stop offset="0.49" stop-color="#fff"/><stop offset="1" stop-color="#2bf048"/></linearGradient><linearGradient id="linear-gradient-9" x1="228.24" y1="184.36" x2="228.24" y2="213.49" xlink:href="#linear-gradient-8"/><linearGradient id="linear-gradient-10" x1="17.48" y1="197.86" x2="17.48" y2="226.98" xlink:href="#linear-gradient-8"/><linearGradient id="linear-gradient-11" x1="269.79" y1="197.86" x2="269.79" y2="226.98" xlink:href="#linear-gradient-8"/><linearGradient id="linear-gradient-12" x1="201.24" y1="311.34" x2="205.93" y2="316.84" gradientTransform="matrix(-0.97, 0.23, 0.23, 0.97, 201.19, -173.09)" gradientUnits="userSpaceOnUse"><stop offset="0.01" stop-color="#222"/><stop offset="0.01" stop-color="#2d2d2d"/><stop offset="0.03" stop-color="#575757"/><stop offset="0.05" stop-color="#797979"/><stop offset="0.07" stop-color="#919191"/><stop offset="0.09" stop-color="#a0a0a0"/><stop offset="0.1" stop-color="#a5a5a5"/><stop offset="0.17" stop-color="#bfbfbf"/><stop offset="0.17" stop-color="#bbb"/><stop offset="0.33" stop-color="#636363"/><stop offset="0.41" stop-color="#404040"/><stop offset="0.6" stop-color="#242424"/><stop offset="0.78" stop-color="#171717"/><stop offset="0.99"/></linearGradient></defs><g class="cls-2"><g id="Layer_1" data-name="Layer 1"><g class="cls-3"><g class="cls-4"><rect class="cls-5" x="10.75" y="5.39" width="290.7" height="291.01"/><path class="cls-6" d="M5.4,89.83c7.19-17.54,17.83-34,32.56-46.1C52.06,32.1,69.22,24.41,86.68,19.36a182.81,182.81,0,0,1,54.71-7.29,190.76,190.76,0,0,1,54.08,9.19c17.59,5.68,34.5,14,49,25.5A126.45,126.45,0,0,1,279.43,91a154.13,154.13,0,0,1,9.39,24.9V6.82H-1.88V112A169,169,0,0,1,5.4,89.83Z" transform="translate(12.63 -1.44)"/><path class="cls-6" d="M269.47,34.45a137.91,137.91,0,0,1,19.35,19.38v-47H210.11C231.58,12.07,252.37,20.55,269.47,34.45Z" transform="translate(12.63 -1.44)"/><path class="cls-6" d="M26.69,32.84A155.79,155.79,0,0,1,77,6.82H-1.88V64.06A130.06,130.06,0,0,1,26.69,32.84Z" transform="translate(12.63 -1.44)"/><g class="cls-7"><path class="cls-8" d="M82.93,172.6a307.4,307.4,0,0,0-56.17-30.92,311.37,311.37,0,0,0-33.7-12v1.58a310.89,310.89,0,0,1,33.08,11.78A307,307,0,0,1,82,173.81c29.61,20.61,45.05,39.4,45.2,39.59l1.18-1C128.24,212.26,112.7,193.33,82.93,172.6Z" transform="translate(12.63 -1.44)"/><path class="cls-8" d="M86.06,104.49a349.75,349.75,0,0,0-61-58.9,295.79,295.79,0,0,0-32-20.94v1.73A300.8,300.8,0,0,1,24.23,46.85a348,348,0,0,1,60.69,58.64c23,28.14,42.75,60.72,58.84,96.83l1.38-.61C129,165.45,109.11,132.74,86.06,104.49Z" transform="translate(12.63 -1.44)"/><path class="cls-8" d="M293,129.94a309.55,309.55,0,0,0-89,42.66c-29.77,20.73-45.31,39.66-45.46,39.85l1.17,1c.15-.19,15.59-19,45.2-39.59a306.78,306.78,0,0,1,55.89-30.76A311.06,311.06,0,0,1,293,131.52Z" transform="translate(12.63 -1.44)"/><path class="cls-8" d="M293,25.12a302.73,302.73,0,0,0-31.18,20.47,349.7,349.7,0,0,0-61,58.9c-23.06,28.25-42.94,61-59.09,97.22l1.39.61c16.08-36.11,35.88-68.69,58.83-96.83A348.66,348.66,0,0,1,262.7,46.85a295.28,295.28,0,0,1,30.34-20Z" transform="translate(12.63 -1.44)"/><rect class="cls-8" x="155.34" width="1.51" height="217.32"/></g><path class="cls-9" d="M143.47,285.08a149.09,149.09,0,0,1-55.38-10.52,142.62,142.62,0,0,1-45.24-28.67,133.35,133.35,0,0,1-30.51-42.56,127,127,0,0,1,0-104.24A133.31,133.31,0,0,1,42.85,56.54,142.64,142.64,0,0,1,88.09,27.86a151,151,0,0,1,110.76,0,142.71,142.71,0,0,1,45.23,28.68,133.31,133.31,0,0,1,30.51,42.55,127,127,0,0,1,0,104.24,133.35,133.35,0,0,1-30.51,42.56,142.68,142.68,0,0,1-45.23,28.67A149.13,149.13,0,0,1,143.47,285.08Zm0-266.22a147.73,147.73,0,0,0-54.82,10.4A141.15,141.15,0,0,0,43.89,57.64,131.81,131.81,0,0,0,13.72,99.71a125.43,125.43,0,0,0,0,103,131.71,131.71,0,0,0,30.17,42.07,141.15,141.15,0,0,0,44.76,28.38,149.55,149.55,0,0,0,109.64,0,141.15,141.15,0,0,0,44.76-28.38,131.83,131.83,0,0,0,30.16-42.07,125.43,125.43,0,0,0,0-103,131.94,131.94,0,0,0-30.16-42.07,141.15,141.15,0,0,0-44.76-28.38A147.77,147.77,0,0,0,143.47,18.86Z" transform="translate(12.63 -1.44)"/><path class="cls-8" d="M267.71,148.46c0,64.52-55.63,116.82-124.24,116.82S19.23,213,19.23,148.46,74.85,31.63,143.47,31.63,267.71,83.94,267.71,148.46Z" transform="translate(12.63 -1.44)"/><path class="cls-10" d="M263.47,152.33c0,62.32-53.73,112.84-120,112.84s-120-50.52-120-112.84,53.72-112.84,120-112.84S263.47,90,263.47,152.33Z" transform="translate(12.63 -1.44)"/><path class="cls-11" d="M202.69,65.66,173.62,81.38a1.28,1.28,0,0,0-.25,1.87s.55.72,1.81-.1S202.69,65.66,202.69,65.66Z" transform="translate(12.63 -1.44)"/><path class="cls-12" d="M177.35,80.12c-.37.13-.76.25-1.12.41l-.54.23a3.59,3.59,0,0,0-.34.17,3.46,3.46,0,0,1,.62-.36h0c.05,0,0-.08,0-.07a12.51,12.51,0,0,0-1.33.5,3.2,3.2,0,0,0-.67.38,1.61,1.61,0,0,0-.38.31,1.11,1.11,0,0,0-.27.89,1,1,0,0,0,.6.78.92.92,0,0,0,.59,0,1.86,1.86,0,0,0,.47-.23c.08,0,.15-.1.23-.15a5.07,5.07,0,0,0,.55-.49c.17-.18.33-.39.49-.58a1.55,1.55,0,0,0,.39-.53,0,0,0,0,0,0-.06.68.68,0,0,0-.31.11l.27-.24a1.66,1.66,0,0,0,.35-.35,0,0,0,0,0,0-.06,1,1,0,0,0-.33.14l-.4.21-.2.11.48-.36.5-.35.27-.16a1,1,0,0,0,.21-.14S177.4,80.1,177.35,80.12Z" transform="translate(12.63 -1.44)"/><path class="cls-13" d="M181.13,77.67s-6.83,3.26-7.56,4-.33,2.08,1.39,1.4S184,77,184,77l-3.2,1.87L184.87,76l-3.77,2.18s1.91-1.41,1.84-1.39S181.13,77.67,181.13,77.67Z" transform="translate(12.63 -1.44)"/><path class="cls-14" d="M109.08,95.24,80,111a1.28,1.28,0,0,0-.25,1.87s.54.72,1.81-.1S109.08,95.24,109.08,95.24Z" transform="translate(12.63 -1.44)"/><path class="cls-15" d="M83.75,109.7c-.38.13-.76.25-1.13.41l-.54.23-.34.17a5.54,5.54,0,0,1,.62-.36h0c.05,0,0-.08,0-.06a12.45,12.45,0,0,0-1.33.49,3.72,3.72,0,0,0-.67.38,1.91,1.91,0,0,0-.38.31,1.08,1.08,0,0,0-.27.89,1,1,0,0,0,.59.78,1,1,0,0,0,.6,0,2.47,2.47,0,0,0,.46-.23,1.88,1.88,0,0,0,.23-.16,3.71,3.71,0,0,0,.56-.49c.17-.18.33-.38.49-.57a1.69,1.69,0,0,0,.39-.54s0,0,0,0a.63.63,0,0,0-.32.1,3.22,3.22,0,0,0,.28-.24,1.66,1.66,0,0,0,.35-.35s0-.06,0-.05a.81.81,0,0,0-.33.14l-.41.2-.19.11.48-.35.5-.35.27-.17.21-.13S83.8,109.68,83.75,109.7Z" transform="translate(12.63 -1.44)"/><path class="cls-16" d="M87.53,107.25s-6.83,3.27-7.56,4-.33,2.09,1.38,1.41,9-6.14,9-6.14l-3.2,1.87,4.12-2.86-3.77,2.18s1.91-1.41,1.83-1.38S87.53,107.25,87.53,107.25Z" transform="translate(12.63 -1.44)"/><path class="cls-17" d="M291.33,202.94l-3.13-1.38-3.77-1.66c-.74-.34-1.55-.66-2.41-1l-2.73-1.14c-7.71-3.19-18.85-7.5-32.52-11.78-6.84-2.1-14.3-4.23-22.28-6.17S208,176.1,199.2,174.62s-18-2.68-27.38-3.5-18.92-1.28-28.47-1.34-19.11.3-28.49,1c-1.17.08-2.34.19-3.51.3l-3.49.31-3.47.36-1.72.18-1.72.2-3.42.42c-1.14.14-2.27.3-3.39.45-2.26.3-4.49.66-6.71,1-1.1.16-2.2.36-3.29.54s-2.19.35-3.27.56c-2.17.39-4.31.77-6.42,1.2-4.24.82-8.36,1.74-12.36,2.67-8,1.89-15.48,3.95-22.33,6.08s-13,4.31-18.51,6.38-10.15,4.06-14,5.78-6.81,3.18-8.84,4.22c-1,.51-1.79.93-2.32,1.21l-.84.46-1.42-2.5c.07,0,1.2-.68,3.27-1.74s5.09-2.54,9-4.27,8.63-3.74,14.14-5.85,11.77-4.3,18.68-6.44,14.47-4.22,22.52-6.13c4-.94,8.19-1.87,12.46-2.69,2.13-.44,4.29-.82,6.47-1.22,1.09-.2,2.2-.37,3.3-.56s2.21-.38,3.33-.55c2.23-.33,4.48-.69,6.75-1l3.42-.46,3.45-.41,1.74-.21,1.74-.18,3.49-.37,3.52-.31c1.18-.1,2.36-.22,3.54-.3,9.45-.71,19.09-1.07,28.72-1s19.27.52,28.71,1.35,18.71,2,27.61,3.53,17.45,3.27,25.49,5.21,15.56,4.11,22.46,6.22c13.77,4.31,25,8.66,32.76,11.87l2.75,1.15c.87.36,1.68.69,2.42,1l3.8,1.67,3.16,1.4Z" transform="translate(12.63 -1.44)"/><path class="cls-18" d="M291.33,202.94l-3.13-1.38-3.77-1.66c-.74-.34-1.55-.66-2.41-1l-2.73-1.14c-7.71-3.19-18.85-7.5-32.52-11.78-6.84-2.1-14.3-4.23-22.28-6.17S208,176.1,199.2,174.62s-18-2.68-27.38-3.5-18.92-1.28-28.47-1.34-19.11.3-28.49,1c-1.17.08-2.34.19-3.51.3l-3.49.31-3.47.36-1.72.18-1.72.2-3.42.42c-1.14.14-2.27.3-3.39.45-2.26.3-4.49.66-6.71,1-1.1.16-2.2.36-3.29.54s-2.19.35-3.27.56c-2.17.39-4.31.77-6.42,1.2-4.24.82-8.36,1.74-12.36,2.67-8,1.89-15.48,3.95-22.33,6.08s-13,4.31-18.51,6.38-10.15,4.06-14,5.78-6.81,3.18-8.84,4.22c-1,.51-1.79.93-2.32,1.21l-.84.46-.71-1.25.86-.47c.54-.29,1.33-.71,2.35-1.23,2.05-1.05,5.05-2.52,8.91-4.25s8.58-3.72,14.06-5.81,11.71-4.28,18.6-6.41,14.4-4.21,22.42-6.11c4-.94,8.16-1.86,12.41-2.68,2.12-.43,4.27-.81,6.45-1.21,1.08-.21,2.18-.37,3.28-.56s2.2-.38,3.31-.54c2.22-.34,4.46-.7,6.73-1,1.13-.15,2.27-.32,3.4-.46l3.44-.41,1.73-.21,1.73-.18,3.48-.37,3.51-.31c1.17-.1,2.34-.22,3.52-.29,9.41-.72,19-1.07,28.6-1s19.19.52,28.59,1.34,18.63,2,27.5,3.52,17.38,3.26,25.39,5.19,15.5,4.09,22.37,6.2c13.72,4.29,24.9,8.62,32.64,11.82l2.74,1.14c.86.36,1.67.69,2.42,1l3.78,1.66,3.15,1.39Z" transform="translate(12.63 -1.44)"/><path class="cls-17" d="M288.83,208.46l-3.09-1.36L282,205.47c-.73-.33-1.52-.65-2.37-1s-1.74-.73-2.69-1.12c-7.59-3.15-18.55-7.39-32-11.6-6.73-2.06-14.07-4.16-21.91-6.07s-16.18-3.63-24.86-5.08-17.71-2.63-26.91-3.44-18.59-1.26-28-1.32-18.77.3-28,1c-1.15.07-2.3.19-3.44.29l-3.43.3-3.41.36-1.7.18-1.69.2-3.36.4L95,179c-2.22.29-4.41.64-6.58,1-1.09.16-2.17.35-3.24.53s-2.15.35-3.21.55c-2.13.39-4.24.76-6.31,1.18-4.16.81-8.21,1.71-12.14,2.62-7.84,1.86-15.2,3.88-21.92,6s-12.81,4.22-18.15,6.25-9.93,4-13.66,5.65-6.62,3.08-8.56,4.08c-1,.49-1.7.88-2.19,1.15l-.72.39-1.21-2.11.77-.42,2.24-1.18c2-1,4.9-2.44,8.68-4.13s8.4-3.64,13.79-5.7,11.51-4.21,18.29-6.31,14.18-4.14,22.09-6c4-.92,8-1.83,12.22-2.64,2.09-.43,4.21-.8,6.35-1.19,1.07-.21,2.15-.37,3.23-.56s2.17-.37,3.27-.53c2.19-.33,4.4-.69,6.63-1l3.36-.45,3.38-.41,1.7-.2,1.71-.18,3.43-.36,3.46-.3c1.15-.1,2.31-.22,3.47-.29,9.28-.71,18.73-1,28.18-1s18.91.51,28.18,1.33,18.36,2,27.1,3.46,17.13,3.22,25,5.12,15.28,4,22.06,6.11c13.54,4.24,24.57,8.51,32.21,11.67l2.71,1.13c.85.35,1.65.68,2.38,1l3.74,1.64,3.1,1.37Z" transform="translate(12.63 -1.44)"/><path class="cls-18" d="M288.83,208.46l-3.09-1.36L282,205.47c-.73-.33-1.52-.65-2.37-1s-1.74-.73-2.69-1.12c-7.59-3.15-18.55-7.39-32-11.6-6.73-2.06-14.07-4.16-21.91-6.07s-16.18-3.63-24.86-5.08-17.71-2.63-26.91-3.44-18.59-1.26-28-1.32-18.77.3-28,1c-1.15.07-2.3.19-3.44.29l-3.43.3-3.41.36-1.7.18-1.69.2-3.36.4L95,179c-2.22.29-4.41.64-6.58,1-1.09.16-2.17.35-3.24.53s-2.15.35-3.21.55c-2.13.39-4.24.76-6.31,1.18-4.16.81-8.21,1.71-12.14,2.62-7.84,1.86-15.2,3.88-21.92,6s-12.81,4.22-18.15,6.25-9.93,4-13.66,5.65-6.62,3.08-8.56,4.08c-1,.49-1.7.88-2.19,1.15l-.72.39-.6-1.05.74-.41c.5-.27,1.24-.67,2.22-1.17,1.95-1,4.86-2.42,8.61-4.1S17.62,198,23,196s11.47-4.19,18.22-6.28,14.13-4.13,22-6c3.94-.92,8-1.82,12.17-2.63,2.08-.42,4.2-.8,6.33-1.19,1.07-.2,2.15-.36,3.23-.55s2.16-.37,3.25-.53c2.18-.33,4.38-.68,6.61-1,1.11-.15,2.22-.31,3.34-.45l3.37-.41,1.7-.2,1.7-.18,3.42-.36,3.44-.3c1.15-.1,2.3-.22,3.46-.29,9.25-.7,18.67-1,28.09-1s18.84.51,28.08,1.32,18.29,2,27,3.45,17.07,3.2,24.94,5.1,15.24,4,22,6.09c13.49,4.22,24.49,8.48,32.11,11.63l2.7,1.13c.84.35,1.64.67,2.37,1l3.72,1.64,3.1,1.37Z" transform="translate(12.63 -1.44)"/><path class="cls-19" d="M15.61,219.54l-1,.46-1,.47-15.85-33.6,1.2-.56,1.19-.55Z" transform="translate(12.63 -1.44)"/><polygon class="cls-20" points="28.24 218.11 27.23 218.57 11.59 184.88 12.79 184.33 28.24 218.11"/><polygon class="cls-19" points="44.45 211.43 42.33 212.23 29.09 177.52 31.5 176.62 44.45 211.43"/><polygon class="cls-20" points="44.45 211.43 43.39 211.83 30.3 177.07 31.5 176.62 44.45 211.43"/><polygon class="cls-19" points="61.28 205.76 59.1 206.44 48.05 170.97 50.5 170.22 61.28 205.76"/><polygon class="cls-20" points="61.28 205.76 60.2 206.1 49.27 170.59 50.5 170.22 61.28 205.76"/><path class="cls-19" d="M65.87,202.52l-1.11.27L64,203l-.35.09-9-36,.39-.1.85-.21,1.25-.3Z" transform="translate(12.63 -1.44)"/><polygon class="cls-20" points="78.5 201.09 77.39 201.35 68.54 165.28 69.78 164.98 78.5 201.09"/><polygon class="cls-19" points="95.98 197.38 93.73 197.79 86.79 161.3 89.3 160.84 95.98 197.38"/><polygon class="cls-20" points="95.98 197.38 94.86 197.59 88.05 161.07 89.3 160.84 95.98 197.38"/><polygon class="cls-19" points="131.46 192.92 129.17 193.08 126.31 156.05 128.86 155.86 131.46 192.92"/><polygon class="cls-20" points="131.46 192.92 130.31 193 127.59 155.95 128.86 155.86 131.46 192.92"/><polygon class="cls-19" points="167.21 192.39 164.92 192.31 166.17 155.19 168.72 155.27 167.21 192.39"/><polygon class="cls-20" points="167.21 192.39 166.06 192.35 167.44 155.23 168.72 155.27 167.21 192.39"/><polygon class="cls-19" points="202.82 195.82 200.55 195.48 205.86 158.72 208.39 159.09 202.82 195.82"/><polygon class="cls-20" points="202.82 195.82 201.68 195.65 207.13 158.91 208.39 159.09 202.82 195.82"/><path class="cls-19" d="M101,196.09l-.35,0-.78.1-1.14.16-4.9-36.82,1.26-.18.87-.11.4-.05Z" transform="translate(12.63 -1.44)"/><path class="cls-20" d="M101,196.09l-.57.07-.56.07-4.78-36.84.64-.08.63-.08Z" transform="translate(12.63 -1.44)"/><polygon class="cls-19" points="149.32 192.16 147.03 192.21 146.23 155.07 148.78 155.02 149.32 192.16"/><polygon class="cls-20" points="149.32 192.16 148.18 192.18 147.51 155.04 148.78 155.02 149.32 192.16"/><polygon class="cls-19" points="185.06 193.61 182.77 193.41 186.07 156.41 188.61 156.64 185.06 193.61"/><polygon class="cls-20" points="185.06 193.61 183.92 193.51 187.34 156.52 188.61 156.64 185.06 193.61"/><polygon class="cls-19" points="220.45 198.99 218.2 198.51 225.5 162.09 227.99 162.62 220.45 198.99"/><polygon class="cls-20" points="220.45 198.99 219.32 198.75 226.74 162.35 227.99 162.62 220.45 198.99"/><polygon class="cls-19" points="237.9 203.08 235.67 202.52 244.9 166.54 247.37 167.16 237.9 203.08"/><polygon class="cls-20" points="237.9 203.08 236.79 202.8 246.14 166.85 247.37 167.16 237.9 203.08"/><polygon class="cls-19" points="255.13 208.13 252.94 207.43 264.03 171.97 266.45 172.75 255.13 208.13"/><polygon class="cls-20" points="255.13 208.13 254.03 207.78 265.24 172.36 266.45 172.75 255.13 208.13"/><polygon class="cls-19" points="272.11 214.03 269.94 213.24 282.82 178.4 285.21 179.27 272.11 214.03"/><polygon class="cls-20" points="272.11 214.03 271.03 213.63 284.02 178.84 285.21 179.27 272.11 214.03"/><path class="cls-19" d="M276.16,222.24l-1.05-.46-.73-.32-.33-.14,14.58-34.17.36.16.81.35,1.16.51Z" transform="translate(12.63 -1.44)"/><polygon class="cls-20" points="288.8 220.81 287.74 220.34 302.43 186.22 303.59 186.74 288.8 220.81"/><path class="cls-21" d="M295.78,193.12l-3.22-1.42-3.87-1.7c-.76-.34-1.59-.68-2.47-1.05l-2.81-1.16c-7.93-3.29-19.37-7.72-33.44-12.12-7-2.16-14.72-4.36-22.94-6.35S210.08,165.51,201,164s-18.56-2.76-28.22-3.61-19.5-1.32-29.35-1.38-19.71.32-29.37,1.05c-1.22.08-2.42.2-3.62.3l-3.6.32-3.58.37-1.77.19-1.78.21-3.53.43-3.49.47c-2.33.3-4.63.67-6.91,1-1.14.17-2.28.38-3.41.56s-2.25.37-3.37.58c-2.23.4-4.44.8-6.62,1.24-4.36.84-8.61,1.79-12.74,2.75-8.24,2-16,4.08-23,6.28s-13.5,4.46-19.16,6.6-10.54,4.22-14.55,6c-8,3.6-12.57,6.16-12.93,6.36l-2.56-4.49c.49-.28,5.18-2.92,13.37-6.59,4.1-1.84,9.08-3.93,14.83-6.13S27.84,172,35,169.82s15-4.4,23.41-6.38c4.18-1,8.49-1.93,12.92-2.79,2.21-.45,4.46-.84,6.72-1.26,1.13-.21,2.27-.39,3.42-.58s2.29-.4,3.45-.57c2.32-.35,4.65-.72,7-1,1.18-.16,2.36-.33,3.55-.48l3.58-.43,1.8-.21,1.8-.19,3.63-.38,3.65-.33c1.22-.1,2.44-.22,3.67-.3,9.81-.75,19.8-1.11,29.8-1.06s20,.54,29.77,1.4,19.4,2.1,28.63,3.65,18.09,3.4,26.42,5.41,16.11,4.25,23.25,6.44c14.25,4.46,25.85,9,33.88,12.27l2.84,1.18c.89.38,1.73.72,2.5,1.06l3.92,1.73,3.26,1.44Z" transform="translate(12.63 -1.44)"/><path class="cls-18" d="M295.78,193.12l-3.22-1.42-3.87-1.7c-.76-.34-1.59-.68-2.47-1.05l-2.81-1.16c-7.93-3.29-19.37-7.72-33.44-12.12-7-2.16-14.72-4.36-22.94-6.35S210.08,165.51,201,164s-18.56-2.76-28.22-3.61-19.5-1.32-29.35-1.38-19.71.32-29.37,1.05c-1.22.08-2.42.2-3.62.3l-3.6.32-3.58.37-1.77.19-1.78.21-3.53.43-3.49.47c-2.33.3-4.63.67-6.91,1-1.14.17-2.28.38-3.41.56s-2.25.37-3.37.58c-2.23.4-4.44.8-6.62,1.24-4.36.84-8.61,1.79-12.74,2.75-8.24,2-16,4.08-23,6.28s-13.5,4.46-19.16,6.6-10.54,4.22-14.55,6c-8,3.6-12.57,6.16-12.93,6.36l-1.28-2.24c.42-.25,5-2.85,13.15-6.48,4.06-1.82,9-3.89,14.69-6.07s12.18-4.46,19.31-6.66S50.72,167.93,59,166c4.16-1,8.44-1.92,12.83-2.77,2.2-.45,4.43-.84,6.67-1.25,1.12-.21,2.26-.39,3.4-.58s2.28-.39,3.43-.56c2.29-.35,4.61-.72,7-1l3.53-.47,3.55-.43,1.79-.21,1.79-.19,3.6-.37,3.62-.33c1.21-.1,2.43-.22,3.65-.3,9.74-.74,19.66-1.1,29.58-1.06s19.84.54,29.57,1.4,19.26,2.09,28.42,3.62,18,3.38,26.24,5.37,16,4.22,23.09,6.4c14.16,4.43,25.68,8.89,33.66,12.19l2.82,1.18c.89.37,1.73.71,2.49,1.05l3.89,1.72,3.25,1.42Z" transform="translate(12.63 -1.44)"/><path class="cls-22" d="M288.82,297.83V224c-35-20.74-87.16-33.89-145.35-33.89S33.16,203.25-1.88,224v73.84Z" transform="translate(12.63 -1.44)"/><path class="cls-23" d="M288.82,297.83V226.4c-35-20.06-87.16-32.78-145.35-32.78S33.16,206.34-1.88,226.4v71.43Z" transform="translate(12.63 -1.44)"/><g class="cls-24"><path class="cls-25" d="M246.8,257.38c-22.68,7.34-46.23,11.81-69.9,14.49-11.74,1.33-23.54,2.22-35.35,2.77-12.56.58-25.15.92-37.72.44a256.91,256.91,0,0,1-39.31-4.4A257.63,257.63,0,0,1,26,259.51c-9.39-3.41-20.32-8.29-27.9-15.7v54h290.7V239.49A244.2,244.2,0,0,1,246.8,257.38Z" transform="translate(12.63 -1.44)"/></g><g class="cls-26"><path class="cls-23" d="M29.52,229.59c2.16,8.22,8.73,14,16,17.85,7.84,4.12,16.6,6.39,25.27,8A221,221,0,0,0,95,258.31a253.25,253.25,0,0,0,62-3.44c21.2-3.77,42.09-10.15,61.35-19.87a153.63,153.63,0,0,0,35.41-24.23c-31.16-10.8-69.24-17.15-110.34-17.15-40.56,0-78.16,6.18-109.08,16.71C30.32,216,27.66,222.51,29.52,229.59Z" transform="translate(12.63 -1.44)"/></g><polygon class="cls-27" points="157.53 63.43 157.99 63.59 158.38 63.3 158.38 63.79 158.77 64.08 158.3 64.22 158.15 64.69 157.87 64.28 157.38 64.29 157.68 63.9 157.53 63.43"/><polygon class="cls-27" points="146.5 64.75 147.4 65.06 148.16 64.5 148.14 65.45 148.9 66 148 66.28 147.71 67.18 147.17 66.4 146.23 66.4 146.8 65.65 146.5 64.75"/><polygon class="cls-27" points="202.6 118.71 202.72 119.64 203.55 120.08 202.7 120.47 202.54 121.4 201.9 120.72 200.97 120.85 201.43 120.03 201.01 119.19 201.93 119.37 202.6 118.71"/><path class="cls-28" d="M212.66,114.68a.42.42,0,0,1-.42.42.43.43,0,1,1,0-.85A.42.42,0,0,1,212.66,114.68Z" transform="translate(12.63 -1.44)"/><path class="cls-28" d="M227,110.11a.43.43,0,0,1-.85,0,.43.43,0,1,1,.85,0Z" transform="translate(12.63 -1.44)"/><circle class="cls-28" cx="234.73" cy="128.63" r="0.43"/><path class="cls-28" d="M151.54,169.79a.43.43,0,1,1-.42-.42A.42.42,0,0,1,151.54,169.79Z" transform="translate(12.63 -1.44)"/><path class="cls-28" d="M165.86,165.22a.43.43,0,1,1-.85,0,.43.43,0,0,1,.85,0Z" transform="translate(12.63 -1.44)"/><path class="cls-28" d="M161.4,185.18a.43.43,0,1,1-.42-.42A.42.42,0,0,1,161.4,185.18Z" transform="translate(12.63 -1.44)"/><polygon class="cls-27" points="70.02 89.72 70.39 89.85 70.7 89.62 70.69 90.01 71.01 90.24 70.64 90.35 70.52 90.72 70.3 90.4 69.9 90.4 70.14 90.09 70.02 89.72"/><polygon class="cls-27" points="61.27 90.77 61.98 91.02 62.58 90.57 62.57 91.32 63.18 91.76 62.46 91.98 62.23 92.69 61.8 92.08 61.05 92.08 61.51 91.48 61.27 90.77"/><polygon class="cls-27" points="105.8 133.6 105.89 134.34 106.55 134.68 105.88 135 105.75 135.74 105.24 135.19 104.51 135.3 104.87 134.65 104.53 133.98 105.27 134.12 105.8 133.6"/><path class="cls-28" d="M111.18,130.69a.34.34,0,1,1-.67,0,.34.34,0,0,1,.67,0Z" transform="translate(12.63 -1.44)"/><path class="cls-28" d="M122.55,127.07a.34.34,0,1,1-.34-.34A.34.34,0,0,1,122.55,127.07Z" transform="translate(12.63 -1.44)"/><path class="cls-28" d="M119,142.91a.34.34,0,1,1-.34-.34A.34.34,0,0,1,119,142.91Z" transform="translate(12.63 -1.44)"/><path class="cls-28" d="M62.66,174.44a.34.34,0,1,1-.33-.34A.34.34,0,0,1,62.66,174.44Z" transform="translate(12.63 -1.44)"/><path class="cls-28" d="M74,170.81a.34.34,0,1,1-.34-.33A.34.34,0,0,1,74,170.81Z" transform="translate(12.63 -1.44)"/><path class="cls-28" d="M70.49,186.66a.34.34,0,1,1-.34-.34A.34.34,0,0,1,70.49,186.66Z" transform="translate(12.63 -1.44)"/></g><ellipse class="cls-29" cx="72.42" cy="210.7" rx="2.69" ry="0.75"/><path class="cls-30" d="M49.86,178.31l7.24,33.82a8.13,8.13,0,0,0,5.38,0l5.73-33.82Z" transform="translate(12.63 -1.44)"/><ellipse class="cls-29" cx="241.62" cy="210.7" rx="2.69" ry="0.75"/><path class="cls-31" d="M219.06,178.31l7.24,33.82a8.13,8.13,0,0,0,5.38,0l5.73-33.82Z" transform="translate(12.63 -1.44)"/><path class="cls-29" d="M20.92,225.63c0,.41-1.2.75-2.69.75s-2.69-.34-2.69-.75,1.21-.76,2.69-.76S20.92,225.21,20.92,225.63Z" transform="translate(12.63 -1.44)"/><path class="cls-32" d="M8.31,191.81l7.23,33.82a8.2,8.2,0,0,0,5.38,0l5.73-33.82Z" transform="translate(12.63 -1.44)"/><path class="cls-29" d="M273.23,225.63c0,.41-1.2.75-2.68.75s-2.69-.34-2.69-.75,1.2-.76,2.69-.76S273.23,225.21,273.23,225.63Z" transform="translate(12.63 -1.44)"/><path class="cls-33" d="M260.62,191.81l7.24,33.82a8.18,8.18,0,0,0,5.37,0L279,191.81Z" transform="translate(12.63 -1.44)"/><ellipse class="cls-34" cx="148.95" cy="216.7" rx="39.02" ry="10.47"/><path class="cls-5" d="M169.45,217.48l-11.34-20.07h-45l-11,19.63a2.76,2.76,0,0,0-.25.44h0a1.73,1.73,0,0,0-.15.7c0,4.09,15.16,7.42,33.85,7.42s33.84-3.33,33.84-7.42a1.73,1.73,0,0,0-.15-.7Z" transform="translate(12.63 -1.44)"/><path class="cls-35" d="M116,223.94c.83-2.39,1.67-4.78,2.49-7.17s1.63-4.79,2.43-7.19,1.57-4.8,2.34-7.21q.78-2.48,1.54-5h-8.94a26.59,26.59,0,0,1-1.56,3.54c-1,2-2.21,3.94-3.33,5.9-.53.91-1,1.83-1.5,2.76s-1.1,2-1.68,3c-1.2,2.07-2.44,4.13-3.52,6.27-.27.54-.54,1.08-.79,1.63,2.28,1.5,6.68,2.79,12.42,3.69Z" transform="translate(12.63 -1.44)"/><path class="cls-36" d="M169.45,217.48l-11.34-20.07H113.27a6.78,6.78,0,0,0,.57,1.91,8.15,8.15,0,0,0,2.94,3.25,17.13,17.13,0,0,0,4.49,2,33.58,33.58,0,0,0,5.14,1.09c1.64.22,3.29.36,5,.43a27,27,0,0,0,3.11-.16,19.72,19.72,0,0,1,3.17-.06,6.37,6.37,0,0,1,2.76.82,6.21,6.21,0,0,1,2.09,2.37,30.79,30.79,0,0,1,2.76,7.2c.35,1.26.67,2.53,1,3.79s.76,2.68,1.16,4c.11.35.21.69.31,1,12.71-1.07,21.73-3.77,21.73-6.93a1.73,1.73,0,0,0-.15-.7Z" transform="translate(12.63 -1.44)"/><path class="cls-5" d="M158.11,197.41c0,2.73-10.07,4.94-22.5,4.94s-22.5-2.21-22.5-4.94,10.07-4.94,22.5-4.94S158.11,194.68,158.11,197.41Z" transform="translate(12.63 -1.44)"/><path class="cls-37" d="M150.41,197.84c0,1.88-6.23,3.41-13.92,3.41s-13.91-1.53-13.91-3.41,6.23-3.42,13.91-3.42S150.41,196,150.41,197.84Z" transform="translate(12.63 -1.44)"/><path class="cls-5" d="M146.57,169.54l-23.15.61v27.26c0,1.64,5.78,3,12.91,3s12.91-1.33,12.91-3V170.15S146.78,170,146.57,169.54Z" transform="translate(12.63 -1.44)"/><path class="cls-38" d="M129.25,170l-5.83.15v27.26c0,1,2.32,2,5.83,2.48Z" transform="translate(12.63 -1.44)"/><path class="cls-38" d="M146.57,169.54l-4.6.12v30.43c4.3-.49,7.27-1.5,7.27-2.68V170.15S146.78,170,146.57,169.54Z" transform="translate(12.63 -1.44)"/><path class="cls-39" d="M149.24,170.15c0,1.64-5.78,3-12.91,3s-12.91-1.34-12.91-3,5.78-3,12.91-3S149.24,168.51,149.24,170.15Z" transform="translate(12.63 -1.44)"/><path class="cls-40" d="M147.84,169.83c0,1.46-5.15,2.65-11.51,2.65s-11.51-1.19-11.51-2.65,5.15-2.65,11.51-2.65S147.84,168.37,147.84,169.83Z" transform="translate(12.63 -1.44)"/><path class="cls-5" d="M163.75,123.91a20.08,20.08,0,0,0-37.72-9.6h0L99.09,144.55l41.21,30.78,19.16-39h0A20,20,0,0,0,163.75,123.91Z" transform="translate(12.63 -1.44)"/><path class="cls-38" d="M163.75,123.91a20.08,20.08,0,0,0-37.72-9.6h0l-.58.66q1-.39,2.07-.69a24.63,24.63,0,0,1,6-1,24.24,24.24,0,0,1,11.63,2.46,23.43,23.43,0,0,1,8.69,7.26,27.36,27.36,0,0,1,4.17,9.83,43.82,43.82,0,0,1,.79,4.81l.68-1.37h0A20,20,0,0,0,163.75,123.91Z" transform="translate(12.63 -1.44)"/><path class="cls-38" d="M116.52,131c4.47-5.81,9-11.57,13.69-17.22q3.82-4.62,7.78-9.14a20.15,20.15,0,0,0-12,9.66h0L99.09,144.55l4.57,3.41C107.93,142.29,112.19,136.63,116.52,131Z" transform="translate(12.63 -1.44)"/><path class="cls-38" d="M161.29,114.29q-3.66,4.9-7.26,9.85-5.76,8-11.37,16t-11.13,16.19l-5.6,8.22,14.37,10.74,19.16-39h0a20.05,20.05,0,0,0,1.84-22Z" transform="translate(12.63 -1.44)"/><path class="cls-41" d="M159.56,134.8c0,.49,0,1-.05,1.44a20.07,20.07,0,1,0-32.93-22.86,23.44,23.44,0,0,1,33,21.42Z" transform="translate(12.63 -1.44)"/><g class="cls-26"><path class="cls-41" d="M163,126.23a21.06,21.06,0,0,1-.57,4.86,20.07,20.07,0,0,0-32.64-21.67A20.86,20.86,0,0,1,163,126.23Z" transform="translate(12.63 -1.44)"/></g><path class="cls-42" d="M142.78,171.67h0a25.76,25.76,0,0,0-41.13-30.24h0l0,0-.22.23-6.08,6.38,1.23,1a25.76,25.76,0,0,0,39.37,30.69l1.47,1.14L142,173c.28-.44.55-.9.81-1.36Z" transform="translate(12.63 -1.44)"/><path class="cls-39" d="M124.94,143.93c3.64-5.39,7.44-10.67,11.22-16s7.57-10.63,11.2-16.06c1.42-2.13,2.83-4.28,4.2-6.46a20.38,20.38,0,0,0-3.23-1.07c-1.79,2.25-3.64,4.45-5.52,6.62-3.68,4.26-7.48,8.44-11.1,12.76-3.84,4.6-7.55,9.32-11.29,14s-7.54,9.51-11.2,14.35l6.85,5.12C119,152.8,122,148.35,124.94,143.93Z" transform="translate(12.63 -1.44)"/><circle class="cls-43" cx="115.34" cy="165.76" r="26.72" transform="translate(10.46 0.1) rotate(-0.75)"/><circle class="cls-43" cx="115.34" cy="165.76" r="26.72" transform="translate(10.46 0.1) rotate(-0.75)"/><circle class="cls-44" cx="115.34" cy="165.76" r="26.72" transform="translate(10.46 0.1) rotate(-0.75)"/><path class="cls-43" d="M141.28,166.28a26.19,26.19,0,1,1-26.19-26.19A26.19,26.19,0,0,1,141.28,166.28Z" transform="translate(12.63 -1.44)"/><path class="cls-43" d="M119.62,175.33a14.74,14.74,0,1,1-14.73-14.74A14.73,14.73,0,0,1,119.62,175.33Z" transform="translate(12.63 -1.44)"/><path class="cls-45" d="M73.12,178.38c1-1.66,2.11-2.82,2.51-2.58l.91.54c.41.24-.06,1.78-1,3.45s-2.11,2.81-2.52,2.57l-.9-.53C71.67,181.59,72.13,180,73.12,178.38Z" transform="translate(12.63 -1.44)"/><g class="cls-46"><path class="cls-47" d="M75,176l1.66.92a5.31,5.31,0,0,1-.49,1.54L73.9,177.2A6.38,6.38,0,0,1,75,176Z" transform="translate(12.63 -1.44)"/><path class="cls-48" d="M72.52,179.51l2.33,1.28c-.79,1.09-1.55,1.76-1.87,1.57l-.9-.53C71.76,181.64,72,180.69,72.52,179.51Z" transform="translate(12.63 -1.44)"/><path class="cls-47" d="M74.72,176.25l1.88,1.05a8,8,0,0,1-.26.79l-2.19-1.21A6.18,6.18,0,0,1,74.72,176.25Z" transform="translate(12.63 -1.44)"/></g><path class="cls-49" d="M75.49,179.8c1-1.66,1.44-3.21,1-3.45s-1.54.92-2.52,2.58-1.45,3.21-1,3.45S74.51,181.47,75.49,179.8Z" transform="translate(12.63 -1.44)"/><path class="cls-50" d="M74.33,179.11c.79-1.42,1.72-2.41,2.08-2.21l6.46,3.6c.3.17-.09,1.46-.89,2.88s-1.67,2.43-2,2.26L73.52,182C73.16,181.84,73.54,180.52,74.33,179.11Z" transform="translate(12.63 -1.44)"/><path class="cls-51" d="M81.12,186.28,73.49,182c-.25-.14,0-1.06.48-2.19L79.53,183l2.08,1.17C81.09,185.24,80.87,186.14,81.12,186.28Z" transform="translate(12.63 -1.44)"/><path class="cls-52" d="M83.16,181.57c-.12.15-.25.32-.38.51l-1.76-1-5.83-3.29c.13-.19.3-.33.42-.48Z" transform="translate(12.63 -1.44)"/><path class="cls-49" d="M80.43,186l-.56-.31c.33.19,1.27-.86,2.09-2.34s1.22-2.82.89-3l.56.31c.33.18-.07,1.53-.89,3S80.76,186.2,80.43,186Z" transform="translate(12.63 -1.44)"/><path class="cls-53" d="M79.87,185.7a.1.1,0,0,1,0-.13c.29.16,1.2-.89,2-2.27s1.18-2.72.86-2.89a.14.14,0,0,1,.15,0c.33.18-.07,1.53-.89,3S80.2,185.89,79.87,185.7Z" transform="translate(12.63 -1.44)"/><path class="cls-54" d="M86.57,177.59l-2.79,1.24,4,11.57,2.09-3.51-3.09-9.22S86.76,177.51,86.57,177.59Z" transform="translate(12.63 -1.44)"/><path class="cls-49" d="M87.81,190.4l-4-11.57s-4.09,7.83-4.32,8.33a.48.48,0,0,0,.16.69Z" transform="translate(12.63 -1.44)"/><path class="cls-55" d="M85.64,183.9c.72,2.61,2.14,4.49,3.18,4.21s1.3-2.64.58-5.25-2.15-4.5-3.18-4.21S84.92,181.29,85.64,183.9Z" transform="translate(12.63 -1.44)"/><path class="cls-56" d="M86.06,183.67c-.58-2.25-.55-4.2.08-4.37l9.64-2.49c-.63.16-.66,2.11-.08,4.36s1.57,3.94,2.19,3.78l-9.64,2.5C87.63,187.61,86.65,185.92,86.06,183.67Z" transform="translate(12.63 -1.44)"/><g class="cls-46"><path class="cls-57" d="M97.89,185l-9.64,2.5c-.44.12-1-.69-1.59-2l9.67-2.42C96.86,184.29,97.46,185.06,97.89,185Z" transform="translate(12.63 -1.44)"/><path class="cls-47" d="M85.74,179.88l9.62-2.4a8.13,8.13,0,0,0,.19,3l-9.66,2.42A7.88,7.88,0,0,1,85.74,179.88Z" transform="translate(12.63 -1.44)"/><path class="cls-58" d="M85.67,180.39l9.63-2.47a7.46,7.46,0,0,0,.06,1.45l-9.64,2.47A7.38,7.38,0,0,1,85.67,180.39Z" transform="translate(12.63 -1.44)"/></g><circle class="cls-59" cx="107.22" cy="172.68" r="15.45" transform="translate(-45.29 52.74) rotate(-22.5)"/><path class="cls-60" d="M118.77,175.71A13.75,13.75,0,1,1,105,162,13.74,13.74,0,0,1,118.77,175.71Z" transform="translate(12.63 -1.44)"/><path class="cls-43" d="M117.91,176.56A12.89,12.89,0,1,1,105,163.68,12.89,12.89,0,0,1,117.91,176.56Z" transform="translate(12.63 -1.44)"/><path d="M134.63,166.81a4.85,4.85,0,1,1-4.85-4.85A4.85,4.85,0,0,1,134.63,166.81Z" transform="translate(12.63 -1.44)"/><path d="M131.41,178.51a2.56,2.56,0,1,1-2.56-2.56A2.56,2.56,0,0,1,131.41,178.51Z" transform="translate(12.63 -1.44)"/></g></g></g></svg>