<svg id="Layer_26" data-name="Layer 26" xmlns="http://www.w3.org/2000/svg" viewBox="0 0 2050.55 2049.88"><defs><style>.cls-1{fill:#1d1d1b;opacity:0;}.cls-2{fill:#a2b3bd;}.cls-3{fill:#d8eefc;}.cls-4{fill:#fff2cf;}.cls-5{fill:#fdc00f;}</style></defs><rect class="cls-1" width="1019.23" height="2049.88" rx="12"/><rect class="cls-1" x="1031.32" width="1019.23" height="2049.88" rx="12"/><path class="cls-2" d="M1389.57,1200.85c0,102.71-187.34,186-418.42,186s-418.4-83.3-418.4-186,187.33-186,418.4-186S1389.57,1098.11,1389.57,1200.85Z" transform="translate(61.01 571.24)"/><path class="cls-3" d="M971.15,1386.86c-231.07,0-418.4-83.3-418.4-186v73.23c0,102.71,187.33,186,418.4,186s418.42-83.3,418.42-186v-73.23C1389.57,1303.56,1202.23,1386.86,971.15,1386.86Z" transform="translate(61.01 571.24)"/><path class="cls-2" d="M1086.67,934.07c-.63,28.11-52,50.86-115.52,50.86S856.31,962.18,855.64,934.1l-35.92,61h0c0,37.16,67.8,67.31,151.44,67.31s151.46-30.15,151.46-67.31Z" transform="translate(61.01 571.24)"/><path class="cls-3" d="M971.15,1062.4c-83.6,0-151.35-30.12-151.43-67.25v138.34s0,0,0,.06c0,37.15,67.8,67.3,151.44,67.3s151.46-30.15,151.46-67.3V995.09C1122.61,1032.25,1054.81,1062.4,971.15,1062.4Z" transform="translate(61.01 571.24)"/><path class="cls-3" d="M1086.37,883.45C1007.3,845.45,929.22,795,856,731.89V933.56h-.44c0,28.34,51.78,51.37,115.63,51.37s115.62-23,115.62-51.37h-.4Z" transform="translate(61.01 571.24)"/><path class="cls-4" d="M1734,845.75c-148,148-517,18.91-824.18-288.3S473.57-118.74,621.55-266.73s517-18.91,824.18,288.31S1882,697.77,1734,845.75Z" transform="translate(61.01 571.24)"/><path class="cls-5" d="M909.84,557.45C602.63,250.27,473.57-118.74,621.55-266.73,409.26-54.41,486.13,366.75,793.35,674S1521.73,1058.07,1734,845.75C1586,993.74,1217.05,864.66,909.84,557.45Z" transform="translate(61.01 571.24)"/><path class="cls-5" d="M1497.21-184.51a109.31,109.31,0,0,1,154.61,0,109.29,109.29,0,0,1,0,154.59,109.31,109.31,0,0,1-154.61,0A109.31,109.31,0,0,1,1497.21-184.51Z" transform="translate(61.01 571.24)"/><path class="cls-2" d="M1471.61-143,864-172.34c-11.09-24.08-27.44-39.17-41.08-35.5-17.31,4.66-23.56,37.61-13.94,73.55s31.53,61.39,48.84,56.76c10.22-2.74,16.45-15.42,18-32.62L1468.62-81.5A109.34,109.34,0,0,1,1471.61-143Z" transform="translate(61.01 571.24)"/><path class="cls-2" d="M1639.66,603.29,1610.31-4.31a109.05,109.05,0,0,1-61.5,3l28.63,592.81c-17.21,1.53-29.9,7.75-32.61,18-4.66,17.32,20.74,39.2,56.75,48.85s68.9,3.37,73.54-13.95C1678.79,630.74,1663.71,614.38,1639.66,603.29Z" transform="translate(61.01 571.24)"/><path class="cls-2" d="M1522.48-11.64a108.26,108.26,0,0,1-25.27-18.28A108.19,108.19,0,0,1,1479-55.14l-482,482c-19.15-11.54-37.38-14.49-46.26-5.59-12.7,12.69-1.64,44.31,24.71,70.67s58,37.39,70.68,24.71c8.89-8.9,5.92-27.12-5.6-46.26Z" transform="translate(61.01 571.24)"/></svg>