<svg id="Layer_2" data-name="Layer 2" xmlns="http://www.w3.org/2000/svg" viewBox="0 0 1547.11 570.44"><defs><style>.cls-1{fill:#371a45;}.cls-2{fill:#ffb200;}.cls-3{fill:#fff;}</style></defs><path class="cls-1" d="M-525.24-2161.06c-60.12,0-102.24-41.58-109.93-108.52v-.15c-4.54-44-4.91-104.86-5.23-158.56-.07-11.92-.14-23.18-.25-33.88-.37-34.31,15.15-71.53,40.5-97.15,20.86-21.08,46.63-32.7,72.57-32.7h138.28c29.76,0,58.28,14,80.28,39.42,20.58,23.77,32.53,54.58,32.79,84.53.45,52-.37,132.24-4.14,187.54-.25,3.47-.49,6.8-.74,10a110.15,110.15,0,0,1-110,109.47Zm-8.21-196a16.56,16.56,0,0,0-14.53,8.6,16.43,16.43,0,0,0-1.38,12.58,16.43,16.43,0,0,0,7.93,9.86l151.63,83.1a16.93,16.93,0,0,0,3.85,1.54,16.91,16.91,0,0,0,4.06.5,16.57,16.57,0,0,0,14.53-8.58,17,17,0,0,0,1.28-3,16.58,16.58,0,0,0-7.84-19.45L-525.53-2355A16.36,16.36,0,0,0-533.45-2357Z" transform="translate(640.67 2730.34)"/><path class="cls-2" d="M-289.24-2468c-.47-54.93-45.14-111.06-100.07-111.06H-527.59c-55.6,0-100.66,61.1-100.07,116.71.61,58.88-.06,138.21,5.41,191.24,6.87,59.82,43.44,97,97,97h134.1a97,97,0,0,0,97-97c.27-3.31.52-6.76.77-10.35C-289.86-2332.52-288.74-2410.3-289.24-2468ZM-356-2243.17a29.53,29.53,0,0,1-25.93,15.34,29.82,29.82,0,0,1-7.36-.93,29.79,29.79,0,0,1-6.8-2.71l-151.62-83.1a29.52,29.52,0,0,1-11.71-40.09,29.54,29.54,0,0,1,40.1-11.71l151.61,83.1a29.54,29.54,0,0,1,14,34.69A29.59,29.59,0,0,1-356-2243.17Z" transform="translate(640.67 2730.34)"/><path class="cls-1" d="M-241.91-2161.06a30.93,30.93,0,0,1-30.9-30.91v-344.71A55.4,55.4,0,0,1-217.47-2592a45.22,45.22,0,0,1,31.82,13.2l16.38,15.51.41.48a7.34,7.34,0,0,0,4.4,2.23l-.07-.21a24,24,0,0,1,2.88-21.19,24.76,24.76,0,0,1,19.48-10H-13.53c23.83.14,43.16,20,43.16,44.34V-2401a42.81,42.81,0,0,1-13.45,31.45,44.24,44.24,0,0,1-30.08,12h0A42.76,42.76,0,0,1-40.83-2367l-.25-.19-108.57-70.07-.38-.29a16.35,16.35,0,0,0-9.94-3.34,16.51,16.51,0,0,0-14.45,8.43c-4,7-1.72,16.64,5.25,21.89L-83.55-2346v154a30.94,30.94,0,0,1-30.91,30.91Z" transform="translate(640.67 2730.34)"/><path class="cls-3" d="M-13.53-2579H-142.17a11.74,11.74,0,0,0-8.82,4.46,11.23,11.23,0,0,0-1.15,9.8l1.78,5.59a8.19,8.19,0,0,1-3.81,9.82c-6.53,3.28-17.87,2.67-24.5-5l-16.06-15.21a31.94,31.94,0,0,0-22.74-9.5,42.34,42.34,0,0,0-42.34,42.34V-2192a17.9,17.9,0,0,0,17.9,17.91h127.45A17.91,17.91,0,0,0-96.55-2192v-147.56l-34.21-25.82L-177-2400.24c-12-9-16.17-25.72-8.7-38.74a29.55,29.55,0,0,1,43.49-9l78,50.33,30.74,19.84.75.6c19.9,15.89,49.35,1.72,49.35-23.75v-146.72C16.63-2564.53,3.32-2578.92-13.53-2579Z" transform="translate(640.67 2730.34)"/><path class="cls-1" d="M75.22-2161.06a50.71,50.71,0,0,1-50.65-50.66v-469.22c0-27.5,21.77-48.24,50.65-48.24h90.55c28.94,0,51.62,21.19,51.62,48.24v110.16a61.39,61.39,0,0,1-29.63,52.34l-72.65,43.59a18.43,18.43,0,0,0-7.85,9.54,16,16,0,0,0,1,13.4,16.63,16.63,0,0,0,12.33,8.23c12.39-6.1,69.31-40.74,108.07-64.82a97.32,97.32,0,0,1,52.53-15.58,99.53,99.53,0,0,1,68,27.39,96.54,96.54,0,0,1,30,70.53v214.44a50.72,50.72,0,0,1-50.66,50.66Zm198.89-261a16.27,16.27,0,0,0-8.06,2.12l-145.29,81.4c-7.84,4.39-11.34,13.83-8,21.48a16.64,16.64,0,0,0,13.2,9.85c15.37-7,101.86-54,155.22-83.34l.42-.23c7.95-4.78,11.17-14.7,7.17-22.37A16.52,16.52,0,0,0,274.11-2422Z" transform="translate(640.67 2730.34)"/><path class="cls-3" d="M235.59-2497.51s-107.76,67-112.93,67A29.53,29.53,0,0,1,97-2445.48,29,29,0,0,1,95-2469.7a31.4,31.4,0,0,1,13.39-16.3l72.65-43.59a48,48,0,0,0,23.32-41.19v-110.16c0-20.79-17.83-35.24-38.62-35.24H75.22c-20.79,0-37.65,14.45-37.65,35.24v469.22a37.66,37.66,0,0,0,37.65,37.66H328.51a37.66,37.66,0,0,0,37.66-37.66v-214.44C366.17-2493.21,292-2533.73,235.59-2497.51Zm51.91,118.37h0s-154.6,85.07-159.49,85.07a29.53,29.53,0,0,1-27.1-17.73c-6.19-14.06.1-30.55,13.51-38.06l145.29-81.41a29.54,29.54,0,0,1,40.64,12.13C307.82-2404.81,301.6-2387,287.5-2379.14Z" transform="translate(640.67 2730.34)"/><path class="cls-1" d="M435.47-2161.06a50.71,50.71,0,0,1-50.63-47.9c-4.95-90.09-6.62-189.07-4.95-294.19a50.49,50.49,0,0,1,50.21-49.49h46a50.48,50.48,0,0,1,50.21,49.5l.2,13.2h0c1.25,97.06-.7,191.53-5.78,281a50.77,50.77,0,0,1-50.63,47.89ZM433-2562.76a50.11,50.11,0,0,1-33.74-13,50.1,50.1,0,0,1-16.44-38.92c.78-22.33,1.59-42.65,2.48-62.13a50.63,50.63,0,0,1,50.64-48.43h34a50.71,50.71,0,0,1,50.62,48.12c1,20,1.94,40.29,2.78,62.2,0,.31,0,.62,0,.93A49.82,49.82,0,0,1,509-2577.89a49.83,49.83,0,0,1-35.93,15.13Z" transform="translate(640.67 2730.34)"/><path class="cls-3" d="M510.3-2614.38q-1.19-30.93-2.77-62.08a37.72,37.72,0,0,0-37.64-35.79h-34a37.71,37.71,0,0,0-37.65,36q-1.42,31.18-2.48,62A37.09,37.09,0,0,0,408-2585.4a37.08,37.08,0,0,0,25,9.64h40.15a37.2,37.2,0,0,0,37.2-38.08C510.31-2614,510.31-2614.2,510.3-2614.38Zm3,111.44h0a37.24,37.24,0,0,0-37.21-36.7h-46a37.25,37.25,0,0,0-37.21,36.69c-1.6,101.08-.24,199.12,4.93,293.27a37.7,37.7,0,0,0,37.65,35.62h34.64a37.73,37.73,0,0,0,37.65-35.63Q515.94-2353.42,513.34-2502.94Z" transform="translate(640.67 2730.34)"/><path class="cls-1" d="M605.75-2159.9a49.55,49.55,0,0,1-49.5-49.5V-2476c0-9.37-4-16-12.57-20.78a47.26,47.26,0,0,0-15.74-5.22l-11.68-1.19.07-11.74v-51.29a27.22,27.22,0,0,1,27.19-27.19h12.73v-91.87a45.08,45.08,0,0,1,45-45H738.67a45.08,45.08,0,0,1,45,45v91.87h12.1a26.89,26.89,0,0,1,26.85,26.85v37.79a26.88,26.88,0,0,1-26.85,26.85H783.58v124.68c0,23.32-14.05,46.35-34.15,56v0c-2.94,1.42-16.62,7.9-86.93,41.23-8.47,4.26-12.38,14.2-8.71,22.2a16.63,16.63,0,0,0,15.06,9.66,16.4,16.4,0,0,0,7.32-1.72l160.45-77.68a48,48,0,0,1,21.43-5,48.48,48.48,0,0,1,48.4,48.44v75.92a48.45,48.45,0,0,1-48.39,48.4Z" transform="translate(640.67 2730.34)"/><path class="cls-3" d="M842.33-2315.93l-160.39,77.64a29.53,29.53,0,0,1-40-14.16c-6.74-14.7.36-32.13,14.84-39.31l87-41.25c16-7.69,26.77-26.47,26.77-44.26V-2512c0-1.38,0-2.38,0-2.91H795.8a13.85,13.85,0,0,0,13.85-13.85v-37.79a13.85,13.85,0,0,0-13.85-13.85H770.7v-104.87a32,32,0,0,0-32-32H601.28a32,32,0,0,0-32,32v104.87H543.52a14.19,14.19,0,0,0-14.19,14.19V-2515s39.92,4.07,39.92,38.93v266.63a36.5,36.5,0,0,0,36.5,36.5h252.3a35.4,35.4,0,0,0,35.39-35.4v-75.92A35.39,35.39,0,0,0,842.33-2315.93Z" transform="translate(640.67 2730.34)"/></svg>