<svg id="Layer_3" data-name="Layer 3" xmlns="http://www.w3.org/2000/svg" xmlns:xlink="http://www.w3.org/1999/xlink" viewBox="0 0 2346.63 2346.58"><defs><style>.cls-1{fill:#196ea5;}.cls-2{fill:#27aae1;}.cls-3{fill:#5fb2e0;}.cls-4{fill:#a4dbf4;}.cls-5{fill:#0e577f;}.cls-6{fill:#212a3c;opacity:0.2;}.cls-7,.cls-8{opacity:0.3;}.cls-7{fill:url(#linear-gradient);}.cls-8{fill:#fff;}</style><linearGradient id="linear-gradient" x1="525.03" y1="86.69" x2="1041.9" y2="1037.79" gradientTransform="matrix(0.82, -0.13, 0.15, 0.84, 21.2, 247.38)" gradientUnits="userSpaceOnUse"><stop offset="0" stop-color="#fff"/><stop offset="1" stop-color="#fff" stop-opacity="0"/></linearGradient></defs><path class="cls-1" d="M2192.48,1094.09c-9.37,647.89-542.19,1165.56-1190.14,1156.2S-163.24,1708.09-153.9,1060.19,388.3-105.42,1036.23-96,2201.83,446.15,2192.48,1094.09Z" transform="translate(154.02 96.17)"/><path class="cls-2" d="M2189.32,992.8c-88.69,2.45-177,1.66-263.89-20.85-147.25-38.17-279.56-119.43-428-154.2C1296.63,770.67,1082.7,763.82,878,783.66c-202.43,19.63-391,106.75-592.91,129-141.33,15.56-284.7,8-427.42,1.41a1189.62,1189.62,0,0,0-11.53,146.14c-.34,25.16.35,50.11,1.58,74.91l185.68,2.7C342.43,1142.24,640.88,1250,947,1283.48c210,23,422,7.27,631.84-11.5,90.25-8.08,166.51-63.44,256-72,76.27-7.24,153-8.33,229.63-10.06,9-.21,60.86.2,122.35,0,3.05-31.64,5.19-63.57,5.65-95.89C2193,1059.94,2191.69,1026.25,2189.32,992.8Z" transform="translate(154.02 96.17)"/><path class="cls-2" d="M2104.87,1522.21c-52,9.62-125.4,24.76-156.35,38.4-50.24,22.11-219.16,48.25-269.31,64.65s-124.9,3.91-124.9,3.91l-380.65-5.5c-18.72-.28-224.15-37.54-273.65-66.79s-174.24-36.79-174.24-36.79l-404.81-63-396.85,41A1172.41,1172.41,0,0,0,92.83,1796.64c120.07,2.93,238,20.47,304.07,21.41,68.63,1,218.15,20.31,292.8,38.5s137.18,7.72,168.38,8.17,312.19-6.94,568.21-14.64,149.77,2.15,199.86-8.53,131,1.88,193.44,2.78c47.1.68,65.77,1,88.23-1.2A1172.23,1172.23,0,0,0,2104.87,1522.21Z" transform="translate(154.02 96.17)"/><path class="cls-2" d="M7.6,483.14c183.93-49.68,483.26-101.66,771-25.06,460.08,122.45,591.56,93.86,754.34,59.64s262.71-38.87,300.17-38.3l197.66,2.85a1177.74,1177.74,0,0,0-196-248.29c-24.85-2.93-48.69-5.17-66.73-5.43-56.17-.82-155.89-8.35-249.44-15.81s-280.38-34.52-311.57-35-31.09-6.58-155.82-14.48S721.1,115.9,633.82,108.53C549.45,101.42,488.27,83.4,399.73,81A1178.89,1178.89,0,0,0,7.6,483.14Z" transform="translate(154.02 96.17)"/><path class="cls-3" d="M1622.06,1045.27c-1.32,93-205,165.57-454.86,161.94s-451.32-82-450-175,205-165.58,454.84-162S1623.42,952.2,1622.06,1045.27Z" transform="translate(154.02 96.17)"/><path class="cls-4" d="M1422.36,1042.38c-.73,52-114.48,92.47-254.08,90.47S916.16,1087,916.93,1035.06s114.48-92.47,254.08-90.45S1423.12,990.42,1422.36,1042.38Z" transform="translate(154.02 96.17)"/><path class="cls-3" d="M1519.37,372.57c-2,56.44-126.56,97.72-278.12,92.22S968.48,409.06,970.53,352.62s126.58-97.74,278.14-92.22S1521.42,316.11,1519.37,372.57Z" transform="translate(154.02 96.17)"/><path class="cls-4" d="M1398.26,368.16c-1.14,31.54-70.69,54.6-155.37,51.52S1090.52,388.54,1091.66,357s70.67-54.6,155.37-51.52S1399.4,336.62,1398.26,368.16Z" transform="translate(154.02 96.17)"/><path class="cls-4" d="M578.94,274.45c-.88,24.5-54.93,42.41-120.72,40S339.89,290.27,340.77,265.8s54.92-42.42,120.72-40S579.83,250,578.94,274.45Z" transform="translate(154.02 96.17)"/><path class="cls-3" d="M426.71,1051.38c-.41,28.44-102.72,50-228.5,48.19s-227.46-26.32-227-54.77,102.74-50,228.54-48.17S427.15,1023,426.71,1051.38Z" transform="translate(154.02 96.17)"/><path class="cls-3" d="M1839.15,1733.4c-.36,25.23-91.11,44.37-202.66,42.74s-201.77-23.32-201.39-48.57,91.11-44.36,202.68-42.74S1839.52,1708.18,1839.15,1733.4Z" transform="translate(154.02 96.17)"/><path class="cls-4" d="M856.91,1676.12c-1,35.15-127.81,60.15-283.26,55.86s-280.75-36.3-279.79-71.43,127.84-60.14,283.3-55.85S857.87,1641,856.91,1676.12Z" transform="translate(154.02 96.17)"/><path class="cls-5" d="M2158,1359.29c-6.18,25.06-13,49.86-20.77,74.24-32.4-.76-64.84-.76-97.19.93-73.32,3.86-141.8,26.44-214,36.87-99.69,14.5-210.78,28.1-311.53,28.07-69.36,0-138.34-9.21-207.32-15.61-58.18-5.36-121.18,1.66-178.17-11.86a3369.76,3369.76,0,0,0-344.36-62.58c-141.08-17.93-284.75-47.2-426.22-57.72-96.61-7.14-198.46-13.78-295.1-14-57.68-.16-114.79,1-172.35,2-5,.06-10.16.16-15.24.25-3.12-13.6-6.23-27.22-8.85-41,98.73.16,200.73,12.12,296.44,18.35,194.39,12.67,388.49,30.38,583.26,35.68,101.42,2.75,196.47,29.95,296.28,44.12,70.19,10,134.65,20,205.25,16.51,110.86-5.4,221.76,1.06,332.59,3.78,101.91,2.52,202-8.28,303.51-9.52C1977,1406.66,2068.07,1382.06,2158,1359.29ZM233.84,685.15c80.35-11.09,150.83-23.45,232.93-21.89Q691,667.54,915,673.3c231.79,6,463.62-17.86,693.82,20.54,79.19,13.22,155.3,42,236,48.31,93,7.25,199.63-16.8,290.26,4.7a103.26,103.26,0,0,0,10.83,1.72c-8.84-30.38-19.13-60.15-30.31-89.47-255.81,3.57-514.32-12.77-767.79-39.36C1213.27,605.65,1078,586.4,943,578.4c-273.78-16.16-547.93-7.64-822-10.82q-78.56-.9-157.09-3.28a1163.09,1163.09,0,0,0-68.65,176.57C8.25,726.69,121.51,700.67,233.84,685.15ZM663.56-40.91l184,42S975.47,6.07,988,6.23s202.55,21.67,221.22,25.05S1389.56,74.45,1402,74.65s112.2,11,134,11.3c18.24.25,95.12,5.73,125.37,9.41A1172.44,1172.44,0,0,0,663.56-40.91ZM1284.2,1967.24c-9.36-.11-103.1,7.89-115.64,10.81s-150.2,29-150.2,29-143.46-8.31-152.82-8.45-137.28-2-174.69-5.64-271.06-28.88-271.06-28.88l-171-2.47c201.9,176.08,464.68,284.45,753.54,288.63,284.75,4.1,547.2-93.6,752.84-259.39-.06-.76-.08-1.26-.08-1.26s-162-14.81-171.42-14.92-127.92-1.84-143.53-2.09S1293.55,1967.41,1284.2,1967.24Z" transform="translate(154.02 96.17)"/><path class="cls-6" d="M1974.63,396.17C1632,897.47,878.13,1852.2,119.89,1830.08c211.52,252.43,527.28,415.07,882.45,420.21,647.95,9.36,1180.77-508.31,1190.14-1156.2C2196.24,834.09,2115,592.72,1974.63,396.17Z" transform="translate(154.02 96.17)"/><path class="cls-6" d="M2190.4,1010.64C1827.94,1478.91,1132.21,2152.58,236,1950.22,439.5,2133,707.3,2246,1002.34,2250.29c647.95,9.36,1180.77-508.31,1190.14-1156.2C2192.88,1066,2192,1038.24,2190.4,1010.64Z" transform="translate(154.02 96.17)"/><path class="cls-7" d="M1463.2,176.69C1629.48,459.77,1440,879.81,1040,1114.88S180.76,1311,14.44,1028,37.59,324.86,437.63,89.79,1296.83-106.38,1463.2,176.69Z" transform="translate(154.02 96.17)"/><path class="cls-8" d="M1095.59,140c99.33,169.06-31.41,430.26-292,583.39S251.14,863.61,151.82,694.55s31.35-430.26,292-583.42S996.23-29.1,1095.59,140Z" transform="translate(154.02 96.17)"/></svg>