<svg id="Layer_11" data-name="Layer 11" xmlns="http://www.w3.org/2000/svg" xmlns:xlink="http://www.w3.org/1999/xlink" viewBox="0 0 1140.08 1140.08"><defs><style>.cls-1{fill:#f7941e;}.cls-2{fill:#f15a29;}.cls-3{fill:#ea3232;}.cls-4{fill:#212a3c;opacity:0.2;}.cls-5,.cls-6{opacity:0.3;}.cls-5{fill:url(#linear-gradient);}.cls-6{fill:#fff;}</style><linearGradient id="linear-gradient" x1="804.45" y1="562.02" x2="1066.89" y2="1044.94" gradientTransform="matrix(0.82, -0.13, 0.15, 0.84, 21.2, 247.38)" gradientUnits="userSpaceOnUse"><stop offset="0" stop-color="#fff"/><stop offset="1" stop-color="#fff" stop-opacity="0"/></linearGradient></defs><path class="cls-1" d="M1600.08,989.08c0,314.82-255.22,570-570,570s-570-255.22-570-570,255.22-570,570-570S1600.08,674.27,1600.08,989.08Z" transform="translate(-460 -419.04)"/><path class="cls-2" d="M1266.51,778c-46.45-21.12-54.89-38-105.56-33.78-80.24,4.23-147.8,59.11-232.24,50.66C840,786.4,772.48,748.4,679.59,769.5c-59.13,16.9-63.34,16.9-126.69,8.45-15.15-2.16-32.24-3.78-50.42-4.85a567.89,567.89,0,0,0-42.48,216c0,314.82,255.22,570,570,570s570-255.22,570-570a568.93,568.93,0,0,0-35.1-197.3C1474.23,836,1365.84,827.61,1266.51,778Z" transform="translate(-460 -419.04)"/><path class="cls-3" d="M1101.83,1179.09c-59.11,33.78-118.23,25.34-185.8,38-139.34,25.34-190-84.46-312.45-105.57-46.45-8.44-80.23-8.44-126.68-25.34-2.93-.72-5.93-1.57-8.92-2.42C513.1,1353.5,747.5,1559.12,1030,1559.12c314.82,0,570-255.22,570-570,0-2.58-.16-5.11-.19-7.7-92.84,22.45-198,80.5-270.05,113.27C1249.62,1132.64,1182.05,1136.87,1101.83,1179.09Z" transform="translate(-460 -419.04)"/><path class="cls-2" d="M642.64,571.06q17.08-15.84,35.48-30.23c14.41.3,31,.68,31,.68H763c4.23,0,136.18-2.12,136.18-2.12s25.33-3.17,29.57-3.17c3.1,0,36.46,1.15,53.91,1.76l10.48.35a288.1,288.1,0,0,0-33.78,4.22c-15.84,3.16-34.85,7.39-40.12,8.45s-13.72,0-23.22,1-24.27,3.17-35.89,6.34-28.5,2.11-38,4.22S802,565.77,782,566.82s-59.11,4.24-70.72,4.24H642.64Z" transform="translate(-460 -419.04)"/><path class="cls-2" d="M1362.56,1432.44c-31.19-.8-101.89-9.51-166.36-9.51s-139.34,6.34-139.34,6.34,64.47,9.5,94.63,9.5H1216c14.55,0,35.35,5.54,56.14,6.33s69.67-.79,69.67-.79,14.47-.85,34-2.07c5-3.84,10-7.73,14.93-11.73A197.93,197.93,0,0,1,1362.56,1432.44Z" transform="translate(-460 -419.04)"/><path class="cls-2" d="M1397.06,701.45c-5.37.51-24.72,2.78-40.79,4.31a285,285,0,0,1-34,.79l10.4,1.4c17.3,2.39,50.36,6.91,53.46,7.22,4.21.43,29.73-.15,29.73-.15s83.5,7.16,119.52,10.28c-4.65-8.89-9.51-17.68-14.61-26.3-11.29-.3-18.88-.1-25.89.73-9.68,1.13-26.35-1.62-38.25.35s-26.78,2.57-36.34,2.66S1402.39,700.92,1397.06,701.45Z" transform="translate(-460 -419.04)"/><path class="cls-2" d="M852.44,631.49s49.09,9.5,72,9.5h49.09c11.09,0,26.91,5.54,42.75,6.32s53-.78,53-.78,72-5.54,96.59-8.71,39.59-1.58,60.16-3.17,23.76-.78,45.13-.78,28.51,3.16,47.51,3.16,23,.79,43.54.79,26.13-2.38,32.46-2.38,14.26,0,20.59-1.57-11.88-5.55-11.88-5.55h-25.33a87.78,87.78,0,0,1-12.67-.79c-6.33-.8-19-.8-19-.8s-84.72-6.33-87.09-6.33h-94.22c-9.49,0-56.2,15-80,14.25s-77.59-9.49-126.67-9.49S852.44,631.49,852.44,631.49Z" transform="translate(-460 -419.04)"/><path class="cls-1" d="M1595.45,916.82c-18.17-1.53-45.37-3.81-46.5-3.79-1.7.08-60.66,2.19-67.47,2.42s-39.63,18.95-56.68,18.62-56-9.08-91.11-7.82-75.7,10.07-75.7,10.07,35.54,9.8,52,9.22,27.24-1,35.15-1.25,19.51,5.76,30.9,6.29,38-2.28,38-2.28,51.35-8.31,68.8-12.59,28.28-2.87,43-5.24,17-1.52,32.26-2.06,20.56,3,34.17,2.47c1.78-.07,3.38-.09,4.85-.12Q1596.32,923.76,1595.45,916.82Z" transform="translate(-460 -419.04)"/><path class="cls-1" d="M600.66,908.59s49.09,9.5,72.06,9.5H721.8c11.08,0,26.92,5.55,42.76,6.33s53-.78,53-.78,72-5.55,96.59-8.72,39.59-1.58,60.17-3.16,23.75-.8,45.13-.8,28.49,3.17,47.5,3.17,23,.79,43.55.79,26.12-2.37,32.46-2.37,14.25,0,20.58-1.59-11.88-5.54-11.88-5.54h-25.33a87.52,87.52,0,0,1-12.66-.79c-6.35-.8-19-.8-19-.8s-84.72-6.32-87.1-6.32H913.4c-9.51,0-56.21,15-80,14.25s-77.59-9.51-126.68-9.51S600.66,908.59,600.66,908.59Z" transform="translate(-460 -419.04)"/><path class="cls-1" d="M1075.4,1094.65c13.16,0,17.54,3.16,29.23,3.16s14.15.79,26.82.79,16.07-2.38,20-2.38,8.77,0,12.68-1.57-7.31-5.55-7.31-5.55h-15.6a33.1,33.1,0,0,1-7.79-.8c-3.9-.78-11.7-.78-11.7-.78s-52.15-6.34-53.61-6.34h-58c-5.85,0-34.6,15-49.21,14.25s-47.78-9.49-78-9.49-65.3,6.32-65.3,6.32,30.21,9.52,44.34,9.52h30.22c6.82,0,16.58,5.52,26.33,6.32s32.63-.8,32.63-.8,44.35-5.52,59.46-8.7,24.37-1.58,37-3.17S1062.24,1094.65,1075.4,1094.65Z" transform="translate(-460 -419.04)"/><path class="cls-2" d="M1144.4,1320.55c27-1.59,31.19-.8,59.27-.8s37.43,3.17,62.39,3.17,30.14.79,57.17.79,34.33-2.38,42.65-2.38,18.71,0,27-1.58-15.58-5.54-15.58-5.54H1344a150.6,150.6,0,0,1-16.63-.79c-8.34-.8-25-.8-25-.8s-111.24-6.33-114.38-6.33H1064.34c-12.49,0-73.83,15-105,14.26S857.4,1311,792.93,1311s-139.32,6.33-139.32,6.33,64.47,9.51,94.62,9.51H812.7c14.55,0,35.34,5.54,56.14,6.32s69.67-.78,69.67-.78,94.62-5.54,126.86-8.71S1117.36,1322.13,1144.4,1320.55Z" transform="translate(-460 -419.04)"/><path class="cls-2" d="M1545.15,1173.59c-20,2.06-30.46,3.65-39.85,6.25s-26.29,2.4-37.75,6.15-26.07,6.62-35.51,8.14-17.91.94-23.12,2.26-24,6.51-39.65,10.47a285.21,285.21,0,0,1-33.52,5.94l10.48-.18c17.45-.28,50.84-.83,53.94-1,4.22-.23,29.36-4.69,29.36-4.69s105.92-7.09,130.77-8.73q5.37-13.6,10.07-27.55C1561,1171.79,1552,1172.87,1545.15,1173.59Z" transform="translate(-460 -419.04)"/><path class="cls-2" d="M790.77,1450.17c9.54-.54,17.91,1,23.23.21s24.54-3.93,40.53-6.22a286,286,0,0,1,34-2.35l-10.45-.92c-17.37-1.58-50.62-4.57-53.71-4.73-4.24-.24-29.7,1.53-29.7,1.53s-87.42-3.41-122.17-4.82q16.21,13.1,33.42,25c3.83-.29,7.26-.71,10.52-1.25,9.6-1.59,26.41.42,38.18-2.1S781.21,1450.7,790.77,1450.17Z" transform="translate(-460 -419.04)"/><path class="cls-4" d="M1494.18,658.36c-173.39,250.13-529.58,691.38-892.94,706.1C705.71,1483.71,859,1559.12,1030,1559.12c314.82,0,570-255.22,570-570A567.3,567.3,0,0,0,1494.18,658.36Z" transform="translate(-460 -419.04)"/><path class="cls-4" d="M1599.62,971.11C1419,1198,1092.14,1502.37,674.16,1434.23A567.53,567.53,0,0,0,1030,1559.12c314.82,0,570-255.22,570-570C1600.08,983.06,1599.81,977.1,1599.62,971.11Z" transform="translate(-460 -419.04)"/><path class="cls-5" d="M1273.53,575.23c84.45,143.74-11.74,357-214.89,476.35s-436.26,99.59-520.71-44.13,11.76-357,214.88-476.36S1189.06,431.49,1273.53,575.23Z" transform="translate(-460 -419.04)"/><path class="cls-6" d="M1086.89,556.59c50.43,85.85-16,218.47-148.3,296.23S658.11,924,607.69,838.16,623.6,619.7,756,541.94,1036.44,470.73,1086.89,556.59Z" transform="translate(-460 -419.04)"/></svg>