<svg id="Layer_7" data-name="Layer 7" xmlns="http://www.w3.org/2000/svg" xmlns:xlink="http://www.w3.org/1999/xlink" viewBox="0 0 2043.76 1241.32"><defs><style>.cls-1{fill:#ffc585;}.cls-2{fill:#f7941e;}.cls-3{fill:#fbb040;}.cls-4{fill:#e05b41;}.cls-5{fill:#f15a29;}.cls-6{fill:#212a3c;opacity:0.2;}.cls-7,.cls-8{opacity:0.3;}.cls-7{fill:url(#linear-gradient);}.cls-8{fill:#fff;}</style><linearGradient id="linear-gradient" x1="708.54" y1="558.98" x2="976.42" y2="1051.9" gradientTransform="matrix(0.82, -0.14, 0.16, 0.84, 11.99, 264.57)" gradientUnits="userSpaceOnUse"><stop offset="0" stop-color="#fff"/><stop offset="1" stop-color="#fff" stop-opacity="0"/></linearGradient></defs><path class="cls-1" d="M960.08,894.35c-564.19,70-1010.22,239.4-996.23,378.29s482.72,194.62,1046.89,124.56S2021,1157.79,2007,1018.94,1524.26,824.33,960.08,894.35Zm35,438.17c-345.54,42.9-719.26,24.3-731.23-94.63s348.79-228.67,694.32-271.61,719.22-24.29,731.21,94.66S1340.61,1289.64,995.09,1332.52Z" transform="translate(36.47 -433.09)"/><path class="cls-2" d="M1599.33,1053.75c0,342.78-277.87,620.66-620.67,620.66S358,1396.53,358,1053.75,635.89,433.09,978.66,433.09,1599.33,711,1599.33,1053.75Z" transform="translate(36.47 -433.09)"/><path class="cls-3" d="M1257.19,729.45c-29.83-8.23-60.69-11.47-91.09-16.75-68.57-12-138.13-27-208.12-25.11-33.65.93-195.17,12.1-170.86,78.55,7.92,21.64,39.3,28.94,58.25,36.08,48.35,18.19,101,26.56,152.45,19.2,33.85-4.85,65.82-20,100.25-21.33,39.84-1.56,79.7-2.14,119.56-2.49,8.51-.07,40.11,2.18,67.73,0,25.83-2.09,48.17-8.06,44.87-23.51C1324.74,748.46,1278.25,735.25,1257.19,729.45Z" transform="translate(36.47 -433.09)"/><path class="cls-4" d="M1482.37,691.31C1369.66,535,1186.12,433.09,978.66,433.09c-180.08,0-342.18,76.77-455.54,199.28,136.49-5.08,274-6.46,407.33-37.46,36.33-8.46,72.79-19.66,110.69-18.48,86.39,2.68,165.24,41,244,71C1338.73,667.91,1416.6,697.17,1482.37,691.31Z" transform="translate(36.47 -433.09)"/><path class="cls-4" d="M1442,1162.42c-23.16-2.45-48.24-9-71.47-3.81-16.1,3.55-46.51,21.83-23.35,39.23,6.19,4.65,23.46,5.6,31,7.08,50,9.65,102.3,17.51,152.92,23.48,14,1.65,28.09,2.62,42.15,3.22a619.34,619.34,0,0,0,16.67-71.11C1540.85,1166,1491.3,1167.64,1442,1162.42Z" transform="translate(36.47 -433.09)"/><path class="cls-4" d="M1466.79,1309.12c-24.72-.62-267.08-43.43-275.09-12.94-6.72,25.89-26.84,87.28-33.54,103.45s-67.11,35.56-67.11,35.56-33.55-3.23-80.51,6.47c-153.51,31.71-298.71-201-442.8-97-26.88,19.42-90.6,13-117.42,22.65a61.73,61.73,0,0,1-6.16,1.84c108,182.67,306.91,305.26,534.5,305.26,248.89,0,463.41-146.53,562.35-358A516,516,0,0,0,1466.79,1309.12Z" transform="translate(36.47 -433.09)"/><path class="cls-3" d="M847.81,1183.77c-35.42-.79-72.9-10.22-107.93-1.64-20.65,5.06-55.22,22.89-24.79,42.59,18.79,12.18,46.44,5.82,67.6,10.11,26.68,5.42,51.88,16.48,76.58,27.64,53.91,24.37,102.83,46.14,163.89,30.87,40.63-10.16,77.59-18.29,104.06-53.9,14.68-19.78,20.86-52.48,42.18-66.73-29-16.79-65.9-4.41-96.23,1.87C999.52,1189.81,922.5,1185.45,847.81,1183.77Z" transform="translate(36.47 -433.09)"/><path class="cls-5" d="M529.19,803.35c23.26-1.17,49,1.33,71.2-7.36,15.34-6,42.53-28.82,16.93-42.4-6.83-3.62-24-1.87-31.74-2.13-49.11-1.7-100-1.36-149.22.45a615.33,615.33,0,0,0-33.95,71.35C444,812.84,486.29,805.55,529.19,803.35Z" transform="translate(36.47 -433.09)"/><path class="cls-5" d="M393.28,1024.66c43.6,9.69,47,3.24,104,19.4s144.27,16.16,157.68,19.39,40.26,3.23,50.32,3.23h322c13.41,0,100.65-6.47,127.47-9.7s93.94-6.48,93.94-6.48,6.71,0,77.16-9.69,147.61-22.61,177.79-6.46c16.75,9,59.29,13,95.58,16.39a623.83,623.83,0,0,0-8.8-101.13l-157.22-41.33-157.67,12.93s-87.22,45.25-110.71,51.72-57,3.23-73.81,3.23-107.33-6.46-107.33-6.46-67.1-16.17-127.5-16.17-197.93-6.47-218,0S571.08,960,561,960H365.06q-4.53,29.89-6.17,60.67C367.75,1020.27,378,1021.26,393.28,1024.66Z" transform="translate(36.47 -433.09)"/><path class="cls-3" d="M788,869.89c0,15.41-34.91,27.88-78,27.88s-78-12.47-78-27.88S666.89,842,710,842,788,854.51,788,869.89Z" transform="translate(36.47 -433.09)"/><path class="cls-3" d="M1448.62,1094.15c0,9.81-22.25,17.77-49.7,17.77s-49.7-8-49.7-17.77,22.26-17.76,49.7-17.76S1448.62,1084.34,1448.62,1094.15Z" transform="translate(36.47 -433.09)"/><path class="cls-3" d="M561.28,1132.94c0,9.82-22.26,17.77-49.71,17.77s-49.7-8-49.7-17.77,22.25-17.76,49.7-17.76S561.28,1123.14,561.28,1132.94Z" transform="translate(36.47 -433.09)"/><path class="cls-3" d="M1502.94,836.36c0,8.47-19.22,15.33-42.91,15.33s-42.92-6.86-42.92-15.33S1436.32,821,1460,821,1502.94,827.88,1502.94,836.36Z" transform="translate(36.47 -433.09)"/><path class="cls-3" d="M1123.12,1363.26c0,8.47-19.23,15.34-42.92,15.34s-42.92-6.87-42.92-15.34,19.21-15.33,42.92-15.33S1123.12,1354.79,1123.12,1363.26Z" transform="translate(36.47 -433.09)"/><path class="cls-3" d="M623.68,679.57c0,8.48-19.23,15.35-42.92,15.35s-42.91-6.87-42.91-15.35,19.2-15.33,42.91-15.33S623.68,671.09,623.68,679.57Z" transform="translate(36.47 -433.09)"/><path class="cls-6" d="M498.22,1446.63C612,1585.65,785,1674.41,978.66,1674.41c342.8,0,620.67-277.88,620.67-620.66a617.71,617.71,0,0,0-125.67-374.34C1295.66,948.09,900.88,1462.76,498.22,1446.63Z" transform="translate(36.47 -433.09)"/><path class="cls-6" d="M552.66,1504.89c111.16,105,261,169.52,426,169.52,342.8,0,620.67-277.88,620.67-620.66,0-20-1-39.82-2.9-59.37C1408.4,1246.77,1038.57,1619.31,552.66,1504.89Z" transform="translate(36.47 -433.09)"/><path class="cls-7" d="M1200.43,584.55c88.32,145.47-6.73,364.58-212.3,489.4S544.31,1182,456,1036.58,462.72,672,668.29,547.2,1112.11,439.11,1200.43,584.55Z" transform="translate(36.47 -433.09)"/><path class="cls-8" d="M1009.65,568.29c52.76,86.89-13,223.22-147,304.54s-285.25,76.81-338-10.07,13-223.24,146.95-304.55S956.9,481.4,1009.65,568.29Z" transform="translate(36.47 -433.09)"/><path class="cls-1" d="M2007,1018.94c-7.89-78.35-160.6-130.24-393.52-148a872.26,872.26,0,0,1-1,116.59c45.69,18.08,73.79,42.28,76.93,73.41,12,118.93-348.78,228.7-694.3,271.58s-719.26,24.3-731.23-94.63c-2.8-27.84,15-55.16,48.1-81.26-12.6-36-15.78-78.22-14.87-117.73C85.87,1111.8-43.79,1196.77-36.15,1272.64c14,138.82,482.72,194.62,1046.89,124.56S2021,1157.79,2007,1018.94Z" transform="translate(36.47 -433.09)"/></svg>