<svg id="Layer_4" data-name="Layer 4" xmlns="http://www.w3.org/2000/svg" xmlns:xlink="http://www.w3.org/1999/xlink" viewBox="0 0 2012.45 1081.5"><defs><style>.cls-1{fill:#fff4e9;}.cls-2{fill:#db8231;}.cls-3{fill:#fed09e;}.cls-4{fill:#ffe1c5;}.cls-5{fill:#f9b673;}.cls-6{fill:#212a3c;opacity:0.2;}.cls-7{opacity:0.5;fill:url(#linear-gradient);}.cls-8{fill:#fff;opacity:0.4;}</style><linearGradient id="linear-gradient" x1="639.31" y1="584.92" x2="968.04" y2="990.87" gradientUnits="userSpaceOnUse"><stop offset="0" stop-color="#fff"/><stop offset="1" stop-color="#fff" stop-opacity="0"/></linearGradient></defs><path class="cls-1" d="M909.64,810.34c-555.54,69-994.74,235.74-981,372.5S404,1374.47,959.51,1305.49s994.76-235.74,981-372.46S1465.19,741.4,909.64,810.34ZM946.86,1269c-391.54,48.6-815,27.53-828.56-107.23S513.52,902.64,905,854s815-27.53,828.55,107.25S1338.37,1220.38,946.86,1269ZM916.34,876.87C510.08,927.3,188.89,1049.26,199,1149.28s347.6,140.13,753.84,89.69,727.47-172.4,717.39-272.38S1322.61,826.45,916.34,876.87Zm27.22,335.4c-286.33,35.54-596,20.13-605.92-78.42s289-189.48,575.33-225,596-20.14,605.9,78.43S1229.87,1176.73,943.56,1212.27Z" transform="translate(71.64 -485.61)"/><ellipse class="cls-2" cx="1452.64" cy="712.34" rx="11.7" ry="6.91"/><path class="cls-3" d="M1479.69,1026.37c0,298.64-242.1,540.75-540.77,540.75S398.17,1325,398.17,1026.37s242.1-540.76,540.75-540.76S1479.69,727.72,1479.69,1026.37Z" transform="translate(71.64 -485.61)"/><path class="cls-2" d="M856.43,1421.11c-54.25-13.62-104.13-6-157.3,7.94-39.83,10.43-84.8-12-127.94-6.36,96.5,89.58,225.68,144.43,367.73,144.43a538.1,538.1,0,0,0,284.55-80.94c-6.52-2-13.16-4-20.09-5.9-53-14.62-113-15.15-167.36-23.78C975.74,1446.93,915.64,1436,856.43,1421.11Z" transform="translate(71.64 -485.61)"/><path class="cls-2" d="M1277.21,1089.63c-25.71-8.84-49.82-21-76-28.8-31-9.22-66.64-6.8-98.63-8.29-67.78-3.15-127.77-24.3-193.56-36.14-50.06-9-100.57,1.83-148.91,14.55-32.15,8.45-63.28,16.68-96.67,18.51s-65-2.34-98.32,3.48c-54.95,9.58-109.17,19.08-164.31,26.67,1.69,17.29,4.24,34.34,7.52,51.11,7.43-.81,14.8-1.59,22-2.41,53.67-6,105.73-19.49,159.14-26.64,57.3-7.68,110.21-1.13,167.36-16,69.25-18,125.81-25.41,195.32-5.3,56.2,16.27,111,22.31,169.39,25,33.78,1.58,64.77,4,96.7,15.84,25.59,9.44,49.54,21,76.06,27.86,49.54,12.9,103.55-7.51,150.61-21.06,8.85-2.55,17.57-4.57,26.16-6.14a543,543,0,0,0,6.9-55C1410.15,1080.74,1346.47,1113.47,1277.21,1089.63Z" transform="translate(71.64 -485.61)"/><path class="cls-4" d="M1308.63,1244c-60.77-14.66-123.46-10.23-184.74-25.46-51.86-12.9-121.2-43.57-175.18-29.47-18.61,4.87-34.78,13.3-51.25,23-19.73,11.62-56.58-9.13-81.75-3-24.05,5.88-45.37,17.61-68.74,25.43-24,8-63.16-12.27-87-17-60.74-12-124,12.09-181.06,30.29q-14.52,4.64-29,9.36a540.42,540.42,0,0,0,53.95,90.19c46.94-17.42,98.44-35.49,143-26.71,50.18,9.88,90.68,26.54,142,9.39,27.48-9.19,41.54-22.28,71.28-11.9,24.73,8.63,57.51.28,79.92-11.18,22.16-11.35,28.36-17.86,54.07-13.37,28.82,5,57.15,13.29,85.41,20.79,62.68,16.66,122.82,18.06,186.23,26.92,31.92,4.47,62.51,14.23,92.39,26.66a541.47,541.47,0,0,0,56.85-84.79C1380.82,1267.11,1345.88,1253,1308.63,1244Z" transform="translate(71.64 -485.61)"/><path class="cls-5" d="M1075.85,587.55c51.86-3.34,104.52-12,156.9-15a540.21,540.21,0,0,0-563.67-14.68c47,7.15,94.16,10,132.9,14.46C872.47,580.42,987.27,593.25,1075.85,587.55Z" transform="translate(71.64 -485.61)"/><path class="cls-2" d="M473.45,751.19c48.74-11.6,99.43-17,148.24-21,48.37-4,91.15,4,138.81,10.23,55.66,7.26,109.69,5.31,165.25-1.76,23-2.92,45.89-6.52,68.78-10.11,33.38-5.23,53.94,4.05,84.92,15.21,46.39,16.72,98.16,18.91,147,19.92,52.6,1.07,103.17,8.56,155.45,13.14A161.86,161.86,0,0,0,1418,775.6a542.66,542.66,0,0,0-72.29-105.31c-39.67-3.83-79-10.33-119.32-10.63-54.11-.42-101.76-9-152.23-28.43-53.66-20.61-111.71-1.26-166.34,5.69-107,13.61-209.42-18.09-316.53-8.06q-10.53,1-21.1,2.13A543.26,543.26,0,0,0,473.45,751.19Z" transform="translate(71.64 -485.61)"/><path class="cls-4" d="M1202.84,861.37c-62.74-16.6-121.26-34.45-186.7-35.39-65.83-1-133.62.43-199.3,4.41-31.73,1.93-61.83,10.53-92.2,19.32-35.27,10.22-67.54,10.33-104.19,9.36-64.69-1.71-131.79,1.49-198.57,8.6q-4.08,13.33-7.48,27c69.24-7.78,139-11.35,206.05-9.59,54.92,1.46,93.54-5,146-20.47,66.59-19.59,144.63-9.32,213.43-11.89,123.57-4.61,233.95,51.54,356.81,51.92,44,.15,87.1-1.13,129.77,3.21q-3-13.29-6.58-26.33a497.68,497.68,0,0,0-49.91-3.42C1338.88,876.9,1272.48,879.79,1202.84,861.37Z" transform="translate(71.64 -485.61)"/><ellipse class="cls-2" cx="1416.24" cy="480.09" rx="31.2" ry="18.41"/><ellipse class="cls-2" cx="646.26" cy="457.56" rx="31.2" ry="18.41"/><ellipse class="cls-2" cx="1304" cy="709.74" rx="31.2" ry="18.41"/><ellipse class="cls-2" cx="932.23" cy="52" rx="31.2" ry="18.41"/><ellipse class="cls-2" cx="1073.27" cy="924.22" rx="18.85" ry="11.12"/><ellipse class="cls-2" cx="1062.88" cy="417.26" rx="18.85" ry="11.12"/><ellipse class="cls-2" cx="779.5" cy="673.34" rx="18.85" ry="11.12"/><ellipse class="cls-2" cx="1281.26" cy="144.29" rx="11.7" ry="6.91"/><ellipse class="cls-2" cx="794.01" cy="110.93" rx="11.7" ry="6.91"/><ellipse class="cls-2" cx="870.27" cy="452.36" rx="11.7" ry="6.91"/><path class="cls-2" d="M1155.25,993.43c0,3.82-5.22,6.91-11.7,6.91s-11.7-3.09-11.7-6.91,5.24-6.9,11.7-6.9S1155.25,989.61,1155.25,993.43Z" transform="translate(71.64 -485.61)"/><ellipse class="cls-2" cx="1341.7" cy="313.71" rx="11.7" ry="6.91"/><path class="cls-2" d="M955.92,1137.29c0,3.82-5.22,6.91-11.7,6.91s-11.7-3.09-11.7-6.91,5.24-6.9,11.7-6.9S955.92,1133.47,955.92,1137.29Z" transform="translate(71.64 -485.61)"/><ellipse class="cls-2" cx="925.73" cy="894.32" rx="11.7" ry="6.91"/><path class="cls-2" d="M1181.24,1404.2c0,3.81-5.21,6.9-11.69,6.9s-11.7-3.09-11.7-6.9,5.24-6.91,11.7-6.91S1181.24,1400.38,1181.24,1404.2Z" transform="translate(71.64 -485.61)"/><ellipse class="cls-2" cx="617.23" cy="686.34" rx="11.7" ry="6.91"/><path class="cls-2" d="M586.76,790.65c0,3.82-5.23,6.91-11.7,6.91s-11.7-3.09-11.7-6.91,5.23-6.91,11.7-6.91S586.76,786.83,586.76,790.65Z" transform="translate(71.64 -485.61)"/><path class="cls-2" d="M1021.79,778.49c0,3.82-5.24,6.91-11.7,6.91s-11.7-3.09-11.7-6.91,5.22-6.9,11.7-6.9S1021.79,774.68,1021.79,778.49Z" transform="translate(71.64 -485.61)"/><path class="cls-6" d="M1371.64,702C1196,949.19,870.06,1337.76,532,1382.31c99.12,113.21,244.61,184.81,406.9,184.81,298.67,0,540.77-242.11,540.77-540.75A538.43,538.43,0,0,0,1371.64,702Z" transform="translate(71.64 -485.61)"/><path class="cls-6" d="M1479.39,1014.34c-178.11,215.46-478.24,481.16-857.76,449.79a538.15,538.15,0,0,0,317.29,103c298.67,0,540.77-242.11,540.77-540.75C1479.69,1022.33,1479.47,1018.35,1479.39,1014.34Z" transform="translate(71.64 -485.61)"/><path class="cls-1" d="M1940.5,933c-8.75-86.79-197.93-140.59-477-150.7,5.91,19.68,13.59,39.34,19.79,59,144.49,17.37,243.8,55.74,250.28,119.88,13.59,134.76-395.2,259.13-786.71,307.73s-815,27.53-828.56-107.23c-6.79-67.38,92.07-132.18,241.58-186.2.34-19.21,2.69-38.11,5.18-57C94.23,996.85-80.08,1095.91-71.32,1182.84-57.54,1319.53,404,1374.47,959.51,1305.49S1954.27,1069.75,1940.5,933Z" transform="translate(71.64 -485.61)"/><path class="cls-1" d="M1491.08,872.37c.23,1.24.57,2.49.78,3.73,3.92,24.86,5.26,48.08,2.64,71.76,14.3,11.28,22.87,24.34,24.37,39.37,10,98.54-289,189.5-575.31,225s-596,20.13-605.92-78.42c-2.32-23,12.42-45.66,39.78-67.27A246.49,246.49,0,0,1,362,1010.45c-105.75,45.1-167.48,94.15-163,138.83,10.08,100,347.6,140.13,753.84,89.69s727.47-172.4,717.39-272.38C1665.8,922.91,1598.89,890.65,1491.08,872.37Z" transform="translate(71.64 -485.61)"/><path class="cls-7" d="M1118.4,603c72.27,123-10,305.48-183.89,407.61S561.21,1095.8,489,972.83,499,667.33,672.82,565.21,1046.12,480,1118.4,603Z" transform="translate(71.64 -485.61)"/><path class="cls-8" d="M958.7,587C1001.84,660.48,945,774,831.8,840.5s-240,60.92-283.16-12.54S562.26,641,675.51,574.48,915.53,513.55,958.7,587Z" transform="translate(71.64 -485.61)"/></svg>