<svg id="Layer_14" data-name="Layer 14" xmlns="http://www.w3.org/2000/svg" xmlns:xlink="http://www.w3.org/1999/xlink" viewBox="0 0 1183.01 1202.66"><defs><style>.cls-1{fill:#141328;opacity:0.6;}.cls-2{fill:url(#linear-gradient);}.cls-3{fill:#fff;}.cls-3,.cls-7,.cls-8{opacity:0.1;}.cls-4{fill:#027480;}.cls-5,.cls-6,.cls-7{fill:#016368;}.cls-6{opacity:0.3;}.cls-8{fill:#353535;}</style><linearGradient id="linear-gradient" x1="430.3" y1="1315.22" x2="1413.11" y2="704.24" gradientUnits="userSpaceOnUse"><stop offset="0" stop-color="#11bbab"/><stop offset="1" stop-color="#0da6b5"/></linearGradient></defs><path class="cls-1" d="M1573.54,903.48c-1.21-6-2.52-12-3.94-17.9a580.38,580.38,0,0,0-282.66-373.06c-9.08-5-18.36-9.88-27.74-14.42A574.58,574.58,0,0,0,1051,441.81c-14.68-1.11-29.56-1.67-44.54-1.67a574.09,574.09,0,0,0-59.22,3c-3.93.4-7.86.81-11.8,1.31-9.58,1.16-19.06,2.57-28.55,4.19a570.2,570.2,0,0,0-135.32,41.46c.49-.42,1-.87,1.44-1.28a578,578,0,0,0-127.14,77c-12.45,9.89-24.49,20.35-36.07,31.26a580.49,580.49,0,0,0-112,145.69c-.1.2-.21.4-.32.6a575.11,575.11,0,0,0-41.56,97c-.36,1.12-.67,2.26-1,3.39q-4.42,14-8.14,28.26c-.34,1.32-.79,2.59-1.12,3.91-.2.76-.41,1.57-.61,2.32-.43,1.74-.73,3.52-1.15,5.26-1.48,6.23-2.83,12.49-4.12,18.79-.85,4.19-1.72,8.37-2.48,12.59-1.08,6-2,12-2.88,18.07-.67,4.48-1.39,8.94-1.95,13.45-.74,6-1.27,12-1.83,18.08-.42,4.6-.95,9.16-1.27,13.79-.43,6.38-.6,12.82-.83,19.26-.15,4.14-.47,8.24-.54,12.41,0,2.93-.05,5.75-.05,8.68,0,9.3.3,18.53.74,27.72.1,2,.25,3.95.37,5.93.24,4.17.42,8.35.76,12.5.18,2.33.51,4.63.72,7q.57,6.23,1.28,12.41c.25,2.16.39,4.35.67,6.51.31,2.82.71,5.7,1.11,8.52.16,1.1.39,2.17.55,3.27,1,6.78,2.18,13.49,3.41,20.19.58,3.25,1,6.55,1.64,9.78.15.76.36,1.5.51,2.26.33,1.6.74,3.18,1.08,4.78a569.72,569.72,0,0,0,33,105.09c1.51,3.54,3.24,7,4.81,10.47,1.76,3.92,3.53,7.84,5.37,11.71,2.34,4.92,4.72,9.81,7.2,14.65,1.19,2.34,2.46,4.64,3.69,7q7.4,14,15.51,27.56,1.62,2.7,3.27,5.38a580.6,580.6,0,0,0,33.76,49.05l.19.24c77.77,101.28,188.14,176.22,315.6,208.71a578.34,578.34,0,0,0,143.3,17.91h2.47c1,0,1.92,0,2.88-.06h.15A575.54,575.54,0,0,0,1261.87,1538v0a555.5,555.5,0,0,0,51.09-28.45,577.82,577.82,0,0,0,84.34-64.21q13.47-12.33,26-25.47c6.05-6.21,11.85-12.51,17.55-19a574.24,574.24,0,0,0,69.76-98.26c4.84-8.57,9.48-17.3,13.92-26.12a568.24,568.24,0,0,0,24.06-55.34c.86-2.32,1.72-4.64,2.57-7a576.59,576.59,0,0,0,33.85-195.4c0-3.18,0-6.46-.1-9.64A577.76,577.76,0,0,0,1573.54,903.48Z" transform="translate(-402.03 -394.57)"/><path class="cls-2" d="M1559.17,973.12a576.35,576.35,0,0,1-33.85,195.4c-.85,2.37-1.71,4.69-2.57,7a568.24,568.24,0,0,1-24.06,55.34c-4.44,8.82-9.08,17.55-13.92,26.12a574.24,574.24,0,0,1-69.76,98.26c-5.7,6.46-11.5,12.76-17.55,19q-12.56,13.15-26,25.47a578.27,578.27,0,0,1-84.33,64.21,557,557,0,0,1-51.1,28.45v.05a575.54,575.54,0,0,1-249.93,59.21h-.15c-1,.05-1.92.05-2.88.05h-2.47a578.34,578.34,0,0,1-143.3-17.9C661.34,1488.92,517.63,1363.47,447.88,1199a568.88,568.88,0,0,1-34.61-112.13c-2.17-11-4-22-5.6-33.24-.4-2.82-.8-5.7-1.11-8.52-1.1-8.58-2-17.2-2.67-25.88Q402,996.43,402,973.12c0-2.93.05-5.75.05-8.68a578,578,0,0,1,17-131.7c.21-.75.41-1.56.61-2.32A578,578,0,0,1,553.24,583.06q14.68-16.11,30.62-31.12Q601.34,535.6,620,520.72a578.11,578.11,0,0,1,63.35-44A565.23,565.23,0,0,1,737.5,448a571.7,571.7,0,0,1,143.5-45c9.49-1.61,19-3,28.55-4.18,3.94-.51,7.87-.91,11.81-1.31a573.9,573.9,0,0,1,59.21-3c15,0,29.86.56,44.54,1.67a574.58,574.58,0,0,1,208.22,56.29c9.38,4.54,18.66,9.38,27.74,14.42A580.29,580.29,0,0,1,1543.73,840c1.42,6,2.73,11.9,3.94,17.9a577.76,577.76,0,0,1,11.4,105.57C1559.12,966.66,1559.17,969.94,1559.17,973.12Z" transform="translate(-402.03 -394.57)"/><ellipse class="cls-3" cx="1245.88" cy="684.47" rx="126.23" ry="186.72" transform="translate(-573.3 401.17) rotate(-33.27)"/><path class="cls-3" d="M1402.33,925.67c28.61,43.6,27.91,94.61-1.56,113.95s-76.56-.32-105.17-43.91-27.9-94.62,1.57-114S1373.72,882.08,1402.33,925.67Z" transform="translate(-402.03 -394.57)"/><circle class="cls-4" cx="707.64" cy="271.92" r="113.86"/><path class="cls-5" d="M1120.85,761.44a113.87,113.87,0,0,1-103.19-162,113.86,113.86,0,1,0,195.2,115.18A113.69,113.69,0,0,1,1120.85,761.44Z" transform="translate(-402.03 -394.57)"/><path class="cls-4" d="M564.34,940.08a113,113,0,0,1-10.69,48.12v0a.38.38,0,0,0-.1.2l-1.67,3.33c-.6,1.21-1.21,2.37-1.86,3.53-1.32,2.42-2.73,4.74-4.24,7-.71,1.06-1.41,2.07-2.12,3.13a107.42,107.42,0,0,1-10,12.31c-.9,1-1.81,2-2.77,2.87-1.87,1.87-3.83,3.68-5.8,5.4l-3,2.57c-1.76,1.41-3.53,2.73-5.34,4-2.48,1.81-5.05,3.48-7.72,5.09-1.41.86-2.83,1.67-4.24,2.42-1.61.91-3.28,1.72-4.94,2.52-1.31.66-2.68,1.27-4,1.87-2.17,1-4.39,1.82-6.65,2.67-1.57.56-3.18,1.06-4.8,1.57s-3.28,1-4.94,1.46a1.46,1.46,0,0,0-.45.1c-1.72.46-3.43.81-5.15,1.16a5.11,5.11,0,0,1-.86.2c-1.71.36-3.38.66-5.09.91s-3.13.46-4.69.61a9.87,9.87,0,0,1-1.21.1c-1.62.2-3.18.3-4.79.4-2.22.15-4.44.2-6.66.2a113.83,113.83,0,0,1-43.94-8.77c-1.1-8.58-2-17.2-2.67-25.88Q402,996.43,402,973.12c0-2.93.05-5.75.05-8.68a578,578,0,0,1,17-131.7c.21-.75.41-1.56.61-2.32A113.86,113.86,0,0,1,564.34,940.08Z" transform="translate(-402.03 -394.57)"/><path class="cls-5" d="M553.65,988.25a.38.38,0,0,0-.1.2l-1.67,3.33c-.6,1.21-1.21,2.37-1.86,3.53-1.32,2.42-2.73,4.74-4.24,7-.71,1.06-1.41,2.07-2.12,3.13a119.25,119.25,0,0,1-10,12.31c-.9,1-1.86,1.91-2.77,2.87-1.87,1.87-3.83,3.68-5.8,5.4l-3,2.57c-1.76,1.41-3.53,2.73-5.34,4-2.48,1.81-5.05,3.48-7.72,5.09-1.41.86-2.83,1.67-4.24,2.42-1.61.91-3.28,1.72-4.94,2.52-1.31.66-2.68,1.27-4,1.87-2.17,1-4.39,1.82-6.65,2.67-1.57.56-3.18,1.06-4.8,1.57s-3.28,1-4.94,1.46a1.46,1.46,0,0,0-.45.1c-1.72.46-3.43.81-5.15,1.16a5.11,5.11,0,0,1-.86.2c-1.71.36-3.38.66-5.09.91s-3.13.46-4.69.61a9.87,9.87,0,0,1-1.21.1c-1.62.2-3.18.3-4.79.4-2.22.15-4.44.2-6.66.2a113.83,113.83,0,0,1-43.94-8.77c-1.1-8.58-2-17.2-2.67-25.88a113.87,113.87,0,0,0,149.76-31Z" transform="translate(-402.03 -394.57)"/><path class="cls-4" d="M762.1,1032.51a59.83,59.83,0,1,1-59.83-59.82A59.83,59.83,0,0,1,762.1,1032.51Z" transform="translate(-402.03 -394.57)"/><path class="cls-5" d="M708.14,1082.4a59.83,59.83,0,0,1-54.21-85.12,59.82,59.82,0,1,0,102.56,60.52A59.73,59.73,0,0,1,708.14,1082.4Z" transform="translate(-402.03 -394.57)"/><circle class="cls-4" cx="877.48" cy="803.67" r="105.9"/><path class="cls-5" d="M1289.9,1286.54a105.89,105.89,0,0,1-96-150.66A105.89,105.89,0,1,0,1375.48,1243,105.73,105.73,0,0,1,1289.9,1286.54Z" transform="translate(-402.03 -394.57)"/><circle class="cls-4" cx="380.76" cy="998.46" r="46.41"/><path class="cls-5" d="M787.34,1431.73a46.4,46.4,0,0,1-42.06-66,46.4,46.4,0,1,0,79.56,46.94A46.34,46.34,0,0,1,787.34,1431.73Z" transform="translate(-402.03 -394.57)"/><path class="cls-4" d="M735.26,599.44A46.41,46.41,0,1,1,688.85,553,46.41,46.41,0,0,1,735.26,599.44Z" transform="translate(-402.03 -394.57)"/><path class="cls-5" d="M693.41,638.14a46.41,46.41,0,0,1-42.06-66,46.41,46.41,0,1,0,79.56,46.95A46.34,46.34,0,0,1,693.41,638.14Z" transform="translate(-402.03 -394.57)"/><path class="cls-6" d="M652.79,758.83c0,11.89-11.83,21.52-26.42,21.52S600,770.72,600,758.83s11.83-21.52,26.42-21.52S652.79,746.94,652.79,758.83Z" transform="translate(-402.03 -394.57)"/><path class="cls-6" d="M1250,899.52c0,11.88-11.83,21.52-26.42,21.52s-26.42-9.64-26.42-21.52S1208.94,878,1223.53,878,1250,887.63,1250,899.52Z" transform="translate(-402.03 -394.57)"/><ellipse class="cls-6" cx="887.36" cy="451.81" rx="14.84" ry="12.09"/><path class="cls-6" d="M1273.61,958.43c0,3.94-3.92,7.13-8.76,7.13s-8.76-3.19-8.76-7.13,3.92-7.14,8.76-7.14S1273.61,954.48,1273.61,958.43Z" transform="translate(-402.03 -394.57)"/><path class="cls-6" d="M686.68,793.91c0,6-5.92,10.76-13.21,10.76s-13.21-4.81-13.21-10.76,5.91-10.76,13.21-10.76S686.68,788,686.68,793.91Z" transform="translate(-402.03 -394.57)"/><ellipse class="cls-6" cx="218.05" cy="420.86" rx="13.21" ry="10.76"/><path class="cls-7" d="M851.38,978.2c12.55,19.13,18.59,41.92,20.91,64.69,1,9.4,1.27,19.12-1.81,28-2.13,6.19-5.79,11.7-8.87,17.48-6.53,12.26-10.49,26.24-9.09,40.07s8.66,27.4,20.6,34.51c8.49,5,18.87,6.73,26.56,12.93,12.43,10,13.89,28.19,13.6,44.16s-.77,33.66,9.61,45.8c10.6,12.39,28.69,14.51,45,15.17,7.62.31,15.92.29,22-4.35,6.25-4.79,8.37-13.2,9.24-21a112.34,112.34,0,0,0-10.18-60.51c-14.28-29.93-42-54.21-46.41-87.07-3.79-28.4,11.06-55.92,13.22-84.49a96.72,96.72,0,0,0-9.8-50.12c-10.11-20.31-27.14-36.59-36.79-57.12-6-12.72-9.08-27-17.38-38.28-13.53-18.47-37.6-25.24-60-30.15-18.15-4-38.93-7-53.8,4.13-14.24,10.67-17.66,31.39-12.88,48.53,5.41,19.36,15.55,35.59,35,40.89C821.83,947.4,838.8,959,851.38,978.2Z" transform="translate(-402.03 -394.57)"/><path class="cls-7" d="M1233.33,452.53c-27.09,35-72.49,55.18-116.62,51.45-46.81-3.94-90.44-32.44-137.25-28.35-36.72,3.23-68.85,26.18-104.81,34.5a135.61,135.61,0,0,1-86.56-8.88c-19.16-8.77-36.62-22.7-45.9-41.61A88.66,88.66,0,0,1,737.5,448a571.7,571.7,0,0,1,143.5-45c9.49-1.61,19-3,28.55-4.18,3.94-.51,7.87-.91,11.81-1.31a573.9,573.9,0,0,1,59.21-3c15,0,29.86.56,44.54,1.67A574.58,574.58,0,0,1,1233.33,452.53Z" transform="translate(-402.03 -394.57)"/><path class="cls-7" d="M1263.14,1423.85c-4.8,12.31-16.8,20.68-29.51,24.46s-26.13,3.58-39.39,3.43c-28.6-.4-58.87-.1-83.33,14.73-23,13.92-40.15,40.15-66.83,42.82-8.18.81-16.55-.75-24.52,1.11-15,3.59-24.51,18.42-30.36,32.74-1.11,2.77-2.17,5.6-3.28,8.47-1,.05-1.92.05-2.88.05h-2.47a578.34,578.34,0,0,1-143.3-17.9c4.09-13.32,11.91-26.23,20.28-37.48,3.83-5.14,8-10.34,13.67-13.42,17.95-9.73,30.62-6.2,46.35-20.12,16.19-14.33,39.14-29.41,61.74-23.76,13.82,3.38,25.07,14.12,39,16.8,21.94,4.13,41.67-12.21,59.87-25.12a242.84,242.84,0,0,1,160.3-43.38c4.29.4,8.68.91,12.66,2.67C1263.29,1395.25,1267.93,1411.49,1263.14,1423.85Z" transform="translate(-402.03 -394.57)"/><path class="cls-7" d="M1559.17,973.12a576.35,576.35,0,0,1-33.85,195.4c-.85,2.37-1.71,4.69-2.57,7-22.7-13.26-41.46-32-52.15-56.29-10.34-23.5-12.87-50.94-29.11-70.82-14.78-18.15-38.38-26.73-55.18-43-15.53-15-24.26-35.56-32.58-55.53q-11.88-28.53-23.81-57.1c-5.2-12.46-10.29-27-3.78-38.84,3.73-6.81,10.59-11.15,15.93-16.75,6.06-6.3,10.09-14.22,13.47-22.24,19-44.79,18.51-97.35-1.11-141.84-9.53-21.59-23.55-42.22-24.56-65.77-1.06-26.23,14.42-49.43,35.21-66.53A577.66,577.66,0,0,1,1543.73,840c1.42,6,2.73,11.9,3.94,17.9a577.76,577.76,0,0,1,11.4,105.57C1559.12,966.66,1559.17,969.94,1559.17,973.12Z" transform="translate(-402.03 -394.57)"/><path class="cls-4" d="M1490.62,911.82a47.53,47.53,0,1,1-47.52-47.53A47.53,47.53,0,0,1,1490.62,911.82Z" transform="translate(-402.03 -394.57)"/><path class="cls-5" d="M1447.76,951.45a47.54,47.54,0,0,1-43.07-67.62,47.53,47.53,0,1,0,81.48,48.08A47.46,47.46,0,0,1,1447.76,951.45Z" transform="translate(-402.03 -394.57)"/><path class="cls-8" d="M1223.65,1454.36a574.41,574.41,0,0,1-97.49,9.07c-1.81.07-3.61.07-5.45.07-239.37,0-444.82-145.38-532.8-352.66a576.44,576.44,0,0,1-45.77-225.91c0-2.89,0-5.75.07-8.65C544.58,713.75,614,567.44,724,463.78c7.5-7.06,15.25-13.85,23.12-20.5a578.26,578.26,0,0,0-127.14,77c-12.45,9.89-24.48,20.35-36.07,31.26-110,103.66-179.41,250-181.78,412.5,0,2.9-.08,5.76-.08,8.65a576.26,576.26,0,0,0,45.78,225.91c88,207.28,293.42,352.66,532.79,352.66,1.84,0,3.65,0,5.45-.08a575.26,575.26,0,0,0,301.06-87.71,581.11,581.11,0,0,0,67.08-49.06A573.17,573.17,0,0,1,1223.65,1454.36Z" transform="translate(-402.03 -394.57)"/></svg>