<svg id="Layer_5" data-name="Layer 5" xmlns="http://www.w3.org/2000/svg" xmlns:xlink="http://www.w3.org/1999/xlink" viewBox="0 0 1650.71 1650.71"><defs><style>.cls-1{fill:#e6e7e8;}.cls-2{fill:#d1d3d4;}.cls-3{fill:#a7a9ac;}.cls-4{fill:#212a3c;opacity:0.1;}.cls-5{opacity:0.5;fill:url(#linear-gradient);}.cls-6{fill:#fff;opacity:0.3;}</style><linearGradient id="linear-gradient" x1="681.92" y1="291" x2="1012.84" y2="899.93" gradientTransform="matrix(0.82, -0.14, 0.16, 0.84, 11.99, 264.57)" gradientUnits="userSpaceOnUse"><stop offset="0" stop-color="#fff"/><stop offset="1" stop-color="#fff" stop-opacity="0"/></linearGradient></defs><circle class="cls-1" cx="996.71" cy="980.71" r="825.35" transform="translate(-572.89 836.67) rotate(-45)"/><path class="cls-2" d="M1095.12,1219.58c0,112.21,91,203.19,203.18,203.19s203.16-91,203.16-203.19-91-203.18-203.16-203.18S1095.12,1107.36,1095.12,1219.58Z" transform="translate(-171.35 -155.35)"/><path class="cls-3" d="M1480.79,601.34a114.28,114.28,0,1,0-114.28,114.3A114.27,114.27,0,0,0,1480.79,601.34Z" transform="translate(-171.35 -155.35)"/><path class="cls-2" d="M1557.75,1048.16c0,125.44,79.52,232.06,190.76,273.06a824.86,824.86,0,0,0,44.15-558.74C1658.82,788.75,1557.75,906.6,1557.75,1048.16Z" transform="translate(-171.35 -155.35)"/><path class="cls-2" d="M443.5,1190.22a46,46,0,1,0-46,46A46,46,0,0,0,443.5,1190.22Z" transform="translate(-171.35 -155.35)"/><path class="cls-2" d="M1526.82,845a46,46,0,1,0-46,46A46,46,0,0,0,1526.82,845Z" transform="translate(-171.35 -155.35)"/><path class="cls-2" d="M491.21,1397.35a114.29,114.29,0,1,0,114.27-114.28A114.24,114.24,0,0,0,491.21,1397.35Z" transform="translate(-171.35 -155.35)"/><path class="cls-2" d="M930.79,428.34a73,73,0,1,0,73-73A73,73,0,0,0,930.79,428.34Z" transform="translate(-171.35 -155.35)"/><path class="cls-3" d="M1266.8,1760.63C1243.3,1623.37,1124,1518.78,980,1518.78c-139.91,0-256.7,98.75-284.75,230.25a825.31,825.31,0,0,0,571.51,11.6Z" transform="translate(-171.35 -155.35)"/><path class="cls-3" d="M530.06,961.66A155.55,155.55,0,1,0,374.5,806.1,155.58,155.58,0,0,0,530.06,961.66Z" transform="translate(-171.35 -155.35)"/><path class="cls-2" d="M1011.86,823.58a46,46,0,1,0-46.05,46A46,46,0,0,0,1011.86,823.58Z" transform="translate(-171.35 -155.35)"/><path class="cls-2" d="M865.71,1150.56a73,73,0,1,0,73,73A73,73,0,0,0,865.71,1150.56Z" transform="translate(-171.35 -155.35)"/><path class="cls-4" d="M1664,495.13c-227.27,346-741.47,1027.92-1273.67,1045.25,150.79,163.36,366.61,265.68,606.41,265.68,455.83,0,825.36-369.51,825.36-825.35A821.43,821.43,0,0,0,1664,495.13Z" transform="translate(-171.35 -155.35)"/><path class="cls-4" d="M1820.42,930.77c-242.21,325.87-711.58,803.64-1329,702.38A821.55,821.55,0,0,0,996.7,1806.06c455.83,0,825.36-369.51,825.36-825.35C1822.06,963.93,1821.41,947.29,1820.42,930.77Z" transform="translate(-171.35 -155.35)"/><path class="cls-5" d="M1256.15,353.55c109.13,179.71-8.28,450.38-262.25,604.55s-548.29,133.55-657.36-46.16,8.3-450.35,262.24-604.53S1147.07,173.88,1256.15,353.55Z" transform="translate(-171.35 -155.35)"/><path class="cls-6" d="M1020.5,333.46c65.16,107.33-16.11,275.77-181.55,376.23s-352.4,94.86-417.54-12.45S437.5,421.47,602.93,321,955.33,226.12,1020.5,333.46Z" transform="translate(-171.35 -155.35)"/></svg>