<svg id="Layer_15" data-name="Layer 15" xmlns="http://www.w3.org/2000/svg" xmlns:xlink="http://www.w3.org/1999/xlink" viewBox="0 0 1499.44 1524.35"><defs><style>.cls-1{fill:#141328;opacity:0.6;}.cls-2{fill:url(#linear-gradient);}.cls-3{fill:url(#linear-gradient-2);}.cls-4,.cls-5{fill:#fff;}.cls-4,.cls-9{opacity:0.1;}.cls-5{opacity:0.05;}.cls-6,.cls-7{fill:#771347;}.cls-6{opacity:0.2;}.cls-7,.cls-8{opacity:0.4;}.cls-8{fill:url(#linear-gradient-3);}.cls-9{fill:#353535;}</style><linearGradient id="linear-gradient" x1="294.06" y1="1489.67" x2="1539.75" y2="715.27" gradientUnits="userSpaceOnUse"><stop offset="0" stop-color="#c8024c"/><stop offset="1" stop-color="#901953"/></linearGradient><linearGradient id="linear-gradient-2" x1="735.08" y1="1198.02" x2="1724.88" y2="1198.02" xlink:href="#linear-gradient"/><linearGradient id="linear-gradient-3" x1="258.22" y1="1209.65" x2="1167.88" y2="1209.65" gradientUnits="userSpaceOnUse"><stop offset="0" stop-color="#b41f68"/><stop offset="1" stop-color="#ec025a"/></linearGradient></defs><path class="cls-1" d="M292.55,1158.88c.28,4.48.45,9,.82,13.44.19,2.51.55,5,.77,7.48q.89,9.83,2,19.58c.23,1.9.35,3.83.59,5.74.39,3.58.9,7.22,1.41,10.8.12.9.32,1.77.45,2.66q2.52,17.64,5.89,35c.28,1.48.46,3,.75,4.47.07.34.17.67.23,1,2.2,10.91,4.69,21.71,7.36,32.44.42,1.68.75,3.4,1.18,5.09q4.71,18.35,10.32,36.34c.06.18.1.38.16.56,1.69,5.38,3.64,10.64,5.45,16,5.83,17.15,12.06,34.11,19.1,50.67,4.9,11.56,10.2,22.91,15.68,34.15,1,2,2,4.07,3,6.09,5.54,11.12,11.28,22.11,17.36,32.9.31.55.64,1.08.95,1.63,5.74,10.13,11.77,20.07,18,29.89,1.37,2.17,2.73,4.34,4.13,6.5q9.74,15.07,20.15,29.67c.28.39.54.81.82,1.2,1.12,1.56,2.34,3,3.47,4.6q6.92,9.42,14.08,18.62,2.93,3.72,5.9,7.4c2.51,3.13,5,6.28,7.55,9.37.36.43.74.85,1.1,1.28,1.84,2.2,3.73,4.35,5.59,6.52s3.71,4.37,5.59,6.52q9.22,10.53,18.82,20.73c.54.57,1.06,1.16,1.6,1.73q10.84,11.41,22.2,22.34c1.2,1.16,2.43,2.28,3.64,3.43q9.42,9,19.14,17.61c1.84,1.63,3.7,3.24,5.55,4.86q9.57,8.31,19.42,16.31c1.47,1.19,2.92,2.4,4.39,3.57a732.81,732.81,0,0,0,178.94,105.3c2.7,1.11,5.37,2.28,8.09,3.36,4.68,1.85,9.42,3.57,14.14,5.33,3.48,1.3,6.94,2.65,10.45,3.9,4.6,1.63,9.26,3.15,13.91,4.69,3.05,1,6.08,2.11,9.15,3.09.44.14.89.24,1.33.38q18,5.7,36.46,10.44c1,.27,2,.62,3.07.88,1.3.34,2.65.56,4,.89,13.09,3.26,26.28,6.27,39.63,8.81.69.14,1.39.23,2.08.36,12.7,2.38,25.54,4.35,38.46,6.07,2.68.36,5.34.75,8,1.07q19.56,2.39,39.44,3.72c2.74.19,5.49.32,8.24.47,13.82.78,27.7,1.3,41.7,1.3h3.23c1.21,0,2.43,0,3.64-.07h.19a728.55,728.55,0,0,0,123.58-11.5c10.55-1.9,21-4.1,31.38-6.44,2.77-.62,5.51-1.28,8.26-1.94q11.94-2.84,23.74-6.06c2.69-.74,5.39-1.44,8.07-2.21q14.79-4.22,29.32-9c2.29-.76,4.54-1.6,6.82-2.38q11.28-3.87,22.4-8.09c3.4-1.29,6.79-2.62,10.17-4q10.54-4.2,20.94-8.72c2.55-1.1,5.12-2.15,7.65-3.29q12.35-5.51,24.45-11.44v-.07c.71-.34,1.4-.7,2.1-1,11.28-5.6,22.42-11.43,33.35-17.59q14.88-8.36,29.32-17.41c13.65-8.53,26.87-17.65,39.89-27,2.28-1.65,4.56-3.29,6.83-5,12.9-9.54,25.52-19.41,37.75-29.75.19-.16.4-.3.6-.47l-.12,0c7.42-6.29,14.78-12.65,21.94-19.22q17.07-15.63,33-32.28c7.67-7.87,15-15.86,22.25-24a727.78,727.78,0,0,0,88.41-124.54c2.88-5.12,5.69-10.23,8.44-15.41,3.14-5.88,6.2-11.76,9.21-17.71a721.84,721.84,0,0,0,30.5-70.13c1.08-2.94,2.17-5.88,3.26-8.89a730.76,730.76,0,0,0,42.89-247.67c0-4-.06-8.18-.12-12.21-.26-16.3-1.09-32.48-2.37-48.52a719.64,719.64,0,0,0-12.08-85.29c-1.54-7.61-3.2-15.15-5-22.69-1.66-7-3.39-14.07-5.3-21a732.26,732.26,0,0,0-221.15-358.28c-4.15-3.7-8.31-7.35-12.53-10.87a726.56,726.56,0,0,0-119.29-82.72c-7.61-4.22-15.28-8.38-23.15-12.28h-.06c-4-2.11-7.93-4.09-11.95-6a728.39,728.39,0,0,0-263.91-71.35c-18.61-1.4-37.47-2.1-56.46-2.1a727.6,727.6,0,0,0-75,3.83c-5,.51-10,1-15,1.66-12.15,1.47-24.17,3.26-36.19,5.31q-29.82,5.18-58.69,12.72a716.62,716.62,0,0,0-111.48,39.11c.16-.14.31-.29.48-.43-1.71.76-3.34,1.66-5,2.43-2.37,1.07-4.8,2-7.15,3.13-7.46,3.44-14.73,7.22-22.05,10.91-3.41,1.72-6.88,3.3-10.26,5.07-12.31,6.46-24.45,13.2-36.35,20.34-.58.34-1.11.74-1.68,1.08-9.63,5.81-19,12.06-28.29,18.3-3.86,2.58-7.86,4.94-11.67,7.6q-19.8,13.77-38.66,28.78C556.91,548.59,546.88,557.22,537,566c-5.2,4.62-10.42,9.21-15.51,14-8.14,7.68-16,15.59-23.82,23.63-1.63,1.67-3.21,3.39-4.82,5.08-3.39,3.58-6.85,7.1-10.16,10.74-1.68,1.83-3.21,3.8-4.87,5.65-5.8,6.49-11.45,13.12-17,19.81-3.17,3.81-6.4,7.56-9.5,11.43Q440,670.47,429.37,685.17c-1.89,2.62-3.73,5.28-5.59,7.92q-9.88,14.1-19.15,28.65c-2.6,4.11-5.06,8.3-7.58,12.46-4.66,7.69-9.22,15.44-13.6,23.31-1.19,2.15-2.53,4.19-3.71,6.35-1.55,2.86-2.93,5.81-4.45,8.69q-4.1,7.79-8,15.65c-2,4.13-4.11,8.24-6.09,12.41-1.24,2.62-2.45,5.27-3.66,7.91-1.87,4.08-3.67,8.2-5.47,12.32q-4,9.09-7.69,18.31v0c-1,2.58-2.21,5.08-3.22,7.67-.95,2.42-1.75,4.91-2.67,7.34q-3.72,9.8-7.14,19.74c-1.26,3.65-2.57,7.27-3.77,10.94q-1.32,4-2.58,8c-.58,1.83-1.26,3.6-1.82,5.44C322,902.1,321.05,906,320,909.78q-1.87,6.45-3.63,12.94c-.92,3.42-2,6.78-2.87,10.24-.26,1-.51,2-.77,2.94-.86,3.43-1.47,7-2.28,10.4-1.22,5.23-2.35,10.51-3.46,15.78-1.59,7.55-3.13,15.11-4.48,22.74-.94,5.26-1.72,10.57-2.54,15.87-1.19,7.7-2.4,15.39-3.35,23.17-.66,5.42-1.1,10.9-1.65,16.35-.77,7.77-1.63,15.52-2.15,23.36-.38,5.49-.47,11.06-.72,16.59-.34,7.55-.87,15.06-1,22.66,0,3.71-.06,7.29-.06,11,0,11.68.36,23.26.91,34.81C292.08,1152.06,292.34,1155.46,292.55,1158.88Z" transform="translate(-258.22 -322.76)"/><path class="cls-2" d="M1724.88,1056.06a730.81,730.81,0,0,1-42.9,247.67c-1.09,3-2.18,6-3.26,8.89a719.4,719.4,0,0,1-30.5,70.13c-3,6-6.07,11.83-9.21,17.71-2.74,5.18-5.56,10.29-8.43,15.41a728.38,728.38,0,0,1-88.42,124.54c-7.22,8.18-14.58,16.17-22.25,24q-15.92,16.68-33,32.28A733.31,733.31,0,0,1,1380,1678.12q-28.58,17.93-58.88,33.11c-1.92,1-3.9,2-5.88,2.94v.07a729.67,729.67,0,0,1-316.78,75h-.2c-1.21.07-2.43.07-3.64.07h-3.14a733,733,0,0,1-181.62-22.7Q789.18,1761.4,769,1755a728.51,728.51,0,0,1-182.65-87.71C569.44,1656,552.94,1644,537,1631.38a733,733,0,0,1-220.7-289q-13.9-32.61-24.61-66.68a721.35,721.35,0,0,1-19.24-75.44c-2.75-13.94-5.12-27.94-7.1-42.13-.51-3.58-1-7.22-1.41-10.81q-2.1-16.29-3.39-32.79-2.38-29-2.36-58.5c0-3.71.06-7.29.06-11a732.84,732.84,0,0,1,21.61-166.92c.26-1,.51-2,.77-2.94,3-11.7,6.2-23.21,9.72-34.65A733.2,733.2,0,0,1,449.89,561.68c12.4-13.62,25.38-26.79,38.8-39.45q22.15-20.72,45.78-39.57a732.39,732.39,0,0,1,80.3-55.81,736.13,736.13,0,0,1,191.86-80.56q28.86-7.57,58.68-12.72c12-2.05,24-3.84,36.19-5.31,5-.64,10-1.15,15-1.66a727.59,727.59,0,0,1,75-3.84c19,0,37.85.71,56.46,2.11a728.39,728.39,0,0,1,263.91,71.35c4,1.92,8,3.9,11.95,6h.07c7.86,3.9,15.53,8.06,23.14,12.28a727.07,727.07,0,0,1,119.3,82.72c4.22,3.52,8.37,7.16,12.53,10.87A732.32,732.32,0,0,1,1700,866.38c1.91,6.9,3.64,13.93,5.3,21,1.79,7.54,3.45,15.08,5,22.69a717.58,717.58,0,0,1,12.08,85.29c1.28,16,2.11,32.22,2.37,48.52C1724.81,1047.88,1724.88,1052,1724.88,1056.06Z" transform="translate(-258.22 -322.76)"/><path class="cls-3" d="M1724.88,1056.06a730.81,730.81,0,0,1-42.9,247.67c-1.09,3-2.18,6-3.26,8.89a719.4,719.4,0,0,1-30.5,70.13c-3,6-6.07,11.83-9.21,17.71-2.74,5.18-5.56,10.29-8.43,15.41a728.38,728.38,0,0,1-88.42,124.54c-7.22,8.18-14.58,16.17-22.25,24q-15.92,16.68-33,32.28A733.31,733.31,0,0,1,1380,1678.12q-28.58,17.93-58.88,33.11c-1.92,1-3.9,2-5.88,2.94v.07a729.67,729.67,0,0,1-316.78,75h-.2c-1.21.07-2.43.07-3.64.07h-3.14a733,733,0,0,1-181.62-22.7Q789.18,1761.4,769,1755c3.71-4,6.91-7.61,9.4-10.74,63.17-79.91,77.42-178.82,84.33-277.72,5.37-76.08,7.8-153-4.22-228.36-19.76-123.26-77.42-236.93-111.37-357-7.54-26.78-14-54.47-11.57-82.15,3.06-35.54,20.46-68.4,41.36-97.37,38.81-54,99.16-101.07,165.26-94.29,50.57,5.24,92.83,40.85,124.8,80.29s57.22,84.52,93.08,120.45a278.5,278.5,0,0,0,125.12,72c83.56,22.05,172.93,4.15,257.83,20.26,67.64,12.85,129.15,47.57,179.33,95,1.28,16,2.11,32.22,2.37,48.52C1724.81,1047.88,1724.88,1052,1724.88,1056.06Z" transform="translate(-258.22 -322.76)"/><ellipse class="cls-4" cx="1304.5" cy="728.36" rx="178.11" ry="263.46" transform="translate(-443.96 512.35) rotate(-33.27)"/><path class="cls-4" d="M1525.25,1068.69c40.36,61.51,39.37,133.5-2.21,160.79s-108-.46-148.38-62-39.38-133.5,2.21-160.79S1484.88,1007.18,1525.25,1068.69Z" transform="translate(-258.22 -322.76)"/><path class="cls-5" d="M606.94,624.56c89.88-51.78,200.84-43.37,304.08-33.41,22.8,2.2,46.5,4.69,66,16.68,14.22,8.73,25.41,22.06,40.4,29.39,28.34,13.85,66.87-.35,79.45-29.27s-3.31-66.8-32.77-78.08c47.42-20,94.77,24.36,133,58.76,84.37,75.85,192.84,118.13,298.73,158.86,12.62,4.85,26.19,9.78,39.35,6.67,20.91-4.95,32.41-29.36,30-50.71s-15.15-40-28.21-57c-164.62-215-451.47-329.25-718.83-286.22-20.11,3.23-40.59,7.48-57.87,18.27-28.13,17.59-43.32,49.43-64.19,75.21-54.85,67.78-147.46,92.1-213,149.63-30.87,27.11-157.8,264.88-64.31,274.45,22.73,2.33,59-109.55,72.55-131.92C520.7,697.28,557.19,653.22,606.94,624.56Z" transform="translate(-258.22 -322.76)"/><path class="cls-5" d="M385.93,1143.23c10.23,22.53,27.56,41.65,35.18,65.2,13,40.12-4.71,83.19-5.4,125.34a156.48,156.48,0,0,0,32.16,97.16l24.5-61.26c2.36-5.92,4.9-12.09,9.77-16.21,12.71-10.8,32.42-2.06,48.62-6,14.08-3.43,24-16.11,37.35-21.76,18.42-7.8,39.31-1,58.83,3.36s43.36,4.84,55.7-10.9c15.16-19.32-.35-50.3-23.45-58.63-13.34-4.8-29.44-5.08-38.89-15.66-10.84-12.13-6.82-31.68,2.08-45.31s21.82-24.52,29.21-39,6.8-35.48-7.31-43.59c-24.25-13.94-48.89,23.3-76.85,23.77-18.4.31-33-15.68-41.14-32.19s-12.65-35.1-24.27-49.37c-13.95-17.12-37.71-25.63-59.36-21.25C398.48,1045.81,367.54,1102.7,385.93,1143.23Z" transform="translate(-258.22 -322.76)"/><path class="cls-5" d="M1179.09,1492.75c5.2,16.16,15.79,30.19,20.82,46.39a72.93,72.93,0,0,1-1,45.94c-5.47,15.21-15.94,28.33-20.71,43.77s-1.22,35.79,13.73,41.94c5.23,2.15,11.09,2.22,16.69,1.49,36.66-4.8,61-40.11,75.6-74.09s25.48-71.82,53.7-95.7c14.46-12.23,32.27-19.63,48.93-28.64,45-24.35,82-60.81,118.43-96.77,16.16-16,33.74-36.82,27.46-58.66-8.09-28.15-45.94-31.2-75.23-31.11-27.52.08-55.89-2.29-80.46-14.68s-44.73-36.7-45.25-64.22c-.24-12.79,3.47-26.49-2.47-37.81-4.35-8.3-13-13.32-21.24-17.72-17.28-9.21-35.66-17.87-55.23-18.24s-40.62,9.67-47.3,28.07c-5,13.79-1.27,29-.56,43.63s-3.64,32-17.3,37.32c-31.24,12.2-47.35-41.72-77.93-39.71-32,2.11-18.48,31.24-8.09,51.88,17.76,35.32,51.57,59.61,69.21,93.85C1194.57,1395.66,1163.92,1445.6,1179.09,1492.75Z" transform="translate(-258.22 -322.76)"/><path class="cls-6" d="M784.38,1373.23c-3.78,3.58-8.25,6.13-12.28,9.39-13.87,11.06-20.71,28.45-29.53,43.8-11.26,19.69-26.34,36.82-40.09,54.79-19.11,25-35.67,51.84-52.23,78.63q-15.43,25-31,50.13c-11.57,18.73-23.2,37.59-32.92,57.28A736.48,736.48,0,0,1,396.31,1484.4c2.24.13,4.48.32,6.65.58,21.67,2.43,43,9.08,64.76,7.67,21.48-1.41,41.62-10.55,61.06-19.75q21.48-10.17,42.83-20.65C621.93,1427.44,673.2,1400.08,708,1356a199.93,199.93,0,0,0,37.21-77.81c5.37-22.63-.45-51.27,8-72.11,16.62,35.16,37,80.1,42.83,119C798.57,1342.16,796.91,1361.53,784.38,1373.23Z" transform="translate(-258.22 -322.76)"/><path class="cls-6" d="M1639,1400.46c-2.74,5.18-5.56,10.29-8.43,15.41a728.38,728.38,0,0,1-88.42,124.54c-7.22,8.18-14.58,16.17-22.25,24q-15.92,16.68-33,32.28A733.31,733.31,0,0,1,1380,1678.12q-28.58,17.93-58.88,33.11c3.58-17.13,10.1-34.2,17.32-49.74,17.84-38.42,39.58-79.85,29-120.89-4.09-16-12.72-30-23-43.15-8-10.43-17.2-20.33-25.89-30.18-37.4-42.58-70.58-97.18-59.52-152.8,5-25.57,19.31-51,12.53-76.14-3.45-12.85-12-23.53-20.33-33.82-13.62-16.81-27.43-34-40.47-51.46-35.55-47.31-66.49-97.82-77.68-155.29-4.22-21.74-5.56-52.43,9.66-70.91,14.83-18.09,46.16-21.6,67.76-19.3,24.55,2.55,47.76,12.4,70,23.08,24.68,11.82,51.72,28.89,55.17,56.06,1.41,11.32-1.59,22.64-3.45,33.82-10.87,65.47,19,132.22,62.59,182.21,29.54,33.82,64.89,61.57,101.4,87.78,11.76,8.5,23.65,16.75,35.48,25.06,5.81,4.09,11.63,8.18,17.39,12.28C1580.45,1350.08,1611.65,1373.55,1639,1400.46Z" transform="translate(-258.22 -322.76)"/><path class="cls-7" d="M1310.73,451.71a112.73,112.73,0,0,1-25.83,28.14c-23.85,18.47-52.94,28.45-81.32,38.61-20.59,7.29-41.37,15.09-59.91,26.34a141,141,0,0,0-20.14,14.64,127.47,127.47,0,0,0-22.37,25.64,155.57,155.57,0,0,0-20.08,43.34,149,149,0,0,0-4,16.56c-5.76,30.24-4,61.38-5.69,92.13s-7.8,62.65-26.6,87c-11.89,15.34-31.77,27.42-50.19,21.41-21.67-7-29.15-35-24.55-57.34s17.46-42.13,23.08-64.19c10.74-42.07-5.69-84.71-29.09-122.56a.06.06,0,0,1-.06-.06c-6.14-9.91-12.72-19.44-19.43-28.58-9.59-13-19.76-26.15-24.87-41.55-4.41-13.3-4.86-27.56-7.61-41.3C905,454.66,883,424.29,859.3,397.18a407.59,407.59,0,0,0-36.69-37.65c-5.18-4.61-10.49-9.08-16-13.24q28.86-7.57,58.68-12.72c12-2.05,24-3.84,36.19-5.31,5-.64,10-1.15,15-1.66a727.59,727.59,0,0,1,75-3.84c19,0,37.85.71,56.46,2.11a728.39,728.39,0,0,1,263.91,71.35c4,1.92,8,3.9,11.95,6h.07v.26C1325.56,419.88,1320.19,436.88,1310.73,451.71Z" transform="translate(-258.22 -322.76)"/><path class="cls-6" d="M610.87,1110c-1.09,4.79-2.62,9.65-5.56,13.49.06.06-.07.06-.07.06a14.73,14.73,0,0,1-1.92,2.24c-3.13,2.94-7.16,4.6-11.38,5.82-1.08.32-2.23.57-3.32.83a169.89,169.89,0,0,1-34.91,4.35c-28.51.76-57.41-4.35-85.79-8.7-18.67-2.81-38.17-5.3-56.2.51A80.74,80.74,0,0,0,386,1143.26a177.41,177.41,0,0,0-21.22,21.42,408,408,0,0,0-41.36,57.6c-10.55,17.71-19.95,36.51-31.65,53.45a721.35,721.35,0,0,1-19.24-75.44c-2.75-13.94-5.12-27.94-7.1-42.13-.51-3.58-1-7.22-1.41-10.81q-2.1-16.29-3.39-32.79-2.38-29-2.36-58.5c0-3.71.06-7.29.06-11a732.84,732.84,0,0,1,21.61-166.92c.26-1,.51-2,.77-2.94A728.84,728.84,0,0,1,347,706.1a102.64,102.64,0,0,1,10.74,8.25c17.51,15.4,30.11,35.61,38.16,57.6a182.62,182.62,0,0,1,8.83,34.33c2.94,18.92,3.26,38.42,8.56,56.84a83.38,83.38,0,0,0,5.63,14.64c6.26,12.72,15.92,23.72,29,28.64,14,5.24,31.08,3.51,42.26,13.36,14.13,12.47,10.42,34.78,13.11,53.45,4.48,30.36,31.33,56.06,62,59.07,11.95,1.15,25.51-.26,34.39,7.8,4.16,3.83,6.59,9.21,8.38,14.57A102.64,102.64,0,0,1,610.87,1110Z" transform="translate(-258.22 -322.76)"/><path class="cls-6" d="M1700,866.38c-34-1-68.22-11.58-98.14-28.33-15.6-8.69-30.56-19.11-47.69-24.42s-37.47-4.34-50.7,7.74c-11.76,10.8-16,28.64-29.22,37.72-12.34,8.57-28.83,6.9-43.73,4.86l-26.72-3.65c-2.68-.38-5.75-1-7.35-3.19-1.41-2-1.22-4.61-.9-7,3.65-24.61,19.12-45.52,33.18-66q16.69-24.17,31.59-49.42c.12-.26.32-.51.44-.77,7-11.83,13.75-24.23,15.8-37.85,2.62-17.45-2.69-35-6.78-52.23a366.44,366.44,0,0,1-9.85-82.66c0-8.76.26-17.52.83-26.28a219.78,219.78,0,0,1,5.57-37.66c4.22,3.52,8.37,7.16,12.53,10.87A732.32,732.32,0,0,1,1700,866.38Z" transform="translate(-258.22 -322.76)"/><path class="cls-8" d="M1142.33,1111.62c-12,12.08-27.55,19.82-43,26.91a959.2,959.2,0,0,1-207.39,68.22c-27.94,5.75-56.71,10.48-81.51,24.55-23.72,13.55-42.13,34.78-57.35,57.41-21,31.26-36.89,66.3-43.73,103.31-8.31,45-3.64,93.28-23.85,134.26-12.46,25.32-33.62,45.52-56.7,61.76-28.2,19.75-59.14,33.88-91.74,43.34a733,733,0,0,1-220.7-289q-13.9-32.61-24.61-66.68a721.35,721.35,0,0,1-19.24-75.44c-2.75-13.94-5.12-27.94-7.1-42.13-.51-3.58-1-7.22-1.41-10.81q-2.1-16.29-3.39-32.79-2.38-29-2.36-58.5c0-3.71.06-7.29.06-11a732.84,732.84,0,0,1,21.61-166.92c.26-1,.51-2,.77-2.94,3-11.7,6.2-23.21,9.72-34.65,6.65,2.87,13.23,5.69,19.88,8.44a836,836,0,0,0,182,52.55C553,911.77,617.45,914.9,674.22,891c39.51-16.62,72.63-45.2,110-66.36,81.38-46.16,190-52.62,265.57,2.68C1091.63,858,1119.7,904,1142,951c12.27,25.83,23.2,52.93,25.51,81.45S1162.47,1091.35,1142.33,1111.62Z" transform="translate(-258.22 -322.76)"/><path class="cls-9" d="M1299.62,1666.5A727,727,0,0,1,1176.05,1678c-2.29.1-4.58.1-6.92.1-303.39,0-563.79-184.26-675.3-447a730.29,730.29,0,0,1-58-286.33c0-3.67.05-7.29.1-11,3-206,91-391.45,230.41-522.84,9.5-8.95,19.33-17.56,29.3-26a733.24,733.24,0,0,0-161.15,97.64q-23.67,18.81-45.71,39.62C349.31,653.62,261.35,839.07,258.35,1045.07c-.05,3.67-.1,7.29-.1,11a730.37,730.37,0,0,0,58,286.34c111.51,262.73,371.91,447,675.3,447,2.34,0,4.63,0,6.92-.1a729.34,729.34,0,0,0,381.58-111.17,736.59,736.59,0,0,0,85-62.19A726.37,726.37,0,0,1,1299.62,1666.5Z" transform="translate(-258.22 -322.76)"/></svg>