<svg id="Layer_19" data-name="Layer 19" xmlns="http://www.w3.org/2000/svg" xmlns:xlink="http://www.w3.org/1999/xlink" viewBox="0 0 889.03 898.43"><defs><style>.cls-1{fill:#141328;opacity:0.6;}.cls-2{fill:url(#linear-gradient);}.cls-3{fill:#01414c;opacity:0.3;}.cls-4{fill:#fff;}.cls-4,.cls-5{opacity:0.1;}.cls-5{fill:#353535;}</style><linearGradient id="linear-gradient" x1="644.2" y1="1255.34" x2="1378.36" y2="798.94" gradientUnits="userSpaceOnUse"><stop offset="0" stop-color="#046460"/><stop offset="1" stop-color="#7baf80"/></linearGradient></defs><path class="cls-1" d="M1503.51,947.78c-.9-4.49-1.88-8.93-2.94-13.38q-2-8.53-4.41-16.92c-.56-2.26-1.2-4.52-1.92-6.74-1.51-5.24-3.12-10.4-4.9-15.53-.6-1.88-1.28-3.76-1.92-5.65a430.71,430.71,0,0,0-74.94-131.73c-1-1.28-2.07-2.52-3.17-3.76-2.3-2.75-4.63-5.47-7-8.14-1.1-1.25-2.23-2.49-3.39-3.69-5.09-5.62-10.37-11.08-15.75-16.36a429.21,429.21,0,0,0-89.87-68c-1.28-.75-2.56-1.47-3.84-2.19-.72-.37-1.4-.79-2.11-1.13q-6.16-3.39-12.44-6.55c-2-1.06-4.07-2.08-6.14-3.06-5.2-2.52-10.44-4.93-15.75-7.27a425.8,425.8,0,0,0-81.76-26.41c-.87-.19-1.74-.38-2.6-.53-4.3-.94-8.63-1.77-13-2.52l-3.28-.57c-7.88-1.32-15.83-2.45-23.81-3.31-5.09-.61-10.22-1.06-15.38-1.47-11-.83-22.08-1.25-33.27-1.25a431.13,431.13,0,0,0-44.23,2.26c-2.94.31-5.88.61-8.82,1-7.16.87-14.24,1.93-21.33,3.13a427.63,427.63,0,0,0-59.87,14.89c-1.73.56-3.47,1.13-5.2,1.73-1.39.45-2.79.94-4.18,1.47s-2.71.94-4,1.43-2.68,1-4,1.51c-1.69.6-3.39,1.24-5.08,1.88-2.6,1-5.2,2.07-7.8,3.17-3.61,1.48-7.15,3.06-10.71,4.64l.48-.42c-1.83.81-3.57,1.76-5.39,2.59q-7.08,3.26-14,6.74c-4.43,2.23-8.79,4.55-13.13,6.92-1.16.64-2.3,1.3-3.45,1.94a432,432,0,0,0-59,39.35q-13.95,11.08-26.95,23.35A431,431,0,0,0,647.4,1027.36c0,2.16-.06,4.3-.06,6.46a430.42,430.42,0,0,0,34.2,168.75c58.65,138.19,187.2,239.47,341.27,259.68,1.05.14,2.1.29,3.16.42,3.55.44,7.11.82,10.69,1.17,1,.1,2,.24,3,.33.55,0,1.1.07,1.64.12q8,.69,16.1,1.1c1,.06,2,.13,3,.18,6.33.27,12.68.45,19.08.45h2.19c.75,0,1.51,0,2.26,0a429,429,0,0,0,72.83-6.78c3.45-.61,6.8-1.47,10.21-2.17,4-.81,7.9-1.6,11.8-2.52,1.45-.34,2.93-.57,4.37-.93,3.44-.83,6.8-1.87,10.2-2.79,1.85-.5,3.7-1,5.53-1.51q8-2.28,15.81-4.87l3.88-1.29c5.62-1.91,11.2-3.91,16.71-6l1.77-.7c11.41-4.46,22.66-9.26,33.59-14.63v0q9.21-4.53,18.2-9.5c6.78-3.73,13.41-7.65,20-11.75,8.52-5.32,16.84-11,24.94-16.85.38-.26.72-.52,1.1-.83,4-2.9,8-6,11.94-9,.38-.26.72-.56,1.09-.86.91-.72,1.77-1.4,2.64-2.15q11-8.71,21.29-18.24,10.07-9.21,19.44-19c4.52-4.63,8.86-9.34,13.11-14.16a415.39,415.39,0,0,0,27.1-34.14,426.92,426.92,0,0,0,25-39.26q5.42-9.62,10.39-19.52,8.82-17.7,16-36.25c1.35-3.43,2.64-6.86,3.88-10.32a427.76,427.76,0,0,0,23.4-105.62c.19-1.73.34-3.47.45-5.2.3-3.31.53-6.67.68-10,.15-1.74.22-3.47.3-5.24q.45-9.88.45-19.89c0-2.38,0-4.83-.07-7.2A431.75,431.75,0,0,0,1503.51,947.78Z" transform="translate(-623.08 -567.59)"/><path class="cls-2" d="M1487.49,999.75q0,10.1-.51,19.92c-.09,1.79-.09,3.49-.26,5.27-.17,3.32-.42,6.73-.68,10-.08,1.7-.25,3.4-.42,5.19a431.8,431.8,0,0,1-23.41,105.61c-1.27,3.41-2.55,6.9-3.91,10.3q-7.15,18.51-16,36.26c-3.32,6.55-6.81,13.1-10.38,19.49a427.31,427.31,0,0,1-25,39.31q-12.76,17.74-27.15,34.13c-4.26,4.77-8.6,9.53-13.11,14.13-6.21,6.55-12.68,12.94-19.4,19.06-6.9,6.3-14,12.43-21.28,18.22l-2.64,2.12c-.42.34-.76.6-1.1.85-3.92,3.15-7.92,6.22-12,9.11l-1,.77c-8.17,5.87-16.42,11.57-24.93,16.85-6.55,4.17-13.19,8.08-20,11.74-6,3.32-12.09,6.56-18.21,9.53a429.62,429.62,0,0,1-87.49,31.92c-6,1.45-11.92,2.81-18,3.91-2.73.68-5.54,1.19-8.34,1.71a428.38,428.38,0,0,1-72.85,6.72,20.59,20.59,0,0,1-2.22.08h-1.87c-13.53,0-27-.68-40.17-1.87a419.82,419.82,0,0,1-58-9.36,427.15,427.15,0,0,1-129-53.28c-4.93-3.06-9.78-6.12-14.55-9.44-2.55-1.7-5.11-3.49-7.66-5.28-4.25-3-8.59-6.13-12.68-9.36h-.08c-2.39-1.79-4.77-3.75-7.15-5.62a433.23,433.23,0,0,1-128.68-169.27,425.58,425.58,0,0,1-16.68-46.64c-.68-2.13-1.28-4.26-1.88-6.3-1.36-5-2.63-10-3.83-15.15-.51-2-1-4-1.44-6v-.08c-.68-3.15-1.36-6.3-2-9.54-.17-.76-.25-1.44-.42-2.21-1.45-7.4-2.73-15-3.83-22.55-1.54-11-2.64-22.13-3.32-33.36-.17-1.62-.26-3.32-.34-5-.17-4.09-.34-8.17-.43-12.34,0-1.62-.08-3.41-.08-5.11V993.29a431.17,431.17,0,0,1,12.76-98.39,425,425,0,0,1,23-67.4c.77-1.87,1.62-3.74,2.47-5.62,1.61-3.57,3.32-7.15,5-10.72.85-1.87,1.79-3.66,2.72-5.53a440,440,0,0,1,67-97.19c6-6.56,12.08-12.85,18.47-19a25.3,25.3,0,0,1,2.3-2.21c.68-.68,1.36-1.37,2.12-2l6.64-6.12c.77-.68,1.53-1.37,2.38-2.05,3.15-2.89,6.39-5.61,9.62-8.42,2.72-2.3,5.53-4.51,8.34-6.72A423.06,423.06,0,0,1,833.2,629,433.43,433.43,0,0,1,890.73,600c2.55-1,5.19-2.12,7.75-3.15,1.7-.59,3.4-1.27,5.1-1.87,1.36-.51,2.64-1,4-1.53s2.64-.94,4-1.36c1.45-.6,2.81-1,4.17-1.53,1.79-.6,3.49-1.11,5.28-1.71A440.73,440.73,0,0,1,980.86,574c7.06-1.19,14.21-2.21,21.36-3.15,2.89-.34,5.87-.68,8.77-.93a421,421,0,0,1,44.25-2.3c11.23,0,22.3.42,33.28,1.27,5.19.43,10.29.86,15.4,1.45,7.92.85,15.92,2,23.75,3.32,1.1.17,2.21.43,3.31.6,4.34.76,8.68,1.53,13,2.46a26.13,26.13,0,0,1,2.55.6,423.13,423.13,0,0,1,81.78,26.38c3.41,1.53,6.9,3.07,10.3,4.68l5.45,2.56,6.13,3.06c4.17,2.13,8.34,4.34,12.42,6.55a16.27,16.27,0,0,1,2.13,1.2c1.28.68,2.55,1.36,3.83,2.12a431.49,431.49,0,0,1,89.87,68c5.36,5.28,10.64,10.73,15.75,16.34,1.19,1.19,2.29,2.47,3.4,3.75,2.38,2.64,4.77,5.36,7.06,8.08,1.11,1.28,2.22,2.47,3.15,3.75a432.17,432.17,0,0,1,75,131.74c.6,1.87,1.28,3.83,1.87,5.7,1.79,5.11,3.41,10.3,4.94,15.49.68,2.21,1.36,4.51,1.87,6.72,1.62,5.62,3.15,11.24,4.43,16.94,1.1,4.43,2,8.94,3,13.36a438.32,438.32,0,0,1,8.51,78.89C1487.41,995,1487.49,997.46,1487.49,999.75Z" transform="translate(-623.08 -567.59)"/><path class="cls-3" d="M1238.39,637.8c-6.47,29.62-31,51.32-54.21,70.81-20.17,16.85-40.69,33.95-64.86,44.34-15.82,6.72-33.87,11-45.44,23.91-11.07,12.43-13.53,30-17.45,46.3S1045,857,1029.54,863c-25.45,10-55.23-16.85-79.83-5-8.85,4.25-14.81,12.85-19.74,21.36-16.77,29.28-27.92,64.76-56.94,82a66.08,66.08,0,0,1-98.81-44.85c-5.7-31.23,11.07-65.28-1.78-94.3-10.56-23.74-36.94-35.32-55.66-53.36a100.41,100.41,0,0,1-14.47-18.47A420.84,420.84,0,0,1,736,708.44c6-6.56,12.08-12.85,18.47-19a25.3,25.3,0,0,1,2.3-2.21c.68-.68,1.36-1.37,2.12-2l6.64-6.12c.77-.68,1.53-1.37,2.38-2.05,3.15-2.89,6.39-5.61,9.62-8.42,2.72-2.3,5.53-4.51,8.34-6.72A423.06,423.06,0,0,1,833.2,629,433.43,433.43,0,0,1,890.73,600c2.55-1,5.19-2.12,7.75-3.15,1.7-.59,3.4-1.27,5.1-1.87,1.36-.51,2.64-1,4-1.53s2.64-.94,4-1.36c1.45-.6,2.81-1,4.17-1.53,1.79-.6,3.49-1.11,5.28-1.71A440.73,440.73,0,0,1,980.86,574c7.06-1.19,14.21-2.21,21.36-3.15,2.89-.34,5.87-.68,8.77-.93a421,421,0,0,1,44.25-2.3c11.23,0,22.3.42,33.28,1.27,5.19.43,10.29.86,15.4,1.45,7.92.85,15.92,2,23.75,3.32,1.1.17,2.21.43,3.31.6,4.34.76,8.68,1.53,13,2.46a26.13,26.13,0,0,1,2.55.6,423.13,423.13,0,0,1,81.78,26.38c3.41,1.53,6.9,3.07,10.3,4.68A71.66,71.66,0,0,1,1238.39,637.8Z" transform="translate(-623.08 -567.59)"/><path class="cls-3" d="M1140.52,1423.49c-2.73.68-5.54,1.19-8.34,1.71a428.38,428.38,0,0,1-72.85,6.72,20.59,20.59,0,0,1-2.22.08h-1.87c-13.53,0-27-.68-40.17-1.87a419.82,419.82,0,0,1-58-9.36,427.15,427.15,0,0,1-129-53.28c-4.93-3.06-9.78-6.12-14.55-9.44-2.55-1.7-5.11-3.49-7.66-5.28-4.25-3-8.59-6.13-12.68-9.36h-.08c-2.39-1.79-4.77-3.75-7.15-5.62a433.23,433.23,0,0,1-128.68-169.27,425.58,425.58,0,0,1-16.68-46.64c-.68-2.13-1.28-4.26-1.88-6.3-1.36-5-2.63-10-3.83-15.15-.51-2-1-4-1.44-6v-.08c-.68-3.15-1.36-6.3-2-9.54-.17-.76-.25-1.44-.42-2.21,21.36-14,45.61-25.45,69.19-17.79,24.93,8.17,39.74,35.49,64.59,43.66,35.06,11.49,71-19.57,107.83-16.93,6.21.42,12.42,2,17.45,5.53,7.14,5.19,10.8,13.87,16.68,20.34,17.61,19.49,49.27,15,73.7,5.19s49.87-23.4,75.4-17.11c21.45,5.28,38.13,26,38.81,48.09.17,6.89-1,14,.51,20.76,2.64,11.49,12.51,19.66,20.6,28.34s15.23,20.86,10.72,31.83c-7.66,18.9-43.49,20.43-41.36,40.77,1.1,10.55,12.93,16.08,23.32,18.38s22.38,4,28.17,12.94c8.25,12.76-2,28.76-7.58,42.89C1119.58,1373.79,1125.71,1401.45,1140.52,1423.49Z" transform="translate(-623.08 -567.59)"/><path class="cls-3" d="M1179.91,831c-1.05,16.22,9.13,30.94,12.17,46.91a55.19,55.19,0,0,1-10.71,43.9c-8.21,10.42-20,17.53-28.55,27.65-24.36,28.72-16.24,74.37,6.84,104.14,6.48,8.36,14.3,16.16,24.21,19.88,11.29,4.24,23.83,2.69,35.77,4.35,27.19,3.77,48.92,23.47,71.93,38.44,6.88,4.47,14.43,8.7,22.63,8.68,5.92,0,11.59-2.25,17.06-4.54,17.62-7.4,35.2-15.9,49-29.12,27.8-26.62,35.59-71.88,18.29-106.27-7.65-15.2-20-30.2-17.15-47,.95-5.58,3.56-10.71,5.45-16,13.61-38.39-13.23-81.66-49.31-100.58C1308.05,806,1183.7,772.68,1179.91,831Z" transform="translate(-623.08 -567.59)"/><path class="cls-4" d="M981.88,922.14c-.07,1.73-.19,3.46-.34,5.16-.3,3.31-.75,6.63-1.35,9.87-.34,1.7-.72,3.39-1.14,5.09a68.06,68.06,0,0,1-7.68,18.61c-4.49,7.31-10.4,13.49-16.88,19.18-4.75,4.22-9.8,8.1-14.85,12.1,0,0,0,0,0,0-9.79,7.65-19.44,15.38-26.41,25.21l0,0a58.15,58.15,0,0,0-3.88,6.1c-.3.57-.6,1.09-.86,1.66-8.63,17.11-8.18,37.42-7.54,56.63.34,9.65.68,19.26,1,28.9,0,1.77.11,3.51.19,5.28.07,2.82.18,5.65.3,8.48,0,1.77.11,3.5.19,5.27q1.63,47.13,3.27,94.24c.08,1.84.12,3.73.19,5.57.3,8,.57,15.87.83,23.82v0c.08,1.74.15,3.51.19,5.24q1.25,34.71,2.45,69.37c0,1.73.11,3.43.15,5.16a3.08,3.08,0,0,1,0,.6c.07,2.49.15,5,.22,7.46.08,1.7.15,3.4.19,5.13v0c.68,20.31,1.21,40.62.87,60.89a431.54,431.54,0,0,1-82.86-39.79c1.36-3.21,2.68-6.37,4-9.57.71-1.77,1.46-3.55,2.18-5.32,1.13-2.86,2.3-5.72,3.35-8.59.72-1.77,1.36-3.5,2-5.27,8.67-23.7,14.28-47.55,10.06-72.35-2.22-13.11-7.2-25.54-11.83-38.05-.79-2.11-1.54-4.19-2.3-6.3-1.62-4.44-3.13-8.93-4.37-13.48v0c-.49-1.7-.94-3.43-1.36-5.16,0-.23-.11-.49-.15-.72-6.33-27.77-2.14-56.78,3-84.89,0,0,0,0,0,0,.23-1,.41-2,.6-3,0-.15,0-.27.08-.42,2.3-12.35,4.71-24.71,7.23-37,.27-1.47.57-2.94.91-4.41q8.76-42.66,19.4-84.92v0c0-.15.08-.27.12-.38.33-1.47.71-2.9,1.09-4.37,4.07-15.9,8.29-31.88,11-48,.11-.57.19-1.09.3-1.62v-.11A196.89,196.89,0,0,0,876.15,904c0-4.67-.11-9.3-.49-13.9-.11-1.88-.3-3.77-.53-5.61-.56-5.28-1.35-10.52-2.41-15.75q-.62-3.12-1.35-6.22v0c-7-29.65-20.76-58-36.66-84.33-.8-1.35-1.63-2.67-2.45-4-1.81-2.9-3.62-5.8-5.47-8.7v0c-9.91-15.67-20.31-31.12-29.24-47.25,0,0,0,0,0,0-2.33-4.22-4.56-8.44-6.63-12.77a187.39,187.39,0,0,1-11-27.39c-1-3.06-1.74-6.18-2.45-9.31q4.13-3.45,8.36-6.78a430.8,430.8,0,0,1,104.83-61.8c2.78,11.68,6.29,23.25,9.83,34.71q24.81,80.54,52.79,160c7.42,21,15,42.2,20.57,63.75.49,2,1,4,1.43,6,1.1,4.56,2.08,9.16,2.91,13.76.37,1.92.71,3.88,1,5.84a208.39,208.39,0,0,1,2.64,25.24C982.07,913.62,982.07,917.88,981.88,922.14Z" transform="translate(-623.08 -567.59)"/><path class="cls-4" d="M1406.87,1251.12a416.94,416.94,0,0,1-27.1,34.13c-4.25,4.83-8.59,9.54-13.11,14.17q-9.37,9.84-19.44,19-10.35,9.49-21.29,18.24c-1.36-1.14-2.71-2.3-4.07-3.47-.56-.49-1.13-1-1.69-1.43-6.18-5.39-12.29-10.85-18.39-16.32-.57-.53-1.17-1-1.73-1.54-11.2-10.06-22.42-20.09-34.22-29.39-4.78-3.77-9.68-7.43-14.62-11a3.1,3.1,0,0,0-.71-.49c-2-1.47-4-2.9-6-4.25a2.23,2.23,0,0,0-.53-.38c-36.89-25.59-77-46.8-111.57-75.55-1.35-1.05-2.71-2.18-4-3.35l-.15-.12c-1.28-1.09-2.52-2.18-3.77-3.35s-2.52-2.34-3.73-3.54a53.7,53.7,0,0,1-8.85-11.34c-5.39-9.61-6.41-20.65-5.35-31.77.15-1.77.37-3.58.67-5.35a8.75,8.75,0,0,1,.19-1.32c.27-1.84.61-3.65,1-5.46.64-3,1.36-6,2.15-9,11.61-43.52,32.86-84.06,49.21-126,.79-2.07,1.58-4.1,2.37-6.18.68-1.88,1.4-3.73,2-5.61s1.43-3.92,2.11-5.92a302.54,302.54,0,0,0,11.79-43,186.77,186.77,0,0,0,3.51-33.91c0-1.73,0-3.46-.08-5.2-.11-3.31-.34-6.63-.72-9.91-.18-1.77-.41-3.54-.67-5.27a108.4,108.4,0,0,0-3.09-14.17,121.73,121.73,0,0,0-8.37-20.72c-.94-1.92-2-3.81-3-5.65-.34-.65-.72-1.29-1.1-1.93q-1.63-3-3.5-5.87c-3-5-6.37-9.88-9.76-14.66-23.47-33.08-52.33-63.75-68.24-100.57-.52-1.24-1-2.48-1.54-3.77-1.55-3.84-2.94-7.72-4.18-11.71-.19-.64-.42-1.32-.61-2s-.37-1.32-.52-2a134.83,134.83,0,0,1-4.07-51.62c.19-1.73.41-3.5.68-5.2.49-3.31,1.09-6.55,1.84-9.8.38-1.73.79-3.46,1.28-5.16.68-2.6,1.44-5.2,2.3-7.76.6-1.81,1.24-3.58,1.92-5.35,1.32-3.5,2.83-7,4.49-10.36v0c.9-1.88,1.88-3.73,2.9-5.58a118,118,0,0,1,11.11-16.8c1.7-2.15,3.47-4.26,5.32-6.26,8,.87,15.94,2,23.81,3.32l3.28.57c4.37.75,8.7,1.58,13,2.52.86.15,1.73.34,2.6.53a425.1,425.1,0,0,1,81.76,26.41c-9.08,10.44-21.78,17.41-31.54,27.32a4.32,4.32,0,0,1-.37.38l0,0a59.44,59.44,0,0,0-7.12,8.86,0,0,0,0,0,0,0,67.59,67.59,0,0,0-8.44,17.1v0a63,63,0,0,0-1.81,6.37,70.16,70.16,0,0,0,3.2,43c6.26,15,17.22,26.87,28.75,38.47,1.93,2,3.88,4,5.81,5.92,3.46,3.43,6.85,6.89,10.09,10.47,1.62,1.74,3.17,3.47,4.64,5.24,1.66,1.85,3.2,3.77,4.67,5.69,14.77,19.29,22.91,41.71,26.57,65.45.18,1.24.37,2.49.56,3.73,0,.49.11,1,.19,1.47.15,1.24.3,2.45.41,3.69a249.41,249.41,0,0,1,1.06,37.64c-.08,1.74-.19,3.43-.3,5.17-.19,3.27-.42,6.59-.72,9.87-.15,1.73-.34,3.43-.49,5.16-1.43,13.71-3.62,27.35-6.18,40.62-.45,2.37-.94,4.75-1.39,7.16-.38,1.77-.76,3.58-1.1,5.38a7.7,7.7,0,0,0-.18.91c-.38,1.81-.76,3.58-1.13,5.39-7.5,36.09-15.68,72.27-16.36,108.93-.07.83-.07,1.62-.07,2.45s0,1.88,0,2.82v2.45c0,.83,0,1.66,0,2.49.83,42.5,14.69,87,45.78,115.19a13.39,13.39,0,0,0,1.17,1c2.67,2.38,5.46,4.6,8.36,6.71,1.28.94,2.6,1.81,3.92,2.67a8.12,8.12,0,0,0,.72.46C1329.74,1230.58,1371.37,1234.24,1406.87,1251.12Z" transform="translate(-623.08 -567.59)"/><path class="cls-4" d="M1264.25,1378.17q-9,5-18.2,9.5v0a428,428,0,0,1-87.49,31.84,95.8,95.8,0,0,0-10.25-12.85c-9.87-10.32-22.23-17.82-34.44-25.2-10.85-6.56-22.23-13.3-34.85-14.25-21.67-1.54-41.07,14.7-51.74,33.61-5.23,9.27-8.93,19.14-12.24,29.28a431.89,431.89,0,0,1-57.92-9.34q8.71-39.63,17.41-79.21c2-9.34,4.22-19,10-26.64,8.36-11,23.09-15.82,37-15.56,8.78.19,17.37,2.11,25.81,4.64a10.81,10.81,0,0,1,1.51.45l2.22.68,1.47.45q4.7,1.58,9.38,3.2,43.41,15,86.82,30.11c6.78,2.33,13.67,4.71,20.61,6.71,3.2.9,6.4,1.73,9.64,2.48.6.12,1.24.27,1.85.38,3.31.68,6.67,1.24,10,1.62h0a83.5,83.5,0,0,0,13.34.53c7.65-.3,15.37-1.77,22.91-.49,14,2.41,24.49,13.64,33.83,24.26C1262.06,1375.65,1263.16,1376.89,1264.25,1378.17Z" transform="translate(-623.08 -567.59)"/><path class="cls-4" d="M1487.46,999.79q0,10-.45,19.9c-.08,1.77-.15,3.5-.3,5.24-.15,3.35-.38,6.7-.68,10-.11,1.73-.26,3.47-.45,5.2a427.13,427.13,0,0,1-23.4,105.61c-1.24,3.47-2.52,6.9-3.88,10.33q-29.11-18.93-57-39.64c-24.83-18.43-49.4-38.32-66.28-64.21a123.59,123.59,0,0,1-15.94-35.23c-.41-1.35-.75-2.71-1-4.1a102.85,102.85,0,0,1-2.19-13c-.15-1.62-.3-3.28-.37-4.9a83.65,83.65,0,0,1,4.07-31.12c.9-2.68,1.92-5.28,3-7.84.56-1.17,1.09-2.34,1.66-3.51l.9-1.8c.57-1.13,1.17-2.27,1.81-3.36,6.86-12.66,15.6-24.49,22.27-37.07.9-1.78,1.81-3.55,2.63-5.32a88.91,88.91,0,0,0,4-10.17q.84-2.6,1.47-5.31c.37-1.59.67-3.17.94-4.79,2.45-15.67-1.21-31.08-5.81-46.49a6,6,0,0,0-.22-.8c-.42-1.39-.83-2.78-1.28-4.18a6.9,6.9,0,0,0-.23-.83c-2.26-7.38-4.56-14.77-6.33-22.19-4.6-19.22-5.08-43.6-1.24-67.82.3-1.85.6-3.73,1-5.58.71-4,1.58-8,2.6-11.94.45-2,1-3.89,1.54-5.81a169.23,169.23,0,0,1,10.18-27.24c5.38,5.28,10.66,10.74,15.75,16.35,1.16,1.21,2.29,2.45,3.39,3.7q3.61,4,7,8.13c1.1,1.25,2.19,2.49,3.17,3.77a430.48,430.48,0,0,1,74.94,131.73c.64,1.88,1.32,3.77,1.92,5.65,1.77,5.13,3.4,10.29,4.9,15.53.72,2.22,1.36,4.48,1.92,6.74q2.43,8.37,4.41,16.92,1.59,6.66,2.94,13.37a432,432,0,0,1,8.52,78.87C1487.42,995,1487.46,997.42,1487.46,999.79Z" transform="translate(-623.08 -567.59)"/><path class="cls-5" d="M1236.82,1359.57a429,429,0,0,1-72.82,6.77c-1.35.06-2.7.06-4.08.06-178.81,0-332.28-108.6-398-263.45a430.46,430.46,0,0,1-34.2-168.75c0-2.16,0-4.3.06-6.46a430.92,430.92,0,0,1,135.8-308.15c5.6-5.28,11.39-10.35,17.27-15.31a431.87,431.87,0,0,0-95,57.54q-13.95,11.08-26.94,23.35a430.92,430.92,0,0,0-135.8,308.15c0,2.16,0,4.29,0,6.46a430.45,430.45,0,0,0,34.19,168.75C723,1323.38,876.46,1432,1055.27,1432c1.38,0,2.73,0,4.08-.06a429.78,429.78,0,0,0,224.89-65.52,434.13,434.13,0,0,0,50.11-36.65A428.24,428.24,0,0,1,1236.82,1359.57Z" transform="translate(-623.08 -567.59)"/><ellipse class="cls-4" cx="1251.4" cy="842.87" rx="106.76" ry="157.93" transform="matrix(0.84, -0.55, 0.55, 0.84, -880.35, 257.15)"/><ellipse class="cls-4" cx="1338.59" cy="1076.49" rx="53.98" ry="79.85" transform="translate(-994.23 343.28) rotate(-33.27)"/></svg>