<svg id="Layer_29" data-name="Layer 29" xmlns="http://www.w3.org/2000/svg" viewBox="0 0 371.81 1502.71"><defs><style>.cls-1,.cls-6{fill:#fff;}.cls-1{opacity:0.82;}.cls-2{fill:#ff003d;}.cls-3{opacity:0.2;}.cls-4{fill:#371a45;}.cls-5{opacity:0.7;}.cls-7{fill:#22a7f0;}.cls-8{opacity:0.3;}.cls-9{fill:#2585ef;}.cls-10{fill:#d8d8d8;}.cls-11{fill:#69d1ff;}.cls-12{fill:#898989;}.cls-13{opacity:0.5;}</style></defs><polygon class="cls-1" points="184.35 1502.71 283.64 650.75 85.05 650.75 184.35 1502.71"/><polygon class="cls-1" points="67.17 1109.71 122.11 638.31 12.23 638.31 67.17 1109.71"/><polygon class="cls-1" points="298.7 1109.71 353.64 638.31 243.76 638.31 298.7 1109.71"/><path class="cls-2" d="M-771.75,487.1s51.65-3.11,63.3,18c7.26,13.18.34,55.7-1.69,73.79-1.63,14.47,7,13.5,7,13.5s40-32.67,55.21-75.29h0c6.51-18.22,8.49-38.26.89-58.35-7.75-20.49-24.14-33.48-41.19-41.73-26.37-12.74-54.32-14.09-54.32-14.09Z" transform="translate(1007.82 180.22)"/><g class="cls-3"><path class="cls-4" d="M-771.75,487.1s51.65-3.11,63.3,18c7.26,13.18.34,55.7-1.69,73.79-1.63,14.47,7,13.5,7,13.5s40-32.67,55.21-75.29c-.66.69-25.12,26-40.23,17.61-7.88-4.38-3.13-22.43-9.25-38.45s-6.89-33.59-1.19-49.76L-688.24,417c-26.37-12.74-54.32-14.09-54.32-14.09Z" transform="translate(1007.82 180.22)"/></g><path class="cls-4" d="M-703.5,598.5a12.1,12.1,0,0,1-8.56-3.56c-3.58-3.58-5-9.2-4.13-16.71.3-2.67.71-5.86,1.16-9.4,2.11-16.64,6.5-51.26,1.25-60.79-8-14.49-45.2-15.61-57.6-14.86a6.13,6.13,0,0,1-5.22-2.4,6.13,6.13,0,0,1-.9-5.67l29.19-84.18a6.05,6.05,0,0,1,6-4.08c3.26.16,80,4.49,100.91,59.74,26.62,70.35-54.5,137.69-58,140.52a6.08,6.08,0,0,1-3.17,1.34A9.49,9.49,0,0,1-703.5,598.5Zm0-12.16h0Zm-59.67-105.52c16.51.08,49.69,2.65,60,21.35,6.62,12,3.85,39.1.17,68.19-.44,3.48-.84,6.61-1.14,9.23a16.74,16.74,0,0,0,.1,5.47c14.14-12.7,72.08-69.16,51.26-124.16-15.43-40.75-69.61-49.72-85.63-51.49Z" transform="translate(1007.82 180.22)"/><g class="cls-5"><path class="cls-6" d="M-673.81,438.8s22,19.08,17.73,52.67C-656.08,491.47-670.59,466.88-673.81,438.8Z" transform="translate(1007.82 180.22)"/></g><path class="cls-2" d="M-872.07,487.1s-51.65-3.11-63.3,18c-7.26,13.18-.34,55.7,1.69,73.79,1.62,14.47-7,13.5-7,13.5s-40-32.67-55.21-75.29h0c-6.51-18.22-8.5-38.26-.89-58.35,7.74-20.49,24.14-33.48,41.19-41.73,26.36-12.74,54.32-14.09,54.32-14.09Z" transform="translate(1007.82 180.22)"/><g class="cls-3"><path class="cls-4" d="M-872.07,487.1s-51.65-3.11-63.3,18c-7.26,13.18-.34,55.7,1.69,73.79,1.62,14.47-7,13.5-7,13.5s-40-32.67-55.21-75.29c.66.69,25.12,26,40.23,17.61,7.89-4.38,3.14-22.43,9.25-38.45s6.9-33.59,1.2-49.76L-955.58,417c26.36-12.74,54.32-14.09,54.32-14.09Z" transform="translate(1007.82 180.22)"/></g><path class="cls-4" d="M-940.33,598.5a9.66,9.66,0,0,1-1,0,6,6,0,0,1-3.16-1.34c-3.47-2.83-84.59-70.17-58-140.52,20.91-55.25,97.65-59.58,100.9-59.74a6.06,6.06,0,0,1,6,4.08l29.19,84.18a6.07,6.07,0,0,1-.9,5.67,6.11,6.11,0,0,1-5.21,2.4c-12.41-.75-49.63.4-57.6,14.86-5.25,9.52-.86,44.15,1.25,60.79.45,3.54.85,6.73,1.15,9.4.84,7.51-.54,13.13-4.12,16.71A12.12,12.12,0,0,1-940.33,598.5Zm34.87-189.09c-16,1.77-70.2,10.74-85.63,51.49-20.81,55,37.12,111.46,51.26,124.16a16.74,16.74,0,0,0,.1-5.47c-.29-2.62-.69-5.75-1.13-9.23-3.69-29.09-6.45-56.19.16-68.19,10.32-18.7,43.5-21.27,60-21.35Z" transform="translate(1007.82 180.22)"/><path class="cls-7" d="M-916,464.09l6.19,29a36.44,36.44,0,0,0,25.45,27.38h0a218.74,218.74,0,0,0,117.57,1.34h0A36.46,36.46,0,0,0-740.75,495l6.85-28.84Z" transform="translate(1007.82 180.22)"/><g class="cls-8"><path class="cls-6" d="M-819.95,529.16q-3.37,0-6.73,0A218.44,218.44,0,0,0-780.52,522a36.49,36.49,0,0,0,16.74-9.79,36.58,36.58,0,0,0,9.34-17l6.84-28.83,6.71.09,7-.29L-740.76,495a36.43,36.43,0,0,1-9.33,17,36.39,36.39,0,0,1-16.73,9.8A219.26,219.26,0,0,1-819.95,529.16Z" transform="translate(1007.82 180.22)"/></g><path class="cls-9" d="M-819.95,529.16a219,219,0,0,1-64.44-8.71,36.46,36.46,0,0,1-25.45-27.37l-6.19-29,95.31,1.08c-6.21,3.35-14.21,10.77-14,26.79.39,26.12,25.59,36.73,25.59,36.73l.09,0C-812.65,529-816.3,529.1-819.95,529.16Z" transform="translate(1007.82 180.22)"/><path class="cls-6" d="M-665.19,303.25c-.86,4.35-1.77,8.63-2.71,12.8a462.43,462.43,0,0,1-22.69,72.85c-2.94,7.25-5.91,14-8.86,20.21-18,38.06-34.45,57.06-34.45,57.06a262,262,0,0,1-34.17,9.66l-1.37.29a262.07,262.07,0,0,1-142-10.32c-1.54-.55-3.09-1.12-4.62-1.72,0,0-45.89-55.3-65-164.53-7.34-41.87-10.73-91.67-6.1-149.31,15.82-197,116.42-291,154.74-320a24,24,0,0,1,29.32.31c23.51,18.65,70.82,63.28,105.74,142.34,15.56,35.23,28.67,77.27,36.1,126.9,2.09,13.9,3.74,28.39,4.84,43.48.29,3.54.52,7.13.73,10.73C-652.36,211.81-656.9,261.55-665.19,303.25Z" transform="translate(1007.82 180.22)"/><path class="cls-10" d="M-666.33,303.25c-.86,4.35-1.77,8.63-2.71,12.8a462.43,462.43,0,0,1-22.69,72.85q-4.42,10.88-8.86,20.21c-18,38.06-34.45,57.06-34.45,57.06a262.45,262.45,0,0,1-34.17,9.66l-.23.29a262.07,262.07,0,0,1-142-10.32c-2.38-2.85-17.63-21.74-34.13-56.69q-4.43-9.35-8.87-20.21a464.54,464.54,0,0,1-22.69-72.85c-.93-4.17-1.85-8.45-2.7-12.8,39.54,89.17,111.28,87.05,101.21,42.29-3.26-14.45-35.57-36.76-35.57-120.66l91.09-15.26L-732,224.88c0,83.9-32.32,106.21-35.57,120.66C-777.61,390.3-705.88,392.42-666.33,303.25Z" transform="translate(1007.82 180.22)"/><path class="cls-2" d="M-687.48-2.86A630.79,630.79,0,0,0-793.21-17.48,632,632,0,0,0-951.73-5.88c37.42-93.42,93-144,119.33-163.85a24,24,0,0,1,29.34.33c.65.51,1.33,1.05,2,1.61C-774.5-146.27-721.87-94.74-687.48-2.86Z" transform="translate(1007.82 180.22)"/><g class="cls-3"><path class="cls-4" d="M-793.21-17.48c17.54-57.28,3.73-116.42-7.84-150.31,26.55,21.52,79.18,73.05,113.57,164.93A630.79,630.79,0,0,0-793.21-17.48Z" transform="translate(1007.82 180.22)"/></g><path class="cls-4" d="M-687.48,3.22a6.18,6.18,0,0,1-1.34-.15,622.22,622.22,0,0,0-261.71-3A6.09,6.09,0,0,1-956.41-2a6.08,6.08,0,0,1-1-6.15c36.94-92.23,91.1-143.28,120.09-165.51a31.68,31.68,0,0,1,39.21.45C-769.59-150.32-716.61-98-681.78-5a6.09,6.09,0,0,1-1.11,6.13A6.1,6.1,0,0,1-687.48,3.22ZM-826.57-24.55A635.58,635.58,0,0,1-697.24-11.2C-731-95-779.27-142.49-805.7-163.72a19.54,19.54,0,0,0-24.19-.27c-26.9,20.62-76.26,67-111.9,150A636.59,636.59,0,0,1-826.57-24.55Z" transform="translate(1007.82 180.22)"/><path class="cls-4" d="M-822.1,487.56l-3.11,0a267.37,267.37,0,0,1-93-17.77,6.11,6.11,0,0,1-2.5-1.79c-.92-1.12-22.83-27.86-42.82-80.66-18.35-48.45-38.38-129-29.66-237.56,4.57-56.91,16.61-110,35.79-157.9a6.07,6.07,0,0,1,4.66-3.74A634.39,634.39,0,0,1-686.14-8.8,6.09,6.09,0,0,1-681.78-5c18.08,48.29,28.91,101.68,32.18,158.68,6.25,108.73-15.62,188.8-35.06,236.82-21.19,52.33-43.7,78.57-44.64,79.66a6.13,6.13,0,0,1-2.55,1.74A267,267,0,0,1-822.1,487.56ZM-912.29,459a255.34,255.34,0,0,0,87.22,16.37A254.41,254.41,0,0,0-737.52,461c4.5-5.6,23.84-31,41.83-75.67,18.85-46.77,40-124.81,34-230.95-3.13-54.57-13.32-105.69-30.29-152A622.08,622.08,0,0,0-947.32-.56c-18,45.94-29.37,96.82-33.75,151.3-8.51,106,10.9,184.47,28.68,231.66C-935.42,427.43-916.67,453.3-912.29,459Z" transform="translate(1007.82 180.22)"/><path class="cls-4" d="M-823.2,535.26a224.83,224.83,0,0,1-62.89-9,42.45,42.45,0,0,1-29.7-31.95l-6.19-29a6.08,6.08,0,0,1,4.68-7.22,6.08,6.08,0,0,1,7.22,4.68l6.19,29a30.32,30.32,0,0,0,21.2,22.81,212.69,212.69,0,0,0,114.3,1.3,30.31,30.31,0,0,0,21.72-22.32l6.85-28.83a6.08,6.08,0,0,1,7.33-4.51,6.07,6.07,0,0,1,4.51,7.32l-6.85,28.84a42.5,42.5,0,0,1-30.42,31.26A225.11,225.11,0,0,1-823.2,535.26Z" transform="translate(1007.82 180.22)"/><path class="cls-7" d="M-731.83,231a92.45,92.45,0,0,1-83.28,66.38,92.46,92.46,0,0,1-93.19-63.08h0a92.4,92.4,0,0,1-4.53-23.7A92.4,92.4,0,0,1-826,112.91a92.41,92.41,0,0,1,97.73,86.78A92.59,92.59,0,0,1-731.83,231Z" transform="translate(1007.82 180.22)"/><g class="cls-5"><path class="cls-6" d="M-729,192.49a95.4,95.4,0,0,0-97.2-68.42,95.37,95.37,0,0,0-85.9,68.42A92.39,92.39,0,0,1-826,112.91,92.41,92.41,0,0,1-729,192.49Z" transform="translate(1007.82 180.22)"/></g><path class="cls-9" d="M-731.83,231a92.45,92.45,0,0,1-83.28,66.38,92.46,92.46,0,0,1-93.19-63.08s25.22,17.44,22.57-23.71H-758.1c-2.65,41.15,22.58,23.71,22.58,23.71Z" transform="translate(1007.82 180.22)"/><path class="cls-4" d="M-820.71,303.67A97.81,97.81,0,0,1-886,278.82,97.86,97.86,0,0,1-918.91,211a98.61,98.61,0,0,1,92.5-104.16,97.86,97.86,0,0,1,71.24,24.68,97.84,97.84,0,0,1,32.92,67.82,98.62,98.62,0,0,1-92.5,104.17C-816.74,303.62-818.73,303.67-820.71,303.67Zm.25-184.85c-1.74,0-3.48.05-5.23.15a86.45,86.45,0,0,0-81.08,91.3,85.78,85.78,0,0,0,28.86,59.45,85.83,85.83,0,0,0,62.44,21.63,86.43,86.43,0,0,0,81.08-91.3,85.75,85.75,0,0,0-28.86-59.44A85.65,85.65,0,0,0-820.46,118.82Z" transform="translate(1007.82 180.22)"/><circle class="cls-11" cx="-821.7" cy="204.14" r="64.36" transform="translate(622.8 -341.02) rotate(-45)"/><path class="cls-4" d="M-821.77,257.86a53.3,53.3,0,0,1-35.6-13.56,53.35,53.35,0,0,1-18-37,53.36,53.36,0,0,1,13.46-38.85,53.38,53.38,0,0,1,37-18A53.34,53.34,0,0,1-786,164a53.34,53.34,0,0,1,17.95,37,53.36,53.36,0,0,1-13.46,38.85,53.39,53.39,0,0,1-37,18C-819.61,257.83-820.69,257.86-821.77,257.86Zm.14-95.28c-.83,0-1.68,0-2.52.08a41.28,41.28,0,0,0-28.63,13.88,41.26,41.26,0,0,0-10.4,30.05,41.24,41.24,0,0,0,13.88,28.62,41.33,41.33,0,0,0,30.06,10.41,41.28,41.28,0,0,0,28.62-13.88,41.3,41.3,0,0,0,10.41-30.06,41.29,41.29,0,0,0-13.89-28.62A41.23,41.23,0,0,0-821.63,162.58Z" transform="translate(1007.82 180.22)"/><path class="cls-4" d="M-821.79,274.58a69.93,69.93,0,0,1-46.68-17.77A70,70,0,0,1-892,208.31a70,70,0,0,1,17.65-50.95,70,70,0,0,1,48.5-23.54A70.52,70.52,0,0,1-751.38,200,70,70,0,0,1-769,250.91a70,70,0,0,1-48.5,23.54h0C-819,274.54-820.38,274.58-821.79,274.58Zm3.54-12.27.36,6.07-.36-6.07a57.86,57.86,0,0,0,40.12-19.48,57.87,57.87,0,0,0,14.6-42.14A57.85,57.85,0,0,0-783,160.57,57.86,57.86,0,0,0-825.15,146a57.9,57.9,0,0,0-40.12,19.48,57.89,57.89,0,0,0-14.6,42.15,57.9,57.9,0,0,0,19.48,40.12A57.83,57.83,0,0,0-818.25,262.31Z" transform="translate(1007.82 180.22)"/><path class="cls-12" d="M-757.46,200.33a64.36,64.36,0,0,0-68-60.44A64.37,64.37,0,0,0-885.95,208a64.37,64.37,0,0,0,68.06,60.43A64.34,64.34,0,0,0-757.46,200.33Zm-61.42,51.37A47.64,47.64,0,0,1-869.25,207a47.63,47.63,0,0,1,44.74-50.38,47.63,47.63,0,0,1,50.37,44.73A47.65,47.65,0,0,1-818.88,251.7Z" transform="translate(1007.82 180.22)"/><path class="cls-4" d="M-821.74,274.58A70.54,70.54,0,0,1-892,208.31a70.52,70.52,0,0,1,66.15-74.49A70.51,70.51,0,0,1-751.39,200,70,70,0,0,1-769,250.91a70,70,0,0,1-48.5,23.54C-818.94,274.53-820.34,274.58-821.74,274.58Zm.07-128.72c-1.15,0-2.31,0-3.48.1a58.36,58.36,0,0,0-54.73,61.63,58.38,58.38,0,0,0,61.63,54.72,57.86,57.86,0,0,0,40.12-19.48,57.87,57.87,0,0,0,14.6-42.14h0A58.35,58.35,0,0,0-821.67,145.86Zm-.1,112a53.3,53.3,0,0,1-35.6-13.56,53.35,53.35,0,0,1-18-37,53.36,53.36,0,0,1,13.46-38.85,53.38,53.38,0,0,1,37-18A53.34,53.34,0,0,1-786,164a53.34,53.34,0,0,1,17.95,37,53.36,53.36,0,0,1-13.46,38.85,53.39,53.39,0,0,1-37,18C-819.61,257.83-820.69,257.86-821.77,257.86Zm.14-95.28c-.83,0-1.68,0-2.52.08a41.28,41.28,0,0,0-28.63,13.88,41.26,41.26,0,0,0-10.4,30.05,41.24,41.24,0,0,0,13.88,28.62,41.33,41.33,0,0,0,30.06,10.41,41.28,41.28,0,0,0,28.62-13.88,41.3,41.3,0,0,0,10.41-30.06,41.29,41.29,0,0,0-13.89-28.62A41.23,41.23,0,0,0-821.63,162.58Z" transform="translate(1007.82 180.22)"/><path class="cls-4" d="M-821.77,257.86a53.3,53.3,0,0,1-35.6-13.56,53.35,53.35,0,0,1-18-37,53.36,53.36,0,0,1,13.46-38.85,53.38,53.38,0,0,1,37-18A53.34,53.34,0,0,1-786,164a53.34,53.34,0,0,1,17.95,37,53.36,53.36,0,0,1-13.46,38.85,53.39,53.39,0,0,1-37,18C-819.61,257.83-820.69,257.86-821.77,257.86Zm.14-95.28c-.83,0-1.68,0-2.52.08a41.28,41.28,0,0,0-28.63,13.88,41.26,41.26,0,0,0-10.4,30.05,41.24,41.24,0,0,0,13.88,28.62,41.33,41.33,0,0,0,30.06,10.41,41.28,41.28,0,0,0,28.62-13.88,41.3,41.3,0,0,0,10.41-30.06,41.29,41.29,0,0,0-13.89-28.62A41.23,41.23,0,0,0-821.63,162.58Z" transform="translate(1007.82 180.22)"/><path class="cls-7" d="M-792.75,498.69c0,51.76-29.16,93.73-29.16,93.73s-29.16-42-29.16-93.73S-821.91,405-821.91,405-792.75,446.92-792.75,498.69Z" transform="translate(1007.82 180.22)"/><path class="cls-2" d="M-792.75,498.69c0,51.76-29.16,93.73-29.16,93.73s-29.16-42-29.16-93.73S-821.91,405-821.91,405-792.75,446.92-792.75,498.69Z" transform="translate(1007.82 180.22)"/><g class="cls-5"><path class="cls-6" d="M-799.85,452.9l-2.53,1.59s-10-24-16.66-30.61c-.92,34.57-2.87,76.72-2.87,76.72s-2-42.14-2.88-76.71c-6.65,6.6-16.66,30.6-16.66,30.6l-2.53-1.6a195.17,195.17,0,0,1,18.9-42.9c2-3.25,3.17-5,3.17-5s1.22,1.75,3.16,5A195.38,195.38,0,0,1-799.85,452.9Z" transform="translate(1007.82 180.22)"/></g><g class="cls-3"><path class="cls-4" d="M-792.76,498.68c0,51.78-29.15,93.73-29.15,93.73s-29.16-41.95-29.16-93.73a148.47,148.47,0,0,1,2.2-25.18c6.81,39.54,15,80.3,27,80.3S-801.75,513-795,473.5A148.47,148.47,0,0,1-792.76,498.68Z" transform="translate(1007.82 180.22)"/></g><path class="cls-4" d="M-821.91,598.5a6.1,6.1,0,0,1-5-2.61c-1.23-1.78-30.25-44.14-30.25-97.2s29-95.42,30.25-97.2a6.07,6.07,0,0,1,5-2.61,6.07,6.07,0,0,1,5,2.61c1.24,1.78,30.25,44.14,30.25,97.2s-29,95.42-30.25,97.2A6.09,6.09,0,0,1-821.91,598.5Zm0-181.84C-830,431-845,462.58-845,498.69s15,67.71,23.07,82c8.07-14.35,23.08-45.92,23.08-82S-813.84,431-821.91,416.66Z" transform="translate(1007.82 180.22)"/><g class="cls-5"><path class="cls-6" d="M-970,438.8s-22,19.08-17.74,52.67C-987.75,491.47-973.24,466.88-970,438.8Z" transform="translate(1007.82 180.22)"/></g><g class="cls-5"><path class="cls-6" d="M-856.88,204.14c-3.73-2.66-.2-19.63,12.8-30.16,13.46-10.92,31.79-8.46,31.53-3.73-.35,6.5-10.51,4.63-24.38,15.62C-845.43,192.6-853.15,206.79-856.88,204.14Z" transform="translate(1007.82 180.22)"/></g><g class="cls-5"><path class="cls-6" d="M-854.38,223.82c-5.11-5.27-6-13.25-1.56-14.82,5.21-1.82,9.43,4.78,13.38,9C-835.72,225.41-845.7,232.77-854.38,223.82Z" transform="translate(1007.82 180.22)"/></g><path class="cls-4" d="M-812.54,119.16a6.09,6.09,0,0,1-6.09-6.08V-18.21a6.09,6.09,0,0,1,6.09-6.09,6.09,6.09,0,0,1,6.08,6.09V113.08A6.08,6.08,0,0,1-812.54,119.16Z" transform="translate(1007.82 180.22)"/><circle class="cls-4" cx="-795.52" cy="0.49" r="4.06" transform="translate(394.6 -593.64) rotate(-76.72)"/><circle class="cls-4" cx="-795.52" cy="52.08" r="4.06" transform="translate(344.39 -553.9) rotate(-76.72)"/><circle class="cls-4" cx="212.3" cy="283.89" r="4.06"/><g class="cls-13"><path class="cls-6" d="M-840.42-139.23c-22.34,13-63.09,70.34-49.51,88.76C-877-33-818.08-152.21-840.42-139.23Z" transform="translate(1007.82 180.22)"/></g></svg>