<svg id="Layer_27" data-name="Layer 27" xmlns="http://www.w3.org/2000/svg" viewBox="0 0 1150.86 1150.86"><defs><style>.cls-1{fill:#fc611f;}.cls-2{fill:#14b0bf;}.cls-3{fill:#fdc00f;}.cls-4{fill:#7e3110;}.cls-5{fill:#d5f2ff;}</style></defs><polygon class="cls-1" points="138.44 451.53 0 313.06 313.09 0 451.56 138.46 138.44 451.53"/><polygon class="cls-1" points="292.36 605.46 153.92 466.99 467 153.92 605.48 292.36 292.36 605.46"/><polygon class="cls-1" points="683.86 996.94 545.45 858.48 858.5 545.41 996.98 683.87 683.86 996.94"/><rect class="cls-1" x="1152.21" y="1230.07" width="442.76" height="195.8" transform="translate(-985.2 957.17) rotate(-44.99)"/><path class="cls-2" d="M692.49,1181.71c-5.26,5.25,19.15,38.17,54.52,73.53s68.28,59.78,73.54,54.52S801.4,1271.6,766,1236.24,697.71,1176.45,692.49,1181.71Z" transform="translate(-448.49 -402.88)"/><path class="cls-2" d="M1235.26,767c52.1,52.1,90.21,101,94,119.26l3.84-29.2,0,0h.06c7.67-7.7-28.11-56-80-107.87s-100.17-87.69-107.88-80h0L1116,673C1134.15,676.72,1183.13,714.87,1235.26,767Z" transform="translate(-448.49 -402.88)"/><path class="cls-3" d="M1328.37,892.58h0c9-9-32.72-65.19-93.11-125.58s-116.61-102.11-125.61-93.13l-187,187,218.75,218.73Z" transform="translate(-448.49 -402.88)"/><path class="cls-3" d="M1032.89,969.39c-56.2-56.17-108.43-94.92-116.81-86.59v0L727.15,1071.7l203.37,203.39,188.93-188.94C1127.77,1077.81,1089,1025.54,1032.89,969.39Z" transform="translate(-448.49 -402.88)"/><rect class="cls-4" x="663.14" y="765.8" width="33.94" height="21.87" transform="translate(-798.59 306.35) rotate(-45.05)"/><rect class="cls-4" x="810.76" y="618.18" width="33.92" height="21.85" transform="translate(-650.97 366.16) rotate(-44.97)"/><polygon class="cls-4" points="554.57 377.57 537.42 360.42 513.46 384.4 530.6 401.54 554.57 377.57"/><rect class="cls-4" x="821.74" y="917.79" width="33.93" height="35.11" transform="translate(-864.24 464.34) rotate(-45.01)"/><polygon class="cls-4" points="928.92 751.91 904.93 775.91 920.37 791.37 944.39 767.37 928.92 751.91"/><rect class="cls-4" x="1049.96" y="1145.96" width="33.92" height="35.15" transform="translate(-958.76 692.59) rotate(-45.01)"/><polygon class="cls-4" points="757.3 923.54 772.77 939 796.73 915 781.29 899.55 757.3 923.54"/><rect class="cls-4" x="1201.41" y="1007.63" width="33.93" height="24.24" transform="translate(-812.74 757.01) rotate(-44.99)"/><path class="cls-2" d="M1142.25,1078.73c9-9-32.76-65.19-93.12-125.58S932.46,851,923.49,860a3.73,3.73,0,0,0-.51,1.1l-.29-.3-6.61,22c8.38-8.33,60.61,30.42,116.81,86.59s94.88,108.42,86.56,116.76l22-6.59-.32-.28A4.09,4.09,0,0,0,1142.25,1078.73Z" transform="translate(-448.49 -402.88)"/><path class="cls-2" d="M844,1158.34c-56.2-56.16-108.43-94.91-116.81-86.6v0l14.93,60.43h0c5.25-5.22,38.17,19.19,73.54,54.53s59.74,68.27,54.52,73.52l60.38,14.91v0C938.84,1266.72,900.09,1214.46,844,1158.34Z" transform="translate(-448.49 -402.88)"/><polygon class="cls-5" points="372.02 906.89 372.06 906.88 372.02 906.89 372.02 906.89"/><path class="cls-3" d="M815.62,1186.66c-35.37-35.36-68.29-59.78-73.54-54.52l-49.59,49.57c5.22-5.26,38.17,19.16,73.54,54.53s59.74,68.27,54.52,73.52l49.59-49.58C875.36,1254.93,851,1222,815.62,1186.66Z" transform="translate(-448.49 -402.88)"/><polygon class="cls-5" points="244 778.84 244 778.83 244 778.84 244 778.84"/></svg>